<svg xmlns="http://www.w3.org/2000/svg" viewBox="0 0 99.86 84.73"><defs><style>.cls-1{fill:#fff}</style></defs><g id="Layer_2" data-name="Layer 2"><g id="bttm_text" data-name="bttm text"><path id="a" d="M63.37,82.89a17,17,0,0,1-2,1.84c-4.55-4.7-9.88-9.91-15-9.91-3.15,0-5.41,2.4-8.05,4.09-3.67,2.34-8.71,3.66-13,1.94a14.2,14.2,0,0,1-6.24-4.28,13.59,13.59,0,0,0,12.3,1.06c4.24-1.76,8.55-4.09,13.38-4.09,7.11,0,13.87,4.81,18.62,9.35ZM10.78,68.11c4.71,5.36,12.4,3.63,18.68,5a6.91,6.91,0,0,0,2.64.33,14.94,14.94,0,0,0-2.6-.85c-4.88-1.84-5.64-7.06-8.31-10.65,3.41,2.26,6.23,5.37,9.42,8.29a15.8,15.8,0,0,0,7.86,3.48c-.69.25-1.59.19-2.34.38C31,75.33,25.27,77.35,19.79,75.54a16.16,16.16,0,0,1-9-7.43ZM3.23,55.69C6.17,62.35,13.55,62.87,18.46,67a13.65,13.65,0,0,0,2.88,2l.06-.06a20.84,20.84,0,0,1-3.24-3.52c-2.8-4.07-1.87-9.65-4-14a31,31,0,0,1,4.94,7.47c1.82,4.34,2.44,9.29,6.52,12.58-4.42-1.46-9.52-1.17-13.5-3.77C7.91,64.9,4,60.58,3.23,55.69ZM.08,42.23c.43,5.87,6.67,9,9.64,13.82A13,13,0,0,0,11.94,59,11,11,0,0,0,11,57.18a13.38,13.38,0,0,1-1.15-6.92c.29-3,1.54-5.77,1.06-8.92,2.56,5.53,1.73,12.45,3.22,18.44a29.39,29.39,0,0,0,1.63,3.74c-2.52-1.92-5.83-3.62-8.59-5.8A18.34,18.34,0,0,1,1,49.92a18.4,18.4,0,0,1-.88-7.69ZM.26,31.44a18.67,18.67,0,0,1,1.1-3.87C.28,33.1,4,37.1,5.21,41.88a38.11,38.11,0,0,0,1.37,5.4c.07,0,.13,0,.17-.09-1.82-5.09.84-9.79,3.43-13.81a11.5,11.5,0,0,0,1.33-3.52,26,26,0,0,1-.64,7.35,91.52,91.52,0,0,1-2.42,8.88A13.81,13.81,0,0,0,8.33,52l-.27-.22C6.13,48.18,2.32,45.4,1.18,41.51A21.88,21.88,0,0,1,.26,31.44Zm2-6A17,17,0,0,1,6.36,14.77c.08,0,.13-.1.22-.09-2.69,4.1-.24,9.26-.59,13.9l-.35,4.77c.05,0,.05.18.17.12a13.13,13.13,0,0,0,.3-1.64c.65-3.84,4-6.52,6.88-9.23a5.92,5.92,0,0,0,1.49-2.21A17.56,17.56,0,0,1,12.85,26c-2.2,4.46-6.45,8-7.21,13.12-.38-4.86-3.35-8.46-3.35-13.63ZM9.38,11.37a9.68,9.68,0,0,1,4.68-3.13C10.55,10.65,10.74,15,9.67,18.56c-.39,1.32-1,2.55-1.28,3.91l.09.07a11.75,11.75,0,0,1,2.89-4.24c2.47-2.33,6.17-3.74,7.39-7.14-.05,4.73-4.08,8.32-7.77,11.1a13.46,13.46,0,0,0-3.91,4.68,17.39,17.39,0,0,0,.1-3.67c-.38-4.13-.63-8.76,2.2-11.9ZM23.61,3.42c-2.6,2.29-4.34,5.22-6.34,7.87-1.66,2.19-3.94,3.55-5.9,5.4,1.06-2.2,1.25-4.72,2.6-6.84,2.3-3.64,6.1-5,9.64-6.43Z" class="cls-1"/><path id="a-2" d="M36.49,82.89a16.28,16.28,0,0,0,2,1.84c4.54-4.7,9.88-9.91,15-9.91,3.14,0,5.41,2.4,8.05,4.09,3.67,2.34,8.7,3.66,13,1.94a14.26,14.26,0,0,0,6.24-4.28,13.61,13.61,0,0,1-12.31,1.06c-4.23-1.76-8.54-4.09-13.37-4.09-7.11,0-13.88,4.81-18.62,9.35ZM89.08,68.11c-4.71,5.36-12.4,3.63-18.69,5a6.83,6.83,0,0,1-2.63.33,14.67,14.67,0,0,1,2.6-.85c4.88-1.84,5.64-7.06,8.31-10.65-3.41,2.26-6.24,5.37-9.43,8.29a15.77,15.77,0,0,1-7.85,3.48c.69.25,1.59.19,2.33.38,5.15,1.27,10.87,3.29,16.35,1.48a16.16,16.16,0,0,0,9-7.43Zm7.55-12.42C93.69,62.35,86.31,62.87,81.4,67a13.71,13.71,0,0,1-2.89,2l-.05-.06a21.26,21.26,0,0,0,3.24-3.52c2.8-4.07,1.87-9.65,4-14a30.73,30.73,0,0,0-4.94,7.47c-1.82,4.34-2.44,9.29-6.52,12.58,4.42-1.46,9.52-1.17,13.5-3.77C92,64.9,95.83,60.58,96.63,55.69Zm3.15-13.46c-.43,5.87-6.67,9-9.65,13.82A12.7,12.7,0,0,1,87.92,59a11,11,0,0,1,.94-1.79A13.38,13.38,0,0,0,90,50.26c-.29-3-1.54-5.77-1.06-8.92-2.56,5.53-1.74,12.45-3.22,18.44a30.89,30.89,0,0,1-1.63,3.74c2.52-1.92,5.82-3.62,8.59-5.8a18.32,18.32,0,0,0,6.2-7.8,18.24,18.24,0,0,0,.89-7.69ZM99.6,31.44a18.67,18.67,0,0,0-1.1-3.87c1.08,5.53-2.6,9.53-3.86,14.31a36.78,36.78,0,0,1-1.36,5.4c-.07,0-.13,0-.17-.09,1.82-5.09-.84-9.79-3.44-13.81a11.48,11.48,0,0,1-1.32-3.52A26.39,26.39,0,0,0,89,37.21c.55,3.06,1.6,5.93,2.43,8.88A14,14,0,0,1,91.53,52l.27-.22c1.93-3.56,5.73-6.34,6.88-10.23a21.88,21.88,0,0,0,.92-10.07Zm-2-6a16.92,16.92,0,0,0-4.08-10.72c-.07,0-.12-.1-.21-.09,2.69,4.1.24,9.26.59,13.9l.35,4.77s0,.18-.18.12c-.15-.53-.2-1.1-.3-1.64-.64-3.84-4-6.52-6.88-9.23a6.17,6.17,0,0,1-1.49-2.21A18.08,18.08,0,0,0,87,26c2.21,4.46,6.46,8,7.22,13.12.37-4.86,3.35-8.46,3.35-13.63Zm-7.1-14.12A9.61,9.61,0,0,0,85.8,8.24c3.51,2.41,3.31,6.72,4.39,10.32.39,1.32,1,2.55,1.27,3.91l-.09.07a11.6,11.6,0,0,0-2.88-4.24C86,16,82.32,14.56,81.1,11.16c.05,4.73,4.08,8.32,7.76,11.1a13.35,13.35,0,0,1,3.91,4.68,18.07,18.07,0,0,1-.09-3.67c.38-4.13.62-8.76-2.21-11.9ZM76.25,3.42c2.6,2.29,4.33,5.22,6.33,7.87,1.66,2.19,4,3.55,5.91,5.4-1.06-2.2-1.26-4.72-2.6-6.84-2.3-3.64-6.1-5-9.64-6.43Z" class="cls-1" data-name="a"/><path d="M81.7,50.69l-.77-.42a34.5,34.5,0,0,1-6.37,9.06l-4.49-4.49a28,28,0,0,0,5.28-7.62l-.76-.42a27.55,27.55,0,0,1-5.13,7.43L65.4,50.16A21.36,21.36,0,0,0,69.53,44l-.76-.41a20.61,20.61,0,0,1-4,5.92L60.3,45.06a14.28,14.28,0,0,0,2.87-4.5l-.76-.41a13.58,13.58,0,0,1-2.72,4.31l-4.08-4.08a7.55,7.55,0,0,0,1.93-4.66h5.78a13.41,13.41,0,0,1-.91,4.43l.76.41a14.32,14.32,0,0,0,1-4.84h6.36a20.42,20.42,0,0,1-1.76,7.91l.76.41a21.58,21.58,0,0,0,1.85-8.32h5.76A26.89,26.89,0,0,1,74.59,46.8l.76.42A27.83,27.83,0,0,0,78,35.72h6.37a34.32,34.32,0,0,1-3.43,14.55l.77.42a35.48,35.48,0,0,0,1-28.64l-.79.34a34.36,34.36,0,0,1,2.49,12.48H78a28.32,28.32,0,0,0-2-10l-.79.33a27,27,0,0,1,1.91,9.63H71.38a21.49,21.49,0,0,0-1.44-7.35l-.79.34a20.52,20.52,0,0,1,1.38,7H64.17a14.37,14.37,0,0,0-.87-4.5l-.78.34a13.4,13.4,0,0,1,.8,4.16H57.54a7.57,7.57,0,0,0-1.93-4.67l4.09-4.08a13.26,13.26,0,0,1,2.82,4.59l.78-.34a14.26,14.26,0,0,0-3-4.85L64.8,21a20.47,20.47,0,0,1,4.35,6.84l.79-.34a21.51,21.51,0,0,0-4.54-7.1l4.07-4.08a27,27,0,0,1,5.76,8.9l.79-.33a28.13,28.13,0,0,0-6-9.17l4.5-4.5a34.35,34.35,0,0,1,7.3,11.15l.79-.34A35.45,35.45,0,0,0,63.11,2.54l-.31.8A34.32,34.32,0,0,1,74,10.64l-4.5,4.5a27.94,27.94,0,0,0-9-5.87l-.31.79a27,27,0,0,1,8.71,5.69L64.8,19.82a21.47,21.47,0,0,0-6.74-4.39l-.32.79a20.46,20.46,0,0,1,6.46,4.21l-4.5,4.5a14.36,14.36,0,0,0-4.28-2.79l-.31.8a13.07,13.07,0,0,1,4,2.59L55,29.61a7.52,7.52,0,0,0-4.66-1.93V21.91a13,13,0,0,1,4.76,1l.31-.8a14.24,14.24,0,0,0-5.07-1.08V14.69a20.6,20.6,0,0,1,7.4,1.53l.31-.79a21.41,21.41,0,0,0-7.71-1.59V8.08a27.08,27.08,0,0,1,9.81,2l.31-.79a27.89,27.89,0,0,0-10.12-2V.86A34.45,34.45,0,0,1,62.8,3.34l.31-.8a35.34,35.34,0,0,0-29,1.2l.39.75A34.15,34.15,0,0,1,49.5.86V7.23a27.9,27.9,0,0,0-12,2.91l.39.74A27.22,27.22,0,0,1,49.5,8.07v5.77a21.21,21.21,0,0,0-9,2.16l.38.74a20.58,20.58,0,0,1,8.57-2v6.36a14.17,14.17,0,0,0-5.61,1.34l.39.75A13.29,13.29,0,0,1,49.5,21.9v5.78a7.46,7.46,0,0,0-2.54.58l.39.75a6.78,6.78,0,0,1,9.36,6.28,6.79,6.79,0,1,1-11.59-4.8A7,7,0,0,1,47.35,29L47,28.26a7.87,7.87,0,0,0-2.12,1.35l-4.08-4.09a13.56,13.56,0,0,1,3.52-2.38l-.39-.75a14.16,14.16,0,0,0-3.73,2.54l-4.51-4.51a20.78,20.78,0,0,1,5.28-3.68L40.55,16a21.33,21.33,0,0,0-5.49,3.83L31,15.75a27.06,27.06,0,0,1,6.89-4.87l-.39-.74a28.2,28.2,0,0,0-7.09,5l-4.51-4.5a34.19,34.19,0,0,1,8.64-6.16l-.39-.75a35.57,35.57,0,0,0-15.87,16l.74.4a34.32,34.32,0,0,1,6.28-8.87l4.51,4.51a28.27,28.27,0,0,0-5.18,7.4l.74.39a27.26,27.26,0,0,1,5-7.2l4.08,4.08a21.54,21.54,0,0,0-4,5.88l.74.39A20.72,20.72,0,0,1,35.05,21l4.51,4.51a14.34,14.34,0,0,0-2.76,4.21l.75.4a13.43,13.43,0,0,1,2.6-4l4.09,4.08a7.59,7.59,0,0,0-1.93,4.66H36.53a13.29,13.29,0,0,1,1-4.73l-.75-.4a14.15,14.15,0,0,0-1.12,5.13H29.32a20.64,20.64,0,0,1,1.86-8.17l-.74-.39a21.27,21.27,0,0,0-2,8.56H22.7a27.33,27.33,0,0,1,2.65-11.32l-.74-.39a27.84,27.84,0,0,0-2.75,11.71H15.49A34.27,34.27,0,0,1,19,20.12l-.74-.4a35.1,35.1,0,0,0-3.63,15.57,35.5,35.5,0,0,0,1.42,10l.83-.21a34.91,34.91,0,0,1-1.39-9.31h6.36a28.37,28.37,0,0,0,1.21,7.76l.82-.21a27.63,27.63,0,0,1-1.18-7.55h5.77a21.4,21.4,0,0,0,1,6.14l.82-.21a20.64,20.64,0,0,1-1-5.93h6.36a14.15,14.15,0,0,0,.82,4.37l.83-.21a13.4,13.4,0,0,1-.8-4.16h5.78a7.55,7.55,0,0,0,1.93,4.66l-4.09,4.08a13.22,13.22,0,0,1-2.82-4.58l-.83.21a14.1,14.1,0,0,0,3,5l-4.5,4.5a20.39,20.39,0,0,1-4.74-7.91l-.82.21a21.27,21.27,0,0,0,5,8.31l-4.07,4.07a27,27,0,0,1-6.49-11l-.83.21a27.83,27.83,0,0,0,6.72,11.36l-4.5,4.5A34.07,34.07,0,0,1,16.89,45l-.84.21A35.49,35.49,0,0,0,34.71,67.16l.42-.75a34.32,34.32,0,0,1-9.25-6.47l4.5-4.49a28.05,28.05,0,0,0,7.89,5.39l.42-.74A27.07,27.07,0,0,1,31,54.84l4.07-4.07a21.46,21.46,0,0,0,6.48,4.29l.42-.75a20.63,20.63,0,0,1-6.29-4.14l4.5-4.5a14.32,14.32,0,0,0,5,3l.43-.76a13.25,13.25,0,0,1-4.78-2.89L44.84,41a7.6,7.6,0,0,0,4.66,1.93v5.77a13.39,13.39,0,0,1-4-.73l-.43.76a14.33,14.33,0,0,0,4.39.82v6.37A20.77,20.77,0,0,1,42,54.32l-.42.74a21.55,21.55,0,0,0,8,1.7v5.76A27,27,0,0,1,38.69,60.1l-.42.75A28,28,0,0,0,49.5,63.37v6.36a34.21,34.21,0,0,1-14.37-3.32l-.42.75a35.45,35.45,0,0,0,31.12-.34l-.4-.78a34.13,34.13,0,0,1-15.08,3.69V63.37a27.87,27.87,0,0,0,12.17-3l-.4-.77a27,27,0,0,1-11.77,2.89V56.76a21.47,21.47,0,0,0,9.14-2.24l-.4-.77a20.54,20.54,0,0,1-8.74,2.16V49.54a14.15,14.15,0,0,0,5.83-1.43l-.39-.76a13.5,13.5,0,0,1-5.44,1.34V42.92A7.63,7.63,0,0,0,55,41l4.07,4.07a13.45,13.45,0,0,1-3.3,2.29l.39.76a14.3,14.3,0,0,0,3.52-2.44l4.49,4.49a20.62,20.62,0,0,1-5.1,3.59l.4.77a21.46,21.46,0,0,0,5.31-3.75l4.07,4.07a27.59,27.59,0,0,1-6.75,4.79l.4.77a28.43,28.43,0,0,0,7-4.95L74,59.94A34.74,34.74,0,0,1,65.43,66l.4.78A35.37,35.37,0,0,0,81.7,50.69Z" class="cls-1"/><path d="M51.73,27.13v.26H52v-.26Zm-.31-.35h.28V27h-.28Zm-.26,0,0-.21-.25,0,0,.22Zm-.46-.11-.25,0,0-.22.25,0Zm-2.06-.28h.29v.21h-.29Zm-.37.47,0-.22-.25,0,0,.21Zm-.22.29L47.76,27l.06-.21.28.08Zm-.51.26,0-.21.22,0,0,.22ZM19.59,50h.22l0-.54-.28-.11v-.18h-.18v.36h.28ZM21.8,51.6l.25.18.25.55-.14.25-.39-.36-.29-.4-.14-.32-.25-.66.53.26Zm8.47,10.84-.25.15-.14-.22-.35-.11,0-.32-.29-.44.43.08.46.39Zm18.55-33h-.39l-.07-.8.21-.14v-.4H47.33l0-.4.18-.11-.29-.11-.21.29-.07.33-.36.07v.18h-.25v.47l-1,.83-2-.07c-.14.32-.5,0-.5,0-.07-.21-.56,0-.56,0,0,.4-.68-.18-.68-.18l-1.25-.9c-.71-.65-1.78.18-1.81.36,0,.51-.82.11-.82.11s-.71-.22-.82.07-.57.22-.57.22l-.07.14-.36.08-.07.21-.43.07,1.07,0c.29,0-.1.61-.28.58l-.5,0-.18.18H35l-.22.29-.67,0s-.39.32-.36.43-.07.43-.18.43-.32.33-.24.44-.22.47-.22.47l-.07.36-.21.07v1l-.43.29v.43l-.64.69.07.57-.53.58.07.58-.32.11-.07.25-.15.76.36,0c.18-.08.14.47,0,.54s-.53.21-.32.36-.57.11-.57-.11-.43-.4-.53-.32-.29-.33-.29-.33c-.39-.4-1.6,0-1.6,0l-.18.57c-.39.08-.64.73-.64.73-.32.11-.57.5-.46.61s-.18.15-.18.15v.79l-.18.25,0,.87c.21,0,.17.4.17.4-.35,0-.28.5-.28.5l-.75.26-.14.21-.93,0-.25.25-.25-.25H22.08L22,43.55l-.35-.08,0-.39-.53,0-.11.22-.57,0c0,.36-.57.9-.64.76s-.46-.55-.28-.62a4.28,4.28,0,0,1,.64-.14v-.26l-1.32,0-.14.21-.54,0v.58l-.25.07c-.17.11,0,.51,0,.51.25.25,0,.65,0,.65-.21.21.18.61.18.61.29.07-.18.29-.18.29a.65.65,0,0,0,.29.47.36.36,0,0,0,.14.54l0,.62.25.14v.4l.14.25h.57l0-.9c-.5-.58.43-.73.47-.51s.42.33.42.33c.07.54.68.86.86.32s.32-.22.42,0a5,5,0,0,0,.79.86h.53l.07.51c.61,0,.79,0,1,.87A1.56,1.56,0,0,0,24.79,51l.5,0c0-.43.5.07.5.29s1,1,1,1l1,.21.89.73.68-.08h.28c.18-.61,1,0,1.11.26s.64.57.71.39.46-.07.53.47.32.44.32.44l2,0L35,54.1l1.82,0c.92,0,.35-1.3.18-1.3-.32-.25.1-1.3.1-1.3L34.47,49c-.6,0-.07-.87-.07-.87.47-.29-.1-.76-.1-.76a1.64,1.64,0,0,0-.25-.94,1.28,1.28,0,0,1-.47-1.26v-.58c-.53-.51.22-.58.22-.58a.6.6,0,0,0-.18-.76l0-.47L33,42.75l-.07-1.7-1.28-1.84c-.25-.07-.07-.51-.07-.51.32-.18-.07-.61-.07-.61l0-.79.75-.08.18-.29h.36l0-.94a.39.39,0,0,1,.6-.21l.5,0,.29-.54.07-.43-.39,0c-.43-.25-.22-1.19-.22-1.19.68-1,1.46-.43,1.46-.43l.5,0c.75.51.07,1.45.07,1.45a2.15,2.15,0,0,0-.07.9l.18,1.15-.46.4c-.39.22-.39.72,0,.83s.18.73-.25.26c-.64,0,.36.57.08.43.64.32.49-.29.49-.29l.86-.69c.32-.25.89.55.89.65a6.14,6.14,0,0,0,1.42,0,1.67,1.67,0,0,1,.54.9c.39-.5,1.21,0,.6.26.57.36.57.68.57.68.46-.14.46.22.46.33a3.49,3.49,0,0,0,.15-.54c-.54-.4.71-.55.35.18l-.21.32.36.29,0,.83c.78-.07.57-1.05.57-1.05l.36-.07c0-.32.24-.14.24-.14-.24-1.23.58-1.45.58-1.45.46-.11.49-1.08.49-1.08-.32-.15-.14-.65.22-.22s-.22-.87-.22-.87l-.28-.25-.39,0,0-.4h-.64l-.11.5-.25.08-.07-.15-.1.4h-.64l0-.43.39-.11.14-.22.11-.58h.46l.61-.18c0-.61.36-.47.36-.47l.21.18.32.26,0,.21-.21.11,0,.29.1.4h.29A.6.6,0,0,1,45.16,36l.21-.51c-.5-.25,0-.65.13-.47s.47-.47.47-.47.25.33,0-.1a.44.44,0,0,1,.18-.65c-.07-.44.47-.37.47-.37l0-.57-.5,0c-.1.51-.53.07-.32,0a1.68,1.68,0,0,0,.43-.32v-.36l.21-.07,0-.37H47l.46-.21.11-.18.5,0,.71-.65-.07-.29c-.43,0,0-.32,0-.32l.07-.54Z" class="cls-1"/><path d="M34.47,36.61l-.64-.07,0,.25h.18a3.55,3.55,0,0,1,0,1.73s-.42,0-.5-.18-.24.47-.1.58.64,0,.67.4.32-.25.32-.25Z" class="cls-1"/><path d="M34.62,40.66l.07-.33-.25-.11,0-.54.22,0,0-.25-.53.36-.36-.21v.86l.57.76Zm.14.94-.25,0,0,.29.29,0Zm-.32,1.84-.3,0v.26l.3,0Zm.42-.86a.15.15,0,0,0,.15-.15.16.16,0,0,0-.15-.16h0a.15.15,0,0,0-.15.16h0A.15.15,0,0,0,34.86,42.58Z" class="cls-1"/><circle cx="35.11" cy="43.19" r=".15" class="cls-1"/><circle cx="35.11" cy="39.06" r=".15" class="cls-1"/><path d="M47.47,34.66V34h-.21l0-.25-.39,0-.07.18h-.18l0,.29h.22l0,.22-.14.14-.07.18-.29.08-.64.61,0,.29-.18.25-.21.54-.75,0-.14.65.1.54.64.26.07-.37.22-.1,0-.37.15-.25.21-.25.07-.29.36-.22.42-.07.18-.22.07-.43,0-.32.15-.22Zm.75,1.52v-.51l-.08-.47L47.61,35l-.39.36-.07.5v.33l-.36.07-.07,1-.28.11,0,.36-.39.11-.39.1-.07.47-.29.18-.14.44L45,40s.32.61.5.32A.67.67,0,0,1,46,40l.11-.26,1,0a.28.28,0,0,1,.54-.07c0,.18.35,0,.35,0l.25-.39h.39l0-.44.18-.11v-.65a.66.66,0,0,0,.49-.72l.15-.18L49.36,37c-.29-.11-.15-.36,0-.29s-.25-.33-.25-.33c-.21.18-.39-.21-.39-.21Zm.57,4.37c0,.43-.57.58-.57.58l-.4-.11-.21-.18,0-.51.33,0,.07.22Zm1.92-2.31c.08.31.07-.51.21-.47s0-.51,0-.51l-.64.47c.32,0,.35.36.39.51Zm1.89-1.88c.14.32.1.79.64,1.15.18.12-.11.36-.29.26a5.26,5.26,0,0,1-.67-.91v-.47C52.38,36.1,52.53,36.22,52.6,36.36Zm.46,10.87-.22-.07-.24.18.1.11.11.18Zm-1.36-.47v.44m5.44-1.14L57,45.88l-.28.17.11.19Zm10,7.71.32.15,0,.61c.43.43,1.82.07,1.82,0s-.07-1.33-.07-1.33L69.08,53l0-.91c.15-.47-.67-1.15-.74-1s-.54,0-.54.18-.28.87-.14,1.12-.11.26-.14.51-.39.69-.32.9Zm-.79-1.44c-.06.27-.32.43-.46.32s.18.18.25.33a.21.21,0,0,0,.36,0c.07-.15,0-.47.1-.62s-.21-.18-.25,0ZM64.72,45.7H65v.68h-.25Zm3.68-7c-.15-.21.72-.58.86-.14s0,.36-.14.32-.5.11-.72-.18Zm.73-4.63.39.08,0-.22-.39-.07Zm-1,.16-.26.15-.23-.14-.12.18.29.18.05,0,.06,0,.21-.12,0,.07.2-.08-.08-.18,0-.12Zm1.34-8.54H69s.18.08-.32-.39a.49.49,0,0,0-.82.1l-.57.08v.57L67,26.2l0,.36.4,0s0,.43.1.25,1,0,.93.47c0,.18.89.65.78,1.23a.44.44,0,0,1,.36.54l.6.07.18-.36.18,0v-.22l-.39-.11-.07-1.15-.25-.18.07-.29-.29-.11.15-.47-.25-.51Zm1.56,3.69-.28,0-.64.11-.36.69a1,1,0,0,1,.32.36c.14.25.21,1.73-.21,2s0,.1,0,.1l-.07.8c.11.36.29.18.39,0s.22-.22.36-.4a2,2,0,0,0,.39-.76c0-.25.21-.65.11-.75s.1-.62.1-.62a.68.68,0,0,0,0-.58.78.78,0,0,1,.15-.76l-.29-.14Zm.43,1.47,0-.29.21,0,0,.29Zm0,1-.19-.1.11-.21.19.09ZM71.18,29,71,28.7a1.36,1.36,0,0,1,.07-.44c.07-.14-.15-.28-.25-.32s-.07-.33-.11-.47-.28-.25-.28-.25-.07-.55-.07-.65-.33-.26-.22-.37.18-.25.29-.32-.11-.58.07-.47.18.29.25.43,0,.65.14.76,0,.47.25.47.11.69.11.69-.08.5.1.54.07.9.07.9L71.18,29Zm-2.31-5.85c.1.14.32.25.32.4s-.08.25.14.28.35,0,.43.15a1.17,1.17,0,0,1,0,.61c0,.15,0,.36.21.36s.22,0,.22.15.21-.4.21-.4a1.43,1.43,0,0,1-.32-.47,5.14,5.14,0,0,1-.18-.58c0-.07-.25-.14-.35-.18s-.29-.36-.29-.36l-.42,0Zm.35-.33a1.05,1.05,0,0,0-.35-.32.94.94,0,0,0-.4-.15.23.23,0,0,1-.21-.32c.07-.18-.11-.25-.11-.4s.11-.14.29,0,.14.14.28.32.22.36.36.33.25.32.39.21.11.26.11.26l-.36.1Zm-4.16,4.09c.19.2-1.07.14-1.07,0s.1-.65.42-.55.36-.65.36-.65-.28,0,0-.1,0-.37-.11-.47a1.88,1.88,0,0,1-.22-.29h.5c.22-.15.29-.83.29-.83a.57.57,0,0,0,.64-.15,1.46,1.46,0,0,0,.21.4c.15.18-.35.25-.18.36a.5.5,0,0,1,.18.54c-.07.11-.46,0-.46-.11s-.14.18,0,.36-.18.44-.25.44-.53.07-.14.29a1.29,1.29,0,0,0,.82.11s.32,0,.42.14,0,.22-.21.22-1-.08-1-.08-.25.26-.14.37Zm-2.28.32c.18,0,.6-.07.67,0s-.25.25-.25.25l-.42.07C62.63,27.43,62.6,27.29,62.78,27.25Zm4.59-3c.29-.15.89-.15.86-.36s.35-.29.35-.29l.11.43.32.22,0,.39s.11-.07-.28,0-.14.29-.14.29l-.86,0-.1-.37-.29-.39ZM66,22.27c.22,0-.07.83.5.75s0,.26.46.29.32-.32.46-.57.08-.4-.17-.47-.25-.08-.32-.37a.54.54,0,0,0-.36-.36l-.11-.43L66,21.4l-.46.61C65.52,22.48,65.77,22.27,66,22.27Zm.94,3.05L67,25.1l.19.1-.11.22ZM66.55,25h.21v.26h-.21Zm.18-4.81,0,.33-.22,0,0-.33Zm-.61,3.37h.22v.18h-.22Zm-.56,0,0-.22.36,0,0,.22ZM62.63,27l-.2-.08.11-.26.19.09Zm-1.12-.66,0-.21.35,0,0,.22Zm-7,0v.22l.78,0v-.21Zm-.52.28L54,26.26l.21,0,.07.32Zm-.15.22-.07-.2.1,0,.07.21Zm1.78-.61,0,.26.39,0s.18.15.18.26.25.21.39.21a1.86,1.86,0,0,0,.54-.29s.17-.5,0-.47-.43.26-.46,0-.46-.11-.46-.11l-.57.07Zm1.78-.39c0,.1-.08.25.14.29s.6-.15.64.07,0,.36.32.47a1.69,1.69,0,0,0,.68.14,6.56,6.56,0,0,0,.67-.07,2,2,0,0,1,.61.18q.59.6.75.33c.1-.19,0-.58-.08-.73s-.53-.83-.71-.68-.21,0-.53.1-1,0-1-.1-.54-.22-.54-.37-.35-.32-.32-.1-.25.32-.32.25-.28.22-.28.22Zm8.19-4.63.25-.79a.4.4,0,0,1-.29-.47c0-.33-.53-.69-.71-.58s-.11-.76-.11-.76.32-.22.46-.11S64,16.66,63.74,16.84s-.93-.18-.89-.5-1.28-1.41-1.28-1.41-.43-.29-.5-.07-.21.36,0,.47.18-.18.43.07.71.58.53.79a1,1,0,0,1-.39.29l.25.29h.39l.07.62s.43.21.53.47.11.39,0,.54-.32.4-.28.65a.54.54,0,0,0,.32.36l.28,0,.22.1V20c.28-.07.75.33.71.58s.07.11.43.36.25.29.5.47.46.08.57-.25Z" class="cls-1"/><path d="M59.75,16.27c0-.15-.11-.65.11-.62s.07,0,.32.11.28-.18.28-.18h.39l.5.4-.07.32-.35,0c-.18-.29-.54-.18-.47.07a.84.84,0,0,1-.32.76c-.14,0-.6,0-.57-.18s.18-.72.18-.72Zm-.28-1V15s0-.29-.22-.29-.5-.21-.43-.36-.6-.29-.6-.29-.61-.58-.39-.5.11-.26.11-.26a2,2,0,0,1-.54,0c-.11,0-.07-.36-.07-.36s-.43-.11-.43,0,.15.11.22.32,0,.58.35.65.39.15.43.29.43.18.43.18l.28.15.86.72Zm-3.95-4-.29-.08v.33l.39,0Zm0-1.23c-.37-.28.5.22.5.22a.45.45,0,0,1,.47.32c0,.11.39.07.39.07l0-.25-.28-.36-.25-.18s-.39,0-.39-.15-.32.44-.47.33Zm6.55.21c-.1.32-.14.76-.32.76s-.1.47-.1.47a3.82,3.82,0,0,1,.6,0c.14,0,.14.4.14.4.54,0,.75.68.68.86s.21.18.21.18a3.17,3.17,0,0,1-.07.73c-.07.14.47.25.61.47a1.21,1.21,0,0,1-.18,1c-.11,0,.28.15.25.33s.11,0,.14.29.11.9.11.9l.5,0c.07-.47,1-.49,1.14-.44a2.16,2.16,0,0,1,1.06,1.38c0,.21-.39.25-.39.25L66.51,19c.61.18,1.11,1,1,1.19s.42.11.42.11c.08-.65.68-.44.72-.22s.14.69.14.69l.18.32.25.25.39,0,.1.22.47.07a3.52,3.52,0,0,1,.42.54c0,.11.57.07.72.11a.51.51,0,0,1,.39.32A1.54,1.54,0,0,0,72,23s.42.11.46.26a4.1,4.1,0,0,0,.21.47L73,24l0,.33.4,0,.1.43.64,0,.36-.25a1.94,1.94,0,0,0,.82-.72c0-.15.11-.69.46-.58s.11-.79.11-.79-.5-.37-.46-.55-.5-.54-.47-.68-.46-.44-.42-.58-.25-.54-.25-.54l-.54-.51-.07-.32-.43,0-.85-1.05,0-.29-.24,0v-.4L72,17.31l-.4,0-.78-.87-.07-.4h-.39l.07-.76a1.33,1.33,0,0,0,.11-.93s-.5.25-.75.14.11-.36.11-.36v-.29l-.22-.22s-.6.08-.64,0S68.9,13,68.9,13l0-.62-.25-.1,0-.22-.39,0v-.43L68,11.57l-.21-.11,0-.43-.78,0-.25-.36-.28-.43-.89-.08-.22-.21L65,9.84l-.25-.11-.11.18-.67,0,0,.22c-.36.18-1.78,0-1.82.14Zm3.74-.93c0-.29.72-.55.89-.33a1.45,1.45,0,0,1,.75,1.34c0,.39-.64-.4-.64-.4l-.53-.18a.58.58,0,0,1-.47-.43Zm-10.44.44-.19-.09.14-.33.19.09ZM53.52,6.26l-.46-.47v-.4l-.15-.14-.14-.51-.46-.14-.46.18-.5.32-.54.08-.28.32,1.14.11.21.36L52.7,6l.53.54c.47.15.58-.07.29-.32Zm-.07-1.77c-.08-.32-.53.39-.07.54a1.77,1.77,0,0,0,.92,0l.11-.22,1.78,0a1.12,1.12,0,0,0,.21-.36A1.32,1.32,0,0,1,57,4.41c.18.08,0-.5-.14-.43a1.63,1.63,0,0,1-.54,0h-.64c0-.26-.6-.15-.64,0s-.25.18-.25.18L54,4.27c-.07.22-.49.36-.53.22Zm-3.53,6.1c.55.17.75,0,.79-.1s.07-.19.28-.22,0-.47-.25-.43a.4.4,0,0,1-.46-.26c0-.18-.39-.65-.43-.29s-.25.36-.21.62.14.63.28.68Zm-4.09.4c0-.13.71-.14.82,0s0,.28.36.28.17.22.14.33-.39.07-.43,0-.57-.14-.57-.14-.28-.22-.32-.4ZM57.64,3.77l.08-.06.35-.29-.13-.17-.28.22-.18-.18-.15.15.24.26ZM56,2.81l.4-.25-.12-.19L56,2.59l-.23-.15-.11.19.28.18.06,0Zm-1.1,7.77.18-.12-.25-.39,0-.05h0l-.36,0,0,.22.31,0ZM43.05,20.1l0,.39h.53c.22,0-.17-.25-.17-.25s-.43,0-.4-.14Zm.68,0,.14-.17.21.18-.13.17Zm-6.48-6.76.15-.16.21.22-.15.15ZM47.44,60.21l.18-.18.1-.11-.13-.07-.36-.18-.09.2.22.11-.07.07Zm-2.7-2.59.12-.18-.14-.1.11-.09-.14-.17-.21.18-.11.09.12.09ZM71.31,50.4a.45.45,0,0,0-.28-.27l-.07.21h0l.07,0,0,.19,0,.06.16.15a.45.45,0,0,0,.13-.37Zm0-.71,0-.33.35.06,0,.29Zm8.59-2.79c.16-.1.35-.27.33.13s-.19.27-.33.41S79.67,47,79.88,46.9Zm1.82-1.54s0,0,0,0a.49.49,0,0,0,0-.22l-.2.09a.42.42,0,0,1,0,.15.2.2,0,0,0,.07.18.17.17,0,0,0,.14,0l0-.21a.09.09,0,0,1,0,0Zm-.48.18c0,.15.09.3.14.45l.2-.08a3.89,3.89,0,0,1-.13-.42Zm-.78.85-.21,0c0,.17,0,.38.19.42l0-.21h0A.41.41,0,0,1,80.44,46.39Zm-.93-4.31a.22.22,0,0,0-.12-.15.73.73,0,0,0-.55.13l.11.19a.56.56,0,0,1,.36-.12,0,0,0,0,1,0,0l.21,0ZM69.65,30.54a1.25,1.25,0,0,1-.47.22l-.1.39-.18.15a.8.8,0,0,1,0,.36c0,.25-.36.4-.36.4l-.14.18a7.64,7.64,0,0,1-1,0,.28.28,0,0,1,.11-.54c.21,0,0-.62,0-.62l.29,0s0-.65.14-.65,0-.21-.18-.32-.32-.47-.46-.43a5.48,5.48,0,0,1-.71,0l-.11.21-.39.07s0,.28,0,.37c-.21.25-1,.79-.67-.11l.1-.22v-.32l-.64,0s-.32-.11-.32-.25a2.39,2.39,0,0,0,0-.33l-.75-.83-.89-.11-.07-.18-.54-.07c-.64-.33-1.21,0-1.1.51s.28.75-.07.75a.41.41,0,0,1-.43-.28s-.28-.11-.28,0-.11.44,0,.58-.15.36-.25.25-.4-.43-.32-.54-.5-.79.07-.9,0-.44.18-.51l.28-.14h.28l.18-.15-.46-.07-.28,0-.54,0a1.53,1.53,0,0,0-.64.79c-.28.54-1-.21-.71-.5s-.78,0-1,.11-.72.07-.72.07c-.1.32-.6,0-.46-.26a.72.72,0,0,0,.14-.36l-.17,0-.22.39c-.49,0-.64.29-.53.47s-.14,0-.21.22,0,.25.25.36-.11.11,0,.29.57,0,.32.25a.91.91,0,0,1-.75.15c0,.32-.71.25-.78.14s-.6-.76-.6-.76l-.68,0c-.07-.51.32-.25.46-.65a6.39,6.39,0,0,0,.22-1.05s-.58,0-.61.15-.39.28-.39.28-.29.11-.18.26-.21.21-.21.21,0,.24,0,.33c-.28.29-1,0-1.1-.07l-.43-.18-.43-.29-.5.21-.14.15h-.53l0,.43,1,.11.07.89-.39-.13h-.25l-.1-.22L49,29v.79l.22.18.18.18.35,0,.07.43.89,0,.11.18.53,0,1,1.05-.08.33-.17.11c.07.25-.47.1-.47.1v.22l.25,0,.25.14.36-.61c.39-.26.57.11.6.32a.14.14,0,0,1-.17.18v.51l.21.07A.43.43,0,0,1,53,34l-.11.36c-.11.32-.5.25-.5.25l-.14.22-.43.11.85.11c.08-.29.29-.37.4-.22a.84.84,0,0,1,.1.4l.22,0,0,.4.22.07V36.9l.25.29c.42-.18.42.11.21.25s-.07.79-.07.79l-.18.19v.28l-.21.15v.4a.93.93,0,0,0-.89,0c-.32-.22-1-.15-1,0,.21.29-.25.36-.25.36l-.25.29c.18.36-.18.4-.18.4V41l-.42.39,0,.94c0,.26.53.29.64.15s.54.29.54.29h.32l.07-.65L52,42V41l.36-.4c.43-.14.28.94.28,1.05,0,.4.22.36.4.29.35-.14.07.4-.22.36s-.1.36-.1.36l.17.08-.32.25-.28.32-.36-.1-.42,0-.15-.25-.25,0,0,.51-.18.21-.43.44c.57,0-.07.39-.21.39.32.11,0,.44-.86.18v.26l-.28,0,.25.29.28,0-.1.61c0,.47-1.18.15-1.28,0l0,.65-.21,0L48,47l0,.61.39-.07v.25l1,0,1.39-1.48.82-.18c.07-.36.42.07.42.07.36,0,.43.22.43.22l.46.07c.39.11.16.15.18.29s.21.14.21.14l.08-.47.21,0-.21-.25-.4-.18-.42-.19c-.29-.39.07-.32.35-.28h.47a4,4,0,0,1,.53.9c0,.18.25.22.25.22l.32,0,.11.25h.32l.1.22h.65l0-.33-.61-.1,0-.37-.43-.1c-.14-.62.11-.8.29-.51l.21,0L55,45.24l.25-.07-.07-.76-.22-.07v-.25l.89,0a1.2,1.2,0,0,1,0-.68h.25l0,.18,1.09.1.77-.88c0-.07.08-.11,0-.2s-.25,0-.43-.11,0-.72,0-.86.61-.36.5,0,0,.47,0,.47a.47.47,0,0,1,.82.15c0,.1.25.21.43.1s.39.33.32.55-.71.18-.75,0-.14-.14-.21,0a.53.53,0,0,1-.57.08s-.06,0-.07-.06l-.77.88h0c.43.25.22.57.08.65a1.17,1.17,0,0,1-.4.07l-.07.14-.92.08L55.9,45a.5.5,0,0,0-.53.68.58.58,0,0,1,0,.47l.39.18.5-.14c.07-.36.39-.43.68-.65s.75.4.6.69a1.07,1.07,0,0,0-.14.39l0,.33-.36.14-.29.15,0,.18h-1l-.18.18-.46,0-.15.21-.32,0s-.53.25-.32.54-.89.25-1.14-.14c-.07.36-.46,0-.46,0l-.39-.11,0-.54c-.07-.36-.74-.36-.71-.11s-1.28.11-1.28.11l-.43.21-.39.23,0,.18-.64.07-.29.14-.11-.21h-.28l-.29.39c-.74,0-1.46.47-1.38.65s-.29.37-.29.37l-.32.1-.21.33-.43.14-.07.76-.21.15v.32l-.25.07v.18l-.36,0,.21.54.29.15c.5.07.28.68.28.68l.29,0,.14.4.29.58c.1.43.42.32.56.28s.29.44.29.44l1.42,0s-.07.15.18.22a7.26,7.26,0,0,0,2,0c-.07-.33.89-.4,1.28-.11a1.13,1.13,0,0,0,.93.11l.53.65.36.79.6.18.43.11.14.62.32,0L55,58c.39.29-.11.9-.11.9v.8l.29.14,0,.29.46.47.54,0,1.35,1.44,1.07.33.18.58L59,63l.22-.18.85,0,.43-.39.46-.08,3.95-3.36-.35-.21v-.8c.64-.47.67-1.3.07-1.37s-.25-.54.18-.62l.24-.1v-.33l.82-.76v-.58l-1.78-1.48c-.78-.29,0-2,.54-2s0-2.67,0-2.67l-.28-.14.07-.87H64l-.64.83-.18.58c-.07.76-2.28.61-2.39.5a7.55,7.55,0,0,0-.85-.43s-.57-.47-.68-.32-.6-.19-.6-.08-.47-.25-.47-.25l-.71-.25.54-.11L57.9,47l.92.47c.11.14.57.1.57.1l.15.18A.56.56,0,0,1,60,48c.18.21,1.1,0,1.1,0l.25.22.39.14,1.11,0,0-.69.22-.21,0-.44.25-.21v-.37l.21-.07,0-.79.18,0V43.84l-.54-.51c0,.18-.6.18-.6.18s-.14.25-.25.25.14.33.07.55-.36.21-.36.21l-.53.15-.14.18h-.57l-.07-.47.64-.18.35-.18.18-.36c0-.37.46-.33.46-.33s.82-.69.86-1,.32-1.23.82-1.23H65c.36-.14.25-.61.25-.61l.47-.08.07.26s.64.07.71,0,.21-.36.39-.25.75-.25.75-.25c0-.26.92-.15.92-.15l.11-.32s-.6-.84-.71-.84-.68-.5-.75-.32c-.57-.15-.53-.94-.53-.94L66.44,37c0-.29-.53-.9-.64-.83a.51.51,0,0,1,0-.9c.14,0,.5-.54.5-.54l.18-.51.6-.18.08-.47-.32,0s.35-.65.53-.65a8.52,8.52,0,0,0,1.46-.08,2,2,0,0,0,.32-.76c0-.1.28-.14.39-.18a1.24,1.24,0,0,0,.43-.47c.07-.14-.18-1.05-.32-.9Z" class="cls-1"/><path d="M49.92,43.56c.06-.05.11.17.22.14s.16.19,0,.19-.11.14-.11.19a.39.39,0,0,1-.08.27c-.08.08-.16,0-.26,0a.58.58,0,0,0-.3,0c-.13,0,0,.22,0,.22s-.56,0-.46-.11.22-.11.14-.16,0-.11,0-.22.26-.06.18-.14,0-.39.14-.21l.08-.19c-.08-.09,0-.11-.19-.17s0-.38,0-.38l0-.21c0-.27.59-.3.61-.06a1.49,1.49,0,0,1,0,.41l.17.05s0,.17-.17.17,0,.08-.08.16l.08.13Zm-1.76.28c.08-.17.27-.87.48-.65s.35,0,.35,0a.33.33,0,0,1,0,.32c0,.22-.1.44-.24.46s-.24.11-.4.14S48.16,43.84,48.16,43.84Z" class="cls-1"/></g></g></svg>