<svg xmlns="http://www.w3.org/2000/svg" viewBox="0 0 167.1 66.65"><defs><style>.cls-1{fill:#fff}</style></defs><g id="Layer_2" data-name="Layer 2"><g id="bttm_text" data-name="bttm text"><polygon points="8.53 17.98 19.2 17.98 19.2 11.27 8.53 11.27 8.53 6.73 22.37 6.73 22.37 0 1.02 0 1.02 27.67 8.53 27.67 8.53 17.98" class="cls-1"/><path d="M51.8,16.21V0H44.29V16.21a5.51,5.51,0,0,1-1.51,3.94,4.9,4.9,0,0,1-7.24,0A5.52,5.52,0,0,1,34,16.21V0h-7.5V16.21a11.72,11.72,0,0,0,3.59,8.73,12.38,12.38,0,0,0,9,3.52,12.38,12.38,0,0,0,9.05-3.52A11.76,11.76,0,0,0,51.8,16.21Z" class="cls-1"/><polygon points="78.47 0 55.54 0 55.54 6.73 63.24 6.73 63.24 27.67 70.75 27.67 70.75 6.73 78.47 6.73 78.47 0" class="cls-1"/><path d="M107.49,0H100V16.21a5.52,5.52,0,0,1-1.52,3.94,4.88,4.88,0,0,1-7.23,0,5.52,5.52,0,0,1-1.52-3.94V0H82.21V16.21a11.76,11.76,0,0,0,3.59,8.73,13.39,13.39,0,0,0,18.1,0,11.72,11.72,0,0,0,3.59-8.73Z" class="cls-1"/><path d="M132.5,17.31a5.36,5.36,0,0,0,1.16-.86,11.58,11.58,0,0,0,1.39-1.52,8.24,8.24,0,0,0,1.19-2.34,9.46,9.46,0,0,0,.49-3.1,9,9,0,0,0-2.85-6.76A10,10,0,0,0,126.66,0h-13V27.67h7.51V19h3.95l4.75,8.7h7.89L132,17.6Zm-4.11-5.85a3,3,0,0,1-2.14.79h-5.13V6.73h5.13a3,3,0,0,1,2.14.79,2.55,2.55,0,0,1,.83,2A2.59,2.59,0,0,1,128.39,11.46Z" class="cls-1"/><polygon points="163.79 21.34 149.56 21.34 149.56 16.61 160.24 16.61 160.24 10.67 149.56 10.67 149.56 6.33 163.4 6.33 163.4 0 142.06 0 142.06 27.67 163.79 27.67 163.79 21.34" class="cls-1"/><path d="M8.55,54.56a8.44,8.44,0,0,0,6.06-2.39,7.83,7.83,0,0,0,0-11.45,8.41,8.41,0,0,0-6.06-2.4,8.41,8.41,0,0,0-6.06,2.4,7.83,7.83,0,0,0,0,11.45A8.44,8.44,0,0,0,8.55,54.56ZM5.5,43.31a4.15,4.15,0,0,1,3.06-1.25,4.09,4.09,0,0,1,3,1.25,4.61,4.61,0,0,1,0,6.27,4.05,4.05,0,0,1-3,1.25A4.11,4.11,0,0,1,5.5,49.58a4.61,4.61,0,0,1,0-6.27Z" class="cls-1"/><polygon points="19.74 54.12 23.91 54.12 23.91 48.75 29.83 48.75 29.83 45.02 23.91 45.02 23.91 42.5 31.59 42.5 31.59 38.76 19.74 38.76 19.74 54.12" class="cls-1"/><path d="M56.05,55.19H60.4v3l-.47.43a4.66,4.66,0,0,1-1.66.92,7.93,7.93,0,1,1-2.6-15.37,8.47,8.47,0,0,1,2.48.37,8.89,8.89,0,0,1,2,.85,12.29,12.29,0,0,1,1.44,1.08,8.75,8.75,0,0,1,.89.85l.31.4,4.55-4.75-.44-.56A8.28,8.28,0,0,0,65.48,41a20.44,20.44,0,0,0-2.28-1.62A13.39,13.39,0,0,0,59.89,38a14.94,14.94,0,0,0-4.22-.58,15.19,15.19,0,0,0-10.93,4.31,14.09,14.09,0,0,0,0,20.63,15.15,15.15,0,0,0,10.93,4.31,15.82,15.82,0,0,0,4.3-.58,15,15,0,0,0,5.91-3,19.72,19.72,0,0,0,1.52-1.34,5.09,5.09,0,0,0,.52-.6V50.45H56.05Z" class="cls-1"/><path d="M87.65,37.4a15.19,15.19,0,0,0-10.92,4.31,14.11,14.11,0,0,0,0,20.63,16,16,0,0,0,21.85,0,14.11,14.11,0,0,0,0-20.63A15.19,15.19,0,0,0,87.65,37.4Zm5.5,20.28a7.81,7.81,0,0,1-11,0,8.33,8.33,0,0,1,0-11.3,7.86,7.86,0,0,1,11,0,8.33,8.33,0,0,1,0,11.3Z" class="cls-1"/><path d="M121.64,37.4a15.19,15.19,0,0,0-10.92,4.31,14.09,14.09,0,0,0,0,20.63,16,16,0,0,0,21.84,0,14.09,14.09,0,0,0,0-20.63A15.19,15.19,0,0,0,121.64,37.4Zm5.5,20.28a7.81,7.81,0,0,1-11,0,8.3,8.3,0,0,1,0-11.3,7.86,7.86,0,0,1,11,0,8.33,8.33,0,0,1,0,11.3Z" class="cls-1"/><path d="M163,42.19a14.48,14.48,0,0,0-10.48-4H141.8V65.86h10.67a14.51,14.51,0,0,0,10.47-4,13.73,13.73,0,0,0,0-19.68Zm-5.48,14.92a7,7,0,0,1-5,2H149.3V44.93h3.17a6.8,6.8,0,0,1,7.1,7.1A6.77,6.77,0,0,1,157.47,57.11Z" class="cls-1"/><rect width="28.42" height="5.77" x="1" y="59.99" class="cls-1"/></g></g></svg>