<svg xmlns="http://www.w3.org/2000/svg" viewBox="0 0 74.36 80.55"><defs><style>.cls-1{fill:#fff;}</style></defs><g id="Layer_2" data-name="Layer 2"><g id="bttm_text" data-name="bttm text"><path class="cls-1" d="M58.79,22.89c.58,1.38,1.15,2.71,1.72,4.05l.33.76a1.32,1.32,0,0,0,1.61.85l9.53-2,1.17-.24c-.05.17-.08.31-.13.45q-1.76,5.43-3.52,10.85a1.25,1.25,0,0,0,.12,1.23,1.89,1.89,0,0,0,.66.53c1.24.6,2.49,1.17,3.74,1.76l.34.16-.76.63L55.65,56.42a1.36,1.36,0,0,0-.45,1.7L57.33,64l.12.35-2.32-.4-8.58-1.51-6.26-1.09a1.92,1.92,0,0,0-2.23,2l.39,7.43L39,80.27v.28H35.45c0-.44,0-.87,0-1.3.12-2.33.25-4.66.37-7,.1-1.91.19-3.81.29-5.72.05-1,.09-2.07.17-3.1A1.92,1.92,0,0,0,34,61.35L24.57,63l-7.5,1.3-.17,0,.91-2.52,1.34-3.69a1.37,1.37,0,0,0-.49-1.74L.3,41.51c-.1-.07-.18-.15-.3-.25l4.05-1.89a1.34,1.34,0,0,0,.88-1,1.9,1.9,0,0,0-.09-.78C3.68,34,2.5,30.34,1.33,26.74c0-.14-.08-.27-.13-.46l2.08.43,8.59,1.83a1.33,1.33,0,0,0,1.66-.87q1-2.22,1.9-4.46c.05-.1.09-.2.15-.33l1.68,1.81,6.67,7.14a1.3,1.3,0,0,0,1.89.21,1.21,1.21,0,0,0,.44-1.19c-.38-2.06-.78-4.12-1.18-6.18Q24,19.08,22.91,13.47c-.21-1.08-.42-2.17-.64-3.26,0-.12,0-.24-.06-.42l.35.19,6,3.47a1.34,1.34,0,0,0,2.07-.61L37,.35c0-.11.11-.21.19-.35.08.14.14.24.19.35L43.7,12.77a1.36,1.36,0,0,0,2.16.65l6-3.45.32-.17c0,.24-.06.44-.1.64Q50.83,16.7,49.6,23c-.5,2.62-1,5.23-1.5,7.84a1.29,1.29,0,0,0,.68,1.4,1.26,1.26,0,0,0,1.55-.28c.93-1,1.84-2,2.76-2.94,1.85-2,3.7-4,5.54-6Z"/></g></g></svg>