<svg xmlns="http://www.w3.org/2000/svg" viewBox="0 0 80.68 80.62"><defs><style>.cls-1{fill:#fff;}</style></defs><g id="Layer_2" data-name="Layer 2"><g id="bttm_text" data-name="bttm text"><path class="cls-1" d="M21.54,53l-14,10.66A40.46,40.46,0,0,1,1.92,52.49l16.93-4.86A22.83,22.83,0,0,0,21.54,53Z"/><path class="cls-1" d="M1.25,50.05C.39,47.82-.32,39.84.15,37.66l17.51,1.57a22.58,22.58,0,0,0,.51,6Z"/><path class="cls-1" d="M46.9,80.09a40.36,40.36,0,0,1-12.46.1L37.7,62.87a22.73,22.73,0,0,0,5.94-.08Z"/><path class="cls-1" d="M29.59,60.36c.94.41,1.84.85,2.76,1.2s1.87.61,2.86.93Q33.59,71,32,79.74a40.22,40.22,0,0,1-11.61-4.43Z"/><path class="cls-1" d="M.4,35.15c-.12-2,2.16-9.8,3.46-11.93L19.6,31.06a22.92,22.92,0,0,0-1.69,5.66Z"/><path class="cls-1" d="M54.81,22.72c-.84-.58-1.62-1.17-2.44-1.69s-1.68-1-2.56-1.44l6.31-16.4A40.52,40.52,0,0,1,66.67,9.77Z"/><path class="cls-1" d="M23,55.11c.75.7,1.45,1.39,2.19,2s1.51,1.26,2.29,1.9L18.21,74a40.4,40.4,0,0,1-9.16-8.3Z"/><path class="cls-1" d="M12.53,11.16l11.85,13a22.83,22.83,0,0,0-3.62,4.66L5,21A40.24,40.24,0,0,1,12.53,11.16Z"/><path class="cls-1" d="M72,65.29a40.82,40.82,0,0,1-9.07,8.43l-9.27-15a23.08,23.08,0,0,0,4.29-4Z"/><path class="cls-1" d="M33.51,18.6,27.16,2.24C28.69,1.3,36.69-.17,39.28,0V17.29c0,.26-.06.33-.32.34a22,22,0,0,0-5.16.91l-.22.07Z"/><path class="cls-1" d="M60.77,75.05a39.46,39.46,0,0,1-11.39,4.54q-1.64-8.64-3.27-17.31a22.69,22.69,0,0,0,5.41-2.2Z"/><path class="cls-1" d="M56.63,24.46l11.9-13a40.85,40.85,0,0,1,7.37,9.8L60.14,29.12A23.73,23.73,0,0,0,56.63,24.46Z"/><path class="cls-1" d="M61.25,31.38,77,23.54c1,1.35,3.26,9.06,3.38,11.77L62.84,37A22.91,22.91,0,0,0,61.25,31.38Z"/><path class="cls-1" d="M47.46,18.67c-1-.24-1.88-.5-2.8-.68s-1.87-.27-2.83-.41V0A39.94,39.94,0,0,1,53.77,2.27Q50.59,10.51,47.46,18.67Z"/><path class="cls-1" d="M80.6,37.82A40,40,0,0,1,79.49,50L62.56,45.14a23.3,23.3,0,0,0,.51-5.67Z"/><path class="cls-1" d="M31.16,19.52a22.81,22.81,0,0,0-4.89,3L14.4,9.47A40.49,40.49,0,0,1,24.79,3.1C26.92,8.58,29,14,31.16,19.52Z"/><path class="cls-1" d="M59.44,52.67c.36-.63.73-1.2,1-1.82.47-1,.9-2,1.33-3,.08-.2.15-.23.34-.17l9.16,2.63,7.16,2.06.35.1a40.21,40.21,0,0,1-5.32,10.82Z"/></g></g></svg>