<svg xmlns="http://www.w3.org/2000/svg" width="1200" height="1392.345" viewBox="0 0 1200 1392.345">
  <g>
    <line x1="788.65" y1="1288.22" x2="1214.582" y2="1288.22" fill="none" stroke="#000" stroke-miterlimit="10" stroke-width="16"/>
    <line x1="383.871" y1="1288.22" x2="579.375" y2="1288.22" fill="none" stroke="#f7931e" stroke-miterlimit="10" stroke-width="16"/>
    <line x1="575.971" y1="1288.22" x2="771.475" y2="1288.22" fill="none" stroke="#3d6833" stroke-miterlimit="10" stroke-width="16"/>
    <g>
      <circle cx="580.067" cy="270.483" r="127.78" fill="#fff" opacity="0.15"/>
      <circle cx="580.067" cy="270.483" r="93.699" fill="#fff" opacity="0.3"/>
      <circle cx="580.067" cy="270.483" r="43.86" fill="#fff"/>
    </g>
    <g>
      <path d="M796.16,898.186h0a65.732,65.732,0,0,1,65.732,65.732v0a0,0,0,0,1,0,0h0a65.732,65.732,0,0,1-65.732-65.732v0A0,0,0,0,1,796.16,898.186Z" fill="#8ace74"/>
      <path d="M927.624,898.186h0a0,0,0,0,1,0,0v0a65.732,65.732,0,0,1-65.732,65.732h0a0,0,0,0,1,0,0v0A65.732,65.732,0,0,1,927.624,898.186Z" transform="translate(1789.515 1862.104) rotate(-180)" fill="#3d6833"/>
      <path d="M894.758,884.572h0a0,0,0,0,1,0,0v0A65.732,65.732,0,0,1,829.026,950.3h0a0,0,0,0,1,0,0v0A65.732,65.732,0,0,1,894.758,884.572Z" transform="translate(2120.068 956.715) rotate(135)" fill="#629e51"/>
    </g>
    <g>
      <g>
        <rect x="285.079" y="814.031" width="58.408" height="58.408" fill="none" stroke="#fff" stroke-miterlimit="10" stroke-width="5"/>
        <line x1="285.079" y1="814.031" x2="343.487" y2="872.438" fill="none" stroke="#fff" stroke-miterlimit="10" stroke-width="5"/>
        <rect x="285.079" y="755.623" width="58.408" height="58.408" transform="translate(628.565 1569.653) rotate(180)" fill="none" stroke="#fff" stroke-miterlimit="10" stroke-width="5"/>
        <line x1="343.487" y1="755.623" x2="285.079" y2="814.031" fill="none" stroke="#fff" stroke-miterlimit="10" stroke-width="5"/>
      </g>
      <g>
        <rect x="285.079" y="638.807" width="58.408" height="58.408" fill="none" stroke="#fff" stroke-miterlimit="10" stroke-width="5"/>
        <line x1="285.079" y1="697.215" x2="343.487" y2="638.807" fill="none" stroke="#fff" stroke-miterlimit="10" stroke-width="5"/>
        <rect x="285.079" y="697.215" width="58.408" height="58.408" transform="translate(628.565 1452.837) rotate(-180)" fill="none" stroke="#fff" stroke-miterlimit="10" stroke-width="5"/>
        <line x1="343.487" y1="755.623" x2="285.079" y2="697.215" fill="none" stroke="#fff" stroke-miterlimit="10" stroke-width="5"/>
      </g>
    </g>
    <g>
      <g>
        <path d="M299.664,525.251c0,32.138,13.691,58.191,13.691,58.191s13.691-26.053,13.691-58.191-13.691-58.19-13.691-58.19S299.664,493.114,299.664,525.251Z" fill="#f7931e"/>
        <path d="M269.806,624.394c27.832-16.069,43.549-40.952,43.549-40.952s-29.408,1.17-57.24,17.239-43.549,40.952-43.549,40.952S241.974,640.463,269.806,624.394Z" fill="#f7931e"/>
        <path d="M370.6,600.681c-27.832-16.069-57.24-17.239-57.24-17.239s15.717,24.883,43.549,40.952,57.24,17.239,57.24,17.239S398.427,616.75,370.6,600.681Z" fill="#f7931e"/>
      </g>
      <circle cx="313.355" cy="583.622" r="12.903" fill="#fff" stroke="#000" stroke-miterlimit="10" stroke-width="8"/>
    </g>
    <g>
      <circle cx="795.675" cy="687.864" r="7.868" fill="#fff"/>
      <circle cx="795.675" cy="623.322" r="7.868" fill="#fff"/>
      <circle cx="795.675" cy="558.779" r="7.868" fill="#fff"/>
      <circle cx="795.675" cy="494.237" r="7.868" fill="#fff"/>
      <circle cx="795.675" cy="429.694" r="7.868" fill="#fff"/>
      <circle cx="795.675" cy="365.152" r="7.868" fill="#fff"/>
      <circle cx="795.675" cy="300.609" r="7.868" fill="#fff"/>
    </g>
    <g>
      <g>
        <path d="M574.117,931.628h35.49a0,0,0,0,1,0,0v12.216A14.505,14.505,0,0,1,595.1,958.349H563.339a0,0,0,0,1,0,0V942.406A10.778,10.778,0,0,1,574.117,931.628Z" fill="#3d6833"/>
        <circle cx="579.809" cy="958.349" r="16.47" fill="#ed8ee2"/>
        <path d="M579.809,986.251h0a40.15,40.15,0,0,1,40.15,40.15v40.15a0,0,0,0,1,0,0h-80.3a0,0,0,0,1,0,0V1026.4a40.15,40.15,0,0,1,40.15-40.15Z" fill="#fff"/>
        <path d="M579.809,986.251h97.969a0,0,0,0,1,0,0v0a29.344,29.344,0,0,1-29.344,29.344H579.809a0,0,0,0,1,0,0V986.251A0,0,0,0,1,579.809,986.251Z" fill="#fff"/>
        <path d="M481.84,986.251h68.624a29.344,29.344,0,0,1,29.344,29.344v0a0,0,0,0,1,0,0H481.84a0,0,0,0,1,0,0V986.251A0,0,0,0,1,481.84,986.251Z" transform="translate(1061.649 2001.847) rotate(-180)" fill="#fff"/>
        <rect x="539.659" y="1066.551" width="40.15" height="84.809"/>
        <rect x="579.809" y="1066.551" width="40.15" height="84.809"/>
        <polygon points="509.861 1174.263 579.809 1174.263 579.809 1151.36 539.659 1151.36 509.861 1174.263" fill="#3d6833"/>
        <polygon points="649.757 1174.263 579.809 1174.263 579.809 1151.36 619.959 1151.36 649.757 1174.263" fill="#3d6833"/>
      </g>
      <g>
        <path d="M579.809,610.716h97.969a0,0,0,0,1,0,0v0a29.344,29.344,0,0,1-29.344,29.344H579.809a0,0,0,0,1,0,0V610.716A0,0,0,0,1,579.809,610.716Z" fill="#3d6833"/>
        <path d="M481.84,610.716h68.624a29.344,29.344,0,0,1,29.344,29.344v0a0,0,0,0,1,0,0H481.84a0,0,0,0,1,0,0V610.716A0,0,0,0,1,481.84,610.716Z" transform="translate(1061.649 1250.776) rotate(180)" fill="#3d6833"/>
        <circle cx="579.809" cy="570.308" r="19.962" fill="#629e51"/>
        <circle cx="599.771" cy="570.308" r="19.962" fill="#629e51"/>
        <circle cx="579.809" cy="550.346" r="19.962" fill="#629e51"/>
        <circle cx="563.339" cy="570.308" r="19.962" fill="#629e51"/>
        <circle cx="579.809" cy="582.814" r="16.47" fill="#3d6833"/>
        <path d="M579.809,610.716h0a40.15,40.15,0,0,1,40.15,40.15v40.15a0,0,0,0,1,0,0h-80.3a0,0,0,0,1,0,0v-40.15A40.15,40.15,0,0,1,579.809,610.716Z" fill="#ed8ee2"/>
        <rect x="539.659" y="691.016" width="40.15" height="84.809" fill="#3d6833"/>
        <rect x="579.809" y="691.016" width="40.15" height="84.809" fill="#3d6833"/>
        <rect x="539.659" y="691.016" width="40.15" height="27.255" fill="#f7931e"/>
        <rect x="579.809" y="691.016" width="40.15" height="27.255" fill="#f7931e"/>
        <polygon points="509.861 798.728 579.809 798.728 579.809 775.824 539.659 775.824 509.861 798.728" fill="#ed8ee2"/>
        <polygon points="649.757 798.728 579.809 798.728 579.809 775.824 619.959 775.824 649.757 798.728" fill="#ed8ee2"/>
      </g>
      <g>
        <circle cx="383.871" cy="941.88" r="27.096" fill="#ed8ee2"/>
        <path d="M383.871,986.251H481.84a0,0,0,0,1,0,0v0A29.344,29.344,0,0,1,452.5,1015.6H383.871a0,0,0,0,1,0,0V986.251A0,0,0,0,1,383.871,986.251Z"/>
        <path d="M285.9,986.251h68.624a29.344,29.344,0,0,1,29.344,29.344v0a0,0,0,0,1,0,0H285.9a0,0,0,0,1,0,0V986.251A0,0,0,0,1,285.9,986.251Z" transform="translate(669.774 2001.847) rotate(-180)"/>
        <circle cx="383.871" cy="958.349" r="16.47"/>
        <path d="M383.871,986.251h0a40.15,40.15,0,0,1,40.15,40.15v40.15a0,0,0,0,1,0,0h-80.3a0,0,0,0,1,0,0V1026.4A40.15,40.15,0,0,1,383.871,986.251Z" fill="#ed8ee2"/>
        <rect x="343.722" y="1066.551" width="40.15" height="84.809"/>
        <rect x="383.871" y="1066.551" width="40.15" height="84.809"/>
        <polygon points="313.923 1174.263 383.871 1174.263 383.871 1151.36 343.722 1151.36 313.923 1174.263" fill="#f7931e"/>
        <polygon points="453.819 1174.263 383.871 1174.263 383.871 1151.36 424.021 1151.36 453.819 1174.263" fill="#f7931e"/>
        <polygon points="323.991 1106.701 383.871 1106.701 383.871 1066.551 343.722 1066.551 323.991 1106.701" fill="#3d6833"/>
        <polygon points="443.752 1106.701 383.871 1106.701 383.871 1066.551 424.021 1066.551 443.752 1106.701" fill="#3d6833"/>
        <rect x="367.402" y="936.582" width="32.94" height="15.853" fill="#ed8ee2"/>
        <circle cx="383.871" cy="905.867" r="15.142" fill="#ed8ee2"/>
      </g>
      <g>
        <circle cx="775.746" cy="958.349" r="16.47" fill="#3d6833"/>
        <path d="M775.746,986.251h0a40.15,40.15,0,0,1,40.15,40.15v40.15a0,0,0,0,1,0,0H735.6a0,0,0,0,1,0,0V1026.4a40.15,40.15,0,0,1,40.15-40.15Z"/>
        <path d="M873.716,986.256a29.351,29.351,0,0,1-25.58,29.09,27.547,27.547,0,0,1-3.77.25h-68.62v-29.34Z"/>
        <path d="M677.778,986.251H746.4a29.344,29.344,0,0,1,29.344,29.344v0a0,0,0,0,1,0,0H677.778a0,0,0,0,1,0,0V986.251A0,0,0,0,1,677.778,986.251Z" transform="translate(1453.524 2001.847) rotate(-180)"/>
        <rect x="735.596" y="1066.551" width="40.15" height="84.809" fill="#ed8ee2"/>
        <rect x="775.746" y="1066.551" width="40.15" height="84.809" fill="#ed8ee2"/>
        <path d="M873.716,986.256a29.351,29.351,0,0,1-25.58,29.09v-29.09Z" fill="#3d6833"/>
        <path d="M677.777,986.256a29.351,29.351,0,0,0,25.58,29.09v-29.09Z" fill="#3d6833"/>
        <polygon points="705.798 1174.263 775.746 1174.263 775.746 1151.36 735.596 1151.36 705.798 1174.263"/>
        <polygon points="845.694 1174.263 775.746 1174.263 775.746 1151.36 815.896 1151.36 845.694 1174.263"/>
      </g>
      <g>
        <path d="M680.047,745.353h18.337a38.466,38.466,0,0,1,38.466,38.466v95.388a0,0,0,0,1,0,0H657.7a0,0,0,0,1,0,0V767.7A22.345,22.345,0,0,1,680.047,745.353Z"/>
        <path d="M677.778,798.728h97.969a0,0,0,0,1,0,0v0A29.344,29.344,0,0,1,746.4,828.072H677.778a0,0,0,0,1,0,0V798.728A0,0,0,0,1,677.778,798.728Z" fill="#3d6833"/>
        <path d="M579.809,798.728h68.624a29.344,29.344,0,0,1,29.344,29.344v0a0,0,0,0,1,0,0H579.809a0,0,0,0,1,0,0V798.728A0,0,0,0,1,579.809,798.728Z" transform="translate(1257.586 1626.8) rotate(180)" fill="#3d6833"/>
        <circle cx="677.778" cy="770.826" r="16.47" fill="#3d6833"/>
        <path d="M677.778,798.728h0a40.15,40.15,0,0,1,40.15,40.15v40.15a0,0,0,0,1,0,0h-80.3a0,0,0,0,1,0,0v-40.15A40.15,40.15,0,0,1,677.778,798.728Z" fill="#f7931e"/>
        <rect x="637.628" y="879.028" width="40.15" height="84.809" fill="#3d6833"/>
        <rect x="677.778" y="879.028" width="40.15" height="84.809" fill="#3d6833"/>
        <path d="M663.289,754.356h40.568a0,0,0,0,1,0,0v16.47a0,0,0,0,1,0,0H676.341a13.052,13.052,0,0,1-13.052-13.052v-3.418A0,0,0,0,1,663.289,754.356Z"/>
        <rect x="637.628" y="879.028" width="80.3" height="35.756" fill="#f7931e"/>
        <polygon points="607.83 986.74 677.778 986.74 677.778 963.836 637.628 963.836 607.83 986.74" fill="#f7931e"/>
        <polygon points="747.726 986.74 677.778 986.74 677.778 963.836 717.928 963.836 747.726 986.74" fill="#f7931e"/>
      </g>
      <g>
        <rect x="454.892" y="738.906" width="53.896" height="31.878" fill="#3d6833"/>
        <circle cx="481.84" cy="771.315" r="16.47" fill="#f7931e"/>
        <path d="M481.84,799.216h97.969a0,0,0,0,1,0,0v0a29.344,29.344,0,0,1-29.344,29.344H481.84a0,0,0,0,1,0,0V799.216A0,0,0,0,1,481.84,799.216Z" fill="#f7931e"/>
        <path d="M383.871,799.216H452.5a29.344,29.344,0,0,1,29.344,29.344v0a0,0,0,0,1,0,0H383.871a0,0,0,0,1,0,0V799.216A0,0,0,0,1,383.871,799.216Z" transform="translate(865.712 1627.777) rotate(180)" fill="#f7931e"/>
        <rect x="441.69" y="879.516" width="40.15" height="84.809" fill="#f7931e"/>
        <rect x="481.84" y="879.516" width="40.15" height="84.809" fill="#f7931e"/>
        <rect x="441.69" y="879.516" width="40.15" height="26.839" fill="#629e51"/>
        <rect x="481.84" y="879.516" width="40.15" height="26.839" fill="#629e51"/>
        <path d="M481.84,799.216h0a40.15,40.15,0,0,1,40.15,40.15v40.15a0,0,0,0,1,0,0h-80.3a0,0,0,0,1,0,0v-40.15A40.15,40.15,0,0,1,481.84,799.216Z"/>
        <polygon points="411.892 986.74 481.84 986.74 481.84 963.836 441.69 963.836 411.892 986.74" fill="#629e51"/>
        <polygon points="551.788 986.74 481.84 986.74 481.84 963.836 521.99 963.836 551.788 986.74" fill="#629e51"/>
      </g>
      <rect x="530.824" y="610.716" width="97.969" height="29.344" fill="#ed8ee2"/>
      <g>
        <g>
          <rect x="476.044" y="371.482" width="207.529" height="103.046"/>
          <g>
            <path d="M536.335,445.74h-36.5l11.245-11.665q4.447-4.629,6.975-7.846a43.152,43.152,0,0,0,3.758-5.443,14.311,14.311,0,0,0,1.533-3.607,11.375,11.375,0,0,0,.3-2.345,6.074,6.074,0,0,0-.331-1.984,5.093,5.093,0,0,0-.992-1.714,4.8,4.8,0,0,0-3.788-1.653,4.7,4.7,0,0,0-3.758,1.563,5.76,5.76,0,0,0-1.354,3.908,14.812,14.812,0,0,0,.181,1.924H500.738a19.352,19.352,0,0,1,1.292-7.216,16.372,16.372,0,0,1,3.638-5.591,16.054,16.054,0,0,1,5.562-3.608,19.17,19.17,0,0,1,7.065-1.263,19.863,19.863,0,0,1,7,1.2,16.75,16.75,0,0,1,5.563,3.367,15.48,15.48,0,0,1,3.667,5.141,15.739,15.739,0,0,1,1.323,6.464,15.048,15.048,0,0,1-1.594,6.885,24.242,24.242,0,0,1-5.08,6.464l-7.516,7.035h14.672Z"/>
            <path d="M540.182,423.012a32.18,32.18,0,0,1,1.413-9.832,22.71,22.71,0,0,1,3.969-7.546,17.92,17.92,0,0,1,6.073-4.841,17.767,17.767,0,0,1,21.616,4.841,23.035,23.035,0,0,1,3.939,7.546,34.91,34.91,0,0,1,0,19.663,23.386,23.386,0,0,1-3.939,7.576,17.374,17.374,0,0,1-6.072,4.87,17.71,17.71,0,0,1-21.617-4.87,23.052,23.052,0,0,1-3.969-7.576A32.178,32.178,0,0,1,540.182,423.012Zm11.666,0a25.555,25.555,0,0,0,.541,5.472,15.929,15.929,0,0,0,1.533,4.268,8.254,8.254,0,0,0,2.375,2.8,5.377,5.377,0,0,0,6.224,0,7.844,7.844,0,0,0,2.375-2.8,16.615,16.615,0,0,0,1.5-4.268,27.792,27.792,0,0,0,0-10.914,16.1,16.1,0,0,0-1.5-4.269,7.921,7.921,0,0,0-2.375-2.767,5.377,5.377,0,0,0-6.224,0,8.343,8.343,0,0,0-2.375,2.767,15.447,15.447,0,0,0-1.533,4.269A25.674,25.674,0,0,0,551.848,423.012Z"/>
            <path d="M597.787,418.081a6.711,6.711,0,0,0,.811.06h.571a5.009,5.009,0,0,0,3.609-1.322,4.532,4.532,0,0,0,1.383-3.428,4.423,4.423,0,0,0-1.293-3.308,4.576,4.576,0,0,0-3.337-1.262,4.5,4.5,0,0,0-3.488,1.443,5.3,5.3,0,0,0-1.323,3.728H583.836a19.526,19.526,0,0,1,1.775-6.314,15.105,15.105,0,0,1,3.457-4.659A14.4,14.4,0,0,1,594,400.132a20.313,20.313,0,0,1,12.356-.059,13.713,13.713,0,0,1,4.69,2.645,11.543,11.543,0,0,1,3.007,4.148,13.615,13.615,0,0,1,1.052,5.443,10.31,10.31,0,0,1-1.232,5.321,11.083,11.083,0,0,1-3.518,3.577,10.054,10.054,0,0,1,5.441,3.879,11.721,11.721,0,0,1,1.955,6.885,13.809,13.809,0,0,1-5.021,10.884,17.081,17.081,0,0,1-5.652,3.066A22.793,22.793,0,0,1,599.891,447a21.321,21.321,0,0,1-9.44-2.044,15.439,15.439,0,0,1-6.735-6.494,13,13,0,0,1-1.533-3.969,20.755,20.755,0,0,1-.39-4.028h11.665a6.724,6.724,0,0,0,1.864,4.84,6.53,6.53,0,0,0,4.689,1.653,5.7,5.7,0,0,0,4.571-1.683,6.158,6.158,0,0,0,1.443-4.149,5.558,5.558,0,0,0-1.744-4.45,6.153,6.153,0,0,0-4.149-1.5,6.947,6.947,0,0,0-1.142.09q-.543.09-1.2.211Z"/>
            <path d="M621.838,423.012a32.18,32.18,0,0,1,1.413-9.832,22.71,22.71,0,0,1,3.969-7.546,17.92,17.92,0,0,1,6.073-4.841,17.769,17.769,0,0,1,21.617,4.841,23.052,23.052,0,0,1,3.938,7.546,34.91,34.91,0,0,1,0,19.663,23.4,23.4,0,0,1-3.938,7.576,17.377,17.377,0,0,1-6.073,4.87,17.71,17.71,0,0,1-21.617-4.87,23.052,23.052,0,0,1-3.969-7.576A32.178,32.178,0,0,1,621.838,423.012Zm11.666,0a25.555,25.555,0,0,0,.541,5.472,15.929,15.929,0,0,0,1.534,4.268,8.232,8.232,0,0,0,2.375,2.8,5.376,5.376,0,0,0,6.223,0,7.825,7.825,0,0,0,2.375-2.8,16.615,16.615,0,0,0,1.5-4.268,27.792,27.792,0,0,0,0-10.914,16.1,16.1,0,0,0-1.5-4.269,7.9,7.9,0,0,0-2.375-2.767,5.376,5.376,0,0,0-6.223,0,8.32,8.32,0,0,0-2.375,2.767,15.446,15.446,0,0,0-1.534,4.269A25.674,25.674,0,0,0,633.5,423.012Z"/>
          </g>
          <rect x="559.847" y="454.566" width="39.923" height="39.923" transform="translate(-165.72 548.973) rotate(-45)"/>
        </g>
        <g>
          <rect x="476.044" y="371.482" width="207.529" height="103.046" fill="#3d6833"/>
          <g>
            <path d="M536.335,445.74h-36.5l11.245-11.665q4.447-4.629,6.975-7.846a43.152,43.152,0,0,0,3.758-5.443,14.311,14.311,0,0,0,1.533-3.607,11.375,11.375,0,0,0,.3-2.345,6.074,6.074,0,0,0-.331-1.984,5.093,5.093,0,0,0-.992-1.714,4.8,4.8,0,0,0-3.788-1.653,4.7,4.7,0,0,0-3.758,1.563,5.76,5.76,0,0,0-1.354,3.908,14.812,14.812,0,0,0,.181,1.924H500.738a19.352,19.352,0,0,1,1.292-7.216,16.372,16.372,0,0,1,3.638-5.591,16.054,16.054,0,0,1,5.562-3.608,19.17,19.17,0,0,1,7.065-1.263,19.863,19.863,0,0,1,7,1.2,16.75,16.75,0,0,1,5.563,3.367,15.48,15.48,0,0,1,3.667,5.141,15.739,15.739,0,0,1,1.323,6.464,15.048,15.048,0,0,1-1.594,6.885,24.242,24.242,0,0,1-5.08,6.464l-7.516,7.035h14.672Z" fill="#f7931e"/>
            <path d="M540.182,423.012a32.18,32.18,0,0,1,1.413-9.832,22.71,22.71,0,0,1,3.969-7.546,17.92,17.92,0,0,1,6.073-4.841,17.767,17.767,0,0,1,21.616,4.841,23.035,23.035,0,0,1,3.939,7.546,34.91,34.91,0,0,1,0,19.663,23.386,23.386,0,0,1-3.939,7.576,17.374,17.374,0,0,1-6.072,4.87,17.71,17.71,0,0,1-21.617-4.87,23.052,23.052,0,0,1-3.969-7.576A32.178,32.178,0,0,1,540.182,423.012Zm11.666,0a25.555,25.555,0,0,0,.541,5.472,15.929,15.929,0,0,0,1.533,4.268,8.254,8.254,0,0,0,2.375,2.8,5.377,5.377,0,0,0,6.224,0,7.844,7.844,0,0,0,2.375-2.8,16.615,16.615,0,0,0,1.5-4.268,27.792,27.792,0,0,0,0-10.914,16.1,16.1,0,0,0-1.5-4.269,7.921,7.921,0,0,0-2.375-2.767,5.377,5.377,0,0,0-6.224,0,8.343,8.343,0,0,0-2.375,2.767,15.447,15.447,0,0,0-1.533,4.269A25.674,25.674,0,0,0,551.848,423.012Z" fill="#f7931e"/>
            <path d="M597.787,418.081a6.711,6.711,0,0,0,.811.06h.571a5.009,5.009,0,0,0,3.609-1.322,4.532,4.532,0,0,0,1.383-3.428,4.423,4.423,0,0,0-1.293-3.308,4.576,4.576,0,0,0-3.337-1.262,4.5,4.5,0,0,0-3.488,1.443,5.3,5.3,0,0,0-1.323,3.728H583.836a19.526,19.526,0,0,1,1.775-6.314,15.105,15.105,0,0,1,3.457-4.659A14.4,14.4,0,0,1,594,400.132a20.313,20.313,0,0,1,12.356-.059,13.713,13.713,0,0,1,4.69,2.645,11.543,11.543,0,0,1,3.007,4.148,13.615,13.615,0,0,1,1.052,5.443,10.31,10.31,0,0,1-1.232,5.321,11.083,11.083,0,0,1-3.518,3.577,10.054,10.054,0,0,1,5.441,3.879,11.721,11.721,0,0,1,1.955,6.885,13.809,13.809,0,0,1-5.021,10.884,17.081,17.081,0,0,1-5.652,3.066A22.793,22.793,0,0,1,599.891,447a21.321,21.321,0,0,1-9.44-2.044,15.439,15.439,0,0,1-6.735-6.494,13,13,0,0,1-1.533-3.969,20.755,20.755,0,0,1-.39-4.028h11.665a6.724,6.724,0,0,0,1.864,4.84,6.53,6.53,0,0,0,4.689,1.653,5.7,5.7,0,0,0,4.571-1.683,6.158,6.158,0,0,0,1.443-4.149,5.558,5.558,0,0,0-1.744-4.45,6.153,6.153,0,0,0-4.149-1.5,6.947,6.947,0,0,0-1.142.09q-.543.09-1.2.211Z" fill="#f7931e"/>
            <path d="M621.838,423.012a32.18,32.18,0,0,1,1.413-9.832,22.71,22.71,0,0,1,3.969-7.546,17.92,17.92,0,0,1,6.073-4.841,17.769,17.769,0,0,1,21.617,4.841,23.052,23.052,0,0,1,3.938,7.546,34.91,34.91,0,0,1,0,19.663,23.4,23.4,0,0,1-3.938,7.576,17.377,17.377,0,0,1-6.073,4.87,17.71,17.71,0,0,1-21.617-4.87,23.052,23.052,0,0,1-3.969-7.576A32.178,32.178,0,0,1,621.838,423.012Zm11.666,0a25.555,25.555,0,0,0,.541,5.472,15.929,15.929,0,0,0,1.534,4.268,8.232,8.232,0,0,0,2.375,2.8,5.376,5.376,0,0,0,6.223,0,7.825,7.825,0,0,0,2.375-2.8,16.615,16.615,0,0,0,1.5-4.268,27.792,27.792,0,0,0,0-10.914,16.1,16.1,0,0,0-1.5-4.269,7.9,7.9,0,0,0-2.375-2.767,5.376,5.376,0,0,0-6.223,0,8.32,8.32,0,0,0-2.375,2.767,15.446,15.446,0,0,0-1.534,4.269A25.674,25.674,0,0,0,633.5,423.012Z" fill="#f7931e"/>
          </g>
          <rect x="559.847" y="454.566" width="39.923" height="39.923" transform="translate(-165.72 548.973) rotate(-45)" fill="#3d6833"/>
        </g>
      </g>
      <path d="M580.089,627.487s-3.36,6.72-3.92,7.28c-.56.84-.84.84-1.68.56-.84-.56-3.64-1.96-3.64-1.96s2.52,10.919,2.52,11.759c.28.84-.56,1.68-1.68.84-.28-.28-5.039-5.6-5.039-5.6s-1.12,2.52-1.4,3.08-.56.84-1.12.56c-.84-.28-5.32-1.12-5.32-1.12s1.68,5.32,1.96,6.16c.28.56.56,1.12-.56,1.68l-1.68.56s9.24,8.119,9.519,8.4c.56.56.84.56.56,1.96a17.308,17.308,0,0,0-.839,3.08s8.679-1.96,9.519-1.96,1.68.28,1.68,1.12-.56,10.36-.56,10.36h2.8s-.56-9.24-.56-10.36c0-.84.84-1.12,1.68-1.12.84.28,9.519,1.96,9.519,1.96s-.56-1.96-.84-3.08c-.56-1.4,0-1.68.56-1.96.28-.28,9.52-8.4,9.52-8.4l-1.68-.56c-.84-.56-.56-1.12-.56-1.68.28-.56,1.96-6.16,1.96-6.16s-4.48.84-5.32,1.12c-.56.28-.84-.28-1.12-.56-.28-.56-1.4-3.08-1.4-3.08s-4.76,5.6-5.04,5.6c-.84.56-1.96,0-1.68-.84,0-.84,2.52-11.759,2.52-11.759a36.718,36.718,0,0,1-3.639,1.96c-.56.56-1.12.56-1.68-.56,0-.84-3.36-7.28-3.36-7.28Z" fill="#fff"/>
    </g>
    <line x1="383.871" y1="1174.263" x2="383.871" y2="1275.317" fill="none" stroke="#f7931e" stroke-miterlimit="10" stroke-width="16"/>
    <line x1="581.793" y1="1174.263" x2="581.793" y2="1288.22" fill="none" stroke="#3d6833" stroke-miterlimit="10" stroke-width="16"/>
    <line x1="775.746" y1="1174.263" x2="775.746" y2="1288.22" fill="none" stroke="#000" stroke-miterlimit="10" stroke-width="16"/>
    <line x1="578.605" y1="371.482" x2="578.605" y2="2.641" fill="none" stroke="#3d6833" stroke-miterlimit="10" stroke-width="16"/>
    <circle cx="579.375" cy="271.338" r="12.903" fill="#eae8e8" stroke="#3d6833" stroke-miterlimit="10" stroke-width="8"/>
    <circle cx="383.871" cy="1288.22" r="12.903" fill="#eae8e8" stroke="#f7931e" stroke-miterlimit="10" stroke-width="8"/>
    <circle cx="581.793" cy="1288.22" r="12.903" fill="#eae8e8" stroke="#3d6833" stroke-miterlimit="10" stroke-width="8"/>
    <circle cx="775.746" cy="1288.22" r="12.903" fill="#eae8e8" stroke="#000" stroke-miterlimit="10" stroke-width="8"/>
    <g>
      <circle cx="869.671" cy="767.839" r="54"/>
      <circle cx="858.464" cy="756.631" r="54" fill="#ed8ee2"/>
    </g>
    <g>
      <circle cx="849.18" cy="623.186" r="7.868" fill="#fff"/>
      <circle cx="849.18" cy="558.643" r="7.868" fill="#fff"/>
      <circle cx="849.18" cy="494.101" r="7.868" fill="#fff"/>
      <circle cx="849.18" cy="429.558" r="7.868" fill="#fff"/>
      <circle cx="849.18" cy="365.016" r="7.868" fill="#fff"/>
      <circle cx="849.18" cy="300.473" r="7.868" fill="#fff"/>
      <circle cx="849.18" cy="235.931" r="7.868" fill="#fff"/>
    </g>
    <g>
      <circle cx="894.758" cy="559.817" r="7.868" fill="#fff"/>
      <circle cx="894.758" cy="495.274" r="7.868" fill="#fff"/>
      <circle cx="894.758" cy="430.732" r="7.868" fill="#fff"/>
      <circle cx="894.758" cy="366.189" r="7.868" fill="#fff"/>
      <circle cx="894.758" cy="301.647" r="7.868" fill="#fff"/>
      <circle cx="894.758" cy="237.104" r="7.868" fill="#fff"/>
      <circle cx="894.758" cy="172.562" r="7.868" fill="#fff"/>
    </g>
    <path d="M878.179,751.152l-30.467-17.59a6.327,6.327,0,0,0-9.49,5.479v35.18a6.327,6.327,0,0,0,9.49,5.479l30.467-17.59A6.327,6.327,0,0,0,878.179,751.152Z" fill="#fff"/>
  </g>
</svg>
