<svg xmlns="http://www.w3.org/2000/svg" width="400.105" height="454.892" viewBox="0 0 400.105 454.892"><g transform="translate(-109.379 1210.266)"><g transform="translate(387.564 -1147.455)"><path d="M865.037-979.27a3.187,3.187,0,0,1-3.187-3.187v-42.985a20.8,20.8,0,0,0-20.78-20.779H810.879a3.187,3.187,0,0,1-3.187-3.187,3.187,3.187,0,0,1,3.187-3.187H841.07a27.184,27.184,0,0,1,27.154,27.153v42.985A3.187,3.187,0,0,1,865.037-979.27Z" transform="translate(-807.692 1052.595)" fill="#f7931e"/></g><g transform="translate(172.109 -1147.987)"><path d="M270.035-993.4a3.187,3.187,0,0,1-3.187-3.187v-30.192A27.184,27.184,0,0,1,294-1053.931h42.985a3.187,3.187,0,0,1,3.187,3.187,3.187,3.187,0,0,1-3.187,3.187H294a20.8,20.8,0,0,0-20.78,20.779v30.192A3.187,3.187,0,0,1,270.035-993.4Z" transform="translate(-266.848 1053.931)" fill="#ed8ee2"/></g><g transform="translate(171.577 -945.326)"><path d="M322.857-471.876H292.666a27.184,27.184,0,0,1-27.153-27.153v-42.985A3.187,3.187,0,0,1,268.7-545.2a3.187,3.187,0,0,1,3.187,3.187v42.985a20.8,20.8,0,0,0,20.779,20.779h30.191a3.187,3.187,0,0,1,3.187,3.187A3.187,3.187,0,0,1,322.857-471.876Z" transform="translate(-265.513 545.201)" fill="#eae8e8"/></g><g transform="translate(109.379 -1094.719)"><g transform="translate(96.206 31.085)"><path d="M376.329-766.849a3.187,3.187,0,0,1-3.187-3.187v-57.831a7.954,7.954,0,0,0-7.945-7.945,7.954,7.954,0,0,0-7.945,7.945v26.587a3.187,3.187,0,0,1-3.187,3.187,3.187,3.187,0,0,1-3.187-3.187v-26.587A14.335,14.335,0,0,1,365.2-842.185a14.335,14.335,0,0,1,14.319,14.318v57.831A3.187,3.187,0,0,1,376.329-766.849Z" transform="translate(-350.879 842.185)" fill="#ed8ee2"/></g><g transform="translate(73.942 12.371)"><path d="M320.442-826.355a3.187,3.187,0,0,1-3.187-3.187v-45.3a7.953,7.953,0,0,0-7.945-7.945,7.953,7.953,0,0,0-7.945,7.945v45.3a3.187,3.187,0,0,1-3.187,3.187,3.187,3.187,0,0,1-3.187-3.187v-45.3a14.335,14.335,0,0,1,14.319-14.319,14.335,14.335,0,0,1,14.318,14.319v45.3A3.187,3.187,0,0,1,320.442-826.355Z" transform="translate(-294.992 889.162)" fill="#ed8ee2"/></g><g transform="translate(51.679 0)"><path d="M264.555-845.038a3.187,3.187,0,0,1-3.187-3.187V-905.9a7.953,7.953,0,0,0-7.945-7.945,7.954,7.954,0,0,0-7.945,7.945v57.672a3.187,3.187,0,0,1-3.187,3.187,3.187,3.187,0,0,1-3.187-3.187V-905.9a14.335,14.335,0,0,1,14.319-14.319A14.335,14.335,0,0,1,267.742-905.9v57.672A3.187,3.187,0,0,1,264.555-845.038Z" transform="translate(-239.105 920.215)" fill="#ed8ee2"/></g><g transform="translate(29.416 12.371)"><path d="M186.406-797.126a3.187,3.187,0,0,1-3.187-3.187v-74.531a14.335,14.335,0,0,1,14.318-14.319,14.335,14.335,0,0,1,14.318,14.319v45.3a3.187,3.187,0,0,1-3.187,3.187,3.187,3.187,0,0,1-3.187-3.187v-45.3a7.953,7.953,0,0,0-7.945-7.945,7.953,7.953,0,0,0-7.945,7.945v74.531A3.187,3.187,0,0,1,186.406-797.126Z" transform="translate(-183.219 889.162)" fill="#ed8ee2"/></g><g transform="translate(0 74.954)"><path d="M185.78-652.219H169.421a47.243,47.243,0,0,1-24.978-7.135A47.244,47.244,0,0,1,127-678.607l-16.157-32.8a14.352,14.352,0,0,1,6.518-19.178,14.215,14.215,0,0,1,10.939-.71,14.244,14.244,0,0,1,8.241,7.227l8.3,16.86a3.187,3.187,0,0,1-1.451,4.267,3.186,3.186,0,0,1-4.267-1.451l-8.3-16.858a7.91,7.91,0,0,0-4.576-4.01,7.882,7.882,0,0,0-6.066.392,7.968,7.968,0,0,0-3.619,10.647l16.156,32.794a40.87,40.87,0,0,0,15.088,16.657,40.871,40.871,0,0,0,21.611,6.174H185.78c27.324,0,42.068-23.283,42.068-45.19a3.187,3.187,0,0,1,3.187-3.187,3.187,3.187,0,0,1,3.187,3.187,55.438,55.438,0,0,1-12.3,34.928C215.62-661.265,204.239-652.219,185.78-652.219Z" transform="translate(-109.379 732.062)" fill="#ed8ee2"/></g></g><g transform="translate(239.14 -1210.265)"><g transform="translate(48.376 96.206)"><path d="M617.568-940.128H559.737a3.187,3.187,0,0,1-3.187-3.187,3.187,3.187,0,0,1,3.187-3.187h57.831a7.953,7.953,0,0,0,7.945-7.945,7.953,7.953,0,0,0-7.945-7.945H590.98a3.187,3.187,0,0,1-3.187-3.187,3.187,3.187,0,0,1,3.187-3.187h26.587a14.335,14.335,0,0,1,14.319,14.318A14.335,14.335,0,0,1,617.568-940.128Z" transform="translate(-556.55 968.765)" fill="#f7931e"/></g><g transform="translate(79.62 73.942)"><path d="M683.467-996.015h-45.3a3.187,3.187,0,0,1-3.187-3.187,3.187,3.187,0,0,1,3.187-3.187h45.3a7.954,7.954,0,0,0,7.945-7.945,7.954,7.954,0,0,0-7.945-7.945h-45.3a3.187,3.187,0,0,1-3.187-3.187,3.187,3.187,0,0,1,3.187-3.187h45.3a14.335,14.335,0,0,1,14.319,14.318A14.335,14.335,0,0,1,683.467-996.015Z" transform="translate(-634.979 1024.652)" fill="#f7931e"/></g><g transform="translate(79.62 51.679)"><path d="M695.838-1051.9H638.166a3.187,3.187,0,0,1-3.187-3.187,3.187,3.187,0,0,1,3.187-3.187h57.672a7.954,7.954,0,0,0,7.945-7.945,7.954,7.954,0,0,0-7.945-7.945H638.166a3.187,3.187,0,0,1-3.187-3.187,3.187,3.187,0,0,1,3.187-3.187h57.672a14.335,14.335,0,0,1,14.318,14.319A14.335,14.335,0,0,1,695.838-1051.9Z" transform="translate(-634.979 1080.539)" fill="#f7931e"/></g><g transform="translate(50.39 29.415)"><path d="M639.323-1107.789h-45.3a3.187,3.187,0,0,1-3.187-3.187,3.187,3.187,0,0,1,3.187-3.187h45.3a7.954,7.954,0,0,0,7.945-7.945,7.954,7.954,0,0,0-7.945-7.945H564.792a3.187,3.187,0,0,1-3.187-3.187,3.187,3.187,0,0,1,3.187-3.187h74.531a14.335,14.335,0,0,1,14.319,14.319A14.335,14.335,0,0,1,639.323-1107.789Z" transform="translate(-561.605 1136.426)" fill="#f7931e"/></g><path d="M486.676-1085.422a55.436,55.436,0,0,1-34.928-12.3c-7.589-6.3-16.635-17.678-16.635-36.138v-16.358a47.241,47.241,0,0,1,7.136-24.978,47.245,47.245,0,0,1,19.253-17.439l32.8-16.157a14.351,14.351,0,0,1,19.177,6.517,14.34,14.34,0,0,1-6.516,19.18l-16.86,8.3a3.187,3.187,0,0,1-4.267-1.451,3.187,3.187,0,0,1,1.451-4.267l16.859-8.3a7.958,7.958,0,0,0,3.618-10.642,7.968,7.968,0,0,0-10.647-3.619l-32.794,16.156a40.877,40.877,0,0,0-16.658,15.088,40.876,40.876,0,0,0-6.174,21.611v16.358c0,27.324,23.283,42.068,45.19,42.068a3.187,3.187,0,0,1,3.187,3.187A3.187,3.187,0,0,1,486.676-1085.422Z" transform="translate(-435.113 1210.265)" fill="#f7931e"/></g><g transform="translate(384.641 -1080.504)"><g transform="translate(0 48.376)"><path d="M814.675-687.759a14.335,14.335,0,0,1-14.319-14.319v-57.831a3.187,3.187,0,0,1,3.187-3.187,3.187,3.187,0,0,1,3.187,3.187v57.831a7.954,7.954,0,0,0,7.945,7.945,7.953,7.953,0,0,0,7.945-7.945v-26.587a3.187,3.187,0,0,1,3.187-3.187,3.187,3.187,0,0,1,3.187,3.187v26.587A14.335,14.335,0,0,1,814.675-687.759Z" transform="translate(-800.356 763.095)" fill="#629e51"/></g><g transform="translate(22.264 79.62)"><path d="M870.562-621.859a14.335,14.335,0,0,1-14.319-14.318v-45.3a3.187,3.187,0,0,1,3.187-3.187,3.187,3.187,0,0,1,3.187,3.187v45.3a7.954,7.954,0,0,0,7.945,7.945,7.953,7.953,0,0,0,7.945-7.945v-45.3a3.187,3.187,0,0,1,3.187-3.187,3.187,3.187,0,0,1,3.187,3.187v45.3A14.335,14.335,0,0,1,870.562-621.859Z" transform="translate(-856.243 684.666)" fill="#629e51"/></g><g transform="translate(44.527 79.62)"><path d="M926.448-609.488a14.335,14.335,0,0,1-14.318-14.319v-57.672a3.187,3.187,0,0,1,3.187-3.187,3.187,3.187,0,0,1,3.187,3.187v57.672a7.954,7.954,0,0,0,7.944,7.945,7.954,7.954,0,0,0,7.945-7.945v-57.672a3.187,3.187,0,0,1,3.187-3.187,3.187,3.187,0,0,1,3.187,3.187v57.672A14.335,14.335,0,0,1,926.448-609.488Z" transform="translate(-912.13 684.666)" fill="#629e51"/></g><g transform="translate(66.791 50.391)"><path d="M982.336-666a14.335,14.335,0,0,1-14.318-14.318v-45.3a3.187,3.187,0,0,1,3.187-3.187,3.187,3.187,0,0,1,3.187,3.187v45.3a7.953,7.953,0,0,0,7.945,7.945,7.953,7.953,0,0,0,7.945-7.945v-74.53a3.187,3.187,0,0,1,3.187-3.187,3.187,3.187,0,0,1,3.187,3.187v74.53A14.335,14.335,0,0,1,982.336-666Z" transform="translate(-968.017 758.038)" fill="#629e51"/></g><g transform="translate(0)"><path d="M910.9-804.688a14.361,14.361,0,0,1-4.629-.771,14.243,14.243,0,0,1-8.241-7.227l-8.3-16.86a3.187,3.187,0,0,1,1.451-4.267,3.186,3.186,0,0,1,4.266,1.452l8.3,16.858a7.909,7.909,0,0,0,4.576,4.01,7.881,7.881,0,0,0,6.066-.392,7.967,7.967,0,0,0,3.618-10.647l-16.155-32.794a40.877,40.877,0,0,0-15.088-16.658,40.876,40.876,0,0,0-21.611-6.174H848.8c-27.324,0-42.068,23.283-42.068,45.189a3.187,3.187,0,0,1-3.187,3.187,3.187,3.187,0,0,1-3.187-3.187,55.438,55.438,0,0,1,12.3-34.928c6.3-7.589,17.678-16.635,36.138-16.635h16.359a47.242,47.242,0,0,1,24.978,7.135,47.243,47.243,0,0,1,17.439,19.253l16.157,32.8a14.351,14.351,0,0,1-6.518,19.178A14.231,14.231,0,0,1,910.9-804.688Z" transform="translate(-800.356 884.531)" fill="#629e51"/></g></g><g transform="translate(224.925 -935.003)"><g transform="translate(0)"><g transform="translate(31.085)"><path d="M518.365-490.651H491.777a14.335,14.335,0,0,1-14.319-14.319,14.335,14.335,0,0,1,14.319-14.319h57.831A3.187,3.187,0,0,1,552.8-516.1a3.187,3.187,0,0,1-3.187,3.187H491.777a7.954,7.954,0,0,0-7.945,7.945,7.954,7.954,0,0,0,7.945,7.945h26.588a3.187,3.187,0,0,1,3.187,3.187A3.187,3.187,0,0,1,518.365-490.651Z" transform="translate(-477.459 519.288)" fill="#eae8e8"/></g><g transform="translate(12.37 22.264)"><path d="M490.1-434.764H444.8a14.335,14.335,0,0,1-14.319-14.319A14.335,14.335,0,0,1,444.8-463.4h45.3a3.187,3.187,0,0,1,3.187,3.187,3.187,3.187,0,0,1-3.187,3.187H444.8a7.954,7.954,0,0,0-7.945,7.945,7.954,7.954,0,0,0,7.945,7.945h45.3a3.187,3.187,0,0,1,3.187,3.187A3.187,3.187,0,0,1,490.1-434.764Z" transform="translate(-430.482 463.401)" fill="#eae8e8"/></g><g transform="translate(0 44.527)"><path d="M471.42-378.877H413.748A14.335,14.335,0,0,1,399.429-393.2a14.335,14.335,0,0,1,14.319-14.319H471.42a3.187,3.187,0,0,1,3.187,3.187,3.187,3.187,0,0,1-3.187,3.187H413.748A7.953,7.953,0,0,0,405.8-393.2a7.953,7.953,0,0,0,7.945,7.945H471.42a3.187,3.187,0,0,1,3.187,3.187A3.187,3.187,0,0,1,471.42-378.877Z" transform="translate(-399.429 407.514)" fill="#eae8e8"/></g><g transform="translate(12.37 66.79)"><path d="M519.332-322.991H444.8a14.335,14.335,0,0,1-14.319-14.318A14.335,14.335,0,0,1,444.8-351.628h45.3a3.187,3.187,0,0,1,3.187,3.187,3.187,3.187,0,0,1-3.187,3.187H444.8a7.954,7.954,0,0,0-7.945,7.945,7.954,7.954,0,0,0,7.945,7.945h74.531a3.187,3.187,0,0,1,3.187,3.187A3.187,3.187,0,0,1,519.332-322.991Z" transform="translate(-430.482 351.628)" fill="#eae8e8"/></g><g transform="translate(74.961)"><path d="M601.95-394.445a14.349,14.349,0,0,1-12.877-7.987,14.34,14.34,0,0,1,6.516-19.179l16.86-8.3a3.186,3.186,0,0,1,4.267,1.451,3.186,3.186,0,0,1-1.451,4.267l-16.858,8.3a7.958,7.958,0,0,0-3.618,10.642,7.968,7.968,0,0,0,10.647,3.618l32.794-16.156a40.873,40.873,0,0,0,16.658-15.088,40.876,40.876,0,0,0,6.173-21.611v-16.359c0-27.324-23.283-42.068-45.19-42.068a3.187,3.187,0,0,1-3.187-3.187,3.187,3.187,0,0,1,3.187-3.187,55.437,55.437,0,0,1,34.928,12.3c7.589,6.3,16.635,17.678,16.635,36.138v16.359A47.243,47.243,0,0,1,660.3-429.51a47.243,47.243,0,0,1-19.253,17.439l-32.8,16.157A14.255,14.255,0,0,1,601.95-394.445Z" transform="translate(-587.598 519.288)" fill="#eae8e8"/></g></g><g transform="translate(0)"><g transform="translate(31.085)"><path d="M518.365-490.651H491.777a14.335,14.335,0,0,1-14.319-14.319,14.335,14.335,0,0,1,14.319-14.319h57.831v6.374H491.777a7.954,7.954,0,0,0-7.945,7.945,7.954,7.954,0,0,0,7.945,7.945h26.588Z" transform="translate(-477.459 519.288)" fill="#fff"/></g><g transform="translate(12.37 22.264)"><path d="M490.1-434.764H444.8a14.335,14.335,0,0,1-14.319-14.319A14.335,14.335,0,0,1,444.8-463.4h45.3v6.374H444.8a7.954,7.954,0,0,0-7.945,7.945,7.954,7.954,0,0,0,7.945,7.945h45.3Z" transform="translate(-430.482 463.401)" fill="#fff"/></g><g transform="translate(0 44.527)"><path d="M471.42-378.877H413.748A14.335,14.335,0,0,1,399.429-393.2a14.335,14.335,0,0,1,14.319-14.319H471.42v6.374H413.748A7.953,7.953,0,0,0,405.8-393.2a7.953,7.953,0,0,0,7.945,7.945H471.42Z" transform="translate(-399.429 407.514)" fill="#fff"/></g><g transform="translate(12.37 66.79)"><path d="M519.332-322.991H444.8a14.335,14.335,0,0,1-14.319-14.318A14.335,14.335,0,0,1,444.8-351.628h45.3v6.374H444.8a7.954,7.954,0,0,0-7.945,7.945,7.954,7.954,0,0,0,7.945,7.945h74.531Z" transform="translate(-430.482 351.628)" fill="#fff"/></g><g transform="translate(74.961)"><path d="M601.95-394.445a14.349,14.349,0,0,1-12.877-7.987,14.34,14.34,0,0,1,6.516-19.179l16.86-8.3,2.816,5.718-16.858,8.3a7.958,7.958,0,0,0-3.618,10.642,7.968,7.968,0,0,0,10.647,3.618l32.794-16.156a40.873,40.873,0,0,0,16.658-15.088,40.876,40.876,0,0,0,6.173-21.611v-16.359c0-27.324-23.283-42.068-45.19-42.068v-6.374a55.437,55.437,0,0,1,34.928,12.3c7.589,6.3,16.635,17.678,16.635,36.138v16.359A47.243,47.243,0,0,1,660.3-429.51a47.243,47.243,0,0,1-19.253,17.439l-32.8,16.157A14.255,14.255,0,0,1,601.95-394.445Z" transform="translate(-587.598 519.288)" fill="#fff"/></g></g></g><g transform="translate(238.587 -994.006)"><path d="M433.723-667.4" transform="translate(-433.723 667.401)" fill="none" stroke="#ed8ee2" stroke-linecap="round" stroke-linejoin="round" stroke-width="16"/></g><g transform="translate(242.442 -1077.202)"><path d="M510.39-742.264A67.065,67.065,0,0,1,443.4-809.253a67.065,67.065,0,0,1,66.989-66.99,67.065,67.065,0,0,1,66.989,66.99A67.065,67.065,0,0,1,510.39-742.264Zm0-127.6a60.684,60.684,0,0,0-60.615,60.616,60.684,60.684,0,0,0,60.615,60.615,60.684,60.684,0,0,0,60.616-60.615A60.684,60.684,0,0,0,510.39-869.869Z" transform="translate(-443.401 876.243)" fill="#629e51"/><g transform="translate(25.909 25.909)"><path d="M549.519-729.045a41.127,41.127,0,0,1-41.08-41.08,41.127,41.127,0,0,1,41.08-41.08,41.127,41.127,0,0,1,41.08,41.08A41.127,41.127,0,0,1,549.519-729.045Zm0-75.786a34.746,34.746,0,0,0-34.707,34.706,34.745,34.745,0,0,0,34.707,34.706,34.746,34.746,0,0,0,34.707-34.706A34.746,34.746,0,0,0,549.519-804.831Z" transform="translate(-508.439 811.205)" fill="#f7931e"/></g><g transform="translate(47.596 47.596)"><path d="M582.272-717.979a19.415,19.415,0,0,1-19.393-19.393,19.416,19.416,0,0,1,19.393-19.394,19.416,19.416,0,0,1,19.393,19.394A19.415,19.415,0,0,1,582.272-717.979Zm0-32.413a13.034,13.034,0,0,0-13.019,13.02,13.034,13.034,0,0,0,13.019,13.02,13.034,13.034,0,0,0,13.019-13.02A13.034,13.034,0,0,0,582.272-750.392Z" transform="translate(-562.879 756.766)" fill="#fff"/></g></g><g transform="translate(440.3 -928.893)"><rect width="6.374" height="173.52" transform="translate(0 0)" fill="#629e51"/></g><g transform="translate(175.376 -1091.532)"><path d="M275.049-912.215" transform="translate(-275.049 912.215)" fill="none" stroke="#ed8ee2" stroke-linecap="round" stroke-linejoin="round" stroke-width="16"/></g></g></svg>