<svg xmlns="http://www.w3.org/2000/svg" width="1200" height="1200" viewBox="0 0 1200 1200"><g><g><rect width="127.192" height="258.605" x="132.117" y="706.234" fill="#3d6833" stroke="#000" stroke-miterlimit="10" stroke-width="16" rx="20.7"/><rect width="94.007" height="194.169" x="148.71" y="723.11" fill="#fff" rx="6.176"/><circle cx="195.714" cy="936.688" r="9.167" fill="#f7931e"/></g><g><path d="M597.167,486.519h0a47.269,47.269,0,0,1,47.269,47.269v0a91.446,91.446,0,0,1-91.446,91.446H549.9a0,0,0,0,1,0,0V533.788a47.269,47.269,0,0,1,47.269-47.269Z"/><circle cx="597.167" cy="523.335" r="18.216" fill="#ed8ee2"/><path d="M574.225,502.748h45.884a0,0,0,0,1,0,0v16.66a0,0,0,0,1,0,0H590.885a16.66,16.66,0,0,1-16.66-16.66v0A0,0,0,0,1,574.225,502.748Z"/></g><line x1="663.965" x2="663.965" y1="956.494" y2="874.587" fill="none" stroke="#000" stroke-miterlimit="10" stroke-width="16"/><g opacity=".3"><polygon points="774.978 963.704 821.748 1097.545 764.137 1098.042 762.979 963.807 774.978 963.704"/></g><line x1="569.709" x2="965.076" y1="1103.822" y2="1103.822" fill="none" stroke="#000" stroke-miterlimit="10" stroke-width="16"/><path fill="#d8d8d8" d="M.111,0H1200a0,0,0,0,1,0,0V405.146a0,0,0,0,1,0,0H109.122A109.011,109.011,0,0,1,.111,296.136V0A0,0,0,0,1,.111,0Z"/><g><path fill="none" stroke="#fff" stroke-miterlimit="10" stroke-width="6" d="M211.589,191.068c0-16.173,16-16.173,16-32.346s-16-16.173-16-32.346,16-16.176,16-32.351-16-16.175-16-32.351,16-16.176,16-32.353-16-16.175-16-32.351,16-16.178,16-32.356-16-16.178-16-32.356"/><path fill="none" stroke="#fff" stroke-miterlimit="10" stroke-width="6" d="M185.844,191.068c0-16.173,16-16.173,16-32.346s-16-16.173-16-32.346,16-16.176,16-32.351-16-16.175-16-32.351,16-16.176,16-32.353-16-16.175-16-32.351,16-16.178,16-32.356-16-16.178-16-32.356"/><path fill="none" stroke="#fff" stroke-miterlimit="10" stroke-width="6" d="M160.1,191.068c0-16.173,16-16.173,16-32.346s-16-16.173-16-32.346,16-16.176,16-32.351-16-16.175-16-32.351,16-16.176,16-32.353-16-16.175-16-32.351,16-16.178,16-32.356-16-16.178-16-32.356"/><path fill="none" stroke="#fff" stroke-miterlimit="10" stroke-width="6" d="M134.356,191.068c0-16.173,16-16.173,16-32.346s-16-16.173-16-32.346,16-16.176,16-32.351-16-16.175-16-32.351,16-16.176,16-32.353-16-16.175-16-32.351,16-16.178,16-32.356-16-16.178-16-32.356"/><path fill="none" stroke="#fff" stroke-miterlimit="10" stroke-width="6" d="M108.612,191.068c0-16.173,16-16.173,16-32.346s-16-16.173-16-32.346,16-16.176,16-32.351-16-16.175-16-32.351,16-16.176,16-32.353-16-16.175-16-32.351,16-16.178,16-32.356-16-16.178-16-32.356"/></g><path fill="#fff" d="M298.654,171.964H1200a0,0,0,0,1,0,0V405.146a0,0,0,0,1,0,0H298.654A31.048,31.048,0,0,1,267.606,374.1V203.013A31.048,31.048,0,0,1,298.654,171.964Z"/><path fill="#ed8ee2" d="M597.167,552.069h78.275a32.7,32.7,0,0,1,32.7,32.7v0a0,0,0,0,1,0,0H597.167a0,0,0,0,1,0,0v-32.7A0,0,0,0,1,597.167,552.069Z"/><path fill="#ed8ee2" d="M486.195,552.069H564.47a32.7,32.7,0,0,1,32.7,32.7v0a0,0,0,0,1,0,0H486.195a0,0,0,0,1,0,0v-32.7A0,0,0,0,1,486.195,552.069Z" transform="translate(1083.362 1136.835) rotate(-180)"/><path fill="none" stroke="#000" stroke-miterlimit="10" stroke-width="16" d="M95.532,1028.036H325.537a24.176,24.176,0,0,0,24.175-24.175V913.9a39.316,39.316,0,0,1,39.316-39.316H996.139V455.307a50.161,50.161,0,0,0-50.161-50.161h-648a29.211,29.211,0,0,1-29.211-29.211V202.9A30.932,30.932,0,0,1,299.7,171.964H742.333"/><circle cx="82.629" cy="1028.036" r="12.903" fill="#fff" stroke="#000" stroke-miterlimit="10" stroke-width="8"/><circle cx="755.236" cy="171.964" r="12.903" fill="#fff" stroke="#000" stroke-miterlimit="10" stroke-width="8"/><path fill="#f7931e" d="M597.167,552.069h0a31.741,31.741,0,0,1,31.741,31.741V635.3a0,0,0,0,1,0,0H565.426a0,0,0,0,1,0,0V583.81a31.741,31.741,0,0,1,31.741-31.741Z"/><rect width="110.972" height="47.56" x="541.681" y="635.298" fill="#3d6833" rx="23.78"/><g><polygon fill="#3d6833" points="597.167 663.041 597.167 798.784 585.277 798.784 544.107 669.551 597.167 663.041"/><polygon fill="#f7931e" points="559.516 825.536 597.167 825.536 597.167 798.784 585.277 798.784 559.516 825.536"/></g><g><polygon fill="#3d6833" points="597.167 663.041 597.167 798.784 609.057 798.784 650.227 669.551 597.167 663.041"/><polygon fill="#f7931e" points="634.818 825.536 597.167 825.536 597.167 798.784 609.057 798.784 634.818 825.536"/></g><line x1="597.167" x2="597.167" y1="635.298" y2="798.784" fill="none" stroke="#fff" stroke-miterlimit="10" stroke-width="3"/><path d="M819.112,552.069h78.275a32.7,32.7,0,0,1,32.7,32.7v0a0,0,0,0,1,0,0H819.112a0,0,0,0,1,0,0v-32.7A0,0,0,0,1,819.112,552.069Z"/><path d="M708.139,552.069h78.275a32.7,32.7,0,0,1,32.7,32.7v0a0,0,0,0,1,0,0H708.139a0,0,0,0,1,0,0v-32.7A0,0,0,0,1,708.139,552.069Z" transform="translate(1527.251 1136.835) rotate(-180)"/><g><polygon points="819.112 663.041 819.112 798.784 807.222 798.784 774.332 695.545 819.112 663.041"/><polygon fill="#3d6833" points="781.46 825.536 819.112 825.536 819.112 798.784 807.222 798.784 781.46 825.536"/></g><g><circle cx="819.112" cy="511.078" r="27.743" fill="#ed8ee2"/><circle cx="819.112" cy="473.794" r="19.617" fill="#ed8ee2"/><circle cx="819.112" cy="523.335" r="18.216"/><path fill="#ed8ee2" d="M796.17,502.748h45.884a0,0,0,0,1,0,0v16.66a0,0,0,0,1,0,0H812.829a16.66,16.66,0,0,1-16.66-16.66v0A0,0,0,0,1,796.17,502.748Z"/></g><g><polygon fill="#3d6833" points="856.763 825.536 819.112 825.536 819.112 798.784 831.001 798.784 856.763 825.536"/><polygon points="819.112 663.041 819.112 798.784 831.001 798.784 863.891 695.545 819.112 663.041"/></g><g><path fill="#eae8e8" d="M819.112,552.069h0a31.741,31.741,0,0,1,31.741,31.741V635.3a0,0,0,0,1,0,0H787.37a0,0,0,0,1,0,0V583.81a31.741,31.741,0,0,1,31.741-31.741Z"/><polygon fill="#f7931e" points="874.6 725.13 763.63 725.13 787.37 635.3 850.853 635.3 874.6 725.13"/></g><path fill="#3d6833" d="M355.714,552.069H433.99a32.7,32.7,0,0,1,32.7,32.7v0a0,0,0,0,1,0,0H355.714a0,0,0,0,1,0,0v-32.7A0,0,0,0,1,355.714,552.069Z"/><path fill="#3d6833" d="M244.742,552.069h78.275a32.7,32.7,0,0,1,32.7,32.7v0a0,0,0,0,1,0,0H244.742a0,0,0,0,1,0,0v-32.7A0,0,0,0,1,244.742,552.069Z" transform="translate(600.457 1136.835) rotate(-180)"/><g><path fill="#f7931e" d="M373.931,473.794h0a0,0,0,0,1,0,0v49.541a0,0,0,0,1,0,0H337.5a0,0,0,0,1,0,0V510.226A36.432,36.432,0,0,1,373.931,473.794Z"/><circle cx="355.715" cy="523.335" r="18.216" fill="#3d6833"/></g><g><polygon fill="#3d6833" points="355.715 663.041 355.715 798.784 343.825 798.784 310.935 695.545 355.715 663.041"/><polygon fill="#3d6833" points="318.063 825.536 355.715 825.536 355.715 798.784 343.825 798.784 318.063 825.536"/></g><g><polygon fill="#3d6833" points="393.366 825.536 355.715 825.536 355.715 798.784 367.604 798.784 393.366 825.536"/><polygon fill="#3d6833" points="355.715 663.041 355.715 798.784 367.604 798.784 400.494 695.545 355.715 663.041"/></g><g><path fill="#ed8ee2" d="M355.714,552.069h0a31.741,31.741,0,0,1,31.741,31.741V635.3a0,0,0,0,1,0,0H323.973a0,0,0,0,1,0,0V583.81a31.741,31.741,0,0,1,31.741-31.741Z"/><path fill="#ed8ee2" d="M310.935,695.545h44.78V635.3H323.973l-5.164,2.575a32.326,32.326,0,0,0-14.9,42.542Z"/><path fill="#ed8ee2" d="M400.494,695.545H355.715V635.3h31.741l5.164,2.575a32.326,32.326,0,0,1,14.9,42.542Z"/></g><circle cx="972.492" cy="1103.822" r="12.903" fill="#fff" stroke="#000" stroke-miterlimit="10" stroke-width="8"/><g><rect width="255.128" height="138.715" x="332.021" y="220.653" fill="#ed8ee2" stroke="#000" stroke-miterlimit="10" stroke-width="16" rx="13.193"/><rect width="212.853" height="93.798" x="353.158" y="243.111" fill="#fff"/></g><g><line x1="381.709" x2="381.709" y1="326.34" y2="295.955" fill="none" stroke="#3d6833" stroke-miterlimit="10" stroke-width="12"/><line x1="407.668" x2="407.668" y1="326.34" y2="288.909" fill="none" stroke="#3d6833" stroke-miterlimit="10" stroke-width="12"/><line x1="433.626" x2="433.626" y1="326.34" y2="281.863" fill="none" stroke="#3d6833" stroke-miterlimit="10" stroke-width="12"/><line x1="459.585" x2="459.585" y1="326.34" y2="274.818" fill="none" stroke="#3d6833" stroke-miterlimit="10" stroke-width="12"/><line x1="485.543" x2="485.543" y1="326.34" y2="267.772" fill="none" stroke="#3d6833" stroke-miterlimit="10" stroke-width="12"/><line x1="511.502" x2="511.502" y1="326.34" y2="260.726" fill="none" stroke="#3d6833" stroke-miterlimit="10" stroke-width="12"/><line x1="537.46" x2="537.46" y1="326.34" y2="253.68" fill="none" stroke="#3d6833" stroke-miterlimit="10" stroke-width="12"/></g><g><g><rect width="215.641" height="176.835" x="829.912" y="161.768"/><polygon points="880.934 338.603 829.912 369.667 829.912 316.144 880.934 316.144 880.934 338.603"/></g><g><rect width="215.641" height="176.835" x="813.827" y="145.684" fill="#f7931e"/><polygon fill="#f7931e" points="864.849 322.518 813.827 353.583 813.827 300.06 864.849 300.06 864.849 322.518"/></g></g><g><g><rect width="356.441" height="143.756" x="-36.12" y="289.558" transform="translate(-219.336 503.536) rotate(-90)"/><polygon points="213.978 503.184 247.606 539.657 195.721 539.657 195.721 503.184 213.978 503.184"/></g><g><rect width="356.441" height="143.756" x="-16.12" y="269.558" fill="#3d6833" transform="translate(-179.336 503.536) rotate(-90)"/><polygon fill="#3d6833" points="233.978 483.184 267.606 519.657 215.721 519.657 215.721 483.184 233.978 483.184"/></g></g><g><line x1="883.428" x2="961.867" y1="225.275" y2="225.275" fill="none" stroke="#fff" stroke-miterlimit="10" stroke-width="12"/><line x1="883.428" x2="961.867" y1="256.948" y2="256.948" fill="none" stroke="#fff" stroke-miterlimit="10" stroke-width="12"/></g><g><g><circle cx="360.687" cy="126.544" r="7.46" fill="#fff"/><circle cx="419.611" cy="126.544" r="7.46" fill="#fff"/><circle cx="478.536" cy="126.544" r="7.46" fill="#fff"/><circle cx="537.46" cy="126.544" r="7.46" fill="#fff"/><circle cx="596.385" cy="126.544" r="7.46" fill="#fff"/><circle cx="655.309" cy="126.544" r="7.46" fill="#fff"/><circle cx="714.234" cy="126.544" r="7.46" fill="#fff"/></g><g><circle cx="360.687" cy="86.571" r="7.46" fill="#fff"/><circle cx="419.611" cy="86.571" r="7.46" fill="#fff"/><circle cx="478.536" cy="86.571" r="7.46" fill="#fff"/><circle cx="537.46" cy="86.571" r="7.46" fill="#fff"/><circle cx="596.385" cy="86.571" r="7.46" fill="#fff"/><circle cx="655.309" cy="86.571" r="7.46" fill="#fff"/><circle cx="714.234" cy="86.571" r="7.46" fill="#fff"/></g><g><circle cx="360.687" cy="46.598" r="7.46" fill="#fff"/><circle cx="419.611" cy="46.598" r="7.46" fill="#fff"/><circle cx="478.536" cy="46.598" r="7.46" fill="#fff"/><circle cx="537.46" cy="46.598" r="7.46" fill="#fff"/><circle cx="596.385" cy="46.598" r="7.46" fill="#fff"/><circle cx="655.309" cy="46.598" r="7.46" fill="#fff"/><circle cx="714.234" cy="46.598" r="7.46" fill="#fff"/></g></g><g><circle cx="1013.139" cy="891.587" r="81.907"/><circle cx="996.139" cy="874.587" r="81.907" fill="#ed8ee2"/></g><g><path fill="#d8d8d8" stroke="#000" stroke-linejoin="round" stroke-width="10" d="M580.184,945.2H743.467a27.523,27.523,0,0,1,27.523,27.523v116.894a0,0,0,0,1,0,0H552.661a0,0,0,0,1,0,0V972.719A27.523,27.523,0,0,1,580.184,945.2Z"/><rect width="182.788" height="106.859" x="570.432" y="963.975" fill="#3d6833" rx="9.676"/><path fill="#d8d8d8" stroke="#000" stroke-linejoin="round" stroke-width="10" d="M530.857,1089.613H792.794a0,0,0,0,1,0,0v9.632a18.275,18.275,0,0,1-18.275,18.275H549.132a18.275,18.275,0,0,1-18.275-18.275v-9.632a0,0,0,0,1,0,0Z"/></g><circle cx="663.965" cy="874.587" r="12.903" fill="#fff" stroke="#000" stroke-miterlimit="10" stroke-width="8"/><g><circle cx="163.368" cy="275.455" r="49.121" fill="none" stroke="#629e51" stroke-miterlimit="10" stroke-width="8"/><circle cx="163.368" cy="275.455" r="29.174" fill="none" stroke="#f7931e" stroke-miterlimit="10" stroke-width="8"/><circle cx="163.368" cy="275.455" r="12.477" fill="none" stroke="#fff" stroke-miterlimit="10" stroke-width="8"/></g><g><circle cx="163.368" cy="416.669" r="49.121" fill="none" stroke="#ed8ee2" stroke-miterlimit="10" stroke-width="8"/><circle cx="163.368" cy="416.669" r="29.174" fill="none" stroke="#fff" stroke-miterlimit="10" stroke-width="8"/><circle cx="163.368" cy="416.669" r="12.477" fill="none" stroke="#f7931e" stroke-miterlimit="10" stroke-width="8"/></g><path fill="#fff" d="M1026.043,866.277,979.83,839.6a9.6,9.6,0,0,0-14.394,8.31v53.362a9.6,9.6,0,0,0,14.394,8.31l46.213-26.681A9.6,9.6,0,0,0,1026.043,866.277Z"/><g><path fill="#f7931e" d="M711.186,1070.834H658.279V987.28h21.429a17.7,17.7,0,0,1,17.344,14.167Z"/><circle cx="658.279" cy="1011.308" r="18.157" fill="#fff"/><path fill="#ed8ee2" d="M658.279,1029.465h0a35.888,35.888,0,0,1,35.888,35.888v5.482a0,0,0,0,1,0,0H622.391a0,0,0,0,1,0,0v-5.482A35.888,35.888,0,0,1,658.279,1029.465Z"/><path fill="#f7931e" d="M647.42,987.28h33.731a0,0,0,0,1,0,0v24.028a0,0,0,0,1,0,0H647.42a12.014,12.014,0,0,1-12.014-12.014v0A12.014,12.014,0,0,1,647.42,987.28Z"/></g><rect width="16.957" height="49.194" x="160.1" y="861.684" fill="#f7931e"/><rect width="16.957" height="98.717" x="187.924" y="812.16" fill="#ed8ee2"/><rect width="16.957" height="148.1" x="214.978" y="762.778" fill="#3d6833"/></g></svg>