<svg xmlns="http://www.w3.org/2000/svg" width="1200" height="1200" viewBox="0 0 1200 1200">
  <g>
    <line x1="332.821" y1="782.23" x2="194.772" y2="782.23" fill="none" stroke="#ed8ee2" stroke-miterlimit="10" stroke-width="24.849"/>
    <path d="M358.447,782.23h51.018a28.494,28.494,0,0,0,28.494-28.494V718.05" fill="none" stroke="#ed8ee2" stroke-miterlimit="10" stroke-width="24.849"/>
    <g>
      <path d="M587.955,684.88h452.9a0,0,0,0,1,0,0v67.351a24.97,24.97,0,0,1-24.97,24.97H587.955a0,0,0,0,1,0,0V684.88A0,0,0,0,1,587.955,684.88Z" fill="#3d6833"/>
      <g>
        <polyline points="1040.752 741.288 999.601 723.716 958.448 741.288 917.295 723.716 876.143 741.288 834.995 723.716 793.842 741.288 752.689 723.716 711.534 741.288 670.38 723.716 629.22 741.288 588.061 723.716" fill="none" stroke="#629e51" stroke-miterlimit="10" stroke-width="4.393"/>
        <polyline points="1040.752 720.584 999.601 703.012 958.448 720.584 917.295 703.012 876.143 720.584 834.995 703.012 793.842 720.584 752.689 703.012 711.534 720.584 670.38 703.012 629.22 720.584 588.061 703.012" fill="none" stroke="#629e51" stroke-miterlimit="10" stroke-width="4.393"/>
        <polyline points="1040.752 761.993 999.601 744.421 958.448 761.993 917.295 744.421 876.143 761.993 834.995 744.421 793.842 761.993 752.689 744.421 711.534 761.993 670.38 744.421 629.22 761.993 588.061 744.421" fill="none" stroke="#629e51" stroke-miterlimit="10" stroke-width="4.393"/>
      </g>
    </g>
    <polygon points="182.027 883.184 182.027 873.077 162.397 881.512 162.397 852.901 150.397 852.901 150.397 881.513 130.768 873.077 130.768 883.184 150.397 891.619 150.397 903.827 130.768 895.391 130.768 905.498 150.397 913.933 150.397 926.141 130.768 917.705 130.768 927.812 150.397 936.247 150.397 948.455 130.768 940.019 130.768 950.126 150.397 958.561 150.397 970.769 130.768 962.333 130.768 972.44 150.397 980.876 150.397 993.083 130.768 984.647 130.768 994.754 150.397 1003.19 150.397 1031.541 162.397 1031.541 162.397 1003.189 182.027 994.754 182.027 984.647 162.397 993.083 162.397 980.875 182.027 972.44 182.027 962.333 162.397 970.769 162.397 958.561 182.027 950.126 182.027 940.019 162.397 948.454 162.397 936.247 182.027 927.812 182.027 917.705 162.397 926.141 162.397 913.933 182.027 905.498 182.027 895.391 162.397 903.826 162.397 891.619 182.027 883.184" fill="#f7931e"/>
    <polygon points="510.845 883.184 510.845 873.077 491.215 881.512 491.215 852.901 479.215 852.901 479.215 881.512 459.585 873.077 459.585 883.184 479.215 891.619 479.215 903.826 459.585 895.391 459.585 905.498 479.215 913.933 479.215 926.141 459.585 917.705 459.585 927.812 479.215 936.247 479.215 948.455 459.585 940.019 459.585 950.126 479.215 958.561 479.215 970.769 459.585 962.333 459.585 972.44 479.215 980.875 479.215 993.083 459.585 984.647 459.585 994.754 479.215 1003.189 479.215 1031.541 491.215 1031.541 491.215 1003.19 510.845 994.754 510.845 984.647 491.215 993.083 491.215 980.876 510.845 972.44 510.845 962.333 491.215 970.769 491.215 958.561 510.845 950.126 510.845 940.019 491.215 948.455 491.215 936.247 510.845 927.812 510.845 917.705 491.215 926.141 491.215 913.933 510.845 905.498 510.845 895.391 491.215 903.827 491.215 891.619 510.845 883.184" fill="#f7931e"/>
    <path d="M0,0H1200a0,0,0,0,1,0,0V502a0,0,0,0,1,0,0H167.263A167.263,167.263,0,0,1,0,334.737V0A0,0,0,0,1,0,0Z" fill="#d8d8d8"/>
    <circle cx="215" cy="212.68" r="104.791" fill="none" stroke="#fff" stroke-miterlimit="10" stroke-width="8"/>
    <circle cx="215" cy="212.925" r="77.312" fill="#f7931e"/>
    <rect x="580" y="335" width="620" height="167" fill="#fff"/>
    <path d="M215,213H562.935A37.065,37.065,0,0,1,600,250.065V502a0,0,0,0,1,0,0H252.065A37.065,37.065,0,0,1,215,464.935V213A0,0,0,0,1,215,213Z" fill="#fff"/>
    <path d="M108.912,1039.32H566.917V889.078A60.145,60.145,0,0,1,627,828.933l64.546-.071h333.52a60.353,60.353,0,0,0,60.353-60.353V563.927a62.071,62.071,0,0,0-62.071-62.071H257.426A42.746,42.746,0,0,1,214.68,459.11V212.68H567.9a32.747,32.747,0,0,1,32.748,32.747V335h426.089" fill="none" stroke="#000" stroke-miterlimit="10" stroke-width="16"/>
    <circle cx="100.975" cy="1038.553" r="12.903" fill="#fff" stroke="#000" stroke-miterlimit="10" stroke-width="8"/>
    <circle cx="666.796" cy="1102.752" r="12.903" fill="#fff" stroke="#000" stroke-miterlimit="10" stroke-width="8"/>
    <circle cx="1098.796" cy="1038.752" r="12.903" fill="#fff" stroke="#000" stroke-miterlimit="10" stroke-width="8"/>
    <circle cx="1039.644" cy="334.752" r="12.903" fill="#fff" stroke="#000" stroke-miterlimit="10" stroke-width="8"/>
    <path d="M667,1090V977.943A49.943,49.943,0,0,1,716.943,928H943v110h143" fill="none" stroke="#000" stroke-miterlimit="10" stroke-width="16"/>
    <g opacity="0.3">
      <polygon points="951 922 996.613 1032 939 1032 939 922 951 922"/>
    </g>
    <g opacity="0.3">
      <polygon points="606 230 651.613 340 594 340 594 230 606 230"/>
    </g>
    <g>
      <path d="M737.406,1028.9h0a77,77,0,0,1,77,77v0a0,0,0,0,1,0,0h0a77,77,0,0,1-77-77v0A0,0,0,0,1,737.406,1028.9Z" fill="#8ace74"/>
      <path d="M891.406,1028.9h0a0,0,0,0,1,0,0v0a77,77,0,0,1-77,77h0a0,0,0,0,1,0,0v0A77,77,0,0,1,891.406,1028.9Z" transform="translate(1705.813 2134.806) rotate(-180)" fill="#3d6833"/>
      <path d="M852.906,1012.956h0a0,0,0,0,1,0,0v0a77,77,0,0,1-77,77h0a0,0,0,0,1,0,0v0A77,77,0,0,1,852.906,1012.956Z" transform="translate(2133.77 1219.076) rotate(135)" fill="#629e51"/>
    </g>
    <g>
      <path d="M684.528,247.323h0A63.768,63.768,0,0,1,748.3,311.09v0a0,0,0,0,1,0,0h0a63.768,63.768,0,0,1-63.768-63.768v0A0,0,0,0,1,684.528,247.323Z" fill="#8ace74"/>
      <path d="M812.063,247.323h0a0,0,0,0,1,0,0v0A63.768,63.768,0,0,1,748.3,311.09h0a0,0,0,0,1,0,0v0a63.768,63.768,0,0,1,63.768-63.768Z" transform="translate(1560.359 558.413) rotate(180)" fill="#3d6833"/>
      <path d="M780.179,234.116h0a0,0,0,0,1,0,0v0a63.768,63.768,0,0,1-63.768,63.768h0a0,0,0,0,1,0,0v0a63.768,63.768,0,0,1,63.768-63.768Z" transform="translate(1465.511 -75.034) rotate(135)" fill="#629e51"/>
    </g>
    <path d="M615.654.094V106.379a25.428,25.428,0,0,0,25.428,25.429H878.889a25.428,25.428,0,0,0,25.428-25.429h0a25.429,25.429,0,0,1,25.429-25.428h84.469a25.429,25.429,0,0,1,25.429,25.428V210.572" fill="none" stroke="#fff" stroke-miterlimit="10" stroke-width="8"/>
    <circle cx="1039.644" cy="191.922" r="88.001" fill="#fff" opacity="0.15"/>
    <circle cx="1039.644" cy="191.922" r="64.53" fill="#fff" opacity="0.3"/>
    <circle cx="1039.644" cy="191.922" r="40.606" fill="#fff"/>
    <g>
      <rect x="292.131" y="769.4" width="79.828" height="76.462" fill="#ed8ee2"/>
      <line x1="353.011" y1="769.4" x2="353.011" y2="836.958" fill="none" stroke="#000" stroke-miterlimit="10" stroke-width="12.425"/>
      <path d="M301.859,825.644h60.37a22.619,22.619,0,0,1,22.619,22.619v25.895a0,0,0,0,1,0,0H279.24a0,0,0,0,1,0,0V848.264A22.619,22.619,0,0,1,301.859,825.644Z"/>
      <line x1="332.821" y1="781.076" x2="332.821" y2="748.966" fill="none" stroke="#3d6833" stroke-linecap="round" stroke-linejoin="round" stroke-width="12.425"/>
      <rect x="311.598" y="815.382" width="40.38" height="24.108"/>
      <line x1="312.444" y1="769.4" x2="312.444" y2="836.958" fill="none" stroke="#000" stroke-miterlimit="10" stroke-width="12.425"/>
      <rect x="312.927" y="840.227" width="38.314" height="19.348" fill="none" stroke="#fff" stroke-miterlimit="10" stroke-width="3"/>
    </g>
    <g>
      <circle cx="535.784" cy="1091.508" r="7.868" fill="#3d6833"/>
      <circle cx="471.241" cy="1091.508" r="7.868" fill="#3d6833"/>
      <circle cx="406.699" cy="1091.508" r="7.868" fill="#3d6833"/>
      <circle cx="342.156" cy="1091.508" r="7.868" fill="#3d6833"/>
      <circle cx="277.614" cy="1091.508" r="7.868" fill="#3d6833"/>
      <circle cx="213.071" cy="1091.508" r="7.868" fill="#3d6833"/>
      <circle cx="148.529" cy="1091.508" r="7.868" fill="#3d6833"/>
    </g>
    <g>
      <circle cx="535.784" cy="1131.802" r="7.868" fill="#f7931e"/>
      <circle cx="471.241" cy="1131.802" r="7.868" fill="#f7931e"/>
      <circle cx="406.699" cy="1131.802" r="7.868" fill="#f7931e"/>
      <circle cx="342.156" cy="1131.802" r="7.868" fill="#f7931e"/>
      <circle cx="277.614" cy="1131.802" r="7.868" fill="#f7931e"/>
      <circle cx="213.071" cy="1131.802" r="7.868" fill="#f7931e"/>
      <circle cx="148.529" cy="1131.802" r="7.868" fill="#f7931e"/>
    </g>
    <circle cx="438.684" cy="502" r="12.903" fill="#fff" stroke="#000" stroke-miterlimit="10" stroke-width="8"/>
    <circle cx="830.228" cy="824.509" r="12.903" fill="#fff" stroke="#000" stroke-miterlimit="10" stroke-width="8"/>
    <g>
      <path d="M830.228,684.88c0-46.864-54.235-84.855-121.136-84.855S587.955,638.016,587.955,684.88" fill="none" stroke="#d8d8d8" stroke-miterlimit="10" stroke-width="13.179"/>
      <path d="M1040.857,684.88c0-46.864-54.234-84.855-121.136-84.855H703.788" fill="none" stroke="#d8d8d8" stroke-miterlimit="10" stroke-width="13.179"/>
      <path d="M977.825,684.88c0-46.864-54.234-84.855-121.136-84.855" fill="none" stroke="#d8d8d8" stroke-miterlimit="10" stroke-width="4.393"/>
      <path d="M898.972,684.88c0-46.864-54.235-84.855-121.137-84.855" fill="none" stroke="#d8d8d8" stroke-miterlimit="10" stroke-width="4.393"/>
      <path d="M651.368,684.88c0-46.864,54.234-84.855,121.136-84.855" fill="none" stroke="#d8d8d8" stroke-miterlimit="10" stroke-width="4.393"/>
      <path d="M730.221,684.88c0-46.864,54.235-84.855,121.137-84.855" fill="none" stroke="#d8d8d8" stroke-miterlimit="10" stroke-width="4.393"/>
      <rect x="587.955" y="684.88" width="242.273" height="92.322" fill="none" stroke="#d8d8d8" stroke-miterlimit="10" stroke-width="13.179"/>
      <path d="M860.172,684.88h180.686a0,0,0,0,1,0,0V777.2a0,0,0,0,1,0,0H830.228a0,0,0,0,1,0,0V714.824A29.944,29.944,0,0,1,860.172,684.88Z" transform="translate(1871.085 1462.082) rotate(180)" fill="none" stroke="#d8d8d8" stroke-miterlimit="10" stroke-width="13.179"/>
    </g>
    <g>
      <g>
        <path d="M307.123,336.963h0a31.453,31.453,0,0,1,31.453,31.453V384.3a0,0,0,0,1,0,0H275.669a0,0,0,0,1,0,0V368.416A31.453,31.453,0,0,1,307.123,336.963Z" fill="#f7931e"/>
        <rect x="275.669" y="384.303" width="31.453" height="66.495"/>
        <rect x="307.123" y="384.303" width="31.453" height="66.495" transform="translate(645.698 835.101) rotate(-180)"/>
        <polygon points="259.329 467.642 307.123 467.642 307.123 450.798 275.669 450.798 259.329 467.642"/>
        <polygon points="354.916 467.642 307.123 467.642 307.123 450.798 338.576 450.798 354.916 467.642"/>
      </g>
      <g>
        <path d="M494.657,336.963h62.907a0,0,0,0,1,0,0V352.85A31.453,31.453,0,0,1,526.111,384.3h0a31.453,31.453,0,0,1-31.453-31.453V336.963A0,0,0,0,1,494.657,336.963Z" transform="translate(1052.221 721.266) rotate(180)" fill="#629e51"/>
        <rect x="526.111" y="384.303" width="31.453" height="66.495" transform="translate(1083.675 835.101) rotate(180)" fill="#3d6833"/>
        <rect x="494.657" y="384.303" width="31.453" height="66.495" fill="#3d6833"/>
        <rect x="526.111" y="384.303" width="31.453" height="34.197" transform="translate(1083.675 802.803) rotate(180)"/>
        <rect x="494.657" y="384.303" width="31.453" height="34.197"/>
        <polygon points="573.904 467.642 526.111 467.642 526.111 450.798 557.564 450.798 573.904 467.642" fill="#ed8ee2"/>
        <polygon points="478.317 467.642 526.111 467.642 526.111 450.798 494.657 450.798 478.317 467.642" fill="#ed8ee2"/>
      </g>
    </g>
    <g>
      <circle cx="667.646" cy="61.153" r="5.185" fill="#fff"/>
      <circle cx="701.409" cy="61.153" r="5.185" fill="#fff"/>
      <circle cx="683.139" cy="90.078" r="5.185" fill="#fff"/>
    </g>
    <g>
      <circle cx="94.449" cy="362.843" r="5.185" fill="#fff"/>
      <circle cx="94.449" cy="329.08" r="5.185" fill="#fff"/>
      <circle cx="123.374" cy="347.35" r="5.185" fill="#fff"/>
    </g>
    <g>
      <path d="M746.219,396.082h0a0,0,0,0,1,0,0v49.046a20.989,20.989,0,0,1-20.989,20.989H676.184a0,0,0,0,1,0,0v0A70.035,70.035,0,0,1,746.219,396.082Z" fill="#3d6833"/>
      <path d="M656.6,396.082h49.046a20.989,20.989,0,0,1,20.989,20.989v49.046a0,0,0,0,1,0,0h0A70.035,70.035,0,0,1,656.6,396.082v0A0,0,0,0,1,656.6,396.082Z" transform="translate(1383.235 862.199) rotate(-180)" fill="#629e51"/>
    </g>
    <ellipse cx="922.435" cy="431.254" rx="83.006" ry="8.198" fill="#d8d8d8"/>
    <g>
      <polygon points="866.752 363.858 831.307 356.991 866.752 350.123 866.752 363.858" fill="#f7931e"/>
      <path d="M975.119,371.757a52.684,52.684,0,1,1-105.367,0V345.421a26.342,26.342,0,1,1,52.683,0v26.336Z" fill="#fff" stroke="#000" stroke-miterlimit="10" stroke-width="12"/>
      <circle cx="891.732" cy="353.025" r="5.57"/>
    </g>
    <path d="M418.192,220.992v48a13.757,13.757,0,0,1-13.757,13.757h0a13.757,13.757,0,0,0-13.757,13.757v41.242" fill="none" stroke="#629e51" stroke-miterlimit="10" stroke-width="8"/>
    <path d="M418.192,269a13.758,13.758,0,0,0,13.758,13.757h0a13.757,13.757,0,0,1,13.757,13.757v41.242" fill="none" stroke="#629e51" stroke-miterlimit="10" stroke-width="8"/>
    <g>
      <rect x="372.152" y="48.598" width="93.063" height="93.063" rx="46.531" fill="#ed8ee2"/>
      <rect x="407.339" y="83.784" width="22.689" height="22.689" rx="11.345" fill="#fff"/>
    </g>
    <g>
      <path d="M354.916,146.418h0a63.768,63.768,0,0,1,63.768,63.768v0a0,0,0,0,1,0,0h0a63.768,63.768,0,0,1-63.768-63.768v0A0,0,0,0,1,354.916,146.418Z" fill="#8ace74"/>
      <path d="M482.451,146.418h0a0,0,0,0,1,0,0v0a63.768,63.768,0,0,1-63.768,63.768h0a0,0,0,0,1,0,0v0A63.768,63.768,0,0,1,482.451,146.418Z" transform="translate(901.135 356.603) rotate(180)" fill="#3d6833"/>
      <path d="M450.567,133.211h0a0,0,0,0,1,0,0v0A63.768,63.768,0,0,1,386.8,196.979h0a0,0,0,0,1,0,0v0A63.768,63.768,0,0,1,450.567,133.211Z" transform="translate(831.477 -14.219) rotate(135)" fill="#629e51"/>
    </g>
    <circle cx="437.959" cy="694.579" r="36.764" fill="#f7931e"/>
    <path d="M232.857,774.358a38.361,38.361,0,0,0-76.722,0c0,21.186,38.361,63.455,38.361,63.455S232.857,795.544,232.857,774.358Z" fill="#ed8ee2"/>
    <g>
      <path d="M142.641,684.06h0a52.131,52.131,0,0,1,52.131,52.131v0a0,0,0,0,1,0,0h0a52.131,52.131,0,0,1-52.131-52.131v0A0,0,0,0,1,142.641,684.06Z" fill="#8ace74"/>
      <path d="M246.68,684.06h0a0,0,0,0,1,0,0v0a52.131,52.131,0,0,1-52.131,52.131h0a0,0,0,0,1,0,0v0A52.131,52.131,0,0,1,246.68,684.06Z" transform="translate(441.23 1420.252) rotate(180)" fill="#3d6833"/>
      <path d="M220.615,673.264h0a0,0,0,0,1,0,0v0a52.131,52.131,0,0,1-52.131,52.131h0a0,0,0,0,1,0,0v0A52.131,52.131,0,0,1,220.615,673.264Z" transform="translate(826.617 1056.262) rotate(135)" fill="#629e51"/>
    </g>
    <g>
      <path d="M361.232,579.956h0a77.055,77.055,0,0,1,77.055,77.055v0a0,0,0,0,1,0,0h0a77.055,77.055,0,0,1-77.055-77.055v0A0,0,0,0,1,361.232,579.956Z" fill="#8ace74"/>
      <path d="M515.014,579.956h0a0,0,0,0,1,0,0v0a77.055,77.055,0,0,1-77.055,77.055h0a0,0,0,0,1,0,0v0A77.055,77.055,0,0,1,515.014,579.956Z" transform="translate(952.972 1236.968) rotate(-180)" fill="#3d6833"/>
      <path d="M476.486,564h0a0,0,0,0,1,0,0v0a77.055,77.055,0,0,1-77.055,77.055h0a0,0,0,0,1,0,0v0A77.055,77.055,0,0,1,476.486,564Z" transform="translate(1173.692 718.892) rotate(135)" fill="#629e51"/>
    </g>
    <rect x="293.684" y="695.221" width="78.275" height="43.486" rx="21.743"/>
    <circle cx="332.821" cy="738.707" r="20.966" fill="#3d6833"/>
    <path d="M321.95,738.707a10.872,10.872,0,0,0,21.743,0Z" fill="#fff"/>
    <circle cx="331.788" cy="680.976" r="20.19"/>
    <g>
      <polygon points="384.849 968.64 358.447 968.64 332.045 874.158 384.849 874.158 384.849 968.64"/>
      <polygon points="412.301 998.798 358.447 998.798 358.447 968.64 384.849 968.64 412.301 998.798" fill="#ed8ee2"/>
    </g>
    <g>
      <polygon points="279.24 968.64 305.642 968.64 332.045 874.158 279.24 874.158 279.24 968.64"/>
      <polygon points="251.788 998.798 305.642 998.798 305.642 968.64 279.24 968.64 251.788 998.798" fill="#ed8ee2"/>
    </g>
    <g>
      <circle cx="307.123" cy="313.635" r="13.847" fill="#3d6833"/>
      <g>
        <rect x="293.275" y="294.248" width="40.861" height="8.111" fill="#f7931e"/>
        <path d="M305.3,285h10.483a0,0,0,0,1,0,0v17.359a0,0,0,0,1,0,0H293.275a0,0,0,0,1,0,0v-5.33A12.029,12.029,0,0,1,305.3,285Z" fill="#f7931e"/>
      </g>
    </g>
    <g>
      <rect x="512.263" y="282.753" width="27.694" height="30.882" fill="#ed8ee2"/>
      <circle cx="526.111" cy="313.635" r="13.847" fill="#3d6833"/>
    </g>
    <g>
      <rect x="456.676" y="336.963" width="69.435" height="27.303" transform="translate(982.786 701.229) rotate(180)" fill="#629e51"/>
      <rect x="428.435" y="336.963" width="28.241" height="27.303" fill="#3d6833"/>
    </g>
    <g>
      <rect x="307.123" y="336.963" width="69.435" height="27.303" fill="#f7931e"/>
      <rect x="376.557" y="336.963" width="28.241" height="27.303" transform="translate(781.356 701.229) rotate(180)" fill="#3d6833"/>
    </g>
  </g>
</svg>
