<svg xmlns="http://www.w3.org/2000/svg" width="1200" height="1200" viewBox="0 0 1200 1200">
  <g>
    <path d="M316.057,442.658h36.358a0,0,0,0,1,0,0v72.418a0,0,0,0,1,0,0h0a36.358,36.358,0,0,1-36.358-36.358V442.658a0,0,0,0,1,0,0Z" transform="translate(894.369 644.028) rotate(141.343)" fill="#3d6833"/>
    <path d="M.111,0H1200a0,0,0,0,1,0,0V321.156a119.271,119.271,0,0,1-119.271,119.271H.111a0,0,0,0,1,0,0V0A0,0,0,0,1,.111,0Z" fill="#d8d8d8"/>
    <path d="M162.164,849.218H382.811a0,0,0,0,1,0,0V1058.9a0,0,0,0,1,0,0H192.868a30.7,30.7,0,0,1-30.7-30.7V849.218A0,0,0,0,1,162.164,849.218Z" fill="#d8d8d8"/>
    <path d="M629.8,241.853V113.078a35.1,35.1,0,0,1,35.1-35.1h358.5a35.1,35.1,0,0,0,35.1-35.1V2.583" fill="none" stroke="#fff" stroke-miterlimit="10" stroke-width="16"/>
    <path d="M613.248,242.181H903.972a39.011,39.011,0,0,1,39.011,39.011v98.3a60.728,60.728,0,0,1-60.728,60.728H536.745a0,0,0,0,1,0,0V318.684A76.5,76.5,0,0,1,613.248,242.181Z" fill="#fff"/>
    <g>
      <path d="M148.082,1010.564c16.173,0,16.173,16,32.345,16s16.174-16,32.347-16,16.175,16,32.351,16,16.175-16,32.351-16,16.176,16,32.352,16,16.176-16,32.352-16,16.178,16,32.356,16,16.178-16,32.356-16" fill="none" stroke="#fff" stroke-miterlimit="10" stroke-width="6"/>
      <path d="M148.082,976.81c16.173,0,16.173,16,32.345,16s16.174-16,32.347-16,16.175,16,32.351,16,16.175-16,32.351-16,16.176,16,32.352,16,16.176-16,32.352-16,16.178,16,32.356,16,16.178-16,32.356-16" fill="none" stroke="#fff" stroke-miterlimit="10" stroke-width="6"/>
      <path d="M148.082,943.056c16.173,0,16.173,16,32.345,16s16.174-16,32.347-16,16.175,16,32.351,16,16.175-16,32.351-16,16.176,16,32.352,16,16.176-16,32.352-16,16.178,16,32.356,16,16.178-16,32.356-16" fill="none" stroke="#fff" stroke-miterlimit="10" stroke-width="6"/>
      <path d="M148.082,909.3c16.173,0,16.173,16,32.345,16s16.174-16,32.347-16,16.175,16,32.351,16,16.175-16,32.351-16,16.176,16,32.352,16,16.176-16,32.352-16,16.178,16,32.356,16,16.178-16,32.356-16" fill="none" stroke="#fff" stroke-miterlimit="10" stroke-width="6"/>
      <path d="M148.082,875.549c16.173,0,16.173,16,32.345,16s16.174-16,32.347-16,16.175,16,32.351,16,16.175-16,32.351-16,16.176,16,32.352,16,16.176-16,32.352-16,16.178,16,32.356,16,16.178-16,32.356-16" fill="none" stroke="#fff" stroke-miterlimit="10" stroke-width="6"/>
    </g>
    <rect x="612.155" y="241.853" width="35.677" height="475.487" fill="#a8a8a8"/>
    <path d="M176.39,723.552h16.459a0,0,0,0,1,0,0v0a44.91,44.91,0,0,1-44.91,44.91H131.48a0,0,0,0,1,0,0v0A44.91,44.91,0,0,1,176.39,723.552Z" fill="#629e51"/>
    <path d="M185.457,969.721h19.781a0,0,0,0,1,0,0v0a53.977,53.977,0,0,1-53.977,53.977H131.48a0,0,0,0,1,0,0v0A53.977,53.977,0,0,1,185.457,969.721Z" fill="#629e51"/>
    <path d="M176.39,402.444h16.459a0,0,0,0,1,0,0v0a44.91,44.91,0,0,1-44.91,44.91H131.48a0,0,0,0,1,0,0v0A44.91,44.91,0,0,1,176.39,402.444Z" fill="#629e51"/>
    <path d="M70.111,538.646H86.57a44.91,44.91,0,0,1,44.91,44.91v0a0,0,0,0,1,0,0H115.021a44.91,44.91,0,0,1-44.91-44.91v0A0,0,0,0,1,70.111,538.646Z" fill="#629e51"/>
    <path d="M49.021,842.233H71.136a60.344,60.344,0,0,1,60.344,60.344v0a0,0,0,0,1,0,0H109.365a60.344,60.344,0,0,1-60.344-60.344v0A0,0,0,0,1,49.021,842.233Z" fill="#629e51"/>
    <circle cx="1113.867" cy="889.162" r="12.903" fill="#fff" stroke="#000" stroke-miterlimit="10" stroke-width="8"/>
    <path d="M1100.964,889.162H761.711A36.709,36.709,0,0,1,725,852.453V439.313H883.815a59.168,59.168,0,0,0,59.168-59.169V275.51a33.329,33.329,0,0,0-33.329-33.329h-294.9a78.009,78.009,0,0,0-78.009,78.009V682.3A35.748,35.748,0,0,1,501,718.052H343.746v29.429a63.708,63.708,0,0,0,63.708,63.708h3.438v280.147H185.32a53.841,53.841,0,0,1-53.84-53.841V221.484" fill="none" stroke="#000" stroke-miterlimit="10" stroke-width="16"/>
    <g>
      <path d="M641.434,949.5h0A49.766,49.766,0,0,1,691.2,999.265v48.326a0,0,0,0,1,0,0H591.668a0,0,0,0,1,0,0V999.265A49.766,49.766,0,0,1,641.434,949.5Z"/>
      <rect x="591.668" y="1047.591" width="49.495" height="86.989" fill="#3d6833"/>
      <rect x="640.994" y="1047.591" width="49.495" height="86.989" fill="#3d6833"/>
      <polygon points="565.009 1162.324 640.994 1162.324 640.994 1134.58 591.668 1134.58 565.009 1162.324"/>
      <polygon points="716.979 1162.324 640.994 1162.324 640.994 1134.58 690.319 1134.58 716.979 1162.324"/>
    </g>
    <g>
      <path d="M386.777,481.129h0a45.657,45.657,0,0,1,45.657,45.657v44.336a0,0,0,0,1,0,0H341.12a0,0,0,0,1,0,0V526.785a45.657,45.657,0,0,1,45.657-45.657Z" fill="#ed8ee2"/>
      <rect x="341.12" y="571.121" width="45.657" height="79.807" fill="#ed8ee2"/>
      <polygon points="317.066 676.381 386.777 676.381 386.777 650.928 341.524 650.928 317.066 676.381" fill="#f7931e"/>
      <polygon points="456.488 676.381 386.777 676.381 386.777 650.928 432.03 650.928 456.488 676.381" fill="#f7931e"/>
      <rect x="386.777" y="571.121" width="45.657" height="79.807" fill="#ed8ee2"/>
      <path d="M396.076,536.07h36.358a0,0,0,0,1,0,0v72.418a0,0,0,0,1,0,0h0a36.358,36.358,0,0,1-36.358-36.358V536.07A0,0,0,0,1,396.076,536.07Z" fill="#3d6833"/>
      <line x1="386.373" y1="478.054" x2="386.373" y2="650.928" fill="none" stroke="#fff" stroke-miterlimit="10" stroke-width="4"/>
    </g>
    <line x1="920.72" y1="962.066" x2="641.434" y2="962.066" fill="none" stroke="#000" stroke-miterlimit="10" stroke-width="24"/>
    <path d="M641.434,962.066H547.858A61.663,61.663,0,0,1,486.2,900.4V758.611" fill="none" stroke="#000" stroke-miterlimit="10" stroke-width="24"/>
    <path d="M922.752,945.757h62.164a0,0,0,0,1,0,0v0A28.148,28.148,0,0,1,956.767,973.9H913.35a0,0,0,0,1,0,0V955.159A9.4,9.4,0,0,1,922.752,945.757Z" fill="#f7931e"/>
    <path d="M386.874,748.7H488.38a9.723,9.723,0,0,1,9.723,9.723V781.24a0,0,0,0,1,0,0H417.564a30.69,30.69,0,0,1-30.69-30.69V748.7A0,0,0,0,1,386.874,748.7Z" fill="#629e51"/>
    <rect x="592.882" y="528.209" width="75.104" height="32.82" fill="#d8d8d8"/>
    <rect x="592.882" y="339.078" width="75.104" height="32.82" transform="translate(1260.868 710.977) rotate(-180)" fill="#d8d8d8"/>
    <path d="M597.581,714.914h64.437a17.276,17.276,0,0,1,17.276,17.276v0a0,0,0,0,1,0,0H580.3a0,0,0,0,1,0,0v0A17.276,17.276,0,0,1,597.581,714.914Z" fill="#d8d8d8"/>
    <g>
      <g>
        <rect x="1018.96" y="341.331" width="49.754" height="49.754" fill="none" stroke="#fff" stroke-miterlimit="10" stroke-width="5"/>
        <line x1="1018.96" y1="341.331" x2="1068.713" y2="391.084" fill="none" stroke="#fff" stroke-miterlimit="10" stroke-width="5"/>
        <rect x="1018.96" y="291.577" width="49.754" height="49.754" transform="translate(2087.673 632.908) rotate(180)" fill="none" stroke="#fff" stroke-miterlimit="10" stroke-width="5"/>
        <line x1="1068.713" y1="291.577" x2="1018.96" y2="341.331" fill="none" stroke="#fff" stroke-miterlimit="10" stroke-width="5"/>
      </g>
      <g>
        <rect x="1018.96" y="192.07" width="49.754" height="49.754" fill="none" stroke="#fff" stroke-miterlimit="10" stroke-width="5"/>
        <line x1="1018.96" y1="241.824" x2="1068.713" y2="192.07" fill="none" stroke="#fff" stroke-miterlimit="10" stroke-width="5"/>
        <rect x="1018.96" y="241.824" width="49.754" height="49.754" transform="translate(2087.673 533.401) rotate(-180)" fill="none" stroke="#fff" stroke-miterlimit="10" stroke-width="5"/>
        <line x1="1068.713" y1="291.577" x2="1018.96" y2="241.824" fill="none" stroke="#fff" stroke-miterlimit="10" stroke-width="5"/>
      </g>
    </g>
    <g>
      <g>
        <path d="M784.819,1027.385H865.87a0,0,0,0,1,0,0v81.051a0,0,0,0,1,0,0H830.043a45.225,45.225,0,0,1-45.225-45.225v-35.827A0,0,0,0,1,784.819,1027.385Z" transform="translate(1893.255 242.567) rotate(90)" fill="none" stroke="#d8d8d8" stroke-miterlimit="10" stroke-width="12"/>
        <line x1="865.87" y1="1027.385" x2="784.819" y2="1108.437" fill="none" stroke="#d8d8d8" stroke-miterlimit="10" stroke-width="12"/>
        <rect x="865.87" y="1027.385" width="81.051" height="81.051" transform="translate(-161.515 1974.307) rotate(-90)" fill="none" stroke="#d8d8d8" stroke-miterlimit="10" stroke-width="12"/>
        <line x1="946.922" y1="1108.437" x2="865.87" y2="1027.385" fill="none" stroke="#d8d8d8" stroke-miterlimit="10" stroke-width="12"/>
      </g>
      <g>
        <path d="M1073.2,1027.385h35.827a0,0,0,0,1,0,0v81.051a0,0,0,0,1,0,0h-81.051a0,0,0,0,1,0,0V1072.61A45.225,45.225,0,0,1,1073.2,1027.385Z" transform="translate(2136.41 -0.588) rotate(90)" fill="none" stroke="#d8d8d8" stroke-miterlimit="10" stroke-width="12"/>
        <line x1="1027.973" y1="1027.385" x2="1109.025" y2="1108.437" fill="none" stroke="#d8d8d8" stroke-miterlimit="10" stroke-width="12"/>
        <rect x="946.922" y="1027.385" width="81.051" height="81.051" transform="translate(-80.464 2055.358) rotate(-90)" fill="none" stroke="#d8d8d8" stroke-miterlimit="10" stroke-width="12"/>
        <line x1="946.922" y1="1108.437" x2="1027.973" y2="1027.385" fill="none" stroke="#d8d8d8" stroke-miterlimit="10" stroke-width="12"/>
      </g>
    </g>
    <circle cx="412.077" cy="1091.336" r="15.528" fill="#fff" stroke="#000" stroke-miterlimit="10" stroke-width="8"/>
    <line x1="725.002" y1="788.24" x2="725.002" y2="440.427" fill="none" stroke="#f7931e" stroke-miterlimit="10" stroke-width="16"/>
    <g>
      <line x1="942.983" y1="572.353" x2="974.751" y2="775.342" fill="none" stroke="#f7931e" stroke-miterlimit="10" stroke-width="16"/>
      <line x1="942.983" y1="572.353" x2="911.215" y2="775.342" fill="none" stroke="#f7931e" stroke-miterlimit="10" stroke-width="16"/>
    </g>
    <path d="M820.092,769.987h245.782a0,0,0,0,1,0,0v0a41.175,41.175,0,0,1-41.175,41.175H861.268a41.175,41.175,0,0,1-41.175-41.175v0A0,0,0,0,1,820.092,769.987Z" transform="translate(1885.966 1581.15) rotate(180)" fill="#d8d8d8"/>
    <g>
      <g>
        <path d="M117.789,150.319c0,32.138,13.691,58.191,13.691,58.191s13.691-26.053,13.691-58.191S131.48,92.128,131.48,92.128,117.789,118.181,117.789,150.319Z" fill="#ed8ee2"/>
        <path d="M87.931,249.462c27.832-16.069,43.549-40.952,43.549-40.952s-29.408,1.169-57.24,17.238S30.691,266.7,30.691,266.7,60.1,265.531,87.931,249.462Z" fill="#ed8ee2"/>
        <path d="M188.72,225.748c-27.832-16.069-57.24-17.238-57.24-17.238s15.717,24.883,43.549,40.952,57.24,17.238,57.24,17.238S216.552,241.817,188.72,225.748Z" fill="#ed8ee2"/>
      </g>
      <circle cx="131.48" cy="208.689" r="12.903" fill="#fff" stroke="#000" stroke-miterlimit="10" stroke-width="8"/>
    </g>
    <circle cx="722.979" cy="440.427" r="15.528" fill="#fff" stroke="#000" stroke-miterlimit="10" stroke-width="8"/>
    <line x1="131.48" y1="319.796" x2="394.378" y2="319.796" fill="none" stroke="#000" stroke-miterlimit="10" stroke-width="16"/>
    <g>
      <g>
        <path d="M380.688,261.426c0,32.138,13.69,58.19,13.69,58.19s13.691-26.052,13.691-58.19-13.691-58.191-13.691-58.191S380.688,229.288,380.688,261.426Z" fill="#629e51"/>
        <path d="M350.829,360.568c27.833-16.068,43.549-40.952,43.549-40.952s-29.407,1.17-57.24,17.239-43.549,40.952-43.549,40.952S323,376.637,350.829,360.568Z" fill="#629e51"/>
        <path d="M451.619,336.855c-27.833-16.069-57.241-17.239-57.241-17.239s15.717,24.884,43.55,40.952,57.24,17.239,57.24,17.239S479.451,352.924,451.619,336.855Z" fill="#629e51"/>
      </g>
      <circle cx="394.378" cy="319.796" r="12.903" fill="#fff" stroke="#000" stroke-miterlimit="10" stroke-width="8"/>
    </g>
    <line x1="274.342" y1="134.649" x2="277.487" y2="319.796" fill="none" stroke="#000" stroke-miterlimit="10" stroke-width="16"/>
    <g>
      <g>
        <path d="M263.134,84.859c0,26.309,11.208,47.636,11.208,47.636s11.208-21.327,11.208-47.636-11.208-47.637-11.208-47.637S263.134,58.55,263.134,84.859Z" fill="#3d6833"/>
        <path d="M238.691,166.019c22.785-13.154,35.651-33.524,35.651-33.524s-24.074.958-46.858,14.112-35.651,33.524-35.651,33.524S215.907,179.174,238.691,166.019Z" fill="#3d6833"/>
        <path d="M321.2,146.607c-22.784-13.154-46.858-14.112-46.858-14.112s12.866,20.37,35.65,33.524,46.858,14.112,46.858,14.112S343.984,159.761,321.2,146.607Z" fill="#3d6833"/>
      </g>
      <circle cx="274.342" cy="134.649" r="12.903" fill="#fff" stroke="#000" stroke-miterlimit="10" stroke-width="8"/>
    </g>
    <g>
      <g>
        <circle cx="494.284" cy="28.078" r="7.868" fill="#fff"/>
        <circle cx="494.284" cy="65.56" r="7.868" fill="#fff"/>
        <circle cx="494.284" cy="103.041" r="7.868" fill="#fff"/>
        <circle cx="494.284" cy="140.522" r="7.868" fill="#fff"/>
        <circle cx="494.284" cy="178.003" r="7.868" fill="#fff"/>
      </g>
      <g>
        <circle cx="531.721" cy="28.078" r="7.868" fill="#fff"/>
        <circle cx="531.721" cy="65.56" r="7.868" fill="#fff"/>
        <circle cx="531.721" cy="103.041" r="7.868" fill="#fff"/>
        <circle cx="531.721" cy="140.522" r="7.868" fill="#fff"/>
        <circle cx="531.721" cy="178.003" r="7.868" fill="#fff"/>
      </g>
    </g>
    <g>
      <path d="M1034.634,491.657c16.761,0,30.348,36.128,30.348,80.694s-13.587,80.694-30.348,80.694Z" stroke="#3d6833" stroke-miterlimit="10"/>
      <path d="M934.728,472.445h0a10.966,10.966,0,0,1,10.966,10.966V672.258a0,0,0,0,1,0,0H923.762a0,0,0,0,1,0,0V483.411A10.966,10.966,0,0,1,934.728,472.445Z" transform="translate(362.377 1507.08) rotate(-90)" fill="#f7931e"/>
      <circle cx="942.983" cy="572.353" r="12.192" fill="#fff" stroke="#000" stroke-miterlimit="10" stroke-width="8"/>
    </g>
    <path d="M866.687,204.711h36.271a0,0,0,0,1,0,0v72.247a0,0,0,0,1,0,0h0a36.271,36.271,0,0,1-36.271-36.271V204.711A0,0,0,0,1,866.687,204.711Z" transform="translate(643.988 1125.657) rotate(-90)" fill="#f7931e"/>
    <g>
      <path d="M774.635,211.162h91.1a0,0,0,0,1,0,0v44.231a45.548,45.548,0,0,1-45.548,45.548h0a45.548,45.548,0,0,1-45.548-45.548V211.162a0,0,0,0,1,0,0Z" transform="translate(1640.367 512.103) rotate(180)" fill="#3d6833"/>
      <rect x="820.184" y="300.941" width="45.548" height="79.618" transform="translate(1685.916 681.5) rotate(-180)" fill="#3d6833"/>
      <polygon points="889.729 405.951 820.184 405.951 820.184 380.559 865.329 380.559 889.729 405.951"/>
      <polygon points="750.638 405.951 820.184 405.951 820.184 380.559 775.038 380.559 750.638 405.951"/>
      <rect x="774.635" y="300.941" width="45.548" height="79.618" transform="translate(1594.819 681.5) rotate(-180)" fill="#3d6833"/>
      <path d="M810.906,265.973h0a0,0,0,0,1,0,0v72.247a0,0,0,0,1,0,0H774.635a0,0,0,0,1,0,0V302.244A36.271,36.271,0,0,1,810.906,265.973Z" transform="translate(1585.542 604.192) rotate(-180)" fill="#f7931e"/>
      <line x1="820.586" y1="208.094" x2="820.586" y2="380.559" fill="none" stroke="#fff" stroke-miterlimit="10" stroke-width="4"/>
    </g>
    <g>
      <circle cx="820.586" cy="187.542" r="16.698" fill="#f7931e"/>
      <path d="M802.878,170.844h47.674a0,0,0,0,1,0,0v9.884a0,0,0,0,1,0,0H802.878a4.942,4.942,0,0,1-4.942-4.942v0A4.942,4.942,0,0,1,802.878,170.844Z" transform="translate(1648.489 351.572) rotate(-180)" fill="#3d6833"/>
      <path d="M800.424,153.824H838.6a0,0,0,0,1,0,0v7.436a14.765,14.765,0,0,1-14.765,14.765h-8.646a14.765,14.765,0,0,1-14.765-14.765v-7.436A0,0,0,0,1,800.424,153.824Z" transform="translate(1639.024 329.85) rotate(-180)" fill="#3d6833"/>
    </g>
    <g>
      <circle cx="386.373" cy="457.453" r="16.738" fill="#3d6833"/>
      <path d="M361.29,440.715h47.788a0,0,0,0,1,0,0v9.907a0,0,0,0,1,0,0H361.29a4.954,4.954,0,0,1-4.954-4.954v0A4.954,4.954,0,0,1,361.29,440.715Z" fill="#f7931e"/>
      <path d="M383.117,423.655h8.666a14.8,14.8,0,0,1,14.8,14.8v7.454a0,0,0,0,1,0,0H368.316a0,0,0,0,1,0,0v-7.454A14.8,14.8,0,0,1,383.117,423.655Z" fill="#f7931e"/>
    </g>
    <g>
      <path d="M620.185,860.348H643.81a18.8,18.8,0,0,1,18.8,18.8v5.311a0,0,0,0,1,0,0H620.185a0,0,0,0,1,0,0V860.348A0,0,0,0,1,620.185,860.348Z" fill="#f7931e"/>
      <path d="M628.055,877.623H654.27a8.343,8.343,0,0,1,8.343,8.343v30.253a13.451,13.451,0,0,1-13.451,13.451h-16a13.451,13.451,0,0,1-13.451-13.451V885.966A8.343,8.343,0,0,1,628.055,877.623Z" fill="#d8d8d8"/>
      <path d="M619.712,903.647h42.9a0,0,0,0,1,0,0v13.227a20.052,20.052,0,0,1-20.052,20.052h-2.8a20.052,20.052,0,0,1-20.052-20.052V903.647A0,0,0,0,1,619.712,903.647Z" fill="#f7931e"/>
      <rect x="629.799" y="908.22" width="22.727" height="6.334" fill="#d8d8d8"/>
    </g>
  </g>
</svg>
