<svg xmlns="http://www.w3.org/2000/svg" width="544.619" height="863.615" viewBox="0 0 544.619 863.615"><g transform="translate(-1466.544 190)"><g transform="translate(1848.518 657.103)"><rect width="162.645" height="10.609"/></g><g transform="translate(1580.129 657.103)"><rect width="129.629" height="10.609" fill="#f7931e"/></g><g transform="translate(1707.502 657.103)"><rect width="129.629" height="10.609" fill="#3d6833"/></g><g transform="translate(1625.492 -97.131)"><circle cx="84.725" cy="84.725" r="84.725" fill="#fff" opacity="0.15"/><circle cx="62.127" cy="62.127" r="62.127" transform="translate(22.597 22.597)" fill="#fff" opacity="0.3"/><circle cx="29.082" cy="29.082" r="29.082" transform="translate(55.643 55.643)" fill="#fff"/></g><g transform="translate(1853.498 385.741)"><path d="M0,0H0A43.584,43.584,0,0,1,43.584,43.584v0a0,0,0,0,1,0,0h0A43.584,43.584,0,0,1,0,0V0A0,0,0,0,1,0,0Z" transform="translate(0 18.053)" fill="#8ace74"/><path d="M43.584,0h0a0,0,0,0,1,0,0V0A43.584,43.584,0,0,1,0,43.584H0a0,0,0,0,1,0,0v0A43.584,43.584,0,0,1,43.584,0Z" transform="translate(87.168 61.637) rotate(180)" fill="#3d6833"/><path d="M43.584,0h0a0,0,0,0,1,0,0V0A43.584,43.584,0,0,1,0,43.584H0a0,0,0,0,1,0,0v0A43.584,43.584,0,0,1,43.584,0Z" transform="translate(74.402 30.818) rotate(135)" fill="#629e51"/></g><g transform="translate(1512.967 230.154)"><g transform="translate(0 77.455)"><g transform="translate(0 38.728)"><path d="M1578.6,660.933h-42.042V618.89H1578.6Zm-38.727-3.315h35.412V622.205h-35.412Z" transform="translate(-1536.558 -618.89)" fill="#fff"/></g><g transform="translate(0.485 39.214)"><rect width="3.315" height="54.769" transform="matrix(0.707, -0.707, 0.707, 0.707, 0, 2.344)" fill="#fff"/></g><path d="M1578.6,602.525h-42.042V560.481H1578.6Zm-38.727-3.315h35.412V563.8h-35.412Z" transform="translate(-1536.558 -560.481)" fill="#fff"/><g transform="translate(0.485 0.486)"><rect width="54.769" height="3.315" transform="translate(0 38.727) rotate(-45)" fill="#fff"/></g></g><path d="M1578.6,485.709h-42.042V443.666H1578.6Zm-38.727-3.315h35.412V446.981h-35.412Z" transform="translate(-1536.558 -443.666)" fill="#fff"/><g transform="translate(0.485 0.486)"><rect width="54.769" height="3.315" transform="translate(0 38.727) rotate(-45)" fill="#fff"/></g><g transform="translate(0 38.728)"><path d="M1578.6,544.116h-42.042V502.074H1578.6Zm-38.727-3.315h35.412V505.389h-35.412Z" transform="translate(-1536.558 -502.074)" fill="#fff"/></g><g transform="translate(0.485 39.213)"><rect width="3.315" height="54.768" transform="translate(0 2.344) rotate(-45)" fill="#fff"/></g></g><g transform="translate(1466.544 117.935)"><path d="M1553.642,313a92.022,92.022,0,0,0,9.078,38.583,86.534,86.534,0,0,0,0-77.167A92.023,92.023,0,0,0,1553.642,313Z" transform="translate(-1495.891 -274.42)" fill="#f7931e"/><path d="M1504.5,417.954a92.023,92.023,0,0,0,28.875-27.153,86.536,86.536,0,0,0-66.828,38.584A92.023,92.023,0,0,0,1504.5,417.954Z" transform="translate(-1466.544 -313.634)" fill="#f7931e"/><path d="M1605.286,402.231a92.024,92.024,0,0,0-37.953-11.43,86.535,86.535,0,0,0,66.828,38.584A92.014,92.014,0,0,0,1605.286,402.231Z" transform="translate(-1500.505 -313.634)" fill="#f7931e"/><circle cx="8.556" cy="8.556" r="8.556" transform="translate(58.273 68.731)" fill="#fff" stroke="#000" stroke-miterlimit="10" stroke-width="8"/></g><g transform="translate(1515.17 -82.551)"><path d="M1735.819,686.875h0v55.909h0V686.875Z" transform="translate(-1605.902 -212.909)" fill="none"/><rect height="29.611" transform="translate(64.959 624.601)" fill="none"/><rect height="56.233" transform="translate(194.876 597.98)" fill="none"/><path d="M1833.788,498.375h0v56.233h0V498.375Z" transform="translate(-1638.912 -149.395)" fill="none"/><path d="M2100.507,433.111a5.217,5.217,0,1,0-5.217-5.217A5.218,5.218,0,0,0,2100.507,433.111Z" transform="translate(-1727.024 -123.889)" fill="#fff"/><path d="M2100.507,368.568a5.217,5.217,0,1,0-5.217-5.218A5.218,5.218,0,0,0,2100.507,368.568Z" transform="translate(-1727.024 -102.141)" fill="#fff"/><path d="M2100.507,304.026a5.217,5.217,0,1,0-5.217-5.217A5.218,5.218,0,0,0,2100.507,304.026Z" transform="translate(-1727.024 -80.394)" fill="#fff"/><path d="M2100.507,239.483a5.217,5.217,0,1,0-5.217-5.218A5.218,5.218,0,0,0,2100.507,239.483Z" transform="translate(-1727.024 -58.646)" fill="#fff"/><path d="M2100.507,174.941a5.217,5.217,0,1,0-5.217-5.217A5.218,5.218,0,0,0,2100.507,174.941Z" transform="translate(-1727.024 -36.899)" fill="#fff"/><path d="M2100.507,110.4a5.217,5.217,0,1,0-5.217-5.217A5.218,5.218,0,0,0,2100.507,110.4Z" transform="translate(-1727.024 -15.152)" fill="#fff"/><path d="M2100.507,45.856a5.217,5.217,0,1,0-5.217-5.217A5.218,5.218,0,0,0,2100.507,45.856Z" transform="translate(-1727.024 6.596)" fill="#fff"/><path d="M2146.085,359.307a5.217,5.217,0,1,0,5.217,5.218A5.218,5.218,0,0,0,2146.085,359.307Z" transform="translate(-1742.382 -102.536)" fill="#fff"/><path d="M2146.085,294.765a5.217,5.217,0,1,0,5.217,5.217A5.217,5.217,0,0,0,2146.085,294.765Z" transform="translate(-1742.382 -80.789)" fill="#fff"/><path d="M2146.085,230.222a5.217,5.217,0,1,0,5.217,5.218A5.218,5.218,0,0,0,2146.085,230.222Z" transform="translate(-1742.382 -59.042)" fill="#fff"/><path d="M2146.085,165.68a5.217,5.217,0,1,0,5.217,5.217A5.217,5.217,0,0,0,2146.085,165.68Z" transform="translate(-1742.382 -37.294)" fill="#fff"/><path d="M2146.085,101.137a5.217,5.217,0,1,0,5.217,5.218A5.218,5.218,0,0,0,2146.085,101.137Z" transform="translate(-1742.382 -15.547)" fill="#fff"/><path d="M2146.085,36.6a5.217,5.217,0,1,0,5.217,5.217A5.217,5.217,0,0,0,2146.085,36.6Z" transform="translate(-1742.382 6.2)" fill="#fff"/><path d="M2146.085-17.514a5.217,5.217,0,0,0,5.217-5.217,5.217,5.217,0,0,0-5.217-5.218,5.218,5.218,0,0,0-5.217,5.218A5.217,5.217,0,0,0,2146.085-17.514Z" transform="translate(-1742.382 27.948)" fill="#fff"/><path d="M2047,497.789a5.217,5.217,0,1,0-5.217-5.218A5.217,5.217,0,0,0,2047,497.789Z" transform="translate(-1708.996 -145.682)" fill="#fff"/><path d="M2047,433.247a5.217,5.217,0,1,0-5.217-5.217A5.217,5.217,0,0,0,2047,433.247Z" transform="translate(-1708.996 -123.935)" fill="#fff"/><path d="M2047,368.7a5.217,5.217,0,1,0-5.217-5.218A5.217,5.217,0,0,0,2047,368.7Z" transform="translate(-1708.996 -102.187)" fill="#fff"/><path d="M2047,304.162a5.217,5.217,0,1,0-5.217-5.217A5.217,5.217,0,0,0,2047,304.162Z" transform="translate(-1708.996 -80.44)" fill="#fff"/><path d="M2047,239.619a5.217,5.217,0,1,0-5.217-5.218A5.217,5.217,0,0,0,2047,239.619Z" transform="translate(-1708.996 -58.692)" fill="#fff"/><path d="M2047,175.077a5.217,5.217,0,1,0-5.217-5.217A5.217,5.217,0,0,0,2047,175.077Z" transform="translate(-1708.996 -36.945)" fill="#fff"/><path d="M2047,110.534a5.217,5.217,0,1,0-5.217-5.217A5.217,5.217,0,0,0,2047,110.534Z" transform="translate(-1708.996 -15.197)" fill="#fff"/><path d="M1848,747.087v-8.1h-23.532a7.146,7.146,0,0,0-7.146,7.146V756.7a10.919,10.919,0,0,1,21.838-.039A9.613,9.613,0,0,0,1848,747.087Z" transform="translate(-1633.362 -230.468)" fill="#3d6833"/><path d="M1828.238,749.239a10.92,10.92,0,1,0,10.92,10.92c0-.013,0-.026,0-.039A10.919,10.919,0,0,0,1828.238,749.239Z" transform="translate(-1633.362 -233.923)" fill="#ed8ee2"/><path d="M1819.782,793.61h-38l.422.324h-46.371a19.454,19.454,0,0,0,19.448,19.133h19.864a26.605,26.605,0,0,0-.983,7.164v26.622H1827.4V820.232a26.605,26.605,0,0,0-.984-7.164h19.864a19.453,19.453,0,0,0,19.449-19.133H1819.36Z" transform="translate(-1605.906 -248.873)" fill="#fff"/><rect width="26.622" height="56.233" transform="translate(168.254 597.98)"/><rect width="26.622" height="56.233" transform="translate(194.876 597.98)"/><path d="M1810.219,958.719H1783.6L1763.839,973.9H1856.6l-19.758-15.186Z" transform="translate(-1615.343 -304.506)" fill="#3d6833"/><path d="M1895.794,437.532a19.456,19.456,0,0,0,19.457-19.457h-32.479v19.457Z" transform="translate(-1655.417 -122.338)" fill="#3d6833"/><path d="M1735.819,418.075a19.456,19.456,0,0,0,19.457,19.457H1768.3V418.075Z" transform="translate(-1605.902 -122.338)" fill="#3d6833"/><path d="M1797.356,364.215a13.236,13.236,0,0,0,13.236,13.236c.393,0,.779-.025,1.163-.059a10.92,10.92,0,1,1,19.693-.373,13.23,13.23,0,1,0,3.3-26.04,13.236,13.236,0,1,0-26.471,0c0,.072.009.142.011.214A13.23,13.23,0,0,0,1797.356,364.215Z" transform="translate(-1626.636 -95.27)" fill="#629e51"/><path d="M1828.238,373.7a10.9,10.9,0,1,0,10.92,10.92A10.92,10.92,0,0,0,1828.238,373.7Z" transform="translate(-1633.362 -107.387)" fill="#3d6833"/><path d="M1817.283,471.318H1843.9V444.7a26.614,26.614,0,0,0-.984-7.165h6.841V418.075H1784.8v19.457h6.841a26.613,26.613,0,0,0-.983,7.165v26.622Zm-1.671-18.732c-.557,0-6.312,1.3-6.312,1.3a11.508,11.508,0,0,1,.557-2.042c.186-.928,0-.928-.371-1.3-.186-.185-6.312-5.569-6.312-5.569l1.113-.371c.743-.371.557-.743.372-1.114-.186-.557-1.3-4.084-1.3-4.084s2.971.557,3.527.743c.371.186.557,0,.743-.371s.928-2.042.928-2.042,3.156,3.527,3.342,3.712c.743.557,1.3,0,1.114-.557,0-.556-1.671-7.8-1.671-7.8s1.857.928,2.413,1.3c.557.186.743.186,1.113-.371.372-.371,2.6-4.827,2.6-4.827a40.206,40.206,0,0,1,2.228,4.827c.371.743.743.743,1.114.371a24.293,24.293,0,0,0,2.413-1.3s-1.671,7.241-1.671,7.8c-.186.557.557.928,1.114.557.186,0,3.342-3.712,3.342-3.712s.742,1.67.928,2.042c.185.186.371.558.743.371.557-.186,3.527-.743,3.527-.743s-1.114,3.713-1.3,4.084c0,.371-.186.743.371,1.114l1.114.371s-6.126,5.384-6.312,5.569c-.371.186-.743.371-.371,1.3.186.743.557,2.042.557,2.042s-5.755-1.114-6.312-1.3c-.557,0-1.114.186-1.114.743,0,.743.372,6.869.372,6.869h-1.857s.371-6.312.371-6.869S1816.168,452.586,1815.612,452.586Z" transform="translate(-1622.407 -122.338)" fill="#ed8ee2"/><rect width="26.622" height="38.161" transform="translate(168.254 367.052)" fill="#3d6833"/><rect width="26.622" height="38.161" transform="translate(194.876 367.052)" fill="#3d6833"/><rect width="26.622" height="18.071" transform="translate(168.254 348.98)" fill="#f7931e"/><rect width="26.622" height="18.071" transform="translate(194.876 348.98)" fill="#f7931e"/><path d="M1836.84,583.184H1783.6l-19.758,15.186H1856.6Z" transform="translate(-1615.343 -177.971)" fill="#ed8ee2"/><path d="M1618.516,746.787a10.782,10.782,0,0,1,.021-7.786H1638.9a10.784,10.784,0,0,1,.021,7.786,17.966,17.966,0,0,0-3.309-31.378,10.04,10.04,0,1,0-13.789,0,17.966,17.966,0,0,0-3.309,31.378Z" transform="translate(-1563.761 -216.686)" fill="#ed8ee2"/><path d="M1656.85,793.61h-19a26.627,26.627,0,0,1,25.638,19.457h19.863a19.453,19.453,0,0,0,19.449-19.133h-46.371Z" transform="translate(-1572.891 -248.873)"/><path d="M1604.84,793.61h-64.959a19.457,19.457,0,0,0,19.457,19.457H1579.2A26.627,26.627,0,0,1,1604.84,793.61Z" transform="translate(-1539.881 -248.873)"/><path d="M1642.483,759.794h-20.365a10.921,10.921,0,1,0,20.365,0Z" transform="translate(-1567.342 -237.479)"/><path d="M1624.322,793.61h0a26.627,26.627,0,0,0-26.622,26.622v26.622h53.243V820.232a26.627,26.627,0,0,0-26.622-26.622Z" transform="translate(-1559.363 -248.873)" fill="#ed8ee2"/><rect width="26.622" height="29.611" transform="translate(38.337 624.601)"/><rect width="26.622" height="29.611" transform="translate(64.959 624.601)"/><path d="M1614.281,958.719H1587.66L1567.9,973.9h92.758L1640.9,958.719Z" transform="translate(-1549.323 -304.506)" fill="#f7931e"/><path d="M1617.674,873.91h-26.621l-13.082,26.622h79.407L1644.3,873.91h-26.622Z" transform="translate(-1552.715 -275.93)" fill="#3d6833"/><path d="M2013.255,760.159a10.92,10.92,0,1,0,10.92-10.92A10.92,10.92,0,0,0,2013.255,760.159Z" transform="translate(-1699.383 -233.923)" fill="#3d6833"/><path d="M2003.1,793.613c-.041,0-.082,0-.123,0h-19l.422.324H1954.98V812.9a19.266,19.266,0,0,1-4.635-1.19,19.39,19.39,0,0,0,7.132,1.355h19.863a26.625,26.625,0,0,0-.983,7.164v26.622H2029.6V820.232a26.634,26.634,0,0,0-.983-7.164h19.86a18.265,18.265,0,0,0,2.5-.166V793.613Z" transform="translate(-1678.186 -248.873)"/><path d="M1943.3,816.909q-.595-.433-1.156-.907Q1942.7,816.476,1943.3,816.909Z" transform="translate(-1675.422 -256.418)"/><path d="M1946.641,819.052a19.353,19.353,0,0,1-2.559-1.544A19.393,19.393,0,0,0,1946.641,819.052Z" transform="translate(-1676.075 -256.926)"/><path d="M1933.242,802.83a19.48,19.48,0,0,0,5.829,8.67q-.575-.493-1.113-1.028A19.433,19.433,0,0,1,1933.242,802.83Z" transform="translate(-1672.423 -251.98)"/><path d="M1949.464,820.528q-.692-.277-1.358-.607Q1948.77,820.25,1949.464,820.528Z" transform="translate(-1677.431 -257.739)"/><path d="M1989.575,873.91v56.233h53.243V873.91h-53.243Z" transform="translate(-1691.404 -275.93)" fill="#ed8ee2"/><path d="M2102.114,812.9a19.461,19.461,0,0,0,16.961-19.288h-16.961Z" transform="translate(-1729.324 -248.875)" fill="#3d6833"/><path d="M1948.72,794.1h-16.952a19.387,19.387,0,0,0,5.694,13.431q.536.536,1.113,1.028l.074.064q.56.474,1.156.907l.129.091a19.353,19.353,0,0,0,2.559,1.544l.109.056q.664.329,1.358.607l.127.05a19.27,19.27,0,0,0,4.635,1.189Z" transform="translate(-1671.926 -249.038)" fill="#3d6833"/><path d="M2006.156,958.719h-26.622L1959.776,973.9h92.758l-19.758-15.186h-26.621Z" transform="translate(-1681.363 -304.506)"/><path d="M1924.992,588.1h39.168v-9.885a25.505,25.505,0,0,0-25.5-25.505H1926.5a14.816,14.816,0,0,0-14.816,14.816V588.1Zm-10.92-18.5a10.861,10.861,0,0,1,1.758-5.93,8.653,8.653,0,0,0,8.21,5.93h11.873a10.92,10.92,0,1,1-21.841,0Z" transform="translate(-1665.158 -167.704)"/><path d="M1971.406,642.6v26.622h0v.119h12.547V635.431h-13.53A26.634,26.634,0,0,1,1971.406,642.6Z" transform="translate(-1684.951 -195.576)"/><path d="M1957.394,625.544h19.863a19.457,19.457,0,0,0,19.457-19.457h-64.959A26.627,26.627,0,0,1,1957.394,625.544Z" transform="translate(-1671.922 -185.688)" fill="#3d6833"/><path d="M1898.746,606.087h-64.958a19.456,19.456,0,0,0,19.457,19.457h19.863A26.627,26.627,0,0,1,1898.746,606.087Z" transform="translate(-1638.912 -185.688)" fill="#3d6833"/><path d="M1937.127,575.172h-11.873a8.653,8.653,0,0,1-8.21-5.93,10.918,10.918,0,1,0,20.083,5.93Z" transform="translate(-1666.372 -173.273)" fill="#3d6833"/><path d="M1918.228,754.667h26.621V722.143h-53.243v32.524Z" transform="translate(-1658.394 -224.793)" fill="#3d6833"/><path d="M1944.849,683.038V659.33h0V632.709a26.626,26.626,0,0,0-26.622-26.622h0a26.626,26.626,0,0,0-26.622,26.622v50.33Z" transform="translate(-1658.394 -185.688)" fill="#f7931e"/><path d="M1925.148,786.381h29.419l-.422-.324L1934.809,771.2h-53.243l-19.336,14.862-.422.324h63.34Z" transform="translate(-1648.353 -241.321)" fill="#f7931e"/><path d="M1726.739,556.833a10.913,10.913,0,0,1,10.9,10.568h6.965V546.265h-35.736V567.4h6.966A10.912,10.912,0,0,1,1726.739,556.833Z" transform="translate(-1596.822 -165.531)" fill="#3d6833"/><path d="M1730.27,562.2a10.912,10.912,0,0,0-10.9,10.568c0,.118-.018.233-.018.352a10.921,10.921,0,0,0,21.841,0c0-.119-.014-.234-.018-.352A10.913,10.913,0,0,0,1730.27,562.2Z" transform="translate(-1600.352 -170.902)" fill="#f7931e"/><path d="M1761.457,626.032h19.864a19.457,19.457,0,0,0,19.457-19.457h-64.959A26.627,26.627,0,0,1,1761.457,626.032Z" transform="translate(-1605.902 -185.853)" fill="#f7931e"/><path d="M1702.809,606.575H1637.85a19.457,19.457,0,0,0,19.457,19.457h19.864A26.628,26.628,0,0,1,1702.809,606.575Z" transform="translate(-1572.891 -185.853)" fill="#f7931e"/><rect width="26.622" height="38.113" transform="translate(103.296 491.762)" fill="#f7931e"/><path d="M1735.819,751.827h26.621V713.714h-26.621Z" transform="translate(-1605.902 -221.953)" fill="#f7931e"/><rect width="26.622" height="17.796" transform="translate(103.296 473.966)" fill="#629e51"/><path d="M1735.819,704.671h26.621v-17.8h-26.621Z" transform="translate(-1605.902 -212.909)" fill="#629e51"/><path d="M1722.291,659.818h26.622V633.2a26.629,26.629,0,0,0-26.622-26.622h0a26.626,26.626,0,0,0-26.622,26.622v26.622Z" transform="translate(-1592.373 -185.853)"/><path d="M1758.208,786.058,1738.871,771.2h-53.243l-19.336,14.862-.421.324h92.758Z" transform="translate(-1582.333 -241.321)" fill="#629e51"/><path d="M1807.2,232.29a5.458,5.458,0,0,0,1.575,1.854,3.565,3.565,0,0,0,4.127,0,5.2,5.2,0,0,0,1.575-1.854,11.041,11.041,0,0,0,1-2.83,18.425,18.425,0,0,0,0-7.237,10.7,10.7,0,0,0-1-2.831,5.249,5.249,0,0,0-1.575-1.834,3.562,3.562,0,0,0-4.127,0,5.514,5.514,0,0,0-1.575,1.834,10.228,10.228,0,0,0-1.016,2.831,18.431,18.431,0,0,0,0,7.237A10.538,10.538,0,0,0,1807.2,232.29Z" transform="translate(-1629.491 -54.553)" fill="#3d6833"/><path d="M1888.858,232.29a5.456,5.456,0,0,0,1.575,1.854,3.566,3.566,0,0,0,4.127,0,5.2,5.2,0,0,0,1.575-1.854,11.073,11.073,0,0,0,1-2.83,18.431,18.431,0,0,0,0-7.237,10.735,10.735,0,0,0-1-2.831,5.252,5.252,0,0,0-1.575-1.834,3.563,3.563,0,0,0-4.127,0,5.512,5.512,0,0,0-1.575,1.834,10.225,10.225,0,0,0-1.016,2.831,18.419,18.419,0,0,0,0,7.237A10.534,10.534,0,0,0,1888.858,232.29Z" transform="translate(-1657.004 -54.553)" fill="#3d6833"/><path d="M1773.271,226.135a16.076,16.076,0,0,0,3.368-4.286,9.987,9.987,0,0,0,1.057-4.565,10.432,10.432,0,0,0-.878-4.285,10.253,10.253,0,0,0-2.432-3.409,11.115,11.115,0,0,0-3.688-2.232,13.176,13.176,0,0,0-4.645-.8,12.714,12.714,0,0,0-4.685.837,10.641,10.641,0,0,0-3.687,2.392,10.856,10.856,0,0,0-2.413,3.707,12.834,12.834,0,0,0-.857,4.785h8.531a9.8,9.8,0,0,1-.119-1.276,3.818,3.818,0,0,1,.9-2.591,3.121,3.121,0,0,1,2.492-1.036,3.186,3.186,0,0,1,2.512,1.1,3.355,3.355,0,0,1,.658,1.136,4.03,4.03,0,0,1,.219,1.315,7.531,7.531,0,0,1-.2,1.555,9.5,9.5,0,0,1-1.016,2.392,28.792,28.792,0,0,1-2.492,3.608q-1.675,2.132-4.625,5.2l-7.455,7.735h24.2V230.8h-9.728Z" transform="translate(-1611.965 -51.069)" fill="#f7931e"/><path d="M1806.919,238.214a11.67,11.67,0,0,0,5.143-1.136,11.528,11.528,0,0,0,4.026-3.229,15.51,15.51,0,0,0,2.611-5.023,23.15,23.15,0,0,0,0-13.038,15.278,15.278,0,0,0-2.611-5,11.992,11.992,0,0,0-14.333-3.21,11.886,11.886,0,0,0-4.027,3.21,15.041,15.041,0,0,0-2.631,5,23.144,23.144,0,0,0,0,13.038,15.268,15.268,0,0,0,2.631,5.023,11.769,11.769,0,0,0,4.027,3.229A11.623,11.623,0,0,0,1806.919,238.214Zm-4.665-19.516a10.232,10.232,0,0,1,1.016-2.831,5.515,5.515,0,0,1,1.575-1.834,3.563,3.563,0,0,1,4.127,0,5.247,5.247,0,0,1,1.575,1.834,10.7,10.7,0,0,1,1,2.831,18.419,18.419,0,0,1,0,7.237,11.036,11.036,0,0,1-1,2.83,5.2,5.2,0,0,1-1.575,1.854,3.566,3.566,0,0,1-4.127,0,5.459,5.459,0,0,1-1.575-1.854,10.543,10.543,0,0,1-1.016-2.83,18.431,18.431,0,0,1,0-7.237Z" transform="translate(-1625.56 -51.028)" fill="#f7931e"/><path d="M1847.851,231.576a4.328,4.328,0,0,1-3.11-1.1,4.458,4.458,0,0,1-1.236-3.209h-7.735a13.759,13.759,0,0,0,.259,2.671,8.589,8.589,0,0,0,1.016,2.632,10.236,10.236,0,0,0,4.465,4.306,14.139,14.139,0,0,0,6.26,1.355,15.109,15.109,0,0,0,4.764-.717,11.311,11.311,0,0,0,3.748-2.033,9.152,9.152,0,0,0,3.328-7.217,7.774,7.774,0,0,0-1.3-4.565,6.67,6.67,0,0,0-3.608-2.572,7.338,7.338,0,0,0,2.332-2.372,6.835,6.835,0,0,0,.818-3.528,9.025,9.025,0,0,0-.7-3.608,7.658,7.658,0,0,0-1.994-2.751,9.108,9.108,0,0,0-3.11-1.754,13.469,13.469,0,0,0-8.193.039,9.555,9.555,0,0,0-3.27,1.914,10.033,10.033,0,0,0-2.292,3.089,12.925,12.925,0,0,0-1.176,4.187h7.217a3.513,3.513,0,0,1,.877-2.473,2.986,2.986,0,0,1,2.312-.957,3.035,3.035,0,0,1,2.213.837,2.93,2.93,0,0,1,.857,2.193,3,3,0,0,1-.917,2.273,3.318,3.318,0,0,1-2.392.877h-.378a4.463,4.463,0,0,1-.539-.04v4.9q.439-.08.8-.14a4.613,4.613,0,0,1,.758-.06,4.079,4.079,0,0,1,2.75,1,3.685,3.685,0,0,1,1.156,2.951,4.079,4.079,0,0,1-.957,2.751A3.781,3.781,0,0,1,1847.851,231.576Z" transform="translate(-1639.58 -51.048)" fill="#f7931e"/><path d="M1879.385,233.849a11.758,11.758,0,0,0,4.027,3.229,11.741,11.741,0,0,0,14.333-3.229,15.521,15.521,0,0,0,2.612-5.023,23.15,23.15,0,0,0,0-13.038,15.288,15.288,0,0,0-2.612-5,11.992,11.992,0,0,0-14.333-3.21,11.875,11.875,0,0,0-4.027,3.21,15.047,15.047,0,0,0-2.632,5,23.144,23.144,0,0,0,0,13.038A15.273,15.273,0,0,0,1879.385,233.849Zm4.525-15.15a10.232,10.232,0,0,1,1.016-2.831,5.516,5.516,0,0,1,1.575-1.834,3.562,3.562,0,0,1,4.127,0,5.247,5.247,0,0,1,1.575,1.834,10.726,10.726,0,0,1,1,2.831,18.431,18.431,0,0,1,0,7.237,11.064,11.064,0,0,1-1,2.83,5.2,5.2,0,0,1-1.575,1.854,3.565,3.565,0,0,1-4.127,0,5.46,5.46,0,0,1-1.575-1.854,10.543,10.543,0,0,1-1.016-2.83,18.431,18.431,0,0,1,0-7.237Z" transform="translate(-1653.073 -51.028)" fill="#f7931e"/><path d="M1798.825,265.884l18.718-18.718h50.083V178.842h-137.6v68.324h50.083Zm28.8-59.395a15.047,15.047,0,0,1,2.632-5,11.874,11.874,0,0,1,4.027-3.21,11.78,11.78,0,0,1,14.333,3.21,15.284,15.284,0,0,1,2.612,5,23.144,23.144,0,0,1,0,13.038,15.516,15.516,0,0,1-2.612,5.023,11.52,11.52,0,0,1-4.026,3.229,11.742,11.742,0,0,1-14.333-3.229,15.274,15.274,0,0,1-2.632-5.023,23.15,23.15,0,0,1,0-13.038Zm-12.579,8.951a4.08,4.08,0,0,0-2.75-1,4.613,4.613,0,0,0-.758.06q-.359.061-.8.14v-4.9a4.463,4.463,0,0,0,.538.04h.379a3.318,3.318,0,0,0,2.392-.877,3,3,0,0,0,.917-2.273,2.93,2.93,0,0,0-.857-2.193,3.035,3.035,0,0,0-2.213-.837,2.987,2.987,0,0,0-2.312.957,3.513,3.513,0,0,0-.877,2.473h-7.217a12.937,12.937,0,0,1,1.176-4.187,10.037,10.037,0,0,1,2.292-3.089,9.557,9.557,0,0,1,3.27-1.914,13.469,13.469,0,0,1,8.193-.039,9.107,9.107,0,0,1,3.111,1.754,7.654,7.654,0,0,1,1.994,2.751,9.025,9.025,0,0,1,.7,3.608,6.838,6.838,0,0,1-.817,3.528,7.342,7.342,0,0,1-2.332,2.372,6.669,6.669,0,0,1,3.608,2.572,7.772,7.772,0,0,1,1.3,4.565,9.154,9.154,0,0,1-3.329,7.217,11.311,11.311,0,0,1-3.748,2.033,15.108,15.108,0,0,1-4.764.717,14.141,14.141,0,0,1-6.26-1.355,10.235,10.235,0,0,1-4.465-4.306,8.584,8.584,0,0,1-1.017-2.632,13.759,13.759,0,0,1-.259-2.671h7.735a4.459,4.459,0,0,0,1.236,3.209,4.329,4.329,0,0,0,3.11,1.1,3.781,3.781,0,0,0,3.03-1.116,4.078,4.078,0,0,0,.957-2.751A3.685,3.685,0,0,0,1815.05,215.44ZM1770,228.079h-24.2l7.455-7.735q2.95-3.07,4.625-5.2a28.792,28.792,0,0,0,2.492-3.608,9.5,9.5,0,0,0,1.017-2.392,7.539,7.539,0,0,0,.2-1.555,4.033,4.033,0,0,0-.219-1.315,3.36,3.36,0,0,0-.658-1.136,3.187,3.187,0,0,0-2.512-1.1,3.121,3.121,0,0,0-2.492,1.036,3.818,3.818,0,0,0-.9,2.591,9.782,9.782,0,0,0,.119,1.276H1746.4a12.834,12.834,0,0,1,.857-4.785,10.853,10.853,0,0,1,2.413-3.707,10.641,10.641,0,0,1,3.687-2.392,12.713,12.713,0,0,1,4.685-.837,13.177,13.177,0,0,1,4.645.8,11.116,11.116,0,0,1,3.688,2.232,10.253,10.253,0,0,1,2.432,3.409,10.432,10.432,0,0,1,.878,4.285,9.987,9.987,0,0,1-1.057,4.565,16.076,16.076,0,0,1-3.368,4.286l-4.984,4.665H1770Zm6.119-3.529a15.268,15.268,0,0,1-2.631-5.023,23.144,23.144,0,0,1,0-13.038,15.041,15.041,0,0,1,2.631-5,11.886,11.886,0,0,1,4.027-3.21,11.781,11.781,0,0,1,14.333,3.21,15.278,15.278,0,0,1,2.611,5,23.15,23.15,0,0,1,0,13.038,15.51,15.51,0,0,1-2.611,5.023,11.528,11.528,0,0,1-4.026,3.229,11.744,11.744,0,0,1-14.334-3.229Z" transform="translate(-1603.949 -41.729)" fill="#3d6833"/><path d="M1827.546,465.849s-.372-6.127-.372-6.869c0-.557.557-.743,1.114-.743.557.186,6.312,1.3,6.312,1.3s-.371-1.3-.557-2.042c-.371-.928,0-1.114.371-1.3.186-.185,6.312-5.569,6.312-5.569l-1.114-.371c-.557-.371-.371-.743-.371-1.114.186-.371,1.3-4.084,1.3-4.084s-2.97.557-3.527.743c-.371.186-.558-.186-.743-.371-.186-.371-.928-2.042-.928-2.042s-3.156,3.712-3.342,3.712c-.557.371-1.3,0-1.114-.557,0-.556,1.671-7.8,1.671-7.8a24.293,24.293,0,0,1-2.413,1.3c-.371.371-.743.371-1.114-.371a40.206,40.206,0,0,0-2.228-4.827s-2.227,4.456-2.6,4.827c-.371.557-.556.557-1.113.371-.557-.371-2.413-1.3-2.413-1.3s1.671,7.241,1.671,7.8c.186.557-.371,1.114-1.114.557-.186-.186-3.342-3.712-3.342-3.712s-.743,1.67-.928,2.042-.371.558-.743.371c-.556-.186-3.527-.743-3.527-.743s1.114,3.527,1.3,4.084c.185.371.371.743-.372,1.114l-1.113.371s6.126,5.384,6.312,5.569c.371.371.557.371.371,1.3a11.508,11.508,0,0,0-.557,2.042s5.755-1.3,6.312-1.3,1.113.186,1.113.743-.371,6.869-.371,6.869Z" transform="translate(-1631.742 -127.989)" fill="#fff"/></g><g transform="translate(1574.824 586.848)"><rect width="10.609" height="67.004" fill="#f7931e"/></g><g transform="translate(1706.057 586.848)"><rect width="10.609" height="75.56" fill="#3d6833"/></g><g transform="translate(1834.658 586.848)"><rect width="10.609" height="75.56"/></g><g transform="translate(1703.943 -190)"><rect width="10.609" height="244.562" fill="#3d6833"/></g><g transform="translate(1698.551 -23.047)"><circle cx="8.556" cy="8.556" r="8.556" transform="translate(2.652 2.652)" fill="#eae8e8"/><path d="M1827.659,84.21A11.208,11.208,0,1,1,1838.866,73,11.22,11.22,0,0,1,1827.659,84.21Zm0-17.111a5.9,5.9,0,1,0,5.9,5.9A5.91,5.91,0,0,0,1827.659,67.1Z" transform="translate(-1816.451 -61.794)" fill="#3d6833"/></g><g transform="translate(1568.921 651.2)"><circle cx="8.556" cy="8.556" r="8.556" transform="translate(2.653 2.652)" fill="#eae8e8"/><path d="M1632.154,1101.091a11.208,11.208,0,1,1,11.208-11.208A11.221,11.221,0,0,1,1632.154,1101.091Zm0-17.111a5.9,5.9,0,1,0,5.9,5.9A5.91,5.91,0,0,0,1632.154,1083.98Z" transform="translate(-1620.946 -1078.676)" fill="#f7931e"/></g><g transform="translate(1700.154 651.2)"><circle cx="8.556" cy="8.556" r="8.556" transform="translate(2.652 2.652)" fill="#eae8e8"/><path d="M1830.076,1101.091a11.208,11.208,0,1,1,11.208-11.208A11.221,11.221,0,0,1,1830.076,1101.091Zm0-17.111a5.9,5.9,0,1,0,5.9,5.9A5.91,5.91,0,0,0,1830.076,1083.98Z" transform="translate(-1818.868 -1078.676)" fill="#3d6833"/></g><g transform="translate(1828.755 651.2)"><circle cx="8.556" cy="8.556" r="8.556" transform="translate(2.653 2.652)" fill="#eae8e8"/><path d="M2024.029,1101.091a11.208,11.208,0,1,1,11.208-11.208A11.221,11.221,0,0,1,2024.029,1101.091Zm0-17.111a5.9,5.9,0,1,0,5.9,5.9A5.91,5.91,0,0,0,2024.029,1083.98Z" transform="translate(-2012.821 -1078.676)"/></g><g transform="translate(1859.004 274.131)"><circle cx="35.805" cy="35.805" r="35.805" transform="translate(7.431 7.431)"/><circle cx="35.805" cy="35.805" r="35.805" fill="#ed8ee2"/><path d="M2118.694,552.3l-20.2-11.664a4.2,4.2,0,0,0-6.292,3.633v23.327a4.194,4.194,0,0,0,6.292,3.632l20.2-11.663A4.194,4.194,0,0,0,2118.694,552.3Z" transform="translate(-2069.817 -520.124)" fill="#fff"/></g></g></svg>