<svg xmlns="http://www.w3.org/2000/svg" width="205.376" height="48.946" viewBox="0 0 205.376 48.946"><g transform="translate(-108.131 -449.388)"><rect width="7.462" height="14.925" transform="translate(303.304 449.683)" fill="red"/><path d="M802.917,461.619l-.431.144s2.584,2.152,2.584,2.3c.143.144.287.144.143.574l-.287.861s2.3-.431,2.583-.574c.288,0,.431,0,.431.287s-.143,2.727-.143,2.727h.717s-.143-2.583-.143-2.727c0-.287.143-.287.431-.287s2.583.574,2.583.574a5.621,5.621,0,0,0-.287-.861c-.144-.43,0-.43.144-.574s2.583-2.3,2.583-2.3l-.431-.144c-.287-.143-.143-.287-.143-.43s.43-1.579.43-1.579-1.148.287-1.292.287-.287,0-.287-.143a3.683,3.683,0,0,0-.287-.717s-1.292,1.435-1.435,1.579c-.287.287-.574,0-.431-.287,0-.287.717-3.3.717-3.3s-.717.43-1,.574-.431.143-.431-.143c-.143-.287-1-1.865-1-2.009l-1,2.009c-.143.287-.287.287-.431.143-.287-.143-1-.574-1-.574s.717,3.014.717,3.3-.143.431-.43.287l-1.435-1.579a2.053,2.053,0,0,1-.287.574c0,.144-.143.287-.287.144a12.426,12.426,0,0,1-1.435-.287,10.914,10.914,0,0,0,.574,1.579A.573.573,0,0,1,802.917,461.619Z" transform="translate(-512.528 -4.473)" fill="red"/><rect width="7.462" height="14.925" transform="translate(280.774 449.683)" fill="red"/><path d="M805.449,543.427a2.771,2.771,0,0,1-2.44,1.722c-.861,0-3.444-.143-3.444-6.888V523.766c0-4.449-3.444-8.036-12.341-8.036-9.615,0-9.758,4.736-9.758,5.883-.143,1.292.574,2.727,3.013,2.727,2.153,0,2.727-2.44,3.014-3.3.287-1,.431-3.874,4.305-3.874,3.3,0,5.31,2.87,5.453,7.032v2.44a3.449,3.449,0,0,1-2.3,2.726c-1.722.861-6.745,1.579-7.319,1.722-2.009.43-7.606,1.865-7.462,7.749.144,5.74,5.884,7.749,9.9,7.606a11.428,11.428,0,0,0,7.176-2.583c.574-.431.574-.431,1,.143.574.574,2.44,2.439,6.888,2.439,4.592,0,5.166-2.152,5.453-2.87C806.74,543.139,805.736,542.709,805.449,543.427Zm-12.2-12.772v6.171c0,4.736-2.3,8.18-5.74,8.18a4.822,4.822,0,0,1-5.023-5.023c0-1.578.861-4.879,4.88-7.175a39.219,39.219,0,0,1,5.453-2.583h.287a.5.5,0,0,1,.143.287Z" transform="translate(-493.104 -48.97)"/><path d="M300.322,543.427a2.771,2.771,0,0,1-2.44,1.722c-.861,0-3.444-.143-3.444-6.888V523.766c0-4.449-3.444-8.036-12.341-8.036-9.615,0-9.758,4.736-9.758,5.883-.143,1.292.574,2.727,3.014,2.727,2.153,0,2.727-2.44,3.014-3.3.287-1,.431-3.874,4.305-3.874,3.3,0,5.31,2.87,5.453,7.032v1.579a1.074,1.074,0,0,1-.144.717v.144a3.449,3.449,0,0,1-2.3,2.726c-1.722.861-6.745,1.579-7.319,1.722-2.009.43-7.606,1.865-7.462,7.749.143,5.74,5.884,7.749,9.9,7.606a11.429,11.429,0,0,0,7.175-2.583c.574-.431.574-.431,1,.143.574.574,2.44,2.439,6.888,2.439,4.592,0,5.166-2.152,5.453-2.87C301.613,543.139,300.609,542.709,300.322,543.427Zm-12.2-12.629v6.171c0,4.592-2.3,8.037-5.74,8.037a4.821,4.821,0,0,1-5.023-5.023c0-1.722.861-4.879,4.879-7.175a39.185,39.185,0,0,1,5.453-2.583h.287a.5.5,0,0,1,.144.287Z" transform="translate(-120.146 -48.97)"/><path d="M148.462,483.55c-1.435,4.592-4.162,12.055-14.064,12.342-10.332.144-16.5-6.888-16.79-19.947-.43-13.92,5.6-24.54,14.925-24.827,10.476-.144,14.207,12.341,14.351,14.207a1.009,1.009,0,1,0,2.009-.144c0-.717-.861-13.059-1.148-14.494s-1.435-.861-1.722-.287c-.143.43.144-.431-.43.861s-2.152.574-2.727.43a22.132,22.132,0,0,0-10.332-2.3c-12.2.287-24.683,9.328-24.4,25.113a23.751,23.751,0,0,0,24.109,23.822c10.476-.143,16.36-6.745,18.082-14.351C150.9,482.115,149.036,481.685,148.462,483.55Z" transform="translate(0 0)"/><path d="M554.053,543.427a2.771,2.771,0,0,1-2.44,1.722c-.861,0-3.444-.143-3.444-6.888V523.766c0-4.449-3.444-8.036-12.342-8.036-9.615,0-9.759,4.736-9.759,5.883-.143,1.292.574,2.727,3.014,2.727,2.153,0,2.726-2.44,3.013-3.3.287-1,.431-3.874,4.306-3.874,3.3,0,5.453,2.87,5.453,7.175v1.435c-.143,2.152-.718,2.87-2.44,3.731s-6.745,1.579-7.319,1.722c-2.009.43-7.606,1.866-7.462,7.749.143,5.74,5.884,7.749,9.9,7.606A11.429,11.429,0,0,0,541.712,544c.574-.431.574-.431,1,.143.574.574,2.44,2.439,6.888,2.439,4.592,0,5.166-2.152,5.453-2.87C555.345,543.139,554.484,542.709,554.053,543.427Zm-12.2-13.059v6.6c0,4.592-2.3,8.037-5.6,8.037a4.821,4.821,0,0,1-5.023-5.023c0-1.578.861-4.879,4.879-7.175a39.192,39.192,0,0,1,5.453-2.583h.287Z" transform="translate(-307.434 -48.97)"/><path d="M418.72,544.862c-1.148-.287-3.157-1.579-3.157-7.893v-11.48c0-2.727.287-9.758-10.476-9.758a14.564,14.564,0,0,0-9.041,3.014c-.431.43-.718.574-.861-.144-.143-.574-.431-1.435-.574-2.009-.143-.431-.43-.861-1.435-.718s-7.319,1.148-8.467,1.435c-1,.287-.718.718,0,.861s4.162.43,4.162,6.314v12.341c0,7.176-1.435,7.749-2.727,8.18-1.722.43-.861,1-.144,1H399.06c.861,0,1.292-.861-.43-1.148s-3.3-1.292-3.3-6.888v-7.893c0-3.014-.718-12.2,7.606-12.341,5.884-.144,6.458,4.736,6.458,7.893v12.2c0,5.023-1.435,6.6-3.157,6.888-1.579.287-1.292,1-.431,1h13.346C419.868,546.01,420.586,545.292,418.72,544.862Z" transform="translate(-203.672 -48.97)"/><path d="M671.975,495.916c-.574-.143-4.162.287-4.162-10.619V451c0-.43,0-1.578-1.292-1.578s-9.9.43-10.476.574c-.574,0-1,.717,0,.717,1,.144,5.6.43,5.6,8.036v10.476c0,.287,0,.43-.144.574v.144c-.144.143-.287,0-.718-.287a14.679,14.679,0,0,0-8.18-2.583c-6.745,0-15.068,4.879-15.068,14.925,0,10.763,7.606,15.929,15.5,15.929a14.643,14.643,0,0,0,7.606-2.3c1.148-.717,1-.574,1.148.43.144.718,0,2.153,2.009,2.009,2.152-.287,7.318-.861,8.323-1C673.123,496.633,672.836,496.059,671.975,495.916Zm-10.332-11.193c-.144,8.61-3.731,11.624-7.462,11.624-6.314,0-9.615-7.462-9.615-14.638,0-7.893,4.449-13.2,9.184-12.915,6.171.43,7.75,5.309,7.893,14.064Z" transform="translate(-390.771 -0.024)"/></g></svg>