<svg xmlns="http://www.w3.org/2000/svg" width="650.313" height="606.533" viewBox="0 0 650.313 606.533"><g id="Group_404" data-name="Group 404" transform="translate(1807.675 1221.197)"><circle id="Ellipse_61" cx="7.804" cy="7.804" r="7.804" fill="#629e51" data-name="Ellipse 61" transform="translate(-1467.561 -1221.197)"/><circle id="Ellipse_62" cx="7.804" cy="7.804" r="7.804" fill="#629e51" data-name="Ellipse 62" transform="translate(-1444.8 -1221.197)"/><circle id="Ellipse_63" cx="7.804" cy="7.804" r="7.804" fill="#629e51" data-name="Ellipse 63" transform="translate(-1422.039 -1221.197)"/><circle id="Ellipse_64" cx="7.804" cy="7.804" r="7.804" fill="#629e51" data-name="Ellipse 64" transform="translate(-1490.322 -1199.087)"/><circle id="Ellipse_65" cx="7.804" cy="7.804" r="7.804" fill="#629e51" data-name="Ellipse 65" transform="translate(-1467.561 -1199.087)"/><circle id="Ellipse_66" cx="7.804" cy="7.804" r="7.804" fill="#629e51" data-name="Ellipse 66" transform="translate(-1444.8 -1199.087)"/><circle id="Ellipse_67" cx="7.804" cy="7.804" r="7.804" fill="#629e51" data-name="Ellipse 67" transform="translate(-1422.039 -1199.087)"/><circle id="Ellipse_68" cx="7.804" cy="7.804" r="7.804" fill="#629e51" data-name="Ellipse 68" transform="translate(-1513.083 -1176.326)"/><circle id="Ellipse_69" cx="7.804" cy="7.804" r="7.804" fill="#629e51" data-name="Ellipse 69" transform="translate(-1490.322 -1176.326)"/><circle id="Ellipse_70" cx="7.804" cy="7.804" r="7.804" fill="#629e51" data-name="Ellipse 70" transform="translate(-1467.561 -1176.326)"/><circle id="Ellipse_71" cx="7.804" cy="7.804" r="7.804" fill="#629e51" data-name="Ellipse 71" transform="translate(-1444.8 -1176.326)"/><circle id="Ellipse_72" cx="7.804" cy="7.804" r="7.804" fill="#629e51" data-name="Ellipse 72" transform="translate(-1513.083 -1153.565)"/><circle id="Ellipse_73" cx="7.804" cy="7.804" r="7.804" fill="#629e51" data-name="Ellipse 73" transform="translate(-1490.322 -1153.565)"/><circle id="Ellipse_74" cx="7.804" cy="7.804" r="7.804" fill="#629e51" data-name="Ellipse 74" transform="translate(-1467.561 -1153.565)"/><circle id="Ellipse_75" cx="7.804" cy="7.804" r="7.804" fill="#629e51" data-name="Ellipse 75" transform="translate(-1444.8 -1153.565)"/><circle id="Ellipse_76" cx="7.804" cy="7.804" r="7.804" fill="#629e51" data-name="Ellipse 76" transform="translate(-1558.605 -1130.804)"/><circle id="Ellipse_77" cx="7.804" cy="7.804" r="7.804" fill="#629e51" data-name="Ellipse 77" transform="translate(-1513.083 -1130.804)"/><circle id="Ellipse_78" cx="7.804" cy="7.804" r="7.804" fill="#629e51" data-name="Ellipse 78" transform="translate(-1490.322 -1130.804)"/><circle id="Ellipse_79" cx="7.804" cy="7.804" r="7.804" fill="#629e51" data-name="Ellipse 79" transform="translate(-1467.561 -1130.804)"/><circle id="Ellipse_80" cx="7.804" cy="7.804" r="7.804" fill="#629e51" data-name="Ellipse 80" transform="translate(-1444.8 -1130.804)"/><circle id="Ellipse_81" cx="7.804" cy="7.804" r="7.804" fill="#629e51" data-name="Ellipse 81" transform="translate(-1603.476 -1108.043)"/><circle id="Ellipse_82" cx="7.804" cy="7.804" r="7.804" fill="#629e51" data-name="Ellipse 82" transform="translate(-1580.716 -1108.043)"/><circle id="Ellipse_83" cx="7.804" cy="7.804" r="7.804" fill="#629e51" data-name="Ellipse 83" transform="translate(-1558.605 -1108.043)"/><circle id="Ellipse_84" cx="7.804" cy="7.804" r="7.804" fill="#629e51" data-name="Ellipse 84" transform="translate(-1535.844 -1108.043)"/><circle id="Ellipse_85" cx="7.804" cy="7.804" r="7.804" fill="#629e51" data-name="Ellipse 85" transform="translate(-1490.322 -1108.043)"/><circle id="Ellipse_86" cx="7.804" cy="7.804" r="7.804" fill="#629e51" data-name="Ellipse 86" transform="translate(-1467.561 -1108.043)"/><circle id="Ellipse_87" cx="7.804" cy="7.804" r="7.804" fill="#629e51" data-name="Ellipse 87" transform="translate(-1444.8 -1108.043)"/><circle id="Ellipse_88" cx="7.804" cy="7.804" r="7.804" fill="#629e51" data-name="Ellipse 88" transform="translate(-1626.237 -1085.282)"/><circle id="Ellipse_89" cx="7.804" cy="7.804" r="7.804" fill="#629e51" data-name="Ellipse 89" transform="translate(-1603.476 -1085.282)"/><circle id="Ellipse_90" cx="7.804" cy="7.804" r="7.804" fill="#629e51" data-name="Ellipse 90" transform="translate(-1580.716 -1085.282)"/><circle id="Ellipse_91" cx="7.804" cy="7.804" r="7.804" fill="#629e51" data-name="Ellipse 91" transform="translate(-1558.605 -1085.282)"/><circle id="Ellipse_92" cx="7.804" cy="7.804" r="7.804" fill="#629e51" data-name="Ellipse 92" transform="translate(-1535.844 -1085.282)"/><circle id="Ellipse_93" cx="7.804" cy="7.804" r="7.804" fill="#629e51" data-name="Ellipse 93" transform="translate(-1513.083 -1085.282)"/><circle id="Ellipse_94" cx="7.804" cy="7.804" r="7.804" fill="#629e51" data-name="Ellipse 94" transform="translate(-1490.322 -1085.282)"/><circle id="Ellipse_95" cx="7.804" cy="7.804" r="7.804" fill="#629e51" data-name="Ellipse 95" transform="translate(-1467.561 -1085.282)"/><circle id="Ellipse_96" cx="7.804" cy="7.804" r="7.804" fill="#629e51" data-name="Ellipse 96" transform="translate(-1603.476 -1063.171)"/><circle id="Ellipse_97" cx="7.804" cy="7.804" r="7.804" fill="#629e51" data-name="Ellipse 97" transform="translate(-1580.716 -1063.171)"/><circle id="Ellipse_98" cx="7.804" cy="7.804" r="7.804" fill="#629e51" data-name="Ellipse 98" transform="translate(-1558.605 -1063.171)"/><circle id="Ellipse_99" cx="7.804" cy="7.804" r="7.804" fill="#629e51" data-name="Ellipse 99" transform="translate(-1535.844 -1063.171)"/><circle id="Ellipse_100" cx="7.804" cy="7.804" r="7.804" fill="#629e51" data-name="Ellipse 100" transform="translate(-1513.083 -1063.171)"/><circle id="Ellipse_101" cx="7.804" cy="7.804" r="7.804" fill="#629e51" data-name="Ellipse 101" transform="translate(-1490.322 -1063.171)"/><circle id="Ellipse_102" cx="7.804" cy="7.804" r="7.804" fill="#629e51" data-name="Ellipse 102" transform="translate(-1467.561 -1063.171)"/><circle id="Ellipse_103" cx="7.804" cy="7.804" r="7.804" fill="#629e51" data-name="Ellipse 103" transform="translate(-1648.998 -1040.41)"/><circle id="Ellipse_104" cx="7.804" cy="7.804" r="7.804" fill="#629e51" data-name="Ellipse 104" transform="translate(-1626.237 -1040.41)"/><circle id="Ellipse_105" cx="7.804" cy="7.804" r="7.804" fill="#629e51" data-name="Ellipse 105" transform="translate(-1535.844 -1040.41)"/><circle id="Ellipse_106" cx="7.804" cy="7.804" r="7.804" fill="#629e51" data-name="Ellipse 106" transform="translate(-1513.083 -1040.41)"/><circle id="Ellipse_107" cx="7.804" cy="7.804" r="7.804" fill="#629e51" data-name="Ellipse 107" transform="translate(-1490.322 -1040.41)"/><circle id="Ellipse_108" cx="7.804" cy="7.804" r="7.804" fill="#629e51" data-name="Ellipse 108" transform="translate(-1467.561 -1040.41)"/><circle id="Ellipse_109" cx="7.804" cy="7.804" r="7.804" fill="#629e51" data-name="Ellipse 109" transform="translate(-1444.8 -1040.41)"/><circle id="Ellipse_110" cx="7.804" cy="7.804" r="7.804" fill="#629e51" data-name="Ellipse 110" transform="translate(-1671.759 -1017.649)"/><circle id="Ellipse_111" cx="7.804" cy="7.804" r="7.804" fill="#629e51" data-name="Ellipse 111" transform="translate(-1648.998 -1017.649)"/><circle id="Ellipse_112" cx="7.804" cy="7.804" r="7.804" fill="#629e51" data-name="Ellipse 112" transform="translate(-1626.237 -1017.649)"/><circle id="Ellipse_113" cx="7.804" cy="7.804" r="7.804" fill="#629e51" data-name="Ellipse 113" transform="translate(-1603.476 -1017.649)"/><circle id="Ellipse_114" cx="7.804" cy="7.804" r="7.804" fill="#629e51" data-name="Ellipse 114" transform="translate(-1580.716 -1017.649)"/><circle id="Ellipse_115" cx="7.804" cy="7.804" r="7.804" fill="#629e51" data-name="Ellipse 115" transform="translate(-1535.844 -1017.649)"/><circle id="Ellipse_116" cx="7.804" cy="7.804" r="7.804" fill="#629e51" data-name="Ellipse 116" transform="translate(-1513.083 -1017.649)"/><circle id="Ellipse_117" cx="7.804" cy="7.804" r="7.804" fill="#629e51" data-name="Ellipse 117" transform="translate(-1490.322 -1017.649)"/><circle id="Ellipse_118" cx="7.804" cy="7.804" r="7.804" fill="#629e51" data-name="Ellipse 118" transform="translate(-1467.561 -1017.649)"/><circle id="Ellipse_119" cx="7.804" cy="7.804" r="7.804" fill="#629e51" data-name="Ellipse 119" transform="translate(-1444.8 -1017.649)"/><circle id="Ellipse_120" cx="7.804" cy="7.804" r="7.804" fill="#629e51" data-name="Ellipse 120" transform="translate(-1422.039 -1017.649)"/><circle id="Ellipse_121" cx="7.804" cy="7.804" r="7.804" fill="#629e51" data-name="Ellipse 121" transform="matrix(0.16, -0.987, 0.987, 0.16, -1401.078, -1003.393)"/><circle id="Ellipse_122" cx="7.804" cy="7.804" r="7.804" fill="#629e51" data-name="Ellipse 122" transform="translate(-1762.153 -994.888)"/><circle id="Ellipse_123" cx="7.804" cy="7.804" r="7.804" fill="#629e51" data-name="Ellipse 123" transform="translate(-1739.392 -994.888)"/><circle id="Ellipse_124" cx="7.804" cy="7.804" r="7.804" fill="#629e51" data-name="Ellipse 124" transform="translate(-1716.631 -994.888)"/><circle id="Ellipse_125" cx="7.804" cy="7.804" r="7.804" fill="#629e51" data-name="Ellipse 125" transform="translate(-1694.52 -994.888)"/><circle id="Ellipse_126" cx="7.804" cy="7.804" r="7.804" fill="#629e51" data-name="Ellipse 126" transform="translate(-1648.998 -994.888)"/><circle id="Ellipse_127" cx="7.804" cy="7.804" r="7.804" fill="#629e51" data-name="Ellipse 127" transform="translate(-1626.237 -994.888)"/><circle id="Ellipse_128" cx="7.804" cy="7.804" r="7.804" fill="#629e51" data-name="Ellipse 128" transform="translate(-1603.476 -994.888)"/><circle id="Ellipse_129" cx="7.804" cy="7.804" r="7.804" fill="#629e51" data-name="Ellipse 129" transform="translate(-1580.716 -994.888)"/><circle id="Ellipse_130" cx="7.804" cy="7.804" r="7.804" fill="#629e51" data-name="Ellipse 130" transform="translate(-1535.844 -994.888)"/><circle id="Ellipse_131" cx="7.804" cy="7.804" r="7.804" fill="#629e51" data-name="Ellipse 131" transform="translate(-1513.083 -994.888)"/><circle id="Ellipse_132" cx="7.804" cy="7.804" r="7.804" fill="#629e51" data-name="Ellipse 132" transform="translate(-1490.322 -994.888)"/><circle id="Ellipse_133" cx="7.804" cy="7.804" r="7.804" fill="#629e51" data-name="Ellipse 133" transform="translate(-1467.561 -994.888)"/><circle id="Ellipse_134" cx="7.804" cy="7.804" r="7.804" fill="#629e51" data-name="Ellipse 134" transform="translate(-1444.8 -994.888)"/><circle id="Ellipse_135" cx="7.804" cy="7.804" r="7.804" fill="#629e51" data-name="Ellipse 135" transform="translate(-1422.039 -994.888)"/><circle id="Ellipse_136" cx="7.804" cy="7.804" r="7.804" fill="#629e51" data-name="Ellipse 136" transform="matrix(0.16, -0.987, 0.987, 0.16, -1401.078, -980.632)"/><circle id="Ellipse_137" cx="7.804" cy="7.804" r="7.804" fill="#629e51" data-name="Ellipse 137" transform="translate(-1377.167 -994.888)"/><circle id="Ellipse_138" cx="7.804" cy="7.804" r="7.804" fill="#629e51" data-name="Ellipse 138" transform="translate(-1762.153 -972.127)"/><circle id="Ellipse_139" cx="7.804" cy="7.804" r="7.804" fill="#629e51" data-name="Ellipse 139" transform="translate(-1739.392 -972.127)"/><circle id="Ellipse_140" cx="7.804" cy="7.804" r="7.804" fill="#629e51" data-name="Ellipse 140" transform="translate(-1716.631 -972.127)"/><circle id="Ellipse_141" cx="7.804" cy="7.804" r="7.804" fill="#629e51" data-name="Ellipse 141" transform="translate(-1694.52 -972.127)"/><circle id="Ellipse_142" cx="7.804" cy="7.804" r="7.804" fill="#629e51" data-name="Ellipse 142" transform="translate(-1671.759 -972.127)"/><circle id="Ellipse_143" cx="7.804" cy="7.804" r="7.804" fill="#629e51" data-name="Ellipse 143" transform="translate(-1648.998 -972.127)"/><circle id="Ellipse_144" cx="7.804" cy="7.804" r="7.804" fill="#629e51" data-name="Ellipse 144" transform="translate(-1626.237 -972.127)"/><circle id="Ellipse_145" cx="7.804" cy="7.804" r="7.804" fill="#629e51" data-name="Ellipse 145" transform="translate(-1603.476 -972.127)"/><circle id="Ellipse_146" cx="7.804" cy="7.804" r="7.804" fill="#629e51" data-name="Ellipse 146" transform="translate(-1580.716 -972.127)"/><circle id="Ellipse_147" cx="7.804" cy="7.804" r="7.804" fill="#629e51" data-name="Ellipse 147" transform="translate(-1558.605 -972.127)"/><circle id="Ellipse_148" cx="7.804" cy="7.804" r="7.804" fill="#629e51" data-name="Ellipse 148" transform="translate(-1513.083 -972.127)"/><circle id="Ellipse_149" cx="7.804" cy="7.804" r="7.804" fill="#629e51" data-name="Ellipse 149" transform="translate(-1467.561 -972.127)"/><circle id="Ellipse_150" cx="7.804" cy="7.804" r="7.804" fill="#629e51" data-name="Ellipse 150" transform="translate(-1444.8 -972.127)"/><circle id="Ellipse_151" cx="7.804" cy="7.804" r="7.804" fill="#629e51" data-name="Ellipse 151" transform="translate(-1422.039 -972.127)"/><circle id="Ellipse_152" cx="7.804" cy="7.804" r="7.804" fill="#629e51" data-name="Ellipse 152" transform="translate(-1401.078 -957.871) rotate(-80.783)"/><circle id="Ellipse_153" cx="7.804" cy="7.804" r="7.804" fill="#629e51" data-name="Ellipse 153" transform="translate(-1377.167 -972.127)"/><circle id="Ellipse_154" cx="7.804" cy="7.804" r="7.804" fill="#629e51" data-name="Ellipse 154" transform="translate(-1354.406 -972.127)"/><circle id="Ellipse_155" cx="7.804" cy="7.804" r="7.804" fill="#629e51" data-name="Ellipse 155" transform="matrix(0.033, -0.999, 0.999, 0.033, -1785.169, -934.023)"/><circle id="Ellipse_156" cx="7.804" cy="7.804" r="7.804" fill="#629e51" data-name="Ellipse 156" transform="translate(-1762.153 -949.366)"/><circle id="Ellipse_157" cx="7.804" cy="7.804" r="7.804" fill="#629e51" data-name="Ellipse 157" transform="translate(-1739.392 -949.366)"/><circle id="Ellipse_158" cx="7.804" cy="7.804" r="7.804" fill="#629e51" data-name="Ellipse 158" transform="translate(-1716.631 -949.366)"/><circle id="Ellipse_159" cx="7.804" cy="7.804" r="7.804" fill="#629e51" data-name="Ellipse 159" transform="translate(-1694.52 -949.367)"/><circle id="Ellipse_160" cx="7.804" cy="7.804" r="7.804" fill="#629e51" data-name="Ellipse 160" transform="translate(-1671.759 -949.367)"/><circle id="Ellipse_161" cx="7.804" cy="7.804" r="7.804" fill="#629e51" data-name="Ellipse 161" transform="translate(-1648.998 -949.367)"/><circle id="Ellipse_162" cx="7.804" cy="7.804" r="7.804" fill="#629e51" data-name="Ellipse 162" transform="translate(-1626.237 -949.367)"/><circle id="Ellipse_163" cx="7.804" cy="7.804" r="7.804" fill="#629e51" data-name="Ellipse 163" transform="translate(-1603.476 -949.367)"/><circle id="Ellipse_164" cx="7.804" cy="7.804" r="7.804" fill="#629e51" data-name="Ellipse 164" transform="translate(-1580.716 -949.367)"/><circle id="Ellipse_165" cx="7.804" cy="7.804" r="7.804" fill="#629e51" data-name="Ellipse 165" transform="translate(-1535.844 -949.367)"/><circle id="Ellipse_166" cx="7.804" cy="7.804" r="7.804" fill="#629e51" data-name="Ellipse 166" transform="translate(-1513.083 -949.367)"/><circle id="Ellipse_167" cx="7.804" cy="7.804" r="7.804" fill="#629e51" data-name="Ellipse 167" transform="translate(-1490.322 -949.367)"/><circle id="Ellipse_168" cx="7.804" cy="7.804" r="7.804" fill="#629e51" data-name="Ellipse 168" transform="translate(-1467.561 -949.367)"/><circle id="Ellipse_169" cx="7.804" cy="7.804" r="7.804" fill="#629e51" data-name="Ellipse 169" transform="translate(-1444.8 -949.367)"/><circle id="Ellipse_170" cx="7.804" cy="7.804" r="7.804" fill="#629e51" data-name="Ellipse 170" transform="translate(-1377.167 -949.366)"/><circle id="Ellipse_171" cx="7.804" cy="7.804" r="7.804" fill="#629e51" data-name="Ellipse 171" transform="translate(-1354.406 -949.366)"/><circle id="Ellipse_172" cx="7.804" cy="7.804" r="7.804" fill="#629e51" data-name="Ellipse 172" transform="translate(-1331.646 -949.366)"/><circle id="Ellipse_173" cx="7.804" cy="7.804" r="7.804" fill="#629e51" data-name="Ellipse 173" transform="translate(-1785.169 -911.912) rotate(-88.093)"/><circle id="Ellipse_174" cx="7.804" cy="7.804" r="7.804" fill="#629e51" data-name="Ellipse 174" transform="translate(-1762.153 -927.256)"/><circle id="Ellipse_175" cx="7.804" cy="7.804" r="7.804" fill="#629e51" data-name="Ellipse 175" transform="translate(-1739.392 -927.256)"/><circle id="Ellipse_176" cx="7.804" cy="7.804" r="7.804" fill="#629e51" data-name="Ellipse 176" transform="translate(-1716.631 -927.256)"/><circle id="Ellipse_177" cx="7.804" cy="7.804" r="7.804" fill="#629e51" data-name="Ellipse 177" transform="translate(-1694.52 -927.256)"/><circle id="Ellipse_178" cx="7.804" cy="7.804" r="7.804" fill="#629e51" data-name="Ellipse 178" transform="translate(-1671.759 -927.256)"/><circle id="Ellipse_179" cx="7.804" cy="7.804" r="7.804" fill="#629e51" data-name="Ellipse 179" transform="translate(-1648.998 -927.256)"/><circle id="Ellipse_180" cx="7.804" cy="7.804" r="7.804" fill="#629e51" data-name="Ellipse 180" transform="translate(-1626.237 -927.256)"/><circle id="Ellipse_181" cx="7.804" cy="7.804" r="7.804" fill="#629e51" data-name="Ellipse 181" transform="translate(-1603.476 -927.256)"/><circle id="Ellipse_182" cx="7.804" cy="7.804" r="7.804" fill="#629e51" data-name="Ellipse 182" transform="translate(-1580.716 -927.256)"/><circle id="Ellipse_183" cx="7.804" cy="7.804" r="7.804" fill="#629e51" data-name="Ellipse 183" transform="translate(-1558.605 -927.256)"/><circle id="Ellipse_184" cx="7.804" cy="7.804" r="7.804" fill="#629e51" data-name="Ellipse 184" transform="translate(-1535.844 -927.256)"/><circle id="Ellipse_185" cx="7.804" cy="7.804" r="7.804" fill="#629e51" data-name="Ellipse 185" transform="translate(-1513.083 -927.256)"/><circle id="Ellipse_186" cx="7.804" cy="7.804" r="7.804" fill="#629e51" data-name="Ellipse 186" transform="translate(-1490.322 -927.256)"/><circle id="Ellipse_187" cx="7.804" cy="7.804" r="7.804" fill="#629e51" data-name="Ellipse 187" transform="translate(-1467.561 -927.256)"/><circle id="Ellipse_188" cx="7.804" cy="7.804" r="7.804" fill="#629e51" data-name="Ellipse 188" transform="translate(-1444.8 -927.256)"/><circle id="Ellipse_189" cx="7.804" cy="7.804" r="7.804" fill="#629e51" data-name="Ellipse 189" transform="translate(-1377.167 -927.256)"/><circle id="Ellipse_190" cx="7.804" cy="7.804" r="7.804" fill="#629e51" data-name="Ellipse 190" transform="translate(-1354.406 -927.256)"/><circle id="Ellipse_191" cx="7.804" cy="7.804" r="7.804" fill="#629e51" data-name="Ellipse 191" transform="matrix(0.033, -0.999, 0.999, 0.033, -1785.169, -889.151)"/><circle id="Ellipse_192" cx="7.804" cy="7.804" r="7.804" fill="#629e51" data-name="Ellipse 192" transform="translate(-1762.153 -904.495)"/><circle id="Ellipse_193" cx="7.804" cy="7.804" r="7.804" fill="#629e51" data-name="Ellipse 193" transform="translate(-1739.392 -904.495)"/><circle id="Ellipse_194" cx="7.804" cy="7.804" r="7.804" fill="#629e51" data-name="Ellipse 194" transform="translate(-1716.631 -904.495)"/><circle id="Ellipse_195" cx="7.804" cy="7.804" r="7.804" fill="#629e51" data-name="Ellipse 195" transform="translate(-1694.52 -904.495)"/><circle id="Ellipse_196" cx="7.804" cy="7.804" r="7.804" fill="#629e51" data-name="Ellipse 196" transform="translate(-1671.759 -904.495)"/><circle id="Ellipse_197" cx="7.804" cy="7.804" r="7.804" fill="#629e51" data-name="Ellipse 197" transform="translate(-1648.998 -904.495)"/><circle id="Ellipse_198" cx="7.804" cy="7.804" r="7.804" fill="#629e51" data-name="Ellipse 198" transform="translate(-1626.237 -904.495)"/><circle id="Ellipse_199" cx="7.804" cy="7.804" r="7.804" fill="#629e51" data-name="Ellipse 199" transform="translate(-1603.476 -904.495)"/><circle id="Ellipse_200" cx="7.804" cy="7.804" r="7.804" fill="#629e51" data-name="Ellipse 200" transform="translate(-1580.716 -904.495)"/><circle id="Ellipse_201" cx="7.804" cy="7.804" r="7.804" fill="#629e51" data-name="Ellipse 201" transform="translate(-1558.605 -904.495)"/><circle id="Ellipse_202" cx="7.804" cy="7.804" r="7.804" fill="#629e51" data-name="Ellipse 202" transform="translate(-1535.844 -904.495)"/><circle id="Ellipse_203" cx="7.804" cy="7.804" r="7.804" fill="#629e51" data-name="Ellipse 203" transform="translate(-1513.083 -904.495)"/><circle id="Ellipse_204" cx="7.804" cy="7.804" r="7.804" fill="#629e51" data-name="Ellipse 204" transform="translate(-1490.322 -904.495)"/><circle id="Ellipse_205" cx="7.804" cy="7.804" r="7.804" fill="#629e51" data-name="Ellipse 205" transform="translate(-1467.561 -904.495)"/><circle id="Ellipse_206" cx="7.804" cy="7.804" r="7.804" fill="#629e51" data-name="Ellipse 206" transform="translate(-1444.8 -904.495)"/><circle id="Ellipse_207" cx="7.804" cy="7.804" r="7.804" fill="#629e51" data-name="Ellipse 207" transform="translate(-1401.078 -890.238) rotate(-80.783)"/><circle id="Ellipse_208" cx="7.804" cy="7.804" r="7.804" fill="#629e51" data-name="Ellipse 208" transform="translate(-1377.167 -904.495)"/><circle id="Ellipse_209" cx="7.804" cy="7.804" r="7.804" fill="#629e51" data-name="Ellipse 209" transform="translate(-1354.406 -904.495)"/><circle id="Ellipse_210" cx="7.804" cy="7.804" r="7.804" fill="#629e51" data-name="Ellipse 210" transform="translate(-1331.646 -904.495)"/><circle id="Ellipse_211" cx="7.804" cy="7.804" r="7.804" fill="#629e51" data-name="Ellipse 211" transform="translate(-1807.675 -881.734)"/><circle id="Ellipse_212" cx="7.804" cy="7.804" r="7.804" fill="#629e51" data-name="Ellipse 212" transform="matrix(0.033, -0.999, 0.999, 0.033, -1785.169, -866.39)"/><circle id="Ellipse_213" cx="7.804" cy="7.804" r="7.804" fill="#629e51" data-name="Ellipse 213" transform="translate(-1762.153 -881.734)"/><circle id="Ellipse_214" cx="7.804" cy="7.804" r="7.804" fill="#629e51" data-name="Ellipse 214" transform="translate(-1739.392 -881.734)"/><circle id="Ellipse_215" cx="7.804" cy="7.804" r="7.804" fill="#629e51" data-name="Ellipse 215" transform="translate(-1716.631 -881.734)"/><circle id="Ellipse_216" cx="7.804" cy="7.804" r="7.804" fill="#629e51" data-name="Ellipse 216" transform="translate(-1694.52 -881.734)"/><circle id="Ellipse_217" cx="7.804" cy="7.804" r="7.804" fill="#629e51" data-name="Ellipse 217" transform="translate(-1671.759 -881.734)"/><circle id="Ellipse_218" cx="7.804" cy="7.804" r="7.804" fill="#629e51" data-name="Ellipse 218" transform="translate(-1648.998 -881.734)"/><circle id="Ellipse_219" cx="7.804" cy="7.804" r="7.804" fill="#629e51" data-name="Ellipse 219" transform="translate(-1626.237 -881.734)"/><circle id="Ellipse_220" cx="7.804" cy="7.804" r="7.804" fill="#629e51" data-name="Ellipse 220" transform="translate(-1603.476 -881.734)"/><circle id="Ellipse_221" cx="7.804" cy="7.804" r="7.804" fill="#629e51" data-name="Ellipse 221" transform="translate(-1580.716 -881.734)"/><circle id="Ellipse_222" cx="7.804" cy="7.804" r="7.804" fill="#629e51" data-name="Ellipse 222" transform="translate(-1558.605 -881.734)"/><circle id="Ellipse_223" cx="7.804" cy="7.804" r="7.804" fill="#629e51" data-name="Ellipse 223" transform="translate(-1604.625 -857.973)"/><circle id="Ellipse_224" cx="7.804" cy="7.804" r="7.804" fill="#629e51" data-name="Ellipse 224" transform="translate(-1513.083 -881.734)"/><circle id="Ellipse_225" cx="7.804" cy="7.804" r="7.804" fill="#629e51" data-name="Ellipse 225" transform="translate(-1490.322 -881.734)"/><circle id="Ellipse_226" cx="7.804" cy="7.804" r="7.804" fill="#629e51" data-name="Ellipse 226" transform="translate(-1467.561 -881.734)"/><circle id="Ellipse_227" cx="7.804" cy="7.804" r="7.804" fill="#629e51" data-name="Ellipse 227" transform="translate(-1444.8 -881.734)"/><circle id="Ellipse_228" cx="7.804" cy="7.804" r="7.804" fill="#629e51" data-name="Ellipse 228" transform="translate(-1422.039 -881.734)"/><circle id="Ellipse_229" cx="7.804" cy="7.804" r="7.804" fill="#629e51" data-name="Ellipse 229" transform="translate(-1785.169 -843.63) rotate(-88.093)"/><circle id="Ellipse_230" cx="7.804" cy="7.804" r="7.804" fill="#629e51" data-name="Ellipse 230" transform="translate(-1762.153 -858.973)"/><circle id="Ellipse_231" cx="7.804" cy="7.804" r="7.804" fill="#629e51" data-name="Ellipse 231" transform="translate(-1739.392 -858.973)"/><circle id="Ellipse_232" cx="7.804" cy="7.804" r="7.804" fill="#629e51" data-name="Ellipse 232" transform="translate(-1716.631 -858.973)"/><circle id="Ellipse_233" cx="7.804" cy="7.804" r="7.804" fill="#629e51" data-name="Ellipse 233" transform="translate(-1694.52 -858.973)"/><circle id="Ellipse_234" cx="7.804" cy="7.804" r="7.804" fill="#629e51" data-name="Ellipse 234" transform="translate(-1671.759 -858.973)"/><circle id="Ellipse_235" cx="7.804" cy="7.804" r="7.804" fill="#629e51" data-name="Ellipse 235" transform="translate(-1648.998 -858.973)"/><circle id="Ellipse_236" cx="7.804" cy="7.804" r="7.804" fill="#629e51" data-name="Ellipse 236" transform="translate(-1626.237 -858.973)"/><circle id="Ellipse_237" cx="7.804" cy="7.804" r="7.804" fill="#629e51" data-name="Ellipse 237" transform="translate(-1603.476 -858.973)"/><circle id="Ellipse_238" cx="7.804" cy="7.804" r="7.804" fill="#629e51" data-name="Ellipse 238" transform="translate(-1580.716 -858.973)"/><circle id="Ellipse_239" cx="7.804" cy="7.804" r="7.804" fill="#629e51" data-name="Ellipse 239" transform="translate(-1558.605 -858.973)"/><circle id="Ellipse_240" cx="7.804" cy="7.804" r="7.804" fill="#629e51" data-name="Ellipse 240" transform="translate(-1535.844 -858.973)"/><circle id="Ellipse_241" cx="7.804" cy="7.804" r="7.804" fill="#629e51" data-name="Ellipse 241" transform="translate(-1513.083 -858.973)"/><circle id="Ellipse_242" cx="7.804" cy="7.804" r="7.804" fill="#629e51" data-name="Ellipse 242" transform="translate(-1490.322 -858.973)"/><circle id="Ellipse_243" cx="7.804" cy="7.804" r="7.804" fill="#629e51" data-name="Ellipse 243" transform="matrix(0.16, -0.987, 0.987, 0.16, -1401.078, -844.716)"/><circle id="Ellipse_244" cx="7.804" cy="7.804" r="7.804" fill="#629e51" data-name="Ellipse 244" transform="translate(-1377.167 -858.973)"/><circle id="Ellipse_245" cx="7.804" cy="7.804" r="7.804" fill="#629e51" data-name="Ellipse 245" transform="translate(-1354.406 -858.973)"/><circle id="Ellipse_246" cx="7.804" cy="7.804" r="7.804" fill="#629e51" data-name="Ellipse 246" transform="translate(-1308.885 -858.973)"/><circle id="Ellipse_247" cx="7.804" cy="7.804" r="7.804" fill="#629e51" data-name="Ellipse 247" transform="translate(-1762.153 -836.212)"/><circle id="Ellipse_248" cx="7.804" cy="7.804" r="7.804" fill="#629e51" data-name="Ellipse 248" transform="translate(-1739.392 -836.212)"/><circle id="Ellipse_249" cx="7.804" cy="7.804" r="7.804" fill="#629e51" data-name="Ellipse 249" transform="translate(-1716.631 -836.212)"/><circle id="Ellipse_250" cx="7.804" cy="7.804" r="7.804" fill="#629e51" data-name="Ellipse 250" transform="translate(-1694.52 -836.212)"/><circle id="Ellipse_251" cx="7.804" cy="7.804" r="7.804" fill="#629e51" data-name="Ellipse 251" transform="translate(-1671.759 -836.212)"/><circle id="Ellipse_252" cx="7.804" cy="7.804" r="7.804" fill="#629e51" data-name="Ellipse 252" transform="translate(-1648.998 -836.212)"/><circle id="Ellipse_253" cx="7.804" cy="7.804" r="7.804" fill="#629e51" data-name="Ellipse 253" transform="translate(-1626.237 -836.212)"/><circle id="Ellipse_254" cx="7.804" cy="7.804" r="7.804" fill="#629e51" data-name="Ellipse 254" transform="translate(-1603.476 -836.212)"/><circle id="Ellipse_255" cx="7.804" cy="7.804" r="7.804" fill="#629e51" data-name="Ellipse 255" transform="translate(-1580.716 -836.212)"/><circle id="Ellipse_256" cx="7.804" cy="7.804" r="7.804" fill="#629e51" data-name="Ellipse 256" transform="translate(-1558.605 -836.212)"/><circle id="Ellipse_257" cx="7.804" cy="7.804" r="7.804" fill="#629e51" data-name="Ellipse 257" transform="translate(-1535.844 -836.212)"/><circle id="Ellipse_258" cx="7.804" cy="7.804" r="7.804" fill="#629e51" data-name="Ellipse 258" transform="translate(-1513.083 -836.212)"/><circle id="Ellipse_259" cx="7.804" cy="7.804" r="7.804" fill="#629e51" data-name="Ellipse 259" transform="matrix(0.16, -0.987, 0.987, 0.16, -1401.078, -821.955)"/><circle id="Ellipse_260" cx="7.804" cy="7.804" r="7.804" fill="#629e51" data-name="Ellipse 260" transform="translate(-1377.167 -836.212)"/><circle id="Ellipse_261" cx="7.804" cy="7.804" r="7.804" fill="#629e51" data-name="Ellipse 261" transform="translate(-1354.406 -836.212)"/><circle id="Ellipse_262" cx="7.804" cy="7.804" r="7.804" fill="#629e51" data-name="Ellipse 262" transform="translate(-1331.646 -836.212)"/><circle id="Ellipse_263" cx="7.804" cy="7.804" r="7.804" fill="#629e51" data-name="Ellipse 263" transform="translate(-1308.885 -836.212)"/><circle id="Ellipse_264" cx="7.804" cy="7.804" r="7.804" fill="#629e51" data-name="Ellipse 264" transform="translate(-1286.124 -836.212)"/><circle id="Ellipse_265" cx="7.804" cy="7.804" r="7.804" fill="#629e51" data-name="Ellipse 265" transform="translate(-1762.153 -813.451)"/><circle id="Ellipse_266" cx="7.804" cy="7.804" r="7.804" fill="#629e51" data-name="Ellipse 266" transform="translate(-1739.392 -813.451)"/><circle id="Ellipse_267" cx="7.804" cy="7.804" r="7.804" fill="#629e51" data-name="Ellipse 267" transform="translate(-1716.631 -813.451)"/><circle id="Ellipse_268" cx="7.804" cy="7.804" r="7.804" fill="#629e51" data-name="Ellipse 268" transform="translate(-1694.52 -813.451)"/><circle id="Ellipse_269" cx="7.804" cy="7.804" r="7.804" fill="#629e51" data-name="Ellipse 269" transform="translate(-1671.759 -813.451)"/><circle id="Ellipse_270" cx="7.804" cy="7.804" r="7.804" fill="#629e51" data-name="Ellipse 270" transform="translate(-1648.998 -813.451)"/><circle id="Ellipse_271" cx="7.804" cy="7.804" r="7.804" fill="#629e51" data-name="Ellipse 271" transform="translate(-1626.237 -813.451)"/><circle id="Ellipse_272" cx="7.804" cy="7.804" r="7.804" fill="#629e51" data-name="Ellipse 272" transform="translate(-1603.476 -813.451)"/><circle id="Ellipse_273" cx="7.804" cy="7.804" r="7.804" fill="#629e51" data-name="Ellipse 273" transform="translate(-1580.716 -813.451)"/><circle id="Ellipse_274" cx="7.804" cy="7.804" r="7.804" fill="#629e51" data-name="Ellipse 274" transform="translate(-1558.605 -813.451)"/><circle id="Ellipse_275" cx="7.804" cy="7.804" r="7.804" fill="#629e51" data-name="Ellipse 275" transform="translate(-1535.844 -813.451)"/><circle id="Ellipse_276" cx="7.804" cy="7.804" r="7.804" fill="#629e51" data-name="Ellipse 276" transform="translate(-1513.083 -813.451)"/><circle id="Ellipse_277" cx="7.804" cy="7.804" r="7.804" fill="#629e51" data-name="Ellipse 277" transform="translate(-1402.321 -809.871) rotate(-22.5)"/><circle id="Ellipse_278" cx="7.804" cy="7.804" r="7.804" fill="#629e51" data-name="Ellipse 278" transform="translate(-1377.167 -813.451)"/><circle id="Ellipse_279" cx="7.804" cy="7.804" r="7.804" fill="#629e51" data-name="Ellipse 279" transform="translate(-1354.406 -813.451)"/><circle id="Ellipse_280" cx="7.804" cy="7.804" r="7.804" fill="#629e51" data-name="Ellipse 280" transform="translate(-1331.646 -813.451)"/><circle id="Ellipse_281" cx="7.804" cy="7.804" r="7.804" fill="#629e51" data-name="Ellipse 281" transform="translate(-1308.885 -813.451)"/><circle id="Ellipse_282" cx="7.804" cy="7.804" r="7.804" fill="#629e51" data-name="Ellipse 282" transform="translate(-1286.124 -813.451)"/><circle id="Ellipse_283" cx="7.804" cy="7.804" r="7.804" fill="#629e51" data-name="Ellipse 283" transform="translate(-1264.013 -813.451)"/><circle id="Ellipse_284" cx="7.804" cy="7.804" r="7.804" fill="#629e51" data-name="Ellipse 284" transform="translate(-1241.252 -813.451)"/><circle id="Ellipse_285" cx="7.804" cy="7.804" r="7.804" fill="#629e51" data-name="Ellipse 285" transform="translate(-1762.153 -790.69)"/><circle id="Ellipse_286" cx="7.804" cy="7.804" r="7.804" fill="#629e51" data-name="Ellipse 286" transform="translate(-1739.392 -790.69)"/><circle id="Ellipse_287" cx="7.804" cy="7.804" r="7.804" fill="#629e51" data-name="Ellipse 287" transform="translate(-1716.631 -790.69)"/><circle id="Ellipse_288" cx="7.804" cy="7.804" r="7.804" fill="#629e51" data-name="Ellipse 288" transform="translate(-1694.52 -790.69)"/><circle id="Ellipse_289" cx="7.804" cy="7.804" r="7.804" fill="#629e51" data-name="Ellipse 289" transform="translate(-1671.759 -790.69)"/><circle id="Ellipse_290" cx="7.804" cy="7.804" r="7.804" fill="#629e51" data-name="Ellipse 290" transform="translate(-1648.998 -790.69)"/><circle id="Ellipse_291" cx="7.804" cy="7.804" r="7.804" fill="#629e51" data-name="Ellipse 291" transform="translate(-1626.237 -790.69)"/><circle id="Ellipse_292" cx="7.804" cy="7.804" r="7.804" fill="#629e51" data-name="Ellipse 292" transform="translate(-1603.476 -790.69)"/><circle id="Ellipse_293" cx="7.804" cy="7.804" r="7.804" fill="#629e51" data-name="Ellipse 293" transform="translate(-1580.716 -790.69)"/><circle id="Ellipse_294" cx="7.804" cy="7.804" r="7.804" fill="#629e51" data-name="Ellipse 294" transform="translate(-1558.605 -790.69)"/><circle id="Ellipse_295" cx="7.804" cy="7.804" r="7.804" fill="#629e51" data-name="Ellipse 295" transform="translate(-1535.844 -790.69)"/><circle id="Ellipse_296" cx="7.804" cy="7.804" r="7.804" fill="#629e51" data-name="Ellipse 296" transform="translate(-1513.083 -790.69)"/><circle id="Ellipse_297" cx="7.804" cy="7.804" r="7.804" fill="#629e51" data-name="Ellipse 297" transform="translate(-1490.322 -790.69)"/><circle id="Ellipse_298" cx="7.804" cy="7.804" r="7.804" fill="#629e51" data-name="Ellipse 298" transform="translate(-1467.561 -790.69)"/><circle id="Ellipse_299" cx="7.804" cy="7.804" r="7.804" fill="#629e51" data-name="Ellipse 299" transform="translate(-1377.167 -790.69)"/><circle id="Ellipse_300" cx="7.804" cy="7.804" r="7.804" fill="#629e51" data-name="Ellipse 300" transform="translate(-1354.406 -790.69)"/><circle id="Ellipse_301" cx="7.804" cy="7.804" r="7.804" fill="#629e51" data-name="Ellipse 301" transform="translate(-1331.646 -790.69)"/><circle id="Ellipse_302" cx="7.804" cy="7.804" r="7.804" fill="#629e51" data-name="Ellipse 302" transform="translate(-1308.885 -790.69)"/><circle id="Ellipse_303" cx="7.804" cy="7.804" r="7.804" fill="#629e51" data-name="Ellipse 303" transform="translate(-1286.124 -790.69)"/><circle id="Ellipse_304" cx="7.804" cy="7.804" r="7.804" fill="#629e51" data-name="Ellipse 304" transform="translate(-1264.013 -790.69)"/><circle id="Ellipse_305" cx="7.804" cy="7.804" r="7.804" fill="#629e51" data-name="Ellipse 305" transform="translate(-1241.252 -790.69)"/><circle id="Ellipse_306" cx="7.804" cy="7.804" r="7.804" fill="#629e51" data-name="Ellipse 306" transform="translate(-1218.491 -790.69)"/><circle id="Ellipse_307" cx="7.804" cy="7.804" r="7.804" fill="#629e51" data-name="Ellipse 307" transform="translate(-1762.153 -768.579)"/><circle id="Ellipse_308" cx="7.804" cy="7.804" r="7.804" fill="#629e51" data-name="Ellipse 308" transform="translate(-1739.392 -768.579)"/><circle id="Ellipse_309" cx="7.804" cy="7.804" r="7.804" fill="#629e51" data-name="Ellipse 309" transform="translate(-1716.631 -768.579)"/><circle id="Ellipse_310" cx="7.804" cy="7.804" r="7.804" fill="#629e51" data-name="Ellipse 310" transform="translate(-1694.52 -768.579)"/><circle id="Ellipse_311" cx="7.804" cy="7.804" r="7.804" fill="#629e51" data-name="Ellipse 311" transform="translate(-1671.759 -768.579)"/><circle id="Ellipse_312" cx="7.804" cy="7.804" r="7.804" fill="#629e51" data-name="Ellipse 312" transform="translate(-1648.998 -768.579)"/><circle id="Ellipse_313" cx="7.804" cy="7.804" r="7.804" fill="#629e51" data-name="Ellipse 313" transform="translate(-1626.237 -768.579)"/><circle id="Ellipse_314" cx="7.804" cy="7.804" r="7.804" fill="#629e51" data-name="Ellipse 314" transform="translate(-1603.476 -768.579)"/><circle id="Ellipse_315" cx="7.804" cy="7.804" r="7.804" fill="#629e51" data-name="Ellipse 315" transform="translate(-1580.716 -768.579)"/><circle id="Ellipse_316" cx="7.804" cy="7.804" r="7.804" fill="#629e51" data-name="Ellipse 316" transform="translate(-1558.605 -768.579)"/><circle id="Ellipse_317" cx="7.804" cy="7.804" r="7.804" fill="#629e51" data-name="Ellipse 317" transform="translate(-1535.844 -768.579)"/><circle id="Ellipse_318" cx="7.804" cy="7.804" r="7.804" fill="#629e51" data-name="Ellipse 318" transform="translate(-1513.083 -768.579)"/><circle id="Ellipse_319" cx="7.804" cy="7.804" r="7.804" fill="#629e51" data-name="Ellipse 319" transform="translate(-1490.322 -768.579)"/><circle id="Ellipse_320" cx="7.804" cy="7.804" r="7.804" fill="#629e51" data-name="Ellipse 320" transform="translate(-1467.561 -768.579)"/><circle id="Ellipse_321" cx="7.804" cy="7.804" r="7.804" fill="#629e51" data-name="Ellipse 321" transform="translate(-1444.8 -768.579)"/><circle id="Ellipse_322" cx="7.804" cy="7.804" r="7.804" fill="#629e51" data-name="Ellipse 322" transform="translate(-1422.039 -768.579)"/><circle id="Ellipse_323" cx="7.804" cy="7.804" r="7.804" fill="#629e51" data-name="Ellipse 323" transform="translate(-1377.167 -768.579)"/><circle id="Ellipse_324" cx="7.804" cy="7.804" r="7.804" fill="#629e51" data-name="Ellipse 324" transform="translate(-1354.406 -768.579)"/><circle id="Ellipse_325" cx="7.804" cy="7.804" r="7.804" fill="#629e51" data-name="Ellipse 325" transform="translate(-1331.646 -768.579)"/><circle id="Ellipse_326" cx="7.804" cy="7.804" r="7.804" fill="#629e51" data-name="Ellipse 326" transform="translate(-1308.885 -768.579)"/><circle id="Ellipse_327" cx="7.804" cy="7.804" r="7.804" fill="#629e51" data-name="Ellipse 327" transform="translate(-1286.124 -768.579)"/><circle id="Ellipse_328" cx="7.804" cy="7.804" r="7.804" fill="#629e51" data-name="Ellipse 328" transform="translate(-1264.013 -768.579)"/><circle id="Ellipse_329" cx="7.804" cy="7.804" r="7.804" fill="#629e51" data-name="Ellipse 329" transform="translate(-1241.252 -768.579)"/><circle id="Ellipse_330" cx="7.804" cy="7.804" r="7.804" fill="#629e51" data-name="Ellipse 330" transform="translate(-1218.491 -768.579)"/><circle id="Ellipse_331" cx="7.804" cy="7.804" r="7.804" fill="#629e51" data-name="Ellipse 331" transform="translate(-1195.73 -768.579)"/><circle id="Ellipse_332" cx="7.804" cy="7.804" r="7.804" fill="#629e51" data-name="Ellipse 332" transform="translate(-1739.392 -745.818)"/><circle id="Ellipse_333" cx="7.804" cy="7.804" r="7.804" fill="#629e51" data-name="Ellipse 333" transform="translate(-1716.631 -745.818)"/><circle id="Ellipse_334" cx="7.804" cy="7.804" r="7.804" fill="#629e51" data-name="Ellipse 334" transform="translate(-1694.52 -745.818)"/><circle id="Ellipse_335" cx="7.804" cy="7.804" r="7.804" fill="#629e51" data-name="Ellipse 335" transform="translate(-1671.759 -745.818)"/><circle id="Ellipse_336" cx="7.804" cy="7.804" r="7.804" fill="#629e51" data-name="Ellipse 336" transform="translate(-1648.998 -745.818)"/><circle id="Ellipse_337" cx="7.804" cy="7.804" r="7.804" fill="#629e51" data-name="Ellipse 337" transform="translate(-1626.237 -745.818)"/><circle id="Ellipse_338" cx="7.804" cy="7.804" r="7.804" fill="#629e51" data-name="Ellipse 338" transform="translate(-1603.476 -745.818)"/><circle id="Ellipse_339" cx="7.804" cy="7.804" r="7.804" fill="#629e51" data-name="Ellipse 339" transform="translate(-1580.716 -745.818)"/><circle id="Ellipse_340" cx="7.804" cy="7.804" r="7.804" fill="#629e51" data-name="Ellipse 340" transform="translate(-1558.605 -745.818)"/><circle id="Ellipse_341" cx="7.804" cy="7.804" r="7.804" fill="#629e51" data-name="Ellipse 341" transform="translate(-1535.844 -745.818)"/><circle id="Ellipse_342" cx="7.804" cy="7.804" r="7.804" fill="#629e51" data-name="Ellipse 342" transform="translate(-1513.083 -745.818)"/><circle id="Ellipse_343" cx="7.804" cy="7.804" r="7.804" fill="#629e51" data-name="Ellipse 343" transform="translate(-1490.322 -745.818)"/><circle id="Ellipse_344" cx="7.804" cy="7.804" r="7.804" fill="#629e51" data-name="Ellipse 344" transform="translate(-1467.561 -745.818)"/><circle id="Ellipse_345" cx="7.804" cy="7.804" r="7.804" fill="#629e51" data-name="Ellipse 345" transform="translate(-1444.8 -745.818)"/><circle id="Ellipse_346" cx="7.804" cy="7.804" r="7.804" fill="#629e51" data-name="Ellipse 346" transform="translate(-1422.039 -745.818)"/><circle id="Ellipse_347" cx="7.804" cy="7.804" r="7.804" fill="#629e51" data-name="Ellipse 347" transform="translate(-1377.167 -745.818)"/><circle id="Ellipse_348" cx="7.804" cy="7.804" r="7.804" fill="#629e51" data-name="Ellipse 348" transform="translate(-1354.406 -745.818)"/><circle id="Ellipse_349" cx="7.804" cy="7.804" r="7.804" fill="#629e51" data-name="Ellipse 349" transform="translate(-1331.646 -745.818)"/><circle id="Ellipse_350" cx="7.804" cy="7.804" r="7.804" fill="#629e51" data-name="Ellipse 350" transform="translate(-1308.885 -745.818)"/><circle id="Ellipse_351" cx="7.804" cy="7.804" r="7.804" fill="#629e51" data-name="Ellipse 351" transform="translate(-1286.124 -745.818)"/><circle id="Ellipse_352" cx="7.804" cy="7.804" r="7.804" fill="#629e51" data-name="Ellipse 352" transform="translate(-1264.013 -745.818)"/><circle id="Ellipse_353" cx="7.804" cy="7.804" r="7.804" fill="#629e51" data-name="Ellipse 353" transform="translate(-1218.491 -745.818)"/><circle id="Ellipse_354" cx="7.804" cy="7.804" r="7.804" fill="#629e51" data-name="Ellipse 354" transform="translate(-1195.73 -745.818)"/><circle id="Ellipse_355" cx="7.804" cy="7.804" r="7.804" fill="#629e51" data-name="Ellipse 355" transform="translate(-1172.969 -745.818)"/><circle id="Ellipse_356" cx="7.804" cy="7.804" r="7.804" fill="#629e51" data-name="Ellipse 356" transform="translate(-1739.392 -723.058)"/><circle id="Ellipse_357" cx="7.804" cy="7.804" r="7.804" fill="#629e51" data-name="Ellipse 357" transform="translate(-1716.631 -723.058)"/><circle id="Ellipse_358" cx="7.804" cy="7.804" r="7.804" fill="#629e51" data-name="Ellipse 358" transform="translate(-1694.52 -723.058)"/><circle id="Ellipse_359" cx="7.804" cy="7.804" r="7.804" fill="#629e51" data-name="Ellipse 359" transform="translate(-1671.759 -723.058)"/><circle id="Ellipse_360" cx="7.804" cy="7.804" r="7.804" fill="#629e51" data-name="Ellipse 360" transform="translate(-1648.998 -723.058)"/><circle id="Ellipse_361" cx="7.804" cy="7.804" r="7.804" fill="#629e51" data-name="Ellipse 361" transform="translate(-1626.237 -723.058)"/><circle id="Ellipse_362" cx="7.804" cy="7.804" r="7.804" fill="#629e51" data-name="Ellipse 362" transform="translate(-1603.476 -723.058)"/><circle id="Ellipse_363" cx="7.804" cy="7.804" r="7.804" fill="#629e51" data-name="Ellipse 363" transform="translate(-1580.716 -723.058)"/><circle id="Ellipse_364" cx="7.804" cy="7.804" r="7.804" fill="#629e51" data-name="Ellipse 364" transform="translate(-1558.605 -723.058)"/><circle id="Ellipse_365" cx="7.804" cy="7.804" r="7.804" fill="#629e51" data-name="Ellipse 365" transform="translate(-1535.844 -723.058)"/><circle id="Ellipse_366" cx="7.804" cy="7.804" r="7.804" fill="#629e51" data-name="Ellipse 366" transform="translate(-1513.083 -723.058)"/><circle id="Ellipse_367" cx="7.804" cy="7.804" r="7.804" fill="#629e51" data-name="Ellipse 367" transform="translate(-1490.322 -723.058)"/><circle id="Ellipse_368" cx="7.804" cy="7.804" r="7.804" fill="#629e51" data-name="Ellipse 368" transform="translate(-1467.561 -723.058)"/><circle id="Ellipse_369" cx="7.804" cy="7.804" r="7.804" fill="#629e51" data-name="Ellipse 369" transform="translate(-1444.8 -723.058)"/><circle id="Ellipse_370" cx="7.804" cy="7.804" r="7.804" fill="#629e51" data-name="Ellipse 370" transform="translate(-1422.039 -723.058)"/><circle id="Ellipse_371" cx="7.804" cy="7.804" r="7.804" fill="#629e51" data-name="Ellipse 371" transform="translate(-1402.321 -719.477) rotate(-22.5)"/><circle id="Ellipse_372" cx="7.804" cy="7.804" r="7.804" fill="#629e51" data-name="Ellipse 372" transform="translate(-1377.167 -723.058)"/><circle id="Ellipse_373" cx="7.804" cy="7.804" r="7.804" fill="#629e51" data-name="Ellipse 373" transform="translate(-1354.406 -723.058)"/><circle id="Ellipse_374" cx="7.804" cy="7.804" r="7.804" fill="#629e51" data-name="Ellipse 374" transform="translate(-1331.646 -723.058)"/><circle id="Ellipse_375" cx="7.804" cy="7.804" r="7.804" fill="#629e51" data-name="Ellipse 375" transform="translate(-1308.885 -723.058)"/><circle id="Ellipse_376" cx="7.804" cy="7.804" r="7.804" fill="#629e51" data-name="Ellipse 376" transform="translate(-1286.124 -723.058)"/><circle id="Ellipse_377" cx="7.804" cy="7.804" r="7.804" fill="#629e51" data-name="Ellipse 377" transform="translate(-1264.013 -723.058)"/><circle id="Ellipse_378" cx="7.804" cy="7.804" r="7.804" fill="#629e51" data-name="Ellipse 378" transform="translate(-1716.631 -700.297)"/><circle id="Ellipse_379" cx="7.804" cy="7.804" r="7.804" fill="#629e51" data-name="Ellipse 379" transform="translate(-1694.52 -700.297)"/><circle id="Ellipse_380" cx="7.804" cy="7.804" r="7.804" fill="#629e51" data-name="Ellipse 380" transform="translate(-1671.759 -700.297)"/><circle id="Ellipse_381" cx="7.804" cy="7.804" r="7.804" fill="#629e51" data-name="Ellipse 381" transform="translate(-1648.998 -700.297)"/><circle id="Ellipse_382" cx="7.804" cy="7.804" r="7.804" fill="#629e51" data-name="Ellipse 382" transform="translate(-1626.237 -700.297)"/><circle id="Ellipse_383" cx="7.804" cy="7.804" r="7.804" fill="#629e51" data-name="Ellipse 383" transform="translate(-1603.476 -700.297)"/><circle id="Ellipse_384" cx="7.804" cy="7.804" r="7.804" fill="#629e51" data-name="Ellipse 384" transform="translate(-1580.716 -700.297)"/><circle id="Ellipse_385" cx="7.804" cy="7.804" r="7.804" fill="#629e51" data-name="Ellipse 385" transform="translate(-1558.605 -700.297)"/><circle id="Ellipse_386" cx="7.804" cy="7.804" r="7.804" fill="#629e51" data-name="Ellipse 386" transform="translate(-1535.844 -700.297)"/><circle id="Ellipse_387" cx="7.804" cy="7.804" r="7.804" fill="#629e51" data-name="Ellipse 387" transform="translate(-1513.083 -700.297)"/><circle id="Ellipse_388" cx="7.804" cy="7.804" r="7.804" fill="#629e51" data-name="Ellipse 388" transform="translate(-1490.322 -700.297)"/><circle id="Ellipse_389" cx="7.804" cy="7.804" r="7.804" fill="#629e51" data-name="Ellipse 389" transform="translate(-1490.322 -677.536)"/><circle id="Ellipse_390" cx="7.804" cy="7.804" r="7.804" fill="#629e51" data-name="Ellipse 390" transform="translate(-1467.561 -700.297)"/><circle id="Ellipse_391" cx="7.804" cy="7.804" r="7.804" fill="#629e51" data-name="Ellipse 391" transform="translate(-1444.8 -700.297)"/><circle id="Ellipse_392" cx="7.804" cy="7.804" r="7.804" fill="#629e51" data-name="Ellipse 392" transform="translate(-1422.039 -700.297)"/><circle id="Ellipse_393" cx="7.804" cy="7.804" r="7.804" fill="#629e51" data-name="Ellipse 393" transform="translate(-1402.321 -696.716) rotate(-22.5)"/><circle id="Ellipse_394" cx="7.804" cy="7.804" r="7.804" fill="#629e51" data-name="Ellipse 394" transform="translate(-1377.167 -700.297)"/><circle id="Ellipse_395" cx="7.804" cy="7.804" r="7.804" fill="#629e51" data-name="Ellipse 395" transform="translate(-1354.406 -700.297)"/><circle id="Ellipse_396" cx="7.804" cy="7.804" r="7.804" fill="#629e51" data-name="Ellipse 396" transform="translate(-1331.646 -700.297)"/><circle id="Ellipse_397" cx="7.804" cy="7.804" r="7.804" fill="#629e51" data-name="Ellipse 397" transform="translate(-1308.885 -700.297)"/><circle id="Ellipse_398" cx="7.804" cy="7.804" r="7.804" fill="#629e51" data-name="Ellipse 398" transform="translate(-1286.124 -700.297)"/><circle id="Ellipse_399" cx="7.804" cy="7.804" r="7.804" fill="#629e51" data-name="Ellipse 399" transform="translate(-1264.013 -700.297)"/><circle id="Ellipse_400" cx="7.804" cy="7.804" r="7.804" fill="#629e51" data-name="Ellipse 400" transform="translate(-1241.252 -700.297)"/><circle id="Ellipse_401" cx="7.804" cy="7.804" r="7.804" fill="#629e51" data-name="Ellipse 401" transform="translate(-1218.491 -700.297)"/><circle id="Ellipse_402" cx="7.804" cy="7.804" r="7.804" fill="#629e51" data-name="Ellipse 402" transform="translate(-1467.561 -677.536)"/><circle id="Ellipse_403" cx="7.804" cy="7.804" r="7.804" fill="#629e51" data-name="Ellipse 403" transform="translate(-1422.039 -677.536)"/><circle id="Ellipse_404" cx="7.804" cy="7.804" r="7.804" fill="#629e51" data-name="Ellipse 404" transform="translate(-1402.321 -673.955) rotate(-22.5)"/><circle id="Ellipse_405" cx="7.804" cy="7.804" r="7.804" fill="#629e51" data-name="Ellipse 405" transform="translate(-1377.167 -677.536)"/><circle id="Ellipse_406" cx="7.804" cy="7.804" r="7.804" fill="#629e51" data-name="Ellipse 406" transform="translate(-1354.406 -677.536)"/><circle id="Ellipse_407" cx="7.804" cy="7.804" r="7.804" fill="#629e51" data-name="Ellipse 407" transform="translate(-1331.646 -677.536)"/><circle id="Ellipse_408" cx="7.804" cy="7.804" r="7.804" fill="#629e51" data-name="Ellipse 408" transform="translate(-1308.885 -677.536)"/><circle id="Ellipse_409" cx="7.804" cy="7.804" r="7.804" fill="#629e51" data-name="Ellipse 409" transform="translate(-1264.013 -677.536)"/><circle id="Ellipse_410" cx="7.804" cy="7.804" r="7.804" fill="#629e51" data-name="Ellipse 410" transform="translate(-1377.167 -654.775)"/><circle id="Ellipse_411" cx="7.804" cy="7.804" r="7.804" fill="#629e51" data-name="Ellipse 411" transform="translate(-1354.406 -654.775)"/><circle id="Ellipse_412" cx="7.804" cy="7.804" r="7.804" fill="#629e51" data-name="Ellipse 412" transform="translate(-1402.321 -629.084) rotate(-22.5)"/><circle id="Ellipse_413" cx="7.804" cy="7.804" r="7.804" fill="#629e51" data-name="Ellipse 413" transform="translate(-1377.167 -632.664)"/></g></svg>