<svg xmlns="http://www.w3.org/2000/svg" viewBox="0 0 1200 1200"><defs><style>.cls-1,.cls-8{fill:#fff;}.cls-2{fill:#3d6833;}.cls-3{fill:#d8d8d8;}.cls-12,.cls-13,.cls-14,.cls-15,.cls-16,.cls-4,.cls-5,.cls-9{fill:none;}.cls-12,.cls-14,.cls-4,.cls-5{stroke:#fff;}.cls-12,.cls-13,.cls-14,.cls-15,.cls-16,.cls-17,.cls-4,.cls-5,.cls-8,.cls-9{stroke-miterlimit:10;}.cls-16,.cls-4,.cls-9{stroke-width:16px;}.cls-5{stroke-width:6px;}.cls-6{fill:#a8a8a8;}.cls-7{fill:#629e51;}.cls-13,.cls-8,.cls-9{stroke:#000;}.cls-8{stroke-width:8px;}.cls-10{fill:#ed8ee2;}.cls-11{fill:#f7931e;}.cls-12{stroke-width:4px;}.cls-13{stroke-width:24px;}.cls-14{stroke-width:5px;}.cls-15{stroke:#d8d8d8;stroke-width:12px;}.cls-16{stroke:#f7931e;}.cls-17{stroke:#3d6833;}</style></defs><g id="Layer_4" data-name="Layer 4"><rect class="cls-1" width="1200" height="1200"/><path class="cls-2" d="M316.06,442.66h36.36a0,0,0,0,1,0,0v72.42a0,0,0,0,1,0,0h0a36.36,36.36,0,0,1-36.36-36.36V442.66a0,0,0,0,1,0,0Z" transform="translate(894.37 644.03) rotate(141.34)"/><path class="cls-3" d="M.11,0H1200a0,0,0,0,1,0,0V321.16a119.27,119.27,0,0,1-119.27,119.27H.11a0,0,0,0,1,0,0V0A0,0,0,0,1,.11,0Z"/><path class="cls-3" d="M162.16,849.22H382.81a0,0,0,0,1,0,0V1058.9a0,0,0,0,1,0,0H192.87a30.7,30.7,0,0,1-30.7-30.7v-179A0,0,0,0,1,162.16,849.22Z"/><path class="cls-4" d="M629.8,241.85V113.08A35.09,35.09,0,0,1,664.9,78h358.5a35.1,35.1,0,0,0,35.1-35.1V2.58"/><path class="cls-1" d="M613.25,242.18H904a39,39,0,0,1,39,39v98.3a60.73,60.73,0,0,1-60.73,60.73H536.75a0,0,0,0,1,0,0V318.68A76.5,76.5,0,0,1,613.25,242.18Z"/><path class="cls-5" d="M148.08,1010.56c16.17,0,16.17,16,32.35,16s16.17-16,32.34-16,16.18,16,32.35,16,16.18-16,32.36-16,16.17,16,32.35,16,16.17-16,32.35-16,16.18,16,32.36,16,16.17-16,32.35-16"/><path class="cls-5" d="M148.08,976.81c16.17,0,16.17,16,32.35,16s16.17-16,32.34-16,16.18,16,32.35,16,16.18-16,32.36-16,16.17,16,32.35,16,16.17-16,32.35-16,16.18,16,32.36,16,16.17-16,32.35-16"/><path class="cls-5" d="M148.08,943.06c16.17,0,16.17,16,32.35,16s16.17-16,32.34-16,16.18,16,32.35,16,16.18-16,32.36-16,16.17,16,32.35,16,16.17-16,32.35-16,16.18,16,32.36,16,16.17-16,32.35-16"/><path class="cls-5" d="M148.08,909.3c16.17,0,16.17,16,32.35,16s16.17-16,32.34-16,16.18,16,32.35,16,16.18-16,32.36-16,16.17,16,32.35,16,16.17-16,32.35-16,16.18,16,32.36,16,16.17-16,32.35-16"/><path class="cls-5" d="M148.08,875.55c16.17,0,16.17,16,32.35,16s16.17-16,32.34-16,16.18,16,32.35,16,16.18-16,32.36-16,16.17,16,32.35,16,16.17-16,32.35-16,16.18,16,32.36,16,16.17-16,32.35-16"/><rect class="cls-6" x="612.15" y="241.85" width="35.68" height="475.49"/><path class="cls-7" d="M176.39,723.55h16.46a0,0,0,0,1,0,0v0a44.91,44.91,0,0,1-44.91,44.91H131.48a0,0,0,0,1,0,0v0A44.91,44.91,0,0,1,176.39,723.55Z"/><path class="cls-7" d="M185.46,969.72h19.78a0,0,0,0,1,0,0v0a54,54,0,0,1-54,54H131.48a0,0,0,0,1,0,0v0A54,54,0,0,1,185.46,969.72Z"/><path class="cls-7" d="M176.39,402.44h16.46a0,0,0,0,1,0,0v0a44.91,44.91,0,0,1-44.91,44.91H131.48a0,0,0,0,1,0,0v0A44.91,44.91,0,0,1,176.39,402.44Z"/><path class="cls-7" d="M70.11,538.65H86.57a44.91,44.91,0,0,1,44.91,44.91v0a0,0,0,0,1,0,0H115a44.91,44.91,0,0,1-44.91-44.91v0A0,0,0,0,1,70.11,538.65Z"/><path class="cls-7" d="M49,842.23H71.14a60.34,60.34,0,0,1,60.34,60.34v0a0,0,0,0,1,0,0H109.37A60.34,60.34,0,0,1,49,842.23v0A0,0,0,0,1,49,842.23Z"/><circle class="cls-8" cx="1113.87" cy="889.16" r="12.9"/><path class="cls-9" d="M1101,889.16H761.71A36.71,36.71,0,0,1,725,852.45V439.31H883.81A59.17,59.17,0,0,0,943,380.14V275.51a33.33,33.33,0,0,0-33.33-33.33H614.75a78,78,0,0,0-78,78V682.3A35.75,35.75,0,0,1,501,718.05H343.75v29.43a63.7,63.7,0,0,0,63.7,63.71h3.44v280.15H185.32a53.85,53.85,0,0,1-53.84-53.84v-816"/><path d="M641.43,949.5h0a49.77,49.77,0,0,1,49.77,49.77v48.33a0,0,0,0,1,0,0H591.67a0,0,0,0,1,0,0V999.27A49.77,49.77,0,0,1,641.43,949.5Z"/><rect class="cls-2" x="591.67" y="1047.59" width="49.49" height="86.99"/><rect class="cls-2" x="640.99" y="1047.59" width="49.49" height="86.99"/><polygon points="565.01 1162.32 640.99 1162.32 640.99 1134.58 591.67 1134.58 565.01 1162.32"/><polygon points="716.98 1162.32 640.99 1162.32 640.99 1134.58 690.32 1134.58 716.98 1162.32"/><path class="cls-10" d="M386.78,481.13h0a45.66,45.66,0,0,1,45.66,45.66v44.34a0,0,0,0,1,0,0H341.12a0,0,0,0,1,0,0V526.79a45.66,45.66,0,0,1,45.66-45.66Z"/><rect class="cls-10" x="341.12" y="571.12" width="45.66" height="79.81"/><polygon class="cls-11" points="317.07 676.38 386.78 676.38 386.78 650.93 341.52 650.93 317.07 676.38"/><polygon class="cls-11" points="456.49 676.38 386.78 676.38 386.78 650.93 432.03 650.93 456.49 676.38"/><rect class="cls-10" x="386.78" y="571.12" width="45.66" height="79.81"/><path class="cls-2" d="M396.08,536.07h36.36a0,0,0,0,1,0,0v72.42a0,0,0,0,1,0,0h0a36.36,36.36,0,0,1-36.36-36.36V536.07A0,0,0,0,1,396.08,536.07Z"/><line class="cls-12" x1="386.37" y1="478.05" x2="386.37" y2="650.93"/><line class="cls-13" x1="920.72" y1="962.07" x2="641.43" y2="962.07"/><path class="cls-13" d="M641.43,962.07H547.86a61.67,61.67,0,0,1-61.67-61.67V758.61"/><path class="cls-11" d="M922.75,945.76h62.16a0,0,0,0,1,0,0v0a28.15,28.15,0,0,1-28.15,28.15H913.35a0,0,0,0,1,0,0V955.16A9.4,9.4,0,0,1,922.75,945.76Z"/><path class="cls-7" d="M386.87,748.7H488.38a9.72,9.72,0,0,1,9.72,9.72v22.81a0,0,0,0,1,0,0H417.56a30.69,30.69,0,0,1-30.69-30.69V748.7A0,0,0,0,1,386.87,748.7Z"/><rect class="cls-3" x="592.88" y="528.21" width="75.1" height="32.82"/><rect class="cls-3" x="592.88" y="339.08" width="75.1" height="32.82" transform="translate(1260.87 710.98) rotate(-180)"/><path class="cls-3" d="M597.58,714.91H662a17.28,17.28,0,0,1,17.28,17.28v0a0,0,0,0,1,0,0h-99a0,0,0,0,1,0,0v0A17.28,17.28,0,0,1,597.58,714.91Z"/><rect class="cls-14" x="1018.96" y="341.33" width="49.75" height="49.75"/><line class="cls-14" x1="1018.96" y1="341.33" x2="1068.71" y2="391.08"/><rect class="cls-14" x="1018.96" y="291.58" width="49.75" height="49.75" transform="translate(2087.67 632.91) rotate(180)"/><line class="cls-14" x1="1068.71" y1="291.58" x2="1018.96" y2="341.33"/><rect class="cls-14" x="1018.96" y="192.07" width="49.75" height="49.75"/><line class="cls-14" x1="1018.96" y1="241.82" x2="1068.71" y2="192.07"/><rect class="cls-14" x="1018.96" y="241.82" width="49.75" height="49.75" transform="translate(2087.67 533.4) rotate(-180)"/><line class="cls-14" x1="1068.71" y1="291.58" x2="1018.96" y2="241.82"/><path class="cls-15" d="M784.82,1027.39h81.05a0,0,0,0,1,0,0v81.05a0,0,0,0,1,0,0H830a45.22,45.22,0,0,1-45.22-45.22v-35.83A0,0,0,0,1,784.82,1027.39Z" transform="translate(1893.26 242.57) rotate(90)"/><line class="cls-15" x1="865.87" y1="1027.39" x2="784.82" y2="1108.44"/><rect class="cls-15" x="865.87" y="1027.39" width="81.05" height="81.05" transform="translate(-161.52 1974.31) rotate(-90)"/><line class="cls-15" x1="946.92" y1="1108.44" x2="865.87" y2="1027.39"/><path class="cls-15" d="M1073.2,1027.39H1109a0,0,0,0,1,0,0v81.05a0,0,0,0,1,0,0H1028a0,0,0,0,1,0,0v-35.83A45.22,45.22,0,0,1,1073.2,1027.39Z" transform="translate(2136.41 -0.59) rotate(90)"/><line class="cls-15" x1="1027.97" y1="1027.39" x2="1109.02" y2="1108.44"/><rect class="cls-15" x="946.92" y="1027.39" width="81.05" height="81.05" transform="translate(-80.46 2055.36) rotate(-90)"/><line class="cls-15" x1="946.92" y1="1108.44" x2="1027.97" y2="1027.39"/><circle class="cls-8" cx="412.08" cy="1091.34" r="15.53"/><line class="cls-16" x1="725" y1="788.24" x2="725" y2="440.43"/><line class="cls-16" x1="942.98" y1="572.35" x2="974.75" y2="775.34"/><line class="cls-16" x1="942.98" y1="572.35" x2="911.21" y2="775.34"/><path class="cls-3" d="M820.09,770h245.78a0,0,0,0,1,0,0v0a41.18,41.18,0,0,1-41.18,41.18H861.27A41.18,41.18,0,0,1,820.09,770v0A0,0,0,0,1,820.09,770Z" transform="translate(1885.97 1581.15) rotate(180)"/><path class="cls-10" d="M117.79,150.32c0,32.14,13.69,58.19,13.69,58.19s13.69-26,13.69-58.19-13.69-58.19-13.69-58.19S117.79,118.18,117.79,150.32Z"/><path class="cls-10" d="M87.93,249.46c27.83-16.07,43.55-41,43.55-41s-29.41,1.17-57.24,17.24S30.69,266.7,30.69,266.7,60.1,265.53,87.93,249.46Z"/><path class="cls-10" d="M188.72,225.75c-27.83-16.07-57.24-17.24-57.24-17.24s15.72,24.88,43.55,41,57.24,17.24,57.24,17.24S216.55,241.82,188.72,225.75Z"/><circle class="cls-8" cx="131.48" cy="208.69" r="12.9"/><circle class="cls-8" cx="722.98" cy="440.43" r="15.53"/><line class="cls-9" x1="131.48" y1="319.8" x2="394.38" y2="319.8"/><path class="cls-7" d="M380.69,261.43c0,32.13,13.69,58.19,13.69,58.19s13.69-26.06,13.69-58.19-13.69-58.19-13.69-58.19S380.69,229.29,380.69,261.43Z"/><path class="cls-7" d="M350.83,360.57c27.83-16.07,43.55-40.95,43.55-40.95s-29.41,1.17-57.24,17.24-43.55,40.95-43.55,40.95S323,376.64,350.83,360.57Z"/><path class="cls-7" d="M451.62,336.86c-27.83-16.07-57.24-17.24-57.24-17.24s15.72,24.88,43.55,40.95,57.24,17.24,57.24,17.24S479.45,352.92,451.62,336.86Z"/><circle class="cls-8" cx="394.38" cy="319.8" r="12.9"/><line class="cls-9" x1="274.34" y1="134.65" x2="277.49" y2="319.8"/><path class="cls-2" d="M263.13,84.86c0,26.31,11.21,47.64,11.21,47.64s11.21-21.33,11.21-47.64-11.21-47.64-11.21-47.64S263.13,58.55,263.13,84.86Z"/><path class="cls-2" d="M238.69,166c22.79-13.15,35.65-33.52,35.65-33.52s-24.07.95-46.86,14.11-35.65,33.52-35.65,33.52S215.91,179.17,238.69,166Z"/><path class="cls-2" d="M321.2,146.61c-22.78-13.16-46.86-14.11-46.86-14.11S287.21,152.87,310,166s46.86,14.11,46.86,14.11S344,159.76,321.2,146.61Z"/><circle class="cls-8" cx="274.34" cy="134.65" r="12.9"/><circle class="cls-1" cx="494.28" cy="28.08" r="7.87"/><circle class="cls-1" cx="494.28" cy="65.56" r="7.87"/><circle class="cls-1" cx="494.28" cy="103.04" r="7.87"/><circle class="cls-1" cx="494.28" cy="140.52" r="7.87"/><circle class="cls-1" cx="494.28" cy="178" r="7.87"/><circle class="cls-1" cx="531.72" cy="28.08" r="7.87"/><circle class="cls-1" cx="531.72" cy="65.56" r="7.87"/><circle class="cls-1" cx="531.72" cy="103.04" r="7.87"/><circle class="cls-1" cx="531.72" cy="140.52" r="7.87"/><circle class="cls-1" cx="531.72" cy="178" r="7.87"/><path class="cls-17" d="M1034.63,491.66c16.76,0,30.35,36.13,30.35,80.69s-13.59,80.7-30.35,80.7Z"/><path class="cls-11" d="M934.73,472.45h0a11,11,0,0,1,11,11V672.26a0,0,0,0,1,0,0H923.76a0,0,0,0,1,0,0V483.41A11,11,0,0,1,934.73,472.45Z" transform="translate(362.38 1507.08) rotate(-90)"/><circle class="cls-8" cx="942.98" cy="572.35" r="12.19"/><path class="cls-11" d="M866.69,204.71H903a0,0,0,0,1,0,0V277a0,0,0,0,1,0,0h0a36.27,36.27,0,0,1-36.27-36.27v-36A0,0,0,0,1,866.69,204.71Z" transform="translate(643.99 1125.66) rotate(-90)"/><path class="cls-2" d="M774.64,211.16h91.1a0,0,0,0,1,0,0v44.23a45.55,45.55,0,0,1-45.55,45.55h0a45.55,45.55,0,0,1-45.55-45.55V211.16a0,0,0,0,1,0,0Z" transform="translate(1640.37 512.1) rotate(180)"/><rect class="cls-2" x="820.18" y="300.94" width="45.55" height="79.62" transform="translate(1685.92 681.5) rotate(-180)"/><polygon points="889.73 405.95 820.18 405.95 820.18 380.56 865.33 380.56 889.73 405.95"/><polygon points="750.64 405.95 820.18 405.95 820.18 380.56 775.04 380.56 750.64 405.95"/><rect class="cls-2" x="774.64" y="300.94" width="45.55" height="79.62" transform="translate(1594.82 681.5) rotate(-180)"/><path class="cls-11" d="M810.91,266h0a0,0,0,0,1,0,0v72.25a0,0,0,0,1,0,0H774.64a0,0,0,0,1,0,0v-36A36.27,36.27,0,0,1,810.91,266Z" transform="translate(1585.54 604.19) rotate(-180)"/><line class="cls-12" x1="820.59" y1="208.09" x2="820.59" y2="380.56"/><circle class="cls-11" cx="820.59" cy="187.54" r="16.7"/><path class="cls-2" d="M802.88,170.84h47.67a0,0,0,0,1,0,0v9.88a0,0,0,0,1,0,0H802.88a4.94,4.94,0,0,1-4.94-4.94v0A4.94,4.94,0,0,1,802.88,170.84Z" transform="translate(1648.49 351.57) rotate(-180)"/><path class="cls-2" d="M800.42,153.82H838.6a0,0,0,0,1,0,0v7.44A14.77,14.77,0,0,1,823.83,176h-8.65a14.77,14.77,0,0,1-14.77-14.77v-7.44A0,0,0,0,1,800.42,153.82Z" transform="translate(1639.02 329.85) rotate(-180)"/><circle class="cls-2" cx="386.37" cy="457.45" r="16.74"/><path class="cls-11" d="M361.29,440.71h47.79a0,0,0,0,1,0,0v9.91a0,0,0,0,1,0,0H361.29a5,5,0,0,1-5-5v0A5,5,0,0,1,361.29,440.71Z"/><path class="cls-11" d="M383.12,423.65h8.67a14.8,14.8,0,0,1,14.8,14.8v7.45a0,0,0,0,1,0,0H368.32a0,0,0,0,1,0,0v-7.45A14.8,14.8,0,0,1,383.12,423.65Z"/><path class="cls-11" d="M620.19,860.35h23.62a18.8,18.8,0,0,1,18.8,18.8v5.31a0,0,0,0,1,0,0H620.19a0,0,0,0,1,0,0V860.35A0,0,0,0,1,620.19,860.35Z"/><path class="cls-3" d="M628.06,877.62h26.22a8.34,8.34,0,0,1,8.34,8.34v30.25a13.45,13.45,0,0,1-13.45,13.45h-16a13.45,13.45,0,0,1-13.45-13.45V886A8.34,8.34,0,0,1,628.06,877.62Z"/><path class="cls-11" d="M619.71,903.65h42.9a0,0,0,0,1,0,0v13.23a20.05,20.05,0,0,1-20.05,20.05h-2.8a20.05,20.05,0,0,1-20.05-20.05V903.65A0,0,0,0,1,619.71,903.65Z"/><rect class="cls-3" x="629.8" y="908.22" width="22.73" height="6.33"/></g></svg>