<svg xmlns="http://www.w3.org/2000/svg" width="566.266" height="509" viewBox="0 0 566.266 509"><g transform="translate(-4045.301 -4799.819)"><g transform="translate(4079.564 4799.819)"><g transform="translate(29.287 0.408)"><rect width="502.717" height="508.592" fill="#fff"/></g><g transform="translate(-34.263 0)"><rect width="566.266" height="178.824" fill="#d8d8d8"/></g><g transform="translate(421.232 373.98)"><g transform="translate(4.839 4.839)"><rect width="64.137" height="54.282" rx="26.728" fill="#ed8ee2"/></g><rect width="64.137" height="54.282" rx="26.728" fill="#3d6833"/><g transform="translate(12.751 11.227)"><path d="M4983.191,5603.913l-6.13-4.5,1.717-2.339,4.413,3.239,5.272-3.869,5.273,3.869,5.276-3.869,5.274,3.869,5.276-3.868,6.135,4.5-1.715,2.341-4.42-3.24-5.277,3.869-5.273-3.868-5.276,3.868-5.273-3.868Z" transform="translate(-4977.062 -5596.446)" fill="#ed8ee2"/><g transform="translate(0 12.18)"><path d="M4983.191,5629.1l-6.13-4.5,1.717-2.34,4.413,3.239,5.272-3.869,5.273,3.869,5.276-3.869,5.274,3.869,5.276-3.869,6.135,4.5-1.715,2.341-4.42-3.24-5.277,3.869-5.273-3.868-5.276,3.868-5.273-3.868Z" transform="translate(-4977.062 -5621.636)" fill="#ed8ee2"/></g><g transform="translate(0 24.361)"><path d="M4983.191,5654.292l-6.13-4.5,1.717-2.34,4.413,3.239,5.272-3.869,5.273,3.869,5.276-3.869,5.274,3.869,5.276-3.869,6.135,4.5-1.715,2.341-4.42-3.24-5.277,3.869-5.273-3.868-5.276,3.868-5.273-3.868Z" transform="translate(-4977.062 -5646.826)" fill="#ed8ee2"/></g></g></g><g transform="translate(74.815 294.612)"><ellipse cx="46.874" cy="4.702" rx="46.874" ry="4.702" fill="#d8d8d8"/></g><g transform="translate(298.622 241.145)"><ellipse cx="56.603" cy="5.271" rx="56.603" ry="5.271" fill="#d8d8d8"/></g><g transform="translate(289.416 267.064)"><g transform="translate(0 41.551)"><path d="M0,0H0A26.117,26.117,0,0,1,26.117,26.117v0a0,0,0,0,1,0,0h0A26.117,26.117,0,0,1,0,0V0A0,0,0,0,1,0,0Z" transform="translate(26.117 26.117) rotate(-180)" fill="#3d6833"/></g><g transform="translate(23.216 41.551)"><rect width="5.803" height="40.635" fill="#3d6833"/></g><g transform="translate(26.117 41.551)"><path d="M26.117,0h0a0,0,0,0,1,0,0V0A26.117,26.117,0,0,1,0,26.117H0a0,0,0,0,1,0,0v0A26.117,26.117,0,0,1,26.117,0Z" fill="#3d6833"/></g><g transform="translate(7.626)"><path d="M4712.353,5389.1a18.513,18.513,0,0,1-18.492-18.491v-18.492h36.983v18.492A18.513,18.513,0,0,1,4712.353,5389.1Zm-10.755-29.247v10.755a10.755,10.755,0,0,0,21.509,0v-10.755Z" transform="translate(-4693.861 -5352.121)" fill="#ed8ee2"/></g></g><path d="M4151.478,4947.793h-43.6a28.345,28.345,0,0,1-28.314-28.312V4799.818h3.868V4919.48a24.473,24.473,0,0,0,24.446,24.444h43.6a13.456,13.456,0,0,0,13.442-13.442v-17.406h3.869v17.406A17.33,17.33,0,0,1,4151.478,4947.793Z" transform="translate(-4079.564 -4799.818)" fill="#fff"/><g transform="translate(180.785 33.118)"><path d="M4457.3,4918.186h-3.869v-28.8a21.1,21.1,0,0,1,21.077-21.077h50.116v3.869h-50.116a17.227,17.227,0,0,0-17.208,17.208Z" transform="translate(-4453.436 -4868.309)" fill="#fff"/></g><g transform="translate(340.142 116.782)"><path d="M4845.132,5041.329A62.137,62.137,0,0,0,4783,5103.466h124.274A62.137,62.137,0,0,0,4845.132,5041.329Z" transform="translate(-4782.995 -5041.329)" fill="#3d6833"/></g><g transform="translate(250.043 0.408)"><path d="M4805.553,4887.932h-3.868V4837.55a10.374,10.374,0,0,0-10.362-10.362h-40.845a10.373,10.373,0,0,0-10.361,10.362,14.246,14.246,0,0,1-14.23,14.229H4610.895a14.245,14.245,0,0,1-14.229-14.229v-36.888h3.868v36.888a10.374,10.374,0,0,0,10.361,10.361h114.992a10.374,10.374,0,0,0,10.361-10.361,14.247,14.247,0,0,1,14.23-14.23h40.845a14.247,14.247,0,0,1,14.23,14.23Z" transform="translate(-4596.666 -4800.662)" fill="#fff"/></g><g transform="translate(67.452 0.408)"><path d="M4334.1,4915.445h-95.357a19.7,19.7,0,0,1-19.684-19.684v-95.1h3.869v95.1a15.834,15.834,0,0,0,15.815,15.816H4334.1Z" transform="translate(-4219.057 -4800.662)" fill="#fff"/></g><g transform="translate(-34.263 177.824)"><path d="M0,0H127.845a0,0,0,0,1,0,0V49.737a0,0,0,0,1,0,0H49.737A49.737,49.737,0,0,1,0,0V0A0,0,0,0,1,0,0Z" fill="#d8d8d8"/></g><g transform="translate(308.174 101.764)"><rect width="83.386" height="91.981" fill="#fff"/></g><g transform="translate(93.582 162.14)"><path d="M31.606,0H297.977a0,0,0,0,1,0,0V31.606a0,0,0,0,1,0,0H0a0,0,0,0,1,0,0v0A31.606,31.606,0,0,1,31.606,0Z" fill="#fff"/></g><g transform="translate(70.89 448.442)"><circle cx="6.239" cy="6.239" r="6.239" transform="translate(1.935 1.934)" fill="#fff"/><path d="M4234.343,5743.568a8.174,8.174,0,1,1,8.174-8.174A8.183,8.183,0,0,1,4234.343,5743.568Zm0-12.479a4.3,4.3,0,1,0,4.305,4.3A4.31,4.31,0,0,0,4234.343,5731.089Z" transform="translate(-4226.169 -5727.22)"/></g><g transform="translate(85.275 97.896)"><path d="M4414.184,5366l-158.266-1.139.056-7.737,150.473,1.084v-88.926a17.168,17.168,0,0,1,16.916-17.107l89.53-1.009v57.1h47.319v-42.217a14.861,14.861,0,0,1,14.844-14.844h61.9V5147.188a11.425,11.425,0,0,0-11.412-11.413H4260.356v-43.2a29.983,29.983,0,0,1,29.949-29.949h188.514v-60.351h85.756v78.233h96.781v7.737H4556.839v-78.233h-70.283v60.351H4290.305a22.238,22.238,0,0,0-22.212,22.212v35.467h357.449a19.17,19.17,0,0,1,19.148,19.149v111.759h-69.635a7.115,7.115,0,0,0-7.107,7.107v49.954h-62.793v-57.017l-81.706.92a9.4,9.4,0,0,0-9.266,9.372Z" transform="translate(-4255.918 -5002.273)"/></g><g transform="translate(480.706 170.651)"><circle cx="6.239" cy="6.239" r="6.239" transform="translate(1.934 1.934)" fill="#fff"/><path d="M5081.861,5169.08a8.173,8.173,0,1,1,8.174-8.174A8.183,8.183,0,0,1,5081.861,5169.08Zm0-12.478a4.3,4.3,0,1,0,4.306,4.3A4.309,4.309,0,0,0,5081.861,5156.6Z" transform="translate(-5073.688 -5152.733)"/></g><g transform="translate(388.599 98.118)" opacity="0.3"><path d="M4889.01,5002.731l22.174,79.423-27.858.041-.118-79.455Z" transform="translate(-4883.207 -5002.731)"/></g><g transform="translate(336.448 347.309)" opacity="0.3"><path d="M4781.158,5518.071l22.181,61.879-27.858.057-.125-61.924Z" transform="translate(-4775.355 -5518.071)"/></g><g transform="translate(161.895 81.435)"><g transform="translate(42.568 44.295)"><circle cx="9.885" cy="9.885" r="9.885" transform="translate(2.901 2.901)" fill="#fff"/><path d="M4515.189,5085.407a12.786,12.786,0,1,1,12.786-12.787A12.8,12.8,0,0,1,4515.189,5085.407Zm0-19.77a6.983,6.983,0,1,0,6.983,6.983A6.991,6.991,0,0,0,4515.189,5065.637Z" transform="translate(-4502.403 -5059.835)" fill="#ed8ee2"/></g><g transform="translate(91.147 44.295)"><circle cx="9.885" cy="9.885" r="9.885" transform="translate(2.901 2.901)" fill="#fff"/><path d="M4615.653,5085.407a12.786,12.786,0,1,1,12.787-12.787A12.8,12.8,0,0,1,4615.653,5085.407Zm0-19.77a6.983,6.983,0,1,0,6.983,6.983A6.991,6.991,0,0,0,4615.653,5065.637Z" transform="translate(-4602.868 -5059.835)" fill="#ed8ee2"/></g><g transform="translate(31.774)"><path d="M4566.562,5028.41h-66.245a14.235,14.235,0,0,1-14.236-14.236v-25.708a14.236,14.236,0,0,1,14.236-14.236h51.263a14.236,14.236,0,0,1,12.3,7.069l14.983,25.708A14.236,14.236,0,0,1,4566.562,5028.41Z" transform="translate(-4483.18 -4971.328)" fill="#3d6833"/><path d="M4563.463,5028.212h-66.245a17.157,17.157,0,0,1-17.137-17.138v-25.708a17.157,17.157,0,0,1,17.137-17.138h51.263a17.194,17.194,0,0,1,14.806,8.509l14.983,25.708a17.138,17.138,0,0,1-14.806,25.767Zm-66.245-54.18a11.348,11.348,0,0,0-11.334,11.335v25.708a11.348,11.348,0,0,0,11.334,11.335h66.245a11.334,11.334,0,0,0,9.793-17.042l-14.982-25.708a11.373,11.373,0,0,0-9.793-5.628Z" transform="translate(-4480.081 -4968.229)"/></g><path d="M4500.853,5028.41h-66.245a14.235,14.235,0,0,1-14.236-14.236v-25.708a14.236,14.236,0,0,1,14.236-14.236h51.262a14.238,14.238,0,0,1,12.3,7.069l14.982,25.708A14.235,14.235,0,0,1,4500.853,5028.41Z" transform="translate(-4417.47 -4971.328)" fill="#ed8ee2"/><path d="M4497.754,5028.212h-66.245a17.157,17.157,0,0,1-17.138-17.138v-25.708a17.157,17.157,0,0,1,17.138-17.138h51.262a17.192,17.192,0,0,1,14.806,8.509l14.983,25.708a17.138,17.138,0,0,1-14.806,25.767Zm-66.245-54.18a11.348,11.348,0,0,0-11.335,11.335v25.708a11.348,11.348,0,0,0,11.335,11.335h66.245a11.335,11.335,0,0,0,9.793-17.042l-14.983-25.708a11.374,11.374,0,0,0-9.793-5.628Z" transform="translate(-4414.371 -4968.229)"/><g transform="translate(10.794 44.295)"><circle cx="9.885" cy="9.885" r="9.885" transform="translate(2.901 2.901)" fill="#fff"/><path d="M4449.479,5085.407a12.786,12.786,0,1,1,12.787-12.787A12.8,12.8,0,0,1,4449.479,5085.407Zm0-19.77a6.983,6.983,0,1,0,6.983,6.983A6.991,6.991,0,0,0,4449.479,5065.637Z" transform="translate(-4436.694 -5059.835)"/></g><g transform="translate(59.374 44.295)"><circle cx="9.885" cy="9.885" r="9.885" transform="translate(2.901 2.901)" fill="#fff"/><path d="M4549.945,5085.407a12.786,12.786,0,1,1,12.786-12.787A12.8,12.8,0,0,1,4549.945,5085.407Zm0-19.77a6.983,6.983,0,1,0,6.983,6.983A6.991,6.991,0,0,0,4549.945,5065.637Z" transform="translate(-4537.16 -5059.835)"/></g><g transform="translate(13.695 13.993)"><path d="M4502.731,5013.167h-56.765a3.273,3.273,0,0,1-3.272-3.273v-9.453a3.273,3.273,0,0,1,3.272-3.273h52.942a3.273,3.273,0,0,1,3.034,2.045l3.822,9.453A3.273,3.273,0,0,1,4502.731,5013.167Z" transform="translate(-4442.694 -4997.169)" fill="#fff"/></g><g transform="translate(102.547 40.632)"><circle cx="2.948" cy="2.948" r="2.948" fill="#fff"/></g><g transform="translate(119.128 40.632)"><circle cx="2.948" cy="2.948" r="2.948" fill="#fff"/></g></g><g transform="translate(414.645 272.008)"><g transform="translate(2.901 2.901)"><path d="M4974.953,5368.346a31.883,31.883,0,1,0,0,63.766v1.466a15.941,15.941,0,0,0,15.941,15.941h0a15.941,15.941,0,0,0,15.942-15.941v-33.349A31.884,31.884,0,0,0,4974.953,5368.346Z" transform="translate(-4943.07 -5368.346)" fill="#fff"/></g><path d="M4987.8,5449.322A18.866,18.866,0,0,1,4969,5431.8a34.784,34.784,0,1,1,37.64-34.667v33.348A18.864,18.864,0,0,1,4987.8,5449.322Zm-15.941-81.174a28.981,28.981,0,1,0,0,57.963h2.9v4.367a13.041,13.041,0,1,0,26.081,0v-33.348A29.015,29.015,0,0,0,4971.854,5368.148Z" transform="translate(-4937.069 -5362.347)"/><g transform="translate(13.78 13.296)"><circle cx="21.488" cy="21.488" r="21.488" fill="#f7931e"/><g transform="translate(4.359 4.36)"><path d="M4976.517,5417.922a1.934,1.934,0,0,1-1.934-1.934,17.148,17.148,0,0,1,17.128-17.128,1.934,1.934,0,0,1,0,3.869,13.275,13.275,0,0,0-13.26,13.26A1.934,1.934,0,0,1,4976.517,5417.922Z" transform="translate(-4974.583 -5398.86)" fill="#fff"/></g></g></g><g transform="translate(414.443 36.106)" opacity="0.15"><circle cx="42.553" cy="42.553" r="42.553" fill="#fff"/></g><g transform="translate(425.793 47.456)" opacity="0.3"><circle cx="31.203" cy="31.203" r="31.203" fill="#fff"/></g><g transform="translate(437.361 59.024)"><circle cx="19.635" cy="19.635" r="19.635" fill="#fff"/></g><g transform="translate(345.998 53.329)"><rect width="7.737" height="46.626"/></g><g transform="translate(82.017 318.993)"><g transform="translate(64.05 55.739)"><path d="M0,0H41.82a0,0,0,0,1,0,0V0A15.937,15.937,0,0,1,25.882,15.937H0a0,0,0,0,1,0,0V0A0,0,0,0,1,0,0Z" transform="translate(2.901 2.901)" fill="#fff"/><path d="M4410.423,5596.524H4381.64v-21.74h47.622v2.9A18.86,18.86,0,0,1,4410.423,5596.524Zm-22.981-5.8h22.981a13.06,13.06,0,0,0,12.711-10.134h-35.692Z" transform="translate(-4381.64 -5574.784)"/></g><g transform="translate(19.374 42.845)"><g transform="translate(2.901 2.901)"><path d="M4310.771,5567.012v-12.894h-15.524v12.894h0a15.524,15.524,0,0,0,15.524,15.524h30.2v-15.524Z" transform="translate(-4295.247 -5554.118)" fill="#fff"/></g><path d="M4340.777,5582.338h-33.1a18.446,18.446,0,0,1-18.426-18.425v-15.8h21.327v12.894h30.2Zm-45.728-28.418v9.993a12.637,12.637,0,0,0,12.623,12.622h27.3v-9.721h-30.2V5553.92Z" transform="translate(-4289.247 -5548.118)"/></g><g transform="translate(66.951 86.967)"><path d="M4429.458,5664.129l-34.427,9.234-7.392-27.561,24-6.437,5.005,18.662Z" transform="translate(-4387.639 -5639.365)" fill="#3d6833"/></g><g transform="translate(32.359 93.31)"><path d="M4316.1,5681.018h35.645v-28.535H4326.9V5671.8Z" transform="translate(-4316.1 -5652.483)" fill="#3d6833"/></g><g transform="translate(43.157 55.845)"><path d="M24.847,0h0A24.847,24.847,0,0,1,49.693,24.847V37.466a0,0,0,0,1,0,0H0a0,0,0,0,1,0,0V24.847A24.847,24.847,0,0,1,24.847,0Z" fill="#ed8ee2"/></g><g transform="translate(56.967 25.528)"><circle cx="8.135" cy="8.135" r="8.135" transform="translate(2.901 2.901)" fill="#fff"/><path d="M4378.027,5534.378a11.036,11.036,0,1,1,11.037-11.036A11.049,11.049,0,0,1,4378.027,5534.378Zm0-16.27a5.234,5.234,0,1,0,5.234,5.234A5.239,5.239,0,0,0,4378.027,5518.108Z" transform="translate(-4366.991 -5512.306)"/></g><g transform="translate(19.751 24.395)"><path d="M4290.026,5522.7h4.568a12.738,12.738,0,0,0,12.738-12.738h0" transform="translate(-4290.026 -5509.963)" fill="#fff"/><path d="M4294.594,5525.6h-4.568v-5.8h4.568a9.848,9.848,0,0,0,9.836-9.837h5.8A15.657,15.657,0,0,1,4294.594,5525.6Z" transform="translate(-4290.026 -5509.963)"/></g><circle cx="11.671" cy="11.671" r="11.671" transform="translate(3.868 3.868)" fill="#3d6833"/><path d="M4264.72,5490.591a15.54,15.54,0,1,1,15.539-15.54A15.557,15.557,0,0,1,4264.72,5490.591Zm0-23.343a7.8,7.8,0,1,0,7.8,7.8A7.812,7.812,0,0,0,4264.72,5467.249Z" transform="translate(-4249.18 -5459.512)" fill="#ed8ee2"/><g transform="translate(108.771 55.739)"><rect width="19.189" height="5.803"/></g></g><g transform="translate(307.533 174.997)"><g transform="translate(2.419 35.18)"><circle cx="15.633" cy="15.633" r="15.633" transform="translate(2.901 2.901)" fill="#fff"/><path d="M4739.094,5271.544a18.535,18.535,0,1,1,18.534-18.535A18.556,18.556,0,0,1,4739.094,5271.544Zm0-31.267a12.732,12.732,0,1,0,12.732,12.732A12.746,12.746,0,0,0,4739.094,5240.277Z" transform="translate(-4720.559 -5234.475)" fill="#3d6833"/></g><g transform="translate(55.887 35.18)"><circle cx="15.633" cy="15.633" r="15.633" transform="translate(2.901 2.901)" fill="#fff"/><path d="M4849.668,5271.544a18.535,18.535,0,1,1,18.534-18.535A18.556,18.556,0,0,1,4849.668,5271.544Zm0-31.267a12.732,12.732,0,1,0,12.731,12.732A12.746,12.746,0,0,0,4849.668,5240.277Z" transform="translate(-4831.134 -5234.475)" fill="#3d6833"/></g><g transform="translate(18.062 21.975)"><path d="M4809.268,5240.112a2.9,2.9,0,0,1-2.784-2.092l-3.278-11.266a19.226,19.226,0,0,0-18.367-13.785h-26.125v24.241a2.9,2.9,0,0,1-5.8,0v-30.044h31.929a25.058,25.058,0,0,1,23.939,17.968l3.277,11.266a2.9,2.9,0,0,1-2.787,3.712Z" transform="translate(-4752.91 -5207.166)" fill="#ed8ee2"/></g><g transform="translate(18.062 9.107)"><rect width="5.803" height="20.609" fill="#ed8ee2"/></g><path d="M4744.353,5174.853h-15.664a13.147,13.147,0,0,1-13.132-13.132h5.8a7.337,7.337,0,0,0,7.329,7.329h15.664a7.338,7.338,0,0,0,7.329-7.329h5.8A13.147,13.147,0,0,1,4744.353,5174.853Z" transform="translate(-4715.557 -5161.721)" fill="#ed8ee2"/><g transform="translate(12.78 17.156)"><circle cx="6.239" cy="6.239" r="6.239" transform="translate(1.934 1.934)" fill="#fff"/><path d="M4750.159,5213.548a8.174,8.174,0,1,1,8.173-8.174A8.183,8.183,0,0,1,4750.159,5213.548Zm0-12.479a4.305,4.305,0,1,0,4.305,4.305A4.31,4.31,0,0,0,4750.159,5201.069Z" transform="translate(-4741.985 -5197.201)" fill="#ed8ee2"/></g></g><g transform="translate(93.395 68.014)"><circle cx="25.576" cy="25.576" r="25.576" transform="translate(2.902 2.901)" fill="#d8d8d8"/><path d="M4301.187,4997.428a28.477,28.477,0,1,1,28.477-28.477A28.509,28.509,0,0,1,4301.187,4997.428Zm0-51.151a22.674,22.674,0,1,0,22.674,22.674A22.7,22.7,0,0,0,4301.187,4946.277Z" transform="translate(-4272.709 -4940.475)"/><g transform="translate(25.576 2.901)"><rect width="5.803" height="88.948"/></g><g transform="translate(28.673 15.075)"><rect width="25.576" height="2.901" transform="translate(0 16.234) rotate(-39.4)"/></g><g transform="translate(27.556 24.257)"><rect width="32.326" height="2.901" transform="translate(0 20.518) rotate(-39.4)"/></g><g transform="translate(7.794 10.152)"><rect width="2.901" height="25.576" transform="translate(0 2.242) rotate(-50.595)"/></g><g transform="translate(2.579 17.631)"><rect width="2.901" height="32.326" transform="translate(0 2.242) rotate(-50.595)"/></g></g><g transform="translate(74.01 246.422)"><g transform="translate(0 0.799)"><path d="M4249.664,5325.534h-2.594a14.467,14.467,0,0,1-14.45-14.45h5.8a8.658,8.658,0,0,0,8.647,8.647h2.594Z" transform="translate(-4232.62 -5311.084)"/></g><g transform="translate(14.383)"><rect width="75.172" height="34.487" rx="17.244" transform="translate(78.073 37.389) rotate(-180)" fill="#fff"/><path d="M4329.678,5349.721h-53.651a13.677,13.677,0,0,1-13.662-13.662v-12.966a13.677,13.677,0,0,1,13.662-13.662h53.651a13.678,13.678,0,0,1,13.662,13.662v12.966A13.677,13.677,0,0,1,4329.678,5349.721Zm-53.651-34.487a7.869,7.869,0,0,0-7.859,7.859v12.966a7.868,7.868,0,0,0,7.859,7.859h53.651a7.867,7.867,0,0,0,7.859-7.859v-12.966a7.868,7.868,0,0,0-7.859-7.859Z" transform="translate(-4262.365 -5309.431)"/></g><g transform="translate(62.967 19.862)"><path d="M0,0H23.432a4.152,4.152,0,0,1,4.152,4.152v0A4.152,4.152,0,0,1,23.432,8.3H0a0,0,0,0,1,0,0V0A0,0,0,0,1,0,0Z" transform="translate(27.584 8.303) rotate(-180)"/></g><g transform="translate(67.969 10.673)"><circle cx="3.868" cy="3.868" r="3.868"/></g><g transform="translate(78.695 10.673)"><circle cx="3.868" cy="3.868" r="3.868"/></g><g transform="translate(49.3 2.901)"><path d="M5.326,0h0a5.326,5.326,0,0,1,5.326,5.326V17.244a0,0,0,0,1,0,0H0a0,0,0,0,1,0,0V5.326A5.326,5.326,0,0,1,5.326,0Z" transform="translate(10.653 17.244) rotate(-180)"/></g><g transform="translate(73.858 34.487)"><line y2="12.46" transform="translate(2.901 2.902)" fill="#fff"/><path d="M4388.263,5399.015a2.9,2.9,0,0,1-2.9-2.9v-12.46a2.9,2.9,0,0,1,5.8,0v12.46A2.9,2.9,0,0,1,4388.263,5399.015Z" transform="translate(-4385.361 -5380.752)"/></g><g transform="translate(61.853 34.487)"><line y2="12.46" transform="translate(2.902 2.902)" fill="#fff"/><path d="M4363.438,5399.015a2.9,2.9,0,0,1-2.9-2.9v-12.46a2.9,2.9,0,0,1,5.8,0v12.46A2.9,2.9,0,0,1,4363.438,5399.015Z" transform="translate(-4360.536 -5380.752)"/></g><g transform="translate(14.383 34.487)"><line y2="12.46" transform="translate(2.901 2.902)" fill="#fff"/><path d="M4265.266,5399.015a2.9,2.9,0,0,1-2.9-2.9v-12.46a2.9,2.9,0,0,1,5.8,0v12.46A2.9,2.9,0,0,1,4265.266,5399.015Z" transform="translate(-4262.365 -5380.752)"/></g><g transform="translate(27.373 34.487)"><line y2="12.46" transform="translate(2.901 2.902)" fill="#fff"/><path d="M4292.13,5399.015a2.9,2.9,0,0,1-2.9-2.9v-12.46a2.9,2.9,0,0,1,5.8,0v12.46A2.9,2.9,0,0,1,4292.13,5399.015Z" transform="translate(-4289.229 -5380.752)"/></g><g transform="translate(14.383 25.678)"><path d="M4268.365,5362.534v11.71h9.069a11.71,11.71,0,0,0,11.711-11.71h0" transform="translate(-4265.464 -5362.534)" fill="#fff"/><path d="M4274.335,5377.146h-11.97v-14.612h5.8v8.809h6.168a8.819,8.819,0,0,0,8.81-8.809h5.8A14.628,14.628,0,0,1,4274.335,5377.146Z" transform="translate(-4262.365 -5362.534)"/></g></g><g transform="translate(211.135 292.636)"><path d="M4560.21,5413.006a2.6,2.6,0,0,1,2.314,3.775l-12.84,25.213-3.86,7.577a2.6,2.6,0,0,1-4.628,0l-16.7-32.79a2.6,2.6,0,0,1,2.313-3.775Z" transform="translate(-4520.337 -5409.138)" fill="#d8d8d8"/><path d="M4539.375,5450.726h0a6.437,6.437,0,0,1-5.76-3.531l-16.7-32.789a6.465,6.465,0,0,1,5.761-9.4h33.4a6.465,6.465,0,0,1,5.761,9.4l-16.7,32.791A6.436,6.436,0,0,1,4539.375,5450.726Zm-14.627-37.983,14.627,28.716L4554,5412.743Z" transform="translate(-4516.202 -5405.006)" fill="#d8d8d8"/></g><g transform="translate(212.103 283.926)"><path d="M4560.21,5392.99a2.6,2.6,0,0,1,2.314,3.775l-12.84,25.213-3.86,7.577a2.6,2.6,0,0,1-4.628,0l-16.7-32.79a2.6,2.6,0,0,1,2.313-3.775Z" transform="translate(-4521.305 -5390.089)" fill="#fff"/><path d="M4540.409,5430.776h0a5.475,5.475,0,0,1-4.9-3l-16.7-32.79a5.5,5.5,0,0,1,4.9-7.993h33.4a5.5,5.5,0,0,1,4.9,7.993l-16.7,32.79A5.475,5.475,0,0,1,4540.409,5430.776Zm-16.2-37.982,16.2,31.813,16.2-31.813Z" transform="translate(-4518.205 -5386.991)"/></g><g transform="translate(213.316 186.164)"><g transform="translate(2.901)"><circle cx="18.088" cy="18.088" r="18.088" fill="#3d6833"/></g><g transform="translate(0 25.52)"><g transform="translate(1.451 1.45)"><path d="M4543.252,5279.668a19.539,19.539,0,1,1,19.538-19.539A19.561,19.561,0,0,1,4543.252,5279.668Z" transform="translate(-4523.713 -5240.59)" fill="#ed8ee2"/></g><path d="M4541.7,5240.492a18.088,18.088,0,1,1-18.089,18.088,18.089,18.089,0,0,1,18.089-18.088m0-2.9a20.99,20.99,0,1,0,20.989,20.989,21.013,21.013,0,0,0-20.989-20.989Z" transform="translate(-4520.713 -5237.591)" fill="#fff"/></g><g transform="translate(6.787 32.307)"><path d="M4536.2,5267.28a1.45,1.45,0,0,1-1.45-1.45,14.218,14.218,0,0,1,14.2-14.2,1.45,1.45,0,1,1,0,2.9,11.314,11.314,0,0,0-11.3,11.3A1.45,1.45,0,0,1,4536.2,5267.28Z" transform="translate(-4534.75 -5251.627)" fill="#fff"/></g><g transform="translate(6.787 4.398)"><path d="M4536.2,5209.563a1.45,1.45,0,0,1-1.45-1.451,14.218,14.218,0,0,1,14.2-14.2,1.45,1.45,0,1,1,0,2.9,11.314,11.314,0,0,0-11.3,11.3A1.45,1.45,0,0,1,4536.2,5209.563Z" transform="translate(-4534.75 -5193.91)" fill="#fff"/></g></g><g transform="translate(113.688 153.089)"><circle cx="6.239" cy="6.239" r="6.239" transform="translate(1.934 1.934)" fill="#fff"/><path d="M4322.849,5132.762a8.173,8.173,0,1,1,8.174-8.173A8.183,8.183,0,0,1,4322.849,5132.762Zm0-12.479a4.306,4.306,0,1,0,4.306,4.306A4.311,4.311,0,0,0,4322.849,5120.283Z" transform="translate(-4314.676 -5116.415)"/></g><g transform="translate(335.539 123.194)"><line x2="28.748" fill="#fff" stroke="#939393" stroke-miterlimit="10" stroke-width="8"/><line x2="28.748" transform="translate(0 13.527)" fill="#fff" stroke="#939393" stroke-miterlimit="10" stroke-width="8"/><line x2="28.748" transform="translate(0 27.054)" fill="#fff" stroke="#939393" stroke-miterlimit="10" stroke-width="8"/></g><g transform="translate(478.209 123.475)"><circle cx="2.507" cy="2.507" r="2.507" fill="#fff"/><g transform="translate(16.326)"><circle cx="2.507" cy="2.507" r="2.507" fill="#fff"/></g><g transform="translate(7.491 13.987)"><circle cx="2.507" cy="2.507" r="2.507" fill="#fff"/></g></g><g transform="translate(111.919 39.342)"><g transform="translate(16.326 13.987)"><circle cx="2.507" cy="2.507" r="2.507" fill="#fff"/></g><g transform="translate(0 13.987)"><circle cx="2.507" cy="2.507" r="2.507" fill="#fff"/></g><g transform="translate(8.835)"><circle cx="2.507" cy="2.507" r="2.507" fill="#fff"/></g></g><g transform="translate(56.936 168.154)"><g transform="translate(0 16.326)"><circle cx="2.507" cy="2.507" r="2.507" fill="#fff"/></g><circle cx="2.507" cy="2.507" r="2.507" fill="#fff"/><g transform="translate(13.987 8.835)"><circle cx="2.507" cy="2.507" r="2.507" fill="#fff"/></g></g><g transform="translate(307.36 342.5)"><circle cx="6.239" cy="6.239" r="6.239" transform="translate(1.934 1.934)" fill="#fff"/><path d="M4723.373,5524.473a8.173,8.173,0,1,1,8.173-8.173A8.183,8.183,0,0,1,4723.373,5524.473Zm0-12.479a4.306,4.306,0,1,0,4.3,4.306A4.31,4.31,0,0,0,4723.373,5511.994Z" transform="translate(-4715.199 -5508.126)"/></g><g transform="translate(270.474 391.275)"><g transform="translate(104.706 9.773)" opacity="0.3"><path d="M4858.477,5629.208l15.643,55.124-18.538.042-.126-55.16Z" transform="translate(-4855.455 -5629.208)"/></g><g transform="translate(55.121 3.868)"><path d="M4801.892,5660.956l-48.98,24.2v-58.546a9.61,9.61,0,0,1,9.61-9.61h29.76a9.61,9.61,0,0,1,9.61,9.61Z" transform="translate(-4752.911 -5616.996)" fill="#fff"/></g><g transform="translate(8.173)"><path d="M4705.419,5691.128h-49.6v-7.737h41.861v-64.135a10.272,10.272,0,0,1,10.26-10.26h37.414a10.272,10.272,0,0,1,10.261,10.26v49.617h67.1v7.737h-74.841v-57.354a2.527,2.527,0,0,0-2.524-2.523h-37.414a2.526,2.526,0,0,0-2.523,2.523Z" transform="translate(-4655.821 -5608.996)"/></g><g transform="translate(0 70.09)"><circle cx="6.239" cy="6.239" r="6.239" transform="translate(1.934 1.934)" fill="#fff"/><path d="M4647.091,5770.293a8.173,8.173,0,1,1,8.173-8.173A8.182,8.182,0,0,1,4647.091,5770.293Zm0-12.478a4.305,4.305,0,1,0,4.3,4.305A4.31,4.31,0,0,0,4647.091,5757.815Z" transform="translate(-4638.918 -5753.947)"/></g><g transform="translate(173.14 55.573)"><circle cx="6.239" cy="6.239" r="6.239" transform="translate(1.934 1.934)" fill="#fff"/><path d="M5005.154,5740.27a8.173,8.173,0,1,1,8.174-8.173A8.183,8.183,0,0,1,5005.154,5740.27Zm0-12.479a4.305,4.305,0,1,0,4.306,4.306A4.31,4.31,0,0,0,5005.154,5727.791Z" transform="translate(-4996.981 -5723.923)"/></g><g transform="translate(70.595 28.167)"><rect width="17.155" height="17.155" rx="8.578" fill="#3d6833"/></g></g><g transform="translate(265.828 373.25)"><rect width="10.955" height="10.955" fill="#ed8ee2"/></g><g transform="translate(291.309 373.25)"><rect width="10.955" height="10.955" fill="#ed8ee2"/></g><g transform="translate(291.309 395.42)"><rect width="10.955" height="10.955" fill="#ed8ee2"/></g><g transform="translate(341.693 41.418)"><circle cx="6.239" cy="6.239" r="6.239" transform="translate(1.934 1.934)" fill="#fff"/><path d="M4794.376,4901.82a8.174,8.174,0,1,1,8.173-8.174A8.183,8.183,0,0,1,4794.376,4901.82Zm0-12.479a4.3,4.3,0,1,0,4.3,4.3A4.31,4.31,0,0,0,4794.376,4889.342Z" transform="translate(-4786.202 -4885.473)"/></g><g transform="translate(332.943 68.981)"><rect width="33.941" height="3.868"/></g><g transform="translate(332.943 81.062)"><rect width="33.941" height="3.868"/></g><g transform="translate(195.469 257.802)"><g transform="translate(37.87 0)"><rect width="13.562" height="13.562" transform="translate(0 9.59) rotate(-45)" fill="#3d6833"/></g><g transform="translate(57.044 0)"><rect width="13.562" height="13.562" transform="translate(0 9.59) rotate(-45)" fill="#ed8ee2"/></g><g transform="translate(0 0)"><rect width="13.562" height="13.562" transform="translate(0 9.59) rotate(-45)" fill="#3d6833"/></g><g transform="translate(19.174 0)"><rect width="13.562" height="13.562" transform="translate(0 9.59) rotate(-45)" fill="#ed8ee2"/></g></g></g><path d="M4627.938,5012.941h-25.3l-9.219-15.772H4618.5Z" transform="translate(-265.382 -101.922)" fill="#ed8ee2"/></g></svg>