<svg xmlns="http://www.w3.org/2000/svg" viewBox="0 0 2059.9 1086.32"><defs><style>.cls-1{fill:#3d6833}.cls-2{fill:#629e51}.cls-3{fill:#fff}.cls-4{fill:#fbb03b}</style></defs><g id="Layer_2" data-name="Layer 2"><g id="Layer_5" data-name="Layer 5"><rect width="2059.9" height="1086.32" class="cls-1"/><circle cx="1069.98" cy="25.66" r="13.72" class="cls-2"/><circle cx="1110" cy="25.66" r="13.72" class="cls-2"/><circle cx="1150.03" cy="25.66" r="13.72" class="cls-2"/><circle cx="1029.95" cy="64.55" r="13.72" class="cls-2"/><circle cx="1069.98" cy="64.55" r="13.72" class="cls-2"/><circle cx="1110" cy="64.55" r="13.72" class="cls-2"/><circle cx="1150.03" cy="64.55" r="13.72" class="cls-2"/><circle cx="989.92" cy="104.57" r="13.72" class="cls-2"/><circle cx="1029.95" cy="104.57" r="13.72" class="cls-2"/><circle cx="1069.98" cy="104.57" r="13.72" class="cls-2"/><circle cx="1110" cy="104.57" r="13.72" class="cls-2"/><circle cx="989.92" cy="144.6" r="13.72" class="cls-2"/><circle cx="1029.95" cy="144.6" r="13.72" class="cls-2"/><circle cx="1069.98" cy="144.6" r="13.72" class="cls-2"/><circle cx="1110" cy="144.6" r="13.72" class="cls-2"/><circle cx="909.87" cy="184.63" r="13.72" class="cls-2"/><circle cx="989.92" cy="184.63" r="13.72" class="cls-2"/><circle cx="1029.95" cy="184.63" r="13.72" class="cls-2"/><circle cx="1069.98" cy="184.63" r="13.72" class="cls-2"/><circle cx="1110" cy="184.63" r="13.72" class="cls-3"/><circle cx="830.96" cy="224.66" r="13.72" class="cls-2"/><circle cx="870.98" cy="224.66" r="13.72" class="cls-2"/><circle cx="909.87" cy="224.66" r="13.72" class="cls-2"/><circle cx="949.9" cy="224.66" r="13.72" class="cls-2"/><circle cx="1029.95" cy="224.66" r="13.72" class="cls-2"/><circle cx="1069.98" cy="224.66" r="13.72" class="cls-2"/><circle cx="1110" cy="224.66" r="13.72" class="cls-2"/><circle cx="790.93" cy="264.68" r="13.72" class="cls-2"/><circle cx="830.96" cy="264.68" r="13.72" class="cls-2"/><circle cx="870.98" cy="264.68" r="13.72" class="cls-2"/><circle cx="909.87" cy="264.68" r="13.72" class="cls-2"/><circle cx="949.9" cy="264.68" r="13.72" class="cls-2"/><circle cx="989.92" cy="264.68" r="13.72" class="cls-2"/><circle cx="1029.95" cy="264.68" r="13.72" class="cls-2"/><circle cx="1069.98" cy="264.68" r="13.72" class="cls-2"/><circle cx="830.96" cy="303.57" r="13.72" class="cls-2"/><circle cx="870.98" cy="303.57" r="13.72" class="cls-2"/><circle cx="909.87" cy="303.57" r="13.72" class="cls-2"/><circle cx="949.9" cy="303.57" r="13.72" class="cls-2"/><circle cx="989.92" cy="303.57" r="13.72" class="cls-2"/><circle cx="1029.95" cy="303.57" r="13.72" class="cls-2"/><circle cx="1069.98" cy="303.57" r="13.72" class="cls-2"/><circle cx="750.9" cy="343.59" r="13.72" class="cls-2"/><circle cx="790.93" cy="343.59" r="13.72" class="cls-2"/><circle cx="949.9" cy="343.59" r="13.72" class="cls-2"/><circle cx="989.92" cy="343.59" r="13.72" class="cls-2"/><circle cx="1029.95" cy="343.59" r="13.72" class="cls-2"/><circle cx="1069.98" cy="343.59" r="13.72" class="cls-2"/><circle cx="1110" cy="343.59" r="13.72" class="cls-4"/><circle cx="710.88" cy="383.62" r="13.72" class="cls-2"/><circle cx="750.9" cy="383.62" r="13.72" class="cls-2"/><circle cx="790.93" cy="383.62" r="13.72" class="cls-2"/><circle cx="830.96" cy="383.62" r="13.72" class="cls-2"/><circle cx="870.98" cy="383.62" r="13.72" class="cls-2"/><circle cx="949.9" cy="383.62" r="13.72" class="cls-2"/><circle cx="989.92" cy="383.62" r="13.72" class="cls-2"/><circle cx="1029.95" cy="383.62" r="13.72" class="cls-2"/><circle cx="1069.98" cy="383.62" r="13.72" class="cls-2"/><circle cx="1110" cy="383.62" r="13.72" class="cls-2"/><circle cx="1150.03" cy="383.62" r="13.72" class="cls-2"/><circle cx="1188.92" cy="383.62" r="13.72" class="cls-2" transform="translate(619.81 1495.74) rotate(-80.78)"/><circle cx="551.91" cy="423.65" r="13.72" class="cls-3"/><circle cx="591.94" cy="423.65" r="13.72" class="cls-2"/><circle cx="631.96" cy="423.65" r="13.72" class="cls-2"/><circle cx="670.85" cy="423.65" r="13.72" class="cls-2"/><circle cx="750.9" cy="423.65" r="13.72" class="cls-2"/><circle cx="790.93" cy="423.65" r="13.72" class="cls-2"/><circle cx="830.96" cy="423.65" r="13.72" class="cls-2"/><circle cx="870.98" cy="423.65" r="13.72" class="cls-2"/><circle cx="949.9" cy="423.65" r="13.72" class="cls-2"/><circle cx="989.92" cy="423.65" r="13.72" class="cls-2"/><circle cx="1029.95" cy="423.65" r="13.72" class="cls-2"/><circle cx="1069.98" cy="423.65" r="13.72" class="cls-2"/><circle cx="1110" cy="423.65" r="13.72" class="cls-2"/><circle cx="1150.03" cy="423.65" r="13.72" class="cls-2"/><circle cx="1188.92" cy="423.65" r="13.72" class="cls-2" transform="translate(580.29 1529.35) rotate(-80.78)"/><circle cx="1228.94" cy="423.65" r="13.72" class="cls-2"/><circle cx="551.91" cy="463.68" r="13.72" class="cls-2"/><circle cx="591.94" cy="463.68" r="13.72" class="cls-2"/><circle cx="631.96" cy="463.68" r="13.72" class="cls-2"/><circle cx="670.85" cy="463.68" r="13.72" class="cls-2"/><circle cx="710.88" cy="463.68" r="13.72" class="cls-2"/><circle cx="750.9" cy="463.68" r="13.72" class="cls-2"/><circle cx="790.93" cy="463.68" r="13.72" class="cls-2"/><circle cx="830.96" cy="463.68" r="13.72" class="cls-2"/><circle cx="870.98" cy="463.68" r="13.72" class="cls-2"/><circle cx="909.87" cy="463.68" r="13.72" class="cls-2"/><circle cx="989.92" cy="463.68" r="13.72" class="cls-2"/><circle cx="1069.98" cy="463.68" r="13.72" class="cls-2"/><circle cx="1110" cy="463.68" r="13.72" class="cls-2"/><circle cx="1150.03" cy="463.68" r="13.72" class="cls-2"/><circle cx="1188.92" cy="463.68" r="13.72" class="cls-2" transform="translate(540.78 1562.97) rotate(-80.78)"/><circle cx="1228.94" cy="463.68" r="13.72" class="cls-2"/><circle cx="1268.97" cy="463.68" r="13.72" class="cls-2"/><circle cx="511.88" cy="503.7" r="13.72" class="cls-2" transform="matrix(0.03, -1, 1, 0.03, -8.58, 998.54)"/><circle cx="551.91" cy="503.7" r="13.72" class="cls-2"/><circle cx="591.94" cy="503.7" r="13.72" class="cls-2"/><circle cx="631.96" cy="503.7" r="13.72" class="cls-2"/><circle cx="670.85" cy="503.7" r="13.72" class="cls-2"/><circle cx="710.88" cy="503.7" r="13.72" class="cls-2"/><circle cx="750.9" cy="503.7" r="13.72" class="cls-2"/><circle cx="790.93" cy="503.7" r="13.72" class="cls-2"/><circle cx="830.96" cy="503.7" r="13.72" class="cls-2"/><circle cx="870.98" cy="503.7" r="13.72" class="cls-2"/><circle cx="949.9" cy="503.7" r="13.72" class="cls-2"/><circle cx="989.92" cy="503.7" r="13.72" class="cls-2"/><circle cx="1029.95" cy="503.7" r="13.72" class="cls-2"/><circle cx="1069.98" cy="503.7" r="13.72" class="cls-2"/><circle cx="1110" cy="503.7" r="13.72" class="cls-4"/><circle cx="1228.94" cy="503.7" r="13.72" class="cls-2"/><circle cx="1268.97" cy="503.7" r="13.72" class="cls-2"/><circle cx="1309" cy="503.7" r="13.72" class="cls-2"/><circle cx="511.88" cy="542.59" r="13.72" class="cls-2" transform="translate(-47.44 1036.13) rotate(-88.09)"/><circle cx="551.91" cy="542.59" r="13.72" class="cls-2"/><circle cx="591.94" cy="542.59" r="13.72" class="cls-2"/><circle cx="631.96" cy="542.59" r="13.72" class="cls-2"/><circle cx="670.85" cy="542.59" r="13.72" class="cls-2"/><circle cx="710.88" cy="542.59" r="13.72" class="cls-2"/><circle cx="750.9" cy="542.59" r="13.72" class="cls-2"/><circle cx="790.93" cy="542.59" r="13.72" class="cls-3"/><circle cx="830.96" cy="542.59" r="13.72" class="cls-2"/><circle cx="870.98" cy="542.59" r="13.72" class="cls-2"/><circle cx="909.87" cy="542.59" r="13.72" class="cls-2"/><circle cx="949.9" cy="542.59" r="13.72" class="cls-2"/><circle cx="989.92" cy="542.59" r="13.72" class="cls-2"/><circle cx="1029.95" cy="542.59" r="13.72" class="cls-2"/><circle cx="1069.98" cy="542.59" r="13.72" class="cls-2"/><circle cx="1110" cy="542.59" r="13.72" class="cls-2"/><circle cx="1228.94" cy="542.59" r="13.72" class="cls-2"/><circle cx="1268.97" cy="542.59" r="13.72" class="cls-2"/><circle cx="511.88" cy="582.61" r="13.72" class="cls-4" transform="translate(-87.44 1074.82) rotate(-88.09)"/><circle cx="551.91" cy="582.61" r="13.72" class="cls-2"/><circle cx="591.94" cy="582.61" r="13.72" class="cls-2"/><circle cx="631.96" cy="582.61" r="13.72" class="cls-2"/><circle cx="670.85" cy="582.61" r="13.72" class="cls-2"/><circle cx="710.88" cy="582.61" r="13.72" class="cls-2"/><circle cx="750.9" cy="582.61" r="13.72" class="cls-2"/><circle cx="790.93" cy="582.61" r="13.72" class="cls-2"/><circle cx="830.96" cy="582.61" r="13.72" class="cls-2"/><circle cx="870.98" cy="582.61" r="13.72" class="cls-2"/><circle cx="909.87" cy="582.61" r="13.72" class="cls-2"/><circle cx="949.9" cy="582.61" r="13.72" class="cls-2"/><circle cx="989.92" cy="582.61" r="13.72" class="cls-2"/><circle cx="1029.95" cy="582.61" r="13.72" class="cls-2"/><circle cx="1069.98" cy="582.61" r="13.72" class="cls-2"/><circle cx="1110" cy="582.61" r="13.72" class="cls-2"/><circle cx="1188.92" cy="582.61" r="13.72" class="cls-2" transform="translate(423.38 1662.85) rotate(-80.78)"/><circle cx="1228.94" cy="582.61" r="13.72" class="cls-2"/><circle cx="1268.97" cy="582.61" r="13.72" class="cls-2"/><circle cx="1309" cy="582.61" r="13.72" class="cls-2"/><circle cx="471.86" cy="622.64" r="13.72" class="cls-2"/><circle cx="511.88" cy="622.64" r="13.72" class="cls-2" transform="translate(-127.45 1113.52) rotate(-88.09)"/><circle cx="551.91" cy="622.64" r="13.72" class="cls-2"/><circle cx="591.94" cy="622.64" r="13.72" class="cls-2"/><circle cx="631.96" cy="622.64" r="13.72" class="cls-2"/><circle cx="670.85" cy="622.64" r="13.72" class="cls-2"/><circle cx="710.88" cy="622.64" r="13.72" class="cls-2"/><circle cx="750.9" cy="622.64" r="13.72" class="cls-2"/><circle cx="790.93" cy="622.64" r="13.72" class="cls-2"/><circle cx="830.96" cy="622.64" r="13.72" class="cls-2"/><circle cx="870.98" cy="622.64" r="13.72" class="cls-2"/><circle cx="909.87" cy="622.64" r="13.72" class="cls-2"/><circle cx="949.9" cy="622.64" r="13.72" class="cls-2"/><circle cx="989.92" cy="622.64" r="13.72" class="cls-2"/><circle cx="1029.95" cy="622.64" r="13.72" class="cls-2"/><circle cx="1069.98" cy="622.64" r="13.72" class="cls-4"/><circle cx="1110" cy="622.64" r="13.72" class="cls-2"/><circle cx="1150.03" cy="622.64" r="13.72" class="cls-2"/><circle cx="511.88" cy="662.67" r="13.72" class="cls-2" transform="translate(-167.45 1152.22) rotate(-88.09)"/><circle cx="551.91" cy="662.67" r="13.72" class="cls-2"/><circle cx="591.94" cy="662.67" r="13.72" class="cls-2"/><circle cx="631.96" cy="662.67" r="13.72" class="cls-2"/><circle cx="670.85" cy="662.67" r="13.72" class="cls-2"/><circle cx="710.88" cy="662.67" r="13.72" class="cls-2"/><circle cx="750.9" cy="662.67" r="13.72" class="cls-2"/><circle cx="790.93" cy="662.67" r="13.72" class="cls-2"/><circle cx="830.96" cy="662.67" r="13.72" class="cls-2"/><circle cx="870.98" cy="662.67" r="13.72" class="cls-3"/><circle cx="909.87" cy="662.67" r="13.72" class="cls-2"/><circle cx="949.9" cy="662.67" r="13.72" class="cls-2"/><circle cx="989.92" cy="662.67" r="13.72" class="cls-2"/><circle cx="1029.95" cy="662.67" r="13.72" class="cls-2"/><circle cx="1188.92" cy="662.67" r="13.72" class="cls-2" transform="translate(344.36 1730.08) rotate(-80.78)"/><circle cx="1228.94" cy="662.67" r="13.72" class="cls-2"/><circle cx="1268.97" cy="662.67" r="13.72" class="cls-2"/><circle cx="1349.02" cy="662.67" r="13.72" class="cls-3"/><circle cx="551.91" cy="702.7" r="13.72" class="cls-2"/><circle cx="591.94" cy="702.7" r="13.72" class="cls-2"/><circle cx="631.96" cy="702.7" r="13.72" class="cls-2"/><circle cx="670.85" cy="702.7" r="13.72" class="cls-2"/><circle cx="710.88" cy="702.7" r="13.72" class="cls-2"/><circle cx="750.9" cy="702.7" r="13.72" class="cls-2"/><circle cx="790.93" cy="702.7" r="13.72" class="cls-2"/><circle cx="830.96" cy="702.7" r="13.72" class="cls-2"/><circle cx="870.98" cy="702.7" r="13.72" class="cls-2"/><circle cx="909.87" cy="702.7" r="13.72" class="cls-2"/><circle cx="949.9" cy="702.7" r="13.72" class="cls-2"/><circle cx="989.92" cy="702.7" r="13.72" class="cls-2"/><circle cx="1188.92" cy="702.7" r="13.72" class="cls-2" transform="translate(304.85 1763.7) rotate(-80.78)"/><circle cx="1228.94" cy="702.7" r="13.72" class="cls-2"/><circle cx="1268.97" cy="702.7" r="13.72" class="cls-2"/><circle cx="1309" cy="702.7" r="13.72" class="cls-2"/><circle cx="1349.02" cy="702.7" r="13.72" class="cls-2"/><circle cx="1389.05" cy="702.7" r="13.72" class="cls-2"/><circle cx="551.91" cy="742.72" r="13.72" class="cls-2"/><circle cx="591.94" cy="742.72" r="13.72" class="cls-2"/><circle cx="631.96" cy="742.72" r="13.72" class="cls-4"/><circle cx="670.85" cy="742.72" r="13.72" class="cls-2"/><circle cx="710.88" cy="742.72" r="13.72" class="cls-2"/><circle cx="750.9" cy="742.72" r="13.72" class="cls-2"/><circle cx="790.93" cy="742.72" r="13.72" class="cls-2"/><circle cx="830.96" cy="742.72" r="13.72" class="cls-2"/><circle cx="870.98" cy="742.72" r="13.72" class="cls-2"/><circle cx="909.87" cy="742.72" r="13.72" class="cls-2"/><circle cx="949.9" cy="742.72" r="13.72" class="cls-2"/><circle cx="989.92" cy="742.72" r="13.72" class="cls-3"/><circle cx="1188.92" cy="742.72" r="13.72" class="cls-2" transform="translate(-193.73 511.51) rotate(-22.5)"/><circle cx="1228.94" cy="742.72" r="13.72" class="cls-2"/><circle cx="1268.97" cy="742.72" r="13.72" class="cls-2"/><circle cx="1309" cy="742.72" r="13.72" class="cls-2"/><circle cx="1349.02" cy="742.72" r="13.72" class="cls-2"/><circle cx="1389.05" cy="742.72" r="13.72" class="cls-2"/><circle cx="1427.94" cy="742.72" r="13.72" class="cls-2"/><circle cx="1467.96" cy="742.72" r="13.72" class="cls-2"/><circle cx="551.91" cy="782.75" r="13.72" class="cls-2"/><circle cx="591.94" cy="782.75" r="13.72" class="cls-2"/><circle cx="631.96" cy="782.75" r="13.72" class="cls-2"/><circle cx="670.85" cy="782.75" r="13.72" class="cls-2"/><circle cx="710.88" cy="782.75" r="13.72" class="cls-3"/><circle cx="750.9" cy="782.75" r="13.72" class="cls-2"/><circle cx="790.93" cy="782.75" r="13.72" class="cls-2"/><circle cx="830.96" cy="782.75" r="13.72" class="cls-2"/><circle cx="870.98" cy="782.75" r="13.72" class="cls-2"/><circle cx="909.87" cy="782.75" r="13.72" class="cls-2"/><circle cx="949.9" cy="782.75" r="13.72" class="cls-2"/><circle cx="989.92" cy="782.75" r="13.72" class="cls-2"/><circle cx="1029.95" cy="782.75" r="13.72" class="cls-2"/><circle cx="1069.98" cy="782.75" r="13.72" class="cls-2"/><circle cx="1228.94" cy="782.75" r="13.72" class="cls-2"/><circle cx="1268.97" cy="782.75" r="13.72" class="cls-2"/><circle cx="1309" cy="782.75" r="13.72" class="cls-2"/><circle cx="1349.02" cy="782.75" r="13.72" class="cls-2"/><circle cx="1389.05" cy="782.75" r="13.72" class="cls-2"/><circle cx="1427.94" cy="782.75" r="13.72" class="cls-2"/><circle cx="1467.96" cy="782.75" r="13.72" class="cls-2"/><circle cx="1507.99" cy="782.75" r="13.72" class="cls-2"/><circle cx="551.91" cy="821.63" r="13.72" class="cls-2"/><circle cx="591.94" cy="821.63" r="13.72" class="cls-2"/><circle cx="631.96" cy="821.63" r="13.72" class="cls-2"/><circle cx="670.85" cy="821.63" r="13.72" class="cls-2"/><circle cx="710.88" cy="821.63" r="13.72" class="cls-2"/><circle cx="750.9" cy="821.63" r="13.72" class="cls-2"/><circle cx="790.93" cy="821.63" r="13.72" class="cls-2"/><circle cx="830.96" cy="821.63" r="13.72" class="cls-2"/><circle cx="870.98" cy="821.63" r="13.72" class="cls-2"/><circle cx="909.87" cy="821.63" r="13.72" class="cls-2"/><circle cx="949.9" cy="821.63" r="13.72" class="cls-2"/><circle cx="989.92" cy="821.63" r="13.72" class="cls-2"/><circle cx="1029.95" cy="821.63" r="13.72" class="cls-2"/><circle cx="1069.98" cy="821.63" r="13.72" class="cls-2"/><circle cx="1110" cy="821.63" r="13.72" class="cls-2"/><circle cx="1150.03" cy="821.63" r="13.72" class="cls-2"/><circle cx="1228.94" cy="821.63" r="13.72" class="cls-2"/><circle cx="1268.97" cy="821.63" r="13.72" class="cls-2"/><circle cx="1309" cy="821.63" r="13.72" class="cls-2"/><circle cx="1349.02" cy="821.63" r="13.72" class="cls-2"/><circle cx="1389.05" cy="821.63" r="13.72" class="cls-2"/><circle cx="1427.94" cy="821.63" r="13.72" class="cls-2"/><circle cx="1467.96" cy="821.63" r="13.72" class="cls-4"/><circle cx="1507.99" cy="821.63" r="13.72" class="cls-2"/><circle cx="1548.02" cy="821.63" r="13.72" class="cls-3"/><circle cx="591.94" cy="861.66" r="13.72" class="cls-2"/><circle cx="631.96" cy="861.66" r="13.72" class="cls-3"/><circle cx="670.85" cy="861.66" r="13.72" class="cls-2"/><circle cx="710.88" cy="861.66" r="13.72" class="cls-2"/><circle cx="750.9" cy="861.66" r="13.72" class="cls-2"/><circle cx="790.93" cy="861.66" r="13.72" class="cls-2"/><circle cx="830.96" cy="861.66" r="13.72" class="cls-2"/><circle cx="870.98" cy="861.66" r="13.72" class="cls-2"/><circle cx="909.87" cy="861.66" r="13.72" class="cls-2"/><circle cx="949.9" cy="861.66" r="13.72" class="cls-2"/><circle cx="989.92" cy="861.66" r="13.72" class="cls-2"/><circle cx="1029.95" cy="861.66" r="13.72" class="cls-2"/><circle cx="1069.98" cy="861.66" r="13.72" class="cls-2"/><circle cx="1110" cy="861.66" r="13.72" class="cls-2"/><circle cx="1150.03" cy="861.66" r="13.72" class="cls-2"/><circle cx="1228.94" cy="861.66" r="13.72" class="cls-2"/><circle cx="1268.97" cy="861.66" r="13.72" class="cls-2"/><circle cx="1309" cy="861.66" r="13.72" class="cls-3"/><circle cx="1349.02" cy="861.66" r="13.72" class="cls-2"/><circle cx="1389.05" cy="861.66" r="13.72" class="cls-2"/><circle cx="1427.94" cy="861.66" r="13.72" class="cls-2"/><circle cx="1507.99" cy="861.66" r="13.72" class="cls-2"/><circle cx="1548.02" cy="861.66" r="13.72" class="cls-2"/><circle cx="1588.04" cy="861.66" r="13.72" class="cls-2"/><circle cx="591.94" cy="901.69" r="13.72" class="cls-2"/><circle cx="631.96" cy="901.69" r="13.72" class="cls-2"/><circle cx="670.85" cy="901.69" r="13.72" class="cls-2"/><circle cx="710.88" cy="901.69" r="13.72" class="cls-2"/><circle cx="750.9" cy="901.69" r="13.72" class="cls-2"/><circle cx="790.93" cy="901.69" r="13.72" class="cls-2"/><circle cx="830.96" cy="901.69" r="13.72" class="cls-2"/><circle cx="870.98" cy="901.69" r="13.72" class="cls-2"/><circle cx="909.87" cy="901.69" r="13.72" class="cls-2"/><circle cx="949.9" cy="901.69" r="13.72" class="cls-2"/><circle cx="989.92" cy="901.69" r="13.72" class="cls-2"/><circle cx="1029.95" cy="901.69" r="13.72" class="cls-2"/><circle cx="1069.98" cy="901.69" r="13.72" class="cls-2"/><circle cx="1110" cy="901.69" r="13.72" class="cls-2"/><circle cx="1150.03" cy="901.69" r="13.72" class="cls-2"/><circle cx="1188.92" cy="901.69" r="13.72" class="cls-2" transform="translate(-254.56 523.62) rotate(-22.5)"/><circle cx="1228.94" cy="901.69" r="13.72" class="cls-2"/><circle cx="1268.97" cy="901.69" r="13.72" class="cls-2"/><circle cx="1309" cy="901.69" r="13.72" class="cls-2"/><circle cx="1349.02" cy="901.69" r="13.72" class="cls-2"/><circle cx="1389.05" cy="901.69" r="13.72" class="cls-2"/><circle cx="1427.94" cy="901.69" r="13.72" class="cls-2"/><circle cx="631.96" cy="941.72" r="13.72" class="cls-2"/><circle cx="670.85" cy="941.72" r="13.72" class="cls-2"/><circle cx="710.88" cy="941.72" r="13.72" class="cls-2"/><circle cx="750.9" cy="941.72" r="13.72" class="cls-2"/><circle cx="790.93" cy="941.72" r="13.72" class="cls-2"/><circle cx="830.96" cy="941.72" r="13.72" class="cls-2"/><circle cx="870.98" cy="941.72" r="13.72" class="cls-4"/><circle cx="909.87" cy="941.72" r="13.72" class="cls-2"/><circle cx="949.9" cy="941.72" r="13.72" class="cls-2"/><circle cx="989.92" cy="941.72" r="13.72" class="cls-3"/><circle cx="1029.95" cy="941.72" r="13.72" class="cls-2"/><circle cx="1029.95" cy="981.74" r="13.72" class="cls-2"/><circle cx="1069.98" cy="941.72" r="13.72" class="cls-2"/><circle cx="1110" cy="941.72" r="13.72" class="cls-2"/><circle cx="1150.03" cy="941.72" r="13.72" class="cls-2"/><circle cx="1188.92" cy="941.72" r="13.72" class="cls-2" transform="translate(-269.88 526.66) rotate(-22.5)"/><circle cx="1228.94" cy="941.72" r="13.72" class="cls-2"/><circle cx="1268.97" cy="941.72" r="13.72" class="cls-2"/><circle cx="1309" cy="941.72" r="13.72" class="cls-2"/><circle cx="1349.02" cy="941.72" r="13.72" class="cls-2"/><circle cx="1389.05" cy="941.72" r="13.72" class="cls-2"/><circle cx="1427.94" cy="941.72" r="13.72" class="cls-2"/><circle cx="1467.96" cy="941.72" r="13.72" class="cls-2"/><circle cx="1507.99" cy="941.72" r="13.72" class="cls-2"/><circle cx="1069.98" cy="981.74" r="13.72" class="cls-2"/><circle cx="1150.03" cy="981.74" r="13.72" class="cls-2"/><circle cx="1188.92" cy="981.74" r="13.72" class="cls-2" transform="translate(-285.2 529.71) rotate(-22.5)"/><circle cx="1228.94" cy="981.74" r="13.72" class="cls-3"/><circle cx="1268.97" cy="981.74" r="13.72" class="cls-2"/><circle cx="1309" cy="981.74" r="13.72" class="cls-2"/><circle cx="1349.02" cy="981.74" r="13.72" class="cls-2"/><circle cx="1427.94" cy="981.74" r="13.72" class="cls-2"/><circle cx="1228.94" cy="1021.77" r="13.72" class="cls-2"/><circle cx="1268.97" cy="1021.77" r="13.72" class="cls-2"/><circle cx="1188.92" cy="1060.65" r="13.72" class="cls-2" transform="translate(-315.39 535.72) rotate(-22.5)"/><circle cx="1228.94" cy="1060.65" r="13.72" class="cls-2"/></g></g></svg>