<svg xmlns="http://www.w3.org/2000/svg" xmlns:xlink="http://www.w3.org/1999/xlink" width="330.909" height="30.149" viewBox="0 0 330.909 30.149"><defs><clipPath id="a"><rect width="330.909" height="30.149" transform="translate(0 0)" fill="#3d6833"/></clipPath></defs><g transform="translate(0 0)"><path d="M66.822,10.474V24.18H62.253V10.474H58.5V6.6H70.575v3.87Z" fill="#fff"/><g clip-path="url(#a)"><path d="M70.878,18.095a5.815,5.815,0,0,1,.536-2.483,6.1,6.1,0,0,1,1.492-2,7.106,7.106,0,0,1,2.273-1.34,8.205,8.205,0,0,1,2.878-.49,8.311,8.311,0,0,1,2.855.478A7.085,7.085,0,0,1,83.2,13.588a5.975,5.975,0,0,1,1.5,2.028,6.208,6.208,0,0,1,.536,2.6,6.074,6.074,0,0,1-.549,2.6,6.153,6.153,0,0,1-1.5,2.028,6.72,6.72,0,0,1-2.3,1.317,8.773,8.773,0,0,1-2.9.466,8.391,8.391,0,0,1-2.844-.466,6.575,6.575,0,0,1-2.25-1.329,6.174,6.174,0,0,1-1.479-2.063,6.463,6.463,0,0,1-.536-2.669m4.453.046a2.7,2.7,0,0,0,.221,1.107,2.939,2.939,0,0,0,.583.874A2.544,2.544,0,0,0,77,20.71a2.783,2.783,0,0,0,2.121,0,2.573,2.573,0,0,0,.863-.583,2.936,2.936,0,0,0,.582-.874,2.643,2.643,0,0,0,.222-1.084,2.6,2.6,0,0,0-.222-1.061,2.936,2.936,0,0,0-.582-.874,2.587,2.587,0,0,0-.863-.583,2.783,2.783,0,0,0-2.121,0,2.559,2.559,0,0,0-.862.583,2.987,2.987,0,0,0-.583.862,2.5,2.5,0,0,0-.221,1.049" fill="#fff"/><path d="M91.881,30.149H87.662V12.219h4.219v1.329a4.454,4.454,0,0,1,3.683-1.7,5.735,5.735,0,0,1,2.389.5,6.092,6.092,0,0,1,1.923,1.363,6.205,6.205,0,0,1,1.27,2.028,6.8,6.8,0,0,1,.453,2.494,6.588,6.588,0,0,1-.453,2.471,6.369,6.369,0,0,1-1.26,2,5.764,5.764,0,0,1-4.277,1.841,4.981,4.981,0,0,1-3.73-1.539ZM97.2,18.237a2.856,2.856,0,0,0-.2-1.061,2.551,2.551,0,0,0-.571-.874,2.872,2.872,0,0,0-.875-.594,2.745,2.745,0,0,0-2.133-.011,2.591,2.591,0,0,0-.851.582,2.984,2.984,0,0,0-.583.874,2.6,2.6,0,0,0-.222,1.061,2.646,2.646,0,0,0,.211,1.049,2.588,2.588,0,0,0,.581.851,2.957,2.957,0,0,0,.875.583,2.585,2.585,0,0,0,1.061.221,2.625,2.625,0,0,0,1.049-.21,2.591,2.591,0,0,0,.851-.582,3,3,0,0,0,.582-.863,2.439,2.439,0,0,0,.222-1.026" fill="#fff"/><path d="M126.941,24.181h-5.689l-4.358-6.76v6.76h-4.569V6.605h7.11A6.978,6.978,0,0,1,122,7.036a4.828,4.828,0,0,1,2.879,2.9,6.014,6.014,0,0,1,.362,2.1,5.168,5.168,0,0,1-.968,3.252,4.873,4.873,0,0,1-2.856,1.69Zm-10.047-9.72h.861a3.331,3.331,0,0,0,2.076-.559,1.913,1.913,0,0,0,.722-1.609,1.913,1.913,0,0,0-.722-1.609,3.338,3.338,0,0,0-2.076-.561h-.861Z" fill="#fff"/><path d="M132,18.913q0,2.727,2.564,2.727a2.287,2.287,0,0,0,2.074-1.119h4.079q-1.234,4.1-6.176,4.1a8.113,8.113,0,0,1-2.774-.455,6.186,6.186,0,0,1-2.157-1.294,5.785,5.785,0,0,1-1.388-2,6.692,6.692,0,0,1-.488-2.611,7.387,7.387,0,0,1,.466-2.693,5.651,5.651,0,0,1,1.328-2.04,5.887,5.887,0,0,1,2.088-1.294,7.89,7.89,0,0,1,2.761-.454,7.732,7.732,0,0,1,2.728.454,5.534,5.534,0,0,1,2.052,1.317,5.755,5.755,0,0,1,1.282,2.11,8.4,8.4,0,0,1,.442,2.809v.443Zm4.942-2.448a2.551,2.551,0,0,0-.864-1.422,2.675,2.675,0,0,0-3.182-.023,2.305,2.305,0,0,0-.78,1.445Z" fill="#fff"/><path d="M152.3,16.092a3.9,3.9,0,0,0-2.215-.746,3.013,3.013,0,0,0-1.13.21,2.792,2.792,0,0,0-.921.594,2.729,2.729,0,0,0-.617.909,2.985,2.985,0,0,0-.221,1.177,2.926,2.926,0,0,0,.221,1.154,2.823,2.823,0,0,0,.606.909,2.635,2.635,0,0,0,.921.594,3.114,3.114,0,0,0,1.141.21,3.487,3.487,0,0,0,2.215-.816v3.59a7.456,7.456,0,0,1-2.96.676,6.981,6.981,0,0,1-2.481-.443,6.218,6.218,0,0,1-3.51-3.252,6.032,6.032,0,0,1-.535-2.576,6.431,6.431,0,0,1,.512-2.6,6.213,6.213,0,0,1,1.4-2.028,6.315,6.315,0,0,1,2.109-1.329,7.147,7.147,0,0,1,2.622-.478,6.27,6.27,0,0,1,2.844.653Z" fill="#fff"/><path d="M154.237,18.095a5.8,5.8,0,0,1,.536-2.483,6.1,6.1,0,0,1,1.491-2,7.11,7.11,0,0,1,2.274-1.34,8.2,8.2,0,0,1,2.877-.49,8.317,8.317,0,0,1,2.856.478,7.069,7.069,0,0,1,2.284,1.328,5.962,5.962,0,0,1,1.5,2.028,6.177,6.177,0,0,1,.536,2.6,6.074,6.074,0,0,1-.548,2.6,6.167,6.167,0,0,1-1.5,2.028,6.72,6.72,0,0,1-2.3,1.317,8.775,8.775,0,0,1-2.9.466,8.4,8.4,0,0,1-2.844-.466,6.584,6.584,0,0,1-2.25-1.329,6.174,6.174,0,0,1-1.479-2.063,6.463,6.463,0,0,1-.536-2.669m4.452.046a2.668,2.668,0,0,0,.221,1.107,2.939,2.939,0,0,0,.583.874,2.534,2.534,0,0,0,.862.583,2.78,2.78,0,0,0,2.12,0,2.553,2.553,0,0,0,.863-.583,2.92,2.92,0,0,0,.583-.874,2.644,2.644,0,0,0,.222-1.084,2.6,2.6,0,0,0-.222-1.061,2.92,2.92,0,0,0-.583-.874,2.578,2.578,0,0,0-.863-.583,2.78,2.78,0,0,0-2.12,0,2.559,2.559,0,0,0-.862.583,2.987,2.987,0,0,0-.583.862,2.5,2.5,0,0,0-.221,1.049" fill="#fff"/><path d="M173.725,12.222l2.845,6.131,2.889-6.131h4.71L177.946,24.18h-2.822l-6.155-11.958Z" fill="#fff"/><path d="M188.854,18.913q0,2.727,2.563,2.727a2.288,2.288,0,0,0,2.075-1.119h4.08q-1.236,4.1-6.176,4.1a8.11,8.11,0,0,1-2.775-.455,6.2,6.2,0,0,1-2.157-1.294,5.755,5.755,0,0,1-1.387-2,6.675,6.675,0,0,1-.49-2.611,7.388,7.388,0,0,1,.467-2.693,5.677,5.677,0,0,1,1.328-2.04,5.91,5.91,0,0,1,2.087-1.294,7.9,7.9,0,0,1,2.763-.454,7.73,7.73,0,0,1,2.727.454,5.53,5.53,0,0,1,2.051,1.317,5.715,5.715,0,0,1,1.282,2.11,8.355,8.355,0,0,1,.443,2.809v.443Zm4.941-2.448a2.544,2.544,0,0,0-.863-1.422,2.675,2.675,0,0,0-3.182-.023,2.316,2.316,0,0,0-.781,1.445Z" fill="#fff"/><path d="M200.136,12.222h4.22V14.18a4.836,4.836,0,0,1,1.654-1.644,4.45,4.45,0,0,1,2.284-.571h.363a2.579,2.579,0,0,1,.454.046v4.033a4.013,4.013,0,0,0-1.819-.42,2.714,2.714,0,0,0-2.2.874,3.862,3.862,0,0,0-.733,2.552v5.128h-4.22Z" fill="#fff"/><path d="M216.057,22.549l-5.78-10.327h4.9l3.194,6.131,3.1-6.131h4.85l-9.6,17.926h-4.731Z" fill="#fff"/><path d="M240.65,24.181h-4.569V6.605h7.271a6.219,6.219,0,0,1,4.533,1.538,5.78,5.78,0,0,1,1.575,4.336,5.78,5.78,0,0,1-1.575,4.336,6.22,6.22,0,0,1-4.533,1.539h-2.7Zm0-9.511h1.515q2.514,0,2.515-2.191t-2.515-2.192H240.65Z" fill="#fff"/><path d="M251.488,12.222h4.219V14.18a4.831,4.831,0,0,1,1.655-1.644,4.45,4.45,0,0,1,2.284-.571h.362a2.57,2.57,0,0,1,.454.046v4.033a4.012,4.012,0,0,0-1.818-.42,2.711,2.711,0,0,0-2.2.874,3.868,3.868,0,0,0-.734,2.552v5.128h-4.219Z" fill="#fff"/><path d="M261.977,18.095a5.83,5.83,0,0,1,.536-2.483,6.1,6.1,0,0,1,1.492-2,7.1,7.1,0,0,1,2.274-1.34,8.2,8.2,0,0,1,2.878-.49,8.309,8.309,0,0,1,2.854.478,7.074,7.074,0,0,1,2.285,1.328,5.962,5.962,0,0,1,1.5,2.028,6.192,6.192,0,0,1,.536,2.6,6.073,6.073,0,0,1-.548,2.6,6.181,6.181,0,0,1-1.5,2.028,6.73,6.73,0,0,1-2.3,1.317,8.774,8.774,0,0,1-2.9.466,8.385,8.385,0,0,1-2.843-.466,6.566,6.566,0,0,1-2.25-1.329,6.162,6.162,0,0,1-1.48-2.063,6.463,6.463,0,0,1-.536-2.669m4.453.046a2.7,2.7,0,0,0,.221,1.107,2.94,2.94,0,0,0,.583.874,2.554,2.554,0,0,0,.862.583,2.783,2.783,0,0,0,2.121,0,2.573,2.573,0,0,0,.863-.583,2.94,2.94,0,0,0,.583-.874,2.659,2.659,0,0,0,.221-1.084,2.6,2.6,0,0,0-.221-1.061,2.959,2.959,0,0,0-.583-.874,2.587,2.587,0,0,0-.863-.583,2.783,2.783,0,0,0-2.121,0,2.569,2.569,0,0,0-.862.583,3.028,3.028,0,0,0-.583.862,2.511,2.511,0,0,0-.221,1.049" fill="#fff"/><path d="M278.483,7.63a2.263,2.263,0,0,1,.185-.921,2.419,2.419,0,0,1,1.271-1.271,2.371,2.371,0,0,1,1.841,0,2.415,2.415,0,0,1,1.269,1.271,2.362,2.362,0,0,1,0,1.841,2.41,2.41,0,0,1-1.269,1.27,2.362,2.362,0,0,1-1.841,0,2.414,2.414,0,0,1-1.271-1.27,2.26,2.26,0,0,1-.185-.921m4.5,22.518h-4.219V12.222h4.22Z" fill="#fff"/><path d="M289.67,18.913q0,2.727,2.564,2.727a2.287,2.287,0,0,0,2.074-1.119h4.08q-1.234,4.1-6.176,4.1a8.129,8.129,0,0,1-2.778-.452,6.191,6.191,0,0,1-2.156-1.294,5.757,5.757,0,0,1-1.388-2,6.674,6.674,0,0,1-.489-2.611,7.366,7.366,0,0,1,.467-2.693,5.651,5.651,0,0,1,1.328-2.04,5.892,5.892,0,0,1,2.087-1.294,7.915,7.915,0,0,1,2.762-.454,7.732,7.732,0,0,1,2.728.454,5.53,5.53,0,0,1,2.051,1.317,5.741,5.741,0,0,1,1.282,2.11,8.379,8.379,0,0,1,.443,2.809v.443Zm4.942-2.448a2.549,2.549,0,0,0-.863-1.422,2.675,2.675,0,0,0-3.182-.023,2.311,2.311,0,0,0-.781,1.445Z" fill="#fff"/><path d="M309.974,16.092a3.9,3.9,0,0,0-2.215-.746,3.013,3.013,0,0,0-1.13.21,2.792,2.792,0,0,0-.921.594,2.729,2.729,0,0,0-.617.909,2.985,2.985,0,0,0-.221,1.177,2.927,2.927,0,0,0,.221,1.154,2.823,2.823,0,0,0,.606.909,2.635,2.635,0,0,0,.921.594,3.114,3.114,0,0,0,1.141.21,3.487,3.487,0,0,0,2.215-.816v3.59a7.456,7.456,0,0,1-2.961.676,6.981,6.981,0,0,1-2.481-.443,6.211,6.211,0,0,1-3.508-3.252,6.018,6.018,0,0,1-.536-2.576,6.431,6.431,0,0,1,.512-2.6,6.228,6.228,0,0,1,1.4-2.028,6.315,6.315,0,0,1,2.109-1.329,7.146,7.146,0,0,1,2.622-.478,6.271,6.271,0,0,1,2.844.653Z" fill="#fff"/><path d="M317.083,15.743v8.438h-4.219V15.743h-1.4V12.218h1.4V8.628h4.219v3.59h2.4v3.52Z" fill="#fff"/><path d="M329.111,15.3a4.935,4.935,0,0,0-2.284-.606,1.722,1.722,0,0,0-.945.233.717.717,0,0,0-.36.629.815.815,0,0,0,.058.338.588.588,0,0,0,.256.245,2.186,2.186,0,0,0,.583.21q.383.093,1.013.233a4.844,4.844,0,0,1,2.612,1.247,3.181,3.181,0,0,1,.863,2.3,4.169,4.169,0,0,1-.42,1.888,4.028,4.028,0,0,1-1.165,1.41,5.545,5.545,0,0,1-1.795.886,8.008,8.008,0,0,1-2.309.315,9.377,9.377,0,0,1-4.778-1.375l1.539-2.984a6.011,6.011,0,0,0,3.353,1.213,1.647,1.647,0,0,0,.956-.257.767.767,0,0,0,.373-.652,1.1,1.1,0,0,0-.058-.385.635.635,0,0,0-.245-.28,1.952,1.952,0,0,0-.548-.233c-.241-.067-.555-.14-.944-.221a5.4,5.4,0,0,1-2.739-1.177,2.915,2.915,0,0,1-.782-2.156,4.285,4.285,0,0,1,.373-1.806,3.762,3.762,0,0,1,1.073-1.364,5.043,5.043,0,0,1,1.69-.863,7.536,7.536,0,0,1,2.2-.3,10,10,0,0,1,3.848.769Z" fill="#fff"/><path d="M1.98,23.558,0,17.327l6.206,1.306,2.947-4.247,15.358,9.172Z" fill="#fff"/><path d="M34.966,6.217,31.33,23.558H17.694L14.057,6.217l5.229,2.467L24.508,0l5.229,8.684Z" fill="#ed8ee2"/><path d="M47.043,23.558l1.979-6.231-6.206,1.306-2.947-4.247L24.512,23.558Z" fill="#fbb03b"/></g></g></svg>