<svg width="282" height="28" viewBox="0 0 282 28" fill="none" xmlns="http://www.w3.org/2000/svg">
<g clip-path="url(#clip0)">
<path d="M0 26.4374H6.12489V17.7684H14.9294V11.7561H6.12489V7.56138H17.4814V1.54901H0V26.4374Z" fill="white"/>
<path d="M35.4732 16.0906C35.4732 17.4888 35.0904 18.6074 34.1972 19.5861C33.4316 20.5649 32.4108 20.9844 31.2624 20.9844C30.114 20.9844 29.0932 20.5649 28.3275 19.5861C27.5619 18.6074 27.0515 17.4888 27.0515 16.0906V1.54901H20.9266V16.0906C20.9266 19.1667 21.9475 21.8233 23.8615 23.9206C25.7755 26.018 28.3275 27.1365 31.2624 27.1365C34.1972 27.1365 36.7493 26.018 38.6633 23.9206C40.5773 21.8233 41.5981 19.1667 41.5981 16.0906V1.54901H35.4732V16.0906Z" fill="white"/>
<path d="M44.7883 7.56138H51.0408V26.4374H57.2932V7.56138H63.5457V1.54901H44.7883V7.56138Z" fill="white"/>
<path d="M81.2823 16.0906C81.2823 17.4888 80.8995 18.6074 80.0063 19.5861C79.2407 20.5649 78.2199 20.9844 77.0715 20.9844C75.9231 20.9844 74.9022 20.5649 74.1366 19.5861C73.371 18.6074 72.8606 17.4888 72.8606 16.0906V1.54901H66.7357V16.0906C66.7357 19.1667 67.7565 21.8233 69.6706 23.9206C71.5846 26.018 74.1366 27.1365 77.0715 27.1365C80.0063 27.1365 82.5583 26.018 84.4724 23.9206C86.3864 21.8233 87.4072 19.1667 87.4072 16.0906V1.54901H81.2823V16.0906Z" fill="white"/>
<path d="M107.951 17.0692C108.206 16.9294 108.461 16.6498 108.844 16.2303C109.227 15.8108 109.61 15.3914 109.993 14.8321C110.376 14.2728 110.758 13.5737 111.014 12.7347C111.269 11.8958 111.396 10.917 111.396 9.93829C111.396 7.56131 110.631 5.46397 109.099 3.78609C107.568 2.10822 105.527 1.26929 103.23 1.26929H92.5113V26.1577H98.6362V18.3276H101.826L105.782 26.1577H112.29L107.568 17.0692H107.951ZM104.506 11.8958C103.995 12.3153 103.485 12.5949 102.719 12.5949H98.5085V7.56131H102.719C103.485 7.56131 103.995 7.84095 104.506 8.26042C105.016 8.67989 105.144 9.379 105.144 10.0781C105.271 10.7772 105.016 11.3365 104.506 11.8958Z" fill="white"/>
<path d="M121.987 16.51H130.664V11.1968H121.987V7.28174H133.344V1.54901H115.735V26.4374H133.599V20.7047H121.987V16.51Z" fill="white"/>
<path d="M151.336 16.2304C153.25 16.2304 154.909 15.5313 156.312 14.133C157.716 12.7348 158.354 10.9171 158.354 8.95959C158.354 7.00207 157.716 5.18438 156.312 3.78615C154.909 2.38793 153.25 1.68881 151.336 1.68881C149.422 1.68881 147.763 2.38793 146.359 3.78615C144.956 5.18438 144.318 7.00207 144.318 8.95959C144.318 10.9171 144.956 12.7348 146.359 14.133C147.763 15.5313 149.422 16.2304 151.336 16.2304ZM148.784 6.16314C149.422 5.46402 150.315 5.04456 151.336 5.04456C152.357 5.04456 153.122 5.46402 153.888 6.16314C154.526 6.86225 154.909 7.84101 154.909 8.95959C154.909 10.0782 154.526 11.0569 153.888 11.756C153.25 12.4552 152.357 12.8746 151.336 12.8746C150.315 12.8746 149.549 12.4552 148.784 11.756C148.146 11.0569 147.763 10.0782 147.763 8.95959C147.763 7.84101 148.146 6.86225 148.784 6.16314Z" fill="white"/>
<path d="M160.523 15.9507H163.968V11.0569H168.817V7.70118H163.968V5.46402H170.221V2.10828H160.523V15.9507Z" fill="white"/>
<path d="M190.765 16.7897H194.338V19.4463L193.955 19.8658C193.7 20.1454 193.189 20.425 192.551 20.7047C191.913 20.9843 191.148 21.1242 190.382 21.1242C188.468 21.1242 186.937 20.425 185.788 19.0268C184.512 17.6286 183.874 15.9507 183.874 13.9932C183.874 12.0357 184.512 10.218 185.788 8.95959C187.064 7.56136 188.596 7.00207 190.382 7.00207C191.02 7.00207 191.786 7.14189 192.424 7.28171C193.062 7.42154 193.572 7.70118 194.082 7.98083C194.465 8.26047 194.848 8.54012 195.231 8.95959C195.614 9.37906 195.869 9.51888 195.996 9.6587C196.124 9.79852 196.124 9.93834 196.252 10.0782L199.952 5.74367L199.569 5.18438C199.314 4.90473 198.931 4.48526 198.421 3.92597C197.91 3.5065 197.272 2.94721 196.507 2.52775C195.741 2.10828 194.848 1.68881 193.827 1.26934C192.679 0.989698 191.53 0.710052 190.382 0.710052C186.809 0.710052 183.874 1.96846 181.45 4.62509C179.025 7.28172 177.749 10.3578 177.749 13.8534C177.749 17.3489 179.025 20.5649 181.45 23.0817C183.874 25.7383 186.937 26.9967 190.382 26.9967C191.658 26.9967 192.806 26.8569 193.955 26.4374C195.103 26.0179 195.996 25.7383 196.762 25.179C197.528 24.7595 198.166 24.2003 198.804 23.641C199.442 23.0817 199.825 22.6622 200.08 22.3826C200.335 22.1029 200.463 21.9631 200.463 21.8233V12.595H190.765V16.7897Z" fill="white"/>
<path d="M216.795 0.849854C213.223 0.849854 210.288 2.10826 207.863 4.76489C205.439 7.42152 204.163 10.4976 204.163 13.9932C204.163 17.4887 205.439 20.7047 207.863 23.2215C210.288 25.8781 213.35 27.1365 216.795 27.1365C220.368 27.1365 223.303 25.8781 225.728 23.2215C228.152 20.7047 229.428 17.4887 229.428 13.9932C229.428 10.4976 228.152 7.28169 225.728 4.76489C223.303 2.10826 220.241 0.849854 216.795 0.849854ZM221.261 19.0268C220.113 20.425 218.582 21.1241 216.795 21.1241C215.009 21.1241 213.478 20.425 212.329 19.0268C211.053 17.6286 210.543 15.9507 210.543 13.9932C210.543 12.0357 211.181 10.218 212.329 8.95957C213.605 7.56134 215.009 7.00205 216.795 7.00205C218.582 7.00205 220.113 7.70116 221.261 8.95957C222.41 10.218 223.048 12.0357 223.048 13.9932C223.048 15.9507 222.537 17.7684 221.261 19.0268Z" fill="white"/>
<path d="M244.613 0.849854C241.04 0.849854 238.105 2.10826 235.681 4.76489C233.256 7.42152 231.98 10.4976 231.98 13.9932C231.98 17.4887 233.256 20.7047 235.681 23.2215C238.105 25.8781 241.167 27.1365 244.613 27.1365C248.058 27.1365 251.12 25.8781 253.545 23.2215C255.969 20.7047 257.245 17.4887 257.245 13.9932C257.245 10.4976 255.969 7.28169 253.545 4.76489C251.12 2.10826 248.186 0.849854 244.613 0.849854ZM249.206 19.0268C248.058 20.425 246.527 21.1241 244.74 21.1241C242.954 21.1241 241.423 20.425 240.274 19.0268C239.126 17.6286 238.488 15.9507 238.488 13.9932C238.488 12.0357 239.126 10.218 240.274 8.95957C241.423 7.70116 242.954 7.00205 244.74 7.00205C246.527 7.00205 248.058 7.70116 249.206 8.95957C250.355 10.218 250.993 12.0357 250.993 13.9932C250.993 15.9507 250.355 17.7684 249.206 19.0268Z" fill="white"/>
<path d="M278.555 5.1844C276.258 2.80741 273.451 1.54901 270.005 1.54901H261.201V26.4374H270.005C273.451 26.4374 276.386 25.179 278.555 22.802C280.852 20.4251 282 17.4888 282 13.9932C282 10.4977 280.852 7.56138 278.555 5.1844ZM274.089 18.6074C272.94 19.8658 271.537 20.4251 270.005 20.4251H267.453V7.56138H270.005C271.664 7.56138 273.068 8.12067 274.216 9.37908C275.365 10.6375 275.875 12.0357 275.875 13.9932C275.875 15.8109 275.237 17.349 274.089 18.6074Z" fill="white"/>
<path d="M168.434 21.6834H145.083V26.2976H168.434V21.6834Z" fill="white"/>
</g>
<defs>
<clipPath id="clip0">
<rect width="282" height="26.2867" fill="white" transform="translate(0 0.849762)"/>
</clipPath>
</defs>
</svg>
