<svg xmlns="http://www.w3.org/2000/svg" xmlns:xlink="http://www.w3.org/1999/xlink" width="2092.82" height="1160.59" viewBox="0 0 2092.82 1160.59"><defs><clipPath id="a" transform="translate(0 55.532)"><path fill="#fdb715" stroke="#000" stroke-linejoin="round" stroke-width="12" d="M1441.344,882.185h182.869a52.751,52.751,0,0,1,52.751,52.751v147.1a0,0,0,0,1,0,0h-235.62a0,0,0,0,1,0,0V882.185A0,0,0,0,1,1441.344,882.185Z"/></clipPath><clipPath id="b" transform="translate(0 55.532)"><path fill="#fff" stroke="#000" stroke-linejoin="round" stroke-width="12" d="M1280.828,831.971h100.306A90.526,90.526,0,0,1,1471.66,922.5v159.538a0,0,0,0,1,0,0H1280.828a0,0,0,0,1,0,0V831.971A0,0,0,0,1,1280.828,831.971Z"/></clipPath><clipPath id="c" transform="translate(0 55.532)"><rect width="75.154" height="166.77" x="1870.903" y="915.264" fill="#02aed9" stroke="#000" stroke-linejoin="round" stroke-width="12"/></clipPath><clipPath id="d" transform="translate(0 55.532)"><path fill="#fdb715" stroke="#000" stroke-linejoin="round" stroke-width="12" d="M1878.2,718.208h48.965a35.189,35.189,0,0,1,35.189,35.189V865.129a0,0,0,0,1,0,0h-91.685a27.658,27.658,0,0,1-27.658-27.658V753.4A35.189,35.189,0,0,1,1878.2,718.208Z"/></clipPath><clipPath id="e" transform="translate(0 55.532)"><rect width="375.325" height="217.002" x="907.651" y="581.907" fill="#02aed9" stroke="#000" stroke-linejoin="round" stroke-width="12"/></clipPath><clipPath id="f" transform="translate(0 55.532)"><rect width="205.623" height="127.665" x="201.804" y="831.971" fill="#02558b" stroke="#000" stroke-linejoin="round" stroke-width="12"/></clipPath><clipPath id="g" transform="translate(0 55.532)"><path fill="#02aed9" stroke="#000" stroke-linejoin="round" stroke-width="12" d="M76.384,831.971h161.87a44.1,44.1,0,0,1,44.1,44.1v205.967a0,0,0,0,1,0,0H32.288a0,0,0,0,1,0,0V876.068A44.1,44.1,0,0,1,76.384,831.971Z"/></clipPath><clipPath id="h" transform="translate(0 55.532)"><circle cx="2011.847" cy="403.051" r="74.973" fill="#269b48" stroke="#000" stroke-linejoin="round" stroke-width="12"/></clipPath><clipPath id="i" transform="translate(0 55.532)"><polygon fill="#8f1738" stroke="#000" stroke-linejoin="round" stroke-width="12" points="1032.288 581.91 1157.721 401.883 1277.81 581.907 1032.288 581.91"/></clipPath><clipPath id="j" transform="translate(0 55.532)"><path fill="#289b48" stroke="#000" stroke-linejoin="round" stroke-width="12" d="M1703.576,6.671s-7,57.646,24.232,88.881,88.881,24.232,88.881,24.232,7-57.646-24.232-88.881S1703.576,6.671,1703.576,6.671Z"/></clipPath><clipPath id="k" transform="translate(0 55.532)"><rect width="263.297" height="260.774" x="1782.85" y="38.462" fill="#017dbc" stroke="#000" stroke-linejoin="round" stroke-width="12" rx="18.555"/></clipPath><clipPath id="l" transform="translate(0 55.532)"><path fill="#fff" stroke="#000" stroke-linejoin="round" stroke-width="12" d="M1997.188,152.95s-37.021-40.123-82.689-40.123-82.689,40.123-82.689,40.123,37.021,40.124,82.689,40.124S1997.188,152.95,1997.188,152.95Z"/></clipPath></defs><g><rect width="750.79" height="422.297" x="1282.709" y="715.27" fill="#5dbb46" stroke="#000" stroke-linejoin="round" stroke-width="12"/><polygon fill="#017dbc" stroke="#000" stroke-linejoin="round" stroke-width="12" points="1528.889 637.442 913.613 637.442 913.613 570.774 1450.613 570.774 1528.889 637.442"/><rect width="696.441" height="76.557" x="1337.058" y="638.712" fill="#8f1738" stroke="#000" stroke-linejoin="round" stroke-width="12"/><rect width="696.441" height="51.474" x="1337.058" y="637.442" fill="#c31e33" stroke="#000" stroke-linejoin="round" stroke-width="12"/><path fill="none" stroke="#000" stroke-linejoin="round" stroke-width="12" d="M1907.822,491.9V461.239a23.586,23.586,0,0,0-23.586-23.587h-94.342" transform="translate(0 55.532)"/><rect width="219.602" height="39.598" x="1522.664" y="472.937" fill="#fdb715" stroke="#000" stroke-linejoin="round" stroke-width="12"/><rect width="31.33" height="214.049" x="1517.821" y="298.358" fill="#fdb715" stroke="#000" stroke-linejoin="round" stroke-width="12"/><polygon fill="#fff" stroke="#000" stroke-linejoin="round" stroke-width="12" points="1830.173 609.252 1740.592 609.252 1740.592 577.588 1801.353 577.588 1830.173 609.252"/><path fill="#e11584" stroke="#000" stroke-linejoin="round" stroke-width="12" d="M1549.15,316.63h82.06a47.1,47.1,0,0,1,47.1,47.1V472.937a0,0,0,0,1,0,0H1549.15a0,0,0,0,1,0,0V316.63A0,0,0,0,1,1549.15,316.63Z"/><path stroke="#000" stroke-linejoin="round" stroke-width="12" d="M1477.66,685.093H1650.3a0,0,0,0,1,0,0V852.171a63.094,63.094,0,0,1-63.094,63.094h-46.455a63.094,63.094,0,0,1-63.094-63.094V685.093A0,0,0,0,1,1477.66,685.093Z" transform="translate(3127.963 1655.89) rotate(-180)"/><g><path fill="#fdb715" d="M1441.344,937.717h182.869a52.751,52.751,0,0,1,52.751,52.751v147.1a0,0,0,0,1,0,0h-235.62a0,0,0,0,1,0,0V937.717A0,0,0,0,1,1441.344,937.717Z"/><g clip-path="url(#a)"><line x1="1422.741" x2="1695.567" y1="1037.65" y2="1037.65" fill="none" stroke="#02aed9" stroke-linejoin="round" stroke-width="12"/><line x1="1422.741" x2="1695.567" y1="1014.187" y2="1014.187" fill="none" stroke="#c31e33" stroke-linejoin="round" stroke-width="12"/><line x1="1422.741" x2="1695.567" y1="1060.657" y2="1060.657" fill="none" stroke="#fff" stroke-linejoin="round" stroke-width="12"/></g><path fill="none" stroke="#000" stroke-linejoin="round" stroke-width="12" d="M1441.344,937.717h182.869a52.751,52.751,0,0,1,52.751,52.751v147.1a0,0,0,0,1,0,0h-235.62a0,0,0,0,1,0,0V937.717A0,0,0,0,1,1441.344,937.717Z"/></g><g><path fill="#fff" d="M1280.828,887.5h100.306a90.526,90.526,0,0,1,90.526,90.526v159.538a0,0,0,0,1,0,0H1280.828a0,0,0,0,1,0,0V887.5A0,0,0,0,1,1280.828,887.5Z"/><g clip-path="url(#b)"><circle cx="1328.279" cy="888.325" r="157.389" fill="none" stroke="#eb1b2e" stroke-dasharray="12.06 12.06" stroke-linejoin="round" stroke-width="22"/><circle cx="1328.279" cy="888.325" r="122.333" fill="none" stroke="#269b48" stroke-dasharray="12.011 12.011" stroke-linejoin="round" stroke-width="12"/><circle cx="1328.279" cy="888.325" r="85.802" fill="none" stroke="#02aed9" stroke-linejoin="round" stroke-width="12"/></g><path fill="none" stroke="#000" stroke-linejoin="round" stroke-width="12" d="M1280.828,887.5h100.306a90.526,90.526,0,0,1,90.526,90.526v159.538a0,0,0,0,1,0,0H1280.828a0,0,0,0,1,0,0V887.5A0,0,0,0,1,1280.828,887.5Z"/></g><g><path fill="#c31e33" d="M1426.639,724.222l-10.047-79.461h-8.764v0H1282.657V895.8h40.93a45.036,45.036,0,0,0,45.036-45.036v-80.98h24.243a14.962,14.962,0,0,0,14.962-14.962v-30.6Z" transform="translate(0 55.532)"/><path fill="none" stroke="#000" stroke-linejoin="round" stroke-width="12" d="M1426.639,724.222l-10.047-79.461h-8.764v0H1282.657V895.8h40.93a45.036,45.036,0,0,0,45.036-45.036v-80.98h24.243a14.962,14.962,0,0,0,14.962-14.962v-30.6Z" transform="translate(0 55.532)"/></g><circle cx="1157.677" cy="519.355" r="202.549" fill="#fdb715" opacity=".25"/><circle cx="1157.677" cy="519.355" r="152.614" fill="#fdb715" opacity=".25"/><circle cx="1157.677" cy="519.355" r="114.708" fill="#fdb715"/><g><path fill="#c31e33" d="M1525.131,750.588v101.73h.14v40.149a33.883,33.883,0,0,0,33.883,33.883h0a33.883,33.883,0,0,0,33.883-33.883V851.873a46.171,46.171,0,0,0,39.825-45.725v-55.56Z" transform="translate(0 55.532)"/><path fill="none" stroke="#000" stroke-linejoin="round" stroke-width="12" d="M1525.131,750.588v101.73h.14v40.149a33.883,33.883,0,0,0,33.883,33.883h0a33.883,33.883,0,0,0,33.883-33.883V851.873a46.171,46.171,0,0,0,39.825-45.725v-55.56Z" transform="translate(0 55.532)"/></g><path stroke="#000" stroke-linejoin="round" stroke-width="12" d="M1282.975,637.442h167.637a0,0,0,0,1,0,0v27.567a35.281,35.281,0,0,1-35.281,35.281H1282.975a0,0,0,0,1,0,0V637.442A0,0,0,0,1,1282.975,637.442Z"/><path stroke="#000" stroke-linejoin="round" stroke-width="12" d="M1283.476,640.379h53.581a0,0,0,0,1,0,0v96.2a53.581,53.581,0,0,1-53.581,53.581h0a0,0,0,0,1,0,0V640.379A0,0,0,0,1,1283.476,640.379Z"/><path fill="none" stroke="#000" stroke-linejoin="round" stroke-width="6" d="M1396.536,690.408a12.595,12.595,0,0,0-25.19,0" transform="translate(0 55.532)"/><path fill="none" stroke="#000" stroke-linejoin="round" stroke-width="6" d="M1579,787.581a12.6,12.6,0,1,0-25.19,0" transform="translate(0 55.532)"/><path fill="none" stroke="#000" stroke-linejoin="round" stroke-width="6" d="M1624.629,787.581a12.6,12.6,0,0,0-12.831-12.593A12.868,12.868,0,0,0,1599.439,788v13.938a8.77,8.77,0,0,1-8.77,8.77h-9.891" transform="translate(0 55.532)"/><path fill="none" stroke="#000" stroke-linejoin="round" stroke-width="6" d="M1384.778,739.73h-3.451a18.316,18.316,0,0,1-18.316-18.316h0" transform="translate(0 55.532)"/><path fill="none" stroke="#000" stroke-linejoin="round" stroke-width="6" d="M1577.285,828.029h-3.452a18.315,18.315,0,0,1-18.315-18.316h0" transform="translate(0 55.532)"/><path fill="#c31e33" stroke="#000" stroke-linejoin="round" stroke-width="12" d="M1343.128,670.242H1325.64a17.488,17.488,0,0,0-17.488,17.487h0a17.488,17.488,0,0,0,17.488,17.488h17.488" transform="translate(0 55.532)"/><line x1="1371.346" x2="1323.569" y1="825.32" y2="825.32" fill="none" stroke="#000" stroke-linejoin="round" stroke-width="12"/><line x1="1656.264" x2="1471.66" y1="803.527" y2="803.527" fill="none" stroke="#fff" stroke-linejoin="round" stroke-width="12"/><line x1="1471.679" x2="1656.283" y1="783.385" y2="783.385" fill="none" stroke="#fff" stroke-linejoin="round" stroke-width="12"/><rect width="92.321" height="53.959" x="1471.66" y="1083.608" fill="#fdb715" stroke="#000" stroke-linejoin="round" stroke-width="12"/><path fill="#c31e33" stroke="#000" stroke-linejoin="round" stroke-width="12" d="M1563.981,1083.608h17.163a53.959,53.959,0,0,1,53.959,53.959v0a0,0,0,0,1,0,0h-71.122a0,0,0,0,1,0,0v-53.959A0,0,0,0,1,1563.981,1083.608Z"/><path fill="#fff" stroke="#000" stroke-linejoin="round" stroke-width="12" d="M1802.676,970.8h229.3a0,0,0,0,1,0,0v166.77a0,0,0,0,1,0,0H1749.643a0,0,0,0,1,0,0V1023.83A53.033,53.033,0,0,1,1802.676,970.8Z"/><g><rect width="75.154" height="166.77" x="1870.903" y="970.797" fill="#02aed9"/><g clip-path="url(#c)"><rect width="32.56" height="32.56" x="1892.2" y="902.547" fill="#fff" transform="translate(1208.69 -1024.849) rotate(45)"/><polygon fill="#fff" points="1931.503 1137.567 1908.48 984.471 1885.457 1137.567 1908.48 1160.59 1931.503 1137.567"/></g><rect width="75.154" height="166.77" x="1870.903" y="970.797" fill="none" stroke="#000" stroke-linejoin="round" stroke-width="12"/></g><line x1="1973.905" x2="2011.847" y1="1037.642" y2="1037.642" fill="none" stroke="#02aed9" stroke-linejoin="round" stroke-width="12"/><rect width="75.154" height="75.154" x="1870.903" y="895.642" fill="#fdb715" stroke="#000" stroke-linejoin="round" stroke-width="12"/><g><path fill="#fdb715" d="M1878.2,773.74h48.965a35.189,35.189,0,0,1,35.189,35.189V920.662a0,0,0,0,1,0,0h-91.685A27.658,27.658,0,0,1,1843.015,893V808.929A35.189,35.189,0,0,1,1878.2,773.74Z"/><g clip-path="url(#d)"><path fill="#c31e33" stroke="#000" stroke-linejoin="round" stroke-width="12" d="M1843.015,773.74h89.916a0,0,0,0,1,0,0v0a59.552,59.552,0,0,1-59.552,59.552h-30.364a0,0,0,0,1,0,0V773.74A0,0,0,0,1,1843.015,773.74Z"/><path fill="#c31e33" stroke="#000" stroke-linejoin="round" stroke-width="12" d="M1932.926,774.216h62.864a0,0,0,0,1,0,0V920.662a0,0,0,0,1,0,0h-29.629a33.235,33.235,0,0,1-33.235-33.235V774.216A0,0,0,0,1,1932.926,774.216Z"/></g><path fill="none" stroke="#000" stroke-linejoin="round" stroke-width="12" d="M1878.2,773.74h48.965a35.189,35.189,0,0,1,35.189,35.189V920.662a0,0,0,0,1,0,0h-91.685A27.658,27.658,0,0,1,1843.015,893V808.929A35.189,35.189,0,0,1,1878.2,773.74Z"/></g><path fill="#fdb715" stroke="#000" stroke-linejoin="round" stroke-width="12" d="M1926.935,793.637h13.321a15.819,15.819,0,0,1,15.819,15.818h0a15.819,15.819,0,0,1-15.819,15.819h-13.321" transform="translate(0 55.532)"/><polyline fill="none" stroke="#000" stroke-linejoin="round" stroke-width="6" points="1877.326 853.215 1877.326 882.332 1895.186 882.332"/><circle cx="1903.465" cy="853.215" r="13.023" fill="#fff" stroke="#000" stroke-linejoin="round" stroke-width="6"/><circle cx="1864.303" cy="853.215" r="13.023" fill="#fff" stroke="#000" stroke-linejoin="round" stroke-width="6"/><line x1="1877.326" x2="1890.442" y1="850.797" y2="850.797" fill="none" stroke="#000" stroke-linejoin="round" stroke-width="6"/><line x1="1913.819" x2="1933.977" y1="852.146" y2="852.146" fill="none" stroke="#000" stroke-linejoin="round" stroke-width="6"/><path fill="none" stroke="#000" stroke-linejoin="round" stroke-width="3" d="M1907.822,797.683a4.357,4.357,0,1,0-8.713,0" transform="translate(0 55.532)"/><path fill="none" stroke="#000" stroke-linejoin="round" stroke-width="3" d="M1868.66,797.683a4.357,4.357,0,1,0-8.714,0" transform="translate(0 55.532)"/><path fill="none" stroke="#000" stroke-linejoin="round" stroke-width="6" d="M1868.66,840.11h31.023a8.139,8.139,0,0,0,8.139-8.139h0" transform="translate(0 55.532)"/><path fill="#8f1738" stroke="#000" stroke-linejoin="round" stroke-width="12" d="M1832.069,1082.035a79.066,79.066,0,1,0-158.131,0Z" transform="translate(0 55.532)"/><path fill="none" stroke="#000" stroke-linejoin="round" stroke-width="12" d="M1749.8,1002.969V708.292a23.8,23.8,0,0,1,23.8-23.8h110.418a23.8,23.8,0,0,0,23.8-23.8v-7.437" transform="translate(0 55.532)"/><g><path fill="#f36d26" d="M1760.014,370.521H1549.15v46.884h193.116V522.056h59.087v-110.2A41.34,41.34,0,0,0,1760.014,370.521Z" transform="translate(0 55.532)"/><path fill="none" stroke="#000" stroke-linejoin="round" stroke-width="12" d="M1760.014,370.521H1549.15v46.884h193.116V522.056h59.087v-110.2A41.34,41.34,0,0,0,1760.014,370.521Z" transform="translate(0 55.532)"/></g><circle cx="1717.801" cy="595.934" r="41.505" fill="#017dbc" stroke="#000" stroke-linejoin="round" stroke-width="12"/><polyline fill="#e11584" stroke="#000" stroke-linejoin="round" stroke-width="12" points="1602.703 387.375 1704.148 350.401 1704.148 388.891 1602.703 425.866"/><circle cx="1717.801" cy="597.207" r="17.922" fill="#fff" stroke="#000" stroke-linejoin="round" stroke-width="12"/><g><path fill="#fdb715" d="M1688.956,197.543l-10.646-21.987V147H1591.9V273.442a25.794,25.794,0,0,0,25.794,25.794h0a25.793,25.793,0,0,0,25.793-25.794V241.207a38.059,38.059,0,0,0,34.826-37.917v-2.722h8.75A2.107,2.107,0,0,0,1688.956,197.543Z" transform="translate(0 55.532)"/><path fill="none" stroke="#000" stroke-linejoin="round" stroke-width="12" d="M1688.956,197.543l-10.646-21.987V147H1591.9V273.442a25.794,25.794,0,0,0,25.794,25.794h0a25.793,25.793,0,0,0,25.793-25.794V241.207a38.059,38.059,0,0,0,34.826-37.917v-2.722h8.75A2.107,2.107,0,0,0,1688.956,197.543Z" transform="translate(0 55.532)"/></g><path fill="#f36d26" stroke="#000" stroke-linejoin="round" stroke-width="12" d="M1691.944,127.78V147h-81.4v88.644a45.526,45.526,0,0,1-45.526,45.526H1553.8V127.77a25.15,25.15,0,0,1,25.161-25.15h87.819A25.161,25.161,0,0,1,1691.944,127.78Z" transform="translate(0 55.532)"/><path fill="#f36d26" stroke="#000" stroke-linejoin="round" stroke-width="12" d="M1554.3,122.78a24.914,24.914,0,0,0-.5,4.99v-4.99Z" transform="translate(0 55.532)"/><path fill="none" stroke="#000" stroke-linejoin="round" stroke-width="6" d="M1636.778,171.624a12.837,12.837,0,1,0,25.674,0" transform="translate(0 55.532)"/><path fill="none" stroke="#000" stroke-linejoin="round" stroke-width="6" d="M1641.725,202.894a12.838,12.838,0,0,0,12.838,12.837h19.348" transform="translate(0 55.532)"/><circle cx="1532.786" cy="512.535" r="102.317" fill="#dd1367"/><path fill="none" stroke="#000" stroke-linejoin="round" stroke-width="12" d="M1517.821,242.826V216.068a21.891,21.891,0,0,0-21.891-21.89h-30.987" transform="translate(0 55.532)"/><g><g><line x1="1532.86" x2="1532.86" y1="609.252" y2="415.563" fill="none" stroke="#fff" stroke-linejoin="round" stroke-width="8"/><line x1="1581.282" x2="1484.438" y1="596.277" y2="428.538" fill="none" stroke="#fff" stroke-linejoin="round" stroke-width="8"/><line x1="1616.73" x2="1448.99" y1="560.83" y2="463.985" fill="none" stroke="#fff" stroke-linejoin="round" stroke-width="8"/><line x1="1629.704" x2="1436.015" y1="512.407" y2="512.407" fill="none" stroke="#fff" stroke-linejoin="round" stroke-width="8"/><line x1="1616.73" x2="1448.99" y1="463.985" y2="560.83" fill="none" stroke="#fff" stroke-linejoin="round" stroke-width="8"/><line x1="1581.282" x2="1484.438" y1="428.538" y2="596.277" fill="none" stroke="#fff" stroke-linejoin="round" stroke-width="8"/></g><path fill="#017dbc" stroke="#000" stroke-linejoin="round" stroke-width="12" d="M1532.86,331.843a125.032,125.032,0,1,0,125.032,125.032A125.032,125.032,0,0,0,1532.86,331.843Zm0,221.877a96.845,96.845,0,1,1,96.845-96.845A96.845,96.845,0,0,1,1532.86,553.72Z" transform="translate(0 55.532)"/><circle cx="1532.786" cy="512.535" r="29.144" fill="#c31e33" stroke="#fff" stroke-linejoin="round" stroke-width="8"/><circle cx="1532.786" cy="512.535" r="10.122" fill="#fff"/></g><path fill="#fdb715" stroke="#000" stroke-linejoin="round" stroke-width="12" d="M1704.148,350.4h15.757a32.407,32.407,0,0,1,32.407,32.407v5.866a0,0,0,0,1,0,0h-48.164a0,0,0,0,1,0,0V350.4A0,0,0,0,1,1704.148,350.4Z"/><line x1="1717.801" x2="1717.801" y1="555.702" y2="512.535" fill="none" stroke="#000" stroke-linejoin="round" stroke-width="12"/><g><rect width="83.721" height="38.678" x="1706.173" y="387.375" fill="#dedede" stroke="#000" stroke-linejoin="round" stroke-width="12"/><line x1="1723.801" x2="1723.801" y1="401.867" y2="413.402" fill="none" stroke="#c31e33" stroke-linejoin="round" stroke-width="6"/><line x1="1735.724" x2="1735.724" y1="401.867" y2="413.402" fill="none" stroke="#02558b" stroke-linejoin="round" stroke-width="6"/><line x1="1748.033" x2="1748.033" y1="401.867" y2="413.402" fill="none" stroke="#269b48" stroke-linejoin="round" stroke-width="6"/><line x1="1758.638" x2="1775.01" y1="404.565" y2="404.565" fill="none" stroke="#000" stroke-linejoin="round" stroke-width="3"/><line x1="1758.638" x2="1775.01" y1="410.705" y2="410.705" fill="none" stroke="#000" stroke-linejoin="round" stroke-width="3"/></g><circle cx="1801.353" cy="493.185" r="13.173" fill="#fff" stroke="#000" stroke-linejoin="round" stroke-width="8"/><g><polyline fill="none" stroke="#000" stroke-linejoin="round" stroke-width="8" points="1478.395 715.672 1478.395 688.916 1528.889 638.421"/><polyline fill="none" stroke="#000" stroke-linejoin="round" stroke-width="8" points="1595.961 715.672 1595.961 688.916 1646.455 638.421"/><polyline fill="none" stroke="#000" stroke-linejoin="round" stroke-width="8" points="1713.526 715.672 1713.526 688.916 1764.021 638.421"/><polyline fill="none" stroke="#000" stroke-linejoin="round" stroke-width="8" points="1831.092 715.672 1831.092 688.916 1881.586 638.421"/><polyline fill="none" stroke="#000" stroke-linejoin="round" stroke-width="8" points="1948.658 715.672 1948.658 688.916 1999.152 638.421"/></g><g><g><path fill="#fdb715" d="M1962.96,538.364a55.138,55.138,0,1,0-81.389,48.5l3.051,26.449h46.4l3.052-26.449A55.127,55.127,0,0,0,1962.96,538.364Z" transform="translate(0 55.532)"/><path fill="none" stroke="#fff" stroke-linejoin="round" stroke-width="12" d="M1962.96,538.364a55.138,55.138,0,1,0-81.389,48.5l3.051,26.449h46.4l3.052-26.449A55.127,55.127,0,0,0,1962.96,538.364Z" transform="translate(0 55.532)"/></g><line x1="1881.029" x2="1934.677" y1="685.981" y2="685.981" fill="none" stroke="#fff" stroke-linejoin="round" stroke-width="8"/><line x1="1881.029" x2="1934.677" y1="700.117" y2="700.117" fill="none" stroke="#fff" stroke-linejoin="round" stroke-width="8"/><path fill="none" stroke="#fff" stroke-linejoin="round" stroke-width="8" d="M1907.822,502.185a36.179,36.179,0,0,0-36.179,36.179" transform="translate(0 55.532)"/></g><path fill="#289b48" stroke="#000" stroke-linejoin="round" stroke-width="12" d="M1787.068,887.5h5.093a0,0,0,0,1,0,0v12.341a36.172,36.172,0,0,1-36.172,36.172H1750.9a0,0,0,0,1,0,0V923.675A36.172,36.172,0,0,1,1787.068,887.5Z"/><path fill="#289b48" stroke="#000" stroke-linejoin="round" stroke-width="12" d="M1707.448,775.922h5.093a36.172,36.172,0,0,1,36.172,36.172v12.341a0,0,0,0,1,0,0h-5.093a36.172,36.172,0,0,1-36.172-36.172V775.922A0,0,0,0,1,1707.448,775.922Z" transform="translate(3456.161 1655.89) rotate(-180)"/><path fill="#289b48" stroke="#000" stroke-linejoin="round" stroke-width="12" d="M1784.762,773.214h2.306a0,0,0,0,1,0,0V787.86a33.866,33.866,0,0,1-33.866,33.866H1750.9a0,0,0,0,1,0,0V807.08A33.866,33.866,0,0,1,1784.762,773.214Z"/><path fill="#289b48" stroke="#000" stroke-linejoin="round" stroke-width="12" d="M1691.475,885.125h7.113a50.185,50.185,0,0,1,50.185,50.185v17.066a0,0,0,0,1,0,0h-7.113a50.185,50.185,0,0,1-50.185-50.185V885.125a0,0,0,0,1,0,0Z" transform="translate(3440.25 1893.034) rotate(180)"/><rect width="173.601" height="30.995" x="192.318" y="106.044" fill="#fdb715" stroke="#000" stroke-linejoin="round" stroke-width="12"/><rect width="158.984" height="84.501" x="192.318" y="137.039" fill="#8f1738" stroke="#000" stroke-linejoin="round" stroke-width="12"/><rect width="112.085" height="112.085" x="32.332" y="827.456" fill="#269b48" stroke="#000" stroke-linejoin="round" stroke-width="12"/><g><rect width="375.325" height="217.002" x="907.651" y="637.439" fill="#02aed9"/><g clip-path="url(#e)"><g><path fill="none" stroke="#fefefe" stroke-linejoin="round" stroke-width="8" d="M892.576,615.032c22.884,0,22.884,20,45.767,20s22.883-20,45.766-20,22.884,20,45.768,20,22.882-20,45.765-20,22.882,20,45.765,20,22.884-20,45.768-20,22.883,20,45.767,20,22.886-20,45.772-20,22.887,20,45.773,20" transform="translate(0 55.532)"/><path fill="none" stroke="#fefefe" stroke-linejoin="round" stroke-width="8" d="M892.576,659.407c22.884,0,22.884,20,45.767,20s22.883-20,45.766-20,22.884,20,45.768,20,22.882-20,45.765-20,22.882,20,45.765,20,22.884-20,45.768-20,22.883,20,45.767,20,22.886-20,45.772-20,22.887,20,45.773,20" transform="translate(0 55.532)"/><path fill="none" stroke="#fefefe" stroke-linejoin="round" stroke-width="8" d="M892.576,703.781c22.884,0,22.884,20,45.767,20s22.883-20,45.766-20,22.884,20,45.768,20,22.882-20,45.765-20,22.882,20,45.765,20,22.884-20,45.768-20,22.883,20,45.767,20,22.886-20,45.772-20,22.887,20,45.773,20" transform="translate(0 55.532)"/><path fill="none" stroke="#fefefe" stroke-linejoin="round" stroke-width="8" d="M892.576,748.156c22.884,0,22.884,20,45.767,20s22.883-20,45.766-20,22.884,20,45.768,20,22.882-20,45.765-20,22.882,20,45.765,20,22.884-20,45.768-20,22.883,20,45.767,20,22.886-20,45.772-20,22.887,20,45.773,20" transform="translate(0 55.532)"/></g></g><rect width="375.325" height="217.002" x="907.651" y="637.439" fill="none" stroke="#000" stroke-linejoin="round" stroke-width="12"/></g><rect width="147.959" height="157.577" x="645.168" y="663.925" fill="#fff" stroke="#000" stroke-linejoin="round" stroke-width="12"/><line x1="674.795" x2="763.5" y1="699.119" y2="699.119" fill="none" stroke="#000" stroke-linejoin="round" stroke-width="12"/><line x1="674.795" x2="735.172" y1="720.347" y2="720.347" fill="none" stroke="#000" stroke-linejoin="round" stroke-width="12"/><line x1="674.795" x2="763.5" y1="741.576" y2="741.576" fill="none" stroke="#000" stroke-linejoin="round" stroke-width="12"/><line x1="674.795" x2="773.027" y1="762.805" y2="762.805" fill="none" stroke="#000" stroke-linejoin="round" stroke-width="12"/><line x1="674.847" x2="773.027" y1="784.034" y2="784.034" fill="none" stroke="#000" stroke-linejoin="round" stroke-width="12"/><circle cx="762.909" cy="515.567" r="67.384" fill="#fdb715" stroke="#000" stroke-linejoin="round" stroke-width="12"/><circle cx="644.278" cy="544.09" r="84.464" fill="none" stroke="#fff" stroke-linejoin="round" stroke-width="12"/><circle cx="644.144" cy="544.156" r="56.357" fill="none" stroke="#fff" stroke-linejoin="round" stroke-width="12"/><circle cx="642.554" cy="543.16" r="27.614" fill="none" stroke="#fff" stroke-linejoin="round" stroke-width="12"/><rect width="125.252" height="450.191" x="282.22" y="206.811" fill="#8f1738" stroke="#000" stroke-linejoin="round" stroke-width="12" transform="translate(689.691 919.346) rotate(180)"/><path stroke="#fff" stroke-linejoin="round" stroke-width="12" d="M344.2,311.941h0A19.464,19.464,0,0,1,363.662,331.4v95.037a0,0,0,0,1,0,0H324.735a0,0,0,0,1,0,0V331.4A19.464,19.464,0,0,1,344.2,311.941Z"/><rect width="249.888" height="450.191" x="32.332" y="262.344" fill="#c22033" stroke="#000" stroke-linejoin="round" stroke-width="12"/><rect width="750.455" height="35.06" x="532.342" y="853.265" fill="#48773c" stroke="#000" stroke-linejoin="round" stroke-width="12"/><rect width="750.455" height="249.242" x="532.342" y="888.325" fill="#dedede" stroke="#000" stroke-linejoin="round" stroke-width="12"/><rect width="162.956" height="249.242" x="596.435" y="832.793" fill="#dedede" stroke="#000" stroke-linejoin="round" stroke-width="12" transform="translate(1355.826 1970.36) rotate(-180)"/><polygon fill="#48773c" stroke="#000" stroke-linejoin="round" stroke-width="12" points="636.467 806.318 719.359 806.318 759.391 888.325 596.435 888.325 636.467 806.318"/><g><line x1="759.392" x2="596.436" y1="996.471" y2="996.471" fill="#dedede"/><line x1="759.392" x2="596.436" y1="996.471" y2="996.471" fill="none" stroke="#000" stroke-linejoin="round" stroke-width="12"/><line x1="759.392" x2="596.436" y1="996.471" y2="996.471" fill="none" stroke="#000" stroke-linejoin="round" stroke-width="12"/></g><polygon fill="#48773c" stroke="#000" stroke-linejoin="round" stroke-width="12" points="1178.67 806.318 1095.778 806.318 1055.746 888.325 1218.702 888.325 1178.67 806.318"/><rect width="162.956" height="249.242" x="1055.746" y="888.325" fill="#dedede" stroke="#000" stroke-linejoin="round" stroke-width="12"/><g opacity=".3"><polygon points="765.391 888.325 826.361 1137.567 753.391 1137.567 753.391 888.325 765.391 888.325"/></g><g opacity=".3"><polygon points="980.268 888.325 1041.238 1137.567 968.268 1137.567 968.268 888.325 980.268 888.325"/></g><g opacity=".3"><polygon points="1224.702 888.325 1274.546 1137.567 1212.702 1137.567 1212.702 888.325 1224.702 888.325"/></g><g><line x1="1055.746" x2="1218.702" y1="996.471" y2="996.471" fill="none" stroke="#000" stroke-linejoin="round" stroke-width="12"/><line x1="1055.746" x2="1218.702" y1="996.471" y2="996.471" fill="none" stroke="#000" stroke-linejoin="round" stroke-width="12"/></g><path fill="#dedede" stroke="#000" stroke-linejoin="round" stroke-width="12" d="M499.092,1108.271H1286.75a29.3,29.3,0,0,1,29.3,29.3v0a0,0,0,0,1,0,0H499.092a0,0,0,0,1,0,0v-29.3A0,0,0,0,1,499.092,1108.271Z"/><g><rect width="205.623" height="127.665" x="201.804" y="887.503" fill="#02558b"/><g clip-path="url(#f)"><path fill="none" stroke="#02aed9" stroke-linejoin="round" stroke-width="8" d="M365.362,883.577h48.272a0,0,0,0,1,0,0V956.82a0,0,0,0,1,0,0h-7.9a40.369,40.369,0,0,1-40.369-40.369V883.577A0,0,0,0,1,365.362,883.577Z"/><path fill="none" stroke="#02aed9" stroke-linejoin="round" stroke-width="8" d="M235.966,828.045h7.9a0,0,0,0,1,0,0v73.243a0,0,0,0,1,0,0H195.6a0,0,0,0,1,0,0V868.414A40.369,40.369,0,0,1,235.966,828.045Z" transform="translate(439.467 1784.865) rotate(180)"/></g><rect width="205.623" height="127.665" x="201.804" y="887.503" fill="none" stroke="#000" stroke-linejoin="round" stroke-width="12"/></g><path fill="#fdb715" stroke="#000" stroke-linejoin="round" stroke-width="12" d="M287.669,493.185h61.443A29.117,29.117,0,0,1,378.229,522.3V702.158a0,0,0,0,1,0,0H236.409a0,0,0,0,1,0,0V544.445A51.26,51.26,0,0,1,287.669,493.185Z"/><g><path fill="#269b48" d="M500.887,601.239v23.794H194.233V831.971H407.464V719.859H516.657a73.752,73.752,0,0,0,72.266-59.022l17.993-59.6Z" transform="translate(0 55.532)"/><path fill="none" stroke="#000" stroke-linejoin="round" stroke-width="12" d="M500.887,601.239v23.794H194.233V831.971H407.464V719.859H516.657a73.752,73.752,0,0,0,72.266-59.022l17.993-59.6Z" transform="translate(0 55.532)"/></g><rect width="66.696" height="93.471" x="531.006" y="888.325" fill="#02558b" stroke="#000" stroke-linejoin="round" stroke-width="12"/><path fill="#02558b" stroke="#000" stroke-linejoin="round" stroke-width="12" d="M434.517,775.391H670.3A14.291,14.291,0,0,1,684.6,789.681v118.53A14.291,14.291,0,0,1,670.3,922.5H434.517a0,0,0,0,1,0,0V775.391A0,0,0,0,1,434.517,775.391Z"/><rect width="250.078" height="147.111" x="407.464" y="775.391" fill="#017dbc" stroke="#000" stroke-linejoin="round" stroke-width="12"/><rect width="195.972" height="102.953" x="434.517" y="797.47" fill="#fff" rx="6.766"/><rect width="170.786" height="59.326" x="478.96" y="981.796" fill="#02558b" stroke="#000" stroke-linejoin="round" stroke-width="12"/><polygon fill="#ef3f2c" stroke="#000" stroke-linejoin="round" stroke-width="12" points="722.445 1137.567 388.926 1137.567 388.926 1093.308 486.824 1041.122 722.445 1041.122 722.445 1137.567"/><rect width="235.296" height="44.275" x="389.251" y="1093.308" fill="#02558b" stroke="#000" stroke-linejoin="round" stroke-width="12"/><g><polygon fill="#02aed9" points="359.609 1015.168 231.944 887.503 179.361 940.086 332.495 1093.221 332.593 1093.123 332.593 1093.308 456.19 1093.308 456.19 1015.168 359.609 1015.168"/><polygon fill="none" stroke="#000" stroke-linejoin="round" stroke-width="12" points="359.609 1015.168 231.944 887.503 179.361 940.086 332.495 1093.221 332.593 1093.123 332.593 1093.308 456.19 1093.308 456.19 1015.168 359.609 1015.168"/></g><g><path fill="#02aed9" d="M76.384,887.5h161.87a44.1,44.1,0,0,1,44.1,44.1v205.967a0,0,0,0,1,0,0H32.288a0,0,0,0,1,0,0V931.6A44.1,44.1,0,0,1,76.384,887.5Z"/><g clip-path="url(#g)"><line x1="3.78" x2="332.593" y1="955.169" y2="955.169" fill="none" stroke="#fff" stroke-linejoin="round" stroke-width="12"/><line x1="3.78" x2="332.593" y1="985.917" y2="985.917" fill="none" stroke="#fff" stroke-linejoin="round" stroke-width="12"/></g><path fill="none" stroke="#000" stroke-linejoin="round" stroke-width="12" d="M76.384,887.5h161.87a44.1,44.1,0,0,1,44.1,44.1v205.967a0,0,0,0,1,0,0H32.288a0,0,0,0,1,0,0V931.6A44.1,44.1,0,0,1,76.384,887.5Z"/></g><path fill="#981398" stroke="#000" stroke-linejoin="round" stroke-width="13.332" d="M64.269,740.392h61.364a0,0,0,0,1,0,0v80.143a43.1,43.1,0,0,1-43.1,43.1H13.108a0,0,0,0,1,0,0V791.553A51.162,51.162,0,0,1,64.269,740.392Z"/><g><path fill="#02aed9" d="M118.083,1003.9V874.847a42.876,42.876,0,0,0-42.876-42.876h0a42.876,42.876,0,0,0-42.876,42.876V1003.9h-.043v78.14H264.316V1003.9Z" transform="translate(0 55.532)"/><path fill="none" stroke="#000" stroke-linejoin="round" stroke-width="12" d="M118.083,1003.9V874.847a42.876,42.876,0,0,0-42.876-42.876h0a42.876,42.876,0,0,0-42.876,42.876V1003.9h-.043v78.14H264.316V1003.9Z" transform="translate(0 55.532)"/></g><g><path fill="#fdb715" d="M125.634,684.86V821.569a35.386,35.386,0,0,0,35.386,35.387h0a35.387,35.387,0,0,0,35.387-35.387v-42.43h5.636a19.38,19.38,0,0,0,19.38-19.38v-74.9Z" transform="translate(0 55.532)"/><path fill="none" stroke="#000" stroke-linejoin="round" stroke-width="11.518" d="M125.634,684.86V821.569a35.386,35.386,0,0,0,35.386,35.387h0a35.387,35.387,0,0,0,35.387-35.387v-42.43h5.636a19.38,19.38,0,0,0,19.38-19.38v-74.9Z" transform="translate(0 55.532)"/></g><g><path fill="#c31e33" d="M282.439,487.628v94.279h-.088v39.418a43.491,43.491,0,0,0,43.491,43.49h18.5V581.907h14.5a19.38,19.38,0,0,0,19.38-19.38v-74.9Z" transform="translate(0 55.532)"/><path fill="none" stroke="#000" stroke-linejoin="round" stroke-width="12" d="M282.439,487.628v94.279h-.088v39.418a43.491,43.491,0,0,0,43.491,43.49h18.5V581.907h14.5a19.38,19.38,0,0,0,19.38-19.38v-74.9Z" transform="translate(0 55.532)"/></g><path fill="#fdb715" stroke="#000" stroke-linejoin="round" stroke-width="12.585" d="M131.93,716.567H116.7A15.229,15.229,0,0,0,101.472,731.8h0A15.229,15.229,0,0,0,116.7,747.025H131.93" transform="translate(0 55.532)"/><path fill="#fff" stroke="#000" stroke-linejoin="round" stroke-width="12" d="M105.491,663.925h89.193a26.739,26.739,0,0,1,26.739,26.739v49.728a0,0,0,0,1,0,0H78.751a0,0,0,0,1,0,0V690.664A26.739,26.739,0,0,1,105.491,663.925Z"/><rect width="200.25" height="27.857" x="20.877" y="712.535" fill="#fff" stroke="#000" stroke-linejoin="round" stroke-width="12"/><path fill="none" stroke="#000" stroke-linejoin="round" stroke-width="6" d="M173.528,709.917a7.3,7.3,0,1,0,14.6,0" transform="translate(0 55.532)"/><path fill="none" stroke="#000" stroke-linejoin="round" stroke-width="6" d="M327.038,515.035a7.3,7.3,0,1,0,14.6,0" transform="translate(0 55.532)"/><polyline fill="none" stroke="#000" stroke-linejoin="round" stroke-width="6" points="201.804 765.449 201.804 796.657 180.828 796.657"/><polyline fill="none" stroke="#000" stroke-linejoin="round" stroke-width="6" points="359.199 570.567 359.199 601.775 345.804 601.775"/><path fill="none" stroke="#000" stroke-linejoin="round" stroke-width="6" d="M186.548,758.415h-2.431a17.29,17.29,0,0,1-17.29-17.29h0" transform="translate(0 55.532)"/><path fill="none" stroke="#000" stroke-linejoin="round" stroke-width="6" d="M344.2,560.766h-2.431a17.29,17.29,0,0,1-17.29-17.29h0" transform="translate(0 55.532)"/><polygon fill="#fff" stroke="#000" stroke-linejoin="round" stroke-width="12" points="390.68 1111.866 395.776 1137.567 370.061 1132.485 266.206 1028.631 286.826 1008.012 390.68 1111.866"/><g><path fill="#fdb715" stroke="#000" stroke-linejoin="round" stroke-width="12" d="M266.206,1118.041h58.361a9.771,9.771,0,0,1,9.771,9.771v0a9.771,9.771,0,0,1-9.771,9.771H266.206a0,0,0,0,1,0,0v-19.541A0,0,0,0,1,266.206,1118.041Z"/><path fill="#fdb715" stroke="#000" stroke-linejoin="round" stroke-width="12" d="M286.222,1059.346h68.369a9.771,9.771,0,0,1,9.771,9.771v0a9.771,9.771,0,0,1-9.771,9.771H286.222a0,0,0,0,1,0,0v-19.541a0,0,0,0,1,0,0Z"/><path fill="#fdb715" stroke="#000" stroke-linejoin="round" stroke-width="12" d="M266.206,1078.959h68.369a9.771,9.771,0,0,1,9.771,9.771v0a9.771,9.771,0,0,1-9.771,9.771H266.206a0,0,0,0,1,0,0v-19.541A0,0,0,0,1,266.206,1078.959Z"/><path fill="#fdb715" stroke="#000" stroke-linejoin="round" stroke-width="12" d="M266.206,1098.5h68.369a9.771,9.771,0,0,1,9.771,9.771v0a9.771,9.771,0,0,1-9.771,9.771H266.206a0,0,0,0,1,0,0V1098.5A0,0,0,0,1,266.206,1098.5Z"/><polyline fill="#fdb715" stroke="#000" stroke-linejoin="round" stroke-width="12" points="308.129 1059.346 264.316 1059.346 264.316 1137.567 308.129 1137.567"/></g><path fill="#fdb715" stroke="#000" stroke-linejoin="round" stroke-width="12" d="M565.244,1037.78H456.194V972.47H527.4a93.816,93.816,0,0,1,41.439,9.647l33.707,16.593H515.9v18.55h49.34a10.261,10.261,0,0,1,6.849,2.62h0A10.26,10.26,0,0,1,565.244,1037.78Z" transform="translate(0 55.532)"/><polygon fill="#02558b" stroke="#000" stroke-linejoin="round" stroke-width="12" points="722.445 1137.567 624.547 1137.567 624.547 1093.308 722.445 1041.122 722.445 1137.567"/><rect width="138.117" height="62.16" x="464.43" y="817.867" fill="none" stroke="#02aed9" stroke-linejoin="round" stroke-width="8"/><polyline fill="none" stroke="#02aed9" stroke-linejoin="round" stroke-width="8" points="464.43 817.867 531.809 858.053 602.547 817.867"/><g><g><g><path fill="#d3a028" d="M643.85,431.27,484.857,458.559V518.1l45.133,7.746v80.446a11.956,11.956,0,0,0,23.912,0V529.951L643.85,545.39Z" transform="translate(0 55.532)"/><path fill="none" stroke="#000" stroke-linejoin="round" stroke-width="12.585" d="M643.85,431.27,484.857,458.559V518.1l45.133,7.746v80.446a11.956,11.956,0,0,0,23.912,0V529.951L643.85,545.39Z" transform="translate(0 55.532)"/></g><rect width="35.567" height="59.418" x="449.29" y="514.153" fill="#fdb715" stroke="#000" stroke-linejoin="round" stroke-width="12.585"/><polyline fill="none" stroke="#fff" stroke-linecap="round" stroke-linejoin="round" stroke-width="7" points="539.398 526.439 621.152 512.407 621.152 556.197"/></g><path fill="#c31e33" stroke="#000" stroke-linejoin="round" stroke-width="12" d="M535,546.571h28.483a20.623,20.623,0,0,1,20.623,20.623V579.83a20.623,20.623,0,0,1-20.623,20.623h0A28.483,28.483,0,0,1,535,571.97v-25.4a0,0,0,0,1,0,0Z" transform="translate(1119.112 1202.556) rotate(-180)"/><rect width="25.825" height="53.882" x="507.664" y="602.103" fill="#c31e33" stroke="#000" stroke-linejoin="round" stroke-width="12" rx="12.912"/></g><rect width="133.31" height="500.125" x="840.958" y="637.442" fill="#dedede" stroke="#000" stroke-linejoin="round" stroke-width="12"/><path fill="#fdb715" stroke="#000" stroke-linejoin="round" stroke-width="12" d="M907.569,991.118h0a32.094,32.094,0,0,1,32.094,32.094v115.176a0,0,0,0,1,0,0H875.475a0,0,0,0,1,0,0V1023.212a32.094,32.094,0,0,1,32.094-32.094Z"/><line x1="907.613" x2="907.613" y1="922.502" y2="806.318" fill="none" stroke="#000" stroke-linejoin="round" stroke-width="12"/><line x1="939.291" x2="939.291" y1="922.502" y2="806.318" fill="none" stroke="#000" stroke-linejoin="round" stroke-width="12"/><line x1="875.935" x2="875.935" y1="922.502" y2="806.318" fill="none" stroke="#000" stroke-linejoin="round" stroke-width="12"/><rect width="159.591" height="28.95" x="827.817" y="747.996" fill="#dedede" stroke="#000" stroke-linejoin="round" stroke-width="12"/><polygon fill="#48773c" stroke="#000" stroke-linejoin="round" stroke-width="12" points="974.183 637.442 840.953 637.442 881.933 512.412 933.203 512.412 974.183 637.442"/><line x1="907.568" x2="907.613" y1="512.407" y2="428.736" fill="none" stroke="#000" stroke-linejoin="round" stroke-width="12"/><rect width="62.337" height="31.258" x="907.613" y="428.962" fill="#eb1b2e" stroke="#000" stroke-linejoin="round" stroke-width="12"/><g opacity=".3"><polygon points="840.87 775.053 969.95 775.053 969.95 842.425 840.87 787.053 840.87 775.053"/></g><circle cx="907.568" cy="692.719" r="32.268" fill="#fff" stroke="#000" stroke-linejoin="round" stroke-width="12"/><circle cx="907.568" cy="692.719" r="12.154" fill="#5dbb46"/><g><polygon fill="#981398" points="453.662 276.753 453.662 415.563 500.804 415.563 532.649 457.415 564.493 415.563 703.814 415.563 703.814 276.753 453.662 276.753"/><polygon fill="none" stroke="#000" stroke-linejoin="round" stroke-width="12" points="453.662 276.753 453.662 415.563 500.804 415.563 532.649 457.415 564.493 415.563 703.814 415.563 703.814 276.753 453.662 276.753"/></g><rect width="276.22" height="40.804" x="6" y="221.54" fill="#fff" stroke="#000" stroke-linejoin="round" stroke-width="12"/><path stroke="#fff" stroke-linejoin="round" stroke-width="12" d="M111.109,311.941h0A19.464,19.464,0,0,1,130.573,331.4v95.037a0,0,0,0,1,0,0H91.645a0,0,0,0,1,0,0V331.4A19.464,19.464,0,0,1,111.109,311.941Z"/><path fill="#fdb715" stroke="#fff" stroke-linejoin="round" stroke-width="8" d="M203.618,311.941h0A19.464,19.464,0,0,1,223.082,331.4v95.037a0,0,0,0,1,0,0H184.154a0,0,0,0,1,0,0V331.4A19.464,19.464,0,0,1,203.618,311.941Z"/><path stroke="#fff" stroke-linejoin="round" stroke-width="12" d="M111.109,479.728h0a19.464,19.464,0,0,1,19.464,19.464v95.037a0,0,0,0,1,0,0H91.645a0,0,0,0,1,0,0V499.191a19.464,19.464,0,0,1,19.464-19.464Z"/><path stroke="#fff" stroke-linejoin="round" stroke-width="12" d="M203.618,479.728h0a19.464,19.464,0,0,1,19.464,19.464v95.037a0,0,0,0,1,0,0H184.154a0,0,0,0,1,0,0V499.191A19.464,19.464,0,0,1,203.618,479.728Z"/><g><rect width="42.441" height="121.939" x="1990.627" y="515.501" fill="#8f1738" stroke="#000" stroke-linejoin="round" stroke-width="12"/><g><circle cx="2011.847" cy="458.583" r="74.973" fill="#269b48"/><g clip-path="url(#h)"><rect width="87.518" height="234.735" x="1924.329" y="332.092" fill="#5dbb46" stroke="#000" stroke-linejoin="round" stroke-width="9.343"/><line x1="2011.847" x2="2011.847" y1="533.555" y2="383.61" fill="none" stroke="#000" stroke-linejoin="round" stroke-width="12"/><line x1="2011.847" x2="2086.82" y1="455.511" y2="418.568" fill="none" stroke="#000" stroke-linejoin="round" stroke-width="6"/><line x1="2009.994" x2="2084.966" y1="498.597" y2="461.654" fill="none" stroke="#000" stroke-linejoin="round" stroke-width="6"/><line x1="2011.847" x2="1936.874" y1="455.511" y2="418.568" fill="none" stroke="#000" stroke-linejoin="round" stroke-width="6"/><line x1="2013.7" x2="1938.727" y1="498.597" y2="461.654" fill="none" stroke="#000" stroke-linejoin="round" stroke-width="6"/></g><circle cx="2011.847" cy="458.583" r="74.973" fill="none" stroke="#000" stroke-linejoin="round" stroke-width="12"/></g></g><rect width="152.078" height="40.804" x="282.439" y="221.54" fill="#fdb715" stroke="#000" stroke-linejoin="round" stroke-width="12"/><g><polygon fill="#fff" points="654.568 346.158 589.415 308.542 589.415 383.774 654.568 346.158"/><rect width="91.152" height="31.949" x="513.65" y="330.41" fill="#fff"/></g><polygon fill="#ef3f2c" stroke="#000" stroke-linejoin="round" stroke-width="12" points="520.142 121.122 520.142 195.851 472.657 240.491 520.142 240.491 770.381 240.491 770.381 121.122 520.142 121.122"/><path fill="#269b48" stroke="#000" stroke-linejoin="round" stroke-width="12" d="M831.8,139.692h0A95.193,95.193,0,0,1,927,234.885v95.193a0,0,0,0,1,0,0H831.8a95.193,95.193,0,0,1-95.193-95.193v0A95.193,95.193,0,0,1,831.8,139.692Z" transform="translate(1066.688 -541.385) rotate(90)"/><path fill="#fff" d="M823.325,288.546C806.2,287,793.842,277.6,793.842,261.729H810.97c.562,7.021,4.493,12.215,12.355,13.62V244.461c-14.04-3.51-29.483-7.441-29.483-27.236,0-15.725,12.074-26.536,29.483-28.08V177.633h9.125v11.372c16.147,1.4,27.1,10.249,28.361,26.113H843.683a14.354,14.354,0,0,0-11.233-12.5v30.325c14.04,3.37,29.344,7.16,29.344,26.956,0,13.619-10.389,26.817-29.344,28.5v11.513h-9.125Zm0-57.985V202.2c-7.721.983-13.2,5.615-13.2,14.18C810.128,224.524,815.743,228.175,823.325,230.561Zm9.125,16.287v28.5c8.424-1.4,13.2-7.3,13.2-14.6C845.648,252.744,840.032,249.234,832.45,246.848Z" transform="translate(0 55.532)"/><path fill="#f36d26" stroke="#000" stroke-linejoin="round" stroke-width="12" d="M762.909,433.775h0A81.791,81.791,0,0,1,844.7,515.567v0a0,0,0,0,1,0,0H762.909a0,0,0,0,1,0,0V433.775A0,0,0,0,1,762.909,433.775Z"/><path fill="#017dbc" stroke="#000" stroke-linejoin="round" stroke-width="12" d="M794.727,401.957h0a81.791,81.791,0,0,1,81.791,81.791v0a0,0,0,0,1,0,0H794.727a0,0,0,0,1,0,0V401.957A0,0,0,0,1,794.727,401.957Z"/><polygon fill="#eb1b2e" stroke="#000" stroke-linejoin="round" stroke-width="12" points="771.61 726.815 753.391 718.556 735.172 726.815 735.172 654.356 771.61 654.356 771.61 726.815"/><line x1="1137.224" x2="1137.224" y1="922.502" y2="970.797" fill="none" stroke="#000" stroke-linejoin="round" stroke-width="12"/><line x1="1178.584" x2="1178.584" y1="922.502" y2="970.797" fill="none" stroke="#000" stroke-linejoin="round" stroke-width="12"/><line x1="1095.864" x2="1095.864" y1="922.502" y2="970.797" fill="none" stroke="#000" stroke-linejoin="round" stroke-width="12"/><g><g><line x1="677.914" x2="677.914" y1="922.502" y2="970.797" fill="none" stroke="#fdb715" stroke-linejoin="round" stroke-width="12"/><line x1="636.554" x2="636.554" y1="922.502" y2="970.797" fill="none" stroke="#fdb715" stroke-linejoin="round" stroke-width="12"/><line x1="719.274" x2="719.274" y1="922.502" y2="970.797" fill="none" stroke="#fdb715" stroke-linejoin="round" stroke-width="12"/></g><g><line x1="677.914" x2="677.914" y1="922.502" y2="970.797" fill="none" stroke="#000" stroke-linejoin="round" stroke-width="12"/><line x1="636.554" x2="636.554" y1="922.502" y2="970.797" fill="none" stroke="#000" stroke-linejoin="round" stroke-width="12"/><line x1="719.274" x2="719.274" y1="922.502" y2="970.797" fill="none" stroke="#000" stroke-linejoin="round" stroke-width="12"/></g></g><g><line x1="1137.224" x2="1137.224" y1="1030.091" y2="1078.385" fill="none" stroke="#000" stroke-linejoin="round" stroke-width="12"/><line x1="1178.584" x2="1178.584" y1="1030.091" y2="1078.385" fill="none" stroke="#000" stroke-linejoin="round" stroke-width="12"/><line x1="1095.864" x2="1095.864" y1="1030.091" y2="1078.385" fill="none" stroke="#000" stroke-linejoin="round" stroke-width="12"/></g><line x1="1015.007" x2="1015.007" y1="922.502" y2="970.797" fill="none" stroke="#000" stroke-linejoin="round" stroke-width="12"/><line x1="1015.007" x2="1015.007" y1="1030.091" y2="1078.385" fill="none" stroke="#000" stroke-linejoin="round" stroke-width="12"/><line x1="800.131" x2="800.131" y1="922.502" y2="970.797" fill="none" stroke="#000" stroke-linejoin="round" stroke-width="12"/><line x1="800.131" x2="800.131" y1="1030.091" y2="1078.385" fill="none" stroke="#000" stroke-linejoin="round" stroke-width="12"/><polyline fill="none" stroke="#fff" stroke-linejoin="round" stroke-width="12" points="732.313 204.818 697.527 184.818 662.74 204.818 627.953 184.818 593.162 204.818 558.371 184.818"/><polyline fill="none" stroke="#fdb715" stroke-linejoin="round" stroke-width="12" points="732.313 176.647 697.527 156.647 662.74 176.647 627.953 156.647 593.162 176.647 558.371 156.647"/><g><polygon fill="#8f1738" points="1032.288 637.442 1157.721 457.415 1277.81 637.439 1032.288 637.442"/><g clip-path="url(#i)"><rect width="69.22" height="69.22" x="1123.067" y="403.043" fill="#fff" transform="translate(648.543 -634.883) rotate(45)"/><rect width="69.22" height="69.22" x="1150.385" y="398.69" fill="#fff" transform="translate(306.416 1394.404) rotate(-65.952)"/><rect width="69.22" height="69.22" x="1095.749" y="398.69" fill="#fff" transform="translate(1195.29 1697.651) rotate(-114.048)"/><polygon points="1081.347 634.922 1129.152 545.785 1092.24 639.956 1081.347 634.922"/><polygon points="1221.919 640.009 1183.756 545.495 1232.762 634.869 1221.919 640.009"/><polygon points="1151.677 633.833 1157.72 551.221 1163.677 633.84 1151.677 633.833"/></g><polygon fill="none" stroke="#000" stroke-linejoin="round" stroke-width="12" points="1032.288 637.442 1157.721 457.415 1277.81 637.439 1032.288 637.442"/></g><g><polygon fill="#48773c" stroke="#000" stroke-linejoin="round" stroke-width="12" points="1032.696 562.439 982.227 637.439 1083.165 637.439 1032.696 562.439"/><polygon fill="#48773c" stroke="#000" stroke-linejoin="round" stroke-width="12" points="1032.696 532.071 997.63 592.808 1067.763 592.808 1032.696 532.071"/></g><g><polygon fill="#48773c" stroke="#000" stroke-linejoin="round" stroke-width="12" points="1277.81 562.439 1227.341 637.439 1328.279 637.439 1277.81 562.439"/><polygon fill="#48773c" stroke="#000" stroke-linejoin="round" stroke-width="12" points="1277.81 532.071 1242.743 592.808 1312.877 592.808 1277.81 532.071"/></g><g><path fill="#f36d26" stroke="#000" stroke-linejoin="round" stroke-width="12" d="M1158.85,95.482h97.116a0,0,0,0,1,0,0V98.7a38.595,38.595,0,0,1-38.595,38.595H1158.85a0,0,0,0,1,0,0V95.482A0,0,0,0,1,1158.85,95.482Z"/><g><path fill="#f36d26" stroke="#000" stroke-linejoin="round" stroke-width="12" d="M1210.1,285.509,1152.655,268.4l17.107,57.441a32.429,32.429,0,0,0,31.079,23.172h0a32.427,32.427,0,0,0,32.427-32.427h0A32.428,32.428,0,0,0,1210.1,285.509Z" transform="translate(0 55.532)"/><circle cx="1199.855" cy="371.134" r="14.878" fill="#fff" stroke="#8f1738" stroke-linejoin="round" stroke-width="12"/></g><g><path fill="#f36d26" stroke="#000" stroke-linejoin="round" stroke-width="12" d="M1095.214,285.509l57.441-17.107-17.107,57.441a32.427,32.427,0,0,1-31.078,23.172h0a32.428,32.428,0,0,1-32.428-32.427h0A32.428,32.428,0,0,1,1095.214,285.509Z" transform="translate(0 55.532)"/><circle cx="1105.455" cy="371.134" r="14.878" fill="#fff" stroke="#8f1738" stroke-linejoin="round" stroke-width="12"/></g><g><path fill="#f36d26" stroke="#000" stroke-linejoin="round" stroke-width="12" d="M1181.176,321.116,1152.655,268.4l-28.52,52.714a32.426,32.426,0,0,0,5.591,38.36h0a32.427,32.427,0,0,0,45.859,0h0A32.426,32.426,0,0,0,1181.176,321.116Z" transform="translate(0 55.532)"/><circle cx="1152.655" cy="390.685" r="14.878" fill="#fff" stroke="#8f1738" stroke-linejoin="round" stroke-width="12"/></g><path fill="#8f1738" stroke="#000" stroke-linejoin="round" stroke-width="12" d="M1144.152,95.482h27.263a29.761,29.761,0,0,1,29.761,29.761v42.793a0,0,0,0,1,0,0h-86.785a0,0,0,0,1,0,0V125.243A29.761,29.761,0,0,1,1144.152,95.482Z"/><path fill="#f36d26" stroke="#000" stroke-linejoin="round" stroke-width="12" d="M1092.51,137.3h30.941a16.247,16.247,0,0,1,16.247,16.247v14.493a0,0,0,0,1,0,0h-76.534a0,0,0,0,1,0,0v-1.393A29.346,29.346,0,0,1,1092.51,137.3Z"/><ellipse cx="1161.408" cy="131.105" stroke="#fff" stroke-linejoin="round" stroke-width="6" rx="23.735" ry="15.654"/><ellipse cx="1161.408" cy="131.105" fill="#fff" rx="6.125" ry="4.04"/><rect width="59.722" height="23.537" x="1125.422" y="168.036" fill="#8f1738" stroke="#000" stroke-linejoin="round" stroke-width="12"/><path fill="#8f1738" stroke="#000" stroke-linejoin="round" stroke-width="12" d="M1100.751,191.966h109.234a0,0,0,0,1,0,0v82.876a54.617,54.617,0,0,1-54.617,54.617h0a54.617,54.617,0,0,1-54.617-54.617V191.966a0,0,0,0,1,0,0Z"/><path fill="#f36d26" stroke="#fff" stroke-linejoin="round" stroke-width="4" d="M1142.446,241.807h25.675a0,0,0,0,1,0,0v12.837a12.837,12.837,0,0,1-12.837,12.837h0a12.837,12.837,0,0,1-12.837-12.837V241.807A0,0,0,0,1,1142.446,241.807Z"/><path fill="#f36d26" stroke="#fff" stroke-linejoin="round" stroke-width="4" d="M1129.608,222.739h25.675a0,0,0,0,1,0,0v12.837a12.837,12.837,0,0,1-12.837,12.837h0a12.837,12.837,0,0,1-12.837-12.837V222.739A0,0,0,0,1,1129.608,222.739Z"/><path fill="#f36d26" stroke="#fff" stroke-linejoin="round" stroke-width="4" d="M1155.283,222.739h25.675a0,0,0,0,1,0,0v12.837a12.837,12.837,0,0,1-12.837,12.837h0a12.837,12.837,0,0,1-12.837-12.837V222.739A0,0,0,0,1,1155.283,222.739Z"/><path fill="#f36d26" stroke="#fff" stroke-linejoin="round" stroke-width="4" d="M1116.856,203.853h25.675a0,0,0,0,1,0,0V216.69a12.837,12.837,0,0,1-12.837,12.837h0a12.837,12.837,0,0,1-12.837-12.837V203.853a0,0,0,0,1,0,0Z"/><path fill="#f36d26" stroke="#fff" stroke-linejoin="round" stroke-width="4" d="M1142.531,203.853h25.675a0,0,0,0,1,0,0V216.69a12.837,12.837,0,0,1-12.837,12.837h0a12.837,12.837,0,0,1-12.837-12.837V203.853a0,0,0,0,1,0,0Z"/><path fill="#f36d26" stroke="#fff" stroke-linejoin="round" stroke-width="4" d="M1168.205,203.853h25.675a0,0,0,0,1,0,0V216.69a12.837,12.837,0,0,1-12.837,12.837h0a12.837,12.837,0,0,1-12.837-12.837V203.853A0,0,0,0,1,1168.205,203.853Z"/><path fill="#f36d26" stroke="#000" stroke-linejoin="round" stroke-width="12" d="M1209.985,191.966h64.14a86.866,86.866,0,0,1,86.866,86.866v24.292a0,0,0,0,1,0,0h-59.284a91.721,91.721,0,0,1-91.721-91.721V191.966A0,0,0,0,1,1209.985,191.966Z"/><path fill="#8f1738" stroke="#000" stroke-linejoin="round" stroke-width="12" d="M1239.332,211.676H1274.1a47.092,47.092,0,0,1,47.092,47.092v13.169a0,0,0,0,1,0,0h-32.139a49.724,49.724,0,0,1-49.724-49.724V211.676A0,0,0,0,1,1239.332,211.676Z"/><path fill="#f36d26" stroke="#fff" stroke-linejoin="round" stroke-width="4" d="M1260.149,225.894h15.533a21.037,21.037,0,0,1,21.037,21.037v5.883a0,0,0,0,1,0,0h-14.358a22.213,22.213,0,0,1-22.213-22.213v-4.707A0,0,0,0,1,1260.149,225.894Z"/><path fill="#f36d26" stroke="#000" stroke-linejoin="round" stroke-width="12" d="M1041.3,136.434h59.284a0,0,0,0,1,0,0v24.292a86.866,86.866,0,0,1-86.866,86.866h-64.14a0,0,0,0,1,0,0V228.155A91.721,91.721,0,0,1,1041.3,136.434Z" transform="translate(2050.156 439.557) rotate(180)"/><path fill="#8f1738" stroke="#000" stroke-linejoin="round" stroke-width="12" d="M1039.1,156.144h32.139a0,0,0,0,1,0,0v13.169a47.092,47.092,0,0,1-47.092,47.092H989.371a0,0,0,0,1,0,0V205.868a49.724,49.724,0,0,1,49.724-49.724Z" transform="translate(2060.605 428.081) rotate(180)"/><path fill="#f36d26" stroke="#fff" stroke-linejoin="round" stroke-width="4" d="M1036.06,170.362h14.358a0,0,0,0,1,0,0v5.883a21.037,21.037,0,0,1-21.037,21.037h-15.533a0,0,0,0,1,0,0v-4.707A22.213,22.213,0,0,1,1036.06,170.362Z" transform="translate(2064.264 423.177) rotate(180)"/><path fill="#f36d26" d="M1125.422,222.076a29.861,29.861,0,0,0,59.722,0Z" transform="translate(0 55.532)"/><line x1="1203.891" x2="1280.403" y1="299.931" y2="376.442" fill="none" stroke="#000" stroke-linejoin="round" stroke-width="12"/><polyline fill="none" stroke="#000" stroke-linejoin="round" stroke-width="12" points="1251.43 386.013 1251.43 347.47 1289.973 347.47"/><line x1="1101.419" x2="1024.908" y1="299.931" y2="376.442" fill="none" stroke="#000" stroke-linejoin="round" stroke-width="12"/><polyline fill="none" stroke="#000" stroke-linejoin="round" stroke-width="12" points="1053.88 386.013 1053.88 347.47 1015.337 347.47"/></g><g><line x1="86.452" x2="137.117" y1="630.28" y2="630.28" fill="none" stroke="#fff" stroke-linejoin="round" stroke-width="6"/><line x1="65.827" x2="116.491" y1="644.604" y2="644.604" fill="none" stroke="#fff" stroke-linejoin="round" stroke-width="6"/></g><g><line x1="879.794" x2="930.459" y1="949.648" y2="949.648" fill="none" stroke="#48773c" stroke-linejoin="round" stroke-width="6"/><line x1="859.169" x2="909.834" y1="963.972" y2="963.972" fill="none" stroke="#48773c" stroke-linejoin="round" stroke-width="6"/></g><circle cx="624.547" cy="1135.668" r="13.173" fill="#fff" stroke="#000" stroke-linejoin="round" stroke-width="8"/><g><path fill="#289b48" d="M1703.576,6.671s-7,57.646,24.232,88.881,88.881,24.232,88.881,24.232,7-57.646-24.232-88.881S1703.576,6.671,1703.576,6.671Z" transform="translate(0 55.532)"/><g clip-path="url(#j)"><line x1="1816.689" x2="1703.576" y1="175.316" y2="62.203" fill="none" stroke="#fcb615" stroke-linejoin="round" stroke-width="6"/><line x1="1790.674" x2="1668.158" y1="149.922" y2="151.038" fill="none" stroke="#fcb615" stroke-linejoin="round" stroke-width="6"/><line x1="1790.674" x2="1791.789" y1="149.922" y2="27.407" fill="none" stroke="#fcb615" stroke-linejoin="round" stroke-width="6"/><line x1="1763.294" x2="1640.779" y1="122.543" y2="123.658" fill="none" stroke="#fcb615" stroke-linejoin="round" stroke-width="6"/><line x1="1763.294" x2="1764.41" y1="122.543" y2=".027" fill="none" stroke="#fcb615" stroke-linejoin="round" stroke-width="6"/></g><path fill="none" stroke="#000" stroke-linejoin="round" stroke-width="12" d="M1703.576,6.671s-7,57.646,24.232,88.881,88.881,24.232,88.881,24.232,7-57.646-24.232-88.881S1703.576,6.671,1703.576,6.671Z" transform="translate(0 55.532)"/></g><g><rect width="263.297" height="260.774" x="1782.85" y="93.994" fill="#017dbc" rx="18.555"/><g clip-path="url(#k)"><rect width="333.767" height="70.844" x="1752.313" y="74.426" fill="#fff" stroke="#000" stroke-linejoin="round" stroke-width="8"/><circle cx="1813.974" cy="121.589" r="7.827" fill="#c31e33"/><circle cx="1837.974" cy="121.589" r="7.827" fill="#d19f2a"/><circle cx="1861.974" cy="121.589" r="7.827" fill="#48773c"/></g><rect width="263.297" height="260.774" x="1782.85" y="93.994" fill="none" stroke="#000" stroke-linejoin="round" stroke-width="12" rx="18.555"/></g><g><path fill="#fff" d="M1997.188,152.95s-37.021-40.123-82.689-40.123-82.689,40.123-82.689,40.123,37.021,40.124,82.689,40.124S1997.188,152.95,1997.188,152.95Z" transform="translate(0 55.532)"/><g clip-path="url(#l)"><circle cx="1914.499" cy="208.483" r="37.627" fill="#48773c" stroke="#000" stroke-linejoin="round" stroke-width="8"/><circle cx="1914.499" cy="208.483" r="23.188" fill="#fdb715"/><circle cx="1914.499" cy="208.483" r="9.954" fill="#02558b"/></g><path fill="none" stroke="#000" stroke-linejoin="round" stroke-width="12" d="M1997.188,152.95s-37.021-40.123-82.689-40.123-82.689,40.123-82.689,40.123,37.021,40.124,82.689,40.124S1997.188,152.95,1997.188,152.95Z" transform="translate(0 55.532)"/></g><path fill="none" stroke="#000" stroke-linejoin="round" stroke-width="12" d="M1792.161,352.1h101.733A20.6,20.6,0,0,0,1914.5,331.5v-31.58" transform="translate(0 55.532)"/><circle cx="1914.499" cy="354.768" r="13.173" fill="#fff" stroke="#000" stroke-linejoin="round" stroke-width="8"/><circle cx="1464.943" cy="249.775" r="13.173" fill="#fff" stroke="#000" stroke-linejoin="round" stroke-width="8"/><g><path fill="#f99d26" d="M1850.714,248.128a4,4,0,0,1-4-4V228.567a4,4,0,0,1,8,0v15.561A4,4,0,0,1,1850.714,248.128Z" transform="translate(0 55.532)"/><path fill="#f99d26" d="M1887.162,243.977a4,4,0,0,1-4-4v-7.256a4,4,0,1,1,8,0v7.256A4,4,0,0,1,1887.162,243.977Z" transform="translate(0 55.532)"/><path fill="#f99d26" d="M1868.939,255.818a4,4,0,0,1-4-4V220.877a4,4,0,0,1,8,0v30.941A4,4,0,0,1,1868.939,255.818Z" transform="translate(0 55.532)"/><path fill="#f99d26" d="M1923.611,248.128a4,4,0,0,1-4-4V228.567a4,4,0,1,1,8,0v15.561A4,4,0,0,1,1923.611,248.128Z" transform="translate(0 55.532)"/><path fill="#f99d26" d="M1905.387,260.928a4,4,0,0,1-4-4v-41.16a4,4,0,1,1,8,0v41.16A4,4,0,0,1,1905.387,260.928Z" transform="translate(0 55.532)"/><path fill="#f99d26" d="M1960.059,243.977a4,4,0,0,1-4-4v-7.256a4,4,0,1,1,8,0v7.256A4,4,0,0,1,1960.059,243.977Z" transform="translate(0 55.532)"/><path fill="#f99d26" d="M1978.283,255.818a4,4,0,0,1-4-4V220.877a4,4,0,1,1,8,0v30.941A4,4,0,0,1,1978.283,255.818Z" transform="translate(0 55.532)"/><path fill="#f99d26" d="M1941.834,266.491a4,4,0,0,1-4-4V210.2a4,4,0,1,1,8,0v52.287A4,4,0,0,1,1941.834,266.491Z" transform="translate(0 55.532)"/></g><rect width="239.364" height="107.277" x="225.163" y="83.673" fill="#02558b" stroke="#000" stroke-linejoin="round" stroke-width="12" rx="17.832"/><rect width="67.277" height="199.364" x="311.207" y="-17.903" fill="none" stroke="#fdb715" stroke-linejoin="round" stroke-width="4" rx="5.119" transform="translate(426.625 -207.534) rotate(90)"/><g><polygon fill="#fdb715" points="421.878 137.039 393.013 115.179 393.013 158.899 421.878 137.039"/><rect width="136.399" height="20.399" x="268.011" y="127.065" fill="#fdb715"/></g><path fill="#fff" stroke="#000" stroke-linejoin="round" stroke-width="12" d="M1281.487,101.063H1501.28A65.251,65.251,0,0,0,1390.026,54.8a48.616,48.616,0,0,0-54.777,18.936,34.314,34.314,0,0,0-53.762,27.323Z" transform="translate(0 55.532)"/><path fill="#fff" stroke="#000" stroke-linejoin="round" stroke-width="12" d="M1022.9,101.063H803.111A65.251,65.251,0,0,1,914.365,54.8,48.616,48.616,0,0,1,969.142,73.74a34.314,34.314,0,0,1,53.762,27.323Z" transform="translate(0 55.532)"/><circle cx="907.651" cy="415.563" r="13.173" fill="#fff" stroke="#000" stroke-linejoin="round" stroke-width="8"/><circle cx="1471.679" cy="1135.668" r="13.173" fill="#fff" stroke="#000" stroke-linejoin="round" stroke-width="8"/><circle cx="1749.804" cy="1058.501" r="13.173" fill="#fff" stroke="#000" stroke-linejoin="round" stroke-width="8"/><rect width="158.984" height="84.501" x="32.332" y="137.039" fill="#c22033" stroke="#000" stroke-linejoin="round" stroke-width="12"/><rect width="173.601" height="30.995" x="17.714" y="106.044" fill="#fff" stroke="#000" stroke-linejoin="round" stroke-width="12"/><rect width="90.904" height="38.935" x="65.657" y="159.821" fill="#fdb715" stroke="#fff" stroke-linejoin="round" stroke-width="8"/><path fill="#eb1b2e" stroke="#fff" stroke-linejoin="round" stroke-width="8" d="M382.934,723l-2.79,2.8-28.84,28.84L319.664,723a20.393,20.393,0,0,1,28.84-28.84l2.8,2.8,2.79-2.8A20.393,20.393,0,1,1,382.934,723Z" transform="translate(0 55.532)"/><line x1="196.407" x2="161.02" y1="834.671" y2="834.671" fill="none" stroke="#000" stroke-linejoin="round" stroke-width="11.518"/><line x1="346.176" x2="317.339" y1="637.216" y2="637.216" fill="none" stroke="#000" stroke-linejoin="round" stroke-width="11.518"/><g><g><path fill="#fff" d="M1313.989,297.631H1326.8l12.49,30.812,12.364-30.812h12.743v44.507h-10.841V315.446l-9.955,26.692h-8.748l-10.018-26.755v26.755h-10.841Z" transform="translate(0 55.532)"/><path fill="#fff" d="M1367.778,297.631h12.3l8.621,18.64,8.56-18.64h12.173l-15.406,29.8v14.709h-10.842V327.429Z" transform="translate(0 55.532)"/><path fill="#fff" d="M1312.531,391.781c9.827-8.115,20.288-16.167,20.288-23.965,0-3.36-1.522-5.515-4.819-5.515-3.233,0-5.135,2.536-5.135,6.91H1312.4c.317-11.222,7.608-16.04,16.04-16.04,10.525,0,15.216,6.149,15.216,13.948,0,10.144-9.066,18.259-16.42,23.9h17.118v8.813h-31.827Z" transform="translate(0 55.532)"/><path fill="#fff" d="M1366.405,353.234c13.187,0,17.815,9.891,17.815,23.458,0,13.695-4.628,23.585-17.815,23.585s-17.816-9.89-17.816-23.585C1348.589,363.125,1353.217,353.234,1366.405,353.234Zm0,10.144c-6.4,0-7.164,6.214-7.164,13.314,0,7.355.76,13.441,7.164,13.441s7.164-6.086,7.164-13.441C1373.569,369.592,1372.808,363.378,1366.405,363.378Z" transform="translate(0 55.532)"/><path fill="#fff" d="M1329.078,411.438c9.764,0,15.026,5.579,15.026,12.552a10.492,10.492,0,0,1-6.975,10.4v.254c4.629,1.521,7.8,5.072,7.8,11.158,0,7.8-5.579,13.378-15.279,13.378-9.637,0-16.612-4.566-16.928-15.027h10.523c.065,3.615,2.03,6.024,6.024,6.024a4.827,4.827,0,0,0,5.2-5.2c0-4.121-2.473-5.77-8.115-5.77h-2.029v-8.812h2.029c3.678,0,7.227-.888,7.227-5.073,0-3.106-1.838-4.818-4.755-4.818-3.487,0-4.755,2.536-4.945,5.072h-10.588C1313.672,416.445,1319.631,411.438,1329.078,411.438Z" transform="translate(0 55.532)"/><path fill="#fff" d="M1367.868,411.564c13.188,0,17.816,9.89,17.816,23.459,0,13.694-4.628,23.583-17.816,23.583s-17.815-9.889-17.815-23.583C1350.053,421.454,1354.682,411.564,1367.868,411.564Zm0,10.144c-6.4,0-7.164,6.213-7.164,13.315,0,7.353.761,13.44,7.164,13.44s7.164-6.087,7.164-13.44C1375.032,427.921,1374.272,421.708,1367.868,421.708Z" transform="translate(0 55.532)"/></g><line x1="1310.958" x2="1392.814" y1="533.527" y2="533.527" fill="none" stroke="#fff" stroke-linejoin="round" stroke-width="6"/><line x1="1310.059" x2="1413.962" y1="334.703" y2="334.703" fill="none" stroke="#fff" stroke-linejoin="round" stroke-width="6"/></g></g></svg>