<svg xmlns="http://www.w3.org/2000/svg" xmlns:xlink="http://www.w3.org/1999/xlink" viewBox="0 0 2245.47 1112.68"><defs><style>.cls-1,.cls-20{fill:#269b48}.cls-1,.cls-10,.cls-11,.cls-15,.cls-16,.cls-2,.cls-27,.cls-28,.cls-29,.cls-3,.cls-30,.cls-31,.cls-32,.cls-35,.cls-36,.cls-37,.cls-38,.cls-4,.cls-42,.cls-44,.cls-5,.cls-52,.cls-54,.cls-6,.cls-61,.cls-63,.cls-66,.cls-67,.cls-7,.cls-71,.cls-72,.cls-73,.cls-8,.cls-84,.cls-85,.cls-86,.cls-9{stroke:#000}.cls-1,.cls-10,.cls-11,.cls-12,.cls-13,.cls-15,.cls-16,.cls-17,.cls-18,.cls-2,.cls-22,.cls-25,.cls-27,.cls-28,.cls-29,.cls-3,.cls-30,.cls-31,.cls-32,.cls-35,.cls-36,.cls-37,.cls-38,.cls-4,.cls-40,.cls-41,.cls-42,.cls-44,.cls-49,.cls-5,.cls-50,.cls-51,.cls-52,.cls-54,.cls-57,.cls-6,.cls-61,.cls-63,.cls-65,.cls-66,.cls-67,.cls-69,.cls-7,.cls-71,.cls-72,.cls-73,.cls-74,.cls-75,.cls-76,.cls-79,.cls-8,.cls-80,.cls-84,.cls-85,.cls-86,.cls-9,.cls-92{stroke-linejoin:round}.cls-1,.cls-10,.cls-11,.cls-15,.cls-16,.cls-17,.cls-18,.cls-2,.cls-3,.cls-32,.cls-4,.cls-40,.cls-41,.cls-42,.cls-5,.cls-52,.cls-6,.cls-61,.cls-65,.cls-66,.cls-7,.cls-71,.cls-72,.cls-73,.cls-74,.cls-79,.cls-8,.cls-9{stroke-width:12px}.cls-2,.cls-23,.cls-63,.cls-75,.cls-76{fill:#02aed9}.cls-18,.cls-3,.cls-53,.cls-74{fill:#eb1b2e}.cls-17,.cls-19,.cls-4{fill:#fdb715}.cls-30,.cls-44,.cls-5,.cls-67,.cls-82{fill:#5dbb46}.cls-6,.cls-88{fill:#a21942}.cls-7,.cls-90,.cls-92{fill:#f26e24}.cls-14,.cls-35,.cls-38,.cls-8,.cls-85{fill:#fff}.cls-27,.cls-45,.cls-9{fill:#017dbc}.cls-10,.cls-47,.cls-50,.cls-69{fill:#02558b}.cls-11{fill:#b3b3b3}.cls-12,.cls-13,.cls-15,.cls-22,.cls-25,.cls-29,.cls-31,.cls-36,.cls-40,.cls-41,.cls-49,.cls-51,.cls-57,.cls-65,.cls-79,.cls-86{fill:none}.cls-12,.cls-51,.cls-57,.cls-74,.cls-92{stroke:#fdb715}.cls-12,.cls-13,.cls-22,.cls-31,.cls-38,.cls-75,.cls-76{stroke-width:6px}.cls-13,.cls-17,.cls-18,.cls-25,.cls-41,.cls-69,.cls-76{stroke:#fff}.cls-16,.cls-84{fill:#e11584}.cls-21{clip-path:url(#clip-path)}.cls-22,.cls-80{stroke:#5dbb46}.cls-24{clip-path:url(#clip-path-2)}.cls-25,.cls-35,.cls-36,.cls-37,.cls-49,.cls-50,.cls-51,.cls-54,.cls-63,.cls-67,.cls-69,.cls-80,.cls-92{stroke-width:8px}.cls-26{clip-path:url(#clip-path-3)}.cls-27,.cls-28,.cls-30,.cls-84,.cls-85,.cls-86{stroke-width:10px}.cls-28,.cls-42,.cls-55{fill:#8f1738}.cls-29,.cls-57{stroke-width:4px}.cls-32,.cls-33{fill:#333}.cls-34,.cls-37{fill:#ef3f2c}.cls-39{clip-path:url(#clip-path-4)}.cls-40{stroke:#ef3f2c}.cls-43{clip-path:url(#clip-path-5)}.cls-44{stroke-width:9.34px}.cls-46{clip-path:url(#clip-path-6)}.cls-48{clip-path:url(#clip-path-7)}.cls-49,.cls-50{stroke:#02aed9}.cls-52,.cls-54{fill:#f36d26}.cls-56{clip-path:url(#clip-path-8)}.cls-58{clip-path:url(#clip-path-9)}.cls-59{clip-path:url(#clip-path-10)}.cls-60{clip-path:url(#clip-path-11)}.cls-62{clip-path:url(#clip-path-12)}.cls-64{clip-path:url(#clip-path-13)}.cls-65{stroke:#269b48}.cls-66{fill:#fbfbfb}.cls-68{clip-path:url(#clip-path-14)}.cls-70{clip-path:url(#clip-path-15)}.cls-71{fill:#666}.cls-72,.cls-81{fill:#f89c25}.cls-73{fill:#981398}.cls-75{stroke:#02558b}.cls-77{clip-path:url(#clip-path-16)}.cls-78{opacity:.3}.cls-79{stroke:#f89c25}.cls-83{clip-path:url(#clip-path-17)}.cls-87{clip-path:url(#clip-path-18)}.cls-89{clip-path:url(#clip-path-19)}.cls-91{clip-path:url(#clip-path-20)}</style><clipPath id="clip-path"><path d="M2013.17,766.26h37.2a84.68,84.68,0,0,1,84.68,84.68v37.2a0,0,0,0,1,0,0h-37.2a84.68,84.68,0,0,1-84.68-84.68v-37.2A0,0,0,0,1,2013.17,766.26Z" class="cls-1" transform="translate(1246.92 2901.31) rotate(-90)"/></clipPath><clipPath id="clip-path-2"><rect width="222.89" height="132.31" x="1215.23" y="89.42" class="cls-2"/></clipPath><clipPath id="clip-path-3"><path d="M626.11,123.44h37.2a0,0,0,0,1,0,0v37.2a84.68,84.68,0,0,1-84.68,84.68h-37.2a0,0,0,0,1,0,0v-37.2a84.68,84.68,0,0,1,84.68-84.68Z" class="cls-1" transform="translate(417.99 786.76) rotate(-90)"/></clipPath><clipPath id="clip-path-4"><polygon points="1500.37 770.07 1526.53 889.7 1558.14 770.07 1500.37 770.07" class="cls-8"/></clipPath><clipPath id="clip-path-5"><circle cx="1038.64" cy="374.21" r="75.2" class="cls-1"/></clipPath><clipPath id="clip-path-6"><rect width="269.72" height="314.86" x="609.22" y="214.45" class="cls-9"/></clipPath><clipPath id="clip-path-7"><rect width="111.35" height="314.86" x="875.41" y="214.45" class="cls-10"/></clipPath><clipPath id="clip-path-8"><path d="M421.65,688.94H448.7a0,0,0,0,1,0,0V716a48.49,48.49,0,0,1-48.49,48.49H373.16a0,0,0,0,1,0,0V737.43A48.49,48.49,0,0,1,421.65,688.94Z" class="cls-1"/></clipPath><clipPath id="clip-path-9"><path d="M421.65,811.77H448.7a0,0,0,0,1,0,0v27.06a48.49,48.49,0,0,1-48.49,48.49H373.16a0,0,0,0,1,0,0V860.26A48.49,48.49,0,0,1,421.65,811.77Z" class="cls-1"/></clipPath><clipPath id="clip-path-10"><path d="M259.3,719.12h27.06a48.49,48.49,0,0,1,48.49,48.49v27.06a0,0,0,0,1,0,0H307.78a48.49,48.49,0,0,1-48.49-48.49V719.12A0,0,0,0,1,259.3,719.12Z" class="cls-1" transform="translate(594.14 1513.79) rotate(-180)"/></clipPath><clipPath id="clip-path-11"><path d="M241.77,598.29h32.87a58.91,58.91,0,0,1,58.91,58.91v32.87a0,0,0,0,1,0,0H300.68a58.91,58.91,0,0,1-58.91-58.91V598.29A0,0,0,0,1,241.77,598.29Z" class="cls-1" transform="translate(575.32 1288.37) rotate(-180)"/></clipPath><clipPath id="clip-path-12"><path d="M957.57,950.61H1303.1a29.58,29.58,0,0,1,29.58,29.58v105.46a0,0,0,0,1,0,0H984.49a26.92,26.92,0,0,1-26.92-26.92V950.61A0,0,0,0,1,957.57,950.61Z" class="cls-3"/></clipPath><clipPath id="clip-path-13"><path d="M853.17,950.61H1198.7a29.58,29.58,0,0,1,29.58,29.58v105.46a0,0,0,0,1,0,0H880.09a26.92,26.92,0,0,1-26.92-26.92V950.61A0,0,0,0,1,853.17,950.61Z" class="cls-4"/></clipPath><clipPath id="clip-path-14"><rect width="182.66" height="339.23" x="61.89" y="189.92" class="cls-3"/></clipPath><clipPath id="clip-path-15"><circle cx="94.72" cy="474.81" r="75.2" class="cls-1"/></clipPath><clipPath id="clip-path-16"><path d="M868.37,113H944a36.06,36.06,0,0,1,36.06,36.06v0A36.06,36.06,0,0,1,944,185.15H832.31a0,0,0,0,1,0,0V149.1A36.06,36.06,0,0,1,868.37,113Z" class="cls-4" transform="translate(1812.38 298.2) rotate(180)"/></clipPath><clipPath id="clip-path-17"><circle cx="1717.4" cy="528.58" r="114.11" class="cls-5"/></clipPath><clipPath id="clip-path-18"><circle cx="2045.66" cy="935.97" r="75.2" class="cls-1"/></clipPath><clipPath id="clip-path-19"><path d="M1980.95,331.85H2032a51.07,51.07,0,0,1,51.07,51.07v0A51.07,51.07,0,0,1,2032,434h0a51.07,51.07,0,0,1-51.07-51.07V331.85A0,0,0,0,1,1980.95,331.85Z" class="cls-6" transform="translate(865.93 -1324.7) rotate(45)"/></clipPath><clipPath id="clip-path-20"><path d="M1668.74,273.88H1717a48.31,48.31,0,0,1,48.31,48.31v0A48.31,48.31,0,0,1,1717,370.5h0a48.31,48.31,0,0,1-48.31-48.31V273.88A0,0,0,0,1,1668.74,273.88Z" class="cls-7" transform="translate(3159 -664.13) rotate(135)"/></clipPath></defs><g id="Layer_2" data-name="Layer 2"><g id="sdg11"><path d="M1676.81,88.54h198.44a83.56,83.56,0,0,1,83.56,83.56V322.19a0,0,0,0,1,0,0h-282a0,0,0,0,1,0,0V88.54a0,0,0,0,1,0,0Z" class="cls-5"/><rect width="145.13" height="182.54" x="979.14" y="734.96" class="cls-11"/><rect width="103.05" height="138.68" x="1000.17" y="756.89" class="cls-5"/><line x1="1015.76" x2="1048.12" y1="832.85" y2="832.85" class="cls-12"/><line x1="1015.76" x2="1048.12" y1="775.4" y2="775.4" class="cls-12"/><line x1="1056.92" x2="1056.92" y1="880.01" y2="862.73" class="cls-13"/><line x1="1029.78" x2="1029.78" y1="880.01" y2="872.74" class="cls-13"/><line x1="1082.49" x2="1082.49" y1="880.01" y2="846.72" class="cls-13"/><line x1="1070.49" x2="1070.49" y1="880.01" y2="853.88" class="cls-13"/><line x1="1043.35" x2="1043.35" y1="880.01" y2="866.89" class="cls-13"/><path d="M1043.92,816.09a10.4,10.4,0,0,1-4.09,3.7,14.61,14.61,0,0,1-6.41,1.58v4h-3.11v-4a14.59,14.59,0,0,1-8.33-3.1,9.5,9.5,0,0,1-3.36-7.23h8.86a4,4,0,0,0,2.83,3.75v-7.69a49.4,49.4,0,0,1-6.07-1.9,10.11,10.11,0,0,1-4-3,8.48,8.48,0,0,1-1.71-5.6,8.7,8.7,0,0,1,3.29-7.11,14.52,14.52,0,0,1,8.45-3v-4h3.11v4a13.57,13.57,0,0,1,8.09,3,10,10,0,0,1,3.31,7.16h-8.91a3.72,3.72,0,0,0-2.49-3.41v7.55a62.52,62.52,0,0,1,6.24,2,10.18,10.18,0,0,1,3.92,2.9,8.25,8.25,0,0,1,1.73,5.53A9.34,9.34,0,0,1,1043.92,816.09Zm-15.78-17.85a6.47,6.47,0,0,0,2.17,1.46v-6.77a3.94,3.94,0,0,0-2.15,1.05,3.11,3.11,0,0,0-.77,2.22A2.92,2.92,0,0,0,1028.14,798.24Zm7.6,15.49a3.29,3.29,0,0,0,.85-2.29,2.84,2.84,0,0,0-.8-2.07,6.59,6.59,0,0,0-2.37-1.39v6.92A3.94,3.94,0,0,0,1035.74,813.73Z" class="cls-14"/><rect width="21.48" height="57.86" x="1062.75" y="774.99" class="cls-13"/><rect width="621.94" height="107.22" x="62.09" y="657.27" class="cls-11"/><rect width="2000.63" height="1000.26" x="61.89" y="89.42" class="cls-15"/><polygon points="2094.12 507.57 2032.02 468.49 1969.92 507.57 1969.92 714.04 2094.12 714.04 2094.12 507.57" class="cls-1"/><polygon points="2094.12 614.18 2032.02 575.1 1969.92 614.18 1969.92 775.4 2094.12 775.4 2094.12 614.18" class="cls-16"/><line x1="2032.02" x2="2032.02" y1="468.49" y2="575.1" class="cls-15"/><rect width="44.87" height="111.25" x="2009.58" y="634.62" class="cls-17"/><circle cx="1674.17" cy="90.95" r="84.95" class="cls-18"/><circle cx="1674.17" cy="90.95" r="64.07" class="cls-19"/><path d="M2013.17,766.26h37.2a84.68,84.68,0,0,1,84.68,84.68v37.2a0,0,0,0,1,0,0h-37.2a84.68,84.68,0,0,1-84.68-84.68v-37.2A0,0,0,0,1,2013.17,766.26Z" class="cls-20" transform="translate(1246.92 2901.31) rotate(-90)"/><g class="cls-21"><line x1="2013.17" x2="2174.19" y1="888.14" y2="727.12" class="cls-22"/><rect width="159.29" height="159.29" x="2083.17" y="659.48" class="cls-22" transform="translate(1423.69 2901.95) rotate(-90)"/><rect width="159.29" height="159.29" x="2044.44" y="698.21" class="cls-22" transform="translate(1346.23 2901.95) rotate(-90)"/></g><path d="M2013.17,766.26h37.2a84.68,84.68,0,0,1,84.68,84.68v37.2a0,0,0,0,1,0,0h-37.2a84.68,84.68,0,0,1-84.68-84.68v-37.2A0,0,0,0,1,2013.17,766.26Z" class="cls-15" transform="translate(1246.92 2901.31) rotate(-90)"/><path d="M1883.92,457.48v212a28.87,28.87,0,0,1-28.86,28.86H1739.63a24.54,24.54,0,0,1-24.54-24.53V622.67" class="cls-15"/><path d="M1883.92,407h26.14a0,0,0,0,1,0,0v52.29a0,0,0,0,1,0,0h-26.14a26.14,26.14,0,0,1-26.14-26.14v0A26.14,26.14,0,0,1,1883.92,407Z" class="cls-1" transform="translate(1450.78 2317.05) rotate(-90)"/><rect width="25.06" height="74.84" x="1871.39" y="356.97" class="cls-4" transform="translate(1489.53 2278.3) rotate(-90)"/><line x1="1867.76" x2="1867.76" y1="381.86" y2="344.89" class="cls-15"/><line x1="1900.07" x2="1900.07" y1="381.86" y2="344.89" class="cls-15"/><rect width="222.89" height="132.31" x="1215.23" y="89.42" class="cls-23"/><g class="cls-24"><path d="M1210.6,109.74c23.05,0,23.05,20,46.1,20s23.06-20,46.11-20,23.06,20,46.11,20,23.06-20,46.12-20,23,20,46.11,20" class="cls-25"/><path d="M1210.6,146c23.05,0,23.05,20,46.1,20s23.06-20,46.11-20,23.06,20,46.11,20S1372,146,1395,146s23,20,46.11,20" class="cls-25"/><path d="M1210.6,182.27c23.05,0,23.05,20,46.1,20s23.06-20,46.11-20,23.06,20,46.11,20,23.06-20,46.12-20,23,20,46.11,20" class="cls-25"/></g><rect width="222.89" height="132.31" x="1215.23" y="89.42" class="cls-15"/><path d="M1481.6,209.71h-42.19a149.22,149.22,0,0,0-149.22,149.22v15.28h81.86V348.75a26.56,26.56,0,0,1,26.57-26.56h83Z" class="cls-1"/><rect width="108.76" height="246.92" x="1568.05" y="75.27" class="cls-6" transform="translate(3244.86 397.45) rotate(180)"/><rect width="145.73" height="246.92" x="1422.32" y="75.27" class="cls-3"/><rect width="220.64" height="28.9" x="1841.87" y="775.4" class="cls-8"/><rect width="376.59" height="191.07" x="1685.97" y="802.75" class="cls-3"/><rect width="156.2" height="79.52" x="1877.58" y="860.77" class="cls-2"/><rect width="155.9" height="223.76" x="1685.97" y="770.07" class="cls-3"/><rect width="39.19" height="65.34" x="715.48" y="159.6" class="cls-1"/><path d="M626.11,123.44h37.2a0,0,0,0,1,0,0v37.2a84.68,84.68,0,0,1-84.68,84.68h-37.2a0,0,0,0,1,0,0v-37.2a84.68,84.68,0,0,1,84.68-84.68Z" class="cls-20" transform="translate(417.99 786.76) rotate(-90)"/><g class="cls-26"><line x1="663.31" x2="502.3" y1="245.32" y2="84.31" class="cls-22"/><rect width="159.29" height="159.29" x="434.02" y="16.67" class="cls-22" transform="translate(417.35 609.98) rotate(-90)"/><rect width="159.29" height="159.29" x="472.75" y="55.4" class="cls-22" transform="translate(417.35 687.44) rotate(-90)"/></g><path d="M626.11,123.44h37.2a0,0,0,0,1,0,0v37.2a84.68,84.68,0,0,1-84.68,84.68h-37.2a0,0,0,0,1,0,0v-37.2a84.68,84.68,0,0,1,84.68-84.68Z" class="cls-15" transform="translate(417.99 786.76) rotate(-90)"/><path d="M1082.7,305.4H1109a52.36,52.36,0,0,1,52.36,52.36v0a0,0,0,0,1,0,0h-26.34a52.36,52.36,0,0,1-52.36-52.36v0A0,0,0,0,1,1082.7,305.4Z" class="cls-1" transform="translate(2244.12 663.17) rotate(180)"/><path d="M1249.82,305.4h26.34a0,0,0,0,1,0,0v0a52.36,52.36,0,0,1-52.36,52.36h-26.34a0,0,0,0,1,0,0v0A52.36,52.36,0,0,1,1249.82,305.4Z" class="cls-1"/><rect width="253.33" height="168.34" x="1280.28" y="441.02" class="cls-2"/><rect width="253.33" height="168.34" x="1300.3" y="421.01" class="cls-16"/><path d="M1371.44,545.67h106.77a36.65,36.65,0,0,1,36.65,36.65v7.23a0,0,0,0,1,0,0H1334.79a0,0,0,0,1,0,0v-7.23A36.65,36.65,0,0,1,1371.44,545.67Z" class="cls-27"/><path d="M1481.6,510.41h-7.53v10.71a10.58,10.58,0,0,1-10.58,10.58h-16v18.11a12.57,12.57,0,0,1-12.57,12.58h-28V464.52h67.18V486Z" class="cls-28"/><path d="M1474.07,516.5h-17.63a6,6,0,0,1-6-6.1h0" class="cls-29"/><path d="M1488.08,465.23v5.29h-68.22V589.35h-38.4V470.52a26.6,26.6,0,0,1,26.6-26.6h58.71A21.31,21.31,0,0,1,1488.08,465.23Z" class="cls-30"/><path d="M1461.1,493.75a7.79,7.79,0,0,0-15.58,0" class="cls-29"/><path d="M1197.46,171.83V506.14A21.83,21.83,0,0,1,1175.63,528H1058V494.2h103.39V171.83Z" class="cls-1"/><rect width="447.84" height="96.07" x="1614.72" y="993.66" class="cls-11"/><line x1="1426.53" x2="1426.53" y1="993.82" y2="1089.67" class="cls-31"/><line x1="1556.97" x2="1556.97" y1="993.82" y2="1089.67" class="cls-31"/><line x1="1687.42" x2="1687.42" y1="993.82" y2="1089.67" class="cls-31"/><line x1="1817.87" x2="1817.87" y1="993.82" y2="1089.67" class="cls-31"/><line x1="1948.31" x2="1948.31" y1="993.82" y2="1089.67" class="cls-31"/><line x1="109.14" x2="109.14" y1="657.92" y2="764.49" class="cls-31"/><line x1="239.59" x2="239.59" y1="657.92" y2="764.49" class="cls-31"/><line x1="370.03" x2="370.03" y1="657.92" y2="764.49" class="cls-31"/><line x1="500.48" x2="500.48" y1="657.92" y2="764.49" class="cls-31"/><line x1="630.92" x2="630.92" y1="657.92" y2="764.49" class="cls-31"/><path d="M1449.61,770.07h167.45a37.21,37.21,0,0,1,37.21,37.21V889.7a0,0,0,0,1,0,0H1412.4a0,0,0,0,1,0,0V807.28A37.21,37.21,0,0,1,1449.61,770.07Z" class="cls-32"/><path d="M1608,672.19a25.15,25.15,0,0,0-10.64-20.55,25.17,25.17,0,0,0-12.82-41.53,25.8,25.8,0,0,0,.22-3.31,25.16,25.16,0,0,0-42.65-18.1,25.17,25.17,0,0,0-48-1.49,25.17,25.17,0,0,0-41,19.59,25.17,25.17,0,0,0,0,50.34v18.08h104.67c.09.75.22,1.5.37,2.23a25.15,25.15,0,1,0,33.94,18.12A25.19,25.19,0,0,0,1608,672.19Z" class="cls-33"/><path d="M1608,672.19a25.15,25.15,0,0,0-10.64-20.55,25.17,25.17,0,0,0-12.82-41.53,25.8,25.8,0,0,0,.22-3.31,25.16,25.16,0,0,0-42.65-18.1,25.17,25.17,0,0,0-48-1.49,25.17,25.17,0,0,0-41,19.59,25.17,25.17,0,0,0,0,50.34v18.08h104.67c.09.75.22,1.5.37,2.23a25.15,25.15,0,1,0,33.94,18.12A25.19,25.19,0,0,0,1608,672.19Z" class="cls-15"/><path d="M1559.57,662.37a19.17,19.17,0,0,0-12,4.2v-15a19.34,19.34,0,0,0-19.34-19.35h-53.59a21.51,21.51,0,0,0-21.51,21.52v60a27.4,27.4,0,0,0,27.4,27.4h19.82v28.9h57.77V700.76c.47,0,.95.07,1.43.07a19.23,19.23,0,0,0,0-38.46Z" class="cls-34"/><path d="M1559.57,662.37a19.17,19.17,0,0,0-12,4.2v-15a19.34,19.34,0,0,0-19.34-19.35h-53.59a21.51,21.51,0,0,0-21.51,21.52v60a27.4,27.4,0,0,0,27.4,27.4h19.82v28.9h57.77V700.76c.47,0,.95.07,1.43.07a19.23,19.23,0,0,0,0-38.46Z" class="cls-15"/><circle cx="1509.61" cy="676.7" r="16.91" class="cls-35"/><circle cx="1461.4" cy="676.7" r="16.91" class="cls-35"/><line x1="1492.7" x2="1478.32" y1="676.7" y2="676.7" class="cls-36"/><line x1="1527.21" x2="1550.34" y1="668.45" y2="668.45" class="cls-36"/><path d="M1514.65,677.22a5,5,0,0,0-10.07,0" class="cls-29"/><path d="M1466.44,677.22a5,5,0,0,0-10.07,0" class="cls-29"/><path d="M1480.52,676.7l-4.83,17.13a7.37,7.37,0,0,0,7.09,9.36h15.08" class="cls-37"/><path d="M1468.93,715.14c0,6.6,10.64,12,23.77,12s23.76-5.35,23.76-12Z" class="cls-38"/><polygon points="1500.37 770.07 1526.53 889.7 1558.14 770.07 1500.37 770.07" class="cls-14"/><g class="cls-39"><line x1="1527.33" x2="1527.33" y1="769.95" y2="889.59" class="cls-40"/></g><polygon points="1500.37 770.07 1526.53 889.7 1558.14 770.07 1500.37 770.07" class="cls-15"/><line x1="1571.8" x2="1617.96" y1="838.83" y2="838.83" class="cls-41"/><line x1="1152.61" x2="1416.9" y1="839.69" y2="839.69" class="cls-5"/><path d="M1276.85,890.49h337.87a0,0,0,0,1,0,0v199.24a0,0,0,0,1,0,0H1230.93a0,0,0,0,1,0,0V936.41A45.92,45.92,0,0,1,1276.85,890.49Z" class="cls-1"/><path d="M730,529.31h289.24a0,0,0,0,1,0,0v39.37a48.42,48.42,0,0,1-48.42,48.42H730a0,0,0,0,1,0,0V529.31A0,0,0,0,1,730,529.31Z" class="cls-1"/><rect width="38.79" height="106.31" x="1019.24" y="421.66" class="cls-42"/><circle cx="1038.64" cy="374.21" r="75.2" class="cls-20"/><g class="cls-43"><rect width="87.78" height="235.45" x="950.85" y="247.34" class="cls-44"/><line x1="1038.64" x2="1038.64" y1="449.41" y2="299.01" class="cls-15"/><line x1="1038.64" x2="1113.84" y1="371.13" y2="334.08" class="cls-31"/><line x1="1036.78" x2="1111.98" y1="414.35" y2="377.29" class="cls-31"/><line x1="1038.64" x2="963.44" y1="371.13" y2="334.08" class="cls-31"/><line x1="1040.49" x2="965.29" y1="414.35" y2="377.29" class="cls-31"/></g><circle cx="1038.64" cy="374.21" r="75.2" class="cls-15"/><rect width="269.72" height="314.86" x="609.22" y="214.45" class="cls-45"/><g class="cls-46"><line x1="574.26" x2="902.98" y1="257.45" y2="257.45" class="cls-25"/><line x1="574.26" x2="902.98" y1="314.07" y2="314.07" class="cls-25"/><line x1="574.26" x2="902.98" y1="370.7" y2="370.7" class="cls-25"/><line x1="574.26" x2="902.98" y1="427.33" y2="427.33" class="cls-25"/><line x1="574.26" x2="902.98" y1="483.96" y2="483.96" class="cls-25"/></g><rect width="269.72" height="314.86" x="609.22" y="214.45" class="cls-15"/><rect width="111.35" height="314.86" x="875.41" y="214.45" class="cls-47"/><g class="cls-48"><line x1="860.98" x2="996.68" y1="257.45" y2="257.45" class="cls-49"/><line x1="860.98" x2="996.68" y1="314.07" y2="314.07" class="cls-49"/><line x1="860.98" x2="996.68" y1="370.7" y2="370.7" class="cls-49"/><line x1="860.98" x2="996.68" y1="427.33" y2="427.33" class="cls-49"/><line x1="860.98" x2="996.68" y1="483.96" y2="483.96" class="cls-49"/></g><rect width="111.35" height="314.86" x="875.41" y="214.45" class="cls-15"/><rect width="253.76" height="332.37" x="244.55" y="196.94" class="cls-10"/><rect width="44.17" height="125.8" x="274.98" y="218.59" class="cls-50"/><rect width="44.17" height="115.34" x="274.98" y="377.21" class="cls-50"/><rect width="44.17" height="125.8" x="351.89" y="218.59" class="cls-50"/><polygon points="730.01 529.15 291.96 529.15 291.96 394.79 370.96 337.11 651 337.11 730.01 394.79 730.01 529.15" class="cls-2"/><polygon points="730.01 529.15 572 529.15 572 394.79 651 337.11 730.01 394.79 730.01 529.15" class="cls-4"/><path d="M1061.85,960.61H812.14V577.92a48.78,48.78,0,0,0-48.77-48.77H63.31V657.27H684v432.46H812.14v-1h249.71Z" class="cls-33"/><path d="M1061.85,960.61H812.14V577.92a48.78,48.78,0,0,0-48.77-48.77H63.31V657.27H684v432.46H812.14v-1h249.71Z" class="cls-15"/><path d="M64.68,589.37H720.22a27.86,27.86,0,0,1,27.86,27.87V996.81A27.86,27.86,0,0,0,776,1024.67h285.9" class="cls-51"/><path d="M800.76,756.89h78.87a42,42,0,0,1,42,42V960.61a0,0,0,0,1,0,0h-97.1a65.75,65.75,0,0,1-65.75-65.75v-96A42,42,0,0,1,800.76,756.89Z" class="cls-16"/><polygon points="373.16 569.54 334.84 569.54 334.84 888.39 373.16 929.85 373.16 569.54" class="cls-1"/><path d="M662.58,908.43H523.09a50.86,50.86,0,0,0-50.86,50.86V1031H355.53v58.64H713.44V959.29A50.86,50.86,0,0,0,662.58,908.43Z" class="cls-47"/><path d="M662.58,908.43H523.09a50.86,50.86,0,0,0-50.86,50.86V1031H355.53v58.64H713.44V959.29A50.86,50.86,0,0,0,662.58,908.43Z" class="cls-15"/><rect width="66.79" height="58.69" x="354" y="1031.03" class="cls-42"/><path d="M614.88,708.54h0A44.44,44.44,0,0,1,659.33,753v88.07a0,0,0,0,1,0,0H570.44a0,0,0,0,1,0,0V753A44.44,44.44,0,0,1,614.88,708.54Z" class="cls-8"/><path d="M545.68,748h48.75a44.12,44.12,0,0,1,44.12,44.12v67.14a25.83,25.83,0,0,1-25.83,25.83H556.79a55.23,55.23,0,0,1-55.23-55.23V792.08A44.12,44.12,0,0,1,545.68,748Z" class="cls-8"/><path d="M48.81,908.43H67.89a0,0,0,0,1,0,0v129.44a0,0,0,0,1,0,0H48.81A42.81,42.81,0,0,1,6,995.05V951.24A42.81,42.81,0,0,1,48.81,908.43Z" class="cls-52"/><path d="M63.31,908.43h155a26.2,26.2,0,0,1,26.2,26.2v155a0,0,0,0,1,0,0H63.31a0,0,0,0,1,0,0V908.43A0,0,0,0,1,63.31,908.43Z" class="cls-3"/><path d="M114.56,796.24h11a0,0,0,0,1,0,0v78.23a0,0,0,0,1,0,0H81.72a0,0,0,0,1,0,0V829.09A32.84,32.84,0,0,1,114.56,796.24Z" class="cls-6"/><path d="M228,838.16l-12.17-26-.51.56V786.53a6.19,6.19,0,0,0-6.19-6.19H131.83a6.19,6.19,0,0,0-6.19,6.19v21.72h-.26a21.77,21.77,0,0,0-3.5,43.25v65.12a31.45,31.45,0,0,0,31.44,31.45h0a31.45,31.45,0,0,0,31.44-31.45V885.06H209.1a6.19,6.19,0,0,0,6.19-6.19V846.75h7.21A6,6,0,0,0,228,838.16Z" class="cls-19"/><path d="M228,838.16l-12.17-26-.51.56V786.53a6.19,6.19,0,0,0-6.19-6.19H131.83a6.19,6.19,0,0,0-6.19,6.19v21.72h-.26a21.77,21.77,0,0,0-3.5,43.25v65.12a31.45,31.45,0,0,0,31.44,31.45h0a31.45,31.45,0,0,0,31.44-31.45V885.06H209.1a6.19,6.19,0,0,0,6.19-6.19V846.75h7.21A6,6,0,0,0,228,838.16Z" class="cls-15"/><circle cx="62.09" cy="1089.67" r="13.17" class="cls-35"/><circle cx="480.43" cy="89.42" r="13.17" class="cls-35"/><circle cx="875.41" cy="527.96" r="13.17" class="cls-35"/><circle cx="207.18" cy="802.75" r="22.41" class="cls-8"/><path d="M189.62,702.75H129.29a25.67,25.67,0,0,0-25.67,25.68v28.46H64.22a11.73,11.73,0,1,0,0,23.45H215.29V728.43A25.67,25.67,0,0,0,189.62,702.75Z" class="cls-53"/><path d="M189.62,702.75H129.29a25.67,25.67,0,0,0-25.67,25.68v28.46H64.22a11.73,11.73,0,1,0,0,23.45H215.29V728.43A25.67,25.67,0,0,0,189.62,702.75Z" class="cls-15"/><path d="M110.65,780.34h51.57a0,0,0,0,1,0,0v14a17.78,17.78,0,0,1-17.78,17.78H110.65a0,0,0,0,1,0,0V780.34A0,0,0,0,1,110.65,780.34Z" class="cls-6"/><circle cx="213.68" cy="802.75" r="6.51"/><path d="M214.74,862.94H183.86a13.4,13.4,0,0,1-13.4-13.4h0" class="cls-36"/><path d="M305.72,1089.73v0H214.08v-51.81h91.64l12.9-13.88a21.07,21.07,0,0,1,15.44-6.72h21.47v32.37h42.28v40Z" class="cls-4"/><rect width="28.96" height="129.26" x="92.06" y="908.43" class="cls-52"/><rect width="28.96" height="129.26" x="186.19" y="908.43" class="cls-52"/><line x1="215.15" x2="81.88" y1="1037.87" y2="1037.87" class="cls-4"/><rect width="18.43" height="51" x="24.98" y="948.06" class="cls-54"/><rect width="58.51" height="22.32" x="330.17" y="1032.41" class="cls-42" rx="11.16" transform="translate(-305.97 162.96) rotate(-18.07)"/><rect width="65.28" height="175.31" x="544.8" y="914.42" class="cls-8"/><path d="M601.94,817.45h-9.68V790.13h-90.7v74.79a20.21,20.21,0,0,0,20.2,20.2h23v75.49h65.28V851.53A18,18,0,0,0,620,835.47h0A18,18,0,0,0,601.94,817.45Z" class="cls-55"/><path d="M601.94,817.45h-9.68V790.13h-90.7v74.79a20.21,20.21,0,0,0,20.2,20.2h23v75.49h65.28V851.53A18,18,0,0,0,620,835.47h0A18,18,0,0,0,601.94,817.45Z" class="cls-15"/><path d="M569.6,831.67a13,13,0,0,0-26,0" class="cls-36"/><path d="M501.56,831.67a13,13,0,0,1,26,0v17.87h20.69" class="cls-36"/><path d="M544.8,866.9h9.68a15.12,15.12,0,0,0,15.12-15.12h0" class="cls-36"/><line x1="652.79" x2="652.79" y1="984.89" y2="1089.67" class="cls-15"/><path d="M271.55,827v172h172Zm32,77.26,62.77,62.77H303.55Z" class="cls-4"/><path d="M421.65,688.94H448.7a0,0,0,0,1,0,0V716a48.49,48.49,0,0,1-48.49,48.49H373.16a0,0,0,0,1,0,0V737.43A48.49,48.49,0,0,1,421.65,688.94Z" class="cls-20"/><g class="cls-56"><line x1="373.16" x2="448.7" y1="764.49" y2="688.94" class="cls-57"/><rect width="67.23" height="67.23" x="394.16" y="676.25" class="cls-57"/><rect width="67.23" height="67.23" x="415.09" y="655.33" class="cls-57"/></g><path d="M421.65,688.94H448.7a0,0,0,0,1,0,0V716a48.49,48.49,0,0,1-48.49,48.49H373.16a0,0,0,0,1,0,0V737.43A48.49,48.49,0,0,1,421.65,688.94Z" class="cls-15"/><path d="M421.65,811.77H448.7a0,0,0,0,1,0,0v27.06a48.49,48.49,0,0,1-48.49,48.49H373.16a0,0,0,0,1,0,0V860.26A48.49,48.49,0,0,1,421.65,811.77Z" class="cls-20"/><g class="cls-58"><line x1="373.16" x2="448.7" y1="887.32" y2="811.77" class="cls-57"/><rect width="67.23" height="67.23" x="394.16" y="799.08" class="cls-57"/><rect width="67.23" height="67.23" x="415.09" y="778.15" class="cls-57"/></g><path d="M421.65,811.77H448.7a0,0,0,0,1,0,0v27.06a48.49,48.49,0,0,1-48.49,48.49H373.16a0,0,0,0,1,0,0V860.26A48.49,48.49,0,0,1,421.65,811.77Z" class="cls-15"/><path d="M259.3,719.12h27.06a48.49,48.49,0,0,1,48.49,48.49v27.06a0,0,0,0,1,0,0H307.78a48.49,48.49,0,0,1-48.49-48.49V719.12A0,0,0,0,1,259.3,719.12Z" class="cls-20" transform="translate(594.14 1513.79) rotate(-180)"/><g class="cls-59"><line x1="334.84" x2="259.3" y1="794.66" y2="719.12" class="cls-57"/><rect width="67.23" height="67.23" x="246.6" y="706.43" class="cls-57" transform="translate(560.44 1480.09) rotate(-180)"/><rect width="67.23" height="67.23" x="225.68" y="685.5" class="cls-57" transform="translate(518.58 1438.24) rotate(-180)"/></g><path d="M259.3,719.12h27.06a48.49,48.49,0,0,1,48.49,48.49v27.06a0,0,0,0,1,0,0H307.78a48.49,48.49,0,0,1-48.49-48.49V719.12A0,0,0,0,1,259.3,719.12Z" class="cls-15" transform="translate(594.14 1513.79) rotate(-180)"/><path d="M241.77,598.29h32.87a58.91,58.91,0,0,1,58.91,58.91v32.87a0,0,0,0,1,0,0H300.68a58.91,58.91,0,0,1-58.91-58.91V598.29A0,0,0,0,1,241.77,598.29Z" class="cls-20" transform="translate(575.32 1288.37) rotate(-180)"/><g class="cls-60"><line x1="333.55" x2="241.77" y1="690.07" y2="598.29" class="cls-57"/><rect width="81.68" height="81.68" x="226.35" y="582.87" class="cls-57" transform="translate(534.38 1247.43) rotate(-180)"/><rect width="81.68" height="81.68" x="200.92" y="557.45" class="cls-57" transform="translate(483.53 1196.57) rotate(-180)"/></g><path d="M241.77,598.29h32.87a58.91,58.91,0,0,1,58.91,58.91v32.87a0,0,0,0,1,0,0H300.68a58.91,58.91,0,0,1-58.91-58.91V598.29A0,0,0,0,1,241.77,598.29Z" class="cls-15" transform="translate(575.32 1288.37) rotate(-180)"/><circle cx="1199.89" cy="1085.65" r="21.04" class="cls-61"/><circle cx="1028.63" cy="1085.65" r="21.04" class="cls-61"/><path d="M957.57,950.61H1303.1a29.58,29.58,0,0,1,29.58,29.58v105.46a0,0,0,0,1,0,0H984.49a26.92,26.92,0,0,1-26.92-26.92V950.61A0,0,0,0,1,957.57,950.61Z" class="cls-53"/><g class="cls-62"><rect width="137.69" height="65.82" x="1210.74" y="978.71" class="cls-63"/></g><path d="M957.57,950.61H1303.1a29.58,29.58,0,0,1,29.58,29.58v105.46a0,0,0,0,1,0,0H984.49a26.92,26.92,0,0,1-26.92-26.92V950.61A0,0,0,0,1,957.57,950.61Z" class="cls-15"/><path d="M853.17,950.61H1198.7a29.58,29.58,0,0,1,29.58,29.58v105.46a0,0,0,0,1,0,0H880.09a26.92,26.92,0,0,1-26.92-26.92V950.61A0,0,0,0,1,853.17,950.61Z" class="cls-19"/><g class="cls-64"><line x1="853.12" x2="1228.35" y1="1040.72" y2="1040.72" class="cls-65"/></g><path d="M853.17,950.61H1198.7a29.58,29.58,0,0,1,29.58,29.58v105.46a0,0,0,0,1,0,0H880.09a26.92,26.92,0,0,1-26.92-26.92V950.61A0,0,0,0,1,853.17,950.61Z" class="cls-15"/><circle cx="1124.27" cy="1085.65" r="21.04" class="cls-66"/><circle cx="953.01" cy="1085.65" r="21.04" class="cls-66"/><rect width="274.6" height="32.94" x="870.52" y="970.05" class="cls-63"/><rect width="39.44" height="100.28" x="1161.87" y="970.05" class="cls-63"/><circle cx="1251.17" cy="1064.61" r="9.76" class="cls-19"/><circle cx="1309.13" cy="1064.61" r="9.76" class="cls-19"/><path d="M1072.53,1036.22l-31.26-18.05a5.69,5.69,0,0,0-8.53,4.93v36.1a5.69,5.69,0,0,0,8.53,4.92l31.26-18A5.69,5.69,0,0,0,1072.53,1036.22Z" class="cls-67"/><path d="M1040.14,1036.22l-31.27-18.05a5.68,5.68,0,0,0-8.52,4.93v36.1a5.68,5.68,0,0,0,8.52,4.92l31.27-18A5.69,5.69,0,0,0,1040.14,1036.22Z" class="cls-67"/><path d="M492.66,229.4H394.5A20.53,20.53,0,0,0,374,249.93v98.16a20.53,20.53,0,0,0,20.53,20.53h19.72L443.58,398l29.36-29.36h19.72a20.53,20.53,0,0,0,20.53-20.53V249.93A20.53,20.53,0,0,0,492.66,229.4Z" class="cls-20"/><path d="M492.66,229.4H394.5A20.53,20.53,0,0,0,374,249.93v98.16a20.53,20.53,0,0,0,20.53,20.53h19.72L443.58,398l29.36-29.36h19.72a20.53,20.53,0,0,0,20.53-20.53V249.93A20.53,20.53,0,0,0,492.66,229.4Z" class="cls-15"/><polyline points="401.28 305.76 426.05 330.52 489.07 267.5" class="cls-41"/><rect width="182.66" height="339.23" x="61.89" y="189.92" class="cls-53"/><g class="cls-68"><line x1="40.91" x2="265.53" y1="222.3" y2="222.3" class="cls-57"/><line x1="40.91" x2="265.53" y1="261.42" y2="261.42" class="cls-57"/><line x1="40.91" x2="265.53" y1="300.54" y2="300.54" class="cls-57"/><line x1="40.91" x2="265.53" y1="339.66" y2="339.66" class="cls-57"/><line x1="40.91" x2="265.53" y1="378.78" y2="378.78" class="cls-57"/><line x1="40.91" x2="265.53" y1="417.9" y2="417.9" class="cls-57"/><line x1="40.91" x2="265.53" y1="457.02" y2="457.02" class="cls-57"/><line x1="40.91" x2="265.53" y1="496.13" y2="496.13" class="cls-57"/><line x1="211.41" x2="211.41" y1="189.92" y2="222.3" class="cls-57"/><line x1="92.73" x2="92.73" y1="189.92" y2="222.3" class="cls-57"/><line x1="152.07" x2="152.07" y1="189.92" y2="222.3" class="cls-57"/><line x1="211.41" x2="211.41" y1="260.71" y2="301.08" class="cls-57"/><line x1="92.73" x2="92.73" y1="260.71" y2="301.08" class="cls-57"/><line x1="152.07" x2="152.07" y1="260.71" y2="301.08" class="cls-57"/><line x1="125.87" x2="125.87" y1="223.18" y2="260.71" class="cls-57"/><line x1="185.21" x2="185.21" y1="223.18" y2="260.71" class="cls-57"/><line x1="211.41" x2="211.41" y1="338.06" y2="378.43" class="cls-57"/><line x1="92.73" x2="92.73" y1="338.06" y2="378.43" class="cls-57"/><line x1="152.07" x2="152.07" y1="338.06" y2="378.43" class="cls-57"/><line x1="125.87" x2="125.87" y1="300.53" y2="338.06" class="cls-57"/><line x1="185.21" x2="185.21" y1="300.53" y2="338.06" class="cls-57"/><line x1="211.41" x2="211.41" y1="417.04" y2="457.41" class="cls-57"/><line x1="92.73" x2="92.73" y1="417.04" y2="457.41" class="cls-57"/><line x1="152.07" x2="152.07" y1="417.04" y2="457.41" class="cls-57"/><line x1="125.87" x2="125.87" y1="379.51" y2="417.04" class="cls-57"/><line x1="185.21" x2="185.21" y1="379.51" y2="417.04" class="cls-57"/><line x1="211.41" x2="211.41" y1="495.74" y2="536.11" class="cls-57"/><line x1="92.73" x2="92.73" y1="495.74" y2="536.11" class="cls-57"/><line x1="152.07" x2="152.07" y1="495.74" y2="536.11" class="cls-57"/><line x1="125.87" x2="125.87" y1="458.21" y2="495.74" class="cls-57"/><line x1="185.21" x2="185.21" y1="458.21" y2="495.74" class="cls-57"/></g><rect width="182.66" height="339.23" x="61.89" y="189.92" class="cls-15"/><rect width="194.99" height="25.12" x="49.56" y="171.83" class="cls-8"/><rect width="266.43" height="25.12" x="244.55" y="171.83" class="cls-4"/><path d="M522.35,529.31l-41.8-124.14h36.5a12.49,12.49,0,0,1,12.49,12.49h0a12.49,12.49,0,0,1-12.49,12.48h-3.49" class="cls-15"/><polygon points="492.31 439.88 403.6 439.88 353.09 529.31 441.81 529.31 478.02 465.2 492.31 439.88" class="cls-15"/><line x1="441.81" x2="397.17" y1="529.31" y2="424.83" class="cls-15"/><line x1="371.63" x2="422.7" y1="420.61" y2="420.61" class="cls-15"/><circle cx="353.09" cy="529.31" r="53.97" class="cls-4"/><circle cx="353.09" cy="529.31" r="16.94" class="cls-3"/><circle cx="522.35" cy="529.31" r="53.97" class="cls-8"/><circle cx="522.35" cy="529.31" r="16.94" class="cls-3"/><rect width="37.34" height="30.12" x="94.92" y="141.7" class="cls-3"/><rect width="37.34" height="30.12" x="437" y="141.7" class="cls-3"/><rect width="37.34" height="57.85" x="163.34" y="113.98" class="cls-4"/><rect width="37.34" height="36.86" x="368.59" y="134.97" class="cls-4"/><rect width="37.34" height="57.85" x="300.17" y="113.98" class="cls-1"/><rect width="37.34" height="102.36" x="231.76" y="69.46" class="cls-1"/><rect width="44.17" height="125.58" x="84.71" y="218.81" class="cls-69"/><rect width="44.17" height="125.58" x="175.8" y="218.81" class="cls-69"/><rect width="44.17" height="115.34" x="169.5" y="377.21" class="cls-69"/><circle cx="94.72" cy="474.81" r="75.2" class="cls-20"/><g class="cls-70"><rect width="87.78" height="235.45" x="6.94" y="347.94" class="cls-44"/><line x1="94.72" x2="94.72" y1="550.01" y2="399.61" class="cls-15"/><line x1="94.72" x2="169.92" y1="471.73" y2="434.67" class="cls-31"/><line x1="92.86" x2="168.06" y1="514.95" y2="477.89" class="cls-31"/><line x1="94.72" x2="19.52" y1="471.73" y2="434.67" class="cls-31"/><line x1="96.58" x2="21.38" y1="514.95" y2="477.89" class="cls-31"/></g><circle cx="94.72" cy="474.81" r="75.2" class="cls-15"/><rect width="50.98" height="69.85" x="627.05" y="459.3" class="cls-3"/><rect width="107.78" height="23.85" x="598.65" y="409.29" class="cls-3"/><path d="M809.86,795.84v71.07H926.77v47.51H808.18A49.41,49.41,0,0,1,758.77,865V795.84" class="cls-16"/><path d="M946.42,863.48h58.68a6.75,6.75,0,0,1,6.75,6.75h0a6.75,6.75,0,0,1-6.75,6.75H946.42" class="cls-63"/><path d="M946.42,877h58.68a6.76,6.76,0,0,1,6.75,6.76h0a6.75,6.75,0,0,1-6.75,6.75H946.42" class="cls-63"/><path d="M946.42,890.49h58.68a6.75,6.75,0,0,1,6.75,6.75h0a6.76,6.76,0,0,1-6.75,6.76H946.42" class="cls-63"/><path d="M946.42,904h58.68a6.75,6.75,0,0,1,6.75,6.75h0a6.75,6.75,0,0,1-6.75,6.75H946.42" class="cls-63"/><path d="M967.1,863.48H938.69a21.4,21.4,0,0,0-21.4,21.4V896.1a21.4,21.4,0,0,0,21.4,21.4H967.1" class="cls-63"/><rect width="202.64" height="30.55" x="921.62" y="917.5" class="cls-11"/><rect width="28.23" height="213.09" x="1124.27" y="734.96" class="cls-71"/><path d="M934.53,713.34l-14-29.11v-33H847.63v23.87a20.39,20.39,0,0,0-5.39-.75,20.08,20.08,0,0,0-13.09,35.33v65.12a45,45,0,0,0,45,45h10.21V755.38a44,44,0,0,0,4.47.24h14.58a17.13,17.13,0,0,0,17.13-17.13V720.41H931.4A4.23,4.23,0,0,0,934.53,713.34Z" class="cls-23"/><path d="M934.53,713.34l-14-29.11v-33H847.63v23.87a20.39,20.39,0,0,0-5.39-.75,20.08,20.08,0,0,0-13.09,35.33v65.12a45,45,0,0,0,45,45h10.21V755.38a44,44,0,0,0,4.47.24h14.58a17.13,17.13,0,0,0,17.13-17.13V720.41H931.4A4.23,4.23,0,0,0,934.53,713.34Z" class="cls-15"/><circle cx="898.88" cy="699.36" r="7.8"/><path d="M920.51,735.79H893.14a10.2,10.2,0,0,1-10.2-10.2" class="cls-36"/><path d="M910,617.11H829a40.56,40.56,0,0,0-40.56,40.56v161h30.53c21.37,0,28.69-17.33,28.69-38.7V668.45H910a25.15,25.15,0,0,0,25.14-25.14v-1.07A25.14,25.14,0,0,0,910,617.11Z" class="cls-19"/><path d="M910,617.11H829a40.56,40.56,0,0,0-40.56,40.56v161h30.53c21.37,0,28.69-17.33,28.69-38.7V668.45H910a25.15,25.15,0,0,0,25.14-25.14v-1.07A25.14,25.14,0,0,0,910,617.11Z" class="cls-15"/><path d="M1026.9,735V692A19.93,19.93,0,0,1,1046.83,672H1232.4V413.09a38.88,38.88,0,0,1,38.88-38.88h100.77" class="cls-15"/><path d="M1377.4,890.49H1417a0,0,0,0,1,0,0v72.63a19.78,19.78,0,0,1-19.78,19.78h0a19.78,19.78,0,0,1-19.78-19.78V890.49A0,0,0,0,1,1377.4,890.49Z" class="cls-5"/><path d="M1417,890.49h39.55a0,0,0,0,1,0,0v72.63a19.78,19.78,0,0,1-19.78,19.78h0A19.78,19.78,0,0,1,1417,963.12V890.49A0,0,0,0,1,1417,890.49Z" class="cls-8"/><path d="M1456.51,890.49h39.55a0,0,0,0,1,0,0v72.63a19.78,19.78,0,0,1-19.78,19.78h0a19.78,19.78,0,0,1-19.78-19.78V890.49a0,0,0,0,1,0,0Z" class="cls-5"/><path d="M1496.06,890.49h39.55a0,0,0,0,1,0,0v72.63a19.78,19.78,0,0,1-19.78,19.78h0a19.78,19.78,0,0,1-19.78-19.78V890.49A0,0,0,0,1,1496.06,890.49Z" class="cls-8"/><path d="M1535.61,890.49h39.55a0,0,0,0,1,0,0v72.63a19.78,19.78,0,0,1-19.78,19.78h0a19.78,19.78,0,0,1-19.78-19.78V890.49a0,0,0,0,1,0,0Z" class="cls-5"/><path d="M1614.72,890.49h39.55a0,0,0,0,1,0,0v72.63a19.78,19.78,0,0,1-19.78,19.78h0a19.78,19.78,0,0,1-19.78-19.78V890.49A0,0,0,0,1,1614.72,890.49Z" class="cls-5"/><path d="M1575.17,890.49h39.55a0,0,0,0,1,0,0v72.63a19.78,19.78,0,0,1-19.78,19.78h0a19.78,19.78,0,0,1-19.78-19.78V890.49A0,0,0,0,1,1575.17,890.49Z" class="cls-8"/><rect width="79.1" height="83.38" x="1397.18" y="1006.29" class="cls-72"/><rect width="104.99" height="48.55" x="1476.29" y="1006.29" class="cls-72"/><path d="M752.18,92.14l-17.1-27.87L718,92.14,687.68,64.27v59.67a47.4,47.4,0,0,0,47.4,47.4h0a47.4,47.4,0,0,0,47.4-47.4V64.27Z" class="cls-73"/><circle cx="875.41" cy="368.62" r="40.82" class="cls-72"/><path d="M887.39,380.8a10.33,10.33,0,0,1-4.09,3.7,14.88,14.88,0,0,1-6.4,1.58V390h-3.12v-4a14.52,14.52,0,0,1-8.33-3.09,9.5,9.5,0,0,1-3.36-7.23H871a4,4,0,0,0,2.82,3.75v-7.7a48,48,0,0,1-6.06-1.9,10,10,0,0,1-4-3,8.46,8.46,0,0,1-1.71-5.6,8.73,8.73,0,0,1,3.29-7.11,14.59,14.59,0,0,1,8.45-3v-3.94h3.12v3.94a13.54,13.54,0,0,1,8.08,3,10,10,0,0,1,3.31,7.16h-8.91a3.71,3.71,0,0,0-2.48-3.41v7.55a62.61,62.61,0,0,1,6.23,2,10,10,0,0,1,3.92,2.9,8.22,8.22,0,0,1,1.73,5.52A9.26,9.26,0,0,1,887.39,380.8ZM871.61,363a6.58,6.58,0,0,0,2.17,1.46v-6.77a3.78,3.78,0,0,0-2.14,1.05,3,3,0,0,0-.78,2.21A3,3,0,0,0,871.61,363Zm7.6,15.48a3.23,3.23,0,0,0,.85-2.29,2.8,2.8,0,0,0-.8-2.06,6.54,6.54,0,0,0-2.36-1.39v6.91A3.89,3.89,0,0,0,879.21,378.43Z" class="cls-14"/><path d="M1717.4,421.66V350.47a28.28,28.28,0,0,0-28.28-28.28H1400.33a28.28,28.28,0,0,0-28.28,28.28v71.19" class="cls-15"/><ellipse cx="1179.43" cy="88.54" class="cls-8" rx="27.9" ry="45.39"/><ellipse cx="1120.27" cy="113.05" class="cls-8" rx="27.9" ry="45.39" transform="translate(248.18 825.26) rotate(-45)"/><ellipse cx="1095.76" cy="172.22" class="cls-8" rx="45.39" ry="27.9"/><ellipse cx="1120.27" cy="231.39" class="cls-8" rx="45.39" ry="27.9" transform="translate(164.5 859.92) rotate(-45)"/><ellipse cx="1179.43" cy="255.89" class="cls-8" rx="27.9" ry="45.39"/><ellipse cx="1238.6" cy="231.39" class="cls-8" rx="27.9" ry="45.39" transform="translate(199.16 943.6) rotate(-45)"/><ellipse cx="1263.11" cy="172.22" class="cls-8" rx="45.39" ry="27.9"/><ellipse cx="1238.6" cy="113.05" class="cls-8" rx="45.39" ry="27.9" transform="translate(282.84 908.94) rotate(-45)"/><circle cx="1179.43" cy="172.22" r="49.63" class="cls-74"/><path d="M950.11,42.38h2.71a0,0,0,0,1,0,0V55.3A44.67,44.67,0,0,1,908.14,100h-2.71a0,0,0,0,1,0,0V87.05A44.67,44.67,0,0,1,950.11,42.38Z" class="cls-75"/><path d="M858.06,42.38h2.71a44.67,44.67,0,0,1,44.67,44.67V100a0,0,0,0,1,0,0h-2.71A44.67,44.67,0,0,1,858.06,55.3V42.38A0,0,0,0,1,858.06,42.38Z" class="cls-76" transform="translate(1763.49 142.35) rotate(-180)"/><path d="M868.37,113H944a36.06,36.06,0,0,1,36.06,36.06v0A36.06,36.06,0,0,1,944,185.15H832.31a0,0,0,0,1,0,0V149.1A36.06,36.06,0,0,1,868.37,113Z" class="cls-19" transform="translate(1812.38 298.2) rotate(180)"/><g class="cls-77"><line x1="916.2" x2="916.2" y1="183.17" y2="113.04" class="cls-15"/><line x1="891.92" x2="891.92" y1="183.17" y2="113.04" class="cls-15"/><line x1="867.64" x2="867.64" y1="182.79" y2="112.66" class="cls-15"/><rect width="42.57" height="84.8" x="807.79" y="105.33" transform="translate(1658.14 295.45) rotate(-180)"/><path d="M938.21,133.24a11.47,11.47,0,0,0,22.94,0" class="cls-31"/><path d="M974.1,169.17H963a16,16,0,0,1-16-16h0" class="cls-31"/></g><path d="M868.37,113H944a36.06,36.06,0,0,1,36.06,36.06v0A36.06,36.06,0,0,1,944,185.15H832.31a0,0,0,0,1,0,0V149.1A36.06,36.06,0,0,1,868.37,113Z" class="cls-15" transform="translate(1812.38 298.2) rotate(180)"/><g class="cls-78"><polygon points="1852.86 775.4 1930.48 990.11 1840.86 990.11 1840.86 775.4 1852.86 775.4"/></g><rect width="56.83" height="100.61" x="1733.76" y="893.22" class="cls-2"/><rect width="96.98" height="56.93" x="1715.43" y="809.15" class="cls-2"/><rect width="155.9" height="28.9" x="1685.97" y="741.17" class="cls-8"/><path d="M1144.93,617.11V601a30.66,30.66,0,0,0-30.65-30.66h-95" class="cls-15"/><circle cx="1793.67" cy="698.93" r="13.17" class="cls-35"/><circle cx="1883.92" cy="619.21" r="40.82" class="cls-1"/><path d="M1895.89,631.39a10.26,10.26,0,0,1-4.09,3.7,14.84,14.84,0,0,1-6.4,1.58v3.94h-3.12v-4a14.48,14.48,0,0,1-8.32-3.09,9.5,9.5,0,0,1-3.36-7.23h8.86a4,4,0,0,0,2.82,3.75v-7.7a48,48,0,0,1-6.06-1.9,10,10,0,0,1-4-3,8.51,8.51,0,0,1-1.7-5.6,8.72,8.72,0,0,1,3.28-7.11,14.61,14.61,0,0,1,8.45-3v-3.94h3.12v3.94a13.54,13.54,0,0,1,8.08,3,10.07,10.07,0,0,1,3.32,7.16h-8.92a3.71,3.71,0,0,0-2.48-3.41V616a61.75,61.75,0,0,1,6.23,2,10,10,0,0,1,3.92,2.9,8.17,8.17,0,0,1,1.73,5.52A9.26,9.26,0,0,1,1895.89,631.39Zm-15.77-17.85a6.42,6.42,0,0,0,2.16,1.46v-6.77a3.78,3.78,0,0,0-2.14,1,3,3,0,0,0-.78,2.21A2.89,2.89,0,0,0,1880.12,613.54Zm7.59,15.48a3.23,3.23,0,0,0,.86-2.28,2.77,2.77,0,0,0-.81-2.07,6.45,6.45,0,0,0-2.36-1.39v6.91A3.86,3.86,0,0,0,1887.71,629Z" class="cls-14"/><circle cx="1372.05" cy="377.21" r="13.17" class="cls-35"/><rect width="161.16" height="32.66" x="1406.89" y="75.2" class="cls-8"/><rect width="125.71" height="32.66" x="1568.05" y="75.2" class="cls-11" transform="translate(3261.81 183.05) rotate(180)"/><line x1="1440.39" x2="1540.33" y1="152.07" y2="152.07" class="cls-79"/><line x1="1440.39" x2="1540.33" y1="184.38" y2="184.38" class="cls-79"/><line x1="1440.39" x2="1540.33" y1="281.33" y2="281.33" class="cls-79"/><line x1="1440.39" x2="1540.33" y1="249.01" y2="249.01" class="cls-79"/><line x1="1440.39" x2="1540.33" y1="216.7" y2="216.7" class="cls-79"/><line x1="1654.27" x2="1595.77" y1="152.07" y2="152.07" class="cls-15"/><line x1="1654.27" x2="1595.77" y1="184.38" y2="184.38" class="cls-15"/><line x1="1654.27" x2="1595.77" y1="281.33" y2="281.33" class="cls-15"/><line x1="1654.27" x2="1595.77" y1="249.01" y2="249.01" class="cls-15"/><line x1="1654.27" x2="1595.77" y1="216.7" y2="216.7" class="cls-15"/><path d="M1722.57,255.43h384.37a2.94,2.94,0,0,1,2.94,2.94v32.32a35.26,35.26,0,0,1-35.26,35.26H1754.89a35.26,35.26,0,0,1-35.26-35.26V258.36A2.94,2.94,0,0,1,1722.57,255.43Z" class="cls-6"/><rect width="390.25" height="70.51" x="1719.64" y="225.78" class="cls-8" rx="35.26"/><circle cx="1807.4" cy="245.27" r="26.49" class="cls-61"/><circle cx="1958.81" cy="245.27" r="26.49" class="cls-61"/><path d="M2008.35,211.31v35.92H1753.4V144.76A13.6,13.6,0,0,1,1767,131.17h142a13.6,13.6,0,0,1,13.59,13.59v39L1994.38,195A16.52,16.52,0,0,1,2008.35,211.31Z" class="cls-11"/><path d="M2075.91,211.31v35.92H1821V144.76a13.59,13.59,0,0,1,13.59-13.59h130a25.53,25.53,0,0,1,25.52,25.52v27.05L2061.94,195A16.52,16.52,0,0,1,2075.91,211.31Z" class="cls-71"/><circle cx="1874.96" cy="245.27" r="26.49" class="cls-8"/><circle cx="2026.37" cy="245.27" r="26.49" class="cls-8"/><path d="M1838.85,149.45h121.64a9.09,9.09,0,0,1,9.09,9.09V189.2a0,0,0,0,1,0,0H1838.85a0,0,0,0,1,0,0V149.45A0,0,0,0,1,1838.85,149.45Z" class="cls-80"/><rect width="31.46" height="71.01" x="1772.46" y="153.7" class="cls-80"/><circle cx="2061.4" cy="90.62" r="73.89" class="cls-81"/><circle cx="2061.4" cy="90.62" r="13.05" class="cls-25"/><line x1="2061.73" x2="2061.73" y1="77.58" y2="16.73" class="cls-25"/><polyline points="2037.27 36.85 2061.72 61.31 2086.18 36.85" class="cls-25"/><polyline points="2048.68 29.4 2061.72 42.44 2074.77 29.4" class="cls-25"/><line x1="2048.35" x2="1987.51" y1="90.29" y2="90.29" class="cls-25"/><polyline points="2007.63 114.75 2032.09 90.29 2007.63 65.83" class="cls-25"/><polyline points="2000.17 103.34 2013.22 90.29 2000.17 77.25" class="cls-25"/><line x1="2061.07" x2="2061.07" y1="103.67" y2="164.51" class="cls-25"/><polyline points="2085.53 144.39 2061.07 119.93 2036.61 144.39" class="cls-25"/><polyline points="2074.11 151.85 2061.07 138.8 2048.02 151.85" class="cls-25"/><line x1="2074.44" x2="2135.28" y1="90.95" y2="90.95" class="cls-25"/><polyline points="2115.17 66.49 2090.71 90.95 2115.17 115.41" class="cls-25"/><polyline points="2122.62 77.9 2109.57 90.95 2122.62 104" class="cls-25"/><circle cx="1916.06" cy="57.18" r="8.1" class="cls-14"/><circle cx="1894.07" cy="95.24" r="8.1" class="cls-14"/><circle cx="1927.33" cy="130.28" r="8.1" class="cls-14"/><circle cx="1879.36" cy="36.85" r="8.1" class="cls-14"/><circle cx="1950.71" cy="81.32" r="8.1" class="cls-14"/><circle cx="1987.51" cy="42.44" r="8.1" class="cls-14"/><circle cx="1717.4" cy="528.58" r="114.11" class="cls-82"/><g class="cls-83"><path d="M1693.05,587.62h54.36a70.48,70.48,0,0,1,70.48,70.48v0a0,0,0,0,1,0,0H1622.58a0,0,0,0,1,0,0v0A70.48,70.48,0,0,1,1693.05,587.62Z" class="cls-84"/></g><circle cx="1717.4" cy="528.58" r="114.11" class="cls-15"/><path d="M1670.8,450.72h69.67a32,32,0,0,1,32,32V537a33.37,33.37,0,0,1-33.37,33.37h-31.2a37.09,37.09,0,0,1-37.09-37.09V450.72A0,0,0,0,1,1670.8,450.72Z" class="cls-85"/><path d="M1759.7,524a15.71,15.71,0,0,0-13.77-15.58V476.23H1670.8v32.08h-4.33a9.42,9.42,0,0,0,0,18.84h4.33v34.72a18.87,18.87,0,0,0,18.87,18.87h6.87v4.68a24.7,24.7,0,0,0,24.7,24.7h0a24.69,24.69,0,0,0,24.69-24.7v-45.8A15.72,15.72,0,0,0,1759.7,524Z" class="cls-19"/><path d="M1759.7,524a15.71,15.71,0,0,0-13.77-15.58V476.23H1670.8v32.08h-4.33a9.42,9.42,0,0,0,0,18.84h4.33v34.72a18.87,18.87,0,0,0,18.87,18.87h6.87v4.68a24.7,24.7,0,0,0,24.7,24.7h0a24.69,24.69,0,0,0,24.69-24.7v-45.8A15.72,15.72,0,0,0,1759.7,524Z" class="cls-86"/><path d="M1704.33,512.21a7.79,7.79,0,1,0-15.58,0" class="cls-29"/><path d="M1670.8,551.36h20.87a14.86,14.86,0,0,0,14.87-14.86" class="cls-29"/><circle cx="1019.24" cy="571.67" r="13.17" class="cls-35"/><circle cx="1412.4" cy="841.06" r="13.17" class="cls-35"/><line x1="407.87" x2="407.87" y1="996.47" y2="978.56" class="cls-29"/><line x1="389.27" x2="389.27" y1="996.47" y2="978.56" class="cls-29"/><line x1="370.67" x2="370.67" y1="996.47" y2="978.56" class="cls-29"/><line x1="352.07" x2="352.07" y1="996.47" y2="978.56" class="cls-29"/><line x1="333.47" x2="333.47" y1="996.47" y2="978.56" class="cls-29"/><line x1="314.87" x2="314.87" y1="996.47" y2="978.56" class="cls-29"/><line x1="296.27" x2="296.27" y1="996.47" y2="978.56" class="cls-29"/><line x1="274.13" x2="292.05" y1="865.27" y2="865.27" class="cls-29"/><line x1="274.13" x2="292.05" y1="885.46" y2="885.46" class="cls-29"/><line x1="274.13" x2="292.05" y1="905.65" y2="905.65" class="cls-29"/><line x1="274.13" x2="292.05" y1="925.84" y2="925.84" class="cls-29"/><line x1="274.13" x2="292.05" y1="946.02" y2="946.02" class="cls-29"/><line x1="274.13" x2="292.05" y1="966.21" y2="966.21" class="cls-29"/><line x1="1615.01" x2="2065.05" y1="1064.61" y2="1064.61" class="cls-36"/><rect width="38.79" height="106.31" x="2026.26" y="983.42" class="cls-42"/><circle cx="2045.66" cy="935.97" r="75.2" class="cls-20"/><g class="cls-87"><rect width="87.78" height="235.45" x="1957.87" y="809.1" class="cls-44"/><line x1="2045.66" x2="2045.66" y1="1011.17" y2="860.77" class="cls-15"/><line x1="2045.66" x2="2120.86" y1="932.89" y2="895.84" class="cls-31"/><line x1="2043.8" x2="2119" y1="976.11" y2="939.05" class="cls-31"/><line x1="2045.66" x2="1970.46" y1="932.89" y2="895.84" class="cls-31"/><line x1="2047.52" x2="1972.32" y1="976.11" y2="939.05" class="cls-31"/></g><circle cx="2045.66" cy="935.97" r="75.2" class="cls-15"/><circle cx="1142.98" cy="657.92" r="40.82" class="cls-9"/><path d="M1155,670.1a10.26,10.26,0,0,1-4.09,3.7,14.84,14.84,0,0,1-6.4,1.58v3.94h-3.12v-4a14.48,14.48,0,0,1-8.32-3.09,9.47,9.47,0,0,1-3.36-7.23h8.86a4,4,0,0,0,2.82,3.75v-7.7a48,48,0,0,1-6.06-1.9,10,10,0,0,1-4-3,8.46,8.46,0,0,1-1.7-5.6,8.72,8.72,0,0,1,3.28-7.11,14.61,14.61,0,0,1,8.45-3v-3.94h3.12v3.94a13.54,13.54,0,0,1,8.08,3,10,10,0,0,1,3.31,7.16H1147a3.71,3.71,0,0,0-2.48-3.41v7.55a62.61,62.61,0,0,1,6.23,2,10,10,0,0,1,3.92,2.9,8.22,8.22,0,0,1,1.73,5.52A9.26,9.26,0,0,1,1155,670.1Zm-15.77-17.85a6.42,6.42,0,0,0,2.16,1.46v-6.77a3.78,3.78,0,0,0-2.14,1,3,3,0,0,0-.78,2.21A2.89,2.89,0,0,0,1139.19,652.25Zm7.59,15.48a3.22,3.22,0,0,0,.85-2.28,2.76,2.76,0,0,0-.8-2.07,6.45,6.45,0,0,0-2.36-1.39v6.91A3.89,3.89,0,0,0,1146.78,667.73Z" class="cls-14"/><line x1="1232.26" x2="1232.26" y1="807.62" y2="562.39" class="cls-15"/><path d="M1186,708.53h13.46a26.76,26.76,0,0,1,26.76,26.76v0a0,0,0,0,1,0,0H1212.8A26.76,26.76,0,0,1,1186,708.53v0A0,0,0,0,1,1186,708.53Z" class="cls-67" transform="translate(2412.3 1443.81) rotate(180)"/><path d="M1186,592.18h13.46a26.76,26.76,0,0,1,26.76,26.76v0a0,0,0,0,1,0,0H1212.8A26.76,26.76,0,0,1,1186,592.18v0A0,0,0,0,1,1186,592.18Z" class="cls-67" transform="translate(2412.3 1211.12) rotate(180)"/><path d="M1265,743.51h13.46a0,0,0,0,1,0,0v0a26.76,26.76,0,0,1-26.76,26.76h-13.46a0,0,0,0,1,0,0v0A26.76,26.76,0,0,1,1265,743.51Z" class="cls-67"/><path d="M1265,640.35h13.46a0,0,0,0,1,0,0v0a26.76,26.76,0,0,1-26.76,26.76h-13.46a0,0,0,0,1,0,0v0A26.76,26.76,0,0,1,1265,640.35Z" class="cls-67"/><circle cx="1230.93" cy="839.03" r="40.82" class="cls-7"/><path d="M1242.91,851.2a10.26,10.26,0,0,1-4.09,3.7,14.7,14.7,0,0,1-6.4,1.59v3.94h-3.12v-4a14.54,14.54,0,0,1-8.33-3.09,9.51,9.51,0,0,1-3.36-7.24h8.87a4,4,0,0,0,2.82,3.76v-7.7a48,48,0,0,1-6.06-1.9,10.21,10.21,0,0,1-4-3,8.46,8.46,0,0,1-1.7-5.6,8.72,8.72,0,0,1,3.28-7.11,14.59,14.59,0,0,1,8.45-3v-3.94h3.12v3.94a13.54,13.54,0,0,1,8.08,3,10,10,0,0,1,3.31,7.16h-8.91a3.71,3.71,0,0,0-2.48-3.41v7.55a62.61,62.61,0,0,1,6.23,2,10.08,10.08,0,0,1,3.92,2.89,8.25,8.25,0,0,1,1.73,5.53A9.22,9.22,0,0,1,1242.91,851.2Zm-15.77-17.84a6.42,6.42,0,0,0,2.16,1.46v-6.77a3.78,3.78,0,0,0-2.14,1.05,3,3,0,0,0-.78,2.21A2.92,2.92,0,0,0,1227.14,833.36Zm7.59,15.48a3.23,3.23,0,0,0,.85-2.29,2.8,2.8,0,0,0-.8-2.07,6.68,6.68,0,0,0-2.36-1.38V850A3.89,3.89,0,0,0,1234.73,848.84Z" class="cls-14"/><path d="M1353.7,656.14V694.8h-9.42V671.62l-8.65,23.18H1328l-8.71-23.24V694.8h-9.41V656.14H1321l10.85,26.76,10.74-26.76Z"/><path d="M1392.92,656.14,1379.54,682V694.8h-9.42V682l-13.38-25.88h10.69l7.48,16.19,7.44-16.19Z"/><path d="M1310.36,736.55q5.4-4.47,8.51-7.33a35.91,35.91,0,0,0,5.26-6,10.84,10.84,0,0,0,2.14-6.11,5.44,5.44,0,0,0-1-3.53,4.36,4.36,0,0,0-6.42.31,7.21,7.21,0,0,0-1.18,4.43h-9.09a15.52,15.52,0,0,1,2-7.82,11.8,11.8,0,0,1,5-4.63,15.86,15.86,0,0,1,6.91-1.48q6.55,0,9.89,3.36a11.88,11.88,0,0,1,3.33,8.75,17.17,17.17,0,0,1-4,10.93,59,59,0,0,1-10.24,9.83h14.87v7.66h-27.65v-7C1309.9,736.93,1310.47,736.47,1310.36,736.55Z"/><path d="M1343.79,709.89q3.66-5.45,11.81-5.45t11.81,5.45q3.67,5.46,3.67,14.93t-3.67,15q-3.66,5.46-11.81,5.45t-11.81-5.45q-3.66-5.45-3.66-15T1343.79,709.89Zm16.82,6.36q-1.2-3-5-3t-5,3a23.77,23.77,0,0,0-1.21,8.57,36.34,36.34,0,0,0,.44,6.19,7.89,7.89,0,0,0,1.79,4,6,6,0,0,0,8,0,8,8,0,0,0,1.78-4,35.22,35.22,0,0,0,.45-6.19A23.74,23.74,0,0,0,1360.61,716.25Z"/><path d="M1313.17,758.19Q1316.8,755,1323,755a16.11,16.11,0,0,1,7.08,1.43,10.15,10.15,0,0,1,6,9.47,9.13,9.13,0,0,1-6.06,9v.22a9.85,9.85,0,0,1,5,3.47,10,10,0,0,1,1.82,6.22,11.46,11.46,0,0,1-1.57,6,10.69,10.69,0,0,1-4.57,4.1,15.92,15.92,0,0,1-7.13,1.49q-6.62,0-10.55-3.25t-4.15-9.8H1318a5.5,5.5,0,0,0,1.37,3.82,5.05,5.05,0,0,0,3.86,1.41,4.41,4.41,0,0,0,3.33-1.24,4.56,4.56,0,0,0,1.19-3.28,4.37,4.37,0,0,0-1.68-3.82q-1.68-1.18-5.37-1.19h-1.77v-7.65h1.77a9.24,9.24,0,0,0,4.54-1,3.58,3.58,0,0,0,1.73-3.44,4.13,4.13,0,0,0-1.1-3.08,4.06,4.06,0,0,0-3-1.1,3.77,3.77,0,0,0-3.11,1.26,5.68,5.68,0,0,0-1.18,3.14h-9.2Q1309.54,761.39,1313.17,758.19Z"/><path d="M1345.07,760.56q3.66-5.44,11.81-5.45t11.81,5.45q3.66,5.46,3.66,14.93t-3.66,15Q1365,796,1356.88,796t-11.81-5.45q-3.66-5.44-3.66-15T1345.07,760.56Zm16.82,6.36q-1.22-3-5-3t-5,3a23.77,23.77,0,0,0-1.21,8.57,35.34,35.34,0,0,0,.44,6.19,7.89,7.89,0,0,0,1.79,4,6,6,0,0,0,8,0,7.89,7.89,0,0,0,1.79-4,35.34,35.34,0,0,0,.44-6.19A23.77,23.77,0,0,0,1361.89,766.92Z"/><line x1="1307.29" x2="1378.39" y1="812.81" y2="812.81" class="cls-86"/><line x1="1306.5" x2="1396.76" y1="640.1" y2="640.1" class="cls-86"/><path d="M1980.95,331.85H2032a51.07,51.07,0,0,1,51.07,51.07v0A51.07,51.07,0,0,1,2032,434h0a51.07,51.07,0,0,1-51.07-51.07V331.85A0,0,0,0,1,1980.95,331.85Z" class="cls-88" transform="translate(865.93 -1324.7) rotate(45)"/><g class="cls-89"><line x1="2032.02" x2="2032.02" y1="435.12" y2="310.69" class="cls-51"/><line x1="2032.02" x2="2082.2" y1="368.87" y2="318.69" class="cls-51"/><line x1="2032.02" x2="1981.84" y1="368.87" y2="318.69" class="cls-51"/><line x1="2032.02" x2="2082.2" y1="414.43" y2="364.25" class="cls-51"/><line x1="2032.02" x2="1981.84" y1="414.43" y2="364.25" class="cls-51"/></g><path d="M1980.95,331.85H2032a51.07,51.07,0,0,1,51.07,51.07v0A51.07,51.07,0,0,1,2032,434h0a51.07,51.07,0,0,1-51.07-51.07V331.85A0,0,0,0,1,1980.95,331.85Z" class="cls-15" transform="translate(865.93 -1324.7) rotate(45)"/><line x1="2032.02" x2="2032.02" y1="435.12" y2="477.37" class="cls-15"/><circle cx="1557.51" cy="323.34" r="57.5" class="cls-16"/><path d="M1574.38,340.49a14.52,14.52,0,0,1-5.76,5.22,20.94,20.94,0,0,1-9,2.23v5.55h-4.39v-5.62q-7.28-.62-11.73-4.36a13.36,13.36,0,0,1-4.74-10.19h12.49a5.62,5.62,0,0,0,4,5.29V327.77a68.23,68.23,0,0,1-8.54-2.68,14.26,14.26,0,0,1-5.6-4.18,12,12,0,0,1-2.4-7.89,12.3,12.3,0,0,1,4.63-10,20.46,20.46,0,0,1,11.91-4.25v-5.56h4.39v5.56q7.2.54,11.39,4.18a14.13,14.13,0,0,1,4.66,10.09H1563.1a5.25,5.25,0,0,0-3.5-4.81v10.64a90.16,90.16,0,0,1,8.78,2.81,14.1,14.1,0,0,1,5.52,4.08,11.58,11.58,0,0,1,2.44,7.79A13,13,0,0,1,1574.38,340.49Zm-22.23-25.14a9.18,9.18,0,0,0,3.06,2.06v-9.54a5.42,5.42,0,0,0-3,1.47,4.33,4.33,0,0,0-1.1,3.13A4.12,4.12,0,0,0,1552.15,315.35Zm10.71,21.81a4.56,4.56,0,0,0,1.2-3.22,4,4,0,0,0-1.13-2.92,9.44,9.44,0,0,0-3.33-1.95v9.74A5.52,5.52,0,0,0,1562.86,337.16Z" class="cls-14"/><path d="M1668.74,273.88H1717a48.31,48.31,0,0,1,48.31,48.31v0A48.31,48.31,0,0,1,1717,370.5h0a48.31,48.31,0,0,1-48.31-48.31V273.88A0,0,0,0,1,1668.74,273.88Z" class="cls-90" transform="translate(3159 -664.13) rotate(135)"/><g class="cls-91"><line x1="1667.68" x2="1785.37" y1="322.19" y2="322.19" class="cls-92"/><line x1="1730.33" x2="1777.8" y1="322.19" y2="369.65" class="cls-92"/><line x1="1730.33" x2="1777.8" y1="322.19" y2="274.72" class="cls-92"/><line x1="1687.24" x2="1734.71" y1="322.19" y2="369.65" class="cls-92"/><line x1="1687.24" x2="1734.71" y1="322.19" y2="274.72" class="cls-92"/></g><path d="M1668.74,273.88H1717a48.31,48.31,0,0,1,48.31,48.31v0A48.31,48.31,0,0,1,1717,370.5h0a48.31,48.31,0,0,1-48.31-48.31V273.88A0,0,0,0,1,1668.74,273.88Z" class="cls-15" transform="translate(3159 -664.13) rotate(135)"/><line x1="1667.68" x2="1627.71" y1="322.19" y2="322.19" class="cls-15"/><path d="M1834.73,92.69c0-7.6-13.76-31.08-13.76-31.08s-13.77,23.48-13.77,31.08a13.77,13.77,0,1,0,27.53,0Z" class="cls-76"/><path d="M1766.16,158.1c0-7.6-13.77-31.08-13.77-31.08s-13.77,23.48-13.77,31.08a13.77,13.77,0,1,0,27.54,0Z" class="cls-76"/><path d="M1783.71,54.23c0-6.22-11.25-25.41-11.25-25.41S1761.2,48,1761.2,54.23a11.26,11.26,0,1,0,22.51,0Z" class="cls-76"/><path d="M1873,145.88c0-6.22-11.26-25.42-11.26-25.42s-11.26,19.2-11.26,25.42a11.26,11.26,0,1,0,22.52,0Z" class="cls-76"/></g></g></svg>