<svg xmlns="http://www.w3.org/2000/svg" xmlns:xlink="http://www.w3.org/1999/xlink" viewBox="0 0 2092.82 1160.59"><defs><style>.cls-1,.cls-14,.cls-24,.cls-57,.cls-64{fill:#fdb715;}.cls-1,.cls-10,.cls-11,.cls-12,.cls-13,.cls-2,.cls-25,.cls-29,.cls-3,.cls-30,.cls-32,.cls-36,.cls-4,.cls-40,.cls-41,.cls-45,.cls-46,.cls-5,.cls-53,.cls-55,.cls-56,.cls-57,.cls-59,.cls-6,.cls-61,.cls-66,.cls-7,.cls-8,.cls-83,.cls-9{stroke:#000;}.cls-1,.cls-10,.cls-11,.cls-12,.cls-13,.cls-16,.cls-17,.cls-18,.cls-2,.cls-21,.cls-22,.cls-25,.cls-29,.cls-3,.cls-30,.cls-32,.cls-34,.cls-35,.cls-36,.cls-37,.cls-38,.cls-39,.cls-4,.cls-40,.cls-41,.cls-43,.cls-44,.cls-45,.cls-46,.cls-5,.cls-51,.cls-53,.cls-55,.cls-56,.cls-57,.cls-59,.cls-6,.cls-60,.cls-61,.cls-64,.cls-66,.cls-67,.cls-7,.cls-70,.cls-71,.cls-72,.cls-73,.cls-74,.cls-77,.cls-8,.cls-83,.cls-84,.cls-85,.cls-86,.cls-9{stroke-linejoin:round;}.cls-1,.cls-10,.cls-11,.cls-12,.cls-13,.cls-16,.cls-17,.cls-18,.cls-2,.cls-22,.cls-3,.cls-32,.cls-36,.cls-4,.cls-44,.cls-45,.cls-46,.cls-5,.cls-53,.cls-6,.cls-61,.cls-67,.cls-7,.cls-70,.cls-8,.cls-9{stroke-width:12px;}.cls-19,.cls-2,.cls-29,.cls-40,.cls-70{fill:#fff;}.cls-3,.cls-78{fill:#017dbc;}.cls-26,.cls-4{fill:#02aed9;}.cls-49,.cls-5{fill:#02558b;}.cls-52,.cls-6{fill:#269b48;}.cls-68,.cls-7{fill:#8f1738;}.cls-75,.cls-8{fill:#289b48;}.cls-62,.cls-66,.cls-9{fill:#5dbb46;}.cls-10,.cls-23,.cls-35{fill:#c31e33;}.cls-11,.cls-16,.cls-17,.cls-18,.cls-21,.cls-22,.cls-25,.cls-30,.cls-34,.cls-37,.cls-38,.cls-39,.cls-41,.cls-43,.cls-51,.cls-56,.cls-59,.cls-60,.cls-67,.cls-73,.cls-74,.cls-77,.cls-84,.cls-85{fill:none;}.cls-12{fill:#e11584;}.cls-15{clip-path:url(#clip-path);}.cls-16,.cls-51{stroke:#02aed9;}.cls-17,.cls-37{stroke:#c31e33;}.cls-18,.cls-34,.cls-35,.cls-44,.cls-60,.cls-64,.cls-71,.cls-72,.cls-73,.cls-86{stroke:#fff;}.cls-20{clip-path:url(#clip-path-2);}.cls-21{stroke:#eb1b2e;stroke-width:22px;stroke-dasharray:12.06 12.06;}.cls-22,.cls-39{stroke:#269b48;}.cls-22{stroke-dasharray:12.01 12.01;}.cls-24{opacity:0.25;}.cls-25,.cls-29,.cls-37,.cls-38,.cls-39,.cls-71,.cls-73,.cls-74,.cls-77{stroke-width:6px;}.cls-27{clip-path:url(#clip-path-3);}.cls-28{clip-path:url(#clip-path-4);}.cls-30{stroke-width:3px;}.cls-31,.cls-32,.cls-72{fill:#f36d26;}.cls-33{fill:#dd1367;}.cls-34,.cls-35,.cls-40,.cls-41,.cls-43,.cls-51,.cls-64,.cls-83,.cls-84,.cls-86{stroke-width:8px;}.cls-36,.cls-47{fill:#dedede;}.cls-38{stroke:#02558b;}.cls-42{clip-path:url(#clip-path-5);}.cls-43{stroke:#fefefe;}.cls-45{fill:#c22033;}.cls-46,.cls-81,.cls-83{fill:#48773c;}.cls-48{opacity:0.3;}.cls-50{clip-path:url(#clip-path-6);}.cls-53{fill:#ef3f2c;}.cls-54{clip-path:url(#clip-path-7);}.cls-55,.cls-63{fill:#981398;}.cls-55{stroke-width:13.33px;}.cls-56{stroke-width:11.52px;}.cls-57,.cls-59{stroke-width:12.58px;}.cls-58{fill:#d3a028;}.cls-60{stroke-linecap:round;stroke-width:7px;}.cls-61,.cls-86{fill:#eb1b2e;}.cls-65{clip-path:url(#clip-path-8);}.cls-66{stroke-width:9.34px;}.cls-67,.cls-85{stroke:#fdb715;}.cls-69{clip-path:url(#clip-path-9);}.cls-70{stroke:#8f1738;}.cls-72,.cls-85{stroke-width:4px;}.cls-74{stroke:#48773c;}.cls-76{clip-path:url(#clip-path-10);}.cls-77{stroke:#fcb615;}.cls-79{clip-path:url(#clip-path-11);}.cls-80{fill:#d19f2a;}.cls-82{clip-path:url(#clip-path-12);}.cls-84{stroke:#f99d26;}</style><clipPath id="clip-path" transform="translate(0 55.53)"><path class="cls-1" d="M1441.34,882.18h182.87A52.75,52.75,0,0,1,1677,934.94V1082a0,0,0,0,1,0,0H1441.34a0,0,0,0,1,0,0V882.18A0,0,0,0,1,1441.34,882.18Z"/></clipPath><clipPath id="clip-path-2" transform="translate(0 55.53)"><path class="cls-2" d="M1280.83,832h100.31a90.53,90.53,0,0,1,90.53,90.53V1082a0,0,0,0,1,0,0H1280.83a0,0,0,0,1,0,0V832A0,0,0,0,1,1280.83,832Z"/></clipPath><clipPath id="clip-path-3" transform="translate(0 55.53)"><rect class="cls-4" x="1870.9" y="915.26" width="75.15" height="166.77"/></clipPath><clipPath id="clip-path-4" transform="translate(0 55.53)"><path class="cls-1" d="M1878.2,718.21h49a35.19,35.19,0,0,1,35.19,35.19V865.13a0,0,0,0,1,0,0h-91.68A27.66,27.66,0,0,1,1843,837.47V753.4A35.19,35.19,0,0,1,1878.2,718.21Z"/></clipPath><clipPath id="clip-path-5" transform="translate(0 55.53)"><rect class="cls-4" x="907.65" y="581.91" width="375.32" height="217"/></clipPath><clipPath id="clip-path-6" transform="translate(0 55.53)"><rect class="cls-5" x="201.8" y="831.97" width="205.62" height="127.67"/></clipPath><clipPath id="clip-path-7" transform="translate(0 55.53)"><path class="cls-4" d="M76.38,832H238.25a44.1,44.1,0,0,1,44.1,44.1v206a0,0,0,0,1,0,0H32.29a0,0,0,0,1,0,0v-206A44.1,44.1,0,0,1,76.38,832Z"/></clipPath><clipPath id="clip-path-8" transform="translate(0 55.53)"><circle class="cls-6" cx="2011.85" cy="403.05" r="74.97"/></clipPath><clipPath id="clip-path-9" transform="translate(0 55.53)"><polygon class="cls-7" points="1032.29 581.91 1157.72 401.88 1277.81 581.91 1032.29 581.91"/></clipPath><clipPath id="clip-path-10" transform="translate(0 55.53)"><path class="cls-8" d="M1703.58,6.67s-7,57.65,24.23,88.88,88.88,24.23,88.88,24.23,7-57.64-24.23-88.88S1703.58,6.67,1703.58,6.67Z"/></clipPath><clipPath id="clip-path-11" transform="translate(0 55.53)"><rect class="cls-3" x="1782.85" y="38.46" width="263.3" height="260.77" rx="18.56"/></clipPath><clipPath id="clip-path-12" transform="translate(0 55.53)"><path class="cls-2" d="M1997.19,153s-37-40.12-82.69-40.12S1831.81,153,1831.81,153s37,40.12,82.69,40.12S1997.19,153,1997.19,153Z"/></clipPath></defs><g id="Layer_2" data-name="Layer 2"><g id="sdg10"><rect class="cls-9" x="1282.71" y="715.27" width="750.79" height="422.3"/><polygon class="cls-3" points="1528.89 637.44 913.61 637.44 913.61 570.77 1450.61 570.77 1528.89 637.44"/><rect class="cls-7" x="1337.06" y="638.71" width="696.44" height="76.56"/><rect class="cls-10" x="1337.06" y="637.44" width="696.44" height="51.47"/><path class="cls-11" d="M1907.82,491.9V461.24a23.59,23.59,0,0,0-23.58-23.59h-94.35" transform="translate(0 55.53)"/><rect class="cls-1" x="1522.66" y="472.94" width="219.6" height="39.6"/><rect class="cls-1" x="1517.82" y="298.36" width="31.33" height="214.05"/><polygon class="cls-2" points="1830.17 609.25 1740.59 609.25 1740.59 577.59 1801.35 577.59 1830.17 609.25"/><path class="cls-12" d="M1549.15,316.63h82.06a47.1,47.1,0,0,1,47.1,47.1V472.94a0,0,0,0,1,0,0H1549.15a0,0,0,0,1,0,0V316.63A0,0,0,0,1,1549.15,316.63Z"/><path class="cls-13" d="M1477.66,685.09H1650.3a0,0,0,0,1,0,0V852.17a63.09,63.09,0,0,1-63.09,63.09h-46.46a63.09,63.09,0,0,1-63.09-63.09V685.09A0,0,0,0,1,1477.66,685.09Z" transform="translate(3127.96 1655.89) rotate(-180)"/><path class="cls-14" d="M1441.34,937.72h182.87A52.75,52.75,0,0,1,1677,990.47v147.1a0,0,0,0,1,0,0H1441.34a0,0,0,0,1,0,0V937.72A0,0,0,0,1,1441.34,937.72Z"/><g class="cls-15"><line class="cls-16" x1="1422.74" y1="1037.65" x2="1695.57" y2="1037.65"/><line class="cls-17" x1="1422.74" y1="1014.19" x2="1695.57" y2="1014.19"/><line class="cls-18" x1="1422.74" y1="1060.66" x2="1695.57" y2="1060.66"/></g><path class="cls-11" d="M1441.34,937.72h182.87A52.75,52.75,0,0,1,1677,990.47v147.1a0,0,0,0,1,0,0H1441.34a0,0,0,0,1,0,0V937.72A0,0,0,0,1,1441.34,937.72Z"/><path class="cls-19" d="M1280.83,887.5h100.31A90.53,90.53,0,0,1,1471.66,978v159.54a0,0,0,0,1,0,0H1280.83a0,0,0,0,1,0,0V887.5A0,0,0,0,1,1280.83,887.5Z"/><g class="cls-20"><circle class="cls-21" cx="1328.28" cy="888.32" r="157.39"/><circle class="cls-22" cx="1328.28" cy="888.32" r="122.33"/><circle class="cls-16" cx="1328.28" cy="888.32" r="85.8"/></g><path class="cls-11" d="M1280.83,887.5h100.31A90.53,90.53,0,0,1,1471.66,978v159.54a0,0,0,0,1,0,0H1280.83a0,0,0,0,1,0,0V887.5A0,0,0,0,1,1280.83,887.5Z"/><path class="cls-23" d="M1426.64,724.22l-10.05-79.46H1282.66v251h40.93a45,45,0,0,0,45-45v-81h24.25a15,15,0,0,0,15-15V724.22Z" transform="translate(0 55.53)"/><path class="cls-11" d="M1426.64,724.22l-10.05-79.46H1282.66v251h40.93a45,45,0,0,0,45-45v-81h24.25a15,15,0,0,0,15-15V724.22Z" transform="translate(0 55.53)"/><circle class="cls-24" cx="1157.68" cy="519.36" r="202.55"/><circle class="cls-24" cx="1157.68" cy="519.36" r="152.61"/><circle class="cls-14" cx="1157.68" cy="519.36" r="114.71"/><path class="cls-23" d="M1525.13,750.59V852.32h.14v40.15a33.88,33.88,0,0,0,33.88,33.88h0A33.88,33.88,0,0,0,1593,892.47v-40.6a46.17,46.17,0,0,0,39.82-45.72V750.59Z" transform="translate(0 55.53)"/><path class="cls-11" d="M1525.13,750.59V852.32h.14v40.15a33.88,33.88,0,0,0,33.88,33.88h0A33.88,33.88,0,0,0,1593,892.47v-40.6a46.17,46.17,0,0,0,39.82-45.72V750.59Z" transform="translate(0 55.53)"/><path class="cls-13" d="M1283,637.44h167.64a0,0,0,0,1,0,0V665a35.28,35.28,0,0,1-35.28,35.28H1283a0,0,0,0,1,0,0V637.44A0,0,0,0,1,1283,637.44Z"/><path class="cls-13" d="M1283.48,640.38h53.58a0,0,0,0,1,0,0v96.2a53.58,53.58,0,0,1-53.58,53.58h0a0,0,0,0,1,0,0V640.38A0,0,0,0,1,1283.48,640.38Z"/><path class="cls-25" d="M1396.54,690.41a12.6,12.6,0,1,0-25.19,0" transform="translate(0 55.53)"/><path class="cls-25" d="M1579,787.58a12.6,12.6,0,0,0-25.19,0" transform="translate(0 55.53)"/><path class="cls-25" d="M1624.63,787.58A12.6,12.6,0,0,0,1611.8,775a12.86,12.86,0,0,0-12.36,13v13.94a8.77,8.77,0,0,1-8.77,8.77h-9.89" transform="translate(0 55.53)"/><path class="cls-25" d="M1384.78,739.73h-3.45A18.32,18.32,0,0,1,1363,721.41h0" transform="translate(0 55.53)"/><path class="cls-25" d="M1577.29,828h-3.46a18.32,18.32,0,0,1-18.31-18.32h0" transform="translate(0 55.53)"/><path class="cls-10" d="M1343.13,670.24h-17.49a17.49,17.49,0,0,0-17.49,17.49h0a17.49,17.49,0,0,0,17.49,17.49h17.49" transform="translate(0 55.53)"/><line class="cls-11" x1="1371.35" y1="825.32" x2="1323.57" y2="825.32"/><line class="cls-18" x1="1656.26" y1="803.53" x2="1471.66" y2="803.53"/><line class="cls-18" x1="1471.68" y1="783.39" x2="1656.28" y2="783.39"/><rect class="cls-1" x="1471.66" y="1083.61" width="92.32" height="53.96"/><path class="cls-10" d="M1564,1083.61h17.16a54,54,0,0,1,54,54v0a0,0,0,0,1,0,0H1564a0,0,0,0,1,0,0v-54A0,0,0,0,1,1564,1083.61Z"/><path class="cls-2" d="M1802.68,970.8H2032a0,0,0,0,1,0,0v166.77a0,0,0,0,1,0,0H1749.64a0,0,0,0,1,0,0V1023.83A53,53,0,0,1,1802.68,970.8Z"/><rect class="cls-26" x="1870.9" y="970.8" width="75.15" height="166.77"/><g class="cls-27"><rect class="cls-19" x="1892.2" y="902.55" width="32.56" height="32.56" transform="translate(1208.69 -1024.85) rotate(45)"/><polygon class="cls-19" points="1931.5 1137.57 1908.48 984.47 1885.46 1137.57 1908.48 1160.59 1931.5 1137.57"/></g><rect class="cls-11" x="1870.9" y="970.8" width="75.15" height="166.77"/><line class="cls-16" x1="1973.9" y1="1037.64" x2="2011.85" y2="1037.64"/><rect class="cls-1" x="1870.9" y="895.64" width="75.15" height="75.15"/><path class="cls-14" d="M1878.2,773.74h49a35.19,35.19,0,0,1,35.19,35.19V920.66a0,0,0,0,1,0,0h-91.68A27.66,27.66,0,0,1,1843,893V808.93A35.19,35.19,0,0,1,1878.2,773.74Z"/><g class="cls-28"><path class="cls-10" d="M1843,773.74h89.92a0,0,0,0,1,0,0v0a59.55,59.55,0,0,1-59.55,59.55H1843a0,0,0,0,1,0,0V773.74A0,0,0,0,1,1843,773.74Z"/><path class="cls-10" d="M1932.93,774.22h62.86a0,0,0,0,1,0,0V920.66a0,0,0,0,1,0,0h-29.63a33.24,33.24,0,0,1-33.24-33.24V774.22A0,0,0,0,1,1932.93,774.22Z"/></g><path class="cls-11" d="M1878.2,773.74h49a35.19,35.19,0,0,1,35.19,35.19V920.66a0,0,0,0,1,0,0h-91.68A27.66,27.66,0,0,1,1843,893V808.93A35.19,35.19,0,0,1,1878.2,773.74Z"/><path class="cls-1" d="M1926.94,793.64h13.32a15.81,15.81,0,0,1,15.81,15.82h0a15.81,15.81,0,0,1-15.81,15.81h-13.32" transform="translate(0 55.53)"/><polyline class="cls-25" points="1877.33 853.22 1877.33 882.33 1895.19 882.33"/><circle class="cls-29" cx="1903.47" cy="853.22" r="13.02"/><circle class="cls-29" cx="1864.3" cy="853.22" r="13.02"/><line class="cls-25" x1="1877.33" y1="850.8" x2="1890.44" y2="850.8"/><line class="cls-25" x1="1913.82" y1="852.15" x2="1933.98" y2="852.15"/><path class="cls-30" d="M1907.82,797.68a4.36,4.36,0,0,0-8.71,0" transform="translate(0 55.53)"/><path class="cls-30" d="M1868.66,797.68a4.36,4.36,0,0,0-8.71,0" transform="translate(0 55.53)"/><path class="cls-25" d="M1868.66,840.11h31a8.13,8.13,0,0,0,8.14-8.14h0" transform="translate(0 55.53)"/><path class="cls-7" d="M1832.07,1082a79.07,79.07,0,0,0-158.13,0Z" transform="translate(0 55.53)"/><path class="cls-11" d="M1749.8,1003V708.29a23.81,23.81,0,0,1,23.8-23.8H1884a23.79,23.79,0,0,0,23.8-23.8v-7.43" transform="translate(0 55.53)"/><path class="cls-31" d="M1760,370.52H1549.15V417.4h193.12V522.06h59.08V411.86A41.34,41.34,0,0,0,1760,370.52Z" transform="translate(0 55.53)"/><path class="cls-11" d="M1760,370.52H1549.15V417.4h193.12V522.06h59.08V411.86A41.34,41.34,0,0,0,1760,370.52Z" transform="translate(0 55.53)"/><circle class="cls-3" cx="1717.8" cy="595.93" r="41.51"/><polyline class="cls-12" points="1602.7 387.38 1704.15 350.4 1704.15 388.89 1602.7 425.87"/><circle class="cls-2" cx="1717.8" cy="597.21" r="17.92"/><path class="cls-14" d="M1689,197.54l-10.65-22V147H1591.9V273.44a25.8,25.8,0,0,0,25.79,25.8h0a25.79,25.79,0,0,0,25.79-25.8V241.21a38.07,38.07,0,0,0,34.83-37.92v-2.72h8.75A2.12,2.12,0,0,0,1689,197.54Z" transform="translate(0 55.53)"/><path class="cls-11" d="M1689,197.54l-10.65-22V147H1591.9V273.44a25.8,25.8,0,0,0,25.79,25.8h0a25.79,25.79,0,0,0,25.79-25.8V241.21a38.07,38.07,0,0,0,34.83-37.92v-2.72h8.75A2.12,2.12,0,0,0,1689,197.54Z" transform="translate(0 55.53)"/><path class="cls-32" d="M1691.94,127.78V147h-81.4v88.64A45.52,45.52,0,0,1,1565,281.17H1553.8V127.77A25.15,25.15,0,0,1,1579,102.62h87.82A25.15,25.15,0,0,1,1691.94,127.78Z" transform="translate(0 55.53)"/><path class="cls-32" d="M1554.3,122.78a24.91,24.91,0,0,0-.5,5v-5Z" transform="translate(0 55.53)"/><path class="cls-25" d="M1636.78,171.62a12.84,12.84,0,1,0,25.67,0" transform="translate(0 55.53)"/><path class="cls-25" d="M1641.73,202.89a12.83,12.83,0,0,0,12.83,12.84h19.35" transform="translate(0 55.53)"/><circle class="cls-33" cx="1532.79" cy="512.53" r="102.32"/><path class="cls-11" d="M1517.82,242.83V216.07a21.89,21.89,0,0,0-21.89-21.89h-31" transform="translate(0 55.53)"/><line class="cls-34" x1="1532.86" y1="609.25" x2="1532.86" y2="415.56"/><line class="cls-34" x1="1581.28" y1="596.28" x2="1484.44" y2="428.54"/><line class="cls-34" x1="1616.73" y1="560.83" x2="1448.99" y2="463.99"/><line class="cls-34" x1="1629.7" y1="512.41" x2="1436.02" y2="512.41"/><line class="cls-34" x1="1616.73" y1="463.99" x2="1448.99" y2="560.83"/><line class="cls-34" x1="1581.28" y1="428.54" x2="1484.44" y2="596.28"/><path class="cls-3" d="M1532.86,331.84a125,125,0,1,0,125,125A125,125,0,0,0,1532.86,331.84Zm0,221.88a96.85,96.85,0,1,1,96.84-96.84A96.84,96.84,0,0,1,1532.86,553.72Z" transform="translate(0 55.53)"/><circle class="cls-35" cx="1532.79" cy="512.53" r="29.14"/><circle class="cls-19" cx="1532.79" cy="512.53" r="10.12"/><path class="cls-1" d="M1704.15,350.4h15.76a32.41,32.41,0,0,1,32.41,32.41v5.87a0,0,0,0,1,0,0h-48.16a0,0,0,0,1,0,0V350.4A0,0,0,0,1,1704.15,350.4Z"/><line class="cls-11" x1="1717.8" y1="555.7" x2="1717.8" y2="512.53"/><rect class="cls-36" x="1706.17" y="387.38" width="83.72" height="38.68"/><line class="cls-37" x1="1723.8" y1="401.87" x2="1723.8" y2="413.4"/><line class="cls-38" x1="1735.72" y1="401.87" x2="1735.72" y2="413.4"/><line class="cls-39" x1="1748.03" y1="401.87" x2="1748.03" y2="413.4"/><line class="cls-30" x1="1758.64" y1="404.57" x2="1775.01" y2="404.57"/><line class="cls-30" x1="1758.64" y1="410.7" x2="1775.01" y2="410.7"/><circle class="cls-40" cx="1801.35" cy="493.18" r="13.17"/><polyline class="cls-41" points="1478.39 715.67 1478.39 688.92 1528.89 638.42"/><polyline class="cls-41" points="1595.96 715.67 1595.96 688.92 1646.45 638.42"/><polyline class="cls-41" points="1713.53 715.67 1713.53 688.92 1764.02 638.42"/><polyline class="cls-41" points="1831.09 715.67 1831.09 688.92 1881.59 638.42"/><polyline class="cls-41" points="1948.66 715.67 1948.66 688.92 1999.15 638.42"/><path class="cls-14" d="M1963,538.36a55.14,55.14,0,1,0-81.39,48.5l3,26.45H1931l3-26.45A55.12,55.12,0,0,0,1963,538.36Z" transform="translate(0 55.53)"/><path class="cls-18" d="M1963,538.36a55.14,55.14,0,1,0-81.39,48.5l3,26.45H1931l3-26.45A55.12,55.12,0,0,0,1963,538.36Z" transform="translate(0 55.53)"/><line class="cls-34" x1="1881.03" y1="685.98" x2="1934.68" y2="685.98"/><line class="cls-34" x1="1881.03" y1="700.12" x2="1934.68" y2="700.12"/><path class="cls-34" d="M1907.82,502.18a36.18,36.18,0,0,0-36.18,36.18" transform="translate(0 55.53)"/><path class="cls-8" d="M1787.07,887.5h5.09a0,0,0,0,1,0,0v12.34A36.17,36.17,0,0,1,1756,936h-5.09a0,0,0,0,1,0,0V923.68A36.17,36.17,0,0,1,1787.07,887.5Z"/><path class="cls-8" d="M1707.45,775.92h5.09a36.17,36.17,0,0,1,36.17,36.17v12.34a0,0,0,0,1,0,0h-5.09a36.17,36.17,0,0,1-36.17-36.17V775.92A0,0,0,0,1,1707.45,775.92Z" transform="translate(3456.16 1655.89) rotate(-180)"/><path class="cls-8" d="M1784.76,773.21h2.31a0,0,0,0,1,0,0v14.65a33.87,33.87,0,0,1-33.87,33.87h-2.31a0,0,0,0,1,0,0V807.08A33.87,33.87,0,0,1,1784.76,773.21Z"/><path class="cls-8" d="M1691.48,885.12h7.11a50.19,50.19,0,0,1,50.19,50.19v17.07a0,0,0,0,1,0,0h-7.11a50.19,50.19,0,0,1-50.19-50.19V885.12a0,0,0,0,1,0,0Z" transform="translate(3440.25 1893.03) rotate(180)"/><rect class="cls-1" x="192.32" y="106.04" width="173.6" height="30.99"/><rect class="cls-7" x="192.32" y="137.04" width="158.98" height="84.5"/><rect class="cls-6" x="32.33" y="827.46" width="112.09" height="112.09"/><rect class="cls-26" x="907.65" y="637.44" width="375.32" height="217"/><g class="cls-42"><path class="cls-43" d="M892.58,615c22.88,0,22.88,20,45.76,20s22.89-20,45.77-20,22.88,20,45.77,20,22.88-20,45.76-20,22.88,20,45.77,20,22.88-20,45.77-20,22.88,20,45.76,20,22.89-20,45.77-20,22.89,20,45.78,20" transform="translate(0 55.53)"/><path class="cls-43" d="M892.58,659.41c22.88,0,22.88,20,45.76,20s22.89-20,45.77-20,22.88,20,45.77,20,22.88-20,45.76-20,22.88,20,45.77,20,22.88-20,45.77-20,22.88,20,45.76,20,22.89-20,45.77-20,22.89,20,45.78,20" transform="translate(0 55.53)"/><path class="cls-43" d="M892.58,703.78c22.88,0,22.88,20,45.76,20s22.89-20,45.77-20,22.88,20,45.77,20,22.88-20,45.76-20,22.88,20,45.77,20,22.88-20,45.77-20,22.88,20,45.76,20,22.89-20,45.77-20,22.89,20,45.78,20" transform="translate(0 55.53)"/><path class="cls-43" d="M892.58,748.16c22.88,0,22.88,20,45.76,20s22.89-20,45.77-20,22.88,20,45.77,20,22.88-20,45.76-20,22.88,20,45.77,20,22.88-20,45.77-20,22.88,20,45.76,20,22.89-20,45.77-20,22.89,20,45.78,20" transform="translate(0 55.53)"/></g><rect class="cls-11" x="907.65" y="637.44" width="375.32" height="217"/><rect class="cls-2" x="645.17" y="663.92" width="147.96" height="157.58"/><line class="cls-11" x1="674.8" y1="699.12" x2="763.5" y2="699.12"/><line class="cls-11" x1="674.8" y1="720.35" x2="735.17" y2="720.35"/><line class="cls-11" x1="674.8" y1="741.58" x2="763.5" y2="741.58"/><line class="cls-11" x1="674.8" y1="762.81" x2="773.03" y2="762.81"/><line class="cls-11" x1="674.85" y1="784.03" x2="773.03" y2="784.03"/><circle class="cls-1" cx="762.91" cy="515.57" r="67.38"/><circle class="cls-18" cx="644.28" cy="544.09" r="84.46"/><circle class="cls-18" cx="644.14" cy="544.16" r="56.36"/><circle class="cls-18" cx="642.55" cy="543.16" r="27.61"/><rect class="cls-7" x="282.22" y="206.81" width="125.25" height="450.19" transform="translate(689.69 919.35) rotate(180)"/><path class="cls-44" d="M344.2,311.94h0a19.46,19.46,0,0,1,19.46,19.46v95a0,0,0,0,1,0,0H324.73a0,0,0,0,1,0,0v-95A19.46,19.46,0,0,1,344.2,311.94Z"/><rect class="cls-45" x="32.33" y="262.34" width="249.89" height="450.19"/><rect class="cls-46" x="532.34" y="853.26" width="750.45" height="35.06"/><rect class="cls-36" x="532.34" y="888.32" width="750.45" height="249.24"/><rect class="cls-36" x="596.43" y="832.79" width="162.96" height="249.24" transform="translate(1355.83 1970.36) rotate(-180)"/><polygon class="cls-46" points="636.47 806.32 719.36 806.32 759.39 888.33 596.43 888.33 636.47 806.32"/><line class="cls-47" x1="759.39" y1="996.47" x2="596.44" y2="996.47"/><line class="cls-11" x1="759.39" y1="996.47" x2="596.44" y2="996.47"/><line class="cls-11" x1="759.39" y1="996.47" x2="596.44" y2="996.47"/><polygon class="cls-46" points="1178.67 806.32 1095.78 806.32 1055.75 888.33 1218.7 888.33 1178.67 806.32"/><rect class="cls-36" x="1055.75" y="888.32" width="162.96" height="249.24"/><g class="cls-48"><polygon points="765.39 888.33 826.36 1137.57 753.39 1137.57 753.39 888.33 765.39 888.33"/></g><g class="cls-48"><polygon points="980.27 888.33 1041.24 1137.57 968.27 1137.57 968.27 888.33 980.27 888.33"/></g><g class="cls-48"><polygon points="1224.7 888.33 1274.55 1137.57 1212.7 1137.57 1212.7 888.33 1224.7 888.33"/></g><line class="cls-11" x1="1055.75" y1="996.47" x2="1218.7" y2="996.47"/><line class="cls-11" x1="1055.75" y1="996.47" x2="1218.7" y2="996.47"/><path class="cls-36" d="M499.09,1108.27h787.66a29.3,29.3,0,0,1,29.3,29.3v0a0,0,0,0,1,0,0h-817a0,0,0,0,1,0,0v-29.3A0,0,0,0,1,499.09,1108.27Z"/><rect class="cls-49" x="201.8" y="887.5" width="205.62" height="127.67"/><g class="cls-50"><path class="cls-51" d="M365.36,883.58h48.27a0,0,0,0,1,0,0v73.24a0,0,0,0,1,0,0h-7.9a40.37,40.37,0,0,1-40.37-40.37V883.58A0,0,0,0,1,365.36,883.58Z"/><path class="cls-51" d="M236,828h7.9a0,0,0,0,1,0,0v73.24a0,0,0,0,1,0,0H195.6a0,0,0,0,1,0,0V868.41A40.37,40.37,0,0,1,236,828Z" transform="translate(439.47 1784.86) rotate(180)"/></g><rect class="cls-11" x="201.8" y="887.5" width="205.62" height="127.67"/><path class="cls-1" d="M287.67,493.18h61.44a29.12,29.12,0,0,1,29.12,29.12V702.16a0,0,0,0,1,0,0H236.41a0,0,0,0,1,0,0V544.44A51.26,51.26,0,0,1,287.67,493.18Z"/><path class="cls-52" d="M500.89,601.24V625H194.23V832H407.46V719.86h109.2a73.74,73.74,0,0,0,72.26-59l18-59.6Z" transform="translate(0 55.53)"/><path class="cls-11" d="M500.89,601.24V625H194.23V832H407.46V719.86h109.2a73.74,73.74,0,0,0,72.26-59l18-59.6Z" transform="translate(0 55.53)"/><rect class="cls-5" x="531.01" y="888.32" width="66.7" height="93.47"/><path class="cls-5" d="M434.52,775.39H670.3a14.29,14.29,0,0,1,14.29,14.29V908.21A14.29,14.29,0,0,1,670.3,922.5H434.52a0,0,0,0,1,0,0V775.39A0,0,0,0,1,434.52,775.39Z"/><rect class="cls-3" x="407.46" y="775.39" width="250.08" height="147.11"/><rect class="cls-19" x="434.52" y="797.47" width="195.97" height="102.95" rx="6.77"/><rect class="cls-5" x="478.96" y="981.8" width="170.79" height="59.33"/><polygon class="cls-53" points="722.45 1137.57 388.93 1137.57 388.93 1093.31 486.82 1041.12 722.45 1041.12 722.45 1137.57"/><rect class="cls-5" x="389.25" y="1093.31" width="235.3" height="44.27"/><polygon class="cls-26" points="359.61 1015.17 231.94 887.5 179.36 940.09 332.5 1093.22 332.59 1093.12 332.59 1093.31 456.19 1093.31 456.19 1015.17 359.61 1015.17"/><polygon class="cls-11" points="359.61 1015.17 231.94 887.5 179.36 940.09 332.5 1093.22 332.59 1093.12 332.59 1093.31 456.19 1093.31 456.19 1015.17 359.61 1015.17"/><path class="cls-26" d="M76.38,887.5H238.25a44.1,44.1,0,0,1,44.1,44.1v206a0,0,0,0,1,0,0H32.29a0,0,0,0,1,0,0v-206A44.1,44.1,0,0,1,76.38,887.5Z"/><g class="cls-54"><line class="cls-18" x1="3.78" y1="955.17" x2="332.59" y2="955.17"/><line class="cls-18" x1="3.78" y1="985.92" x2="332.59" y2="985.92"/></g><path class="cls-11" d="M76.38,887.5H238.25a44.1,44.1,0,0,1,44.1,44.1v206a0,0,0,0,1,0,0H32.29a0,0,0,0,1,0,0v-206A44.1,44.1,0,0,1,76.38,887.5Z"/><path class="cls-55" d="M64.27,740.39h61.36a0,0,0,0,1,0,0v80.14a43.1,43.1,0,0,1-43.1,43.1H13.11a0,0,0,0,1,0,0V791.55A51.16,51.16,0,0,1,64.27,740.39Z"/><path class="cls-26" d="M118.08,1003.9v-129A42.87,42.87,0,0,0,75.21,832h0a42.88,42.88,0,0,0-42.88,42.88v129h0V1082h232V1003.9Z" transform="translate(0 55.53)"/><path class="cls-11" d="M118.08,1003.9v-129A42.87,42.87,0,0,0,75.21,832h0a42.88,42.88,0,0,0-42.88,42.88v129h0V1082h232V1003.9Z" transform="translate(0 55.53)"/><path class="cls-14" d="M125.63,684.86V821.57A35.4,35.4,0,0,0,161,857h0a35.4,35.4,0,0,0,35.39-35.39V779.14H202a19.38,19.38,0,0,0,19.38-19.38v-74.9Z" transform="translate(0 55.53)"/><path class="cls-56" d="M125.63,684.86V821.57A35.4,35.4,0,0,0,161,857h0a35.4,35.4,0,0,0,35.39-35.39V779.14H202a19.38,19.38,0,0,0,19.38-19.38v-74.9Z" transform="translate(0 55.53)"/><path class="cls-23" d="M282.44,487.63v94.28h-.09v39.41a43.5,43.5,0,0,0,43.49,43.5h18.51V581.91h14.5a19.38,19.38,0,0,0,19.38-19.38v-74.9Z" transform="translate(0 55.53)"/><path class="cls-11" d="M282.44,487.63v94.28h-.09v39.41a43.5,43.5,0,0,0,43.49,43.5h18.51V581.91h14.5a19.38,19.38,0,0,0,19.38-19.38v-74.9Z" transform="translate(0 55.53)"/><path class="cls-57" d="M131.93,716.57H116.7a15.23,15.23,0,0,0-15.23,15.23h0A15.23,15.23,0,0,0,116.7,747h15.23" transform="translate(0 55.53)"/><path class="cls-2" d="M105.49,663.92h89.19a26.74,26.74,0,0,1,26.74,26.74v49.73a0,0,0,0,1,0,0H78.75a0,0,0,0,1,0,0V690.66A26.74,26.74,0,0,1,105.49,663.92Z"/><rect class="cls-2" x="20.88" y="712.53" width="200.25" height="27.86"/><path class="cls-25" d="M173.53,709.92a7.3,7.3,0,1,0,14.6,0" transform="translate(0 55.53)"/><path class="cls-25" d="M327,515a7.3,7.3,0,0,0,14.6,0" transform="translate(0 55.53)"/><polyline class="cls-25" points="201.8 765.45 201.8 796.66 180.83 796.66"/><polyline class="cls-25" points="359.2 570.57 359.2 601.77 345.8 601.77"/><path class="cls-25" d="M186.55,758.42h-2.43a17.3,17.3,0,0,1-17.29-17.29h0" transform="translate(0 55.53)"/><path class="cls-25" d="M344.2,560.77h-2.43a17.29,17.29,0,0,1-17.29-17.29h0" transform="translate(0 55.53)"/><polygon class="cls-2" points="390.68 1111.87 395.78 1137.57 370.06 1132.48 266.21 1028.63 286.83 1008.01 390.68 1111.87"/><path class="cls-1" d="M266.21,1118h58.36a9.77,9.77,0,0,1,9.77,9.77v0a9.77,9.77,0,0,1-9.77,9.77H266.21a0,0,0,0,1,0,0V1118A0,0,0,0,1,266.21,1118Z"/><path class="cls-1" d="M286.22,1059.35h68.37a9.77,9.77,0,0,1,9.77,9.77v0a9.77,9.77,0,0,1-9.77,9.77H286.22a0,0,0,0,1,0,0v-19.54a0,0,0,0,1,0,0Z"/><path class="cls-1" d="M266.21,1079h68.37a9.77,9.77,0,0,1,9.77,9.77v0a9.77,9.77,0,0,1-9.77,9.77H266.21a0,0,0,0,1,0,0V1079A0,0,0,0,1,266.21,1079Z"/><path class="cls-1" d="M266.21,1098.5h68.37a9.77,9.77,0,0,1,9.77,9.77v0a9.77,9.77,0,0,1-9.77,9.77H266.21a0,0,0,0,1,0,0V1098.5A0,0,0,0,1,266.21,1098.5Z"/><polyline class="cls-1" points="308.13 1059.35 264.32 1059.35 264.32 1137.57 308.13 1137.57"/><path class="cls-1" d="M565.24,1037.78h-109V972.47H527.4a93.78,93.78,0,0,1,41.44,9.65l33.71,16.59H515.9v18.55h49.34a10.24,10.24,0,0,1,6.85,2.62h0A10.26,10.26,0,0,1,565.24,1037.78Z" transform="translate(0 55.53)"/><polygon class="cls-5" points="722.45 1137.57 624.55 1137.57 624.55 1093.31 722.45 1041.12 722.45 1137.57"/><rect class="cls-51" x="464.43" y="817.87" width="138.12" height="62.16"/><polyline class="cls-51" points="464.43 817.87 531.81 858.05 602.55 817.87"/><path class="cls-58" d="M643.85,431.27l-159,27.29V518.1L530,525.85v80.44a12,12,0,1,0,23.91,0V530l90,15.44Z" transform="translate(0 55.53)"/><path class="cls-59" d="M643.85,431.27l-159,27.29V518.1L530,525.85v80.44a12,12,0,1,0,23.91,0V530l90,15.44Z" transform="translate(0 55.53)"/><rect class="cls-57" x="449.29" y="514.15" width="35.57" height="59.42"/><polyline class="cls-60" points="539.4 526.44 621.15 512.41 621.15 556.2"/><path class="cls-10" d="M535,546.57h28.48a20.62,20.62,0,0,1,20.62,20.62v12.64a20.62,20.62,0,0,1-20.62,20.62h0A28.48,28.48,0,0,1,535,572v-25.4a0,0,0,0,1,0,0Z" transform="translate(1119.11 1202.56) rotate(-180)"/><rect class="cls-10" x="507.66" y="602.1" width="25.82" height="53.88" rx="12.91"/><rect class="cls-36" x="840.96" y="637.44" width="133.31" height="500.13"/><path class="cls-1" d="M907.57,991.12h0a32.09,32.09,0,0,1,32.09,32.09v115.18a0,0,0,0,1,0,0H875.47a0,0,0,0,1,0,0V1023.21a32.09,32.09,0,0,1,32.09-32.09Z"/><line class="cls-11" x1="907.61" y1="922.5" x2="907.61" y2="806.32"/><line class="cls-11" x1="939.29" y1="922.5" x2="939.29" y2="806.32"/><line class="cls-11" x1="875.93" y1="922.5" x2="875.93" y2="806.32"/><rect class="cls-36" x="827.82" y="748" width="159.59" height="28.95"/><polygon class="cls-46" points="974.18 637.44 840.95 637.44 881.93 512.41 933.2 512.41 974.18 637.44"/><line class="cls-11" x1="907.57" y1="512.41" x2="907.61" y2="428.74"/><rect class="cls-61" x="907.61" y="428.96" width="62.34" height="31.26"/><g class="cls-48"><polygon points="840.87 775.05 969.95 775.05 969.95 842.42 840.87 787.05 840.87 775.05"/></g><circle class="cls-2" cx="907.57" cy="692.72" r="32.27"/><circle class="cls-62" cx="907.57" cy="692.72" r="12.15"/><polygon class="cls-63" points="453.66 276.75 453.66 415.56 500.8 415.56 532.65 457.42 564.49 415.56 703.81 415.56 703.81 276.75 453.66 276.75"/><polygon class="cls-11" points="453.66 276.75 453.66 415.56 500.8 415.56 532.65 457.42 564.49 415.56 703.81 415.56 703.81 276.75 453.66 276.75"/><rect class="cls-2" x="6" y="221.54" width="276.22" height="40.8"/><path class="cls-44" d="M111.11,311.94h0a19.46,19.46,0,0,1,19.46,19.46v95a0,0,0,0,1,0,0H91.65a0,0,0,0,1,0,0v-95A19.46,19.46,0,0,1,111.11,311.94Z"/><path class="cls-64" d="M203.62,311.94h0a19.46,19.46,0,0,1,19.46,19.46v95a0,0,0,0,1,0,0H184.15a0,0,0,0,1,0,0v-95A19.46,19.46,0,0,1,203.62,311.94Z"/><path class="cls-44" d="M111.11,479.73h0a19.46,19.46,0,0,1,19.46,19.46v95a0,0,0,0,1,0,0H91.65a0,0,0,0,1,0,0v-95a19.46,19.46,0,0,1,19.46-19.46Z"/><path class="cls-44" d="M203.62,479.73h0a19.46,19.46,0,0,1,19.46,19.46v95a0,0,0,0,1,0,0H184.15a0,0,0,0,1,0,0v-95A19.46,19.46,0,0,1,203.62,479.73Z"/><rect class="cls-7" x="1990.63" y="515.5" width="42.44" height="121.94"/><circle class="cls-52" cx="2011.85" cy="458.58" r="74.97"/><g class="cls-65"><rect class="cls-66" x="1924.33" y="332.09" width="87.52" height="234.73"/><line class="cls-11" x1="2011.85" y1="533.56" x2="2011.85" y2="383.61"/><line class="cls-25" x1="2011.85" y1="455.51" x2="2086.82" y2="418.57"/><line class="cls-25" x1="2009.99" y1="498.6" x2="2084.97" y2="461.65"/><line class="cls-25" x1="2011.85" y1="455.51" x2="1936.87" y2="418.57"/><line class="cls-25" x1="2013.7" y1="498.6" x2="1938.73" y2="461.65"/></g><circle class="cls-11" cx="2011.85" cy="458.58" r="74.97"/><rect class="cls-1" x="282.44" y="221.54" width="152.08" height="40.8"/><polygon class="cls-19" points="654.57 346.16 589.41 308.54 589.41 383.77 654.57 346.16"/><rect class="cls-19" x="513.65" y="330.41" width="91.15" height="31.95"/><polygon class="cls-53" points="520.14 121.12 520.14 195.85 472.66 240.49 520.14 240.49 770.38 240.49 770.38 121.12 520.14 121.12"/><path class="cls-6" d="M831.8,139.69h0A95.19,95.19,0,0,1,927,234.89v95.19a0,0,0,0,1,0,0H831.8a95.19,95.19,0,0,1-95.19-95.19v0a95.19,95.19,0,0,1,95.19-95.19Z" transform="translate(1066.69 -541.39) rotate(90)"/><path class="cls-19" d="M823.33,288.55c-17.13-1.55-29.49-11-29.49-26.82H811c.56,7,4.49,12.21,12.36,13.62V244.46c-14-3.51-29.49-7.44-29.49-27.24,0-15.72,12.08-26.53,29.49-28.07V177.63h9.12V189c16.15,1.41,27.1,10.25,28.36,26.12H843.68a14.35,14.35,0,0,0-11.23-12.5V233c14,3.37,29.34,7.16,29.34,26.95,0,13.62-10.39,26.82-29.34,28.51v11.51h-9.12Zm0-58V202.2c-7.73,1-13.2,5.62-13.2,14.18C810.13,224.52,815.74,228.17,823.33,230.56Zm9.12,16.29v28.5c8.42-1.41,13.2-7.3,13.2-14.6C845.65,252.74,840,249.23,832.45,246.85Z" transform="translate(0 55.53)"/><path class="cls-32" d="M762.91,433.78h0a81.79,81.79,0,0,1,81.79,81.79v0a0,0,0,0,1,0,0H762.91a0,0,0,0,1,0,0V433.78A0,0,0,0,1,762.91,433.78Z"/><path class="cls-3" d="M794.73,402h0a81.79,81.79,0,0,1,81.79,81.79v0a0,0,0,0,1,0,0H794.73a0,0,0,0,1,0,0V402A0,0,0,0,1,794.73,402Z"/><polygon class="cls-61" points="771.61 726.82 753.39 718.56 735.17 726.82 735.17 654.36 771.61 654.36 771.61 726.82"/><line class="cls-11" x1="1137.22" y1="922.5" x2="1137.22" y2="970.8"/><line class="cls-11" x1="1178.58" y1="922.5" x2="1178.58" y2="970.8"/><line class="cls-11" x1="1095.86" y1="922.5" x2="1095.86" y2="970.8"/><line class="cls-67" x1="677.91" y1="922.5" x2="677.91" y2="970.8"/><line class="cls-67" x1="636.55" y1="922.5" x2="636.55" y2="970.8"/><line class="cls-67" x1="719.27" y1="922.5" x2="719.27" y2="970.8"/><line class="cls-11" x1="677.91" y1="922.5" x2="677.91" y2="970.8"/><line class="cls-11" x1="636.55" y1="922.5" x2="636.55" y2="970.8"/><line class="cls-11" x1="719.27" y1="922.5" x2="719.27" y2="970.8"/><line class="cls-11" x1="1137.22" y1="1030.09" x2="1137.22" y2="1078.39"/><line class="cls-11" x1="1178.58" y1="1030.09" x2="1178.58" y2="1078.39"/><line class="cls-11" x1="1095.86" y1="1030.09" x2="1095.86" y2="1078.39"/><line class="cls-11" x1="1015.01" y1="922.5" x2="1015.01" y2="970.8"/><line class="cls-11" x1="1015.01" y1="1030.09" x2="1015.01" y2="1078.39"/><line class="cls-11" x1="800.13" y1="922.5" x2="800.13" y2="970.8"/><line class="cls-11" x1="800.13" y1="1030.09" x2="800.13" y2="1078.39"/><polyline class="cls-18" points="732.31 204.82 697.53 184.82 662.74 204.82 627.95 184.82 593.16 204.82 558.37 184.82"/><polyline class="cls-67" points="732.31 176.65 697.53 156.65 662.74 176.65 627.95 156.65 593.16 176.65 558.37 156.65"/><polygon class="cls-68" points="1032.29 637.44 1157.72 457.42 1277.81 637.44 1032.29 637.44"/><g class="cls-69"><rect class="cls-19" x="1123.07" y="403.04" width="69.22" height="69.22" transform="translate(648.54 -634.88) rotate(45)"/><rect class="cls-19" x="1150.38" y="398.69" width="69.22" height="69.22" transform="translate(306.42 1394.4) rotate(-65.95)"/><rect class="cls-19" x="1095.75" y="398.69" width="69.22" height="69.22" transform="translate(1195.29 1697.65) rotate(-114.05)"/><polygon points="1081.35 634.92 1129.15 545.78 1092.24 639.96 1081.35 634.92"/><polygon points="1221.92 640.01 1183.76 545.5 1232.76 634.87 1221.92 640.01"/><polygon points="1151.68 633.83 1157.72 551.22 1163.68 633.84 1151.68 633.83"/></g><polygon class="cls-11" points="1032.29 637.44 1157.72 457.42 1277.81 637.44 1032.29 637.44"/><polygon class="cls-46" points="1032.7 562.44 982.23 637.44 1083.16 637.44 1032.7 562.44"/><polygon class="cls-46" points="1032.7 532.07 997.63 592.81 1067.76 592.81 1032.7 532.07"/><polygon class="cls-46" points="1277.81 562.44 1227.34 637.44 1328.28 637.44 1277.81 562.44"/><polygon class="cls-46" points="1277.81 532.07 1242.74 592.81 1312.88 592.81 1277.81 532.07"/><path class="cls-32" d="M1158.85,95.48H1256a0,0,0,0,1,0,0V98.7a38.59,38.59,0,0,1-38.59,38.59h-58.52a0,0,0,0,1,0,0V95.48A0,0,0,0,1,1158.85,95.48Z"/><path class="cls-32" d="M1210.1,285.51l-57.44-17.11,17.1,57.44A32.43,32.43,0,0,0,1200.84,349h0a32.42,32.42,0,0,0,32.43-32.42h0A32.43,32.43,0,0,0,1210.1,285.51Z" transform="translate(0 55.53)"/><circle class="cls-70" cx="1199.86" cy="371.13" r="14.88"/><path class="cls-32" d="M1095.21,285.51l57.45-17.11-17.11,57.44A32.43,32.43,0,0,1,1104.47,349h0A32.42,32.42,0,0,1,1072,316.59h0A32.43,32.43,0,0,1,1095.21,285.51Z" transform="translate(0 55.53)"/><circle class="cls-70" cx="1105.46" cy="371.13" r="14.88"/><path class="cls-32" d="M1181.18,321.12l-28.52-52.72-28.53,52.72a32.43,32.43,0,0,0,5.6,38.36h0a32.42,32.42,0,0,0,45.85,0h0A32.43,32.43,0,0,0,1181.18,321.12Z" transform="translate(0 55.53)"/><circle class="cls-70" cx="1152.66" cy="390.69" r="14.88"/><path class="cls-7" d="M1144.15,95.48h27.26a29.76,29.76,0,0,1,29.76,29.76V168a0,0,0,0,1,0,0h-86.79a0,0,0,0,1,0,0V125.24A29.76,29.76,0,0,1,1144.15,95.48Z"/><path class="cls-32" d="M1092.51,137.3h30.94a16.25,16.25,0,0,1,16.25,16.25V168a0,0,0,0,1,0,0h-76.53a0,0,0,0,1,0,0v-1.39A29.35,29.35,0,0,1,1092.51,137.3Z"/><ellipse class="cls-71" cx="1161.41" cy="131.11" rx="23.74" ry="15.65"/><ellipse class="cls-19" cx="1161.41" cy="131.11" rx="6.13" ry="4.04"/><rect class="cls-7" x="1125.42" y="168.04" width="59.72" height="23.54"/><path class="cls-7" d="M1100.75,192H1210a0,0,0,0,1,0,0v82.88a54.62,54.62,0,0,1-54.62,54.62h0a54.62,54.62,0,0,1-54.62-54.62V192a0,0,0,0,1,0,0Z"/><path class="cls-72" d="M1142.45,241.81h25.67a0,0,0,0,1,0,0v12.84a12.84,12.84,0,0,1-12.84,12.84h0a12.84,12.84,0,0,1-12.84-12.84V241.81A0,0,0,0,1,1142.45,241.81Z"/><path class="cls-72" d="M1129.61,222.74h25.67a0,0,0,0,1,0,0v12.84a12.84,12.84,0,0,1-12.84,12.84h0a12.84,12.84,0,0,1-12.84-12.84V222.74A0,0,0,0,1,1129.61,222.74Z"/><path class="cls-72" d="M1155.28,222.74H1181a0,0,0,0,1,0,0v12.84a12.84,12.84,0,0,1-12.84,12.84h0a12.84,12.84,0,0,1-12.84-12.84V222.74A0,0,0,0,1,1155.28,222.74Z"/><path class="cls-72" d="M1116.86,203.85h25.67a0,0,0,0,1,0,0v12.84a12.84,12.84,0,0,1-12.84,12.84h0a12.84,12.84,0,0,1-12.84-12.84V203.85a0,0,0,0,1,0,0Z"/><path class="cls-72" d="M1142.53,203.85h25.67a0,0,0,0,1,0,0v12.84a12.84,12.84,0,0,1-12.84,12.84h0a12.84,12.84,0,0,1-12.84-12.84V203.85a0,0,0,0,1,0,0Z"/><path class="cls-72" d="M1168.21,203.85h25.67a0,0,0,0,1,0,0v12.84A12.84,12.84,0,0,1,1181,229.53h0a12.84,12.84,0,0,1-12.84-12.84V203.85A0,0,0,0,1,1168.21,203.85Z"/><path class="cls-32" d="M1210,192h64.14A86.87,86.87,0,0,1,1361,278.83v24.29a0,0,0,0,1,0,0h-59.28A91.72,91.72,0,0,1,1210,211.4V192A0,0,0,0,1,1210,192Z"/><path class="cls-7" d="M1239.33,211.68h34.77a47.09,47.09,0,0,1,47.09,47.09v13.17a0,0,0,0,1,0,0h-32.14a49.72,49.72,0,0,1-49.72-49.72V211.68A0,0,0,0,1,1239.33,211.68Z"/><path class="cls-72" d="M1260.15,225.89h15.53a21,21,0,0,1,21,21v5.88a0,0,0,0,1,0,0h-14.36a22.21,22.21,0,0,1-22.21-22.21v-4.71A0,0,0,0,1,1260.15,225.89Z"/><path class="cls-32" d="M1041.3,136.43h59.28a0,0,0,0,1,0,0v24.29a86.87,86.87,0,0,1-86.87,86.87H949.58a0,0,0,0,1,0,0V228.15A91.72,91.72,0,0,1,1041.3,136.43Z" transform="translate(2050.16 439.56) rotate(180)"/><path class="cls-7" d="M1039.1,156.14h32.14a0,0,0,0,1,0,0v13.17a47.09,47.09,0,0,1-47.09,47.09H989.37a0,0,0,0,1,0,0V205.87a49.72,49.72,0,0,1,49.72-49.72Z" transform="translate(2060.61 428.08) rotate(180)"/><path class="cls-72" d="M1036.06,170.36h14.36a0,0,0,0,1,0,0v5.88a21,21,0,0,1-21,21h-15.53a0,0,0,0,1,0,0v-4.71A22.21,22.21,0,0,1,1036.06,170.36Z" transform="translate(2064.26 423.18) rotate(180)"/><path class="cls-31" d="M1125.42,222.08a29.86,29.86,0,0,0,59.72,0Z" transform="translate(0 55.53)"/><line class="cls-11" x1="1203.89" y1="299.93" x2="1280.4" y2="376.44"/><polyline class="cls-11" points="1251.43 386.01 1251.43 347.47 1289.97 347.47"/><line class="cls-11" x1="1101.42" y1="299.93" x2="1024.91" y2="376.44"/><polyline class="cls-11" points="1053.88 386.01 1053.88 347.47 1015.34 347.47"/><line class="cls-73" x1="86.45" y1="630.28" x2="137.12" y2="630.28"/><line class="cls-73" x1="65.83" y1="644.6" x2="116.49" y2="644.6"/><line class="cls-74" x1="879.79" y1="949.65" x2="930.46" y2="949.65"/><line class="cls-74" x1="859.17" y1="963.97" x2="909.83" y2="963.97"/><circle class="cls-40" cx="624.55" cy="1135.67" r="13.17"/><path class="cls-75" d="M1703.58,6.67s-7,57.65,24.23,88.88,88.88,24.23,88.88,24.23,7-57.64-24.23-88.88S1703.58,6.67,1703.58,6.67Z" transform="translate(0 55.53)"/><g class="cls-76"><line class="cls-77" x1="1816.69" y1="175.32" x2="1703.58" y2="62.2"/><line class="cls-77" x1="1790.67" y1="149.92" x2="1668.16" y2="151.04"/><line class="cls-77" x1="1790.67" y1="149.92" x2="1791.79" y2="27.41"/><line class="cls-77" x1="1763.29" y1="122.54" x2="1640.78" y2="123.66"/><line class="cls-77" x1="1763.29" y1="122.54" x2="1764.41" y2="0.03"/></g><path class="cls-11" d="M1703.58,6.67s-7,57.65,24.23,88.88,88.88,24.23,88.88,24.23,7-57.64-24.23-88.88S1703.58,6.67,1703.58,6.67Z" transform="translate(0 55.53)"/><rect class="cls-78" x="1782.85" y="93.99" width="263.3" height="260.77" rx="18.56"/><g class="cls-79"><rect class="cls-40" x="1752.31" y="74.43" width="333.77" height="70.84"/><circle class="cls-23" cx="1813.97" cy="121.59" r="7.83"/><circle class="cls-80" cx="1837.97" cy="121.59" r="7.83"/><circle class="cls-81" cx="1861.97" cy="121.59" r="7.83"/></g><rect class="cls-11" x="1782.85" y="93.99" width="263.3" height="260.77" rx="18.56"/><path class="cls-19" d="M1997.19,153s-37-40.12-82.69-40.12S1831.81,153,1831.81,153s37,40.12,82.69,40.12S1997.19,153,1997.19,153Z" transform="translate(0 55.53)"/><g class="cls-82"><circle class="cls-83" cx="1914.5" cy="208.48" r="37.63"/><circle class="cls-14" cx="1914.5" cy="208.48" r="23.19"/><circle class="cls-49" cx="1914.5" cy="208.48" r="9.95"/></g><path class="cls-11" d="M1997.19,153s-37-40.12-82.69-40.12S1831.81,153,1831.81,153s37,40.12,82.69,40.12S1997.19,153,1997.19,153Z" transform="translate(0 55.53)"/><path class="cls-11" d="M1792.16,352.1h101.73a20.6,20.6,0,0,0,20.61-20.6V299.92" transform="translate(0 55.53)"/><circle class="cls-40" cx="1914.5" cy="354.77" r="13.17"/><circle class="cls-40" cx="1464.94" cy="249.77" r="13.17"/><path class="cls-84" d="M1850.71,236.35v0Z" transform="translate(0 55.53)"/><path class="cls-84" d="M1887.16,236.35v0Z" transform="translate(0 55.53)"/><path class="cls-84" d="M1868.94,236.35v0Z" transform="translate(0 55.53)"/><path class="cls-84" d="M1923.61,236.35v0Z" transform="translate(0 55.53)"/><path class="cls-84" d="M1905.39,236.35v0Z" transform="translate(0 55.53)"/><path class="cls-84" d="M1960.06,236.35v0Z" transform="translate(0 55.53)"/><path class="cls-84" d="M1978.28,236.35v0Z" transform="translate(0 55.53)"/><path class="cls-84" d="M1941.83,236.35v0Z" transform="translate(0 55.53)"/><rect class="cls-5" x="225.16" y="83.67" width="239.36" height="107.28" rx="17.83"/><rect class="cls-85" x="311.21" y="-17.9" width="67.28" height="199.36" rx="5.12" transform="translate(426.62 -207.53) rotate(90)"/><polygon class="cls-14" points="421.88 137.04 393.01 115.18 393.01 158.9 421.88 137.04"/><rect class="cls-14" x="268.01" y="127.07" width="136.4" height="20.4"/><path class="cls-2" d="M1281.49,101.06h219.79A65.25,65.25,0,0,0,1390,54.8a48.64,48.64,0,0,0-54.78,18.94,34.32,34.32,0,0,0-53.76,27.32Z" transform="translate(0 55.53)"/><path class="cls-2" d="M1022.9,101.06H803.11A65.26,65.26,0,0,1,914.37,54.8a48.63,48.63,0,0,1,54.77,18.94,34.32,34.32,0,0,1,53.76,27.32Z" transform="translate(0 55.53)"/><circle class="cls-40" cx="907.65" cy="415.56" r="13.17"/><circle class="cls-40" cx="1471.68" cy="1135.67" r="13.17"/><circle class="cls-40" cx="1749.8" cy="1058.5" r="13.17"/><rect class="cls-45" x="32.33" y="137.04" width="158.98" height="84.5"/><rect class="cls-2" x="17.71" y="106.04" width="173.6" height="30.99"/><rect class="cls-64" x="65.66" y="159.82" width="90.9" height="38.94"/><path class="cls-86" d="M382.93,723l-2.79,2.8L351.3,754.64,319.66,723a20.39,20.39,0,0,1,28.84-28.84l2.8,2.8,2.79-2.8A20.39,20.39,0,1,1,382.93,723Z" transform="translate(0 55.53)"/><line class="cls-56" x1="196.41" y1="834.67" x2="161.02" y2="834.67"/><line class="cls-56" x1="346.18" y1="637.22" x2="317.34" y2="637.22"/><path class="cls-19" d="M1364.39,297.63v44.51h-10.84V315.45l-10,26.69h-8.75l-10-26.76v26.76H1314V297.63h12.8l12.49,30.81,12.36-30.81Z" transform="translate(0 55.53)"/><path class="cls-19" d="M1409.4,297.63,1394,327.43v14.71h-10.84V327.43l-15.4-29.8h12.3l8.62,18.64,8.55-18.64Z" transform="translate(0 55.53)"/><path class="cls-19" d="M1314.5,390.2q6.21-5.15,9.79-8.43a40.12,40.12,0,0,0,6-6.91,12.5,12.5,0,0,0,2.48-7,6.24,6.24,0,0,0-1.21-4.06,4.42,4.42,0,0,0-3.61-1.46,4.47,4.47,0,0,0-3.77,1.81,8.34,8.34,0,0,0-1.37,5.1H1312.4a18,18,0,0,1,2.32-9,13.42,13.42,0,0,1,5.77-5.32,18.2,18.2,0,0,1,8-1.71q7.55,0,11.38,3.86a13.69,13.69,0,0,1,3.84,10.08,19.81,19.81,0,0,1-4.63,12.59A68.89,68.89,0,0,1,1327.24,391h17.11v8.81h-31.82v-8.05C1314,390.64,1314.62,390.11,1314.5,390.2Z" transform="translate(0 55.53)"/><path class="cls-19" d="M1352.84,359.51q4.22-6.27,13.6-6.27t13.6,6.27q4.21,6.28,4.21,17.18T1380,394q-4.21,6.28-13.6,6.28t-13.6-6.28q-4.21-6.27-4.21-17.31Q1348.63,365.8,1352.84,359.51Zm19.37,7.33q-1.39-3.46-5.77-3.46t-5.77,3.46c-.93,2.3-1.39,5.59-1.39,9.85a42.42,42.42,0,0,0,.5,7.14,9.17,9.17,0,0,0,2.06,4.56,7,7,0,0,0,9.2,0,9.17,9.17,0,0,0,2.06-4.56,42.42,42.42,0,0,0,.5-7.14C1373.6,372.43,1373.14,369.14,1372.21,366.84Z" transform="translate(0 55.53)"/><path class="cls-19" d="M1317.73,415.12q4.18-3.67,11.35-3.68a18.44,18.44,0,0,1,8.14,1.65,11.65,11.65,0,0,1,6.88,10.9,10.47,10.47,0,0,1-7,10.4v.25a11.45,11.45,0,0,1,5.7,4,11.57,11.57,0,0,1,2.09,7.16,13.24,13.24,0,0,1-1.8,6.94,12.38,12.38,0,0,1-5.26,4.73,18.34,18.34,0,0,1-8.21,1.71q-7.62,0-12.14-3.74t-4.79-11.29h10.52a6.42,6.42,0,0,0,1.59,4.41,5.79,5.79,0,0,0,4.44,1.62,5.06,5.06,0,0,0,3.83-1.43,5.23,5.23,0,0,0,1.37-3.77,5,5,0,0,0-1.94-4.41q-1.93-1.36-6.18-1.36h-2V430.4h2a10.71,10.71,0,0,0,5.23-1.11,4.14,4.14,0,0,0,2-4,4.8,4.8,0,0,0-1.27-3.55,4.71,4.71,0,0,0-3.49-1.27,4.32,4.32,0,0,0-3.58,1.45,6.53,6.53,0,0,0-1.36,3.62h-10.59Q1313.55,418.8,1317.73,415.12Z" transform="translate(0 55.53)"/><path class="cls-19" d="M1354.31,417.84q4.21-6.27,13.59-6.27t13.6,6.27q4.21,6.29,4.22,17.18t-4.22,17.31q-4.21,6.27-13.6,6.28t-13.59-6.28q-4.21-6.27-4.22-17.31T1354.31,417.84Zm19.36,7.33q-1.39-3.46-5.77-3.46c-2.91,0-4.84,1.15-5.76,3.46a27.29,27.29,0,0,0-1.4,9.85,41.27,41.27,0,0,0,.51,7.14,9.08,9.08,0,0,0,2.06,4.56,6.94,6.94,0,0,0,9.19,0,9.08,9.08,0,0,0,2.06-4.56,41.27,41.27,0,0,0,.51-7.14A27.29,27.29,0,0,0,1373.67,425.17Z" transform="translate(0 55.53)"/><line class="cls-73" x1="1310.96" y1="533.53" x2="1392.81" y2="533.53"/><line class="cls-73" x1="1310.06" y1="334.7" x2="1413.96" y2="334.7"/></g></g></svg>