<svg xmlns="http://www.w3.org/2000/svg" xmlns:xlink="http://www.w3.org/1999/xlink" viewBox="0 0 2112.62 1121.18"><defs><style>.cls-1,.cls-21{fill:#289b48;}.cls-1,.cls-10,.cls-11,.cls-12,.cls-16,.cls-19,.cls-2,.cls-20,.cls-24,.cls-25,.cls-26,.cls-28,.cls-29,.cls-3,.cls-31,.cls-32,.cls-33,.cls-4,.cls-46,.cls-47,.cls-5,.cls-50,.cls-51,.cls-52,.cls-6,.cls-64,.cls-67,.cls-68,.cls-7,.cls-72,.cls-75,.cls-8,.cls-80,.cls-81,.cls-82,.cls-84,.cls-87,.cls-9,.cls-95,.cls-96,.cls-97,.cls-98{stroke:#000;}.cls-1,.cls-10,.cls-11,.cls-12,.cls-13,.cls-14,.cls-15,.cls-16,.cls-19,.cls-2,.cls-20,.cls-23,.cls-24,.cls-25,.cls-26,.cls-28,.cls-29,.cls-3,.cls-31,.cls-32,.cls-33,.cls-36,.cls-38,.cls-4,.cls-41,.cls-42,.cls-45,.cls-46,.cls-47,.cls-48,.cls-5,.cls-50,.cls-51,.cls-52,.cls-55,.cls-59,.cls-6,.cls-62,.cls-63,.cls-64,.cls-67,.cls-68,.cls-7,.cls-70,.cls-71,.cls-72,.cls-73,.cls-74,.cls-75,.cls-78,.cls-8,.cls-80,.cls-81,.cls-82,.cls-84,.cls-87,.cls-88,.cls-89,.cls-9,.cls-90,.cls-91,.cls-92,.cls-94,.cls-95,.cls-96,.cls-97,.cls-98,.cls-99{stroke-linejoin:round;}.cls-1,.cls-10,.cls-11,.cls-12,.cls-13,.cls-14,.cls-15,.cls-2,.cls-20,.cls-24,.cls-29,.cls-3,.cls-31,.cls-32,.cls-36,.cls-38,.cls-4,.cls-45,.cls-46,.cls-47,.cls-5,.cls-52,.cls-55,.cls-6,.cls-68,.cls-7,.cls-80,.cls-89,.cls-9,.cls-90{stroke-width:12px;}.cls-2,.cls-28,.cls-34{fill:#269b48;}.cls-3,.cls-60,.cls-62,.cls-91{fill:#ef3f2c;}.cls-4,.cls-65{fill:#4d4d4d;}.cls-43,.cls-5,.cls-81{fill:#02558b;}.cls-27,.cls-53,.cls-6,.cls-67,.cls-8{fill:#fff;}.cls-17,.cls-42,.cls-7,.cls-72,.cls-82{fill:#fdb715;}.cls-8,.cls-95{stroke-width:10px;}.cls-13,.cls-18,.cls-41,.cls-9{fill:#017dbc;}.cls-10,.cls-30{fill:#48773c;}.cls-11,.cls-16,.cls-19,.cls-23,.cls-33,.cls-36,.cls-45,.cls-51,.cls-55,.cls-59,.cls-63,.cls-70,.cls-71,.cls-74,.cls-75,.cls-88,.cls-90,.cls-94,.cls-95,.cls-96,.cls-99{fill:none;}.cls-12{fill:#f26e24;}.cls-13,.cls-23,.cls-89,.cls-90{stroke:#fcb615;}.cls-14,.cls-29,.cls-38,.cls-92{fill:#e11584;}.cls-14{stroke:#4c9f38;}.cls-15{fill:#fcb615;}.cls-15,.cls-36,.cls-38,.cls-41,.cls-42,.cls-48,.cls-70,.cls-73,.cls-74,.cls-78,.cls-88,.cls-91,.cls-92{stroke:#fff;}.cls-16{stroke-width:7px;}.cls-19{stroke-width:5px;}.cls-20,.cls-48,.cls-50{fill:#5dbb46;}.cls-22{clip-path:url(#clip-path);}.cls-23,.cls-51,.cls-59,.cls-64,.cls-72,.cls-88,.cls-91,.cls-94{stroke-width:6px;}.cls-24,.cls-86,.cls-87{fill:#8f1738;}.cls-25,.cls-47{fill:#b3b3b3;}.cls-25,.cls-26,.cls-28,.cls-41,.cls-42,.cls-48,.cls-62,.cls-63,.cls-67,.cls-70,.cls-71,.cls-73,.cls-75,.cls-78,.cls-81,.cls-82,.cls-84,.cls-87,.cls-92,.cls-96,.cls-97,.cls-98{stroke-width:8px;}.cls-26{fill:#666;}.cls-31,.cls-78,.cls-83,.cls-84{fill:#02aed9;}.cls-32{fill:#981398;}.cls-33,.cls-74,.cls-99{stroke-width:4px;}.cls-35{clip-path:url(#clip-path-2);}.cls-37,.cls-64,.cls-73,.cls-89{fill:#ea1c2d;}.cls-39{clip-path:url(#clip-path-3);}.cls-40{clip-path:url(#clip-path-4);}.cls-44{clip-path:url(#clip-path-5);}.cls-45,.cls-63{stroke:#fdb715;}.cls-46{fill:#dedede;}.cls-49{clip-path:url(#clip-path-6);}.cls-50{stroke-width:9.34px;}.cls-52{fill:#d3a028;}.cls-53{opacity:0.2;}.cls-54{clip-path:url(#clip-path-7);}.cls-55,.cls-71,.cls-94{stroke:#ea1c2d;}.cls-56{clip-path:url(#clip-path-8);}.cls-57{clip-path:url(#clip-path-9);}.cls-58{clip-path:url(#clip-path-10);}.cls-59,.cls-62{stroke:#02aed9;}.cls-61{clip-path:url(#clip-path-11);}.cls-66{clip-path:url(#clip-path-12);}.cls-68{fill:#999;}.cls-69{clip-path:url(#clip-path-13);}.cls-76{clip-path:url(#clip-path-14);}.cls-77{clip-path:url(#clip-path-15);}.cls-79,.cls-80{fill:#f99d26;}.cls-85{clip-path:url(#clip-path-16);}.cls-93{clip-path:url(#clip-path-17);}.cls-96{stroke-linecap:round;stroke-dasharray:0 24;}.cls-97{fill:#ccc;}.cls-98{fill:#183669;}.cls-99{stroke:#d3a028;}</style><clipPath id="clip-path"><path class="cls-1" d="M1721.63,813.3s6.8,56-23.52,86.3-86.31,23.53-86.31,23.53-6.8-56,23.53-86.3S1721.63,813.3,1721.63,813.3Z"/></clipPath><clipPath id="clip-path-2"><path class="cls-2" d="M1295.62,249h159.16A34.92,34.92,0,0,1,1489.71,284V653.18a0,0,0,0,1,0,0H1239.23a0,0,0,0,1,0,0V305.42A56.39,56.39,0,0,1,1295.62,249Z"/></clipPath><clipPath id="clip-path-3"><path class="cls-1" d="M1748.44,958.79s7,57.64-24.23,88.88-88.88,24.23-88.88,24.23-7-57.64,24.23-88.88S1748.44,958.79,1748.44,958.79Z"/></clipPath><clipPath id="clip-path-4"><path class="cls-1" d="M1486.24,741s-7,57.65,24.24,88.89,88.88,24.23,88.88,24.23,7-57.65-24.24-88.88S1486.24,741,1486.24,741Z"/></clipPath><clipPath id="clip-path-5"><path class="cls-5" d="M1525.78,908.5v165.44h-81.73v-125H1266.12V848h199.11A60.55,60.55,0,0,1,1525.78,908.5Z"/></clipPath><clipPath id="clip-path-6"><circle class="cls-2" cx="1266.12" cy="883.96" r="70.66"/></clipPath><clipPath id="clip-path-7"><rect class="cls-6" x="68.8" y="688.53" width="249.91" height="109"/></clipPath><clipPath id="clip-path-8"><rect class="cls-6" x="318.87" y="688.53" width="249.91" height="109"/></clipPath><clipPath id="clip-path-9"><path class="cls-6" d="M568.82,688.53H754.89a63.84,63.84,0,0,1,63.84,63.84v45.16a0,0,0,0,1,0,0H568.82a0,0,0,0,1,0,0v-109A0,0,0,0,1,568.82,688.53Z"/></clipPath><clipPath id="clip-path-10"><rect class="cls-9" x="68.56" y="948.91" width="500.14" height="125.03"/></clipPath><clipPath id="clip-path-11"><path class="cls-3" d="M213.42,1014.76H35.28V974.67a22.3,22.3,0,0,1,22.16-22.43H284l-22.8,36.06A56.54,56.54,0,0,1,213.42,1014.76Z"/></clipPath><clipPath id="clip-path-12"><rect class="cls-4" x="566.85" y="948.91" width="252" height="125.03"/></clipPath><clipPath id="clip-path-13"><path class="cls-5" d="M518.79,1011.42H340.65V971.34a22.29,22.29,0,0,1,22.16-22.43H589.35L566.55,985A56.53,56.53,0,0,1,518.79,1011.42Z"/></clipPath><clipPath id="clip-path-14"><rect class="cls-6" x="818.79" y="191.13" width="250.11" height="132.62"/></clipPath><clipPath id="clip-path-15"><path class="cls-7" d="M1444.05,1073.94h93.14a41.24,41.24,0,0,1,41.24,41.24v0a0,0,0,0,1,0,0H1444.05a0,0,0,0,1,0,0v-41.24A0,0,0,0,1,1444.05,1073.94Z"/></clipPath><clipPath id="clip-path-16"><circle class="cls-2" cx="1708.46" cy="405.37" r="80.87"/></clipPath><clipPath id="clip-path-17"><path class="cls-8" d="M390.18,232.65h0a53.65,53.65,0,0,0-42.41-20.81H93L59.08,169.16H36v42.68h0A55.26,55.26,0,0,0,91.26,267.1h282A21.37,21.37,0,0,0,390.18,232.65Z"/></clipPath></defs><g id="Layer_2" data-name="Layer 2"><g id="sdg1"><path class="cls-10" d="M818.73,323.35h420.5a0,0,0,0,1,0,0V427.29a0,0,0,0,1,0,0H904.95a86.22,86.22,0,0,1-86.22-86.22V323.35A0,0,0,0,1,818.73,323.35Z"/><rect class="cls-11" x="68.6" y="73.69" width="2000.63" height="1000.26"/><rect class="cls-12" x="1809.86" y="507.6" width="128.72" height="40.97"/><circle class="cls-13" cx="2000.92" cy="121.71" r="105.7"/><circle class="cls-14" cx="2000.92" cy="121.71" r="68.35"/><circle class="cls-15" cx="2000.92" cy="121.71" r="28.02"/><rect class="cls-7" x="1983.35" y="171.92" width="34.46" height="95.11"/><polygon class="cls-6" points="1983.35 171.92 2000.58 124.59 2017.81 171.92 1983.35 171.92"/><line class="cls-16" x1="2000.58" y1="173.81" x2="2000.58" y2="267.02"/><path class="cls-17" d="M1937.49,290.57a14,14,0,0,0-9.18-13.16V225h-91.94V329.27h.09v40.58h61.2V327.2a44.13,44.13,0,0,0,26.18-22.6A14,14,0,0,0,1937.49,290.57Z"/><path class="cls-11" d="M1937.49,290.57a14,14,0,0,0-9.18-13.16V225h-91.94V329.27h.09v40.58h61.2V327.2a44.13,44.13,0,0,0,26.18-22.6A14,14,0,0,0,1937.49,290.57Z"/><path class="cls-18" d="M1912.32,173.35a41.3,41.3,0,0,0-26.31,9.4,41.5,41.5,0,0,0-64.46,15.78h-.41a41.49,41.49,0,0,0-34.81,64.07,41.49,41.49,0,1,0,63.6,7.29,41.6,41.6,0,0,0,9.37-13.56h.41a41.33,41.33,0,0,0,26.3-9.4,41.49,41.49,0,1,0,26.31-73.58Z"/><path class="cls-11" d="M1912.32,173.35a41.3,41.3,0,0,0-26.31,9.4,41.5,41.5,0,0,0-64.46,15.78h-.41a41.49,41.49,0,0,0-34.81,64.07,41.49,41.49,0,1,0,63.6,7.29,41.6,41.6,0,0,0,9.37-13.56h.41a41.33,41.33,0,0,0,26.3-9.4,41.49,41.49,0,1,0,26.31-73.58Z"/><circle cx="1903.3" cy="279.67" r="5.64"/><path class="cls-19" d="M1922.93,311.29h-20.1a21.27,21.27,0,0,1-18.73-11.19l-4.62-8.61"/><path class="cls-20" d="M1767,356.38h123.47a53.75,53.75,0,0,1,53.75,53.75v53.62a0,0,0,0,1,0,0H1767a0,0,0,0,1,0,0V356.38A0,0,0,0,1,1767,356.38Z"/><path class="cls-21" d="M1721.63,813.3s6.8,56-23.52,86.3-86.31,23.53-86.31,23.53-6.8-56,23.53-86.3S1721.63,813.3,1721.63,813.3Z"/><g class="cls-22"><line class="cls-23" x1="1611.8" y1="923.13" x2="1721.63" y2="813.3"/><line class="cls-23" x1="1637.06" y1="898.47" x2="1756.02" y2="899.56"/><line class="cls-23" x1="1637.06" y1="898.47" x2="1635.98" y2="779.52"/><line class="cls-23" x1="1663.65" y1="871.89" x2="1782.61" y2="872.97"/><line class="cls-23" x1="1663.65" y1="871.89" x2="1662.57" y2="752.93"/></g><path class="cls-11" d="M1721.63,813.3s6.8,56-23.52,86.3-86.31,23.53-86.31,23.53-6.8-56,23.53-86.3S1721.63,813.3,1721.63,813.3Z"/><path class="cls-2" d="M2017.8,828h0a51.42,51.42,0,0,1,51.42,51.42v8.56a0,0,0,0,1,0,0H2017.8a0,0,0,0,1,0,0V828A0,0,0,0,1,2017.8,828Z"/><path class="cls-24" d="M1767.4,849.82h65.33a0,0,0,0,1,0,0v10.09A26.69,26.69,0,0,1,1806,886.61H1794.1a26.69,26.69,0,0,1-26.69-26.69V849.82A0,0,0,0,1,1767.4,849.82Z"/><rect class="cls-25" x="1746.61" y="835.37" width="117.11" height="28.7"/><circle class="cls-26" cx="1873.81" cy="849.82" r="22.8"/><path class="cls-27" d="M1923.89,885.53a26.35,26.35,0,0,0-19.06,8.14l-78.68,58.78V887.68h-51.07v98a29.44,29.44,0,0,0,29.44,29.43h21.63l71.3-51.28v110.51h171.78V885.53Z"/><path class="cls-11" d="M1923.89,885.53a26.35,26.35,0,0,0-19.06,8.14l-78.68,58.78V887.68h-51.07v98a29.44,29.44,0,0,0,29.44,29.43h21.63l71.3-51.28v110.51h171.78V885.53Z"/><path class="cls-11" d="M742.07,646.83H419.43a20.77,20.77,0,0,1-20.77-20.77V460.28a20.77,20.77,0,0,0-20.77-20.77H339.64a20.77,20.77,0,0,1-20.77-20.78V267.1"/><path class="cls-28" d="M1853,685.76h21.79a0,0,0,0,1,0,0v0a35.69,35.69,0,0,1-35.69,35.69h-21.79a0,0,0,0,1,0,0v0A35.69,35.69,0,0,1,1853,685.76Z"/><path class="cls-28" d="M1759.82,645.3h21.79A35.69,35.69,0,0,1,1817.31,681v0a0,0,0,0,1,0,0h-21.79a35.69,35.69,0,0,1-35.69-35.69v0A0,0,0,0,1,1759.82,645.3Z" transform="translate(3577.13 1326.3) rotate(180)"/><path class="cls-29" d="M1563.11,220.4h111.56A73.55,73.55,0,0,1,1748.22,294V426.3a0,0,0,0,1,0,0H1489.56a0,0,0,0,1,0,0V294A73.55,73.55,0,0,1,1563.11,220.4Z"/><rect class="cls-24" x="1684.89" y="410.2" width="47.15" height="198.75"/><rect class="cls-9" x="68.6" y="73.69" width="750.19" height="250.06"/><path class="cls-30" d="M1404.17,73.69h-90.64A19.26,19.26,0,0,0,1294.27,93v3.78A19.26,19.26,0,0,0,1313.53,116h78.24V373.75h97.94V159.22A85.53,85.53,0,0,0,1404.17,73.69Z"/><path class="cls-11" d="M1404.17,73.69h-90.64A19.26,19.26,0,0,0,1294.27,93v3.78A19.26,19.26,0,0,0,1313.53,116h78.24V373.75h97.94V159.22A85.53,85.53,0,0,0,1404.17,73.69Z"/><path class="cls-31" d="M651.75,235.13h95.69a36.93,36.93,0,0,1,36.93,36.93v51.69a0,0,0,0,1,0,0H651.75a0,0,0,0,1,0,0V235.13A0,0,0,0,1,651.75,235.13Z"/><path class="cls-18" d="M674.9,506.45V436.59A50.92,50.92,0,0,0,624,385.67H556.87a64.49,64.49,0,0,0-64.49,64.49V588.53a12.05,12.05,0,0,0,12.05,12.05H717.64V556A50.09,50.09,0,0,0,674.9,506.45Z"/><path class="cls-11" d="M674.9,506.45V436.59A50.92,50.92,0,0,0,624,385.67H556.87a64.49,64.49,0,0,0-64.49,64.49V588.53a12.05,12.05,0,0,0,12.05,12.05H717.64V556A50.09,50.09,0,0,0,674.9,506.45Z"/><path class="cls-29" d="M501.26,549.76h181a38.81,38.81,0,0,1,38.81,38.81V730.63a0,0,0,0,1,0,0H462.45a0,0,0,0,1,0,0V588.56A38.81,38.81,0,0,1,501.26,549.76Z"/><path class="cls-7" d="M462.45,596.59h25.34A37.22,37.22,0,0,1,525,633.81v86.85a0,0,0,0,1,0,0H462.45a0,0,0,0,1,0,0V596.59A0,0,0,0,1,462.45,596.59Z"/><path class="cls-17" d="M638.47,427.29H591.82a27.93,27.93,0,0,0-27.93,27.93v110A27.72,27.72,0,0,0,591.62,593h0a27.72,27.72,0,0,0,27.72-27.72V516.63a38.58,38.58,0,0,0,34.15-38.32v-36A15,15,0,0,0,638.47,427.29Z"/><path class="cls-11" d="M638.47,427.29H591.82a27.93,27.93,0,0,0-27.93,27.93v110A27.72,27.72,0,0,0,591.62,593h0a27.72,27.72,0,0,0,27.72-27.72V516.63a38.58,38.58,0,0,0,34.15-38.32v-36A15,15,0,0,0,638.47,427.29Z"/><rect class="cls-32" x="646.55" y="587.52" width="92.57" height="151.27" rx="40.06" transform="translate(671.85 -295.68) rotate(45)"/><circle class="cls-7" cx="740.75" cy="617.01" r="36.03"/><path class="cls-19" d="M624,453.24a10.52,10.52,0,1,1-21,0"/><polyline class="cls-19" points="637.68 453.24 637.68 482.21 623.96 482.21"/><path class="cls-33" d="M747.59,618.17a6.53,6.53,0,0,0,9.24,9.23"/><path class="cls-33" d="M731,601.59a6.53,6.53,0,0,0,9.24,9.23"/><path class="cls-19" d="M630.82,496.05h-8.29a13.84,13.84,0,0,1-13.84-13.84h0"/><rect class="cls-24" x="1065.38" y="248.67" width="274.78" height="75.08"/><path class="cls-34" d="M1295.62,249h159.16A34.92,34.92,0,0,1,1489.71,284V653.18a0,0,0,0,1,0,0H1239.23a0,0,0,0,1,0,0V305.42A56.39,56.39,0,0,1,1295.62,249Z"/><g class="cls-35"><line class="cls-36" x1="1239.23" y1="376.1" x2="1489.71" y2="376.1"/><line class="cls-36" x1="1239.23" y1="406.88" x2="1489.71" y2="406.88"/><line class="cls-36" x1="1239.23" y1="438.12" x2="1489.71" y2="438.12"/></g><path class="cls-11" d="M1295.62,249h159.16A34.92,34.92,0,0,1,1489.71,284V653.18a0,0,0,0,1,0,0H1239.23a0,0,0,0,1,0,0V305.42A56.39,56.39,0,0,1,1295.62,249Z"/><path class="cls-24" d="M1388.77,250.4V192.49h-48.61V250.4h-45.89c0,25.11,31.43,45.48,70.2,45.48s70.19-20.37,70.19-45.48Z"/><path class="cls-24" d="M1457,249h0a32.68,32.68,0,0,1,32.68,32.68V561.39a0,0,0,0,1,0,0h-65.35a0,0,0,0,1,0,0V281.71A32.68,32.68,0,0,1,1457,249Z"/><path class="cls-37" d="M1325.3,573.82H943.81v500.12h420.37V612.69A38.88,38.88,0,0,0,1325.3,573.82Z"/><path class="cls-11" d="M1325.3,573.82H943.81v500.12h420.37V612.69A38.88,38.88,0,0,0,1325.3,573.82Z"/><rect class="cls-2" x="1600.31" y="573.81" width="34.34" height="500.13"/><ellipse class="cls-6" cx="1618.89" cy="530.04" rx="26.31" ry="42.81"/><ellipse class="cls-6" cx="1563.09" cy="553.15" rx="26.31" ry="42.81" transform="translate(66.68 1267.28) rotate(-45)"/><ellipse class="cls-6" cx="1539.97" cy="608.95" rx="42.81" ry="26.31"/><ellipse class="cls-6" cx="1563.09" cy="664.75" rx="42.81" ry="26.31" transform="translate(-12.23 1299.97) rotate(-45)"/><ellipse class="cls-6" cx="1618.89" cy="687.87" rx="26.31" ry="42.81"/><ellipse class="cls-6" cx="1674.69" cy="664.75" rx="26.31" ry="42.81" transform="translate(20.45 1378.88) rotate(-45)"/><ellipse class="cls-6" cx="1697.8" cy="608.95" rx="42.81" ry="26.31"/><ellipse class="cls-6" cx="1674.69" cy="553.15" rx="42.81" ry="26.31" transform="translate(99.37 1346.2) rotate(-45)"/><circle class="cls-7" cx="1618.89" cy="608.95" r="46.81"/><circle class="cls-38" cx="1618.89" cy="608.95" r="18.62"/><path class="cls-24" d="M1319.07,116h90.8a0,0,0,0,1,0,0v45.4a45.4,45.4,0,0,1-45.4,45.4h0a45.4,45.4,0,0,1-45.4-45.4V116a0,0,0,0,1,0,0Z"/><path class="cls-21" d="M1748.44,958.79s7,57.64-24.23,88.88-88.88,24.23-88.88,24.23-7-57.64,24.23-88.88S1748.44,958.79,1748.44,958.79Z"/><g class="cls-39"><line class="cls-23" x1="1635.33" y1="1071.9" x2="1748.44" y2="958.79"/><line class="cls-23" x1="1661.34" y1="1046.51" x2="1783.86" y2="1047.62"/><line class="cls-23" x1="1661.34" y1="1046.51" x2="1660.23" y2="923.99"/><line class="cls-23" x1="1688.72" y1="1019.13" x2="1811.24" y2="1020.24"/><line class="cls-23" x1="1688.72" y1="1019.13" x2="1687.6" y2="896.61"/></g><path class="cls-11" d="M1748.44,958.79s7,57.64-24.23,88.88-88.88,24.23-88.88,24.23-7-57.64,24.23-88.88S1748.44,958.79,1748.44,958.79Z"/><path class="cls-21" d="M1486.24,741s-7,57.65,24.24,88.89,88.88,24.23,88.88,24.23,7-57.65-24.24-88.88S1486.24,741,1486.24,741Z"/><g class="cls-40"><line class="cls-23" x1="1599.36" y1="854.09" x2="1486.24" y2="740.97"/><line class="cls-23" x1="1573.34" y1="828.69" x2="1450.83" y2="829.81"/><line class="cls-23" x1="1573.34" y1="828.69" x2="1574.46" y2="706.18"/><line class="cls-23" x1="1545.96" y1="801.31" x2="1423.45" y2="802.43"/><line class="cls-23" x1="1545.96" y1="801.31" x2="1547.08" y2="678.8"/></g><path class="cls-11" d="M1486.24,741s-7,57.65,24.24,88.89,88.88,24.23,88.88,24.23,7-57.65-24.24-88.88S1486.24,741,1486.24,741Z"/><polygon class="cls-2" points="943.81 79.32 943.81 206.07 1068.96 206.07 1068.96 79.32 1006.38 6 943.81 79.32"/><polygon class="cls-29" points="818.89 79.32 818.89 206.07 944.04 206.07 944.04 79.32 1006.38 6 881.47 6 818.89 79.32"/><rect class="cls-41" x="975.05" y="100.03" width="68.81" height="55.29" transform="translate(2018.92 255.34) rotate(-180)"/><rect class="cls-42" x="843.83" y="112.29" width="68.81" height="34.06" transform="translate(1756.46 258.64) rotate(-180)"/><path class="cls-37" d="M1491.74,513.51h-68.28l.78,133.32H1131.41V848h187.66V719.43h125.24a48.2,48.2,0,0,0,48.21-48.21Z"/><path class="cls-11" d="M1491.74,513.51h-68.28l.78,133.32H1131.41V848h187.66V719.43h125.24a48.2,48.2,0,0,0,48.21-48.21Z"/><path class="cls-43" d="M1525.78,908.5v165.44h-81.73v-125H1266.12V848h199.11A60.55,60.55,0,0,1,1525.78,908.5Z"/><g class="cls-44"><path class="cls-45" d="M1234.05,896.9h215.31a35.19,35.19,0,0,1,35.18,35.19v140.48"/></g><path class="cls-11" d="M1525.78,908.5v165.44h-81.73v-125H1266.12V848h199.11A60.55,60.55,0,0,1,1525.78,908.5Z"/><rect class="cls-46" x="68.8" y="847.95" width="875.13" height="26.35"/><rect class="cls-47" x="68.8" y="797.53" width="875.13" height="50.42"/><polygon class="cls-31" points="943.88 447.07 943.88 573.82 818.73 573.82 818.73 447.07 881.31 373.75 943.88 447.07"/><polygon class="cls-5" points="1068.8 447.07 1068.8 573.82 943.65 573.82 943.65 447.07 881.31 373.75 1006.23 373.75 1068.8 447.07"/><rect class="cls-42" x="846.02" y="480.04" width="70.57" height="69.72"/><rect class="cls-48" x="975.05" y="480.04" width="68.81" height="34.06"/><rect class="cls-24" x="1250.92" y="942.66" width="30.4" height="129.91"/><circle class="cls-34" cx="1266.12" cy="883.96" r="70.66"/><g class="cls-49"><rect class="cls-50" x="1183.64" y="764.74" width="82.48" height="221.23"/><line class="cls-11" x1="1266.12" y1="954.62" x2="1266.12" y2="813.3"/><line class="cls-51" x1="1266.12" y1="881.06" x2="1336.78" y2="846.25"/><line class="cls-51" x1="1264.37" y1="921.67" x2="1335.03" y2="886.85"/><line class="cls-51" x1="1266.12" y1="881.06" x2="1195.46" y2="846.25"/><line class="cls-51" x1="1267.87" y1="921.67" x2="1197.21" y2="886.85"/></g><circle class="cls-11" cx="1266.12" cy="883.96" r="70.66"/><polygon class="cls-52" points="1068.84 720.15 1068.84 896.9 1193.99 896.9 1193.99 720.15 1131.41 646.83 1068.84 720.15"/><polygon class="cls-7" points="943.93 720.15 943.93 896.9 1069.08 896.9 1069.08 720.15 1131.41 646.83 1006.5 646.83 943.93 720.15"/><circle class="cls-53" cx="117.63" cy="126.03" r="112.63"/><circle class="cls-17" cx="117.63" cy="126.03" r="84.95"/><rect class="cls-27" x="68.8" y="688.53" width="249.91" height="109"/><g class="cls-54"><line class="cls-55" x1="68.6" y1="772.45" x2="318.71" y2="772.45"/></g><rect class="cls-11" x="68.8" y="688.53" width="249.91" height="109"/><rect class="cls-9" x="88.06" y="711.42" width="212.07" height="36.93"/><rect class="cls-27" x="318.87" y="688.53" width="249.91" height="109"/><g class="cls-56"><line class="cls-55" x1="318.67" y1="772.45" x2="568.77" y2="772.45"/></g><rect class="cls-11" x="318.87" y="688.53" width="249.91" height="109"/><rect class="cls-9" x="338.12" y="711.42" width="212.07" height="36.93"/><path class="cls-27" d="M568.82,688.53H754.89a63.84,63.84,0,0,1,63.84,63.84v45.16a0,0,0,0,1,0,0H568.82a0,0,0,0,1,0,0v-109A0,0,0,0,1,568.82,688.53Z"/><g class="cls-57"><line class="cls-55" x1="568.62" y1="772.45" x2="818.73" y2="772.45"/></g><path class="cls-11" d="M568.82,688.53H754.89a63.84,63.84,0,0,1,63.84,63.84v45.16a0,0,0,0,1,0,0H568.82a0,0,0,0,1,0,0v-109A0,0,0,0,1,568.82,688.53Z"/><path class="cls-9" d="M588.08,711.42h167.5A30.41,30.41,0,0,1,786,741.83v6.52a0,0,0,0,1,0,0H588.08a0,0,0,0,1,0,0V711.42A0,0,0,0,1,588.08,711.42Z"/><rect class="cls-18" x="68.56" y="948.91" width="500.14" height="125.03"/><g class="cls-58"><path class="cls-59" d="M568.7,980.46c-50.08,0-50.08-12-100.15-12s-50.08,12-100.16,12-50.07-12-100.15-12-50.08,12-100.16,12-50.08-12-100.16-12"/><path class="cls-59" d="M568.7,1006.94c-50.08,0-50.08-12-100.15-12s-50.08,12-100.16,12-50.07-12-100.15-12-50.08,12-100.16,12-50.08-12-100.16-12"/><path class="cls-59" d="M568.7,1033.41c-50.08,0-50.08-12-100.15-12s-50.08,12-100.16,12-50.07-12-100.15-12-50.08,12-100.16,12-50.08-12-100.16-12"/><path class="cls-59" d="M568.7,1059.89c-50.08,0-50.08-12-100.15-12s-50.08,12-100.16,12-50.07-12-100.15-12-50.08,12-100.16,12-50.08-12-100.16-12"/></g><rect class="cls-11" x="68.56" y="948.91" width="500.14" height="125.03"/><rect class="cls-31" x="70.37" y="904.7" width="117.97" height="47.54"/><path class="cls-60" d="M213.42,1014.76H35.28V974.67a22.3,22.3,0,0,1,22.16-22.43H284l-22.8,36.06A56.54,56.54,0,0,1,213.42,1014.76Z"/><g class="cls-61"><line class="cls-62" x1="35.28" y1="983.5" x2="290.62" y2="983.5"/></g><path class="cls-11" d="M213.42,1014.76H35.28V974.67a22.3,22.3,0,0,1,22.16-22.43H284l-22.8,36.06A56.54,56.54,0,0,1,213.42,1014.76Z"/><circle class="cls-63" cx="133.63" cy="983.5" r="12.81"/><circle class="cls-63" cx="193.77" cy="983.5" r="12.81"/><rect class="cls-64" x="91.24" y="920.54" width="76.68" height="15.85"/><path class="cls-27" d="M750,47.81a21.32,21.32,0,0,1,42.64,0Z"/><path class="cls-27" d="M646.77,47.81a31.75,31.75,0,0,1,63.5,0Z"/><path class="cls-27" d="M678.52,47.81a43.69,43.69,0,1,1,87.38,0Z"/><polygon class="cls-20" points="943.88 897.19 943.88 1073.94 818.73 1073.94 818.73 897.19 881.31 823.87 943.88 897.19"/><polygon class="cls-10" points="1068.8 897.19 1068.8 1073.94 943.65 1073.94 943.65 897.19 881.31 823.87 1006.23 823.87 1068.8 897.19"/><rect class="cls-65" x="566.85" y="948.91" width="252" height="125.03"/><g class="cls-66"><line class="cls-45" x1="566.85" y1="1011.42" x2="818.85" y2="1011.42"/></g><rect class="cls-11" x="566.85" y="948.91" width="252" height="125.03"/><circle class="cls-67" cx="68.8" cy="1016.15" r="13.17"/><circle class="cls-67" cx="399.45" cy="540.66" r="13.17"/><circle class="cls-67" cx="318.87" cy="323.35" r="13.17"/><polygon class="cls-68" points="1068.96 896.9 1025.66 1073.94 1112.26 1073.94 1068.96 896.9"/><polygon class="cls-6" points="1193.99 896.9 1068.96 896.9 1112.26 1073.94 1237.29 1073.94 1193.99 896.9"/><rect class="cls-6" x="375.74" y="901.37" width="117.97" height="47.54"/><path class="cls-43" d="M518.79,1011.42H340.65V971.34a22.29,22.29,0,0,1,22.16-22.43H589.35L566.55,985A56.53,56.53,0,0,1,518.79,1011.42Z"/><g class="cls-69"><line class="cls-70" x1="340.65" y1="980.17" x2="595.99" y2="980.17"/></g><path class="cls-11" d="M518.79,1011.42H340.65V971.34a22.29,22.29,0,0,1,22.16-22.43H589.35L566.55,985A56.53,56.53,0,0,1,518.79,1011.42Z"/><circle class="cls-71" cx="403.29" cy="980.17" r="12.81"/><circle class="cls-71" cx="463.43" cy="980.17" r="12.81"/><rect class="cls-72" x="396.61" y="917.21" width="76.68" height="15.85"/><rect class="cls-48" x="1113.78" y="801.59" width="35.27" height="71.97"/><rect class="cls-48" x="1113.78" y="734.94" width="35.28" height="36.93"/><rect class="cls-42" x="985.87" y="912.59" width="39.94" height="67.58"/><circle class="cls-73" cx="881.31" cy="917.21" r="29.26"/><line class="cls-74" x1="881.31" y1="887.95" x2="881.31" y2="946.47"/><line class="cls-74" x1="910.57" y1="917.21" x2="852.05" y2="917.21"/><line class="cls-33" x1="1067.79" y1="1074.95" x2="1070.01" y2="906.3"/><line class="cls-75" x1="123.93" y1="797.53" x2="123.93" y2="873.56"/><line class="cls-75" x1="252.68" y1="797.53" x2="252.68" y2="873.56"/><line class="cls-75" x1="381.43" y1="797.53" x2="381.43" y2="873.56"/><line class="cls-75" x1="510.18" y1="797.53" x2="510.18" y2="873.56"/><line class="cls-75" x1="638.92" y1="797.53" x2="638.92" y2="873.56"/><line class="cls-75" x1="767.67" y1="797.53" x2="767.67" y2="873.56"/><rect class="cls-27" x="818.79" y="191.13" width="250.11" height="132.62"/><g class="cls-76"><path class="cls-37" d="M970.19,236.18c.72,1.69,1.42,3.32,2.11,4.95.14.31.27.63.4.94a1.62,1.62,0,0,0,2,1l11.66-2.47,1.42-.3a5.36,5.36,0,0,1-.15.55q-2.15,6.63-4.31,13.26a1.53,1.53,0,0,0,.15,1.51,2.24,2.24,0,0,0,.81.65c1.51.73,3,1.43,4.57,2.14l.41.21-.92.76-21.95,17.78a1.63,1.63,0,0,0-.55,2.06l2.61,7.19.14.43-2.83-.49-10.5-1.85-7.65-1.33a2.35,2.35,0,0,0-2.73,2.47c.16,3,.31,6.05.47,9.08l.63,11.6v.34h-4.29c0-.54,0-1.07,0-1.59.14-2.85.3-5.7.45-8.55.13-2.33.24-4.66.36-7,.06-1.26.11-2.52.2-3.78a2.34,2.34,0,0,0-2.78-2.56l-11.54,2-9.18,1.59-.21,0c.38-1.06.75-2.07,1.12-3.08.54-1.51,1.09-3,1.63-4.52a1.65,1.65,0,0,0-.59-2.12L898.67,259l-.36-.32c1.68-.78,3.31-1.55,5-2.3a1.64,1.64,0,0,0,1.08-1.28,2.22,2.22,0,0,0-.11-.95c-1.42-4.41-2.86-8.82-4.29-13.22l-.17-.57,2.55.53,10.5,2.24a1.63,1.63,0,0,0,2-1.06q1.17-2.73,2.33-5.46c.06-.12.11-.24.18-.4l2.06,2.21,8.15,8.74a1.59,1.59,0,0,0,2.31.25,1.49,1.49,0,0,0,.55-1.46q-.72-3.76-1.45-7.55-1.32-6.84-2.66-13.69c-.25-1.33-.52-2.66-.77-4,0-.15,0-.3-.08-.52l.43.24,7.33,4.24a1.64,1.64,0,0,0,2.53-.75q3.88-7.63,7.78-15.27c.06-.13.14-.25.23-.43a4.8,4.8,0,0,1,.23.43q3.88,7.59,7.74,15.19a1.67,1.67,0,0,0,2.64.79l7.3-4.22.39-.21c-.05.3-.08.54-.13.78q-1.49,7.67-3,15.33c-.61,3.2-1.23,6.39-1.84,9.59a1.56,1.56,0,0,0,.84,1.7,1.54,1.54,0,0,0,1.9-.33c1.13-1.19,2.25-2.4,3.37-3.61l6.78-7.27C970.05,236.31,970.11,236.26,970.19,236.18Z"/><rect class="cls-37" x="1008.3" y="181.96" width="93.02" height="150.96"/><rect class="cls-37" x="786.22" y="181.96" width="93.02" height="150.96" transform="translate(1665.46 514.88) rotate(-180)"/></g><rect class="cls-11" x="818.79" y="191.13" width="250.11" height="132.62"/><path class="cls-11" d="M740.35,323.75V478.46a33.75,33.75,0,0,0,33.75,33.75h44.75"/><circle class="cls-67" cx="740.35" cy="399.79" r="13.17"/><path class="cls-6" d="M1242.89,467.51h34.22a38.36,38.36,0,0,1,38.36,38.36v3a84.85,84.85,0,0,1-84.85,84.85h0a47.38,47.38,0,0,1-47.38-47.38v-19.2a59.65,59.65,0,0,1,59.65-59.65Z"/><path class="cls-12" d="M1315.48,506.6v52A37.48,37.48,0,0,1,1279,596.08V704.36h0A59.37,59.37,0,0,1,1219.58,645V547.18a40.58,40.58,0,0,1,40.58-40.58Z"/><path class="cls-16" d="M1289.33,532.79l9.31,18.58a5,5,0,0,1-4.52,7.31h-11.3"/><circle cx="1265.51" cy="536.12" r="5.49"/><path class="cls-16" d="M1291,574.25h-13a15.57,15.57,0,0,1-15.56-15.57h0"/><path class="cls-12" d="M1225.72,563.17h-7.93a11.26,11.26,0,0,1-11.25-11.26h0a11.25,11.25,0,0,1,11.25-11.25h7.93"/><path class="cls-17" d="M1444.05,1073.94h93.14a41.24,41.24,0,0,1,41.24,41.24v0a0,0,0,0,1,0,0H1444.05a0,0,0,0,1,0,0v-41.24A0,0,0,0,1,1444.05,1073.94Z"/><g class="cls-77"><line class="cls-36" x1="1577.53" y1="1106.62" x2="1444.05" y2="1106.62"/></g><path class="cls-11" d="M1444.05,1073.94h93.14a41.24,41.24,0,0,1,41.24,41.24v0a0,0,0,0,1,0,0H1444.05a0,0,0,0,1,0,0v-41.24A0,0,0,0,1,1444.05,1073.94Z"/><path class="cls-12" d="M1411.72,480.44h91.76a0,0,0,0,1,0,0V505a28.59,28.59,0,0,1-28.59,28.59h-34.57A28.59,28.59,0,0,1,1411.72,505V480.44A0,0,0,0,1,1411.72,480.44Z"/><path class="cls-12" d="M1434.66,487.4V431.67a11.46,11.46,0,0,0-11.47-11.47h0a11.47,11.47,0,0,0-11.47,11.47V487.4"/><path class="cls-12" d="M1457.6,487.4V421.67a11.46,11.46,0,0,0-11.47-11.47h0a11.47,11.47,0,0,0-11.47,11.47V487.4"/><path class="cls-12" d="M1480.54,487.4V421.67a11.46,11.46,0,0,0-11.47-11.47h0a11.47,11.47,0,0,0-11.47,11.47V487.4"/><path class="cls-12" d="M1503.48,487.4V431.67A11.46,11.46,0,0,0,1492,420.2h0a11.47,11.47,0,0,0-11.47,11.47V487.4"/><rect class="cls-78" x="971.96" y="733.78" width="68.81" height="46.91"/><rect class="cls-24" x="1403.55" y="561.56" width="49.27" height="24.11" rx="12.05" transform="translate(2856.38 1147.23) rotate(-180)"/><rect class="cls-24" x="1403.55" y="585.67" width="49.27" height="24.11" rx="12.05" transform="translate(2856.38 1195.45) rotate(-180)"/><rect class="cls-24" x="1403.55" y="609.78" width="49.27" height="24.11" rx="12.05" transform="translate(2856.38 1243.66) rotate(180)"/><rect class="cls-24" x="1403.55" y="633.88" width="49.27" height="24.11" rx="12.05" transform="translate(2856.38 1291.87) rotate(-180)"/><rect class="cls-24" x="1466.23" y="621.21" width="49.27" height="24.11" rx="12.05" transform="translate(2124.13 -857.6) rotate(90)"/><rect class="cls-2" x="1157.46" y="195.81" width="29.13" height="220.86"/><rect class="cls-9" x="1099.49" y="57.35" width="145.07" height="145.07" rx="72.53"/><path class="cls-2" d="M1048.91,227h49.87a58.71,58.71,0,0,1,58.71,58.71v2.16a0,0,0,0,1,0,0h-49.87a58.71,58.71,0,0,1-58.71-58.71V227A0,0,0,0,1,1048.91,227Z" transform="translate(2206.4 514.88) rotate(-180)"/><path class="cls-2" d="M1245.26,299h49.87a0,0,0,0,1,0,0v2.16a58.71,58.71,0,0,1-58.71,58.71h-49.87a0,0,0,0,1,0,0v-2.16A58.71,58.71,0,0,1,1245.26,299Z"/><rect class="cls-27" x="1125.31" y="83.17" width="93.43" height="93.43" rx="46.72"/><rect class="cls-17" x="1153.07" y="110.93" width="37.91" height="37.91" rx="18.96"/><path class="cls-51" d="M1392.32,150.15a10.2,10.2,0,0,0-20.4,0"/><path class="cls-51" d="M1333.5,150.15a10.2,10.2,0,0,1,20.4,0v19.29h18"/><path class="cls-51" d="M1345.89,176.53c0,4.9,8.32,8.87,18.58,8.87s18.57-4,18.57-8.87"/><path class="cls-24" d="M125.73,483.21H295.5a49.84,49.84,0,0,1,49.84,49.84V688.53a0,0,0,0,1,0,0h-276a0,0,0,0,1,0,0V539.59A56.38,56.38,0,0,1,125.73,483.21Z"/><rect class="cls-6" x="156.99" y="484.12" width="100.7" height="204.41"/><path class="cls-7" d="M194.17,310.25h73.5a0,0,0,0,1,0,0v95.7a50.72,50.72,0,0,1-50.72,50.72H140.42a0,0,0,0,1,0,0V364A53.75,53.75,0,0,1,194.17,310.25Z"/><path class="cls-79" d="M277.68,408.27l-10-16.75V383a21.47,21.47,0,0,0-21.47-21.47h-34a28.37,28.37,0,0,0-28.37,28.37v108a25.94,25.94,0,0,0,26,25.95h0a25.94,25.94,0,0,0,25.94-25.95V460.31h18.16a13.79,13.79,0,0,0,13.8-13.79V416.66h5.26A5.54,5.54,0,0,0,277.68,408.27Z"/><path class="cls-11" d="M277.68,408.27l-10-16.75V383a21.47,21.47,0,0,0-21.47-21.47h-34a28.37,28.37,0,0,0-28.37,28.37v108a25.94,25.94,0,0,0,26,25.95h0a25.94,25.94,0,0,0,25.94-25.95V460.31h18.16a13.79,13.79,0,0,0,13.8-13.79V416.66h5.26A5.54,5.54,0,0,0,277.68,408.27Z"/><path class="cls-80" d="M190.23,396.33h-7.17a14.58,14.58,0,0,0-14.58,14.58h0a14.58,14.58,0,0,0,14.58,14.58h7.17"/><path class="cls-75" d="M251.8,399.79a9.84,9.84,0,1,0-19.68,0"/><path class="cls-81" d="M248.76,415H270.5a0,0,0,0,1,0,0v0a16.26,16.26,0,0,1-16.26,16.26H232.5a0,0,0,0,1,0,0v0A16.26,16.26,0,0,1,248.76,415Z"/><path class="cls-82" d="M245.09,415h29.39a0,0,0,0,1,0,0V427.4a10.18,10.18,0,0,1-10.18,10.18H222.74a0,0,0,0,1,0,0v-.22A22.35,22.35,0,0,1,245.09,415Z"/><line class="cls-11" x1="235.71" y1="460.31" x2="209.77" y2="460.31"/><path class="cls-32" d="M1593,56.32h51.69a35.86,35.86,0,0,1,35.86,35.86V206.81a112.06,112.06,0,0,1-112.06,112.06h-11.35a0,0,0,0,1,0,0V92.18A35.86,35.86,0,0,1,1593,56.32Z"/><path class="cls-83" d="M1609.26,98.36A18.27,18.27,0,0,0,1591,116.62v45.65a31.93,31.93,0,0,0,31.93,31.92h17.77a39.9,39.9,0,0,0,39.9-39.9V98.36Z"/><path class="cls-11" d="M1609.26,98.36A18.27,18.27,0,0,0,1591,116.62v45.65a31.93,31.93,0,0,0,31.93,31.92h17.77a39.9,39.9,0,0,0,39.9-39.9V98.36Z"/><path class="cls-84" d="M1597.2,121.71h-7.66A15.58,15.58,0,0,0,1574,137.28h0a15.58,15.58,0,0,0,15.58,15.58h7.66"/><path class="cls-19" d="M1640.24,123.89a10.52,10.52,0,1,1-21,0"/><polyline class="cls-19" points="1660.17 123.89 1660.17 152.86 1646.45 152.86"/><path class="cls-19" d="M1651.85,166.7h-8.29a13.84,13.84,0,0,1-13.84-13.84h0"/><polyline class="cls-24" points="105.31 631.73 213.95 631.73 213.95 688.53 105.31 688.53"/><path class="cls-80" d="M213.78,653h39.95a35.49,35.49,0,0,1,35.49,35.49v0a0,0,0,0,1,0,0H213.78a0,0,0,0,1,0,0V653A0,0,0,0,1,213.78,653Z"/><path class="cls-27" d="M141.22,150.83a34.32,34.32,0,1,0-68.64,0Z"/><path class="cls-27" d="M263.25,150.83a29.08,29.08,0,0,0-58.16,0Z"/><path class="cls-27" d="M224.17,150.83a54.32,54.32,0,1,0-108.63,0Z"/><polygon class="cls-52" points="730.43 948.99 687.13 1073.16 773.73 1073.16 730.43 948.99"/><polygon class="cls-7" points="855.46 948.99 730.43 948.99 773.73 1073.16 898.76 1073.16 855.46 948.99"/><line class="cls-33" x1="729.26" y1="1073.86" x2="731.47" y2="955.58"/><circle class="cls-34" cx="1708.46" cy="405.37" r="80.87"/><g class="cls-85"><rect class="cls-50" x="1613.98" y="269.36" width="94.4" height="253.19" transform="translate(-3.54 15.14) rotate(-0.52)"/><line class="cls-11" x1="1709.2" y1="486.23" x2="1707.73" y2="324.5"/><line class="cls-51" x1="1708.43" y1="402.05" x2="1788.93" y2="361.47"/><line class="cls-51" x1="1706.86" y1="448.54" x2="1787.36" y2="407.96"/><line class="cls-51" x1="1708.43" y1="402.05" x2="1627.21" y2="362.94"/><line class="cls-51" x1="1710.85" y1="448.51" x2="1629.63" y2="409.4"/></g><circle class="cls-11" cx="1708.46" cy="405.37" r="80.87"/><circle class="cls-7" cx="1779.65" cy="115.99" r="54.42"/><path class="cls-27" d="M1795.62,132.23a13.73,13.73,0,0,1-5.45,4.93,19.63,19.63,0,0,1-8.54,2.11v5.26h-4.16v-5.32a19.34,19.34,0,0,1-11.1-4.13,12.62,12.62,0,0,1-4.48-9.64h11.82a5.31,5.31,0,0,0,3.76,5V120.18a63.57,63.57,0,0,1-8.08-2.53,13.36,13.36,0,0,1-5.29-4,11.3,11.3,0,0,1-2.28-7.47,11.6,11.6,0,0,1,4.39-9.48,19.32,19.32,0,0,1,11.26-4V87.46h4.16v5.26q6.81.51,10.78,4a13.34,13.34,0,0,1,4.41,9.54h-11.88a5,5,0,0,0-3.31-4.54v10.06a85.72,85.72,0,0,1,8.31,2.66,13.35,13.35,0,0,1,5.22,3.87,10.94,10.94,0,0,1,2.31,7.37A12.43,12.43,0,0,1,1795.62,132.23Zm-21-23.8a8.59,8.59,0,0,0,2.89,1.95v-9a5.13,5.13,0,0,0-2.86,1.4,4.06,4.06,0,0,0-1,3A3.9,3.9,0,0,0,1774.58,108.43Zm10.13,20.65a4.32,4.32,0,0,0,1.14-3.05,3.74,3.74,0,0,0-1.07-2.76,8.79,8.79,0,0,0-3.15-1.85v9.22A5.23,5.23,0,0,0,1784.71,129.08Z"/><circle class="cls-9" cx="1588.78" cy="407.11" r="54.42"/><path class="cls-27" d="M1604.76,423.35a13.9,13.9,0,0,1-5.46,4.93,19.6,19.6,0,0,1-8.54,2.11v5.26h-4.15v-5.32a19.4,19.4,0,0,1-11.11-4.13,12.7,12.7,0,0,1-4.48-9.64h11.82a5.33,5.33,0,0,0,3.77,5V411.3a64.32,64.32,0,0,1-8.09-2.53,13.5,13.5,0,0,1-5.29-4,11.35,11.35,0,0,1-2.27-7.47,11.62,11.62,0,0,1,4.38-9.48,19.36,19.36,0,0,1,11.27-4v-5.26h4.15v5.26q6.83.51,10.78,4a13.39,13.39,0,0,1,4.42,9.54h-11.89a4.93,4.93,0,0,0-3.31-4.54v10.06a83.92,83.92,0,0,1,8.31,2.66,13.52,13.52,0,0,1,5.23,3.86,11,11,0,0,1,2.31,7.37A12.44,12.44,0,0,1,1604.76,423.35Zm-21-23.8a8.78,8.78,0,0,0,2.89,1.95v-9a5.07,5.07,0,0,0-2.86,1.4,4.07,4.07,0,0,0-1,2.95A3.92,3.92,0,0,0,1583.72,399.55Zm10.13,20.65a4.38,4.38,0,0,0,1.13-3.06,3.69,3.69,0,0,0-1.07-2.75,8.63,8.63,0,0,0-3.15-1.86v9.22A5.2,5.2,0,0,0,1593.85,420.2Z"/><circle class="cls-67" cx="1489.56" cy="365.54" r="13.17"/><circle class="cls-67" cx="1068.56" cy="573.62" r="13.17"/><circle class="cls-67" cx="1364.47" cy="788.42" r="13.17"/><path class="cls-29" d="M1382.49,1012l-18-29.36-18,29.36-31.91-29.36v62.86a49.94,49.94,0,0,0,49.94,49.94h0a49.93,49.93,0,0,0,49.93-49.94V982.59Z"/><path class="cls-31" d="M1835.33,513.74l-18-29.37-18,29.37-31.92-29.37v62.87a49.93,49.93,0,0,0,49.94,49.93h0a49.93,49.93,0,0,0,49.94-49.93V484.37Z"/><path class="cls-11" d="M1817.31,597.17V709.39a56.26,56.26,0,0,1-56.26,56.26h-126.4"/><circle class="cls-67" cx="1702.44" cy="765.65" r="13.17"/><circle class="cls-67" cx="662.24" cy="948.91" r="13.17"/><circle class="cls-6" cx="1172.02" cy="445.12" r="48.13"/><path class="cls-86" d="M2020.18,780.68h-96.31v16.93l-13,36.07a6.09,6.09,0,0,0,5.73,8.15h7.32v6.08a27.35,27.35,0,0,0,27.34,27.34h3.19v24.58a31.7,31.7,0,0,0,31.7,31.7h0a31.7,31.7,0,0,0,31.7-31.7V848.21a40.53,40.53,0,0,0,2.38-13.72Z"/><path class="cls-11" d="M2020.18,780.68h-96.31v16.93l-13,36.07a6.09,6.09,0,0,0,5.73,8.15h7.32v6.08a27.35,27.35,0,0,0,27.34,27.34h3.19v24.58a31.7,31.7,0,0,0,31.7,31.7h0a31.7,31.7,0,0,0,31.7-31.7V848.21a40.53,40.53,0,0,0,2.38-13.72Z"/><path class="cls-51" d="M1954.4,819.22a7.21,7.21,0,0,0-14.41,0"/><polyline class="cls-51" points="1941.61 840.31 1969.54 840.31 1949.25 855.6"/><path class="cls-24" d="M1996.66,815.62h16.16A16.17,16.17,0,0,1,2029,831.79h0A16.17,16.17,0,0,1,2012.82,848h-16.16"/><path class="cls-2" d="M1974,791.26h48.8a0,0,0,0,1,0,0v24.36a0,0,0,0,1,0,0H1990a16,16,0,0,1-16-16v-8.4A0,0,0,0,1,1974,791.26Z"/><path class="cls-27" d="M2012.33,752.48h-.3V729A19.93,19.93,0,0,0,1992.1,709H1952A19.93,19.93,0,0,0,1932,729v23.51h-.3l-30,38.78h140.61Z"/><path class="cls-11" d="M2012.33,752.48h-.3V729A19.93,19.93,0,0,0,1992.1,709H1952A19.93,19.93,0,0,0,1932,729v23.51h-.3l-30,38.78h140.61Z"/><rect class="cls-7" x="2018.27" y="885.53" width="61.05" height="50.41"/><rect class="cls-7" x="2018.27" y="935.95" width="61.05" height="50.41"/><rect class="cls-7" x="2018.27" y="986.36" width="61.05" height="50.41"/><rect class="cls-7" x="1897.45" y="885.53" width="56.67" height="50.41"/><rect class="cls-7" x="1897.45" y="935.95" width="56.67" height="50.41"/><rect class="cls-7" x="1897.45" y="986.36" width="56.67" height="50.41"/><rect class="cls-87" x="1762.97" y="815.6" width="18.55" height="37.3" rx="8.7"/><rect class="cls-87" x="1781.52" y="815.6" width="18.55" height="37.3" rx="8.7"/><rect class="cls-87" x="1800.07" y="815.6" width="18.55" height="37.3" rx="8.7"/><rect class="cls-87" x="1818.61" y="815.6" width="18.55" height="37.3" rx="8.7"/><rect class="cls-87" x="1811.7" y="846.7" width="20.33" height="34.5" rx="10.17" transform="translate(2685.82 -957.91) rotate(90)"/><polygon class="cls-41" points="686.11 898.26 686.11 877.07 554.76 877.07 554.76 838.79 686.11 838.79 686.11 817.65 754.11 857.96 686.11 898.26"/><path class="cls-27" d="M876.19,614.68v39h-9.5v-23.4L858,653.71h-7.67l-8.79-23.46v23.46H832v-39h11.23l11,27,10.84-27Z"/><path class="cls-27" d="M915.79,614.68l-13.51,26.13v12.9h-9.5v-12.9l-13.51-26.13h10.78L897.61,631l7.51-16.35Z"/><path class="cls-27" d="M848.74,695.86q5.44-4.5,8.59-7.39a35.82,35.82,0,0,0,5.31-6.07,11,11,0,0,0,2.17-6.17,5.43,5.43,0,0,0-1.06-3.55,3.85,3.85,0,0,0-3.17-1.28,3.93,3.93,0,0,0-3.31,1.58,7.37,7.37,0,0,0-1.19,4.48h-9.17a15.84,15.84,0,0,1,2-7.9,11.83,11.83,0,0,1,5.06-4.67,16,16,0,0,1,7-1.5q6.62,0,10,3.39a12,12,0,0,1,3.36,8.84,17.36,17.36,0,0,1-4,11,59.81,59.81,0,0,1-10.35,9.92h15v7.73H847v-7.06C848.28,696.25,848.85,695.79,848.74,695.86Z"/><path class="cls-27" d="M882.49,669q3.71-5.51,11.93-5.5t11.92,5.5q3.7,5.5,3.7,15.07t-3.7,15.17q-3.69,5.5-11.92,5.51t-11.93-5.51q-3.69-5.49-3.7-15.17T882.49,669Zm17,6.42q-1.23-3-5.06-3t-5.06,3a23.86,23.86,0,0,0-1.23,8.65,35.88,35.88,0,0,0,.45,6.25,8,8,0,0,0,1.81,4,6.07,6.07,0,0,0,8.06,0,7.88,7.88,0,0,0,1.8-4,35.88,35.88,0,0,0,.45-6.25A24.12,24.12,0,0,0,899.48,675.37Z"/><path class="cls-27" d="M850.29,717.72q3.66-3.22,10-3.23a16.09,16.09,0,0,1,7.14,1.45,10.22,10.22,0,0,1,6,9.56,9.18,9.18,0,0,1-6.11,9.12v.22a10,10,0,0,1,5,3.5,10.22,10.22,0,0,1,1.84,6.28,11.57,11.57,0,0,1-1.59,6.09,10.77,10.77,0,0,1-4.61,4.14,16.07,16.07,0,0,1-7.2,1.5q-6.68,0-10.65-3.28t-4.2-9.89h9.23a5.6,5.6,0,0,0,1.39,3.86,5.08,5.08,0,0,0,3.89,1.42,4.46,4.46,0,0,0,3.37-1.25A4.62,4.62,0,0,0,865,743.9a4.38,4.38,0,0,0-1.69-3.86q-1.69-1.2-5.42-1.2h-1.78v-7.73h1.78a9.35,9.35,0,0,0,4.58-1,3.62,3.62,0,0,0,1.75-3.47,4.22,4.22,0,0,0-1.11-3.12,4.13,4.13,0,0,0-3.05-1.11,3.82,3.82,0,0,0-3.15,1.28,5.76,5.76,0,0,0-1.19,3.17h-9.29Q846.62,720.94,850.29,717.72Z"/><path class="cls-27" d="M882.49,720.11q3.71-5.5,11.93-5.51t11.92,5.51q3.7,5.49,3.7,15.06t-3.7,15.18q-3.69,5.5-11.92,5.5t-11.93-5.5q-3.69-5.51-3.69-15.18T882.49,720.11Zm17,6.42q-1.23-3-5.06-3t-5.06,3a23.87,23.87,0,0,0-1.22,8.64,36.13,36.13,0,0,0,.44,6.26,8,8,0,0,0,1.81,4,6.07,6.07,0,0,0,8.06,0,8,8,0,0,0,1.81-4,37.16,37.16,0,0,0,.44-6.26A24.09,24.09,0,0,0,899.48,726.53Z"/><line class="cls-88" x1="843.94" y1="772.86" x2="915.72" y2="772.86"/><line class="cls-88" x1="827.81" y1="598.49" x2="918.93" y2="598.49"/><path class="cls-20" d="M1874.35,421.8h117.19a40.61,40.61,0,0,0,40.61-40.61V281h-48.8v75.69h-109"/><path class="cls-7" d="M1983.35,225h16.14a32.66,32.66,0,0,1,32.66,32.66V281a0,0,0,0,1,0,0h-48.8a0,0,0,0,1,0,0V225A0,0,0,0,1,1983.35,225Z"/><rect class="cls-12" x="1938.58" y="422.12" width="128.72" height="42.74"/><rect class="cls-12" x="1938.58" y="507.6" width="128.72" height="40.97"/><rect class="cls-12" x="1901.2" y="464.86" width="101.32" height="42.74"/><rect class="cls-12" x="2001.98" y="464.86" width="88.72" height="42.74"/><ellipse class="cls-89" cx="1934.42" cy="656.6" rx="17.77" ry="12.8"/><ellipse class="cls-89" cx="1999.82" cy="613.86" rx="17.77" ry="12.8"/><polyline class="cls-90" points="2017.59 614.98 2017.59 531.76 1952.2 570.53 1952.2 656.61"/><circle class="cls-67" cx="2068.25" cy="1074.35" r="13.17"/><circle class="cls-32" cx="701.53" cy="245.52" r="31.73"/><path class="cls-91" d="M1516.73,240a12.8,12.8,0,0,0-18.12,0l-9,9.05L1480.5,240a12.81,12.81,0,0,0-18.11,18.11l9.06,9.05,18.11,18.11,27.17-27.16A12.81,12.81,0,0,0,1516.73,240Z"/><circle class="cls-7" cx="496.28" cy="53.25" r="33.26"/><circle class="cls-7" cx="557.47" cy="101.02" r="69.94"/><path class="cls-7" d="M470.44,203.88H644.51a39.26,39.26,0,0,1,39.26,39.26v80.61a0,0,0,0,1,0,0H431.18a0,0,0,0,1,0,0V243.14A39.26,39.26,0,0,1,470.44,203.88Z"/><path class="cls-32" d="M581.5,203.88V167H532.89v36.93H487c0,25.12,31.43,46.44,70.19,46.44s70.2-21.32,70.2-46.44Z"/><path class="cls-32" d="M528,91.29h59a15.88,15.88,0,0,1,15.88,15.88v29.52a45.4,45.4,0,0,1-45.4,45.4h0a45.4,45.4,0,0,1-45.4-45.4V107.17A15.88,15.88,0,0,1,528,91.29Z"/><path class="cls-51" d="M585.6,115.25a10.2,10.2,0,0,1-20.4,0"/><path class="cls-51" d="M549.37,115.25a10.2,10.2,0,0,1-20.4,0"/><path class="cls-51" d="M538.9,151.83c0,4.89,8.32,8.86,18.57,8.86s18.58-4,18.58-8.86"/><path class="cls-51" d="M567.13,141.6c0-3.27-4.32-5.92-9.66-5.92s-9.65,2.65-9.65,5.92"/><path class="cls-7" d="M470.43,263.81H373.91a65.05,65.05,0,0,1-65.06-65.05V102.23h59.94V203.88H470.43"/><polygon class="cls-92" points="589.66 353.79 589.66 337.79 523.06 337.79 523.06 308.88 589.66 308.88 589.66 292.91 641.01 323.35 589.66 353.79"/><path class="cls-27" d="M390.18,232.65h0a53.65,53.65,0,0,0-42.41-20.81H93L59.08,169.16H36v42.68h0A55.26,55.26,0,0,0,91.26,267.1h282A21.37,21.37,0,0,0,390.18,232.65Z"/><g class="cls-93"><path class="cls-94" d="M394.49,249H92.68a36.34,36.34,0,0,1-32.32-19.71L58,224.75"/></g><path class="cls-95" d="M390.18,232.65h0a53.65,53.65,0,0,0-42.41-20.81H93L59.08,169.16H36v42.68h0A55.26,55.26,0,0,0,91.26,267.1h282A21.37,21.37,0,0,0,390.18,232.65Z"/><line class="cls-96" x1="331.05" y1="230.86" x2="111.41" y2="230.86"/><line class="cls-75" x1="344.54" y1="230.86" x2="390.18" y2="230.86"/><path class="cls-8" d="M5,189.13H46.45a15.71,15.71,0,0,1,15.71,15.71v0a0,0,0,0,1,0,0H20.71A15.71,15.71,0,0,1,5,189.13v0a0,0,0,0,1,0,0Z"/><path class="cls-8" d="M154.6,250h92.59a0,0,0,0,1,0,0v26.93a0,0,0,0,1,0,0H154.6a13.46,13.46,0,0,1-13.46-13.46v0A13.46,13.46,0,0,1,154.6,250Z"/><rect class="cls-97" x="305.27" y="19.99" width="98.71" height="133.02"/><rect class="cls-67" x="290.72" y="19.99" width="98.71" height="133.02"/><path class="cls-98" d="M293.93,20H374.7a0,0,0,0,1,0,0V153a0,0,0,0,1,0,0H293.93A17.94,17.94,0,0,1,276,135.07V37.93A17.94,17.94,0,0,1,293.93,20Z"/><path class="cls-99" d="M358.07,86.5A32.73,32.73,0,1,1,299,67.07a33.15,33.15,0,0,1,4.59-5,32.74,32.74,0,0,1,43.48,0,33.26,33.26,0,0,1,4.6,5A32.58,32.58,0,0,1,358.07,86.5Z"/><path class="cls-99" d="M347.08,62a32.74,32.74,0,0,1-43.48,0,32.74,32.74,0,0,1,43.48,0Z"/><path class="cls-99" d="M347.08,111a32.74,32.74,0,0,0-43.48,0,32.74,32.74,0,0,0,43.48,0Z"/><ellipse class="cls-99" cx="325.34" cy="86.5" rx="14.74" ry="32.72"/><line class="cls-99" x1="292.61" y1="86.5" x2="358.07" y2="86.5"/><path class="cls-2" d="M686.89,115.25h70.56a0,0,0,0,1,0,0v83.47a0,0,0,0,1,0,0H664.56a21.08,21.08,0,0,1-21.08-21.08v-19A43.41,43.41,0,0,1,686.89,115.25Z"/><path class="cls-32" d="M700.75,155.14h12.91A45.35,45.35,0,0,1,759,200.48v0a45.35,45.35,0,0,1-45.35,45.35H700.75a42.39,42.39,0,0,1-42.39-42.39v-5.92A42.39,42.39,0,0,1,700.75,155.14Z" transform="translate(7.72 -25.53) rotate(2.08)"/><path class="cls-32" d="M667.38,188.82H655.72a11.67,11.67,0,0,0-11.67,11.66h0a11.67,11.67,0,0,0,11.67,11.67h11.66"/><path class="cls-51" d="M707.23,196.1a7.88,7.88,0,1,0-15.76,0"/><path class="cls-51" d="M738.72,196.1a7.88,7.88,0,1,0-15.76,0"/><path class="cls-67" d="M694.36,210.93c0,8.28,9.53,15,21.28,15s21.28-6.71,21.28-15Z"/></g></g></svg>