<svg xmlns="http://www.w3.org/2000/svg" xmlns:xlink="http://www.w3.org/1999/xlink" viewBox="0 0 2144.29 1149.42"><defs><style>.cls-1,.cls-10,.cls-51{fill:#017dbc;}.cls-1,.cls-17,.cls-18,.cls-19,.cls-2,.cls-20,.cls-24,.cls-27,.cls-28,.cls-3,.cls-32,.cls-34,.cls-36,.cls-37,.cls-4,.cls-48,.cls-49,.cls-5,.cls-6,.cls-61,.cls-62,.cls-65,.cls-68,.cls-7,.cls-77,.cls-78,.cls-8,.cls-80,.cls-9{stroke:#000;}.cls-1,.cls-12,.cls-14,.cls-15,.cls-17,.cls-18,.cls-2,.cls-20,.cls-22,.cls-24,.cls-27,.cls-28,.cls-3,.cls-31,.cls-32,.cls-34,.cls-35,.cls-36,.cls-37,.cls-4,.cls-46,.cls-48,.cls-49,.cls-5,.cls-51,.cls-52,.cls-55,.cls-56,.cls-58,.cls-6,.cls-61,.cls-62,.cls-65,.cls-66,.cls-67,.cls-68,.cls-7,.cls-70,.cls-71,.cls-73,.cls-74,.cls-77,.cls-78,.cls-8,.cls-9{stroke-linejoin:round;}.cls-1,.cls-14,.cls-17,.cls-18,.cls-2,.cls-22,.cls-24,.cls-28,.cls-3,.cls-32,.cls-34,.cls-36,.cls-4,.cls-48,.cls-49,.cls-5,.cls-56,.cls-6,.cls-7,.cls-77,.cls-8,.cls-9{stroke-width:12px;}.cls-16,.cls-19,.cls-2,.cls-37,.cls-65,.cls-66{fill:#fff;}.cls-3,.cls-41,.cls-74{fill:#ef402c;}.cls-4,.cls-53{fill:#183669;}.cls-5,.cls-59{fill:#289b48;}.cls-25,.cls-6{fill:#269b48;}.cls-29,.cls-7{fill:#f99d26;}.cls-38,.cls-62,.cls-78,.cls-8{fill:#fdb715;}.cls-12,.cls-14,.cls-15,.cls-20,.cls-22,.cls-31,.cls-35,.cls-46,.cls-55,.cls-58,.cls-67,.cls-68,.cls-9{fill:none;}.cls-11{clip-path:url(#clip-path);}.cls-12,.cls-67{stroke:#02aed9;}.cls-12,.cls-15,.cls-19,.cls-20,.cls-31,.cls-35,.cls-46,.cls-51,.cls-52,.cls-55,.cls-58,.cls-61,.cls-62,.cls-65,.cls-71,.cls-74,.cls-80{stroke-width:6px;}.cls-13{fill:#e11584;}.cls-14,.cls-15,.cls-51,.cls-52,.cls-56,.cls-58,.cls-70,.cls-71,.cls-73,.cls-74{stroke:#fff;}.cls-17,.cls-27{fill:#5dbb46;}.cls-18,.cls-57{fill:#c31e33;}.cls-19,.cls-80{stroke-miterlimit:10;}.cls-21{clip-path:url(#clip-path-2);}.cls-22,.cls-35{stroke:#5dbb46;}.cls-23{opacity:0.3;}.cls-24,.cls-52{fill:#02aed9;}.cls-26{clip-path:url(#clip-path-3);}.cls-27{stroke-width:9.34px;}.cls-28{fill:#8f1738;}.cls-30{clip-path:url(#clip-path-4);}.cls-31,.cls-66{stroke:#fdb715;}.cls-32{fill:#48773e;}.cls-33{clip-path:url(#clip-path-5);}.cls-34,.cls-61,.cls-75{fill:#f36d26;}.cls-36,.cls-70,.cls-71{fill:#ef3f2c;}.cls-37,.cls-66,.cls-67,.cls-70{stroke-width:8px;}.cls-39{clip-path:url(#clip-path-6);}.cls-40,.cls-56{fill:#fcb615;}.cls-42{clip-path:url(#clip-path-7);}.cls-43{clip-path:url(#clip-path-8);}.cls-44{clip-path:url(#clip-path-9);}.cls-45{clip-path:url(#clip-path-10);}.cls-46{stroke:#fcb615;}.cls-47{clip-path:url(#clip-path-11);}.cls-48{fill:#ef9b70;}.cls-50{clip-path:url(#clip-path-12);}.cls-54{clip-path:url(#clip-path-13);}.cls-55{stroke:#f99d26;}.cls-58,.cls-71{stroke-linecap:round;}.cls-60{clip-path:url(#clip-path-14);}.cls-63{clip-path:url(#clip-path-15);}.cls-64{clip-path:url(#clip-path-16);}.cls-68,.cls-73{stroke-width:4px;}.cls-69{clip-path:url(#clip-path-17);}.cls-72{fill:#dedede;}.cls-76{clip-path:url(#clip-path-18);}.cls-77{fill:#48773c;}.cls-78{stroke-width:10px;}.cls-79{fill:#cfe576;}.cls-80{fill:url(#linear-gradient);}</style><clipPath id="clip-path" transform="translate(9.97 10.99)"><rect class="cls-1" x="1684.18" y="763.2" width="355.87" height="175.89"/></clipPath><clipPath id="clip-path-2" transform="translate(9.97 10.99)"><path class="cls-1" d="M1971,531.56h95.76a0,0,0,0,1,0,0v114a0,0,0,0,1,0,0H1942a0,0,0,0,1,0,0V560.63A29.08,29.08,0,0,1,1971,531.56Z"/></clipPath><clipPath id="clip-path-3" transform="translate(9.97 10.99)"><circle class="cls-6" cx="493.32" cy="145.26" r="67.53"/></clipPath><clipPath id="clip-path-4" transform="translate(9.97 10.99)"><path class="cls-7" d="M787.72,589.17H862A124.79,124.79,0,0,1,986.84,714v0a0,0,0,0,1,0,0H787.72a0,0,0,0,1,0,0V589.17A0,0,0,0,1,787.72,589.17Z"/></clipPath><clipPath id="clip-path-5" transform="translate(9.97 10.99)"><path class="cls-2" d="M871.68,714.56h277.94a0,0,0,0,1,0,0V917.32a52.07,52.07,0,0,1-52.07,52.07H726.65a0,0,0,0,1,0,0V859.59a145,145,0,0,1,145-145Z" transform="translate(1876.28 1683.95) rotate(180)"/></clipPath><clipPath id="clip-path-6" transform="translate(9.97 10.99)"><path class="cls-8" d="M40.3,909.56H213.46a77.22,77.22,0,0,1,77.22,77.22v105.29a0,0,0,0,1,0,0H40.3a0,0,0,0,1,0,0V909.56A0,0,0,0,1,40.3,909.56Z"/></clipPath><clipPath id="clip-path-7" transform="translate(9.97 10.99)"><rect class="cls-3" x="584.33" y="498.16" width="162.92" height="120.03"/></clipPath><clipPath id="clip-path-8" transform="translate(9.97 10.99)"><path class="cls-8" d="M746.17,250.94v62.44H586.85V250.94a11.41,11.41,0,0,1,13.42-11.23l21.8,3.9a11.41,11.41,0,0,0,13.42-11.23h0A11.41,11.41,0,0,1,646.9,221h39.22a11.41,11.41,0,0,1,11.41,11.41h0A11.41,11.41,0,0,0,711,243.61l21.8-3.9A11.41,11.41,0,0,1,746.17,250.94Z"/></clipPath><clipPath id="clip-path-9" transform="translate(9.97 10.99)"><path class="cls-3" d="M540.76,498.15A66.8,66.8,0,0,0,474,565V591.5H415.64v75H474v0h66.8V498.15Z"/></clipPath><clipPath id="clip-path-10" transform="translate(9.97 10.99)"><polygon class="cls-1" points="382.42 134.54 134.13 134.54 227.97 215.27 476.25 215.27 382.42 134.54"/></clipPath><clipPath id="clip-path-11" transform="translate(9.97 10.99)"><path class="cls-2" d="M1078.89,679.6V828.14h101.38V679.6A50.62,50.62,0,0,0,1129.65,629h-.13a50.61,50.61,0,0,0-50.63,50.62Z"/></clipPath><clipPath id="clip-path-12" transform="translate(9.97 10.99)"><rect class="cls-3" x="790.82" y="498.15" width="212.83" height="93.78"/></clipPath><clipPath id="clip-path-13" transform="translate(9.97 10.99)"><rect class="cls-4" x="1291.04" y="775.31" width="250.08" height="134.64"/></clipPath><clipPath id="clip-path-14" transform="translate(9.97 10.99)"><path class="cls-5" d="M1926.27,976.66s57.64-7,88.88,24.23,24.23,88.88,24.23,88.88-57.64,7-88.88-24.23S1926.27,976.66,1926.27,976.66Z"/></clipPath><clipPath id="clip-path-15" transform="translate(9.97 10.99)"><circle class="cls-6" cx="73.53" cy="610.09" r="67.53"/></clipPath><clipPath id="clip-path-16" transform="translate(9.97 10.99)"><ellipse class="cls-2" cx="1301.04" cy="52.94" rx="64.8" ry="35.29"/></clipPath><clipPath id="clip-path-17" transform="translate(9.97 10.99)"><path class="cls-5" d="M1720.57,277.13a109.52,109.52,0,0,0,219,0Z"/></clipPath><clipPath id="clip-path-18" transform="translate(9.97 10.99)"><circle class="cls-6" cx="1353.69" cy="1002.69" r="67.53"/></clipPath><linearGradient id="linear-gradient" x1="1536.09" y1="367.03" x2="1497.65" y2="328.59" gradientUnits="userSpaceOnUse"><stop offset="0.66" stop-color="#8f1738"/><stop offset="1" stop-color="#fdb715"/></linearGradient></defs><g id="Layer_2" data-name="Layer 2"><g id="sdg2_v2" data-name="sdg2 v2"><rect class="cls-9" x="50.27" y="102.8" width="2000.63" height="1000.26"/><polyline class="cls-9" points="1842.27 722.48 1842.27 324.37 1309.21 324.37 1309.21 158.55"/><rect class="cls-10" x="1694.15" y="774.19" width="355.87" height="175.89"/><g class="cls-11"><path class="cls-12" d="M2134.32,817.74c-23.78,0-23.78-20-47.57-20s-23.78,20-47.57,20-23.78-20-47.57-20-23.78,20-47.57,20-23.78-20-47.57-20-23.78,20-47.57,20-23.78-20-47.57-20-23.78,20-47.57,20-23.78-20-47.57-20-23.78,20-47.57,20-23.79-20-47.58-20-23.79,20-47.57,20" transform="translate(9.97 10.99)"/><path class="cls-12" d="M2134.32,848.66c-23.78,0-23.78-20-47.57-20s-23.78,20-47.57,20-23.78-20-47.57-20-23.78,20-47.57,20-23.78-20-47.57-20-23.78,20-47.57,20-23.78-20-47.57-20-23.78,20-47.57,20-23.78-20-47.57-20-23.78,20-47.57,20-23.79-20-47.58-20-23.79,20-47.57,20" transform="translate(9.97 10.99)"/><path class="cls-12" d="M2134.32,879.58c-23.78,0-23.78-20-47.57-20s-23.78,20-47.57,20-23.78-20-47.57-20-23.78,20-47.57,20-23.78-20-47.57-20-23.78,20-47.57,20-23.78-20-47.57-20-23.78,20-47.57,20-23.78-20-47.57-20-23.78,20-47.57,20-23.79-20-47.58-20-23.79,20-47.57,20" transform="translate(9.97 10.99)"/><path class="cls-12" d="M2134.32,910.5c-23.78,0-23.78-20-47.57-20s-23.78,20-47.57,20-23.78-20-47.57-20-23.78,20-47.57,20-23.78-20-47.57-20-23.78,20-47.57,20-23.78-20-47.57-20-23.78,20-47.57,20-23.78-20-47.57-20-23.78,20-47.57,20-23.79-20-47.58-20-23.79,20-47.57,20" transform="translate(9.97 10.99)"/><path class="cls-12" d="M2134.32,941.42c-23.78,0-23.78-20-47.57-20s-23.78,20-47.57,20-23.78-20-47.57-20-23.78,20-47.57,20-23.78-20-47.57-20-23.78,20-47.57,20-23.78-20-47.57-20-23.78,20-47.57,20-23.78-20-47.57-20-23.78,20-47.57,20-23.79-20-47.58-20-23.79,20-47.57,20" transform="translate(9.97 10.99)"/></g><rect class="cls-9" x="1694.15" y="774.19" width="355.87" height="175.89"/><rect class="cls-5" x="1452.45" y="102.78" width="595.28" height="152.03"/><path class="cls-13" d="M1615.35,469.88V629H1381.81a91.1,91.1,0,0,0-91.1,91.09v85.15h250.48V705.15h150.33V469.88Z" transform="translate(9.97 10.99)"/><path class="cls-9" d="M1615.35,469.88V629H1381.81a91.1,91.1,0,0,0-91.1,91.09v85.15h250.48V705.15h150.33V469.88Z" transform="translate(9.97 10.99)"/><line class="cls-14" x1="1780.69" y1="141" x2="1780.69" y2="233.44"/><path class="cls-15" d="M1793.33,59.42v46.23a22.62,22.62,0,0,1-45.23,0V59.42" transform="translate(9.97 10.99)"/><line class="cls-15" x1="1787.34" y1="134.01" x2="1787.34" y2="60.41"/><line class="cls-15" x1="1774.04" y1="134.01" x2="1774.04" y2="60.41"/><path class="cls-16" d="M1793.33,105.65a22.62,22.62,0,0,1-45.23,0Z" transform="translate(9.97 10.99)"/><rect class="cls-16" x="1758.07" y="104.83" width="45.23" height="11.81"/><path class="cls-7" d="M1931.86,565.61l-57.08-17.08c-22.56-6.74-36-28.5-30-48.59h0l97.94,29.29Z" transform="translate(9.97 10.99)"/><path class="cls-1" d="M1905,557.7l10.84-36.24,78.52,23.35h0a37.83,37.83,0,0,1-47.08,25.4Z" transform="translate(9.97 10.99)"/><path class="cls-17" d="M2033.36,516.86h51.06a51.44,51.44,0,0,1,51.44,51.44v94.77A25.94,25.94,0,0,1,2109.91,689h-76.55a0,0,0,0,1,0,0V516.86A0,0,0,0,1,2033.36,516.86Z"/><path class="cls-7" d="M2103.87,585.43V645c0,23.55-17,42.64-38,42.64h0V585.43Z" transform="translate(9.97 10.99)"/><rect class="cls-3" x="1952.14" y="656.5" width="124.63" height="108.58"/><rect class="cls-3" x="2013.63" y="656.5" width="63.14" height="108.58"/><path class="cls-7" d="M1959.91,445.77h117.86a0,0,0,0,1,0,0v28.66a68.12,68.12,0,0,1-68.12,68.12h0a49.74,49.74,0,0,1-49.74-49.74v-47A0,0,0,0,1,1959.91,445.77Z"/><path class="cls-1" d="M1907.2,415.85h169.57a0,0,0,0,1,0,0v29.93a0,0,0,0,1,0,0H1937.13a29.93,29.93,0,0,1-29.93-29.93v0A0,0,0,0,1,1907.2,415.85Z"/><rect class="cls-1" x="1958.91" y="349.36" width="117.86" height="66.49"/><rect class="cls-3" x="2041.49" y="349.36" width="35.29" height="66.49"/><path class="cls-18" d="M2047.73,445.77h21.4a36.51,36.51,0,0,1,36.51,36.51V516a0,0,0,0,1,0,0h-21.4a36.51,36.51,0,0,1-36.51-36.51V445.77A0,0,0,0,1,2047.73,445.77Z"/><path class="cls-19" d="M1970.57,495.6c0,6.86,10.16,12.43,22.69,12.43S2016,502.46,2016,495.6Z" transform="translate(9.97 10.99)"/><path class="cls-20" d="M1988.47,467.75a11.86,11.86,0,1,1,23.71,0" transform="translate(9.97 10.99)"/><path class="cls-20" d="M1948.94,467.75a11.86,11.86,0,0,1,23.72,0" transform="translate(9.97 10.99)"/><path class="cls-20" d="M1972,483.67a9.23,9.23,0,1,1,18.45,0" transform="translate(9.97 10.99)"/><path class="cls-7" d="M2031.52,459.21h13.11a15,15,0,0,1,15,15h0a15,15,0,0,1-15,15h-13.11" transform="translate(9.97 10.99)"/><path class="cls-10" d="M1981,542.55h95.76a0,0,0,0,1,0,0v114a0,0,0,0,1,0,0H1951.94a0,0,0,0,1,0,0V571.63A29.08,29.08,0,0,1,1981,542.55Z"/><g class="cls-21"><rect class="cls-7" x="1991.92" y="520.12" width="44.87" height="59.53" rx="19.64"/><line class="cls-22" x1="2057.32" y1="656.5" x2="2057.32" y2="542.55"/><line class="cls-22" x1="1971.39" y1="656.5" x2="1971.39" y2="542.55"/></g><path class="cls-9" d="M1981,542.55h95.76a0,0,0,0,1,0,0v114a0,0,0,0,1,0,0H1951.94a0,0,0,0,1,0,0V571.63A29.08,29.08,0,0,1,1981,542.55Z"/><path class="cls-1" d="M2066,531.56h37.83a0,0,0,0,1,0,0v70.88a0,0,0,0,1,0,0h0A37.83,37.83,0,0,1,2066,564.61V531.56A0,0,0,0,1,2066,531.56Z" transform="translate(4179.89 1144.99) rotate(-180)"/><g class="cls-23"><path d="M1943.38,439.15h128.43A23.85,23.85,0,0,1,2095.67,463v26.26l-152.29-49.11Z" transform="translate(9.97 10.99)"/></g><path class="cls-2" d="M1963.36,765.09h50.27a0,0,0,0,1,0,0V801.6a0,0,0,0,1,0,0h-86.78a0,0,0,0,1,0,0v0A36.52,36.52,0,0,1,1963.36,765.09Z"/><path class="cls-2" d="M2026.48,765.09h50.27a0,0,0,0,1,0,0V801.6a0,0,0,0,1,0,0H1990a0,0,0,0,1,0,0v0A36.52,36.52,0,0,1,2026.48,765.09Z"/><path class="cls-9" d="M1301,608.82h-62.61A31.85,31.85,0,0,1,1206.57,577V213.72a42.87,42.87,0,0,0-42.87-42.88H699.35a33.56,33.56,0,0,0-33.56,33.56V286" transform="translate(9.97 10.99)"/><path class="cls-9" d="M384,591.36V383.65a54.81,54.81,0,0,1,54.81-54.81" transform="translate(9.97 10.99)"/><rect class="cls-24" x="50.63" y="102.8" width="452.66" height="120.98"/><rect class="cls-18" x="486.41" y="183.32" width="33.76" height="157.05"/><circle class="cls-25" cx="503.29" cy="156.26" r="67.53"/><g class="cls-26"><rect class="cls-27" x="424.46" y="42.32" width="78.83" height="211.43"/><line class="cls-9" x1="503.29" y1="223.79" x2="503.29" y2="88.73"/><line class="cls-20" x1="503.29" y1="153.49" x2="570.82" y2="120.21"/><line class="cls-20" x1="501.62" y1="192.3" x2="569.15" y2="159.02"/><line class="cls-20" x1="503.29" y1="153.49" x2="435.76" y2="120.21"/><line class="cls-20" x1="504.96" y1="192.3" x2="437.43" y2="159.02"/></g><circle class="cls-9" cx="503.29" cy="156.26" r="67.53"/><rect class="cls-24" x="789.75" y="102.8" width="207.06" height="79.03"/><polygon class="cls-28" points="1159.57 78.43 1071.6 47.46 983.63 78.43 983.63 181.69 1159.57 181.69 1159.57 78.43"/><rect class="cls-15" x="1035.28" y="98.79" width="72.65" height="53.06"/><line class="cls-15" x1="1035.28" y1="151.85" x2="1107.92" y2="98.79"/><line class="cls-15" x1="1107.92" y1="151.85" x2="1035.28" y2="98.79"/><polyline class="cls-14" points="1172.72 62.22 1071.6 25.64 970.48 62.22"/><rect class="cls-28" x="716.63" y="79.75" width="73.12" height="102.09"/><path class="cls-2" d="M743.22,14.66a36.56,36.56,0,0,0-36.56,36.56h73.12A36.56,36.56,0,0,0,743.22,14.66Z" transform="translate(9.97 10.99)"/><g class="cls-23"><polygon points="790.89 183.32 790.89 75.85 792.74 75.85 824.43 183.32 790.89 183.32"/></g><path class="cls-29" d="M797.69,600.16H872A124.79,124.79,0,0,1,996.81,724.95v0a0,0,0,0,1,0,0H797.69a0,0,0,0,1,0,0V600.16A0,0,0,0,1,797.69,600.16Z"/><g class="cls-30"><ellipse class="cls-31" cx="808.65" cy="722.48" rx="158.69" ry="146.16"/><ellipse class="cls-31" cx="804.81" cy="725.55" rx="132.24" ry="122.62"/><circle class="cls-31" cx="804.81" cy="725.55" r="98.98"/><circle class="cls-31" cx="804.81" cy="725.55" r="68.97"/><circle class="cls-31" cx="804.81" cy="725.55" r="42.52"/></g><path class="cls-9" d="M797.69,600.16H872A124.79,124.79,0,0,1,996.81,724.95v0a0,0,0,0,1,0,0H797.69a0,0,0,0,1,0,0V600.16A0,0,0,0,1,797.69,600.16Z"/><path class="cls-5" d="M983.63,181.68h188.48a44.43,44.43,0,0,1,44.43,44.43v73.29a0,0,0,0,1,0,0H1079A95.37,95.37,0,0,1,983.63,204V181.68a0,0,0,0,1,0,0Z"/><rect class="cls-32" x="1801.24" y="985.2" width="250.02" height="117.85"/><path class="cls-7" d="M817.54,326.46H842.2A32.84,32.84,0,0,1,875,359.3v0a0,0,0,0,1,0,0H850.38a32.84,32.84,0,0,1-32.84-32.84v0A0,0,0,0,1,817.54,326.46Z"/><path class="cls-7" d="M897.91,315.47h24.66a0,0,0,0,1,0,0v0a32.84,32.84,0,0,1-32.84,32.84H865.07a0,0,0,0,1,0,0v0A32.84,32.84,0,0,1,897.91,315.47Z" transform="translate(1797.61 674.77) rotate(180)"/><path class="cls-7" d="M865.07,293.27H840.41a32.84,32.84,0,0,1-32.84-32.84h24.66a32.84,32.84,0,0,1,32.84,32.84Z" transform="translate(9.97 10.99)"/><path class="cls-7" d="M865.07,293.27h24.65a32.84,32.84,0,0,0,32.85-32.84H897.91a32.84,32.84,0,0,0-32.84,32.84Z" transform="translate(9.97 10.99)"/><path class="cls-7" d="M865.07,238.23H840.41a32.84,32.84,0,0,1-32.84-32.84h24.66a32.84,32.84,0,0,1,32.84,32.84Z" transform="translate(9.97 10.99)"/><path class="cls-7" d="M865.07,238.23h24.65a32.84,32.84,0,0,0,32.85-32.84H897.91a32.84,32.84,0,0,0-32.84,32.84Z" transform="translate(9.97 10.99)"/><path class="cls-7" d="M817.54,161.34H842.2A32.84,32.84,0,0,1,875,194.18v0a0,0,0,0,1,0,0H850.38a32.84,32.84,0,0,1-32.84-32.84v0A0,0,0,0,1,817.54,161.34Z"/><path class="cls-7" d="M897.91,150.35h24.66a0,0,0,0,1,0,0v0a32.84,32.84,0,0,1-32.84,32.84H865.07a0,0,0,0,1,0,0v0A32.84,32.84,0,0,1,897.91,150.35Z" transform="translate(1797.61 344.53) rotate(180)"/><line class="cls-9" x1="875.04" y1="551.22" x2="875.04" y2="134.51"/><path class="cls-7" d="M883.42,115.25c0-19-18.35-34.46-18.35-34.46s-18.35,15.43-18.35,34.46,18.35,34.45,18.35,34.45S883.42,134.28,883.42,115.25Z" transform="translate(9.97 10.99)"/><rect class="cls-5" x="800.79" y="980.38" width="744.29" height="122.17"/><path class="cls-9" d="M1197.36,1001V878a35.32,35.32,0,0,1,35.32-35.32h132.48" transform="translate(9.97 10.99)"/><path class="cls-16" d="M871.68,714.56h277.94a0,0,0,0,1,0,0V917.32a52.07,52.07,0,0,1-52.07,52.07H726.65a0,0,0,0,1,0,0V859.59a145,145,0,0,1,145-145Z" transform="translate(1886.25 1694.94) rotate(180)"/><g class="cls-33"><circle cx="921.88" cy="710.87" r="72.09"/><circle cx="1115.82" cy="962.16" r="72.09"/><circle cx="797.69" cy="836.41" r="49.38"/><circle cx="881.99" cy="814.42" r="15.08"/><circle cx="1004.08" cy="841.01" r="25.21"/></g><path class="cls-9" d="M871.68,714.56h277.94a0,0,0,0,1,0,0V917.32a52.07,52.07,0,0,1-52.07,52.07H726.65a0,0,0,0,1,0,0V859.59a145,145,0,0,1,145-145Z" transform="translate(1886.25 1694.94) rotate(180)"/><rect class="cls-2" x="50.27" y="226.26" width="187.66" height="126.61"/><rect class="cls-24" x="77.75" y="253.32" width="128.75" height="72.49"/><line class="cls-20" x1="142.12" y1="253.32" x2="142.12" y2="325.81"/><line class="cls-20" x1="77.75" y1="303.45" x2="206.5" y2="303.45"/><rect class="cls-34" x="227.97" y="215.27" width="248.28" height="126.61" transform="translate(714.18 568.13) rotate(180)"/><rect class="cls-32" x="50.42" y="677.48" width="250.08" height="334.32"/><rect class="cls-2" x="300.69" y="677.48" width="250.03" height="49.24"/><rect x="391.78" y="691.39" width="67.85" height="21.42"/><circle cx="480.93" cy="702.1" r="7.68"/><circle cx="370.49" cy="702.1" r="7.68"/><circle cx="341.88" cy="702.1" r="7.68"/><line class="cls-35" x1="407.75" y1="702.1" x2="443.67" y2="702.1"/><rect class="cls-2" x="300.65" y="1011.39" width="250.08" height="91.67"/><rect class="cls-2" x="300.65" y="852.99" width="250.08" height="158.71"/><rect class="cls-36" x="326.84" y="899.81" width="197.69" height="86.8"/><line class="cls-9" x1="349.67" y1="1041.21" x2="501.87" y2="1041.21"/><line class="cls-9" x1="349.67" y1="878.08" x2="501.87" y2="878.08"/><rect class="cls-15" x="352.5" y="920.55" width="146.38" height="45.32"/><line class="cls-15" x1="371.16" y1="920.55" x2="371.16" y2="965.87"/><line class="cls-15" x1="393.11" y1="920.55" x2="393.11" y2="965.87"/><line class="cls-15" x1="415.07" y1="920.55" x2="415.07" y2="965.87"/><line class="cls-15" x1="437.02" y1="920.55" x2="437.02" y2="965.87"/><line class="cls-15" x1="458.98" y1="920.55" x2="458.98" y2="965.87"/><line class="cls-15" x1="480.93" y1="920.55" x2="480.93" y2="965.87"/><rect class="cls-2" x="300.69" y="727.96" width="250.03" height="125.03"/><ellipse class="cls-37" cx="376.45" cy="765.94" rx="30.65" ry="13.75"/><ellipse class="cls-37" cx="476.22" cy="765.94" rx="30.65" ry="13.75"/><ellipse class="cls-37" cx="376.45" cy="813.59" rx="30.65" ry="13.75"/><ellipse class="cls-37" cx="476.22" cy="813.59" rx="30.65" ry="13.75"/><circle cx="509.54" cy="702.1" r="7.68"/><path class="cls-38" d="M50.27,920.55H223.43a77.22,77.22,0,0,1,77.22,77.22v105.29a0,0,0,0,1,0,0H50.27a0,0,0,0,1,0,0V920.55A0,0,0,0,1,50.27,920.55Z"/><g class="cls-39"><rect class="cls-16" x="30.48" y="1057.22" width="290.63" height="19.68"/><rect class="cls-16" x="30.48" y="940.24" width="290.63" height="19.68"/><rect class="cls-16" x="30.48" y="998.73" width="290.63" height="19.68"/></g><path class="cls-9" d="M50.27,920.55H223.43a77.22,77.22,0,0,1,77.22,77.22v105.29a0,0,0,0,1,0,0H50.27a0,0,0,0,1,0,0V920.55A0,0,0,0,1,50.27,920.55Z"/><path class="cls-40" d="M216.46,740.91V736.8H127.37V924.46a27.46,27.46,0,0,0,27.46,27.47h0a27.47,27.47,0,0,0,27.47-27.47V842.63h5.49A28.67,28.67,0,0,0,216.46,814V798.29h18Z" transform="translate(9.97 10.99)"/><path class="cls-9" d="M216.46,740.91V736.8H127.37V924.46a27.46,27.46,0,0,0,27.46,27.47h0a27.47,27.47,0,0,0,27.47-27.47V842.63h5.49A28.67,28.67,0,0,0,216.46,814V798.29h18Z" transform="translate(9.97 10.99)"/><path class="cls-41" d="M228.37,691.11H119.61A79.31,79.31,0,0,0,40.3,770.42V929.89a43.53,43.53,0,0,0,43.53,43.53h0a43.53,43.53,0,0,0,43.54-43.53V736.8h101a21,21,0,0,0,21-21v-3.69A21,21,0,0,0,228.37,691.11Z" transform="translate(9.97 10.99)"/><path class="cls-9" d="M228.37,691.11H119.61A79.31,79.31,0,0,0,40.3,770.42V929.89a43.53,43.53,0,0,0,43.53,43.53h0a43.53,43.53,0,0,0,43.54-43.53V736.8h101a21,21,0,0,0,21-21v-3.69A21,21,0,0,0,228.37,691.11Z" transform="translate(9.97 10.99)"/><path class="cls-20" d="M194,773.88a11.67,11.67,0,0,0-23.33,0" transform="translate(9.97 10.99)"/><polyline class="cls-20" points="206.94 819.9 175.46 819.9 202.25 839.03"/><rect class="cls-1" x="550.73" y="769.04" width="125.03" height="242.35"/><rect class="cls-1" x="675.8" y="769.04" width="125.03" height="242.35"/><polygon class="cls-28" points="675.76 1142.42 512.84 1142.42 550.73 1103.06 550.73 1011.39 675.76 1011.39 675.76 1142.42"/><polygon class="cls-28" points="675.76 1142.42 838.68 1142.42 800.79 1103.06 800.79 1011.39 675.76 1011.39 675.76 1142.42"/><polyline class="cls-1" points="800.79 841.01 800.79 509.15 550.73 509.15 550.73 841.01"/><circle class="cls-37" cx="300.65" cy="1103.74" r="13.17"/><path class="cls-5" d="M50.42,509.16H233.56A66.94,66.94,0,0,1,300.5,576.1V677.48a0,0,0,0,1,0,0H50.42a0,0,0,0,1,0,0V509.16A0,0,0,0,1,50.42,509.16Z"/><rect class="cls-41" x="594.3" y="509.16" width="162.92" height="120.03"/><g class="cls-42"><line class="cls-15" x1="532.69" y1="420.65" x2="532.69" y2="717.7"/><line class="cls-15" x1="589.92" y1="420.65" x2="589.92" y2="717.7"/><line class="cls-15" x1="647.15" y1="420.65" x2="647.15" y2="717.7"/><line class="cls-15" x1="704.37" y1="420.65" x2="704.37" y2="717.7"/><line class="cls-15" x1="761.6" y1="420.65" x2="761.6" y2="717.7"/><line class="cls-15" x1="818.82" y1="420.65" x2="818.82" y2="717.7"/><line class="cls-15" x1="527.23" y1="712.24" x2="824.28" y2="712.24"/><line class="cls-15" x1="527.23" y1="655.01" x2="824.28" y2="655.01"/><line class="cls-15" x1="527.23" y1="597.79" x2="824.28" y2="597.79"/><line class="cls-15" x1="527.23" y1="540.56" x2="824.28" y2="540.56"/><line class="cls-15" x1="527.23" y1="483.33" x2="824.28" y2="483.34"/><line class="cls-15" x1="527.23" y1="426.11" x2="824.28" y2="426.11"/></g><rect class="cls-9" x="594.3" y="509.16" width="162.92" height="120.03"/><path class="cls-29" d="M603.27,341.87V431a30,30,0,0,0,29.32,30v37.18l33.2,50.21,34.64-50.21V341.87Z" transform="translate(9.97 10.99)"/><path class="cls-9" d="M603.27,341.87V431a30,30,0,0,0,29.32,30v37.18l33.2,50.21,34.64-50.21V341.87Z" transform="translate(9.97 10.99)"/><path class="cls-8" d="M550.73,324.37H800.79a0,0,0,0,1,0,0v0a28.5,28.5,0,0,1-28.5,28.5H579.22a28.5,28.5,0,0,1-28.5-28.5v0a0,0,0,0,1,0,0Z"/><path class="cls-38" d="M746.17,250.94v62.44H586.85V250.94a11.41,11.41,0,0,1,13.42-11.23l21.8,3.9a11.41,11.41,0,0,0,13.42-11.23h0A11.41,11.41,0,0,1,646.9,221h39.22a11.41,11.41,0,0,1,11.41,11.41h0A11.41,11.41,0,0,0,711,243.61l21.8-3.9A11.41,11.41,0,0,1,746.17,250.94Z" transform="translate(9.97 10.99)"/><g class="cls-43"><rect class="cls-41" x="596.82" y="297.04" width="156.37" height="27.33"/></g><path class="cls-9" d="M746.17,250.94v62.44H586.85V250.94a11.41,11.41,0,0,1,13.42-11.23l21.8,3.9a11.41,11.41,0,0,0,13.42-11.23h0A11.41,11.41,0,0,1,646.9,221h39.22a11.41,11.41,0,0,1,11.41,11.41h0A11.41,11.41,0,0,0,711,243.61l21.8-3.9A11.41,11.41,0,0,1,746.17,250.94Z" transform="translate(9.97 10.99)"/><path class="cls-7" d="M609.29,404.18H590.12a10.1,10.1,0,0,1-10.1-10.1h0a10.1,10.1,0,0,1,10.1-10.1h19.17" transform="translate(9.97 10.99)"/><path class="cls-20" d="M644.26,377.6a11.67,11.67,0,1,0-23.33,0" transform="translate(9.97 10.99)"/><rect class="cls-1" x="604.32" y="675.08" width="142.88" height="83.82"/><path class="cls-41" d="M540.76,498.15A66.8,66.8,0,0,0,474,565V591.5H415.64v75H474v0h66.8V498.15Z" transform="translate(9.97 10.99)"/><g class="cls-44"><line class="cls-15" x1="345.1" y1="444.79" x2="345.1" y2="741.84"/><line class="cls-15" x1="402.33" y1="444.79" x2="402.33" y2="741.84"/><line class="cls-15" x1="459.56" y1="444.79" x2="459.56" y2="741.84"/><line class="cls-15" x1="516.78" y1="444.79" x2="516.78" y2="741.84"/><line class="cls-15" x1="574.01" y1="444.79" x2="574.01" y2="741.84"/><line class="cls-15" x1="631.24" y1="444.79" x2="631.24" y2="741.84"/><line class="cls-15" x1="339.65" y1="736.38" x2="636.7" y2="736.38"/><line class="cls-15" x1="339.65" y1="679.15" x2="636.7" y2="679.15"/><line class="cls-15" x1="339.65" y1="621.93" x2="636.7" y2="621.93"/><line class="cls-15" x1="339.65" y1="564.7" x2="636.7" y2="564.7"/><line class="cls-15" x1="339.65" y1="507.47" x2="636.7" y2="507.47"/><line class="cls-15" x1="339.65" y1="450.25" x2="636.7" y2="450.25"/></g><path class="cls-9" d="M540.76,498.15A66.8,66.8,0,0,0,474,565V591.5H415.64v75H474v0h66.8V498.15Z" transform="translate(9.97 10.99)"/><polyline class="cls-5" points="198.34 677.44 425.37 677.44 425.37 602.5 198.34 602.5"/><path class="cls-7" d="M1074.59,532.7h71.06a11.41,11.41,0,0,1,11.41,11.41v.53A11.41,11.41,0,0,1,1145.65,556h-71.06a0,0,0,0,1,0,0V532.7A0,0,0,0,1,1074.59,532.7Z"/><path class="cls-7" d="M1074.59,509.35h71.06a11.41,11.41,0,0,1,11.41,11.41v.53a11.41,11.41,0,0,1-11.41,11.41h-71.06a0,0,0,0,1,0,0V509.35A0,0,0,0,1,1074.59,509.35Z"/><path class="cls-7" d="M1074.59,556h71.06a11.41,11.41,0,0,1,11.41,11.41V568a11.41,11.41,0,0,1-11.41,11.41h-71.06a0,0,0,0,1,0,0V556A0,0,0,0,1,1074.59,556Z"/><path class="cls-7" d="M1074.59,579.39h71.06a11.41,11.41,0,0,1,11.41,11.41v.53a11.41,11.41,0,0,1-11.41,11.41h-71.06a0,0,0,0,1,0,0V579.39A0,0,0,0,1,1074.59,579.39Z"/><polyline class="cls-7" points="1102.9 509.35 980.74 509.35 980.74 602.74 1102.9 602.74"/><path class="cls-7" d="M426.09,621.09h59a9.3,9.3,0,0,1,9.3,9.3v.14a9.3,9.3,0,0,1-9.3,9.3h-59a0,0,0,0,1,0,0V621.09A0,0,0,0,1,426.09,621.09Z"/><path class="cls-7" d="M426.09,602.35h59a9.3,9.3,0,0,1,9.3,9.3v.14a9.3,9.3,0,0,1-9.3,9.3h-59a0,0,0,0,1,0,0V602.35A0,0,0,0,1,426.09,602.35Z"/><path class="cls-7" d="M426.09,639.82h59a9.3,9.3,0,0,1,9.3,9.3v.14a9.3,9.3,0,0,1-9.3,9.3h-59a0,0,0,0,1,0,0V639.82A0,0,0,0,1,426.09,639.82Z"/><path class="cls-7" d="M426.09,658.55h59a9.3,9.3,0,0,1,9.3,9.3V668a9.3,9.3,0,0,1-9.3,9.3h-59a0,0,0,0,1,0,0V658.55a0,0,0,0,1,0,0Z"/><polyline class="cls-7" points="449.53 602.36 394.31 602.36 394.31 677.28 449.53 677.28"/><path class="cls-29" d="M240.25,401.78,228,379.67v-37.8H111.72V390h0V498.16l33.2,50.21,34.64-50.21V461H228V417.21h3.22A10.38,10.38,0,0,0,240.25,401.78Z" transform="translate(9.97 10.99)"/><path class="cls-9" d="M240.25,401.78,228,379.67v-37.8H111.72V390h0V498.16l33.2,50.21,34.64-50.21V461H228V417.21h3.22A10.38,10.38,0,0,0,240.25,401.78Z" transform="translate(9.97 10.99)"/><path class="cls-20" d="M179.56,372.32a11.67,11.67,0,0,0,23.33,0" transform="translate(9.97 10.99)"/><path class="cls-38" d="M228,299.15H148.81a37.09,37.09,0,0,0-37.09,37.09V448.75a39,39,0,0,0,39-39V341.87H228Z" transform="translate(9.97 10.99)"/><path class="cls-9" d="M228,299.15H148.81a37.09,37.09,0,0,0-37.09,37.09V448.75a39,39,0,0,0,39-39V341.87H228Z" transform="translate(9.97 10.99)"/><path class="cls-7" d="M156.72,379.55H139.65a14,14,0,0,0-14,14h0a14,14,0,0,0,14,14h17.07" transform="translate(9.97 10.99)"/><path class="cls-24" d="M520.83,316.29H310.61a19.93,19.93,0,0,0-19.93,19.93V551.87l45.15-52.44h185a19.93,19.93,0,0,0,19.93-19.92V336.22A19.94,19.94,0,0,0,520.83,316.29Z" transform="translate(9.97 10.99)"/><polygon class="cls-3" points="144.1 145.53 50.63 226.26 237.94 226.26 144.1 145.53"/><polygon class="cls-10" points="392.39 145.53 144.1 145.53 237.94 226.26 486.22 226.26 392.39 145.53"/><g class="cls-45"><path class="cls-15" d="M148.89,165.75c17.84,0,17.84,12,35.69,12s17.84-12,35.69-12,17.84,12,35.69,12,17.84-12,35.69-12,17.85,12,35.7,12,17.84-12,35.69-12,17.85,12,35.7,12,17.85-12,35.69-12,17.85,12,35.7,12" transform="translate(9.97 10.99)"/><path class="cls-15" d="M148.89,184.91c17.84,0,17.84,12,35.69,12s17.84-12,35.69-12,17.84,12,35.69,12,17.84-12,35.69-12,17.85,12,35.7,12,17.84-12,35.69-12,17.85,12,35.7,12,17.85-12,35.69-12,17.85,12,35.7,12" transform="translate(9.97 10.99)"/><path class="cls-15" d="M148.89,204.06c17.84,0,17.84,12,35.69,12s17.84-12,35.69-12,17.84,12,35.69,12,17.84-12,35.69-12,17.85,12,35.7,12,17.84-12,35.69-12,17.85,12,35.7,12,17.85-12,35.69-12,17.85,12,35.7,12" transform="translate(9.97 10.99)"/></g><polygon class="cls-9" points="392.39 145.53 144.1 145.53 237.94 226.26 486.22 226.26 392.39 145.53"/><rect class="cls-46" x="351.78" y="272" width="61.44" height="16.09" transform="translate(774.97 571.07) rotate(-180)"/><rect class="cls-46" x="321.06" y="255.91" width="61.44" height="16.09" transform="translate(713.53 538.9) rotate(-180)"/><polyline class="cls-20" points="220.18 437.3 189.7 437.3 216.49 456.43"/><path class="cls-16" d="M1078.89,679.6V828.14h101.38V679.6A50.62,50.62,0,0,0,1129.65,629h-.13a50.61,50.61,0,0,0-50.63,50.62Z" transform="translate(9.97 10.99)"/><g class="cls-47"><circle cx="1070.02" cy="713.15" r="58.74"/><circle cx="1209.22" cy="713.15" r="58.74"/></g><path class="cls-9" d="M1078.89,679.6V828.14h101.38V679.6A50.62,50.62,0,0,0,1129.65,629h-.13a50.61,50.61,0,0,0-50.63,50.62Z" transform="translate(9.97 10.99)"/><path class="cls-48" d="M1129.62,778.48a49.67,49.67,0,0,1,49.67,49.67H1080A49.67,49.67,0,0,1,1129.62,778.48Z" transform="translate(9.97 10.99)"/><path class="cls-16" d="M1094.35,702.16a6.1,6.1,0,0,1,6.1,6.1h-12.2A6.1,6.1,0,0,1,1094.35,702.16Z" transform="translate(9.97 10.99)"/><path class="cls-16" d="M1165,702.16a6.1,6.1,0,0,0-6.1,6.1h12.2A6.1,6.1,0,0,0,1165,702.16Z" transform="translate(9.97 10.99)"/><path d="M1141.9,801.85a8.44,8.44,0,0,1-8.45,8.44V793.4A8.45,8.45,0,0,1,1141.9,801.85Z" transform="translate(9.97 10.99)"/><path d="M1117.34,801.85a8.44,8.44,0,0,0,8.44,8.44V793.4A8.44,8.44,0,0,0,1117.34,801.85Z" transform="translate(9.97 10.99)"/><path class="cls-49" d="M1021.91,648.8h0A47.21,47.21,0,0,1,1069.12,696v0a0,0,0,0,1,0,0h0a47.21,47.21,0,0,1-47.21-47.21v0a0,0,0,0,1,0,0Z" transform="translate(2270.23 419.56) rotate(135)"/><path class="cls-49" d="M1237.39,648.8h0a0,0,0,0,1,0,0v0A47.21,47.21,0,0,1,1190.18,696h0a0,0,0,0,1,0,0v0A47.21,47.21,0,0,1,1237.39,648.8Z" transform="translate(840.94 -650.34) rotate(45)"/><rect class="cls-41" x="800.79" y="509.15" width="212.83" height="93.78"/><g class="cls-50"><line class="cls-15" x1="777.47" y1="382.5" x2="777.47" y2="679.55"/><line class="cls-15" x1="834.7" y1="382.5" x2="834.7" y2="679.55"/><line class="cls-15" x1="891.92" y1="382.5" x2="891.92" y2="679.55"/><line class="cls-15" x1="949.15" y1="382.5" x2="949.15" y2="679.55"/><line class="cls-15" x1="1006.37" y1="382.5" x2="1006.37" y2="679.55"/><line class="cls-15" x1="1063.6" y1="382.5" x2="1063.6" y2="679.55"/><line class="cls-15" x1="772.01" y1="674.09" x2="1069.06" y2="674.09"/><line class="cls-15" x1="772.01" y1="616.86" x2="1069.06" y2="616.86"/><line class="cls-15" x1="772.01" y1="559.64" x2="1069.06" y2="559.64"/><line class="cls-15" x1="772.01" y1="502.41" x2="1069.06" y2="502.41"/><line class="cls-15" x1="772.01" y1="445.18" x2="1069.06" y2="445.18"/><line class="cls-15" x1="772.01" y1="387.96" x2="1069.06" y2="387.96"/></g><rect class="cls-9" x="800.79" y="509.15" width="212.83" height="93.78"/><rect class="cls-2" x="983.63" y="509.15" width="29.99" height="93.78"/><path class="cls-51" d="M270.44,136.88c0-8.6-15.56-24.56-15.56-24.56s-15.57,16-15.57,24.56a15.57,15.57,0,0,0,31.13,0Z" transform="translate(9.97 10.99)"/><path class="cls-51" d="M342.27,136.88c0-8.6-15.56-24.56-15.56-24.56s-15.57,16-15.57,24.56a15.57,15.57,0,0,0,31.13,0Z" transform="translate(9.97 10.99)"/><path class="cls-51" d="M196.82,136.88c0-8.6-15.56-24.56-15.56-24.56s-15.57,16-15.57,24.56a15.57,15.57,0,0,0,31.13,0Z" transform="translate(9.97 10.99)"/><path class="cls-51" d="M233.63,93.31c0-8.59-15.56-24.55-15.56-24.55s-15.57,16-15.57,24.55a15.57,15.57,0,1,0,31.13,0Z" transform="translate(9.97 10.99)"/><path class="cls-51" d="M306.36,93.31c0-8.59-15.57-24.55-15.57-24.55s-15.56,16-15.56,24.55a15.57,15.57,0,1,0,31.13,0Z" transform="translate(9.97 10.99)"/><path class="cls-16" d="M388.35,362.59V403H378.5V378.77l-9,24.23h-8l-9.09-24.29V403h-9.84V362.59h11.62l11.34,28,11.23-28Z" transform="translate(9.97 10.99)"/><path class="cls-16" d="M431.6,362.59l-14,27.06V403h-9.84V389.65l-14-27.06H405l7.83,16.92,7.77-16.92Z" transform="translate(9.97 10.99)"/><path class="cls-16" d="M343.05,446.63q5.64-4.65,8.89-7.65a37.35,37.35,0,0,0,5.5-6.27,11.39,11.39,0,0,0,2.24-6.39,5.64,5.64,0,0,0-1.09-3.69,4,4,0,0,0-3.28-1.32,4.07,4.07,0,0,0-3.43,1.64,7.59,7.59,0,0,0-1.24,4.63h-9.49a16.17,16.17,0,0,1,2.1-8.17,12.2,12.2,0,0,1,5.24-4.84,16.57,16.57,0,0,1,7.22-1.55q6.85,0,10.33,3.51a12.43,12.43,0,0,1,3.48,9.15,18,18,0,0,1-4.2,11.43,62.09,62.09,0,0,1-10.7,10.27h15.54v8h-28.9v-7.31C342.57,447,343.16,446.56,343.05,446.63Z" transform="translate(9.97 10.99)"/><path class="cls-16" d="M380.25,418.78q3.83-5.7,12.34-5.7t12.35,5.7q3.82,5.7,3.83,15.59t-3.83,15.72q-3.82,5.7-12.35,5.7t-12.34-5.7q-3.84-5.7-3.83-15.72T380.25,418.78Zm17.58,6.64q-1.26-3.14-5.24-3.13c-2.64,0-4.39,1-5.23,3.13a24.74,24.74,0,0,0-1.27,8.95,37.4,37.4,0,0,0,.46,6.48,8.27,8.27,0,0,0,1.87,4.14,6.28,6.28,0,0,0,8.35,0,8.27,8.27,0,0,0,1.87-4.14,38.43,38.43,0,0,0,.46-6.48A25,25,0,0,0,397.83,425.42Z" transform="translate(9.97 10.99)"/><path class="cls-16" d="M419.6,416.3q3.81-3.33,10.31-3.34a16.71,16.71,0,0,1,7.39,1.5,10.59,10.59,0,0,1,6.25,9.9,9.52,9.52,0,0,1-6.33,9.44V434a10.39,10.39,0,0,1,5.18,3.63,10.56,10.56,0,0,1,1.9,6.5,12,12,0,0,1-1.64,6.3,11.24,11.24,0,0,1-4.78,4.29,16.57,16.57,0,0,1-7.45,1.55q-6.92,0-11-3.39t-4.34-10.25h9.55a5.8,5.8,0,0,0,1.44,4,5.27,5.27,0,0,0,4,1.47,4.58,4.58,0,0,0,3.48-1.29,4.75,4.75,0,0,0,1.24-3.43,4.54,4.54,0,0,0-1.76-4c-1.17-.82-3-1.24-5.61-1.24h-1.84v-8h1.84a9.77,9.77,0,0,0,4.75-1,3.76,3.76,0,0,0,1.81-3.6,4.37,4.37,0,0,0-1.15-3.23,4.29,4.29,0,0,0-3.16-1.15,3.93,3.93,0,0,0-3.25,1.33,5.87,5.87,0,0,0-1.24,3.28h-9.61Q415.81,419.64,419.6,416.3Z" transform="translate(9.97 10.99)"/><path class="cls-16" d="M455.21,418.78q3.82-5.7,12.35-5.7t12.34,5.7q3.83,5.7,3.83,15.59t-3.83,15.72q-3.82,5.7-12.34,5.7t-12.35-5.7q-3.82-5.7-3.83-15.72T455.21,418.78Zm17.58,6.64c-.84-2.09-2.59-3.13-5.23-3.13s-4.4,1-5.24,3.13a24.74,24.74,0,0,0-1.27,8.95,37.4,37.4,0,0,0,.46,6.48,8.27,8.27,0,0,0,1.87,4.14,6.28,6.28,0,0,0,8.35,0,8.27,8.27,0,0,0,1.87-4.14,37.4,37.4,0,0,0,.46-6.48A24.74,24.74,0,0,0,472.79,425.42Z" transform="translate(9.97 10.99)"/><line class="cls-15" x1="349.81" y1="481.48" x2="494.85" y2="481.48"/><line class="cls-15" x1="348.99" y1="361.38" x2="444.56" y2="361.38"/><path class="cls-52" d="M506.62,337.32a30.19,30.19,0,1,0-48.21,24.21,13.29,13.29,0,0,1,5.4,10.64v4.74h25.25v-4.74a13.08,13.08,0,0,1,5.28-10.55A30.13,30.13,0,0,0,506.62,337.32Z" transform="translate(9.97 10.99)"/><line class="cls-15" x1="470.76" y1="399.57" x2="502.05" y2="399.57"/><line class="cls-15" x1="470.76" y1="411.79" x2="502.05" y2="411.79"/><path class="cls-28" d="M1205.36,1013.69h27.58a0,0,0,0,1,0,0v27.58a27.58,27.58,0,0,1-27.58,27.58h0a27.58,27.58,0,0,1-27.58-27.58v0a27.58,27.58,0,0,1,27.58-27.58Z"/><rect class="cls-28" x="1111.69" y="1103.26" width="187.35" height="40.16" rx="20.08"/><rect class="cls-28" x="1140.77" y="1062.95" width="129.18" height="40.16" rx="20.08"/><path class="cls-3" d="M1136.14,438.12h0a15.57,15.57,0,0,1-15.57-15.56V368.37l28.76,45.92A15.57,15.57,0,0,1,1136.14,438.12Z" transform="translate(9.97 10.99)"/><path class="cls-3" d="M1067.24,271.26a20.4,20.4,0,0,1,40.8,0c0,11.27-20.4,50-20.4,50S1067.24,282.53,1067.24,271.26Z" transform="translate(9.97 10.99)"/><path class="cls-3" d="M1036.61,303.68a20.4,20.4,0,1,1,26.86-30.7c8.48,7.41,24.17,48.24,24.17,48.24S1045.09,311.1,1036.61,303.68Z" transform="translate(9.97 10.99)"/><path class="cls-3" d="M1035.17,308.63a20.4,20.4,0,0,0,6.18,40.32c11.13-1.71,46.29-27.73,46.29-27.73S1046.3,306.92,1035.17,308.63Z" transform="translate(9.97 10.99)"/><polygon class="cls-34" points="1178.12 367.17 1130.97 389.75 1130.97 344.5 1178.12 367.17"/><path class="cls-2" d="M1053.78,377.62V340.53a33.39,33.39,0,0,1,33.39-33.39h0a33.39,33.39,0,0,1,33.4,33.39v46.38h0v6.73a105,105,0,0,1-105,105h0a105,105,0,0,1-105-105v-16Z" transform="translate(9.97 10.99)"/><circle cx="1105.02" cy="355.37" r="7.09"/><path class="cls-2" d="M1015,409.15h1.29a55.26,55.26,0,0,1,55.26,55.26v0a0,0,0,0,1,0,0H959.7a0,0,0,0,1,0,0v0A55.26,55.26,0,0,1,1015,409.15Z" transform="translate(2041.18 884.55) rotate(-180)"/><rect class="cls-53" x="1301.01" y="786.3" width="250.08" height="134.64"/><g class="cls-54"><line class="cls-55" x1="1282.43" y1="813.34" x2="1569.66" y2="813.34"/><line class="cls-55" x1="1282.43" y1="853.65" x2="1569.66" y2="853.65"/><line class="cls-55" x1="1282.43" y1="893.95" x2="1569.66" y2="893.95"/><line class="cls-55" x1="1282.43" y1="934.25" x2="1569.66" y2="934.25"/><line class="cls-55" x1="1282.43" y1="974.56" x2="1569.66" y2="974.56"/><line class="cls-55" x1="1282.43" y1="1014.86" x2="1569.66" y2="1014.86"/><line class="cls-55" x1="1336.96" y1="1055.3" x2="1336.96" y2="768.08"/><line class="cls-55" x1="1372.6" y1="1055.3" x2="1372.6" y2="768.08"/><line class="cls-55" x1="1408.23" y1="1055.3" x2="1408.23" y2="768.08"/><line class="cls-55" x1="1443.86" y1="1055.3" x2="1443.86" y2="768.08"/><line class="cls-55" x1="1479.5" y1="1055.3" x2="1479.5" y2="768.08"/><line class="cls-55" x1="1515.13" y1="1055.3" x2="1515.13" y2="768.08"/></g><rect class="cls-9" x="1301.01" y="786.3" width="250.08" height="134.64"/><circle class="cls-37" cx="804.81" cy="725.55" r="13.17"/><circle class="cls-37" cx="1300.71" cy="852.97" r="13.17"/><rect class="cls-24" x="550.73" y="1011.39" width="125.03" height="29.83"/><rect class="cls-24" x="675.8" y="1011.39" width="125.03" height="29.83"/><circle class="cls-56" cx="636.2" cy="103.03" r="46.2"/><circle class="cls-16" cx="636.2" cy="103.03" r="22.52"/><polygon class="cls-34" points="1420.26 102.87 1452.45 286.71 1484.65 102.87 1420.26 102.87"/><path class="cls-5" d="M1404.62,17h0a47.83,47.83,0,0,1,47.83,47.83V82.4a0,0,0,0,1,0,0h0a47.83,47.83,0,0,1-47.83-47.83V17A0,0,0,0,1,1404.62,17Z"/><path class="cls-5" d="M1490.32,6h0a0,0,0,0,1,0,0V23.58a47.83,47.83,0,0,1-47.83,47.83h0a0,0,0,0,1,0,0V53.83A47.83,47.83,0,0,1,1490.32,6Z" transform="translate(2942.77 88.4) rotate(-180)"/><line class="cls-9" x1="1452.45" y1="101.51" x2="1452.45" y2="78.99"/><path class="cls-2" d="M1535.64,950.22h15.44a0,0,0,0,1,0,0v152.84a0,0,0,0,1,0,0h-82.62a0,0,0,0,1,0,0V1017.4A67.18,67.18,0,0,1,1535.64,950.22Z"/><rect class="cls-3" x="1541.11" y="939.08" width="250.15" height="153.67" transform="translate(3342.35 2042.82) rotate(180)"/><rect class="cls-2" x="1576.65" y="943.18" width="179.07" height="87.1" transform="translate(3342.35 1984.44) rotate(180)"/><path class="cls-16" d="M2041.29,828H1938.86v111H1791.27v87.68h191.46c1.47,0,2.93-.07,4.39-.18h54.17Z" transform="translate(9.97 10.99)"/><path class="cls-9" d="M2041.29,828H1938.86v111H1791.27v87.68h191.46c1.47,0,2.93-.07,4.39-.18h54.17Z" transform="translate(9.97 10.99)"/><path class="cls-18" d="M1975,801.52h101.77a0,0,0,0,1,0,0v1.16A38.37,38.37,0,0,1,2038.41,841h-89.57a0,0,0,0,1,0,0V827.69A26.17,26.17,0,0,1,1975,801.52Z"/><path class="cls-57" d="M1631,798.63V954.91a35.65,35.65,0,0,0,35.65,35.64h0a35.64,35.64,0,0,0,35.64-35.64v-40.3a39.42,39.42,0,0,0,33.48-39v-77Z" transform="translate(9.97 10.99)"/><path class="cls-9" d="M1631,798.63V954.91a35.65,35.65,0,0,0,35.65,35.64h0a35.64,35.64,0,0,0,35.64-35.64v-40.3a39.42,39.42,0,0,0,33.48-39v-77Z" transform="translate(9.97 10.99)"/><polyline class="cls-20" points="1712.22 848.42 1712.22 886.91 1693.32 886.91"/><path class="cls-20" d="M1660.46,859.29a11.86,11.86,0,0,1,23.72,0" transform="translate(9.97 10.99)"/><path class="cls-7" d="M1594.51,813.74H1631a0,0,0,0,1,0,0v90.2a36.46,36.46,0,0,1-36.46,36.46h0a0,0,0,0,1,0,0V813.74A0,0,0,0,1,1594.51,813.74Z" transform="translate(3235.44 1765.13) rotate(180)"/><path class="cls-7" d="M1640.93,804.82H1745.7a0,0,0,0,1,0,0v0A39.67,39.67,0,0,1,1706,844.49h-65.09a0,0,0,0,1,0,0V804.82A0,0,0,0,1,1640.93,804.82Z"/><path class="cls-16" d="M1774.3,705.15a36.53,36.53,0,0,0-63.75-24.38,36.51,36.51,0,0,0-54.41,0,36.54,36.54,0,1,0-39.67,58.73L1631,797h104.77l14.49-57.45A36.54,36.54,0,0,0,1774.3,705.15Z" transform="translate(9.97 10.99)"/><path class="cls-9" d="M1774.3,705.15a36.53,36.53,0,0,0-63.75-24.38,36.51,36.51,0,0,0-54.41,0,36.54,36.54,0,1,0-39.67,58.73L1631,797h104.77l14.49-57.45A36.54,36.54,0,0,0,1774.3,705.15Z" transform="translate(9.97 10.99)"/><line class="cls-20" x1="1751.71" y1="774.11" x2="1634.92" y2="774.11"/><path class="cls-20" d="M1702.25,894.76H1686a13.63,13.63,0,0,1-13.63-13.63h0" transform="translate(9.97 10.99)"/><path class="cls-5" d="M1380.27,203.41h0a0,0,0,0,1,0,0v0a54.66,54.66,0,0,1-54.66,54.66h0a0,0,0,0,1,0,0v0A54.66,54.66,0,0,1,1380.27,203.41Z"/><path class="cls-3" d="M1360,240.2l-21.27,5.52a51.9,51.9,0,0,1-26.14,0l-21.26-5.52a26.68,26.68,0,0,0-33.12,29.53l10.1,71.91a33.17,33.17,0,0,0,45.09,26.22L1318,366a20.74,20.74,0,0,1,15.3,0l4.61,1.83a33.18,33.18,0,0,0,45.1-26.22l10.1-71.91A26.68,26.68,0,0,0,1360,240.2Z" transform="translate(9.97 10.99)"/><path class="cls-58" d="M1302.92,261.33l-12.17-3.16a9.87,9.87,0,0,0-12.26,10.93l1.68,10.43" transform="translate(9.97 10.99)"/><path class="cls-59" d="M1926.27,976.66s57.64-7,88.88,24.23,24.23,88.88,24.23,88.88-57.64,7-88.88-24.23S1926.27,976.66,1926.27,976.66Z" transform="translate(9.97 10.99)"/><g class="cls-60"><line class="cls-46" x1="2049.35" y1="1100.76" x2="1936.24" y2="987.65"/><line class="cls-46" x1="2023.96" y1="1074.75" x2="2025.07" y2="952.23"/><line class="cls-46" x1="2023.96" y1="1074.75" x2="1901.44" y2="1075.86"/><line class="cls-46" x1="1996.58" y1="1047.37" x2="1997.69" y2="924.85"/><line class="cls-46" x1="1996.58" y1="1047.37" x2="1874.06" y2="1048.48"/></g><path class="cls-9" d="M1926.27,976.66s57.64-7,88.88,24.23,24.23,88.88,24.23,88.88-57.64,7-88.88-24.23S1926.27,976.66,1926.27,976.66Z" transform="translate(9.97 10.99)"/><path class="cls-48" d="M837.07,1038.87h38a0,0,0,0,1,0,0v74.89a0,0,0,0,1,0,0h0a38,38,0,0,1-38-38v-36.92A0,0,0,0,1,837.07,1038.87Z"/><path class="cls-48" d="M975.65,1037.37h38a0,0,0,0,1,0,0v74.89a0,0,0,0,1,0,0h0a38,38,0,0,1-38-38v-36.92A0,0,0,0,1,975.65,1037.37Z"/><path class="cls-48" d="M837.07,916.24H991.29a60.3,60.3,0,0,1,60.3,60.3v70a0,0,0,0,1,0,0H837.07a0,0,0,0,1,0,0V916.24A0,0,0,0,1,837.07,916.24Z"/><path class="cls-48" d="M912.89,896.24h18.17a0,0,0,0,1,0,0v0A54.74,54.74,0,0,1,876.32,951H858.15a0,0,0,0,1,0,0v0A54.74,54.74,0,0,1,912.89,896.24Z"/><path class="cls-48" d="M707.51,885.24h18.17A54.74,54.74,0,0,1,780.42,940v0a0,0,0,0,1,0,0H762.24a54.74,54.74,0,0,1-54.74-54.74v0A0,0,0,0,1,707.51,885.24Z" transform="translate(1497.9 1836.22) rotate(180)"/><path class="cls-48" d="M854.73,1035.69H773.87l-15.8-83a40.07,40.07,0,0,1,39.37-47.57h33.72a40.07,40.07,0,0,1,39.37,47.57Z" transform="translate(9.97 10.99)"/><ellipse class="cls-48" cx="824.27" cy="1046.54" rx="39.71" ry="22.84"/><circle cx="812.1" cy="1047.21" r="4.45"/><circle cx="797.69" cy="972.8" r="7.94"/><circle cx="850.85" cy="972.8" r="7.94"/><circle cx="836.44" cy="1047.21" r="4.45"/><path class="cls-48" d="M1041.66,1029.27l0,34.23a38,38,0,0,1-38,38h0l0-72.21" transform="translate(9.97 10.99)"/><path class="cls-48" d="M903,1029.23v35.67a38,38,0,0,1-38,38h0v-73.64" transform="translate(9.97 10.99)"/><circle class="cls-37" cx="394.31" cy="600.99" r="13.17"/><circle class="cls-37" cx="875.04" cy="508.2" r="12.46"/><polygon class="cls-61" points="1232.9 162.5 1204.36 175.03 1204.36 149.93 1232.9 162.5"/><path class="cls-8" d="M1172.71,115.11h0A21.67,21.67,0,0,0,1151,136.78v13h-19.79a44.22,44.22,0,0,0-44.18,44.26l0,21.28,63,0a44.21,44.21,0,0,0,44.24-44.16l0-18.65h0V136.78A21.68,21.68,0,0,0,1172.71,115.11Z" transform="translate(9.97 10.99)"/><circle cx="1183.18" cy="154.28" r="4.27"/><path class="cls-62" d="M1139,180.53h23.37a13.22,13.22,0,0,1,13.22,13.22v0A13.22,13.22,0,0,1,1162.39,207h-36.59a0,0,0,0,1,0,0V193.75A13.22,13.22,0,0,1,1139,180.53Z"/><circle class="cls-37" cx="983.63" cy="183.32" r="13.17"/><path class="cls-28" d="M688.42,353h68.79a0,0,0,0,1,0,0V584.17a0,0,0,0,1,0,0h0a68.79,68.79,0,0,1-68.79-68.79V353A0,0,0,0,1,688.42,353Z"/><circle class="cls-25" cx="83.5" cy="621.09" r="67.53"/><g class="cls-63"><rect class="cls-27" x="4.67" y="507.15" width="78.83" height="211.43"/><line class="cls-9" x1="83.5" y1="688.62" x2="83.5" y2="553.56"/><line class="cls-20" x1="83.5" y1="618.32" x2="151.03" y2="585.04"/><line class="cls-20" x1="81.83" y1="657.13" x2="149.36" y2="623.85"/><line class="cls-20" x1="83.5" y1="618.32" x2="15.97" y2="585.04"/><line class="cls-20" x1="85.17" y1="657.13" x2="17.64" y2="623.85"/></g><circle class="cls-9" cx="83.5" cy="621.09" r="67.53"/><circle class="cls-38" cx="777.47" cy="649.34" r="9.39"/><circle class="cls-38" cx="574.05" cy="649.34" r="9.39"/><path class="cls-8" d="M1236.24,57.19V73.56a64.81,64.81,0,0,0,52.46,63.61v1.19A12.33,12.33,0,0,0,1301,150.69h0a12.33,12.33,0,0,0,12.33-12.33v-1.19a64.8,64.8,0,0,0,52.46-63.61V57.19Z" transform="translate(9.97 10.99)"/><ellipse class="cls-16" cx="1311.01" cy="63.93" rx="64.8" ry="35.29"/><g class="cls-64"><line class="cls-20" x1="1311.01" y1="131.56" x2="1311.01"/><line class="cls-20" x1="1241.62" y1="76.86" x2="1369.54" y2="46.15"/><line class="cls-20" x1="1380.4" y1="76.86" x2="1252.47" y2="46.15"/></g><ellipse class="cls-9" cx="1311.01" cy="63.93" rx="64.8" ry="35.29"/><path class="cls-7" d="M672.42,379.55h17.07a14,14,0,0,1,14,14h0a14,14,0,0,1-14,14H672.42" transform="translate(9.97 10.99)"/><path class="cls-65" d="M630.9,432.33h37.94a0,0,0,0,1,0,0v0a12.75,12.75,0,0,1-12.75,12.75H630.9a0,0,0,0,1,0,0V432.33A0,0,0,0,1,630.9,432.33Z"/><circle class="cls-37" cx="1311.09" cy="621.17" r="13.17"/><rect class="cls-3" x="1840.06" y="105.59" width="210.28" height="149.23"/><rect class="cls-66" x="1875.81" y="131.93" width="49.95" height="61.57"/><rect class="cls-66" x="1954.65" y="131.93" width="49.95" height="61.57"/><g class="cls-23"><polygon points="1840.06 99.59 2050.34 99.59 2050.34 178.99 1840.06 111.59 1840.06 99.59"/></g><rect class="cls-2" x="1827.64" y="75.71" width="235.13" height="36.01"/><line class="cls-67" x1="1875.81" y1="232.07" x2="1929.47" y2="232.07"/><line class="cls-67" x1="1898.93" y1="217.56" x2="1952.59" y2="217.56"/><path class="cls-7" d="M1531.38,180.49h179.12a0,0,0,0,1,0,0v25.3a20.39,20.39,0,0,1-20.39,20.39H1551.77a20.39,20.39,0,0,1-20.39-20.39v-25.3A0,0,0,0,1,1531.38,180.49Z"/><path class="cls-7" d="M1592.13,37.68h57.6a62.95,62.95,0,0,1,62.95,62.95v2.18a0,0,0,0,1,0,0h-183.5a0,0,0,0,1,0,0v-2.18a62.95,62.95,0,0,1,62.95-62.95Z"/><rect class="cls-3" x="1534.23" y="114.28" width="178.45" height="29.08"/><path class="cls-17" d="M1496.27,91.82a22.94,22.94,0,0,0,45.88,0Z" transform="translate(9.97 10.99)"/><path class="cls-17" d="M1542.15,91.82a22.94,22.94,0,0,0,45.88,0Z" transform="translate(9.97 10.99)"/><path class="cls-17" d="M1588,91.82a22.94,22.94,0,0,0,45.87,0Z" transform="translate(9.97 10.99)"/><path class="cls-17" d="M1633.9,91.82a22.94,22.94,0,0,0,45.88,0Z" transform="translate(9.97 10.99)"/><path class="cls-17" d="M1679.78,91.82a22.94,22.94,0,0,0,45.87,0Z" transform="translate(9.97 10.99)"/><rect class="cls-2" x="1524.69" y="139.91" width="192.5" height="25.32"/><path class="cls-8" d="M1707.16,154.52h0a21,21,0,0,1-21,21h-83.51a33,33,0,0,1-56.59,5.67v9.44a15.91,15.91,0,0,1-14.86,16,15.61,15.61,0,0,1-16.36-15.59V154.52Z" transform="translate(9.97 10.99)"/><line class="cls-68" x1="1595.27" y1="37.68" x2="1595.27" y2="68.31"/><line class="cls-68" x1="1646.6" y1="37.68" x2="1646.6" y2="68.31"/><line class="cls-68" x1="1620.93" y1="37.68" x2="1620.93" y2="68.31"/><path class="cls-59" d="M1720.57,277.13a109.52,109.52,0,0,0,219,0Z" transform="translate(9.97 10.99)"/><g class="cls-69"><path class="cls-70" d="M1745.71,277.13a84.38,84.38,0,0,0,168.76,0Z" transform="translate(9.97 10.99)"/><path class="cls-71" d="M1830.09,329.21v0Z" transform="translate(9.97 10.99)"/><path class="cls-71" d="M1856.09,322.07l-2.39-4.13,2.39,4.13,2.38,4.13Z" transform="translate(9.97 10.99)"/><path class="cls-71" d="M1875,302.9l-4.13-2.39,4.13,2.39,4.13,2.38Z" transform="translate(9.97 10.99)"/><path class="cls-71" d="M1804.09,322.07l2.39-4.13-2.39,4.13-2.38,4.13Z" transform="translate(9.97 10.99)"/><path class="cls-71" d="M1785.15,302.9l4.13-2.39-4.13,2.39-4.13,2.38Z" transform="translate(9.97 10.99)"/></g><path class="cls-9" d="M1720.57,277.13a109.52,109.52,0,0,0,219,0Z" transform="translate(9.97 10.99)"/><path class="cls-72" d="M1879.91,788.15c0-42.34-47.61-76.67-47.61-76.67s-47.61,34.33-47.61,76.67c0,28.11,21,52.69,35.1,66l-26.38,45.7h77.79l-26.39-45.7C1858.92,840.84,1879.91,816.26,1879.91,788.15Z" transform="translate(9.97 10.99)"/><path class="cls-9" d="M1879.91,788.15c0-42.34-47.61-76.67-47.61-76.67s-47.61,34.33-47.61,76.67c0,28.11,21,52.69,35.1,66l-26.38,45.7h77.79l-26.39-45.7C1858.92,840.84,1879.91,816.26,1879.91,788.15Z" transform="translate(9.97 10.99)"/><path class="cls-20" d="M1823.24,781.1a21.64,21.64,0,0,0,0,30.62l9.06,9.07,9.07-9.07a21.66,21.66,0,0,0,0-30.62" transform="translate(9.97 10.99)"/><circle class="cls-73" cx="1835.02" cy="765.38" r="6.71"/><path class="cls-74" d="M1511.63,702.48a12.81,12.81,0,0,0-18.11,0l-9,9.06-9.06-9.06a12.81,12.81,0,0,0-18.11,18.11l9,9.06,18.12,18.11,27.16-27.17A12.81,12.81,0,0,0,1511.63,702.48Z" transform="translate(9.97 10.99)"/><path class="cls-38" d="M1401.18,479v160.5a41.64,41.64,0,0,0,41.64,41.64h0a41.64,41.64,0,0,0,41.65-41.64V598.66a47.2,47.2,0,0,0,24-41.12V479Z" transform="translate(9.97 10.99)"/><path class="cls-9" d="M1401.18,479v160.5a41.64,41.64,0,0,0,41.64,41.64h0a41.64,41.64,0,0,0,41.65-41.64V598.66a47.2,47.2,0,0,0,24-41.12V479Z" transform="translate(9.97 10.99)"/><path class="cls-10" d="M1397.78,429.82a47.67,47.67,0,0,0-47.67,47.67v48a51.06,51.06,0,0,0,51.07,51.07h0V494.75h94a47.67,47.67,0,0,0,47.67-47.67V429.82Z" transform="translate(9.97 10.99)"/><path class="cls-9" d="M1397.78,429.82a47.67,47.67,0,0,0-47.67,47.67v48a51.06,51.06,0,0,0,51.07,51.07h0V494.75h94a47.67,47.67,0,0,0,47.67-47.67V429.82Z" transform="translate(9.97 10.99)"/><path class="cls-8" d="M1407.21,551.22h-16.6a16.6,16.6,0,0,1-16.6-16.59h0a16.6,16.6,0,0,1,16.6-16.6h16.6" transform="translate(9.97 10.99)"/><path class="cls-65" d="M1450,568.81h44.44a0,0,0,0,1,0,0v0a20.11,20.11,0,0,1-20.11,20.11h-4.21A20.11,20.11,0,0,1,1450,568.81v0A0,0,0,0,1,1450,568.81Z"/><path class="cls-20" d="M1455.32,522.57a11.09,11.09,0,1,0-22.17,0" transform="translate(9.97 10.99)"/><path class="cls-20" d="M1495,522.57a11.09,11.09,0,1,0-22.17,0v19h-17.49" transform="translate(9.97 10.99)"/><line class="cls-9" x1="1493.54" y1="610.16" x2="1454.21" y2="610.16"/><path class="cls-2" d="M1681.85,387.31h0a45.88,45.88,0,0,1,45.88,45.88v99.43a0,0,0,0,1,0,0H1636a0,0,0,0,1,0,0V433.19A45.88,45.88,0,0,1,1681.85,387.31Z"/><rect class="cls-3" x="1650.65" y="358.75" width="62.41" height="28.43"/><rect class="cls-75" x="1654.48" y="432.85" width="54.76" height="74.95"/><path class="cls-8" d="M1626,521.26V437.5h-12.46a18.83,18.83,0,0,0-18.82,18.82v53.52a31.26,31.26,0,0,0,31.15,31.27h60.95a19.86,19.86,0,0,0,19.86-19.86H1626Z" transform="translate(9.97 10.99)"/><path class="cls-8" d="M1619.9,437.5h25.86a15,15,0,0,1,15,15h0a15,15,0,0,1-15,15H1619.9" transform="translate(9.97 10.99)"/><rect class="cls-8" x="1699.74" y="435.09" width="47.88" height="24.38" rx="12.19"/><rect class="cls-8" x="1699.74" y="459.47" width="47.88" height="24.38" rx="12.19"/><rect class="cls-8" x="1699.74" y="483.85" width="47.88" height="24.38" rx="12.19"/><rect class="cls-8" x="1699.74" y="508.23" width="47.88" height="24.38" rx="12.19"/><path class="cls-5" d="M2085.13,197H2103a0,0,0,0,1,0,0v0a33.68,33.68,0,0,1-33.68,33.68h-17.85a0,0,0,0,1,0,0v0A33.68,33.68,0,0,1,2085.13,197Z"/><path class="cls-5" d="M1989.65,186h17.85a33.68,33.68,0,0,1,33.68,33.68v0a0,0,0,0,1,0,0h-17.85A33.68,33.68,0,0,1,1989.65,186v0A0,0,0,0,1,1989.65,186Z" transform="translate(4040.8 416.71) rotate(-180)"/><path class="cls-5" d="M2085.13,285.41H2103a0,0,0,0,1,0,0v0a33.68,33.68,0,0,1-33.68,33.68h-17.85a0,0,0,0,1,0,0v0a33.68,33.68,0,0,1,33.68-33.68Z"/><path class="cls-5" d="M1989.65,274.42h17.85a33.68,33.68,0,0,1,33.68,33.68v0a0,0,0,0,1,0,0h-17.85a33.68,33.68,0,0,1-33.68-33.68v0A0,0,0,0,1,1989.65,274.42Z" transform="translate(4040.8 593.51) rotate(-180)"/><circle class="cls-25" cx="1363.66" cy="1013.69" r="67.53"/><g class="cls-76"><rect class="cls-27" x="1284.83" y="899.75" width="78.83" height="211.43"/><line class="cls-9" x1="1363.66" y1="1081.22" x2="1363.66" y2="946.16"/><line class="cls-20" x1="1363.66" y1="1010.92" x2="1431.19" y2="977.64"/><line class="cls-20" x1="1361.99" y1="1049.73" x2="1429.52" y2="1016.45"/><line class="cls-20" x1="1363.66" y1="1010.92" x2="1296.13" y2="977.64"/><line class="cls-20" x1="1365.33" y1="1049.73" x2="1297.8" y2="1016.45"/></g><circle class="cls-9" cx="1363.66" cy="1013.69" r="67.53"/><path class="cls-16" d="M1248.6,395.87a64.9,64.9,0,0,0-5.25,129.59v3.36a35.08,35.08,0,0,0,35.08,35.08h0a35.09,35.09,0,0,0,35.08-35.08v-68A64.91,64.91,0,0,0,1248.6,395.87Z" transform="translate(9.97 10.99)"/><path class="cls-9" d="M1248.6,395.87a64.9,64.9,0,0,0-5.25,129.59v3.36a35.08,35.08,0,0,0,35.08,35.08h0a35.09,35.09,0,0,0,35.08-35.08v-68A64.91,64.91,0,0,0,1248.6,395.87Z" transform="translate(9.97 10.99)"/><circle class="cls-29" cx="1258.57" cy="471.77" r="41.98"/><path class="cls-58" d="M1248.6,433.63a27.15,27.15,0,0,1,27.15,27.15" transform="translate(9.97 10.99)"/><line class="cls-9" x1="1375.13" y1="783.34" x2="1375.13" y2="734.24"/><path class="cls-77" d="M1895.83,578.88h0a0,0,0,0,1,0,0v54.44a45.28,45.28,0,0,1-45.28,45.28h0a0,0,0,0,1,0,0V624.16A45.28,45.28,0,0,1,1895.83,578.88Z" transform="translate(3338.94 1975.74) rotate(-156.01)"/><path class="cls-17" d="M1768.65,578.88h0a45.28,45.28,0,0,1,45.28,45.28V678.6a0,0,0,0,1,0,0h0a45.28,45.28,0,0,1-45.28-45.28V578.88A0,0,0,0,1,1768.65,578.88Z" transform="translate(-90.93 793.57) rotate(-23.99)"/><circle class="cls-78" cx="1866.61" cy="453.32" r="13.45"/><circle class="cls-78" cx="1866.61" cy="482.16" r="13.45"/><circle class="cls-78" cx="1866.61" cy="510.99" r="13.45"/><circle class="cls-78" cx="1866.61" cy="539.83" r="13.45"/><circle class="cls-78" cx="1866.61" cy="568.67" r="13.45"/><circle class="cls-78" cx="1866.61" cy="597.5" r="13.45"/><circle class="cls-78" cx="1866.61" cy="626.34" r="13.45"/><circle class="cls-78" cx="1817.82" cy="453.32" r="13.45"/><circle class="cls-78" cx="1817.82" cy="482.16" r="13.45"/><circle class="cls-78" cx="1817.82" cy="510.99" r="13.45"/><circle class="cls-78" cx="1817.82" cy="539.83" r="13.45"/><circle class="cls-78" cx="1817.82" cy="568.67" r="13.45"/><circle class="cls-78" cx="1817.82" cy="597.5" r="13.45"/><circle class="cls-78" cx="1817.82" cy="626.34" r="13.45"/><circle class="cls-78" cx="1842.21" cy="438.45" r="13.45"/><circle class="cls-78" cx="1842.21" cy="467.29" r="13.45"/><circle class="cls-78" cx="1842.21" cy="496.12" r="13.45"/><circle class="cls-78" cx="1842.21" cy="524.96" r="13.45"/><circle class="cls-78" cx="1842.21" cy="553.79" r="13.45"/><circle class="cls-78" cx="1842.21" cy="582.63" r="13.45"/><circle class="cls-78" cx="1842.21" cy="611.47" r="13.45"/><path class="cls-17" d="M1796.93,579.18h0a45.28,45.28,0,0,1,45.28,45.28V678.9a0,0,0,0,1,0,0h0a45.28,45.28,0,0,1-45.28-45.28V579.18A0,0,0,0,1,1796.93,579.18Z"/><path class="cls-17" d="M1877.52,568.19h0a0,0,0,0,1,0,0v54.44a45.28,45.28,0,0,1-45.28,45.28h0a0,0,0,0,1,0,0V613.47A45.28,45.28,0,0,1,1877.52,568.19Z" transform="translate(3719.73 1247.09) rotate(180)"/><circle class="cls-37" cx="1842.27" cy="679.6" r="13.17"/><circle class="cls-37" cx="1841.71" cy="254.34" r="13.17"/><circle class="cls-37" cx="1552.12" cy="1100.77" r="13.17"/><path class="cls-17" d="M1511.74,393.8c42.87,0,90.18-25.51,90.18-57s-47.31-57-90.18-57-63.72,25.51-63.72,57S1468.87,393.8,1511.74,393.8Z" transform="translate(9.97 10.99)"/><path class="cls-79" d="M1510.89,376.21c32.24,0,75.68-17.64,75.68-39.39s-43.44-39.39-75.68-39.39S1463,315.07,1463,336.82,1478.65,376.21,1510.89,376.21Z" transform="translate(9.97 10.99)"/><circle class="cls-80" cx="1516.87" cy="347.81" r="27.18"/></g></g></svg>