<svg xmlns="http://www.w3.org/2000/svg" xmlns:xlink="http://www.w3.org/1999/xlink" viewBox="0 0 2186.16 1157.09"><defs><style>.cls-1,.cls-17{fill:#269b48}.cls-1,.cls-10,.cls-11,.cls-14,.cls-15,.cls-19,.cls-2,.cls-20,.cls-22,.cls-27,.cls-28,.cls-3,.cls-32,.cls-38,.cls-39,.cls-4,.cls-44,.cls-48,.cls-5,.cls-50,.cls-56,.cls-58,.cls-6,.cls-64,.cls-65,.cls-7,.cls-70,.cls-8,.cls-9{stroke:#000}.cls-1,.cls-10,.cls-11,.cls-12,.cls-14,.cls-15,.cls-19,.cls-2,.cls-20,.cls-21,.cls-22,.cls-25,.cls-27,.cls-28,.cls-3,.cls-31,.cls-32,.cls-36,.cls-38,.cls-39,.cls-4,.cls-41,.cls-42,.cls-43,.cls-44,.cls-47,.cls-48,.cls-5,.cls-50,.cls-56,.cls-57,.cls-58,.cls-59,.cls-6,.cls-60,.cls-61,.cls-63,.cls-64,.cls-65,.cls-69,.cls-7,.cls-70,.cls-71,.cls-72,.cls-8,.cls-9{stroke-linejoin:round}.cls-1,.cls-10,.cls-11,.cls-14,.cls-15,.cls-2,.cls-22,.cls-27,.cls-28,.cls-3,.cls-32,.cls-38,.cls-4,.cls-5,.cls-50,.cls-57,.cls-6,.cls-64,.cls-7,.cls-71,.cls-72,.cls-8,.cls-9{stroke-width:12px}.cls-2,.cls-23,.cls-43,.cls-61{fill:#c22033}.cls-13,.cls-3{fill:#4c9f38}.cls-21,.cls-29,.cls-4{fill:#02aed9}.cls-45,.cls-5{fill:#02558b}.cls-52,.cls-6{fill:#289b48}.cls-54,.cls-7{fill:#f36d26}.cls-34,.cls-44,.cls-71,.cls-8{fill:#ef3f2c}.cls-60,.cls-67,.cls-70,.cls-9{fill:#017dbc}.cls-10,.cls-12,.cls-20,.cls-25,.cls-31,.cls-36,.cls-41,.cls-42,.cls-47,.cls-56,.cls-57,.cls-59,.cls-63,.cls-69,.cls-72{fill:none}.cls-11,.cls-66{fill:#48773c}.cls-12,.cls-25,.cls-41{stroke:#fdb715}.cls-12{stroke-width:16px}.cls-14{fill:#e11584}.cls-15,.cls-37,.cls-39,.cls-48{fill:#fff}.cls-16,.cls-27,.cls-58{fill:#c31e33}.cls-18{clip-path:url(#clip-path)}.cls-19,.cls-38,.cls-49{fill:#5dbb46}.cls-19{stroke-width:9.34px}.cls-20,.cls-39,.cls-41,.cls-42,.cls-47,.cls-63{stroke-width:6px}.cls-21,.cls-31,.cls-36,.cls-47,.cls-60{stroke:#fff}.cls-21,.cls-25,.cls-31,.cls-43,.cls-44,.cls-48,.cls-56,.cls-58,.cls-59,.cls-60,.cls-61,.cls-65,.cls-69,.cls-70{stroke-width:8px}.cls-22,.cls-35,.cls-65{fill:#fdb715}.cls-24{clip-path:url(#clip-path-2)}.cls-26{clip-path:url(#clip-path-3)}.cls-28{fill:#981398}.cls-30{clip-path:url(#clip-path-4)}.cls-32,.cls-33{fill:#8f1738}.cls-36{stroke-width:3px}.cls-40{opacity:.3}.cls-42,.cls-57,.cls-69{stroke:#ef3f2c}.cls-43{stroke:#5dbb46}.cls-46{clip-path:url(#clip-path-5)}.cls-50{fill:#29abe2}.cls-51{clip-path:url(#clip-path-6)}.cls-53{clip-path:url(#clip-path-7)}.cls-55{clip-path:url(#clip-path-8)}.cls-59{stroke:#c31e33}.cls-61{stroke:#02aed9}.cls-62{clip-path:url(#clip-path-9)}.cls-63,.cls-71,.cls-72{stroke:#fcb615}.cls-64{fill:#183669}.cls-68{fill:#dedede}.cls-73{clip-path:url(#clip-path-10)}</style><clipPath id="clip-path" transform="translate(0 49.83)"><circle cx="1579.7" cy="80.45" r="74.45" class="cls-1"/></clipPath><clipPath id="clip-path-2" transform="translate(0 49.83)"><polygon points="1542.2 754.92 1499.18 850.13 1661.21 850.13 1704.23 754.92 1542.2 754.92" class="cls-2"/></clipPath><clipPath id="clip-path-3" transform="translate(0 49.83)"><rect width="93.04" height="137.87" x="1437.33" y="475.12" class="cls-3"/></clipPath><clipPath id="clip-path-4" transform="translate(0 49.83)"><rect width="1105.1" height="221.28" x="95" y="506.01" class="cls-4"/></clipPath><clipPath id="clip-path-5" transform="translate(0 49.83)"><polygon points="1403.17 888.77 1308.76 888.77 1276.67 1012.47 1435.26 1012.47 1403.17 888.77" class="cls-5"/></clipPath><clipPath id="clip-path-6" transform="translate(0 49.83)"><circle cx="785.11" cy="289.3" r="74.45" class="cls-1"/></clipPath><clipPath id="clip-path-7" transform="translate(0 49.83)"><path d="M1481.88,951.7s57.64-7,88.88,24.23,24.23,88.88,24.23,88.88-57.65,7-88.88-24.23S1481.88,951.7,1481.88,951.7Z" class="cls-6"/></clipPath><clipPath id="clip-path-8" transform="translate(0 49.83)"><circle cx="1499.38" cy="843.76" r="65.85" class="cls-7"/></clipPath><clipPath id="clip-path-9" transform="translate(0 49.83)"><path d="M1709.44,951.7s7,57.64-24.23,88.88-88.88,24.23-88.88,24.23-7-57.65,24.23-88.88S1709.44,951.7,1709.44,951.7Z" class="cls-6"/></clipPath><clipPath id="clip-path-10" transform="translate(0 49.83)"><circle cx="2105.71" cy="889.7" r="74.45" class="cls-1"/></clipPath></defs><g id="Layer_2" data-name="Layer 2"><g id="sdg3"><path d="M2094.85,561h0a48.79,48.79,0,0,1,48.79,48.79V656.4a0,0,0,0,1,0,0h-48.79a0,0,0,0,1,0,0V561A0,0,0,0,1,2094.85,561Z" class="cls-8"/><rect width="102" height="59.45" x="1901.3" y="485.43" class="cls-8" transform="translate(936.09 -1179.77) rotate(45)"/><rect width="130" height="59.45" x="1805.28" y="403.41" class="cls-9" transform="translate(2886.5 2111.72) rotate(-135)"/><rect width="79.64" height="178.75" x="1959.68" y="698.38" class="cls-2"/><rect width="2000.63" height="1000.26" x="95.21" y="102.17" class="cls-10"/><polygon points="1236.59 352.53 754.14 352.53 754.14 100.15 1229.03 100.15 1236.59 352.53" class="cls-9"/><path d="M1499.38,777.92V727h42.25a38.06,38.06,0,0,0,38.07-38.06v-534" class="cls-10" transform="translate(0 49.83)"/><rect width="200.9" height="375.63" x="1644.83" y="726.8" class="cls-7"/><rect width="102.73" height="215.76" x="1639.38" y="432.78" class="cls-11" transform="translate(3381.49 1131.16) rotate(-180)"/><rect width="102.73" height="215.76" x="1742.11" y="432.78" class="cls-11" transform="translate(3586.94 1131.16) rotate(-180)"/><path d="M1873.5,655.74V521.8a33.45,33.45,0,0,0-33.45-33.44h0a33.45,33.45,0,0,0-33.45,33.44v15" class="cls-12" transform="translate(0 49.83)"/><path d="M1901.22,179.27v126h-56.38v55h75.83a35.58,35.58,0,0,0,35.58-35.57V179.27Z" class="cls-13" transform="translate(0 49.83)"/><path d="M1901.22,179.27v126h-56.38v55h75.83a35.58,35.58,0,0,0,35.58-35.57V179.27Z" class="cls-10" transform="translate(0 49.83)"/><rect width="166.09" height="172.72" x="1678.75" y="305.23" class="cls-3" transform="translate(3523.58 833) rotate(-180)"/><polygon points="1059.33 939.26 1210.44 959.44 1144.38 766.96 1059.33 766.96 1059.33 939.26" class="cls-14"/><rect width="75.63" height="69.63" x="1293.4" y="356.48" class="cls-15"/><path d="M1236.59,306.65V42.14a28.21,28.21,0,0,0-28.21,28.21v45H1167V376.28h125.82V306.65Z" class="cls-16" transform="translate(0 49.83)"/><path d="M1236.59,306.65V42.14a28.21,28.21,0,0,0-28.21,28.21v45H1167V376.28h125.82V306.65Z" class="cls-10" transform="translate(0 49.83)"/><circle cx="1579.7" cy="130.28" r="74.45" class="cls-17"/><g class="cls-18"><rect width="86.91" height="233.09" x="1492.79" y="4.67" class="cls-19"/><line x1="1579.7" x2="1579.7" y1="204.73" y2="55.83" class="cls-10"/><line x1="1579.7" x2="1654.15" y1="127.23" y2="90.54" class="cls-20"/><line x1="1577.86" x2="1652.31" y1="170.01" y2="133.33" class="cls-20"/><line x1="1579.7" x2="1505.25" y1="127.23" y2="90.54" class="cls-20"/><line x1="1581.54" x2="1507.09" y1="170.01" y2="133.33" class="cls-20"/></g><circle cx="1579.7" cy="130.28" r="74.45" class="cls-10"/><rect width="68.88" height="86.42" x="1676.4" y="776.78" class="cls-21"/><rect width="125.63" height="375.63" x="1845.72" y="676.97" class="cls-22" transform="translate(3817.08 1779.39) rotate(180)"/><polygon points="1542.2 804.75 1499.18 899.96 1661.21 899.96 1704.23 804.75 1542.2 804.75" class="cls-23"/><g class="cls-24"><line x1="1499.95" x2="1710.12" y1="824.01" y2="824.01" class="cls-25"/><line x1="1499.95" x2="1710.12" y1="849.41" y2="849.41" class="cls-25"/><line x1="1499.95" x2="1710.12" y1="874.82" y2="874.82" class="cls-25"/></g><polygon points="1542.2 804.75 1499.18 899.96 1661.21 899.96 1704.23 804.75 1542.2 804.75" class="cls-10"/><rect width="162.03" height="202.46" x="1499.18" y="899.96" class="cls-2"/><rect width="86.04" height="202.46" x="1661.21" y="850.13" class="cls-15" transform="translate(3408.46 1952.55) rotate(180)"/><polygon points="1704.23 804.75 1661.21 899.96 1747.25 899.96 1704.23 804.75" class="cls-15"/><rect width="93.04" height="137.87" x="1344.29" y="524.95" class="cls-3"/><rect width="93.04" height="137.87" x="1437.33" y="524.95" class="cls-13"/><g class="cls-26"><line x1="1506.49" x2="1506.49" y1="524.95" y2="662.83" class="cls-25"/><line x1="1486.21" x2="1486.21" y1="524.95" y2="662.83" class="cls-25"/></g><rect width="93.04" height="137.87" x="1437.33" y="524.95" class="cls-10"/><rect width="61.85" height="114.29" x="1437.33" y="662.83" class="cls-27"/><rect width="61.85" height="114.29" x="1375.47" y="662.83" class="cls-27"/><line x1="1449.73" x2="1499.18" y1="777.11" y2="777.11" class="cls-10"/><path d="M1380.91,354.5h152.34a0,0,0,0,1,0,0V525a0,0,0,0,1,0,0h-189a0,0,0,0,1,0,0V391.12A36.62,36.62,0,0,1,1380.91,354.5Z" class="cls-15"/><path d="M1403.79,292.6h70a0,0,0,0,1,0,0v76.1a35,35,0,0,1-35,35h0a35,35,0,0,1-35-35V292.6a0,0,0,0,1,0,0Z" class="cls-27"/><path d="M344.41,914.27h15.84a20.92,20.92,0,0,1,20.92,20.92v0a20.92,20.92,0,0,1-20.92,20.92H344.41a0,0,0,0,1,0,0V914.27A0,0,0,0,1,344.41,914.27Z" class="cls-28"/><rect width="1105.1" height="221.28" x="95" y="555.84" class="cls-29"/><g class="cls-30"><path d="M79.94,544.7c28.1,0,28.1,12,56.21,12s28.11-12,56.22-12,28.11,12,56.21,12,28.11-12,56.22-12,28.11,12,56.22,12,28.1-12,56.21-12,28.11,12,56.22,12,28.1-12,56.21-12,28.11,12,56.21,12,28.11-12,56.22-12,28.11,12,56.21,12,28.11-12,56.22-12,28.11,12,56.22,12,28.11-12,56.22-12,28.11,12,56.22,12,28.11-12,56.22-12,28.1,12,56.21,12,28.11-12,56.22-12,28.11,12,56.22,12,28.12-12,56.23-12,28.11,12,56.22,12" class="cls-31" transform="translate(0 49.83)"/><path d="M79.94,579.8c28.1,0,28.1,12,56.21,12s28.11-12,56.22-12,28.11,12,56.21,12,28.11-12,56.22-12,28.11,12,56.22,12,28.1-12,56.21-12,28.11,12,56.22,12,28.1-12,56.21-12,28.11,12,56.21,12,28.11-12,56.22-12,28.11,12,56.21,12,28.11-12,56.22-12,28.11,12,56.22,12,28.11-12,56.22-12,28.11,12,56.22,12,28.11-12,56.22-12,28.1,12,56.21,12,28.11-12,56.22-12,28.11,12,56.22,12,28.12-12,56.23-12,28.11,12,56.22,12" class="cls-31" transform="translate(0 49.83)"/><path d="M79.94,614.9c28.1,0,28.1,12,56.21,12s28.11-12,56.22-12,28.11,12,56.21,12,28.11-12,56.22-12,28.11,12,56.22,12,28.1-12,56.21-12,28.11,12,56.22,12,28.1-12,56.21-12,28.11,12,56.21,12,28.11-12,56.22-12,28.11,12,56.21,12,28.11-12,56.22-12,28.11,12,56.22,12,28.11-12,56.22-12,28.11,12,56.22,12,28.11-12,56.22-12,28.1,12,56.21,12,28.11-12,56.22-12,28.11,12,56.22,12,28.12-12,56.23-12,28.11,12,56.22,12" class="cls-31" transform="translate(0 49.83)"/><path d="M79.94,650c28.1,0,28.1,12,56.21,12s28.11-12,56.22-12,28.11,12,56.21,12,28.11-12,56.22-12,28.11,12,56.22,12,28.1-12,56.21-12,28.11,12,56.22,12,28.1-12,56.21-12,28.11,12,56.21,12,28.11-12,56.22-12,28.11,12,56.21,12,28.11-12,56.22-12,28.11,12,56.22,12,28.11-12,56.22-12,28.11,12,56.22,12,28.11-12,56.22-12,28.1,12,56.21,12,28.11-12,56.22-12,28.11,12,56.22,12,28.12-12,56.23-12,28.11,12,56.22,12" class="cls-31" transform="translate(0 49.83)"/><path d="M79.94,685.1c28.1,0,28.1,12,56.21,12s28.11-12,56.22-12,28.11,12,56.21,12,28.11-12,56.22-12,28.11,12,56.22,12,28.1-12,56.21-12,28.11,12,56.22,12,28.1-12,56.21-12,28.11,12,56.21,12,28.11-12,56.22-12,28.11,12,56.21,12,28.11-12,56.22-12,28.11,12,56.22,12,28.11-12,56.22-12,28.11,12,56.22,12,28.11-12,56.22-12,28.1,12,56.21,12,28.11-12,56.22-12,28.11,12,56.22,12,28.12-12,56.23-12,28.11,12,56.22,12" class="cls-31" transform="translate(0 49.83)"/></g><rect width="1105.1" height="221.28" x="95" y="555.84" class="cls-10"/><rect width="409.73" height="250.06" x="344.41" y="102.17" class="cls-8"/><rect width="250.08" height="250.06" x="94.33" y="52.34" class="cls-7" transform="translate(438.74 404.57) rotate(180)"/><rect width="34.3" height="347.62" x="879.17" y="208.22" class="cls-8"/><rect width="34.3" height="244.54" x="1030.1" y="208.22" class="cls-22"/><rect width="34.3" height="244.54" x="1061.26" y="208.22" class="cls-8"/><polygon points="1321.62 777.11 1197.69 777.11 944.05 352.86 1067.98 352.86 1321.62 777.11" class="cls-8"/><polygon points="1350.77 776.78 1226.84 776.78 973.21 352.53 1097.14 352.53 1350.77 776.78" class="cls-22"/><rect width="171.34" height="34.16" x="1278.38" y="742.96" class="cls-22"/><polygon points="1211.43 742.96 978.22 352.86 944.05 352.86 1197.69 777.11 1231.85 777.11 1369.03 777.11 1369.03 742.96 1211.43 742.96" class="cls-8"/><rect width="34.3" height="347.62" x="845.45" y="208.22" class="cls-22"/><rect width="34.3" height="347.62" x="937.95" y="208.22" class="cls-22"/><rect width="34.3" height="347.62" x="972.25" y="208.22" class="cls-8"/><polygon points="970.46 82.17 845.41 179.82 845.41 208.22 970.46 208.22 970.46 82.17" class="cls-22"/><polygon points="970.46 82.17 1095.5 179.82 1095.5 208.22 970.46 208.22 970.46 82.17" class="cls-8"/><rect width="42.14" height="220.06" x="764.03" y="352.23" class="cls-32"/><rect width="57.35" height="162.89" x="901.3" y="939.53" class="cls-15"/><path d="M970.44,939.53H1179A34.06,34.06,0,0,1,1213,973.59v0a34.06,34.06,0,0,1-34.06,34.06H970.44a0,0,0,0,1,0,0V939.53a0,0,0,0,1,0,0Z" class="cls-15"/><path d="M949.49,740h47.69a0,0,0,0,1,0,0v17.1a0,0,0,0,1,0,0H949.49a8.55,8.55,0,0,1-8.55-8.55v0a8.55,8.55,0,0,1,8.55-8.55Z" class="cls-32" transform="translate(625.98 -377.08) rotate(36.04)"/><path d="M939.08,804.75h47.69a0,0,0,0,1,0,0v17.1a0,0,0,0,1,0,0H939.08a8.55,8.55,0,0,1-8.55-8.55v0A8.55,8.55,0,0,1,939.08,804.75Z" class="cls-32"/><path d="M1040.44,754.92H986.77l-38.5,38.49a11.17,11.17,0,1,0,15.79,15.79l20.73-20.73,55.65-10Z" class="cls-33" transform="translate(0 49.83)"/><path d="M1040.44,754.92H986.77l-38.5,38.49a11.17,11.17,0,1,0,15.79,15.79l20.73-20.73,55.65-10Z" class="cls-10" transform="translate(0 49.83)"/><rect width="180.57" height="499.35" x="720.72" y="603.07" class="cls-5"/><path d="M373.12,935.37H156.4V864.21H95.16v90.26a34.78,34.78,0,0,0,34.77,34.78h87.71v63.34H414.76V977A41.64,41.64,0,0,0,373.12,935.37Z" class="cls-34" transform="translate(0 49.83)"/><path d="M373.12,935.37H156.4V864.21H95.16v90.26a34.78,34.78,0,0,0,34.77,34.78h87.71v63.34H414.76V977A41.64,41.64,0,0,0,373.12,935.37Z" class="cls-10" transform="translate(0 49.83)"/><rect width="160.32" height="189.72" x="740.98" y="912.7" class="cls-2"/><path d="M253.73,802.91v57.48a36.94,36.94,0,0,0,33.47,36.79v50.93a29,29,0,0,0,29,29h0a29,29,0,0,0,29-29V802.91Z" class="cls-35" transform="translate(0 49.83)"/><path d="M253.73,802.91v57.48a36.94,36.94,0,0,0,33.47,36.79v50.93a29,29,0,0,0,29,29h0a29,29,0,0,0,29-29V802.91Z" class="cls-10" transform="translate(0 49.83)"/><path d="M339,830.59H355.8a16.82,16.82,0,0,1,16.82,16.81h0a16.82,16.82,0,0,1-16.82,16.81H339" class="cls-22" transform="translate(0 49.83)"/><path d="M316.2,855.68h29a0,0,0,0,1,0,0v38.57a0,0,0,0,1,0,0h0a29,29,0,0,1-29-29v-9.57A0,0,0,0,1,316.2,855.68Z" class="cls-28"/><rect width="134.96" height="23.33" x="210.25" y="829.41" class="cls-9"/><path d="M298,777.11h2.71a44.53,44.53,0,0,1,44.53,44.53v7.77a0,0,0,0,1,0,0H253.5a0,0,0,0,1,0,0v-7.77A44.53,44.53,0,0,1,298,777.11Z" class="cls-9"/><path d="M288.86,829a8,8,0,1,0,16,0" class="cls-20" transform="translate(0 49.83)"/><path d="M255.25,829a8,8,0,1,0,16,0" class="cls-20" transform="translate(0 49.83)"/><polyline points="288.86 910.22 271.26 910.22 271.26 878.81" class="cls-20"/><path d="M283.74,873h10.51a8.77,8.77,0,0,0,8.77-8.78v-1.2" class="cls-20" transform="translate(0 49.83)"/><rect width="86.67" height="144.32" x="82.14" y="807.99" class="cls-15" rx="14.93"/><path d="M167,865.6H85.23l-3-39.58a9,9,0,0,0-18,0v48.22L83.9,904.52a23.66,23.66,0,0,0,4.91,7.55h0a23.57,23.57,0,0,0,17,7.23h32.63a38,38,0,0,0,38-38v-6.21A9.47,9.47,0,0,0,167,865.6Z" class="cls-35" transform="translate(0 49.83)"/><path d="M167,865.6H85.23l-3-39.58a9,9,0,0,0-18,0v48.22L83.9,904.52a23.66,23.66,0,0,0,4.91,7.55h0a23.57,23.57,0,0,0,17,7.23h32.63a38,38,0,0,0,38-38v-6.21A9.47,9.47,0,0,0,167,865.6Z" class="cls-10" transform="translate(0 49.83)"/><rect width="31.28" height="31.28" x="121.34" y="824.14" rx="6.86"/><circle cx="136.98" cy="839.78" r="6.29" class="cls-36"/><path d="M191.92,535.48a53.43,53.43,0,0,0-106.85,0C85.07,565,138.49,642,138.49,642S191.92,565,191.92,535.48Z" class="cls-8" transform="translate(0 49.83)"/><circle cx="138.49" cy="584.68" r="15.54" class="cls-37"/><rect width="180.86" height="311.61" x="414.76" y="790.81" class="cls-7"/><polygon points="720.34 726.12 595.68 790.81 595.68 1102.42 720.34 1102.42 720.34 726.12" class="cls-32"/><rect width="180.86" height="125.03" x="595.68" y="977.39" class="cls-7"/><polygon points="720.38 726.12 539.8 726.12 414.76 790.81 595.33 790.81 720.38 726.12" class="cls-22"/><polygon points="901.3 912.7 720.73 912.7 595.68 977.39 776.25 977.39 901.3 912.7" class="cls-38"/><path d="M1016.33,649.07h128a0,0,0,0,1,0,0v128a0,0,0,0,1,0,0H1047a30.68,30.68,0,0,1-30.68-30.68V649.07A0,0,0,0,1,1016.33,649.07Z" class="cls-32"/><path d="M1163.71,770.78l-43.91,43.91a13.85,13.85,0,0,1-19.59,0l-59.77-59.77v55.59l42.78,42.78a38.6,38.6,0,0,0,54.6,0l40.45-40.45" class="cls-14" transform="translate(0 49.83)"/><path d="M1024.7,531h0a26.21,26.21,0,0,1,26.21,26.21v91.87a0,0,0,0,1,0,0h-24.27a28.15,28.15,0,0,1-28.15-28.15V557.2A26.21,26.21,0,0,1,1024.7,531Z" class="cls-11"/><path d="M1068.2,546.48h0a17.29,17.29,0,0,1,17.29,17.29v85.3a0,0,0,0,1,0,0h-34.58a0,0,0,0,1,0,0v-85.3a17.29,17.29,0,0,1,17.29-17.29Z" class="cls-11"/><path d="M1102.77,566.48h0a17.29,17.29,0,0,1,17.29,17.29v65.3a0,0,0,0,1,0,0h-34.58a0,0,0,0,1,0,0v-65.3A17.29,17.29,0,0,1,1102.77,566.48Z" class="cls-11"/><path d="M1137.35,586.48h0a17.29,17.29,0,0,1,17.29,17.29v45.3a0,0,0,0,1,0,0h-34.58a0,0,0,0,1,0,0v-45.3A17.29,17.29,0,0,1,1137.35,586.48Z" class="cls-11"/><path d="M1085.49,649.07h69.15a0,0,0,0,1,0,0v52.42a0,0,0,0,1,0,0h-16.73a52.42,52.42,0,0,1-52.42-52.42v0A0,0,0,0,1,1085.49,649.07Z" class="cls-11"/><path d="M1120.06,648.55h24.85a16.4,16.4,0,0,1,16.4,16.4h0a16.4,16.4,0,0,1-16.4,16.4h-24.85" class="cls-32" transform="translate(0 49.83)"/><path d="M1040.44,688.91h-20.15A14.94,14.94,0,0,1,1005.35,674h0A14.93,14.93,0,0,1,1020.29,659h20.15" class="cls-32" transform="translate(0 49.83)"/><path d="M1076.18,642.85c0,7.44-6.47,13.47-14.46,13.47s-14.47-6-14.47-13.47" class="cls-20" transform="translate(0 49.83)"/><polygon points="1076.18 758.91 1091.98 726.16 1042.26 759.02 1076.18 758.91" class="cls-39"/><path d="M886.7,1061.18h83.75a0,0,0,0,1,0,0v41.24a0,0,0,0,1,0,0h-125a0,0,0,0,1,0,0v0A41.24,41.24,0,0,1,886.7,1061.18Z" class="cls-15"/><rect width="44.56" height="189.54" x="948.16" y="912.88" class="cls-5"/><path d="M901.3,870.24H953a69.29,69.29,0,0,1,69.29,69.29v0a0,0,0,0,1,0,0h-121a0,0,0,0,1,0,0V870.24A0,0,0,0,1,901.3,870.24Z" class="cls-5"/><line x1="1182.18" x2="1144.38" y1="877.11" y2="766.96" class="cls-10"/><polygon points="1155.66 1102.42 1063.06 1102.42 1033.06 1007.56 1185.66 1007.56 1155.66 1102.42" class="cls-11"/><g class="cls-40"><polygon points="1040.44 1007.31 1178.27 1007.31 1178.27 1034.59 1040.44 1019.31 1040.44 1007.31"/></g><rect width="58.2" height="21.77" x="879.75" y="350.57" class="cls-22"/><rect width="58.2" height="21.77" x="879.75" y="404.53" class="cls-22"/><rect width="58.2" height="21.77" x="879.75" y="458.5" class="cls-22"/><rect width="425.64" height="37.99" x="344.41" y="83.17" class="cls-15"/><rect width="262.64" height="37.99" x="81.77" y="83.17" class="cls-15"/><rect width="44.31" height="94.86" x="392.14" y="155.93" class="cls-21"/><rect width="44.31" height="94.86" x="482.13" y="155.93" class="cls-21"/><rect width="44.31" height="94.86" x="572.12" y="155.93" class="cls-21"/><rect width="44.31" height="94.86" x="662.11" y="155.93" class="cls-21"/><rect width="36.75" height="72.16" x="450.65" y="825.07" class="cls-38"/><rect width="36.75" height="72.16" x="514.45" y="825.07" class="cls-38"/><rect width="36.75" height="72.16" x="450.65" y="922.86" class="cls-38"/><rect width="36.75" height="72.16" x="514.45" y="922.86" class="cls-38"/><rect width="36.75" height="72.16" x="450.65" y="1030.26" class="cls-15"/><rect width="36.75" height="72.16" x="514.45" y="1030.26" class="cls-15"/><path d="M595.68,977.39h31.93a0,0,0,0,1,0,0v38.55a16,16,0,0,1-16,16h0a16,16,0,0,1-16-16V977.39A0,0,0,0,1,595.68,977.39Z" class="cls-38"/><path d="M627.61,977.39h31.93a0,0,0,0,1,0,0v38.55a16,16,0,0,1-16,16h0a16,16,0,0,1-16-16V977.39A0,0,0,0,1,627.61,977.39Z" class="cls-15"/><path d="M659.53,977.39h31.93a0,0,0,0,1,0,0v38.55a16,16,0,0,1-16,16h0a16,16,0,0,1-16-16V977.39a0,0,0,0,1,0,0Z" class="cls-38"/><path d="M691.46,977.39h31.93a0,0,0,0,1,0,0v38.55a16,16,0,0,1-16,16h0a16,16,0,0,1-16-16V977.39a0,0,0,0,1,0,0Z" class="cls-15"/><path d="M723.39,977.39h31.93a0,0,0,0,1,0,0v38.55a16,16,0,0,1-16,16h0a16,16,0,0,1-16-16V977.39A0,0,0,0,1,723.39,977.39Z" class="cls-38"/><line x1="189.47" x2="240.13" y1="184.92" y2="184.92" class="cls-41"/><line x1="168.84" x2="219.5" y1="199.24" y2="199.24" class="cls-41"/><line x1="552.77" x2="502.1" y1="295.21" y2="295.21" class="cls-41"/><line x1="573.39" x2="522.73" y1="309.54" y2="309.54" class="cls-41"/><line x1="768.67" x2="819.34" y1="655.66" y2="655.66" class="cls-42"/><line x1="748.05" x2="798.71" y1="669.99" y2="669.99" class="cls-42"/><line x1="1554.37" x2="1605.03" y1="964.74" y2="964.74" class="cls-41"/><line x1="1533.74" x2="1584.41" y1="979.07" y2="979.07" class="cls-41"/><rect width="122.99" height="31.97" x="624.61" y="1050.99" class="cls-43"/><polygon points="879.32 974.04 800.85 1015.99 800.85 1075.97 879.32 1034.02 879.32 974.04" class="cls-44"/><path d="M1442.34,888.77h26.51A22.15,22.15,0,0,1,1491,910.92v0a22.15,22.15,0,0,1-22.15,22.15H1399.2a0,0,0,0,1,0,0v-1.15A43.14,43.14,0,0,1,1442.34,888.77Z" class="cls-22" transform="translate(2890.2 1871.66) rotate(180)"/><polygon points="1410.63 1132.84 1464.26 1079.21 1432.46 1084.91 1369.01 1021.46 1334.13 1056.34 1410.63 1132.84" class="cls-22"/><polygon points="1260.65 1097.46 1314.28 1151.09 1308.59 1119.28 1372.03 1055.84 1337.15 1020.96 1260.65 1097.46" class="cls-22"/><polygon points="1403.17 938.6 1308.76 938.6 1276.67 1062.3 1435.26 1062.3 1403.17 938.6" class="cls-45"/><g class="cls-46"><line x1="1262.79" x2="1455.41" y1="953.78" y2="953.78" class="cls-47"/><line x1="1262.79" x2="1455.41" y1="976.37" y2="976.37" class="cls-47"/><line x1="1262.79" x2="1455.41" y1="998.95" y2="998.95" class="cls-47"/><line x1="1262.79" x2="1455.41" y1="1021.54" y2="1021.54" class="cls-47"/><line x1="1262.79" x2="1455.41" y1="1044.13" y2="1044.13" class="cls-47"/></g><polygon points="1403.17 938.6 1308.76 938.6 1276.67 1062.3 1435.26 1062.3 1403.17 938.6" class="cls-10"/><path d="M1339.54,934.22h39.13a0,0,0,0,1,0,0v19.56a19.56,19.56,0,0,1-19.56,19.56h0a19.56,19.56,0,0,1-19.56-19.56V934.22A0,0,0,0,1,1339.54,934.22Z" class="cls-22"/><path d="M1406.55,731.51H1452a0,0,0,0,1,0,0V777a0,0,0,0,1,0,0h0a45.47,45.47,0,0,1-45.47-45.47v0A0,0,0,0,1,1406.55,731.51Z" class="cls-38" transform="translate(2858.57 1558.31) rotate(-180)"/><path d="M1348.7,779.62h15.84a55.63,55.63,0,0,1,55.63,55.63v0a55.63,55.63,0,0,1-55.63,55.63H1348.7a52,52,0,0,1-52-52v-7.26a52,52,0,0,1,52-52Z" class="cls-22" transform="translate(31.13 1.19) rotate(2.08)"/><path d="M1314.54,820.21H1296a18.52,18.52,0,0,0-18.52,18.52h0A18.52,18.52,0,0,0,1296,857.25h18.53" class="cls-22" transform="translate(0 49.83)"/><path d="M1301.81,781.34h0a0,0,0,0,1,0,0v45.47a0,0,0,0,1,0,0h-45.47a0,0,0,0,1,0,0v0A45.47,45.47,0,0,1,1301.81,781.34Z" class="cls-38"/><path d="M1356.65,838.73a9.67,9.67,0,1,0-19.33,0" class="cls-20" transform="translate(0 49.83)"/><path d="M1395.28,838.73a9.67,9.67,0,1,0-19.33,0" class="cls-20" transform="translate(0 49.83)"/><path d="M1345.22,856.62c0,8.35,8.34,15.12,18.62,15.12s18.62-6.77,18.62-15.12Z" class="cls-48" transform="translate(0 49.83)"/><path d="M1359.12,750.2h-4.94A58.17,58.17,0,0,0,1296,808.37h0a23.15,23.15,0,0,0,23.15,23.15h4.37V808.37h93.76A58.17,58.17,0,0,0,1359.12,750.2Z" class="cls-49" transform="translate(0 49.83)"/><path d="M1359.12,750.2h-4.94A58.17,58.17,0,0,0,1296,808.37h0a23.15,23.15,0,0,0,23.15,23.15h4.37V808.37h93.76A58.17,58.17,0,0,0,1359.12,750.2Z" class="cls-10" transform="translate(0 49.83)"/><path d="M1227.2,938.6h69.66A22.15,22.15,0,0,1,1319,960.75v0a22.15,22.15,0,0,1-22.15,22.15h-26.51a43.14,43.14,0,0,1-43.14-43.14V938.6A0,0,0,0,1,1227.2,938.6Z" class="cls-22"/><g class="cls-40"><polygon points="720.73 598.37 901.3 598.37 901.3 722.67 720.73 607.77 720.73 598.37"/></g><rect width="224.71" height="47.23" x="698.32" y="555.84" class="cls-5"/><circle cx="1126.19" cy="355.32" r="79.7" class="cls-28"/><rect width="89.52" height="89.52" x="1099.61" y="351.55" class="cls-32" rx="44.76"/><path d="M1114.69,357.33h-14.6a14.6,14.6,0,0,1-14.6-14.6h0a14.59,14.59,0,0,1,14.6-14.6h14.6" class="cls-32" transform="translate(0 49.83)"/><path d="M1149.16,337.25a11.81,11.81,0,0,0-23.62,0" class="cls-20" transform="translate(0 49.83)"/><path d="M1171,346.6a7.75,7.75,0,0,0-15.5,0" class="cls-20" transform="translate(0 49.83)"/><path d="M1140.85,410.08h40.92a0,0,0,0,1,0,0v0a16.22,16.22,0,0,1-16.22,16.22h-8.48a16.22,16.22,0,0,1-16.22-16.22v0A0,0,0,0,1,1140.85,410.08Z" class="cls-39"/><path d="M1213,475.12h-87.5l-58.42-89.93h56A89.93,89.93,0,0,1,1213,475.12Z" class="cls-50" transform="translate(0 49.83)"/><polyline points="1114.69 435.02 1067.12 435.02 1067.12 469.58 1114.69 469.58" class="cls-50"/><path d="M1031.38,435h35.74a0,0,0,0,1,0,0v34.56a0,0,0,0,1,0,0h-70.3a0,0,0,0,1,0,0v0A34.56,34.56,0,0,1,1031.38,435Z" class="cls-32"/><polygon points="1244.79 573.15 1195.54 573.15 1164.44 524.95 1213.69 524.95 1244.79 573.15" class="cls-5"/><polygon points="1205.89 573.15 1156.64 573.15 1125.54 524.95 1174.79 524.95 1205.89 573.15" class="cls-5"/><polygon points="1275.75 621.88 1226.5 621.88 1195.4 573.68 1244.65 573.68 1275.75 621.88" class="cls-32"/><polygon points="1236.89 621.88 1187.64 621.88 1156.54 573.68 1205.79 573.68 1236.89 621.88" class="cls-32"/><path d="M1270.56,523.85h0a19.74,19.74,0,0,0-16.63,9.12L1229,572.05h46.77l11.39-17.88A19.72,19.72,0,0,0,1270.56,523.85Z" class="cls-15" transform="translate(0 49.83)"/><path d="M1230.34,523.85h0a19.72,19.72,0,0,0-16.63,9.12l-24.91,39.08h46.77l11.4-17.88A19.72,19.72,0,0,0,1230.34,523.85Z" class="cls-15" transform="translate(0 49.83)"/><path d="M1350.45,219.68H1454.6a0,0,0,0,1,0,0V354.5a0,0,0,0,1,0,0h-82.36a21.79,21.79,0,0,1-21.79-21.79v-113A0,0,0,0,1,1350.45,219.68Z" class="cls-27"/><path d="M1570.67,265.2H1559a52.49,52.49,0,0,0-42.91-51.31,44.44,44.44,0,0,0-44.44-44h-36.35v46.84a52.48,52.48,0,0,0,32.44,48.51h-11.27a19.73,19.73,0,0,0-19.73,19.74h0a19.73,19.73,0,0,0,19.73,19.73h114.22a19.73,19.73,0,0,0,19.73-19.73h0A19.73,19.73,0,0,0,1570.67,265.2Z" class="cls-45" transform="translate(0 49.83)"/><path d="M1570.67,265.2H1559a52.49,52.49,0,0,0-42.91-51.31,44.44,44.44,0,0,0-44.44-44h-36.35v46.84a52.48,52.48,0,0,0,32.44,48.51h-11.27a19.73,19.73,0,0,0-19.73,19.74h0a19.73,19.73,0,0,0,19.73,19.73h114.22a19.73,19.73,0,0,0,19.73-19.73h0A19.73,19.73,0,0,0,1570.67,265.2Z" class="cls-10" transform="translate(0 49.83)"/><line x1="1402.52" x2="1435.28" y1="246.06" y2="246.06" class="cls-10"/><path d="M1356.53,214.67h-15.77A15.78,15.78,0,0,0,1325,230.45h0a15.77,15.77,0,0,0,15.77,15.77h15.77" class="cls-27" transform="translate(0 49.83)"/><path d="M1351.13,246.06h52.65a0,0,0,0,1,0,0v14.71a26.33,26.33,0,0,1-26.33,26.33h0a26.33,26.33,0,0,1-26.33-26.33V246.06a0,0,0,0,1,0,0Z" class="cls-15"/><path d="M1368.92,277.09h25.91a18.44,18.44,0,0,0,18.44-18.44h0" class="cls-20" transform="translate(0 49.83)"/><path d="M1416.84,128.6h9.22a71.27,71.27,0,0,1,71.27,71.27v0a0,0,0,0,1,0,0H1345.57a0,0,0,0,1,0,0v0a71.27,71.27,0,0,1,71.27-71.27Z" class="cls-15"/><rect width="225.45" height="21.63" x="1271.88" y="198.25" class="cls-15"/><circle cx="1377.45" cy="268.57" r="5.81"/><path d="M1428.44,202.33h14.14a14.14,14.14,0,0,1,14.14,14.14h0a14.14,14.14,0,0,1-14.14,14.14h-14.14" class="cls-27" transform="translate(0 49.83)"/><path d="M1526.46,314.51h57.36a0,0,0,0,1,0,0V376.4a0,0,0,0,1,0,0h-57.36a30.94,30.94,0,0,1-30.94-30.94v0A30.94,30.94,0,0,1,1526.46,314.51Z" class="cls-15" transform="translate(695.23 -937.69) rotate(45)"/><path d="M1620.84,382.88h0l-26.34-26.35-43.76,43.76,26.34,26.35-43.5,43.5,43.76,43.76,43.5-43.5A61.88,61.88,0,0,0,1620.84,382.88Z" class="cls-16" transform="translate(0 49.83)"/><path d="M1620.84,382.88h0l-26.34-26.35-43.76,43.76,26.34,26.35-43.5,43.5,43.76,43.76,43.5-43.5A61.88,61.88,0,0,0,1620.84,382.88Z" class="cls-10" transform="translate(0 49.83)"/><path d="M1617.5,527.27h-32.24V507.08a36.94,36.94,0,0,0-36.94-36.94h-14.74V522a30.15,30.15,0,0,0,22.51,29.16v1h61.41a12.44,12.44,0,1,0,0-24.87Z" class="cls-16" transform="translate(0 49.83)"/><path d="M1617.5,527.27h-32.24V507.08a36.94,36.94,0,0,0-36.94-36.94h-14.74V522a30.15,30.15,0,0,0,22.51,29.16v1h61.41a12.44,12.44,0,1,0,0-24.87Z" class="cls-10" transform="translate(0 49.83)"/><circle cx="785.11" cy="339.13" r="74.45" class="cls-17"/><g class="cls-51"><rect width="86.91" height="233.09" x="698.2" y="213.52" class="cls-19"/><line x1="785.11" x2="785.11" y1="413.58" y2="264.68" class="cls-10"/><line x1="785.11" x2="859.55" y1="336.08" y2="299.39" class="cls-20"/><line x1="783.26" x2="857.71" y1="378.86" y2="342.18" class="cls-20"/><line x1="785.11" x2="710.66" y1="336.08" y2="299.39" class="cls-20"/><line x1="786.95" x2="712.5" y1="378.86" y2="342.18" class="cls-20"/></g><circle cx="785.11" cy="339.13" r="74.45" class="cls-10"/><path d="M1481.88,951.7s57.64-7,88.88,24.23,24.23,88.88,24.23,88.88-57.65,7-88.88-24.23S1481.88,951.7,1481.88,951.7Z" class="cls-52" transform="translate(0 49.83)"/><g class="cls-53"><line x1="1594.99" x2="1481.88" y1="1114.64" y2="1001.53" class="cls-47"/><line x1="1569.6" x2="1570.71" y1="1088.62" y2="966.11" class="cls-47"/><line x1="1569.6" x2="1447.08" y1="1088.62" y2="1089.74" class="cls-47"/><line x1="1542.22" x2="1543.33" y1="1061.24" y2="938.73" class="cls-47"/><line x1="1542.22" x2="1419.7" y1="1061.24" y2="1062.36" class="cls-47"/></g><path d="M1481.88,951.7s57.64-7,88.88,24.23,24.23,88.88,24.23,88.88-57.65,7-88.88-24.23S1481.88,951.7,1481.88,951.7Z" class="cls-10" transform="translate(0 49.83)"/><circle cx="1499.38" cy="776.78" r="13.17" class="cls-48"/><circle cx="1024.7" cy="939.53" r="13.17" class="cls-48"/><circle cx="846.66" cy="555.84" r="13.17" class="cls-48"/><circle cx="94.48" cy="1102.42" r="13.17" class="cls-48"/><circle cx="344.41" cy="83.17" r="13.17" class="cls-48"/><rect width="62.94" height="22.01" x="1145.07" y="154.23" class="cls-27" rx="11"/><rect width="62.94" height="22.01" x="1145.07" y="176.24" class="cls-27" rx="11"/><rect width="62.94" height="22.01" x="1145.07" y="198.25" class="cls-27" rx="11"/><rect width="62.94" height="22.01" x="1145.07" y="220.25" class="cls-27" rx="11"/><g class="cls-40"><polygon points="1375.47 659.75 1499.18 659.75 1499.18 711.36 1375.47 665.9 1375.47 659.75"/></g><circle cx="1499.38" cy="893.59" r="65.85" class="cls-54"/><g class="cls-55"><line x1="1499.38" x2="1499.38" y1="827.75" y2="959.44" class="cls-56"/><circle cx="1566.23" cy="893.99" r="40.17" class="cls-56"/><circle cx="1431.62" cy="893.99" r="40.17" class="cls-56"/><line x1="1410.78" x2="1587.98" y1="893.59" y2="893.59" class="cls-56"/></g><circle cx="1499.38" cy="893.59" r="65.85" class="cls-10"/><polyline points="1994.22 351.55 1967.22 255.27 2065.55 255.27 2038.55 351.55" class="cls-31"/><polyline points="2009.81 351.55 1999.52 255.27 2033.25 255.27 2022.96 351.55" class="cls-31"/><rect width="252.71" height="159.07" x="1890.03" y="37.09" class="cls-15" transform="translate(4032.77 283.08) rotate(-180)"/><rect width="78.94" height="61.76" x="1976.92" y="88.28" class="cls-57" transform="translate(4032.77 288.15) rotate(-180)"/><rect width="120.28" height="26.75" x="1956.25" y="178.7" class="cls-7" transform="translate(4032.77 433.97) rotate(-180)"/><line x1="2058.49" x2="1974.28" y1="276.8" y2="276.8" class="cls-31"/><line x1="2051.04" x2="1981.73" y1="303.12" y2="303.12" class="cls-31"/><line x1="2044.75" x2="1988.02" y1="329.44" y2="329.44" class="cls-31"/><path d="M1753.85,121.64h80.54a0,0,0,0,1,0,0V266.57a37.64,37.64,0,0,1-37.64,37.64H1770a56.61,56.61,0,0,1-56.61-56.61V162.14a40.5,40.5,0,0,1,40.5-40.5Z" class="cls-22" transform="translate(3547.74 475.69) rotate(-180)"/><path d="M1733.08,200h-22a22,22,0,0,0-22,22h0a22,22,0,0,0,22,22h22" class="cls-22" transform="translate(0 49.83)"/><path d="M1668.67,173.24V200h59.42a22,22,0,0,0,22,22h4.59V173.24A36.66,36.66,0,0,0,1718,136.57h-12.68A36.67,36.67,0,0,0,1668.67,173.24Z" class="cls-15" transform="translate(0 49.83)"/><rect width="39.24" height="34.14" x="1768.89" y="184.67" class="cls-48" transform="translate(3577.01 453.32) rotate(-180)"/><rect width="39.24" height="34.14" x="1822.31" y="184.67" class="cls-48" transform="translate(3683.87 453.32) rotate(-180)"/><line x1="1822.31" x2="1808.12" y1="234.5" y2="234.5" class="cls-56"/><line x1="1768.89" x2="1754.7" y1="234.5" y2="234.5" class="cls-56"/><path d="M1782.35,201.74a6.16,6.16,0,0,1,12.31,0" class="cls-20" transform="translate(0 49.83)"/><path d="M1835.78,201.74a6.16,6.16,0,0,1,12.31,0" class="cls-20" transform="translate(0 49.83)"/><path d="M1768.89,160.4h39.24a0,0,0,0,1,0,0v0a11.78,11.78,0,0,1-11.78,11.78h-15.69a11.78,11.78,0,0,1-11.78-11.78v0A0,0,0,0,1,1768.89,160.4Z" class="cls-39" transform="translate(3577.01 382.41) rotate(-180)"/><path d="M1820.43,160.4h39.24a0,0,0,0,1,0,0v0a11.78,11.78,0,0,1-11.78,11.78h-15.69a11.78,11.78,0,0,1-11.78-11.78v0A0,0,0,0,1,1820.43,160.4Z" class="cls-39" transform="translate(3680.1 382.41) rotate(180)"/><path d="M1818.32,222h13.81a13.2,13.2,0,0,1,13.2,13.2v.6a13.21,13.21,0,0,1-13.2,13.21h-13.81" class="cls-22" transform="translate(0 49.83)"/><path d="M1767.69,258.51H1788a22.59,22.59,0,0,1,22.59,22.59v0a0,0,0,0,1,0,0h-56.53a0,0,0,0,1,0,0v-9A13.6,13.6,0,0,1,1767.69,258.51Z" class="cls-39" transform="translate(3564.71 589.44) rotate(180)"/><path d="M1808.12,432.78h67.63a0,0,0,0,1,0,0v45.16a0,0,0,0,1,0,0h-22.47a45.16,45.16,0,0,1-45.16-45.16v0A0,0,0,0,1,1808.12,432.78Z" class="cls-22" transform="translate(3683.88 960.56) rotate(-180)"/><rect width="39.59" height="23.04" x="1880.75" y="147.9" class="cls-22" rx="11.52" transform="translate(3801.08 368.67) rotate(-180)"/><polygon points="1765.26 391.3 1807.96 420.18 1807.96 383.83 1807.96 362.41 1765.26 391.3" class="cls-58"/><polygon points="1765.26 391.3 1722.55 420.18 1722.55 383.83 1722.55 362.41 1765.26 391.3" class="cls-58"/><rect width="27.54" height="21.22" x="1751.82" y="330.53" class="cls-58" transform="translate(3531.18 732.1) rotate(-180)"/><circle cx="1768.89" cy="426.11" r="5.52" class="cls-37"/><circle cx="1768.89" cy="457.2" r="5.52" class="cls-37"/><line x1="1703.46" x2="1703.46" y1="361.09" y2="477.26" class="cls-59"/><line x1="1827.05" x2="1827.05" y1="361.09" y2="477.26" class="cls-59"/><path d="M1678.75,432.78V305.23h-10.51a34.65,34.65,0,0,0-34.66,34.65v92.9A45.17,45.17,0,0,0,1678.75,478h129.38V432.78Z" class="cls-13" transform="translate(0 49.83)"/><path d="M1678.75,432.78V305.23h-10.51a34.65,34.65,0,0,0-34.66,34.65v92.9A45.17,45.17,0,0,0,1678.75,478h129.38V432.78Z" class="cls-10" transform="translate(0 49.83)"/><rect width="29.51" height="45.16" x="1778.61" y="432.78" class="cls-15" transform="translate(3586.74 960.56) rotate(-180)"/><rect width="180.98" height="38.45" x="1924.57" y="877.34" class="cls-3"/><rect width="207.11" height="38.45" x="1898.44" y="917.42" class="cls-3"/><rect width="233.25" height="38.45" x="1872.3" y="957.49" class="cls-3"/><rect width="259.38" height="38.45" x="1846.17" y="997.57" class="cls-3"/><rect width="285.51" height="38.45" x="1820.04" y="1037.64" class="cls-3"/><rect width="311.65" height="38.45" x="1793.9" y="1077.72" class="cls-3"/><rect width="41.73" height="86.42" x="1773.89" y="776.78" class="cls-21"/><rect width="71.84" height="59.05" x="1874.36" y="776.78" class="cls-60"/><rect width="41.73" height="114.95" x="1773.89" y="891.17" class="cls-21"/><g class="cls-40"><polygon points="1644.83 713.73 1971.35 713.73 1971.35 806.47 1644.83 739.86 1644.83 713.73"/></g><rect width="221.32" height="28.42" x="1624.41" y="698.38" class="cls-15"/><rect width="143.84" height="28.95" x="1845.72" y="698.38" class="cls-7"/><rect width="36.64" height="142.94" x="1685.91" y="930" class="cls-61"/><path d="M1709.44,951.7s7,57.64-24.23,88.88-88.88,24.23-88.88,24.23-7-57.65,24.23-88.88S1709.44,951.7,1709.44,951.7Z" class="cls-52" transform="translate(0 49.83)"/><g class="cls-62"><line x1="1596.33" x2="1709.44" y1="1114.64" y2="1001.53" class="cls-63"/><line x1="1622.35" x2="1744.86" y1="1089.24" y2="1090.36" class="cls-63"/><line x1="1622.35" x2="1621.23" y1="1089.24" y2="966.73" class="cls-63"/><line x1="1649.73" x2="1772.24" y1="1061.87" y2="1062.98" class="cls-63"/><line x1="1649.73" x2="1648.61" y1="1061.87" y2="939.35" class="cls-63"/></g><path d="M1709.44,951.7s7,57.64-24.23,88.88-88.88,24.23-88.88,24.23-7-57.65,24.23-88.88S1709.44,951.7,1709.44,951.7Z" class="cls-10" transform="translate(0 49.83)"/><rect width="29.13" height="126.98" x="691.7" y="749.53" class="cls-1" transform="translate(1412.53 1675.87) rotate(180)"/><rect width="147.5" height="147.5" x="632.52" y="633.33" class="cls-8" rx="73.75" transform="translate(1412.53 1463.98) rotate(-180)"/><path d="M808.15,838.72h0a0,0,0,0,1,0,0v0a87.35,87.35,0,0,1-87.35,87.35h0a0,0,0,0,1,0,0v0A87.35,87.35,0,0,1,808.15,838.72Z" class="cls-1"/><rect width="95" height="95" x="658.77" y="659.58" class="cls-37" rx="47.5" transform="translate(1412.53 1463.98) rotate(180)"/><rect width="38.55" height="38.55" x="686.99" y="687.8" class="cls-35" rx="19.27" transform="translate(1412.53 1463.98) rotate(180)"/><path d="M42.65,92.28H60.5A33.68,33.68,0,0,1,94.18,126v0a0,0,0,0,1,0,0H76.33A33.68,33.68,0,0,1,42.65,92.28v0A0,0,0,0,1,42.65,92.28Z" class="cls-6" transform="translate(136.83 268.06) rotate(180)"/><path d="M128.16,202.84H146a0,0,0,0,1,0,0v0a33.68,33.68,0,0,1-33.68,33.68H94.48a0,0,0,0,1,0,0v0A33.68,33.68,0,0,1,128.16,202.84Z" class="cls-6"/><path d="M42.65,153H60.5a33.68,33.68,0,0,1,33.68,33.68v0a0,0,0,0,1,0,0H76.33A33.68,33.68,0,0,1,42.65,153v0a0,0,0,0,1,0,0Z" class="cls-6" transform="translate(136.83 389.53) rotate(-180)"/><path d="M568.72,402.93h-151v53.24H610.37a23.39,23.39,0,0,0,23.39-23.39V382.93Z" class="cls-35" transform="translate(0 49.83)"/><path d="M568.72,402.93h-151v53.24H610.37a23.39,23.39,0,0,0,23.39-23.39V382.93Z" class="cls-10" transform="translate(0 49.83)"/><rect width="172.98" height="144.37" x="251.4" y="452.76" class="cls-15"/><path d="M310.38,281.09V421.18a34,34,0,0,0,34,34h0a34,34,0,0,0,34-34v-44.9h16.73A42.25,42.25,0,0,0,437.42,334V281.09Z" class="cls-35" transform="translate(0 49.83)"/><path d="M310.38,281.09V421.18a34,34,0,0,0,34,34h0a34,34,0,0,0,34-34v-44.9h16.73A42.25,42.25,0,0,0,437.42,334V281.09Z" class="cls-10" transform="translate(0 49.83)"/><path d="M328.59,312.39H309.3a15.74,15.74,0,0,0-15.74,15.74h0a15.74,15.74,0,0,0,15.74,15.74h19.29" class="cls-22" transform="translate(0 49.83)"/><path d="M445.66,258a23.1,23.1,0,0,1-23.09,23.1H340.11v8.53a31.22,31.22,0,0,1-62.44,0v-8.53a46.19,46.19,0,0,1,46.19-46.19h98.71A23.08,23.08,0,0,1,445.66,258Z" class="cls-32" transform="translate(0 49.83)"/><circle cx="280.58" cy="257.14" r="46.79" class="cls-32"/><path d="M251.4,547.31V654.47L158.31,666v36.55H284.88A59.53,59.53,0,0,0,344.41,643V547.31Z" class="cls-45" transform="translate(0 49.83)"/><path d="M251.4,547.31V654.47L158.31,666v36.55H284.88A59.53,59.53,0,0,0,344.41,643V547.31Z" class="cls-10" transform="translate(0 49.83)"/><polygon points="613.02 633.56 344.41 662.83 344.41 597.14 613.02 597.14 613.02 633.56" class="cls-64"/><rect width="44.94" height="36.55" x="113.37" y="715.79" class="cls-22"/><path d="M73.17,743.68l40.2-41.17V666H84.44a11.28,11.28,0,0,0-11.27,11.27Z" class="cls-8" transform="translate(0 49.83)"/><rect width="44.94" height="36.55" x="613.02" y="547.18" class="cls-22" transform="translate(1270.98 1180.74) rotate(180)"/><path d="M698.16,467.33l-49.4,79.85v36.55h32.41a17,17,0,0,0,17-17Z" class="cls-8" transform="translate(0 49.83)"/><path d="M251.05,402.93H119V298.31H65.73V402.93a53.24,53.24,0,0,0,51.88,53.21v0H251.05a26.62,26.62,0,0,0,26.62-26.62h0A26.62,26.62,0,0,0,251.05,402.93Z" class="cls-35" transform="translate(0 49.83)"/><path d="M251.05,402.93H119V298.31H65.73V402.93a53.24,53.24,0,0,0,51.88,53.21v0H251.05a26.62,26.62,0,0,0,26.62-26.62h0A26.62,26.62,0,0,0,251.05,402.93Z" class="cls-10" transform="translate(0 49.83)"/><path d="M6,259c0-40.14,47.44-72.68,106-72.68,33,0,62.44,10.34,81.87,26.54,8.95,7.47,3.58,22.06-8.07,22.06H170.58c-13.22,0-24.38,10.42-24.62,23.64A24.08,24.08,0,0,0,170,283.06h15.72c11.65,0,17,14.59,8.07,22.06-19.43,16.21-48.89,26.54-81.87,26.54C53.44,331.66,6,299.12,6,259Z" class="cls-7" transform="translate(0 49.83)"/><rect width="49.02" height="24.97" x="82.38" y="257.31" class="cls-65" rx="12.49" transform="translate(-162.9 426.52) rotate(-90)"/><circle cx="71.1" cy="342.72" r="12.56" class="cls-66"/><circle cx="94.33" cy="263.35" r="12.56" class="cls-67"/><circle cx="53.32" cy="278.17" r="12.56" class="cls-23"/><circle cx="38.02" cy="319.63" r="12.56" class="cls-68"/><path d="M398.58,316.75a16,16,0,0,0-32,0" class="cls-56" transform="translate(0 49.83)"/><polyline points="415.77 356.85 415.83 387.82 400.04 387.82" class="cls-56"/><path d="M413.28,353.61H390.41a12,12,0,0,1-12-12h0" class="cls-56" transform="translate(0 49.83)"/><rect width="26.62" height="132.04" x="602.99" y="350.57" class="cls-15" rx="13.31"/><rect width="34.77" height="60.64" x="620.45" y="418.74" class="cls-22" rx="17.39"/><path d="M640.59,269.8c0-13.42-24.29-65.16-24.29-65.16S592,256.38,592,269.8a24.29,24.29,0,0,0,48.58,0Z" class="cls-9" transform="translate(0 49.83)"/><path d="M296.86,553.24V660.75a17.34,17.34,0,0,1-16.73,17.33L164,684.15" class="cls-69" transform="translate(0 49.83)"/><line x1="158.31" x2="158.31" y1="715.79" y2="752.34" class="cls-10"/><path d="M1997.67,559.18h98.21a0,0,0,0,1,0,0V698.38a0,0,0,0,1,0,0h-136.2a0,0,0,0,1,0,0V597.17A38,38,0,0,1,1997.67,559.18Z" class="cls-8"/><path d="M2067.13,455.32V397.68H1965.59v45.53a39.12,39.12,0,0,0,37,39.05v20.56a32.32,32.32,0,0,0,32.32,32.31h0a32.32,32.32,0,0,0,32.32-32.31v-47.5Z" class="cls-67" transform="translate(0 49.83)"/><path d="M2067.13,455.32V397.68H1965.59v45.53a39.12,39.12,0,0,0,37,39.05v20.56a32.32,32.32,0,0,0,32.32,32.31h0a32.32,32.32,0,0,0,32.32-32.31v-47.5Z" class="cls-10" transform="translate(0 49.83)"/><path d="M2129,379.67v22.18H1965.59V379.67a55.77,55.77,0,0,1,55.76-55.77h2a55.75,55.75,0,0,1,55.76,55.77Z" class="cls-8" transform="translate(0 49.83)"/><path d="M2131.72,529.63h-9.21a75.21,75.21,0,0,1-75.21-75.21V401.85h48.58Z" class="cls-64" transform="translate(0 49.83)"/><path d="M2098.45,648.55H1959.68v19.21a42.45,42.45,0,0,0,42.44,42.45h77v78.91h64.51V693.74A45.19,45.19,0,0,0,2098.45,648.55Z" class="cls-34" transform="translate(0 49.83)"/><path d="M2098.45,648.55H1959.68v19.21a42.45,42.45,0,0,0,42.44,42.45h77v78.91h64.51V693.74A45.19,45.19,0,0,0,2098.45,648.55Z" class="cls-10" transform="translate(0 49.83)"/><path d="M2079.13,838.95h75.8a15.65,15.65,0,0,1,15.65,15.65v0a15.65,15.65,0,0,1-15.65,15.65h-75.8a0,0,0,0,1,0,0v-31.3A0,0,0,0,1,2079.13,838.95Z" class="cls-15"/><path d="M1999.52,427.43a7.3,7.3,0,1,0-14.6,0" class="cls-20" transform="translate(0 49.83)"/><path d="M1970.66,420.84l-11.28,20a5.35,5.35,0,0,0,4.65,8h19.8" class="cls-70" transform="translate(0 49.83)"/><path d="M1987.45,461.56h30.93a12.4,12.4,0,0,0,12.4-12.4v-6.72" class="cls-20" transform="translate(0 49.83)"/><path d="M2050.9,656.4h92.74a0,0,0,0,1,0,0v0a42,42,0,0,1-42,42h-92.74a0,0,0,0,1,0,0v0a42,42,0,0,1,42-42Z" class="cls-9"/><ellipse cx="818.4" cy="779.82" class="cls-71" rx="17.77" ry="12.8"/><ellipse cx="883.8" cy="737.08" class="cls-71" rx="17.77" ry="12.8"/><polyline points="901.57 738.2 901.57 654.98 836.18 693.75 836.18 779.82" class="cls-72"/><path d="M1469.36,382.44v25.77h-6.28V392.75l-5.76,15.46h-5.07l-5.8-15.49v15.49h-6.28V382.44h7.42l7.23,17.84,7.16-17.84Z" transform="translate(0 49.83)"/><path d="M1495.7,382.44l-8.92,17.25v8.52h-6.28v-8.52l-8.92-17.25h7.12l5,10.79,5-10.79Z" transform="translate(0 49.83)"/><path d="M1406,436c2.39-2,4.29-3.6,5.67-4.88a23.07,23.07,0,0,0,3.5-4,7.21,7.21,0,0,0,1.44-4.08,3.64,3.64,0,0,0-.7-2.35,2.56,2.56,0,0,0-2.09-.84,2.6,2.6,0,0,0-2.19,1.05,4.77,4.77,0,0,0-.79,2.95h-6.06a10.43,10.43,0,0,1,1.34-5.21,7.84,7.84,0,0,1,3.35-3.09,10.51,10.51,0,0,1,4.6-1c2.92,0,5.11.75,6.59,2.24a8,8,0,0,1,2.23,5.84,11.45,11.45,0,0,1-2.69,7.29,39.36,39.36,0,0,1-6.82,6.55h9.91v5.11h-18.43V437C1405.7,436.3,1406.08,436,1406,436Z" transform="translate(0 49.83)"/><path d="M1428.47,418.27q2.44-3.63,7.87-3.63c3.63,0,6.25,1.21,7.88,3.63s2.44,5.75,2.44,10-.81,7.6-2.44,10-4.25,3.63-7.88,3.63-6.24-1.21-7.87-3.63-2.44-5.77-2.44-10S1426.84,420.7,1428.47,418.27Zm11.22,4.25a3.79,3.79,0,0,0-6.69,0,15.73,15.73,0,0,0-.81,5.7,23.59,23.59,0,0,0,.3,4.14,5.24,5.24,0,0,0,1.19,2.64,4,4,0,0,0,5.33,0,5.33,5.33,0,0,0,1.19-2.64,24.74,24.74,0,0,0,.29-4.14A16,16,0,0,0,1439.69,422.52Z" transform="translate(0 49.83)"/><path d="M1452.32,416.7a9.62,9.62,0,0,1,6.57-2.13,10.65,10.65,0,0,1,4.72.95,6.76,6.76,0,0,1,4,6.32,6.11,6.11,0,0,1-4,6V428a6.32,6.32,0,0,1,4.51,6.47,7.77,7.77,0,0,1-1,4,7.19,7.19,0,0,1-3,2.73,10.61,10.61,0,0,1-4.76,1,10.74,10.74,0,0,1-7-2.16q-2.62-2.18-2.77-6.54h6.1a3.7,3.7,0,0,0,.91,2.55,3.35,3.35,0,0,0,2.57.94,3,3,0,0,0,2.23-.83A3.05,3.05,0,0,0,1462,434a2.9,2.9,0,0,0-1.12-2.55,6.3,6.3,0,0,0-3.58-.79h-1.18v-5.11h1.18a6.18,6.18,0,0,0,3-.64,2.38,2.38,0,0,0,1.16-2.29,2.79,2.79,0,0,0-.73-2.06,2.74,2.74,0,0,0-2-.73,2.53,2.53,0,0,0-2.08.84,3.85,3.85,0,0,0-.79,2.09h-6.13A8.09,8.09,0,0,1,1452.32,416.7Z" transform="translate(0 49.83)"/><path d="M1473.78,418.27q2.45-3.63,7.87-3.63c3.63,0,6.25,1.21,7.88,3.63s2.44,5.75,2.44,10-.81,7.6-2.44,10-4.25,3.63-7.88,3.63-6.24-1.21-7.87-3.63-2.44-5.77-2.44-10S1472.15,420.7,1473.78,418.27Zm11.22,4.25a3.79,3.79,0,0,0-6.69,0,15.77,15.77,0,0,0-.8,5.7,23.71,23.71,0,0,0,.29,4.14A5.24,5.24,0,0,0,1479,435a4,4,0,0,0,5.33,0,5.33,5.33,0,0,0,1.19-2.64,24.74,24.74,0,0,0,.29-4.14A16,16,0,0,0,1485,422.52Z" transform="translate(0 49.83)"/><line x1="1403.79" x2="1492.01" y1="504.49" y2="504.49" class="cls-20"/><line x1="1437.39" x2="1493.65" y1="420.94" y2="420.94" class="cls-20"/><rect width="42.14" height="120.12" x="2084.64" y="996.05" class="cls-32"/><circle cx="2105.71" cy="939.53" r="74.45" class="cls-17"/><g class="cls-73"><rect width="86.91" height="233.09" x="2018.81" y="813.92" class="cls-19"/><line x1="2105.71" x2="2105.71" y1="1013.98" y2="865.08" class="cls-10"/><line x1="2105.71" x2="2180.16" y1="936.48" y2="899.79" class="cls-20"/><line x1="2103.87" x2="2178.32" y1="979.26" y2="942.58" class="cls-20"/><line x1="2105.71" x2="2031.26" y1="936.48" y2="899.79" class="cls-20"/><line x1="2107.55" x2="2033.1" y1="979.26" y2="942.58" class="cls-20"/></g><circle cx="2105.71" cy="939.53" r="74.45" class="cls-10"/></g></g></svg>