<svg xmlns="http://www.w3.org/2000/svg" xmlns:xlink="http://www.w3.org/1999/xlink" viewBox="0 0 2096.24 1136.31"><defs><style>.cls-1,.cls-11{fill:#269b48}.cls-1,.cls-14,.cls-16,.cls-2,.cls-23,.cls-24,.cls-3,.cls-30,.cls-31,.cls-34,.cls-36,.cls-37,.cls-38,.cls-4,.cls-44,.cls-45,.cls-46,.cls-48,.cls-49,.cls-5,.cls-50,.cls-51,.cls-52,.cls-54,.cls-55,.cls-56,.cls-57,.cls-58,.cls-59,.cls-6,.cls-60,.cls-61,.cls-62,.cls-63,.cls-7,.cls-71,.cls-8,.cls-84,.cls-87,.cls-90,.cls-91{stroke:#000}.cls-1,.cls-13,.cls-14,.cls-16,.cls-19,.cls-2,.cls-22,.cls-23,.cls-24,.cls-25,.cls-26,.cls-29,.cls-3,.cls-30,.cls-31,.cls-34,.cls-35,.cls-36,.cls-37,.cls-38,.cls-39,.cls-4,.cls-40,.cls-41,.cls-44,.cls-45,.cls-46,.cls-47,.cls-48,.cls-49,.cls-5,.cls-50,.cls-51,.cls-52,.cls-53,.cls-54,.cls-55,.cls-56,.cls-57,.cls-58,.cls-59,.cls-6,.cls-60,.cls-61,.cls-62,.cls-63,.cls-67,.cls-68,.cls-69,.cls-7,.cls-71,.cls-74,.cls-75,.cls-77,.cls-78,.cls-8,.cls-81,.cls-84,.cls-87,.cls-88,.cls-89,.cls-9,.cls-90,.cls-91{stroke-linejoin:round}.cls-1,.cls-13,.cls-14,.cls-16,.cls-2,.cls-22,.cls-23,.cls-3,.cls-30,.cls-31,.cls-34,.cls-35,.cls-36,.cls-37,.cls-38,.cls-4,.cls-44,.cls-48,.cls-49,.cls-5,.cls-55,.cls-6,.cls-60,.cls-61,.cls-67,.cls-68,.cls-7,.cls-74,.cls-8,.cls-90{stroke-width:12px}.cls-17,.cls-2{fill:#183669}.cls-20,.cls-3,.cls-54,.cls-59,.cls-89{fill:#fff}.cls-27,.cls-4{fill:#289b48}.cls-10,.cls-5,.cls-73,.cls-9{fill:#fdb715}.cls-6,.cls-79{fill:#ef3f2c}.cls-13,.cls-19,.cls-22,.cls-24,.cls-25,.cls-26,.cls-29,.cls-39,.cls-40,.cls-41,.cls-47,.cls-52,.cls-53,.cls-56,.cls-58,.cls-67,.cls-68,.cls-69,.cls-7,.cls-74,.cls-75,.cls-77,.cls-78,.cls-81,.cls-87,.cls-88{fill:none}.cls-66,.cls-8{fill:#48773c}.cls-26,.cls-35,.cls-81,.cls-9{stroke:#fdb715}.cls-19,.cls-24,.cls-54,.cls-62,.cls-63,.cls-77,.cls-78,.cls-81,.cls-9,.cls-91{stroke-width:8px}.cls-10{opacity:.4}.cls-12{clip-path:url(#clip-path)}.cls-13,.cls-69,.cls-74,.cls-75,.cls-88{stroke:#fff}.cls-14{fill:#e11584}.cls-15,.cls-61,.cls-84{fill:#8f1738}.cls-16{fill:#981398}.cls-18{clip-path:url(#clip-path-2)}.cls-19{stroke:#f1f1f1}.cls-21{clip-path:url(#clip-path-3)}.cls-22,.cls-77{stroke:#48773c}.cls-23,.cls-32,.cls-35{fill:#017dbc}.cls-25,.cls-89{stroke:#ef3f2c}.cls-25,.cls-26,.cls-29,.cls-39,.cls-40,.cls-41,.cls-45,.cls-46,.cls-47,.cls-50,.cls-51,.cls-52,.cls-53,.cls-57,.cls-59,.cls-69,.cls-75,.cls-84,.cls-89{stroke-width:6px}.cls-28{clip-path:url(#clip-path-4)}.cls-29{stroke:#fcb615}.cls-30,.cls-50,.cls-63,.cls-71{fill:#5dbb46}.cls-31,.cls-33,.cls-91{fill:#02aed9}.cls-34{fill:#c22033}.cls-36{fill:#999}.cls-37,.cls-57{fill:#666}.cls-38{fill:#ccc}.cls-39{stroke:#5dbb46}.cls-40{stroke:#f99d26}.cls-41{stroke:#e11584}.cls-42,.cls-55,.cls-62{fill:#fcb615}.cls-43{fill:#ff7bac}.cls-44,.cls-65{fill:#f99d26}.cls-45{fill:#e6e6e6}.cls-46{fill:#dedede}.cls-47{stroke:#999}.cls-48{fill:#b5b196}.cls-49{fill:#e0dcbf}.cls-51{fill:#eb1b2e}.cls-53{stroke:#b5b196}.cls-56{stroke-width:3px}.cls-58{stroke-width:2px}.cls-60{fill:#f36d26}.cls-64,.cls-90{fill:#c5192d}.cls-67,.cls-78{stroke:#c22033}.cls-68{stroke:#f36d26}.cls-70{clip-path:url(#clip-path-5)}.cls-71{stroke-width:9.34px}.cls-72{clip-path:url(#clip-path-6)}.cls-74,.cls-75{stroke-linecap:round}.cls-76{clip-path:url(#clip-path-7)}.cls-80{clip-path:url(#clip-path-8)}.cls-82{clip-path:url(#clip-path-9)}.cls-83{fill:#02558b}.cls-85{clip-path:url(#clip-path-10)}.cls-86{opacity:.3}.cls-87{stroke-width:10px}.cls-88{stroke-width:5px}</style><clipPath id="clip-path" transform="translate(11.25 10.94)"><rect width="418.16" height="254.27" x="27.46" y="386.27" class="cls-1"/></clipPath><clipPath id="clip-path-2" transform="translate(11.25 10.94)"><path d="M1527.68,324H1709a41.91,41.91,0,0,1,41.91,41.91v209a0,0,0,0,1,0,0H1527.68a0,0,0,0,1,0,0V324A0,0,0,0,1,1527.68,324Z" class="cls-2"/></clipPath><clipPath id="clip-path-3" transform="translate(11.25 10.94)"><path d="M1684.06,700.39h121.77a31.3,31.3,0,0,1,31.3,31.3v93.2a0,0,0,0,1,0,0H1652.76a0,0,0,0,1,0,0v-93.2A31.3,31.3,0,0,1,1684.06,700.39Z" class="cls-3"/></clipPath><clipPath id="clip-path-4" transform="translate(11.25 10.94)"><path d="M1788.1,961.17s-57.64-7-88.88,24.24-24.23,88.88-24.23,88.88,57.65,7,88.88-24.24S1788.1,961.17,1788.1,961.17Z" class="cls-4"/></clipPath><clipPath id="clip-path-5" transform="translate(11.25 10.94)"><circle cx="81.2" cy="120.61" r="75.2" class="cls-1"/></clipPath><clipPath id="clip-path-6" transform="translate(11.25 10.94)"><circle cx="2002.71" cy="1022.48" r="68.03" class="cls-1"/></clipPath><clipPath id="clip-path-7" transform="translate(11.25 10.94)"><path d="M876.13,324.77H641.53c-19.23,0-34.82-14.19-34.82-31.68h0c0-17.49,15.59-31.68,34.82-31.68h234.6" class="cls-5"/></clipPath><clipPath id="clip-path-8" transform="translate(11.25 10.94)"><polygon points="613.16 74.7 745.66 74.7 745.66 110.42 649.83 110.42 613.16 74.7" class="cls-6"/></clipPath><clipPath id="clip-path-9" transform="translate(11.25 10.94)"><path d="M654.5,98.29l-76,132.92h51.83A24.22,24.22,0,0,0,654.5,207Z" class="cls-3"/></clipPath><clipPath id="clip-path-10" transform="translate(11.25 10.94)"><polygon points="1900.94 195.44 1900.94 343.74 1972.87 195.44 1900.94 195.44" class="cls-3"/></clipPath></defs><g id="Layer_2" data-name="Layer 2"><g id="sdg4"><rect width="2000.63" height="1000.26" x="38.12" y="85.64" class="cls-7"/><path d="M1867.78,576.38H1936a0,0,0,0,1,0,0v41.09a0,0,0,0,1,0,0H1835.05a0,0,0,0,1,0,0v-8.37A32.73,32.73,0,0,1,1867.78,576.38Z" class="cls-2"/><path d="M1924.73,565.45h100.93a0,0,0,0,1,0,0v41.09a0,0,0,0,1,0,0h-68.2a32.73,32.73,0,0,1-32.73-32.73v-8.37A0,0,0,0,1,1924.73,565.45Z" class="cls-2" transform="translate(3961.65 1182.93) rotate(-180)"/><rect width="407.39" height="490.75" x="1631.36" y="85.64" class="cls-8"/><line x1="1788.19" x2="1788.19" y1="98.93" y2="257.02" class="cls-9"/><path d="M1801.08,270.23a24.15,24.15,0,1,0-48.29,0Z" class="cls-9" transform="translate(11.25 10.94)"/><line x1="1764.05" x2="1764.05" y1="281.16" y2="322.41" class="cls-9"/><line x1="1780.14" x2="1780.14" y1="281.16" y2="322.41" class="cls-9"/><line x1="1796.24" x2="1796.24" y1="281.16" y2="322.41" class="cls-9"/><line x1="1812.34" x2="1812.34" y1="281.16" y2="322.41" class="cls-9"/><circle cx="1171.9" cy="135.97" r="123.24" class="cls-10"/><rect width="593.41" height="173.62" x="1136.11" y="912.27" class="cls-1"/><rect width="418.16" height="254.27" x="38.71" y="397.21" class="cls-11"/><g class="cls-12"><line x1="25.59" x2="25.59" y1="540.22" y2="654.91" class="cls-13"/><line x1="75.66" x2="75.66" y1="540.22" y2="654.91" class="cls-13"/><line x1="125.73" x2="125.73" y1="540.22" y2="654.91" class="cls-13"/><line x1="175.79" x2="175.79" y1="540.22" y2="654.91" class="cls-13"/><line x1="225.86" x2="225.86" y1="540.22" y2="654.91" class="cls-13"/><line x1="275.93" x2="275.93" y1="540.22" y2="654.91" class="cls-13"/><line x1="325.99" x2="325.99" y1="540.22" y2="654.91" class="cls-13"/><line x1="376.06" x2="376.06" y1="540.22" y2="654.91" class="cls-13"/><line x1="426.13" x2="426.13" y1="540.22" y2="654.91" class="cls-13"/><line x1="476.19" x2="476.19" y1="540.22" y2="654.91" class="cls-13"/><line x1="5.14" x2="539.04" y1="576.38" y2="576.38" class="cls-13"/></g><rect width="418.16" height="254.27" x="38.71" y="397.21" class="cls-7"/><rect width="46.19" height="67.99" x="1243.12" y="446.09" class="cls-14"/><path d="M1940.65,39.68h-44.21a32.22,32.22,0,0,0-32.22,32.22v68a21,21,0,0,0,21,21h15.77v34.56h71.93V71.9A32.23,32.23,0,0,0,1940.65,39.68Z" class="cls-15" transform="translate(11.25 10.94)"/><path d="M1940.65,39.68h-44.21a32.22,32.22,0,0,0-32.22,32.22v68a21,21,0,0,0,21,21h15.77v34.56h71.93V71.9A32.23,32.23,0,0,0,1940.65,39.68Z" class="cls-7" transform="translate(11.25 10.94)"/><rect width="129.4" height="117.84" x="1877.84" y="458.54" class="cls-16"/><rect width="71.26" height="117.84" x="1935.99" y="458.54" class="cls-16"/><path d="M2027.31,447.61h-191.7l11.06-87.68.27-132.78a31.78,31.78,0,0,1,31.78-31.72h114.6a34,34,0,0,1,34,34Z" class="cls-16" transform="translate(11.25 10.94)"/><path d="M1538.94,334.91h181.33a41.91,41.91,0,0,1,41.91,41.91v209a0,0,0,0,1,0,0H1538.94a0,0,0,0,1,0,0V334.91A0,0,0,0,1,1538.94,334.91Z" class="cls-17"/><g class="cls-18"><rect width="407.66" height="50.39" x="1448.57" y="428.67" class="cls-6" transform="translate(174.3 1312.3) rotate(-45)"/><line x1="1829.86" x2="1481.44" y1="298.71" y2="647.14" class="cls-19"/></g><path d="M1538.94,334.91h181.33a41.91,41.91,0,0,1,41.91,41.91v209a0,0,0,0,1,0,0H1538.94a0,0,0,0,1,0,0V334.91A0,0,0,0,1,1538.94,334.91Z" class="cls-7"/><rect width="130.27" height="42.17" x="1594.26" y="93.8" class="cls-2"/><path d="M1695.31,711.32h121.77a31.3,31.3,0,0,1,31.3,31.3v93.2a0,0,0,0,1,0,0H1664a0,0,0,0,1,0,0v-93.2A31.3,31.3,0,0,1,1695.31,711.32Z" class="cls-20"/><g class="cls-21"><line x1="1826.61" x2="1826.61" y1="711.32" y2="835.83" class="cls-22"/><line x1="1685.79" x2="1685.79" y1="711.32" y2="835.83" class="cls-22"/></g><path d="M1695.31,711.32h121.77a31.3,31.3,0,0,1,31.3,31.3v93.2a0,0,0,0,1,0,0H1664a0,0,0,0,1,0,0v-93.2A31.3,31.3,0,0,1,1695.31,711.32Z" class="cls-7"/><circle cx="1762.17" cy="594.37" r="109.9" class="cls-16"/><rect width="250.11" height="250.06" x="1789.04" y="835.83" class="cls-6"/><rect width="72.13" height="126.95" x="1844.2" y="958.95" class="cls-5"/><circle cx="1880.27" cy="900.25" r="34" class="cls-23"/><line x1="1880.27" x2="1880.27" y1="934.25" y2="866.24" class="cls-24"/><line x1="1846.26" x2="1914.27" y1="900.25" y2="900.25" class="cls-24"/><rect width="125.03" height="250.06" x="1652.76" y="824.89" class="cls-5" transform="translate(3441.8 1910.79) rotate(180)"/><line x1="1711.51" x2="1762.17" y1="903.09" y2="903.09" class="cls-25"/><line x1="1690.88" x2="1741.55" y1="917.41" y2="917.41" class="cls-25"/><line x1="1999.14" x2="1948.48" y1="916.4" y2="916.4" class="cls-26"/><line x1="2019.77" x2="1969.1" y1="930.72" y2="930.72" class="cls-26"/><path d="M767.36,226.44H911.18a0,0,0,0,1,0,0v0a58.7,58.7,0,0,1-58.7,58.7H767.36a0,0,0,0,1,0,0v-58.7A0,0,0,0,1,767.36,226.44Z" class="cls-5"/><path d="M612,226.44H778.64a0,0,0,0,1,0,0V335.7a0,0,0,0,1,0,0H587.5a0,0,0,0,1,0,0V250.9A24.46,24.46,0,0,1,612,226.44Z" class="cls-3"/><path d="M1788.1,961.17s-57.64-7-88.88,24.24-24.23,88.88-24.23,88.88,57.65,7,88.88-24.24S1788.1,961.17,1788.1,961.17Z" class="cls-27" transform="translate(11.25 10.94)"/><g class="cls-28"><line x1="1686.25" x2="1799.36" y1="1085.22" y2="972.11" class="cls-29"/><line x1="1711.64" x2="1710.52" y1="1059.21" y2="936.69" class="cls-29"/><line x1="1711.64" x2="1834.16" y1="1059.21" y2="1060.32" class="cls-29"/><line x1="1739.02" x2="1737.9" y1="1031.83" y2="909.31" class="cls-29"/><line x1="1739.02" x2="1861.53" y1="1031.83" y2="1032.94" class="cls-29"/></g><path d="M1788.1,961.17s-57.64-7-88.88,24.24-24.23,88.88-24.23,88.88,57.65,7,88.88-24.24S1788.1,961.17,1788.1,961.17Z" class="cls-7" transform="translate(11.25 10.94)"/><rect width="68.44" height="74.44" x="1148.89" y="280.06" class="cls-14"/><path d="M801.84,97.27v91.29a32.61,32.61,0,0,0,32.61,32.62H985.09l67,43.08V186.44h-.21V97.27a32.62,32.62,0,0,0-32.62-32.62H834.45A32.61,32.61,0,0,0,801.84,97.27Z" class="cls-30" transform="translate(11.25 10.94)"/><path d="M1276.31,81.41v92.47a26.26,26.26,0,0,0,26.25,26.26h121.26l54,34.68V172.17h-.17V81.41a26.25,26.25,0,0,0-26.26-26.25H1302.56A26.25,26.25,0,0,0,1276.31,81.41Z" class="cls-31" transform="translate(11.25 10.94)"/><path d="M1509.81,1023.05H1665a31.42,31.42,0,0,1,31.42,31.42v0a31.42,31.42,0,0,1-31.42,31.42H1509.81a0,0,0,0,1,0,0v-62.84A0,0,0,0,1,1509.81,1023.05Z" class="cls-5"/><path d="M1421.86,949.93a62.11,62.11,0,0,0-62.11,62.11v62.87h73.84l.24-62.87h70.54a62.11,62.11,0,0,0,62.11-62.11H1421.86Z" class="cls-32" transform="translate(11.25 10.94)"/><path d="M1421.86,949.93a62.11,62.11,0,0,0-62.11,62.11v62.87h73.84l.24-62.87h70.54a62.11,62.11,0,0,0,62.11-62.11H1421.86Z" class="cls-7" transform="translate(11.25 10.94)"/><rect width="101.38" height="32.43" x="1346.9" y="1069.63" class="cls-3" rx="14.45"/><path d="M1486.59,949.93a62.1,62.1,0,0,0-62.11,62.11v62.87h73.83l.25-62.87h70.54a62.11,62.11,0,0,0,62.11-62.11H1486.59Z" class="cls-33" transform="translate(11.25 10.94)"/><path d="M1486.59,949.93a62.1,62.1,0,0,0-62.11,62.11v62.87h73.83l.25-62.87h70.54a62.11,62.11,0,0,0,62.11-62.11H1486.59Z" class="cls-7" transform="translate(11.25 10.94)"/><rect width="248.58" height="254.58" x="28.58" y="149.17" class="cls-34" transform="translate(317 563.86) rotate(180)"/><rect width="250.24" height="256.24" x="288.42" y="160.11" class="cls-6"/><rect width="51.13" height="81.14" x="341.92" y="204" class="cls-35"/><rect width="51.13" height="81.14" x="436.69" y="204" class="cls-35"/><polyline points="827.77 435.12 1227.93 435.12 1227.93 614.59" class="cls-7"/><polyline points="798.09 464.8 1198.26 464.8 1198.26 644.27" class="cls-7"/><polyline points="767.37 495.52 1167.53 495.52 1167.53 674.99" class="cls-7"/><polygon points="1642.46 960.41 1506.46 960.41 1506.46 821.31 1617.19 821.31 1642.46 960.41" class="cls-14"/><path d="M1145,784.54h288.54a0,0,0,0,1,0,0v24.19a18.38,18.38,0,0,1-18.38,18.38H1163.42A18.38,18.38,0,0,1,1145,808.73V784.54a0,0,0,0,1,0,0Z" class="cls-36"/><path d="M1163.42,614.59H1415.2A18.38,18.38,0,0,1,1433.58,633V784.54a0,0,0,0,1,0,0H1145a0,0,0,0,1,0,0V633A18.38,18.38,0,0,1,1163.42,614.59Z" class="cls-37"/><rect width="69.78" height="106.45" x="1243.12" y="805.82" class="cls-38"/><path d="M1123.09,784.54h288.54a0,0,0,0,1,0,0v24.19a18.38,18.38,0,0,1-18.38,18.38H1141.47a18.38,18.38,0,0,1-18.38-18.38V784.54a0,0,0,0,1,0,0Z" class="cls-38"/><path d="M1141.47,614.59h251.78A18.38,18.38,0,0,1,1411.63,633V784.54a0,0,0,0,1,0,0H1123.09a0,0,0,0,1,0,0V633A18.38,18.38,0,0,1,1141.47,614.59Z" class="cls-36"/><rect width="235.91" height="128.96" x="1149.41" y="635.09"/><polyline points="1188.61 665.17 1171.9 681.89 1188.61 698.6" class="cls-39"/><polyline points="1236.86 665.17 1253.58 681.88 1236.86 698.6" class="cls-39"/><line x1="1204.05" x2="1228.11" y1="698.6" y2="665.39" class="cls-39"/><line x1="1278.01" x2="1369.7" y1="665.54" y2="665.54" class="cls-40"/><line x1="1278.01" x2="1369.7" y1="714.23" y2="714.23" class="cls-40"/><line x1="1297.2" x2="1369.7" y1="681.89" y2="681.89" class="cls-41"/><line x1="1297.2" x2="1369.7" y1="698.6" y2="698.6" class="cls-41"/><line x1="1171.9" x2="1258.63" y1="731.93" y2="731.93" class="cls-39"/><line x1="1278.01" x2="1369.7" y1="731.93" y2="731.93" class="cls-40"/><line x1="1171.9" x2="1258.63" y1="714.74" y2="714.74" class="cls-39"/><path d="M919,622.07l-11-29.38A50.37,50.37,0,0,0,860.84,560h0V779.67h46.7V650.78A23,23,0,0,0,919,622.07Z" class="cls-42" transform="translate(11.25 10.94)"/><path d="M919,622.07l-11-29.38A50.37,50.37,0,0,0,860.84,560h0V779.67h46.7V650.78A23,23,0,0,0,919,622.07Z" class="cls-7" transform="translate(11.25 10.94)"/><path d="M791.05,653.06V755.68H533.86a51,51,0,0,0-51,51v96.72H735.72V824.89h55.9a69.22,69.22,0,0,0,69.22-69.21V653.06Z" class="cls-43" transform="translate(11.25 10.94)"/><path d="M791.05,653.06V755.68H533.86a51,51,0,0,0-51,51v96.72H735.72V824.89h55.9a69.22,69.22,0,0,0,69.22-69.21V653.06Z" class="cls-7" transform="translate(11.25 10.94)"/><path d="M605.52,731.28h70.66a0,0,0,0,1,0,0v35.33a35.33,35.33,0,0,1-35.33,35.33h0a35.33,35.33,0,0,1-35.33-35.33V731.28A0,0,0,0,1,605.52,731.28Z" class="cls-44"/><polygon points="588.87 488.38 639.08 534.54 827.77 534.54 588.87 363.34 588.87 488.38" class="cls-37"/><path d="M445.66,520.2V628.61H27.43V898H337.77V720.35H441.49a85.9,85.9,0,0,0,85.67-79.81h.24V520.2Z" class="cls-32" transform="translate(11.25 10.94)"/><path d="M445.66,520.2V628.61H27.43V898H337.77V720.35H441.49a85.9,85.9,0,0,0,85.67-79.81h.24V520.2Z" class="cls-7" transform="translate(11.25 10.94)"/><rect width="188.69" height="125.87" x="639.08" y="409.51" class="cls-38"/><circle cx="697.72" cy="492.27" r="15.59" class="cls-45"/><circle cx="770.54" cy="492.27" r="15.59" class="cls-45"/><polygon points="681.25 486.31 614.18 486.31 614.18 498.24 681.25 498.24 695.35 492.27 681.25 486.31" class="cls-46"/><rect width="123.71" height="250.06" x="615.51" y="824.89" class="cls-36" transform="translate(1365.99 1910.79) rotate(180)"/><path d="M466.52,835.83H626.77a0,0,0,0,1,0,0v250.06a0,0,0,0,1,0,0H446.7a0,0,0,0,1,0,0V855.65A19.82,19.82,0,0,1,466.52,835.83Z" class="cls-38"/><line x1="474.36" x2="596.47" y1="878.21" y2="878.21" class="cls-47"/><line x1="474.36" x2="596.47" y1="901.58" y2="901.58" class="cls-47"/><line x1="474.36" x2="596.47" y1="924.95" y2="924.95" class="cls-47"/><line x1="474.36" x2="596.47" y1="948.32" y2="948.32" class="cls-47"/><line x1="474.36" x2="596.47" y1="971.69" y2="971.69" class="cls-47"/><line x1="474.36" x2="596.47" y1="995.06" y2="995.06" class="cls-47"/><line x1="474.36" x2="596.47" y1="1018.42" y2="1018.42" class="cls-47"/><line x1="474.36" x2="596.47" y1="1041.79" y2="1041.79" class="cls-47"/><path d="M221.39,589.87H160.1a45.43,45.43,0,0,1-45.44-45.43V473.05a45.43,45.43,0,0,1,45.44-45.43H277.16v86.56C277.16,545,252.19,589.87,221.39,589.87Z" class="cls-3" transform="translate(11.25 10.94)"/><line x1="87.83" x2="210" y1="805.24" y2="805.24" class="cls-39"/><polygon points="126.3 981.09 38.05 981.09 38.05 908.92 106.3 908.92 126.3 981.09" class="cls-48"/><polygon points="126.3 981.09 369.02 981.09 349.02 908.92 106.3 908.92 126.3 981.09" class="cls-49"/><path d="M216.63,898l69.95-26.4a14.72,14.72,0,0,0,9.53-13.79V785a14.72,14.72,0,0,0-9.53-13.79l-69.95-26.41Z" class="cls-48" transform="translate(11.25 10.94)"/><rect width="219.46" height="153.21" x="19.66" y="755.71" class="cls-49" rx="15.16"/><rect width="167.48" height="106.89" x="45.65" y="778.87" class="cls-17" rx="18.87"/><line x1="68.7" x2="142.57" y1="826.38" y2="826.38" class="cls-39"/><line x1="68.7" x2="129.28" y1="843.67" y2="843.67" class="cls-39"/><path d="M152.21,481.88V607h0v21.62l87.31,62V606.75a42.3,42.3,0,0,0,37.76-42.06V481.88Z" class="cls-42" transform="translate(11.25 10.94)"/><path d="M152.21,481.88V607h0v21.62l87.31,62V606.75a42.3,42.3,0,0,0,37.76-42.06V481.88Z" class="cls-7" transform="translate(11.25 10.94)"/><path d="M548.66,442.47H506.11l29.6-29.62a12.69,12.69,0,0,0,0-17.94h0a12.68,12.68,0,0,0-17.93,0l-27.57,27.6,9-32.36a12.68,12.68,0,1,0-24.43-6.8l-10.94,39.3-7.89-33.34a12.67,12.67,0,0,0-15.26-9.42h0a12.68,12.68,0,0,0-9.42,15.26L445.65,456V520.2h78.24a22,22,0,0,0,22-22H495a16.91,16.91,0,0,1-16.91-16.91h0A16.92,16.92,0,0,1,495,464.42h53.68a11,11,0,0,0,0-21.95Z" class="cls-42" transform="translate(11.25 10.94)"/><path d="M548.66,442.47H506.11l29.6-29.62a12.69,12.69,0,0,0,0-17.94h0a12.68,12.68,0,0,0-17.93,0l-27.57,27.6,9-32.36a12.68,12.68,0,1,0-24.43-6.8l-10.94,39.3-7.89-33.34a12.67,12.67,0,0,0-15.26-9.42h0a12.68,12.68,0,0,0-9.42,15.26L445.65,456V520.2h78.24a22,22,0,0,0,22-22H495a16.91,16.91,0,0,1-16.91-16.91h0A16.92,16.92,0,0,1,495,464.42h53.68a11,11,0,0,0,0-21.95Z" class="cls-7" transform="translate(11.25 10.94)"/><line x1="535.81" x2="478.94" y1="453.41" y2="453.41" class="cls-7"/><polygon points="167.51 961.7 159.51 932.82 139.71 932.82 147.72 961.7 167.51 961.7" class="cls-50"/><polygon points="200.77 961.7 192.76 932.82 172.97 932.82 180.97 961.7 200.77 961.7" class="cls-51"/><line x1="217.57" x2="332.63" y1="932.82" y2="932.82" class="cls-52"/><line x1="217.57" x2="332.63" y1="946.84" y2="946.84" class="cls-52"/><line x1="217.57" x2="332.63" y1="960.86" y2="960.86" class="cls-52"/><rect width="408.03" height="117.98" x="38.68" y="981.09" class="cls-49"/><rect width="46.55" height="18.95" x="58.04" y="999.23" class="cls-53"/><rect width="18.95" height="18.95" x="402.23" y="999.23" class="cls-53"/><rect width="18.95" height="18.95" x="367.23" y="999.23" class="cls-53"/><rect width="18.95" height="18.95" x="332.23" y="999.23" class="cls-53"/><rect width="18.95" height="18.95" x="297.23" y="999.23" class="cls-53"/><rect width="18.95" height="18.95" x="262.23" y="999.23" class="cls-53"/><rect width="18.95" height="18.95" x="227.23" y="999.23" class="cls-53"/><rect width="18.95" height="18.95" x="192.23" y="999.23" class="cls-53"/><rect width="18.95" height="18.95" x="157.23" y="999.23" class="cls-53"/><rect width="18.95" height="18.95" x="122.23" y="999.23" class="cls-53"/><rect width="18.95" height="18.95" x="402.23" y="1030.71" class="cls-53"/><rect width="18.95" height="18.95" x="367.23" y="1030.71" class="cls-53"/><rect width="18.95" height="18.95" x="332.23" y="1030.71" class="cls-53"/><rect width="18.95" height="18.95" x="297.23" y="1030.71" class="cls-53"/><rect width="18.95" height="18.95" x="262.23" y="1030.71" class="cls-53"/><rect width="18.95" height="18.95" x="227.23" y="1030.71" class="cls-53"/><rect width="18.95" height="18.95" x="192.23" y="1030.71" class="cls-53"/><rect width="18.95" height="18.95" x="157.23" y="1030.71" class="cls-53"/><rect width="18.95" height="18.95" x="122.23" y="1030.71" class="cls-53"/><rect width="18.95" height="18.95" x="332.63" y="1061.97" class="cls-53"/><rect width="18.95" height="18.95" x="366.77" y="1061.97" class="cls-53"/><rect width="18.95" height="18.95" x="402.35" y="1061.97" class="cls-53"/><circle cx="38.12" cy="1097.94" r="13.17" class="cls-54"/><path d="M158.43,522.28h-9.79a15,15,0,0,0-15,15h0a15,15,0,0,0,15,15h9.79" class="cls-55" transform="translate(11.25 10.94)"/><path d="M217,521.25h29.18a0,0,0,0,1,0,0v18a14.59,14.59,0,0,1-14.59,14.59H217a9.82,9.82,0,0,1-9.82-9.82V531.07A9.82,9.82,0,0,1,217,521.25Z" class="cls-54"/><path d="M262.69,510.31h14.58a14.59,14.59,0,0,1,14.59,14.59v18a0,0,0,0,1,0,0H262.69a9.82,9.82,0,0,1-9.82-9.82V520.13a9.82,9.82,0,0,1,9.82-9.82Z" class="cls-54" transform="translate(555.99 1064.15) rotate(-180)"/><line x1="264.12" x2="246.17" y1="521.25" y2="521.25" class="cls-24"/><line x1="207.17" x2="163.88" y1="529.56" y2="529.56" class="cls-24"/><line x1="264.12" x2="246.17" y1="533.22" y2="533.22" class="cls-24"/><path d="M277.33,528.77a4.32,4.32,0,1,0-8.64,0" class="cls-56" transform="translate(11.25 10.94)"/><path d="M220.86,528.77a4.33,4.33,0,1,0-8.65,0" class="cls-56" transform="translate(11.25 10.94)"/><path d="M252.87,528.31,262,560H239.57v14.81H213.85a12,12,0,0,1-12-12h0" class="cls-24" transform="translate(11.25 10.94)"/><line x1="252.32" x2="193.85" y1="617.93" y2="617.93" class="cls-7"/><rect width="81.75" height="27.19" x="456.91" y="531.14" class="cls-3"/><line x1="654.61" x2="722.91" y1="863.76" y2="863.76" class="cls-7"/><line x1="654.47" x2="722.78" y1="885.76" y2="885.76" class="cls-7"/><line x1="654.47" x2="722.78" y1="907.76" y2="907.76" class="cls-7"/><circle cx="666.68" cy="949.89" r="17.08" class="cls-51"/><circle cx="710.57" cy="949.89" r="17.08" class="cls-50"/><rect width="34.15" height="67.44" x="649.6" y="988.8" class="cls-57"/><path d="M535.32,475.36h79.2a0,0,0,0,1,0,0v33.83a0,0,0,0,1,0,0h-79.2a16.91,16.91,0,0,1-16.91-16.91v0A16.91,16.91,0,0,1,535.32,475.36Z" class="cls-14"/><line x1="614.53" x2="537.47" y1="492.27" y2="492.27" class="cls-56"/><line x1="827.77" x2="639.08" y1="456.73" y2="456.73" class="cls-52"/><line x1="697.72" x2="697.72" y1="499.88" y2="484.67" class="cls-58"/><line x1="690.12" x2="705.33" y1="492.27" y2="492.27" class="cls-58"/><line x1="775.92" x2="765.16" y1="497.65" y2="486.89" class="cls-58"/><line x1="765.16" x2="775.92" y1="497.65" y2="486.89" class="cls-58"/><path d="M235.93,378.16H335.5a0,0,0,0,1,0,0v0a59.61,59.61,0,0,1-59.61,59.61h-40a0,0,0,0,1,0,0V378.16a0,0,0,0,1,0,0Z" class="cls-55"/><rect width="150.13" height="42.57" x="235.93" y="375.76" class="cls-38"/><rect width="28.43" height="81.46" x="207.5" y="356.31" class="cls-3"/><path d="M260.7,331.91h0a0,0,0,0,1,0,0v52.75A12.38,12.38,0,0,1,248.32,397h0a12.38,12.38,0,0,1-12.38-12.38v-28A24.77,24.77,0,0,1,260.7,331.91Z" class="cls-55"/><path d="M261.19,331.91H286a0,0,0,0,1,0,0v52.75A12.38,12.38,0,0,1,273.58,397h0a12.38,12.38,0,0,1-12.38-12.38V331.91A0,0,0,0,1,261.19,331.91Z" class="cls-55"/><path d="M286,331.91h24.77a0,0,0,0,1,0,0v52.75A12.38,12.38,0,0,1,298.35,397h0A12.38,12.38,0,0,1,286,384.66V331.91A0,0,0,0,1,286,331.91Z" class="cls-55"/><path d="M310.73,331.91h.87A23.89,23.89,0,0,1,335.5,355.8v28.85A12.38,12.38,0,0,1,323.11,397h0a12.38,12.38,0,0,1-12.38-12.38V331.91a0,0,0,0,1,0,0Z" class="cls-55"/><path d="M369.27,368.22H414a0,0,0,0,1,0,0v57.64a0,0,0,0,1,0,0H369.27a11.15,11.15,0,0,1-11.15-11.15V379.37A11.15,11.15,0,0,1,369.27,368.22Z" class="cls-38"/><line x1="386.06" x2="386.06" y1="425.86" y2="368.22" class="cls-56"/><polygon points="588.73 363.34 639.08 409.51 827.77 409.51 777.42 363.34 588.73 363.34" class="cls-38"/><path d="M699,573.94a20.59,20.59,0,0,0-19.27,13.37,20.61,20.61,0,0,0-19.28-13.37h0a20.6,20.6,0,0,0-20.6,20.6,20.61,20.61,0,0,0-41.22,0,20.6,20.6,0,0,0-20.6-20.6h0a20.6,20.6,0,0,0-20.61,20.6V794.3h12.88a39.13,39.13,0,0,0,39.13-39.13V620.08h91a19.19,19.19,0,0,0,19.18-19.19v-6.35A20.6,20.6,0,0,0,699,573.94Z" class="cls-15" transform="translate(11.25 10.94)"/><path d="M699,573.94a20.59,20.59,0,0,0-19.27,13.37,20.61,20.61,0,0,0-19.28-13.37h0a20.6,20.6,0,0,0-20.6,20.6,20.61,20.61,0,0,0-41.22,0,20.6,20.6,0,0,0-20.6-20.6h0a20.6,20.6,0,0,0-20.61,20.6V794.3h12.88a39.13,39.13,0,0,0,39.13-39.13V620.08h91a19.19,19.19,0,0,0,19.18-19.19v-6.35A20.6,20.6,0,0,0,699,573.94Z" class="cls-7" transform="translate(11.25 10.94)"/><path d="M637.34,618.36h15.1a66.24,66.24,0,0,1,66.24,66.24v34.76a36.78,36.78,0,0,1-36.78,36.78H604.55A23.64,23.64,0,0,1,580.9,732.5V674.81a56.44,56.44,0,0,1,56.44-56.44Z" class="cls-44" transform="translate(1310.84 1385.44) rotate(-180)"/><path d="M587.65,691.08h-9.79a15,15,0,0,1-15-15h0a15,15,0,0,1,15-15h9.79" class="cls-44" transform="translate(11.25 10.94)"/><circle cx="664.41" cy="678.11" r="20.08" class="cls-54"/><circle cx="717.77" cy="678.11" r="20.08" class="cls-54"/><line x1="717.77" x2="664.41" y1="658.03" y2="658.03" class="cls-24"/><line x1="645.25" x2="590.77" y1="672.09" y2="672.09" class="cls-55"/><circle cx="668.12" cy="678.11" r="6.02"/><circle cx="722.81" cy="678.11" r="6.02"/><path d="M672.57,704.62a10.54,10.54,0,0,1,10.53-10.53h0a10.53,10.53,0,0,1,10.53,10.53" class="cls-24" transform="translate(11.25 10.94)"/><path d="M637.12,716.8c0,8.08,12.66,14.63,28.26,14.63s28.25-6.55,28.25-14.63Z" class="cls-59" transform="translate(11.25 10.94)"/><path d="M860.84,560h0a50.36,50.36,0,0,0-47.15,32.67l-11,29.38a22.94,22.94,0,0,0,21.48,31h36.69Z" class="cls-55" transform="translate(11.25 10.94)"/><path d="M860.79,634.56V589.87h0a24.74,24.74,0,0,0-24.74,24.74v19.95" class="cls-55" transform="translate(11.25 10.94)"/><path d="M860.88,634.56V589.87h0a24.75,24.75,0,0,1,24.75,24.74v19.95" class="cls-55" transform="translate(11.25 10.94)"/><path d="M991.12,758H907.54V706.19H860.88V758h-.09V901.34h166.8V794.49A36.47,36.47,0,0,0,991.12,758Z" class="cls-33" transform="translate(11.25 10.94)"/><path d="M991.12,758H907.54V706.19H860.88V758h-.09V901.34h166.8V794.49A36.47,36.47,0,0,0,991.12,758Z" class="cls-7" transform="translate(11.25 10.94)"/><path d="M949.28,710.29h50.65a0,0,0,0,1,0,0v62.3a25.33,25.33,0,0,1-25.33,25.33h0a25.33,25.33,0,0,1-25.33-25.33v-62.3A0,0,0,0,1,949.28,710.29Z" class="cls-55"/><path d="M949.28,655.74h128.6a0,0,0,0,1,0,0v59.14a36.73,36.73,0,0,1-36.73,36.73H986a36.73,36.73,0,0,1-36.73-36.73V655.74A0,0,0,0,1,949.28,655.74Z" class="cls-55"/><path d="M1033.11,687.61a12.78,12.78,0,0,1-12.78,12.78h0a12.78,12.78,0,0,1-12.77-12.78" class="cls-24" transform="translate(11.25 10.94)"/><circle cx="1031.59" cy="727.03" r="6.83"/><path d="M1007.56,678.59a9.44,9.44,0,1,0-18.88,0" class="cls-24" transform="translate(11.25 10.94)"/><path d="M1052,678.59a9.44,9.44,0,1,0-18.87,0" class="cls-24" transform="translate(11.25 10.94)"/><rect width="172.92" height="22.34" x="949.28" y="633.39" class="cls-60"/><path d="M1006.29,576.38h14.59a57,57,0,0,1,57,57v0a0,0,0,0,1,0,0H949.28a0,0,0,0,1,0,0v0A57,57,0,0,1,1006.29,576.38Z" class="cls-60"/><path d="M949.28,655.74h27a0,0,0,0,1,0,0v21.66a27,27,0,0,1-27,27h0a0,0,0,0,1,0,0v-48.7A0,0,0,0,1,949.28,655.74Z" class="cls-61"/><path d="M970.94,693.5h-7.22a12.17,12.17,0,0,1-12.17-12.18h0a12.17,12.17,0,0,1,12.17-12.17h7.22" class="cls-62" transform="translate(11.25 10.94)"/><rect width="50.55" height="54.27" x="1038.85" y="858" class="cls-31"/><path d="M1078.14,864.59h93.44a0,0,0,0,1,0,0v36.75a0,0,0,0,1,0,0h-56.69a36.75,36.75,0,0,1-36.75-36.75v0A0,0,0,0,1,1078.14,864.59Z" class="cls-55" transform="translate(2260.97 1776.86) rotate(180)"/><path d="M1110.94,883h20.32a18.38,18.38,0,0,1,18.37,18.38h-38.69" class="cls-55" transform="translate(11.25 10.94)"/><rect width="125.16" height="41.56" x="750.48" y="960.71" class="cls-6"/><rect width="128.72" height="42.74" x="877.6" y="958.94" class="cls-6"/><rect width="128.72" height="42.74" x="1005.77" y="958.94" class="cls-6"/><rect width="38.44" height="41.56" x="1114.27" y="949.78" class="cls-60" transform="translate(2278.23 1952.05) rotate(180)"/><rect width="38.44" height="41.56" x="1239.62" y="1032.9" class="cls-60" transform="translate(2528.92 2118.29) rotate(180)"/><rect width="38.44" height="41.56" x="1177.36" y="991.34" class="cls-60" transform="translate(2404.41 2035.17) rotate(180)"/><rect width="125.16" height="41.56" x="750.48" y="1043.83" class="cls-6"/><rect width="128.72" height="42.74" x="877.6" y="1044.42" class="cls-6"/><rect width="125.16" height="41.56" x="1000.27" y="1043.83" class="cls-6"/><rect width="125.16" height="41.56" x="1125.71" y="1043.83" class="cls-6"/><rect width="128.72" height="42.74" x="812.83" y="1001.68" class="cls-6"/><rect width="62.09" height="41.56" x="739.31" y="991.34" class="cls-6" transform="translate(1551.97 2035.17) rotate(180)"/><rect width="128.72" height="42.74" x="941" y="1001.68" class="cls-6"/><rect width="125.16" height="41.56" x="1062.72" y="1002.27" class="cls-6"/><rect width="788.53" height="46.4" x="750.48" y="914.31" class="cls-3"/><circle cx="1397.59" cy="617.48" r="46.76" class="cls-30"/><polyline points="1373.49 617.62 1389.9 634.03 1423.01 600.93" class="cls-13"/><path d="M1455,709.22h109.66a0,0,0,0,1,0,0V818.87a0,0,0,0,1,0,0h-62.4A47.25,47.25,0,0,1,1455,771.62v-62.4A0,0,0,0,1,1455,709.22Z" class="cls-55"/><path d="M1485.86,664h107.49a0,0,0,0,1,0,0v63a0,0,0,0,1,0,0H1435.73a0,0,0,0,1,0,0v-12.9A50.13,50.13,0,0,1,1485.86,664Z" class="cls-8"/><path d="M1559.44,664h29.32a53.71,53.71,0,0,1,53.71,53.71V818.87a0,0,0,0,1,0,0h-83a0,0,0,0,1,0,0V664A0,0,0,0,1,1559.44,664Z" class="cls-8"/><path d="M1520.71,746.89a12.43,12.43,0,0,0-24.86,0" class="cls-24" transform="translate(11.25 10.94)"/><path d="M1470.37,740.68l-4.24,12.22a8.15,8.15,0,0,0,7.69,10.81h13.51" class="cls-24" transform="translate(11.25 10.94)"/><path d="M1469.7,779.67h35a16,16,0,0,0,16-16h0" class="cls-24" transform="translate(11.25 10.94)"/><polygon points="1485.86 664 1485.86 617.48 1532.53 664.14 1485.86 664" class="cls-14"/><polygon points="1579.19 664 1579.19 617.48 1532.53 664.14 1579.19 664" class="cls-14"/><path d="M1473.81,847h58.79a32.64,32.64,0,0,1,32.64,32.64v0a32.64,32.64,0,0,1-32.64,32.64h-58.79a0,0,0,0,1,0,0V847A0,0,0,0,1,1473.81,847Z" class="cls-14"/><path d="M1412.59,866.24h61.22a0,0,0,0,1,0,0v46a0,0,0,0,1,0,0H1366.56a0,0,0,0,1,0,0v0A46,46,0,0,1,1412.59,866.24Z" class="cls-55"/><path d="M955.48,370.87H1245.3a0,0,0,0,1,0,0v152a23.36,23.36,0,0,1-23.36,23.36H978.83a23.36,23.36,0,0,1-23.36-23.36v-152A0,0,0,0,1,955.48,370.87Z" class="cls-5"/><path d="M1065.28,426.22s-19.61-26.6-43.81-26.6-43.8,26.6-43.8,26.6,19.61,26.6,43.8,26.6S1065.28,426.22,1065.28,426.22Z" class="cls-54" transform="translate(11.25 10.94)"/><path d="M1113.56,437.59s19.62-26.81,43.81-26.81,43.81,26.81,43.81,26.81" class="cls-24" transform="translate(11.25 10.94)"/><path d="M1057.89,476.73a31.24,31.24,0,1,0,62.48,0" class="cls-24" transform="translate(11.25 10.94)"/><circle cx="1032.73" cy="437.16" r="15.89" class="cls-63"/><circle cx="1032.73" cy="437.16" r="4.04" class="cls-20"/><path d="M978.89,335.9h243a23.41,23.41,0,0,1,23.41,23.41v11.56a0,0,0,0,1,0,0H955.48a0,0,0,0,1,0,0V359.31A23.41,23.41,0,0,1,978.89,335.9Z" class="cls-3"/><circle cx="979.2" cy="354.5" r="4.71" class="cls-64"/><circle cx="995.89" cy="354.5" r="4.71" class="cls-65"/><circle cx="1011.8" cy="354.5" r="4.71" class="cls-66"/><line x1="671.27" x2="704.85" y1="435.12" y2="435.12" class="cls-67"/><line x1="715.76" x2="749.34" y1="435.12" y2="435.12" class="cls-22"/><line x1="762" x2="795.58" y1="435.12" y2="435.12" class="cls-68"/><rect width="249.6" height="42.09" x="31.46" y="107.08" class="cls-5" transform="translate(323.77 267.19) rotate(180)"/><rect width="250.24" height="42.09" x="288.42" y="118.01" class="cls-3"/><line x1="463.92" x2="514.59" y1="327.92" y2="327.92" class="cls-69"/><line x1="443.3" x2="493.96" y1="342.24" y2="342.24" class="cls-69"/><line x1="202.55" x2="253.21" y1="198.95" y2="198.95" class="cls-26"/><line x1="181.92" x2="232.59" y1="213.28" y2="213.28" class="cls-26"/><line x1="172.82" x2="122.15" y1="281.06" y2="281.06" class="cls-26"/><line x1="193.44" x2="142.78" y1="295.39" y2="295.39" class="cls-26"/><rect width="37.2" height="170.05" x="73.85" y="189.15" class="cls-61"/><circle cx="92.45" cy="131.55" r="75.2" class="cls-11"/><g class="cls-70"><rect width="87.78" height="235.45" x="4.67" y="4.67" class="cls-71"/><line x1="92.45" x2="92.45" y1="206.74" y2="56.35" class="cls-7"/><line x1="92.45" x2="167.65" y1="128.46" y2="91.41" class="cls-52"/><line x1="90.6" x2="165.79" y1="171.68" y2="134.63" class="cls-52"/><line x1="92.45" x2="17.25" y1="128.46" y2="91.41" class="cls-52"/><line x1="94.31" x2="19.11" y1="171.68" y2="134.63" class="cls-52"/></g><circle cx="92.45" cy="131.55" r="75.2" class="cls-7"/><circle cx="2013.96" cy="1033.41" r="68.03" class="cls-11"/><g class="cls-72"><rect width="79.42" height="213.01" x="1934.54" y="918.63" class="cls-71"/><line x1="2013.96" x2="2013.96" y1="1101.45" y2="965.38" class="cls-7"/><line x1="2013.96" x2="2081.99" y1="1030.63" y2="997.1" class="cls-52"/><line x1="2012.28" x2="2080.31" y1="1069.73" y2="1036.2" class="cls-52"/><line x1="2013.96" x2="1945.93" y1="1030.63" y2="997.1" class="cls-52"/><line x1="2015.64" x2="1947.61" y1="1069.73" y2="1036.2" class="cls-52"/></g><circle cx="2013.96" cy="1033.41" r="68.03" class="cls-7"/><rect width="168.35" height="81.46" x="38.82" y="356.31" class="cls-23"/><rect width="250.88" height="269.64" x="1288.5" y="276.58" class="cls-1" rx="28.93"/><rect width="101.38" height="32.43" x="1411.63" y="1069.63" class="cls-3" rx="14.45"/><circle cx="1314.72" cy="302.17" r="4.71" class="cls-64"/><circle cx="1331.41" cy="302.17" r="4.71" class="cls-65"/><circle cx="1347.32" cy="302.17" r="4.71" class="cls-20"/><path d="M1426.57,437.59h-124l-.78,59.11a6.59,6.59,0,0,0,6.82,6.44h188.28C1496.85,466.94,1465.39,437.59,1426.57,437.59Z" class="cls-14" transform="translate(11.25 10.94)"/><path d="M1398.3,404.46H1425a0,0,0,0,1,0,0v47a13.33,13.33,0,0,1-13.33,13.33h0a13.33,13.33,0,0,1-13.33-13.33v-47A0,0,0,0,1,1398.3,404.46Z" class="cls-60"/><path d="M1382,359.2h59.29a0,0,0,0,1,0,0v29.65a29.65,29.65,0,0,1-29.65,29.65h0A29.65,29.65,0,0,1,1382,388.85V359.2A0,0,0,0,1,1382,359.2Z" class="cls-60"/><path d="M1412.11,313.22h-23.46a36.36,36.36,0,0,0-36.36,36.36v59.26a9.22,9.22,0,0,0,9.22,9.22h0a9.22,9.22,0,0,0,9.22-9.22V349.58H1430v59.26a9.22,9.22,0,1,0,18.44,0V349.58A36.35,36.35,0,0,0,1412.11,313.22Z" class="cls-65" transform="translate(11.25 10.94)"/><path d="M1412.11,313.22h-23.46a36.36,36.36,0,0,0-36.36,36.36v59.26a9.22,9.22,0,0,0,9.22,9.22h0a9.22,9.22,0,0,0,9.22-9.22V349.58H1430v59.26a9.22,9.22,0,1,0,18.44,0V349.58A36.35,36.35,0,0,0,1412.11,313.22Z" class="cls-7" transform="translate(11.25 10.94)"/><path d="M1391.73,382a8.65,8.65,0,0,0,17.29,0" class="cls-52" transform="translate(11.25 10.94)"/><path d="M1126.56,256.58h67.28a23.48,23.48,0,0,1,23.48,23.48v0a0,0,0,0,1,0,0H1150a23.48,23.48,0,0,1-23.48-23.48v0A0,0,0,0,1,1126.56,256.58Z" class="cls-60"/><path d="M1219.66,122.28a59,59,0,1,0-90.26,50.07v13.18a9.85,9.85,0,0,0,9.85,9.84H1182a9.84,9.84,0,0,0,9.84-9.84V172.35A59,59,0,0,0,1219.66,122.28Z" class="cls-73" transform="translate(11.25 10.94)"/><path d="M1219.66,122.28a59,59,0,1,0-90.26,50.07v13.18a9.85,9.85,0,0,0,9.85,9.84H1182a9.84,9.84,0,0,0,9.84-9.84V172.35A59,59,0,0,0,1219.66,122.28Z" class="cls-13" transform="translate(11.25 10.94)"/><line x1="1137.56" x2="1206.33" y1="231.44" y2="231.44" class="cls-74"/><path d="M1152.57,88a34.26,34.26,0,0,0-34.26,34.26" class="cls-75" transform="translate(11.25 10.94)"/><path d="M649.83,110.42v58.91h-.07V203.5a34.16,34.16,0,0,0,34.16,34.16h0a34.16,34.16,0,0,0,34.15-33.83,34.64,34.64,0,0,0,27.6-33.9V110.42Z" class="cls-73" transform="translate(11.25 10.94)"/><path d="M649.83,110.42v58.91h-.07V203.5a34.16,34.16,0,0,0,34.16,34.16h0a34.16,34.16,0,0,0,34.15-33.83,34.64,34.64,0,0,0,27.6-33.9V110.42Z" class="cls-7" transform="translate(11.25 10.94)"/><path d="M679.41,135.4a12.87,12.87,0,1,0,25.74,0" class="cls-52" transform="translate(11.25 10.94)"/><polyline points="735.46 146.34 735.46 176.75 716.4 176.75" class="cls-52"/><path d="M724.2,178.45H701.9a12.64,12.64,0,0,1-12.64-12.64h0" class="cls-52" transform="translate(11.25 10.94)"/><path d="M895.64,41.5h1.15a0,0,0,0,1,0,0V82.58A10.32,10.32,0,0,1,886.47,92.9h-1.15A10.32,10.32,0,0,1,875,82.58V62.14A20.64,20.64,0,0,1,895.64,41.5Z" class="cls-55"/><path d="M897.22,41.5H919a0,0,0,0,1,0,0V82.58A10.32,10.32,0,0,1,908.69,92.9h-1.15a10.32,10.32,0,0,1-10.32-10.32V41.5a0,0,0,0,1,0,0Z" class="cls-55"/><path d="M919,41.5H940.8a0,0,0,0,1,0,0V82.58A10.32,10.32,0,0,1,930.48,92.9h-1.15A10.32,10.32,0,0,1,919,82.58V41.5a0,0,0,0,1,0,0Z" class="cls-55"/><path d="M940.8,41.5h1.88a19.91,19.91,0,0,1,19.91,19.91V82.58A10.32,10.32,0,0,1,952.27,92.9h-1.15A10.32,10.32,0,0,1,940.8,82.58V41.5A0,0,0,0,1,940.8,41.5Z" class="cls-55"/><path d="M857.34,272.35h69.37a7.93,7.93,0,0,1,7.93,7.93v0a7.93,7.93,0,0,1-7.93,7.93H857.34a0,0,0,0,1,0,0V272.35A0,0,0,0,1,857.34,272.35Z" class="cls-5"/><path d="M862.45,288.21h69.37a7.93,7.93,0,0,1,7.93,7.93v0a7.93,7.93,0,0,1-7.93,7.93H862.45a0,0,0,0,1,0,0V288.21A0,0,0,0,1,862.45,288.21Z" class="cls-5"/><path d="M862.45,304.07h69.37a7.93,7.93,0,0,1,7.93,7.93v0a7.93,7.93,0,0,1-7.93,7.93H862.45a0,0,0,0,1,0,0V304.07A0,0,0,0,1,862.45,304.07Z" class="cls-5"/><path d="M857.34,319.92h69.37a7.93,7.93,0,0,1,7.93,7.93v0a7.93,7.93,0,0,1-7.93,7.93H857.34a0,0,0,0,1,0,0V319.92A0,0,0,0,1,857.34,319.92Z" class="cls-5"/><path d="M876.13,324.77H641.53c-19.23,0-34.82-14.19-34.82-31.68h0c0-17.49,15.59-31.68,34.82-31.68h234.6" class="cls-73" transform="translate(11.25 10.94)"/><g class="cls-76"><line x1="682.84" x2="682.84" y1="272.35" y2="333.05" class="cls-77"/><line x1="703.54" x2="703.54" y1="272.35" y2="333.05" class="cls-78"/><polyline points="809.83 272.35 801.83 284.48 809.83 296.63 801.83 308.76 809.83 320.91 801.83 333.05" class="cls-24"/><path d="M735.36,294.86S724,284.12,718.08,284.12a10.74,10.74,0,1,0,0,21.47C724,305.59,735.36,294.86,735.36,294.86Z" class="cls-24" transform="translate(11.25 10.94)"/><path d="M735.36,294.86s11.35-10.74,17.28-10.74a10.74,10.74,0,1,1,0,21.47C746.71,305.59,735.36,294.86,735.36,294.86Z" class="cls-24" transform="translate(11.25 10.94)"/><circle cx="842.39" cy="304.03" r="13.31" class="cls-77"/></g><path d="M876.13,324.77H641.53c-19.23,0-34.82-14.19-34.82-31.68h0c0-17.49,15.59-31.68,34.82-31.68h234.6" class="cls-7" transform="translate(11.25 10.94)"/><path d="M749.44,6h0a0,0,0,0,1,0,0v94.53a0,0,0,0,1,0,0H719.33a0,0,0,0,1,0,0V36.11A30.11,30.11,0,0,1,749.44,6Z" class="cls-3" transform="translate(38.93 -142.51) rotate(12.16)"/><path d="M729.33,16.94h0a0,0,0,0,1,0,0V91.46a0,0,0,0,1,0,0H699.22a0,0,0,0,1,0,0V47A30.11,30.11,0,0,1,729.33,16.94Z" class="cls-3"/><path d="M686.55,11.51h0a0,0,0,0,1,0,0V86a0,0,0,0,1,0,0H656.44a0,0,0,0,1,0,0V41.63a30.11,30.11,0,0,1,30.11-30.11Z" class="cls-3" transform="translate(12.46 122.93) rotate(-9.54)"/><path d="M658.06,15.54h0a0,0,0,0,1,0,0V90.07a0,0,0,0,1,0,0H628a0,0,0,0,1,0,0V45.65a30.11,30.11,0,0,1,30.11-30.11Z" class="cls-3" transform="translate(38.11 255.08) rotate(-21.95)"/><path d="M638,26h0a0,0,0,0,1,0,0v74.53a0,0,0,0,1,0,0H607.89a0,0,0,0,1,0,0V56.11A30.11,30.11,0,0,1,638,26Z" class="cls-3" transform="translate(182.27 507.58) rotate(-49.6)"/><path d="M614.62,48.76h0a0,0,0,0,1,0,0v74.53a0,0,0,0,1,0,0H584.51a0,0,0,0,1,0,0V78.87a30.11,30.11,0,0,1,30.11-30.11Z" class="cls-3" transform="translate(337.72 637.6) rotate(-71.37)"/><polygon points="624.41 85.64 756.92 85.64 756.92 121.36 661.09 121.36 624.41 85.64" class="cls-79"/><g class="cls-80"><line x1="651.08" x2="760.1" y1="103.62" y2="103.62" class="cls-81"/></g><polygon points="624.41 85.64 756.92 85.64 756.92 121.36 661.09 121.36 624.41 85.64" class="cls-7"/><path d="M654.5,98.29l-76,132.92h51.83A24.22,24.22,0,0,0,654.5,207Z" class="cls-20" transform="translate(11.25 10.94)"/><g class="cls-82"><rect width="105.37" height="91.41" x="589.8" y="95.41" class="cls-79"/></g><path d="M654.5,98.29l-76,132.92h51.83A24.22,24.22,0,0,0,654.5,207Z" class="cls-7" transform="translate(11.25 10.94)"/><circle cx="640.85" cy="109.23" r="24.9" class="cls-3"/><circle cx="640.85" cy="109.23" r="11.05" class="cls-32"/><path d="M1815.59,601.05h-105v75.49h-.08v60.37a34,34,0,0,0,34,34h0a34,34,0,0,0,34-34V699.15h7.12a44,44,0,0,0,44-44V615.09A14,14,0,0,0,1815.59,601.05Z" class="cls-15" transform="translate(11.25 10.94)"/><path d="M1815.59,601.05h-105v75.49h-.08v60.37a34,34,0,0,0,34,34h0a34,34,0,0,0,34-34V699.15h7.12a44,44,0,0,0,44-44V615.09A14,14,0,0,0,1815.59,601.05Z" class="cls-7" transform="translate(11.25 10.94)"/><path d="M1716.65,632.29H1707a13.66,13.66,0,0,0,0,27.32h9.67" class="cls-61" transform="translate(11.25 10.94)"/><path d="M1788.78,669.86a15.26,15.26,0,0,0,0-30.52" class="cls-24" transform="translate(11.25 10.94)"/><path d="M1777.13,639.34a15.19,15.19,0,0,0-30.38,0" class="cls-24" transform="translate(11.25 10.94)"/><path d="M1749.92,680.8h39.84a0,0,0,0,1,0,0v17.8a0,0,0,0,1,0,0h-22a17.8,17.8,0,0,1-17.8-17.8v0A0,0,0,0,1,1749.92,680.8Z" class="cls-59"/><path d="M1909.3,656.18a27.64,27.64,0,0,0-27.65,27.64v37h-44.52v52.72h47a52.71,52.71,0,0,0,52.66-50.5h.06V683.82h14a27.64,27.64,0,0,0,27.65-27.64Z" class="cls-15" transform="translate(11.25 10.94)"/><path d="M1909.3,656.18a27.64,27.64,0,0,0-27.65,27.64v37h-44.52v52.72h47a52.71,52.71,0,0,0,52.66-50.5h.06V683.82h14a27.64,27.64,0,0,0,27.65-27.64Z" class="cls-7" transform="translate(11.25 10.94)"/><path d="M1620.11,179.54V325l63.89,53V287.72a44,44,0,0,0,34.27-42.87V179.54Z" class="cls-15" transform="translate(11.25 10.94)"/><path d="M1620.11,179.54V325l63.89,53V287.72a44,44,0,0,0,34.27-42.87V179.54Z" class="cls-7" transform="translate(11.25 10.94)"/><path d="M1715.83,124.94H1573.09A29.14,29.14,0,0,0,1544,154.08v21.36a41.39,41.39,0,0,0-20.69,54.36,41.38,41.38,0,0,0,.82,72.15,38.28,38.28,0,0,0,24.1,45.52,39.41,39.41,0,0,0,35.17,21.64h0a39.4,39.4,0,0,0,39.41-39.41V183h108a14.13,14.13,0,0,0,14.13-14.12V154A29,29,0,0,0,1715.83,124.94Z" class="cls-83" transform="translate(11.25 10.94)"/><path d="M1715.83,124.94H1573.09A29.14,29.14,0,0,0,1544,154.08v21.36a41.39,41.39,0,0,0-20.69,54.36,41.38,41.38,0,0,0,.82,72.15,38.28,38.28,0,0,0,24.1,45.52,39.41,39.41,0,0,0,35.17,21.64h0a39.4,39.4,0,0,0,39.41-39.41V183h108a14.13,14.13,0,0,0,14.13-14.12V154A29,29,0,0,0,1715.83,124.94Z" class="cls-7" transform="translate(11.25 10.94)"/><polygon points="1802.18 62.14 1516.61 62.14 1526.86 98.96 1791.93 98.96 1802.18 62.14" class="cls-2"/><path d="M1670.68,264h39.84a0,0,0,0,1,0,0v0a17.8,17.8,0,0,1-17.8,17.8h-4.23a17.8,17.8,0,0,1-17.8-17.8v0A0,0,0,0,1,1670.68,264Z" class="cls-59"/><path d="M1712,208.89c0,.68,10.35,22.09,17,35.77a7.81,7.81,0,0,1-7,11.22h-11.31" class="cls-61" transform="translate(11.25 10.94)"/><path d="M1674.89,212a10.72,10.72,0,0,0,21.44,0" class="cls-84" transform="translate(11.25 10.94)"/><rect width="9.21" height="31.13" x="1714.3" y="211.77" class="cls-15"/><polyline points="1539.1 439 1539.1 545.89 1613.77 545.89 1613.77 439" class="cls-2"/><path d="M1539.1,545.9h74.68a0,0,0,0,1,0,0v0A53.15,53.15,0,0,1,1560.62,599H1539.1a0,0,0,0,1,0,0V545.9A0,0,0,0,1,1539.1,545.9Z" class="cls-61"/><line x1="877.99" x2="1032.96" y1="827.11" y2="827.11" class="cls-13"/><line x1="877.99" x2="1032.96" y1="851.39" y2="851.39" class="cls-13"/><line x1="877.99" x2="1032.96" y1="875.66" y2="875.66" class="cls-13"/><polygon points="1912.2 206.37 1912.2 354.68 1984.12 206.37 1912.2 206.37" class="cls-20"/><g class="cls-85"><polygon points="1954.76 356.56 1910.12 356.56 1910.12 233.3 1927.83 233.3 1954.76 356.56" class="cls-73"/><polygon points="1947.11 207.82 1910.12 207.82 1910.12 233.3 1927.83 233.3 1947.11 207.82" class="cls-73"/></g><polygon points="1912.2 206.37 1912.2 354.68 1984.12 206.37 1912.2 206.37" class="cls-7"/><line x1="1972.02" x2="2004.51" y1="275.33" y2="275.33" class="cls-13"/><circle cx="1911.16" cy="410.42" r="4.98"/><circle cx="1911.16" cy="382.33" r="4.98"/><polyline points="2038.2 293.58 2038.2 391.1 1988.67 391.1 1988.67 293.58" class="cls-16"/><rect width="50.38" height="19.74" x="1988.77" y="391.1" class="cls-3"/><path d="M1988.77,410.84h50.38a0,0,0,0,1,0,0v47.7a0,0,0,0,1,0,0h-2.68a47.7,47.7,0,0,1-47.7-47.7v0A0,0,0,0,1,1988.77,410.84Z" class="cls-61"/><g class="cls-86"><polygon points="1877.84 458.8 2009.96 458.8 2009.96 491.32 1877.84 470.8 1877.84 458.8"/></g><g class="cls-86"><polygon points="1670.78 839.58 2039.23 839.58 2039.23 902.01 1670.78 851.58 1670.78 839.58"/></g><path d="M1960.76,81.29h12.11c9,0,16.24,7.65,16.24,17.1s-7.27,17.11-16.24,17.11h-12.11" class="cls-61" transform="translate(11.25 10.94)"/><path d="M1908.87,53.95h41.86a33.4,33.4,0,0,1,33.4,33.4v1.38a0,0,0,0,1,0,0H1875.47a0,0,0,0,1,0,0V87.34A33.4,33.4,0,0,1,1908.87,53.95Z"/><rect width="15.26" height="28.21" x="1956.76" y="84.24"/><path d="M1894.56,111.5a10,10,0,1,0,0,20" class="cls-84" transform="translate(11.25 10.94)"/><path d="M1928.46,107.37a9.14,9.14,0,0,0-18.28,0" class="cls-84" transform="translate(11.25 10.94)"/><path d="M1886.31,142.85h24.4a16.54,16.54,0,0,0,16.54-16.54h0" class="cls-84" transform="translate(11.25 10.94)"/><line x1="1911.16" x2="1954.54" y1="171.81" y2="171.81" class="cls-16"/><rect width="146.63" height="30.01" x="1642.46" y="805.82" class="cls-60"/><rect width="271.75" height="30.01" x="1777.83" y="794.89" class="cls-3" transform="translate(3838.67 1630.72) rotate(180)"/><line x1="698.36" x2="698.36" y1="988.8" y2="1056.24" class="cls-52"/><line x1="723.65" x2="723.65" y1="988.8" y2="1056.24" class="cls-52"/><line x1="710.57" x2="710.57" y1="988.8" y2="1056.24" class="cls-52"/><rect width="157.9" height="18.95" x="157.8" y="1061.97" class="cls-53"/><polyline points="167.41 818.31 184.12 835.03 167.41 851.74" class="cls-39"/><circle cx="827.77" cy="434.63" r="13.17" class="cls-54"/><circle cx="1243.12" cy="914.31" r="13.17" class="cls-54"/><circle cx="1539.37" cy="441.04" r="13.17" class="cls-54"/><line x1="1063.36" x2="1063.36" y1="275.2" y2="335.7" class="cls-7"/><circle cx="1062.86" cy="331.91" r="13.17" class="cls-54"/><g class="cls-86"><polygon points="763.39 912.27 839.86 1081.91 751.39 1081.91 751.39 912.27 763.39 912.27"/></g><path d="M391.1,970.56V799.94a20.26,20.26,0,0,1,20.26-20.27h79.26" class="cls-7" transform="translate(11.25 10.94)"/><circle cx="402.35" cy="912.27" r="13.17" class="cls-54"/><path d="M929.54,192.14a102.45,102.45,0,0,0-81.36,0V125a102.45,102.45,0,0,1,81.36,0Z" class="cls-66" transform="translate(11.25 10.94)"/><path d="M929.54,192.14a102.45,102.45,0,0,0-81.36,0V125a102.45,102.45,0,0,1,81.36,0Z" class="cls-87" transform="translate(11.25 10.94)"/><path d="M929.54,192.14a102.48,102.48,0,0,1,81.37,0V125a102.48,102.48,0,0,0-81.37,0Z" class="cls-66" transform="translate(11.25 10.94)"/><path d="M929.54,192.14a102.48,102.48,0,0,1,81.37,0V125a102.48,102.48,0,0,0-81.37,0Z" class="cls-87" transform="translate(11.25 10.94)"/><path d="M929.54,176.18a102.45,102.45,0,0,0-81.36,0V109.07a102.45,102.45,0,0,1,81.36,0Z" class="cls-20" transform="translate(11.25 10.94)"/><path d="M929.54,176.18a102.45,102.45,0,0,0-81.36,0V109.07a102.45,102.45,0,0,1,81.36,0Z" class="cls-87" transform="translate(11.25 10.94)"/><path d="M929.54,176.18a102.48,102.48,0,0,1,81.37,0V109.07a102.48,102.48,0,0,0-81.37,0Z" class="cls-20" transform="translate(11.25 10.94)"/><path d="M929.54,176.18a102.48,102.48,0,0,1,81.37,0V109.07a102.48,102.48,0,0,0-81.37,0Z" class="cls-87" transform="translate(11.25 10.94)"/><circle cx="1388.29" cy="139.55" r="48.67" class="cls-88"/><ellipse cx="1388.29" cy="139.55" class="cls-88" rx="25.68" ry="48.67"/><ellipse cx="1388.29" cy="139.55" class="cls-88" rx="48.67" ry="25.68"/><line x1="1388.29" x2="1388.29" y1="188.22" y2="91.03" class="cls-88"/><line x1="1339.7" x2="1436.89" y1="139.63" y2="139.63" class="cls-88"/><circle cx="1678.61" cy="1084.77" r="13.17" class="cls-54"/><rect width="34.01" height="34.01" x="1863.26" y="982.08" class="cls-89"/><rect width="118.96" height="117.14" x="1939.29" y="531.43" class="cls-3"/><rect width="136.52" height="134.7" x="1921.73" y="531.43" class="cls-90"/><path d="M1960.52,561.89v24.54h-6V571.71l-5.48,14.72h-4.83l-5.52-14.75v14.75h-6V561.89h7l6.89,17,6.81-17Z" class="cls-20" transform="translate(11.25 10.94)"/><path d="M1985.6,561.89l-8.49,16.43v8.11h-6v-8.11l-8.49-16.43h6.78l4.76,10.28,4.71-10.28Z" class="cls-20" transform="translate(11.25 10.94)"/><path d="M1933,612.92q3.42-2.83,5.39-4.65a22.15,22.15,0,0,0,3.34-3.81,6.89,6.89,0,0,0,1.37-3.88,3.41,3.41,0,0,0-.67-2.23,2.75,2.75,0,0,0-4.07.19,4.58,4.58,0,0,0-.75,2.81h-5.77a9.87,9.87,0,0,1,1.28-5,7.37,7.37,0,0,1,3.18-2.94,10,10,0,0,1,4.38-.94q4.17,0,6.28,2.13a7.54,7.54,0,0,1,2.11,5.56,10.89,10.89,0,0,1-2.55,6.93,37.09,37.09,0,0,1-6.5,6.24h9.43v4.86h-17.54v-4.44Z" class="cls-20" transform="translate(11.25 10.94)"/><path d="M1954.41,596c1.55-2.3,4-3.46,7.5-3.46s5.95,1.16,7.5,3.46,2.32,5.47,2.32,9.48-.78,7.23-2.32,9.54-4.05,3.46-7.5,3.46-6-1.16-7.5-3.46-2.32-5.49-2.32-9.54S1952.86,598.31,1954.41,596Zm10.68,4a3.61,3.61,0,0,0-6.36,0,15.14,15.14,0,0,0-.77,5.44,22.52,22.52,0,0,0,.28,3.93,5,5,0,0,0,1.14,2.51,3.81,3.81,0,0,0,5.06,0,5.08,5.08,0,0,0,1.14-2.51,23.55,23.55,0,0,0,.28-3.93A15.14,15.14,0,0,0,1965.09,600Z" class="cls-20" transform="translate(11.25 10.94)"/><path d="M1977.13,594.5a9.17,9.17,0,0,1,6.26-2,10.27,10.27,0,0,1,4.49.9,6.43,6.43,0,0,1,3.79,6,5.79,5.79,0,0,1-3.84,5.74v.14a6.24,6.24,0,0,1,3.14,2.2,6.39,6.39,0,0,1,1.16,3.95,7.3,7.3,0,0,1-1,3.82,6.77,6.77,0,0,1-2.9,2.61,10.09,10.09,0,0,1-4.53.94,10.23,10.23,0,0,1-6.69-2.06,8,8,0,0,1-2.64-6.22h5.81a3.53,3.53,0,0,0,.87,2.43,3.2,3.2,0,0,0,2.44.89,2.78,2.78,0,0,0,2.12-.79,2.89,2.89,0,0,0,.75-2.08,2.77,2.77,0,0,0-1.07-2.43,6,6,0,0,0-3.4-.75h-1.12v-4.86h1.12a5.86,5.86,0,0,0,2.88-.61,2.27,2.27,0,0,0,1.1-2.18,2.64,2.64,0,0,0-.7-2,2.6,2.6,0,0,0-1.92-.7,2.36,2.36,0,0,0-2,.81,3.53,3.53,0,0,0-.76,2h-5.83A7.7,7.7,0,0,1,1977.13,594.5Z" class="cls-20" transform="translate(11.25 10.94)"/><path d="M1997.58,596c1.55-2.3,4.05-3.46,7.49-3.46s6,1.16,7.5,3.46,2.32,5.47,2.32,9.48-.77,7.23-2.32,9.54-4,3.46-7.5,3.46-5.94-1.16-7.49-3.46-2.33-5.49-2.33-9.54S1996,598.31,1997.58,596Zm10.67,4a3.61,3.61,0,0,0-6.36,0,15.14,15.14,0,0,0-.77,5.44,23.55,23.55,0,0,0,.28,3.93,5.08,5.08,0,0,0,1.14,2.51,3.83,3.83,0,0,0,5.07,0,5,5,0,0,0,1.13-2.51,22.52,22.52,0,0,0,.28-3.93A14.92,14.92,0,0,0,2008.25,600Z" class="cls-20" transform="translate(11.25 10.94)"/><line x1="1942.32" x2="2026.28" y1="641.57" y2="641.57" class="cls-69"/><line x1="1941.82" x2="1997.53" y1="562.05" y2="562.05" class="cls-69"/><polygon points="2075.81 513.87 2075.81 648.57 2058.25 648.57 2058.25 531.43 1921.73 531.43 1939.29 513.87 2075.81 513.87" class="cls-3"/><polygon points="2041.47 584.37 2025.36 570.08 2009.24 584.37 2009.24 529.43 2041.47 529.43 2041.47 584.37" class="cls-91"/><path d="M2072.39,687.43h17.85a0,0,0,0,1,0,0v0a33.68,33.68,0,0,1-33.68,33.68h-17.85a0,0,0,0,1,0,0v0a33.68,33.68,0,0,1,33.68-33.68Z" class="cls-4"/><path d="M1975.63,676.5h17.85a33.68,33.68,0,0,1,33.68,33.68v0a0,0,0,0,1,0,0h-17.85a33.68,33.68,0,0,1-33.68-33.68v0A0,0,0,0,1,1975.63,676.5Z" class="cls-4" transform="translate(4014.05 1397.6) rotate(180)"/><path d="M2072.39,748.17h17.85a0,0,0,0,1,0,0v0a33.68,33.68,0,0,1-33.68,33.68h-17.85a0,0,0,0,1,0,0v0A33.68,33.68,0,0,1,2072.39,748.17Z" class="cls-4"/><path d="M1975.63,737.23h17.85a33.68,33.68,0,0,1,33.68,33.68v0a0,0,0,0,1,0,0h-17.85a33.68,33.68,0,0,1-33.68-33.68v0A0,0,0,0,1,1975.63,737.23Z" class="cls-4" transform="translate(4014.05 1519.07) rotate(-180)"/></g></g></svg>