<svg xmlns="http://www.w3.org/2000/svg" xmlns:xlink="http://www.w3.org/1999/xlink" viewBox="0 0 2187.16 1127.85"><defs><style>.cls-1,.cls-11,.cls-50{fill:#03add8}.cls-1,.cls-16,.cls-18,.cls-19,.cls-2,.cls-22,.cls-23,.cls-27,.cls-28,.cls-29,.cls-37,.cls-38,.cls-39,.cls-4,.cls-43,.cls-44,.cls-5,.cls-58,.cls-6,.cls-64,.cls-7,.cls-9{stroke:#000}.cls-1,.cls-10,.cls-13,.cls-14,.cls-16,.cls-18,.cls-19,.cls-2,.cls-22,.cls-23,.cls-24,.cls-25,.cls-26,.cls-27,.cls-28,.cls-29,.cls-30,.cls-35,.cls-37,.cls-38,.cls-39,.cls-4,.cls-42,.cls-43,.cls-44,.cls-45,.cls-47,.cls-48,.cls-49,.cls-5,.cls-50,.cls-51,.cls-52,.cls-53,.cls-54,.cls-55,.cls-56,.cls-58,.cls-59,.cls-6,.cls-60,.cls-64,.cls-66,.cls-67,.cls-7,.cls-8,.cls-9{stroke-linejoin:round}.cls-1,.cls-18,.cls-19,.cls-2,.cls-24,.cls-25,.cls-27,.cls-28,.cls-29,.cls-30,.cls-35,.cls-37,.cls-38,.cls-4,.cls-42,.cls-44,.cls-47,.cls-5,.cls-53,.cls-55,.cls-56,.cls-58,.cls-59,.cls-6,.cls-60,.cls-7,.cls-9{stroke-width:12px}.cls-2,.cls-20{fill:#269b48}.cls-13,.cls-23,.cls-25,.cls-3,.cls-42,.cls-49,.cls-51,.cls-54,.cls-59,.cls-64,.cls-66,.cls-67,.cls-7,.cls-8{fill:none}.cls-33,.cls-4{fill:#289b48}.cls-16,.cls-24,.cls-26,.cls-31,.cls-43,.cls-45,.cls-47,.cls-5,.cls-55{fill:#fff}.cls-14,.cls-15,.cls-22,.cls-30,.cls-39,.cls-6,.cls-62{fill:#fcb615}.cls-45,.cls-48,.cls-49,.cls-8{stroke:#fcb615}.cls-10,.cls-13,.cls-14,.cls-23,.cls-26,.cls-39,.cls-43,.cls-45,.cls-50,.cls-51,.cls-52,.cls-54,.cls-66,.cls-67,.cls-8{stroke-width:6px}.cls-48,.cls-52,.cls-53,.cls-56,.cls-9{fill:#ef3f2c}.cls-10,.cls-44{fill:#01568b}.cls-10,.cls-13,.cls-14,.cls-30,.cls-35,.cls-50,.cls-51,.cls-52{stroke:#fff}.cls-12{clip-path:url(#clip-path)}.cls-16{stroke-width:8px}.cls-17{opacity:.3}.cls-18,.cls-36{fill:#c31e33}.cls-19{fill:#8f1738}.cls-21{clip-path:url(#clip-path-2)}.cls-22{stroke-width:9.34px}.cls-24,.cls-25,.cls-26,.cls-53,.cls-54{stroke:#02aed9}.cls-27,.cls-35{fill:#02558b}.cls-28{fill:#e11584}.cls-29{fill:#901a39}.cls-32{clip-path:url(#clip-path-3)}.cls-34{clip-path:url(#clip-path-4)}.cls-37,.cls-41{fill:#017dbc}.cls-38{fill:#02aed9}.cls-40{clip-path:url(#clip-path-5)}.cls-42,.cls-67{stroke:#289b48}.cls-46{clip-path:url(#clip-path-6)}.cls-47{stroke:#02558b}.cls-48,.cls-49{stroke-width:10px}.cls-51,.cls-59{stroke-linecap:round}.cls-55,.cls-56,.cls-60{stroke:#03add8}.cls-57{clip-path:url(#clip-path-7)}.cls-59{stroke:#fdb715;stroke-dasharray:0 23.78}.cls-60{fill:#ff3b22}.cls-61{clip-path:url(#clip-path-8)}.cls-62{opacity:.4}.cls-63{clip-path:url(#clip-path-9)}.cls-64{stroke-width:5.35px}.cls-65{clip-path:url(#clip-path-10)}.cls-66{stroke:#ef3f2c}</style><clipPath id="clip-path" transform="translate(39.54)"><rect width="612.08" height="217.76" x="318.95" y="792.38" class="cls-1"/></clipPath><clipPath id="clip-path-2" transform="translate(39.54)"><circle cx="839.83" cy="229.78" r="67.53" class="cls-2"/></clipPath><clipPath id="clip-path-3" transform="translate(39.54)"><circle cx="716.39" cy="833.32" r="67.53" class="cls-2"/></clipPath><clipPath id="clip-path-4" transform="translate(39.54)"><path d="M772.06,908.17s42.66-5.18,65.78,17.93,17.93,65.78,17.93,65.78-42.66,5.18-65.78-17.94S772.06,908.17,772.06,908.17Z" class="cls-4"/></clipPath><clipPath id="clip-path-5" transform="translate(39.54)"><path d="M1156.88,511.64A46.26,46.26,0,0,1,1133.2,552v73.45H948.87V552a46.28,46.28,0,0,1,0-80.79V423.06H1133.2v48.18a46.36,46.36,0,0,1,23.68,40.4Z" class="cls-5"/></clipPath><clipPath id="clip-path-6" transform="translate(39.54)"><path d="M6.5,986s42.66-5.18,65.77,17.93,17.93,65.77,17.93,65.77-42.66,5.19-65.77-17.93S6.5,986,6.5,986Z" class="cls-4"/></clipPath><clipPath id="clip-path-7" transform="translate(39.54)"><path d="M1817.64,966.43s-52.43-6.37-80.85,22-22,80.85-22,80.85,52.44,6.37,80.85-22S1817.64,966.43,1817.64,966.43Z" class="cls-4"/></clipPath><clipPath id="clip-path-8" transform="translate(39.54)"><path d="M1428.54,768.61h174.21a0,0,0,0,1,0,0v180A43.76,43.76,0,0,1,1559,992.37H1428.54a0,0,0,0,1,0,0V768.61A0,0,0,0,1,1428.54,768.61Z" class="cls-6" transform="translate(3031.29 1760.98) rotate(180)"/></clipPath><clipPath id="clip-path-9" transform="translate(39.54)"><circle cx="2069.86" cy="733.75" r="67.53" class="cls-2"/></clipPath><clipPath id="clip-path-10" transform="translate(39.54)"><rect width="91.06" height="42.06" x="1152.54" y="429.06" class="cls-3"/></clipPath></defs><g id="Layer_2" data-name="Layer 2"><g id="sdg5"><rect width="2000.63" height="1000.26" x="128.85" y="70.7" class="cls-7"/><rect width="61.44" height="16.09" x="161.64" y="615.48" class="cls-8"/><rect width="61.44" height="16.09" x="192.36" y="599.4" class="cls-8"/><rect width="250.09" height="189.34" x="1878.97" y="258.25" class="cls-6"/><path d="M1878.38,229.8h50.18a0,0,0,0,1,0,0v81.31a23.71,23.71,0,0,1-23.71,23.71h-2.76a23.71,23.71,0,0,1-23.71-23.71V229.8a0,0,0,0,1,0,0Z" class="cls-9"/><path d="M1928.56,199.8h50.18a0,0,0,0,1,0,0V311.11A23.71,23.71,0,0,1,1955,334.82h-2.76a23.71,23.71,0,0,1-23.71-23.71V199.8a0,0,0,0,1,0,0Z" class="cls-5"/><path d="M1978.73,169.8h50.18a0,0,0,0,1,0,0V311.11a23.71,23.71,0,0,1-23.71,23.71h-2.76a23.71,23.71,0,0,1-23.71-23.71V169.8a0,0,0,0,1,0,0Z" class="cls-9"/><path d="M2028.91,139.8h50.18a0,0,0,0,1,0,0V311.11a23.71,23.71,0,0,1-23.71,23.71h-2.76a23.71,23.71,0,0,1-23.71-23.71V139.8a0,0,0,0,1,0,0Z" class="cls-5"/><path d="M2079.09,104.77h50.18a0,0,0,0,1,0,0V311.11a23.71,23.71,0,0,1-23.71,23.71h-2.76a23.71,23.71,0,0,1-23.71-23.71V104.77a0,0,0,0,1,0,0Z" class="cls-9"/><rect width="500.36" height="62.52" x="1628.69" y="633.35" class="cls-9"/><rect width="438.03" height="62.52" x="1691.02" y="570.83" class="cls-9"/><rect width="375.7" height="62.52" x="1753.36" y="508.32" class="cls-9"/><rect width="313.37" height="62.52" x="1815.69" y="445.8" class="cls-9"/><rect width="113.01" height="58.12" x="1907.81" y="359.75" class="cls-10"/><rect width="612.08" height="217.76" x="358.49" y="792.38" class="cls-11"/><g class="cls-12"><path d="M293.65,950.88c28.81,0,28.81,20,57.61,20s28.8-20,57.6-20,28.8,20,57.61,20,28.8-20,57.61-20,28.8,20,57.6,20,28.81-20,57.61-20,28.8,20,57.61,20,28.8-20,57.6-20,28.81,20,57.61,20,28.81-20,57.61-20,28.81,20,57.62,20,28.8-20,57.61-20" class="cls-13" transform="translate(39.54)"/><path d="M293.65,919.4c28.81,0,28.81,20,57.61,20s28.8-20,57.6-20,28.8,20,57.61,20,28.8-20,57.61-20,28.8,20,57.6,20,28.81-20,57.61-20,28.8,20,57.61,20,28.8-20,57.6-20,28.81,20,57.61,20,28.81-20,57.61-20,28.81,20,57.62,20,28.8-20,57.61-20" class="cls-13" transform="translate(39.54)"/><path d="M293.65,887.93c28.81,0,28.81,20,57.61,20s28.8-20,57.6-20,28.8,20,57.61,20,28.8-20,57.61-20,28.8,20,57.6,20,28.81-20,57.61-20,28.8,20,57.61,20,28.8-20,57.6-20,28.81,20,57.61,20,28.81-20,57.61-20,28.81,20,57.62,20,28.8-20,57.61-20" class="cls-13" transform="translate(39.54)"/><path d="M293.65,856.46c28.81,0,28.81,20,57.61,20s28.8-20,57.6-20,28.8,20,57.61,20,28.8-20,57.61-20,28.8,20,57.6,20,28.81-20,57.61-20,28.8,20,57.61,20,28.8-20,57.6-20,28.81,20,57.61,20,28.81-20,57.61-20,28.81,20,57.62,20,28.8-20,57.61-20" class="cls-13" transform="translate(39.54)"/><path d="M293.65,825c28.81,0,28.81,20,57.61,20s28.8-20,57.6-20,28.8,20,57.61,20,28.8-20,57.61-20,28.8,20,57.6,20,28.81-20,57.61-20,28.8,20,57.61,20,28.8-20,57.6-20,28.81,20,57.61,20,28.81-20,57.61-20,28.81,20,57.62,20,28.8-20,57.61-20" class="cls-13" transform="translate(39.54)"/></g><rect width="612.08" height="217.76" x="358.49" y="792.38" class="cls-7"/><path d="M539.08,507.31H687.21a0,0,0,0,1,0,0v74.56a46,46,0,0,1-46,46H427.57a0,0,0,0,1,0,0v-9A111.51,111.51,0,0,1,539.08,507.31Z" class="cls-4"/><rect width="130.8" height="307.03" x="879.26" y="69.75" class="cls-9"/><rect width="24.03" height="61.43" x="958.08" y="120.72" class="cls-14"/><rect width="24.03" height="61.43" x="907.2" y="120.72" class="cls-14"/><path d="M1022.65,375.56a145.89,145.89,0,0,0-291.77,0" class="cls-4" transform="translate(39.54)"/><path d="M953.71,376.79H689.52a40.65,40.65,0,0,0-40.66,40.66V582.69a45.14,45.14,0,0,1-45.14,45.14H259.47a41.32,41.32,0,0,0-41.32,41.32V785.71" class="cls-7" transform="translate(39.54)"/><path d="M339.42,695.86V577.57a37,37,0,0,0-37-37H217.18a37,37,0,0,0,37,37H276.9V695.86a62.52,62.52,0,0,0,62.52,62.52H466.59V695.86Z" class="cls-15" transform="translate(39.54)"/><path d="M339.42,695.86V577.57a37,37,0,0,0-37-37H217.18a37,37,0,0,0,37,37H276.9V695.86a62.52,62.52,0,0,0,62.52,62.52H466.59V695.86Z" class="cls-7" transform="translate(39.54)"/><path d="M1565.76,231H1459.49a51.19,51.19,0,0,0-51.19,51.19V642.75a32.16,32.16,0,0,1-32.17,32.16h-93A32.16,32.16,0,0,1,1251,642.75V508.57" class="cls-7" transform="translate(39.54)"/><circle cx="1447.91" cy="488.77" r="13.17" class="cls-16"/><rect width="162.68" height="230.94" x="1010.06" y="151.43" class="cls-9"/><g class="cls-17"><polygon points="1023.58 154.96 1091.1 376.79 1014.24 376.79 1014.24 154.96 1023.58 154.96"/></g><rect width="53.1" height="13.9" x="1040.35" y="203.1" class="cls-8" transform="translate(2173.35 420.09) rotate(-180)"/><rect width="53.1" height="13.9" x="1013.81" y="189.19" class="cls-8" transform="translate(2120.25 392.29) rotate(-180)"/><rect width="169.98" height="34.71" x="1014.23" y="116.72" class="cls-5"/><rect width="168.51" height="31.87" x="860.4" y="53.82" class="cls-5"/><rect width="159.9" height="66.35" x="1365.66" y="320.25" class="cls-18"/><rect width="38.08" height="133.92" x="860.33" y="242.87" class="cls-19"/><circle cx="879.37" cy="229.78" r="67.53" class="cls-20"/><g class="cls-21"><rect width="78.83" height="211.43" x="800.55" y="115.85" class="cls-22"/><line x1="879.37" x2="879.37" y1="297.31" y2="162.25" class="cls-7"/><line x1="879.37" x2="946.9" y1="227.01" y2="193.74" class="cls-23"/><line x1="877.7" x2="945.23" y1="265.82" y2="232.55" class="cls-23"/><line x1="879.37" x2="811.84" y1="227.01" y2="193.74" class="cls-23"/><line x1="881.04" x2="813.51" y1="265.82" y2="232.55" class="cls-23"/></g><circle cx="879.37" cy="229.78" r="67.53" class="cls-7"/><rect width="246.16" height="299.49" x="1601.68" y="768.61" class="cls-1"/><line x1="1245.4" x2="1245.4" y1="306.23" y2="364.75" class="cls-24"/><line x1="1226.18" x2="1264.63" y1="338.26" y2="338.26" class="cls-24"/><circle cx="1245.4" cy="272.66" r="34.56" class="cls-24"/><line x1="1268.01" x2="1298.27" y1="250.06" y2="219.79" class="cls-24"/><polyline points="1298.27 250.06 1298.27 219.79 1268.01 219.79" class="cls-25"/><line x1="1232.39" x2="1258.42" y1="264.88" y2="264.88" class="cls-26"/><line x1="1232.39" x2="1258.42" y1="280.45" y2="280.45" class="cls-26"/><circle cx="1647.59" cy="135.74" r="100.44" class="cls-19"/><rect width="77.14" height="138.19" x="1563.11" y="467.98" class="cls-27"/><rect width="123.15" height="31.26" x="1712.25" y="664.61" class="cls-5"/><path d="M1624.37,288h82.92a0,0,0,0,1,0,0V427.64a0,0,0,0,1,0,0h-119.4a0,0,0,0,1,0,0V324.5A36.48,36.48,0,0,1,1624.37,288Z" class="cls-28"/><rect width="47.63" height="66.25" x="1629.74" y="226.02" class="cls-18"/><line x1="1291.09" x2="1291.09" y1="992.53" y2="658.81" class="cls-7"/><path d="M1315.46,777.66s-32.07-3.9-49.44,13.48-13.48,49.44-13.48,49.44,32.07,3.89,49.44-13.48S1315.46,777.66,1315.46,777.66Z" class="cls-4" transform="translate(39.54)"/><path d="M1187.9,725.66s32.06-3.9,49.44,13.47,13.47,49.44,13.47,49.44-32.06,3.9-49.43-13.48S1187.9,725.66,1187.9,725.66Z" class="cls-4" transform="translate(39.54)"/><path d="M1201.26,838.17s25.48-3.09,39.28,10.71,10.71,39.28,10.71,39.28-25.48,3.09-39.28-10.71S1201.26,838.17,1201.26,838.17Z" class="cls-4" transform="translate(39.54)"/><path d="M1310.35,611.79h-14.14l10-10A18.5,18.5,0,0,0,1280,575.63l-10,10V571.49a18.51,18.51,0,0,0-37,0v14.13l-10-10a18.5,18.5,0,0,0-26.17,26.16l10,10h-14.14a18.5,18.5,0,0,0-18.5,18.5h0a18.5,18.5,0,0,0,18.5,18.5h14.14l-10,10A18.5,18.5,0,0,0,1223.05,685l10-10v14.13a18.51,18.51,0,1,0,37,0V675l10,10a18.5,18.5,0,1,0,26.17-26.16l-10-10h14.14a18.5,18.5,0,0,0,18.5-18.5h0A18.5,18.5,0,0,0,1310.35,611.79Zm-66.15,21.54v-6.08l4.3-4.3h6.08l4.3,4.3v6.08l-4.3,4.3h-6.08Z" class="cls-15" transform="translate(39.54)"/><path d="M1310.35,611.79h-14.14l10-10A18.5,18.5,0,0,0,1280,575.63l-10,10V571.49a18.51,18.51,0,0,0-37,0v14.13l-10-10a18.5,18.5,0,0,0-26.17,26.16l10,10h-14.14a18.5,18.5,0,0,0-18.5,18.5h0a18.5,18.5,0,0,0,18.5,18.5h14.14l-10,10A18.5,18.5,0,0,0,1223.05,685l10-10v14.13a18.51,18.51,0,1,0,37,0V675l10,10a18.5,18.5,0,1,0,26.17-26.16l-10-10h14.14a18.5,18.5,0,0,0,18.5-18.5h0A18.5,18.5,0,0,0,1310.35,611.79Zm-66.15,21.54v-6.08l4.3-4.3h6.08l4.3,4.3v6.08l-4.3,4.3h-6.08Z" class="cls-7" transform="translate(39.54)"/><circle cx="1291.09" cy="630.29" r="25.78" class="cls-29"/><rect width="40.96" height="370.44" x="2088.92" y="700.52" class="cls-18"/><line x1="1048.16" x2="1048.16" y1="992.53" y2="927.9" class="cls-7"/><path d="M1050.1,948.42s-21.14-2.57-32.59,8.89-8.89,32.59-8.89,32.59,21.14,2.57,32.59-8.88S1050.1,948.42,1050.1,948.42Z" class="cls-4" transform="translate(39.54)"/><path d="M967.14,948.42s21.14-2.57,32.59,8.89,8.89,32.59,8.89,32.59S987.48,992.47,976,981,967.14,948.42,967.14,948.42Z" class="cls-6" transform="translate(39.54)"/><circle cx="1047.91" cy="887.66" r="40.11" class="cls-30"/><circle cx="1047.91" cy="887.66" r="17.95" class="cls-31"/><rect width="38.08" height="128.74" x="736.89" y="866.45" class="cls-19"/><circle cx="755.93" cy="833.32" r="67.53" class="cls-20"/><g class="cls-32"><rect width="78.83" height="211.43" x="677.1" y="719.39" class="cls-22"/><line x1="755.93" x2="755.93" y1="900.85" y2="765.8" class="cls-7"/><line x1="755.93" x2="823.46" y1="830.56" y2="797.28" class="cls-23"/><line x1="754.26" x2="821.79" y1="869.37" y2="836.09" class="cls-23"/><line x1="755.93" x2="688.4" y1="830.56" y2="797.28" class="cls-23"/><line x1="757.6" x2="690.07" y1="869.37" y2="836.09" class="cls-23"/></g><circle cx="755.93" cy="833.32" r="67.53" class="cls-7"/><path d="M772.06,908.17s42.66-5.18,65.78,17.93,17.93,65.78,17.93,65.78-42.66,5.18-65.78-17.94S772.06,908.17,772.06,908.17Z" class="cls-33" transform="translate(39.54)"/><g class="cls-34"><line x1="895.31" x2="811.6" y1="991.88" y2="908.17" class="cls-8"/><line x1="876.52" x2="877.34" y1="972.62" y2="881.96" class="cls-8"/><line x1="876.52" x2="785.85" y1="972.62" y2="973.45" class="cls-8"/><line x1="856.26" x2="857.08" y1="952.36" y2="861.7" class="cls-8"/><line x1="856.26" x2="765.59" y1="952.36" y2="953.19" class="cls-8"/></g><path d="M772.06,908.17s42.66-5.18,65.78,17.93,17.93,65.78,17.93,65.78-42.66,5.18-65.78-17.94S772.06,908.17,772.06,908.17Z" class="cls-7" transform="translate(39.54)"/><path d="M693.83,100.51h35.63a22.44,22.44,0,0,1,22.44,22.44v58.58a0,0,0,0,1,0,0H693.83a0,0,0,0,1,0,0v-81A0,0,0,0,1,693.83,100.51Z" class="cls-6"/><rect width="1152.24" height="78.59" x="379.23" y="992.37" class="cls-4"/><path d="M130,320.64H369.87a11.56,11.56,0,0,1,11.56,11.56V490.35a0,0,0,0,1,0,0h-263a0,0,0,0,1,0,0V332.2A11.56,11.56,0,0,1,130,320.64Z" class="cls-35"/><path d="M654.29,181.53v52.09H474.4a42.31,42.31,0,0,0-42.31,42.31v44.71H561.56V291.41h92.73a57.79,57.79,0,0,0,57.79-57.79V181.53Z" class="cls-36" transform="translate(39.54)"/><path d="M654.29,181.53v52.09H474.4a42.31,42.31,0,0,0-42.31,42.31v44.71H561.56V291.41h92.73a57.79,57.79,0,0,0,57.79-57.79V181.53Z" class="cls-7" transform="translate(39.54)"/><path d="M93.58,490.35H406.24a0,0,0,0,1,0,0v0A49.24,49.24,0,0,1,357,539.6H142.82a49.24,49.24,0,0,1-49.24-49.24v0A0,0,0,0,1,93.58,490.35Z" class="cls-5"/><rect width="59.35" height="311.53" x="319.61" y="759.43" class="cls-19"/><polygon points="2138.04 721.81 2138.04 690.32 2054.1 777.19 2089.79 771.91 2138.04 721.81" class="cls-19"/><polygon points="379.98 758.38 189.23 758.38 128.85 820.39 319.61 820.39 379.98 758.38" class="cls-6"/><polygon points="2135.04 690.74 1798.26 690.74 1753.68 736.94 2090.47 736.94 2135.04 690.74" class="cls-37"/><path d="M864.27,423.06h0c-37,0-67.12,37.28-67.44,83.52l-.44,120.32h66.86Z" class="cls-6" transform="translate(39.54)"/><rect width="174.96" height="125.03" x="481.17" y="695.86" class="cls-38"/><path d="M538.54,640h40.21a0,0,0,0,1,0,0v61a20.1,20.1,0,0,1-20.1,20.1h0a20.1,20.1,0,0,1-20.1-20.1V640A0,0,0,0,1,538.54,640Z" class="cls-6"/><path d="M519.1,568.62h0A37.43,37.43,0,0,1,556.53,606v44.61a0,0,0,0,1,0,0H481.68a0,0,0,0,1,0,0V606A37.43,37.43,0,0,1,519.1,568.62Z" class="cls-6" transform="translate(1077.75 1219.27) rotate(180)"/><circle cx="604.83" cy="501.16" r="41.3" class="cls-19"/><path d="M503.21,613.05a15.9,15.9,0,0,0,31.79,0" class="cls-39" transform="translate(39.54)"/><path d="M519.1,526.81h0a37.42,37.42,0,0,1,37.43,37.42v15.89l-74.85,9.55V564.23A37.42,37.42,0,0,1,519.1,526.81Z" class="cls-19" transform="translate(39.54)"/><path d="M1251,386.6v36.46h-140.1v85.51h144.86a62.1,62.1,0,0,0,62.1-62.1V386.6Z" class="cls-15" transform="translate(39.54)"/><path d="M1251,386.6v36.46h-140.1v85.51h144.86a62.1,62.1,0,0,0,62.1-62.1V386.6Z" class="cls-7" transform="translate(39.54)"/><rect width="172.92" height="85.52" x="903.81" y="423.06" class="cls-15"/><rect width="172.92" height="85.52" x="903.81" y="423.06" class="cls-7"/><path d="M1079.66,251.49h-77.92a48,48,0,0,0-48,48h0v57.31a66.85,66.85,0,0,0,66.86,66.86h26.23V299.52h32.86a24,24,0,0,0,24-24h0A24,24,0,0,0,1079.66,251.49Z" class="cls-18" transform="translate(39.54)"/><path d="M1156.88,511.64A46.26,46.26,0,0,1,1133.2,552v73.45H948.87V552a46.28,46.28,0,0,1,0-80.79V423.06H1133.2v48.18a46.36,46.36,0,0,1,23.68,40.4Z" class="cls-31" transform="translate(39.54)"/><g class="cls-40"><line x1="964.72" x2="1196.42" y1="447.59" y2="447.59" class="cls-8"/><line x1="964.72" x2="1196.42" y1="478.09" y2="478.09" class="cls-8"/><line x1="964.72" x2="1196.42" y1="508.59" y2="508.59" class="cls-8"/><line x1="964.72" x2="1196.42" y1="539.09" y2="539.09" class="cls-8"/><line x1="964.72" x2="1196.42" y1="569.59" y2="569.59" class="cls-8"/><line x1="964.72" x2="1196.42" y1="600.09" y2="600.09" class="cls-8"/></g><path d="M1156.88,511.64A46.26,46.26,0,0,1,1133.2,552v73.45H948.87V552a46.28,46.28,0,0,1,0-80.79V423.06H1133.2v48.18a46.36,46.36,0,0,1,23.68,40.4Z" class="cls-7" transform="translate(39.54)"/><polygon points="1233.67 945.93 1161.84 945.93 1039.46 625.48 1164.27 625.48 1233.67 945.93" class="cls-27"/><path d="M962.89,625.48a49.43,49.43,0,0,0-49.43,49.43h0a49.46,49.46,0,0,0,35.11,47.32l-92.31,223.7h80.31l145.52-233.87a98.83,98.83,0,0,0,51.11-86.58H962.89Z" class="cls-41" transform="translate(39.54)"/><path d="M962.89,625.48a49.43,49.43,0,0,0-49.43,49.43h0a49.46,49.46,0,0,0,35.11,47.32l-92.31,223.7h80.31l145.52-233.87a98.83,98.83,0,0,0,51.11-86.58H962.89Z" class="cls-7" transform="translate(39.54)"/><path d="M1051.11,363.14H1110a0,0,0,0,1,0,0v116a29.47,29.47,0,0,1-29.47,29.47h0a29.47,29.47,0,0,1-29.47-29.47v-116A0,0,0,0,1,1051.11,363.14Z" class="cls-6"/><polygon points="1039.46 992.37 895.81 992.37 895.81 945.93 974.29 945.93 1039.46 992.37" class="cls-5"/><polygon points="1305.5 992.37 1161.84 992.37 1161.84 945.93 1240.32 945.93 1305.5 992.37" class="cls-5"/><path d="M1011.56,378.17V312.52a14.18,14.18,0,0,1,14.18-14.18h59.1l14.78,31.55a8.06,8.06,0,0,1-7.3,11.48h-7.48v17.44a19.36,19.36,0,0,1-19.36,19.36H1041" class="cls-6" transform="translate(39.54)"/><path d="M1053.28,316a8.5,8.5,0,1,0,17,0" class="cls-39" transform="translate(39.54)"/><path d="M1084.84,359.16h-16.75a14.45,14.45,0,0,1-14.46-14.46h0" class="cls-39" transform="translate(39.54)"/><path d="M1017.6,318.64h-12.14A10.36,10.36,0,0,0,995.1,329v1.77a10.36,10.36,0,0,0,10.36,10.37h12.14" class="cls-6" transform="translate(39.54)"/><path d="M1110,381.94h67a41.11,41.11,0,0,1,41.11,41.11v0a0,0,0,0,1,0,0H1110a0,0,0,0,1,0,0V381.94A0,0,0,0,1,1110,381.94Z" class="cls-18"/><path d="M1335.44,320.25h59.79a15.15,15.15,0,0,1,15.15,15.15v25.42a25.78,25.78,0,0,1-25.78,25.78h-94a0,0,0,0,1,0,0v-21.5A44.84,44.84,0,0,1,1335.44,320.25Z" class="cls-6"/><path d="M1297.58,320.25h28.54a12,12,0,0,1,12,12h0a12,12,0,0,1-12,12h-28.54" class="cls-6" transform="translate(39.54)"/><line x1="1355.81" x2="1355.81" y1="320.25" y2="155.07" class="cls-7"/><path d="M1471.42,187.63h-310.3a155.15,155.15,0,0,1,310.3,0Z" class="cls-6" transform="translate(39.54)"/><path d="M1471.42,187.63H1316.27V32.48A155.15,155.15,0,0,1,1471.42,187.63Z" class="cls-9" transform="translate(39.54)"/><path d="M1415.69,187.63c0-85.69-44.51-155.15-99.42-155.15s-99.43,69.46-99.43,155.15Z" class="cls-5" transform="translate(39.54)"/><path d="M1353.52,187.63c0-85.69-16.68-155.15-37.25-155.15S1279,101.94,1279,187.63Z" class="cls-1" transform="translate(39.54)"/><path d="M1028.52,355.44a17,17,0,1,0-5,12A17,17,0,0,0,1028.52,355.44Zm6,0a25,25,0,0,1-6,16.94,23.77,23.77,0,0,1-7.56,5.69c-.75.3-1.49.62-2.25.89s-1.54.48-2.32.65-1.6.27-2.39.38l-2.42.14a24.68,24.68,0,0,1-9.43-1.92,23.88,23.88,0,0,1-12.45-31.83,24,24,0,0,1,5.35-7.47,23.2,23.2,0,0,1,16.53-6.42,22.92,22.92,0,0,1,16.08,6.88A23.53,23.53,0,0,1,1034.52,355.44Z" class="cls-31" transform="translate(39.54)"/><line x1="1279.76" x2="1369.06" y1="399.9" y2="399.9" class="cls-42"/><circle cx="1354.22" cy="386.6" r="10.09" class="cls-43"/><circle cx="1334.04" cy="386.6" r="10.09" class="cls-43"/><circle cx="1313.85" cy="386.6" r="10.09" class="cls-43"/><circle cx="1293.66" cy="386.6" r="10.09" class="cls-43"/><circle cx="211.24" cy="70.7" r="13.17" class="cls-16"/><path d="M249.91,308h0a72.63,72.63,0,0,1,72.63,72.63V391.2a0,0,0,0,1,0,0H177.28a0,0,0,0,1,0,0V380.64A72.63,72.63,0,0,1,249.91,308Z" class="cls-44"/><rect width="190.39" height="250.06" x="129.21" y="820.9" class="cls-7"/><rect width="22.55" height="60.37" x="165.17" y="859.67" class="cls-45"/><rect width="22.55" height="60.37" x="221.2" y="859.67" class="cls-45" transform="translate(504.49 1779.7) rotate(180)"/><rect width="22.55" height="60.37" x="212.95" y="859.67" class="cls-45"/><rect width="22.55" height="60.37" x="165.17" y="946.59" class="cls-45"/><rect width="22.55" height="60.37" x="221.2" y="946.59" class="cls-45" transform="translate(504.49 1953.56) rotate(180)"/><rect width="22.55" height="60.37" x="212.95" y="946.59" class="cls-45"/><path d="M416.53,381.73v62.66H249.92v44.38H416.53a54.41,54.41,0,0,0,54.41-54.41V381.73Z" class="cls-11" transform="translate(39.54)"/><path d="M416.53,381.73v62.66H249.92v44.38H416.53a54.41,54.41,0,0,0,54.41-54.41V381.73Z" class="cls-7" transform="translate(39.54)"/><line x1="379.23" x2="379.23" y1="1072.18" y2="1007.56" class="cls-7"/><path d="M381.17,1028.08s-21.14-2.57-32.59,8.88-8.89,32.6-8.89,32.6,21.14,2.57,32.59-8.89S381.17,1028.08,381.17,1028.08Z" class="cls-4" transform="translate(39.54)"/><path d="M298.21,1028.08s21.14-2.57,32.59,8.88,8.89,32.6,8.89,32.6-21.14,2.57-32.6-8.89S298.21,1028.08,298.21,1028.08Z" class="cls-6" transform="translate(39.54)"/><circle cx="378.99" cy="967.31" r="40.11" class="cls-1"/><circle cx="378.99" cy="967.31" r="17.95" class="cls-31"/><path d="M227.75,443h44.32a45.77,45.77,0,0,1,45.77,45.77v0a0,0,0,0,1,0,0H182a0,0,0,0,1,0,0v0A45.77,45.77,0,0,1,227.75,443Z" class="cls-1"/><path d="M234.4,408.18h31a0,0,0,0,1,0,0v34.7a15.51,15.51,0,0,1-15.51,15.51h0a15.51,15.51,0,0,1-15.51-15.51v-34.7A0,0,0,0,1,234.4,408.18Z" class="cls-6"/><circle cx="249.91" cy="376.23" r="35.21" class="cls-6"/><path d="M6.5,986s42.66-5.18,65.77,17.93,17.93,65.77,17.93,65.77-42.66,5.19-65.77-17.93S6.5,986,6.5,986Z" class="cls-33" transform="translate(39.54)"/><g class="cls-46"><line x1="129.75" x2="46.04" y1="1069.68" y2="985.98" class="cls-8"/><line x1="110.95" x2="111.78" y1="1050.43" y2="959.77" class="cls-8"/><line x1="110.95" x2="20.29" y1="1050.43" y2="1051.26" class="cls-8"/><line x1="90.69" x2="91.52" y1="1030.17" y2="939.51" class="cls-8"/><line x1="90.69" x2=".03" y1="1030.17" y2="1031" class="cls-8"/></g><path d="M6.5,986s42.66-5.18,65.77,17.93,17.93,65.77,17.93,65.77-42.66,5.19-65.77-17.93S6.5,986,6.5,986Z" class="cls-7" transform="translate(39.54)"/><path d="M486.93,344.7h65.82a0,0,0,0,1,0,0v0a37,37,0,0,1-37,37H449.9a0,0,0,0,1,0,0v0A37,37,0,0,1,486.93,344.7Z" class="cls-6"/><path d="M449.9,141.33h0a0,0,0,0,1,0,0V320.74a0,0,0,0,1,0,0h0a28,28,0,0,1-28-28V169.3a28,28,0,0,1,28-28Z" class="cls-47"/><path d="M450,320.64H629.31a0,0,0,0,1,0,0v0a24.05,24.05,0,0,1-24.05,24.05H474.08A24.05,24.05,0,0,1,450,320.64v0A0,0,0,0,1,450,320.64Z" class="cls-4"/><path d="M533.36,133.1h6a37.34,37.34,0,0,1,37.34,37.34v110a0,0,0,0,1,0,0H553.43A57.41,57.41,0,0,1,496,223V170.43A37.34,37.34,0,0,1,533.36,133.1Z" class="cls-4"/><path d="M547.49,175.54h29.22a0,0,0,0,1,0,0v30.77a24.34,24.34,0,0,1-24.34,24.34h0A24.34,24.34,0,0,1,528,206.31V195A19.46,19.46,0,0,1,547.49,175.54Z" class="cls-6"/><path d="M505.91,203.1a13.84,13.84,0,0,0,13.84,13.84" class="cls-23" transform="translate(39.54)"/><path d="M37.79,585H55.64a33.68,33.68,0,0,1,33.68,33.68v0a0,0,0,0,1,0,0H71.46A33.68,33.68,0,0,1,37.79,585v0a0,0,0,0,1,0,0Z" class="cls-4" transform="translate(166.64 1203.75) rotate(-180)"/><path d="M37.79,678.14H55.64a33.68,33.68,0,0,1,33.68,33.68v0a0,0,0,0,1,0,0H71.46a33.68,33.68,0,0,1-33.68-33.68v0A0,0,0,0,1,37.79,678.14Z" class="cls-4" transform="translate(166.64 1389.95) rotate(-180)"/><circle cx="128.85" cy="1070.96" r="13.17" class="cls-16"/><ellipse cx="635.38" cy="429.76" class="cls-48" rx="14.25" ry="10.26"/><ellipse cx="687.8" cy="395.5" class="cls-48" rx="14.25" ry="10.26"/><polyline points="702.04 396.4 702.04 329.7 649.63 360.77 649.63 429.76" class="cls-49"/><rect width="63.18" height="114.9" x="668.67" y="36.53" class="cls-50" rx="10.15"/><line x1="687.21" x2="713.31" y1="135.38" y2="135.38" class="cls-51"/><path d="M649.63,55A9.66,9.66,0,0,0,636,55l-6.84,6.83L622.29,55A9.66,9.66,0,1,0,608.62,68.7l6.84,6.84L629.12,89.2l20.51-20.5A9.66,9.66,0,0,0,649.63,55Z" class="cls-52" transform="translate(39.54)"/><rect width="335.24" height="334.02" x="1753.69" y="736.94" class="cls-6"/><circle cx="1838.4" cy="856.92" r="40.57" class="cls-53"/><line x1="1838.4" x2="1838.4" y1="897.49" y2="816.35" class="cls-54"/><line x1="1797.84" x2="1878.97" y1="856.92" y2="856.92" class="cls-54"/><rect width="335.24" height="31.67" x="1753.69" y="736.94" class="cls-38"/><circle cx="2086.19" cy="1071.64" r="13.17" class="cls-16"/><path d="M2163.31,455.91h17.85a0,0,0,0,1,0,0v0a33.68,33.68,0,0,1-33.68,33.68h-17.85a0,0,0,0,1,0,0v0A33.68,33.68,0,0,1,2163.31,455.91Z" class="cls-6"/><path d="M2038.26,423.06h17.85a33.68,33.68,0,0,1,33.68,33.68v0a0,0,0,0,1,0,0h-17.85a33.68,33.68,0,0,1-33.68-33.68v0A0,0,0,0,1,2038.26,423.06Z" class="cls-4" transform="translate(4167.59 879.79) rotate(-180)"/><path d="M2163.31,570.22h17.85a0,0,0,0,1,0,0v0a33.68,33.68,0,0,1-33.68,33.68h-17.85a0,0,0,0,1,0,0v0A33.68,33.68,0,0,1,2163.31,570.22Z" class="cls-6"/><path d="M2038.26,537.37h17.85A33.68,33.68,0,0,1,2089.79,571v0a0,0,0,0,1,0,0h-17.85a33.68,33.68,0,0,1-33.68-33.68v0A0,0,0,0,1,2038.26,537.37Z" class="cls-4" transform="translate(4167.59 1108.41) rotate(-180)"/><rect width="118.61" height="51.18" x="1797.36" y="926.72" class="cls-55"/><rect width="97.11" height="114.28" x="1944.36" y="926.72" class="cls-56"/><path d="M1817.64,966.43s-52.43-6.37-80.85,22-22,80.85-22,80.85,52.44,6.37,80.85-22S1817.64,966.43,1817.64,966.43Z" class="cls-33" transform="translate(39.54)"/><g class="cls-57"><line x1="1754.3" x2="1857.18" y1="1069.32" y2="966.43" class="cls-8"/><line x1="1777.39" x2="1776.38" y1="1045.66" y2="934.22" class="cls-8"/><line x1="1777.39" x2="1888.83" y1="1045.66" y2="1046.67" class="cls-8"/><line x1="1802.3" x2="1801.28" y1="1020.75" y2="909.31" class="cls-8"/><line x1="1802.3" x2="1913.74" y1="1020.75" y2="1021.77" class="cls-8"/></g><path d="M1817.64,966.43s-52.43-6.37-80.85,22-22,80.85-22,80.85,52.44,6.37,80.85-22S1817.64,966.43,1817.64,966.43Z" class="cls-7" transform="translate(39.54)"/><path d="M1643.53,167.17h68.62a0,0,0,0,1,0,0v32.95a29.56,29.56,0,0,1-29.56,29.56h-52.92a0,0,0,0,1,0,0V181A13.86,13.86,0,0,1,1643.53,167.17Z" class="cls-18"/><path d="M1682,427.64H1563.91A40.34,40.34,0,0,0,1523.57,468h0a40.34,40.34,0,0,0,40.34,40.34h108.8V664.61h64V482.37A54.73,54.73,0,0,0,1682,427.64Z" class="cls-41" transform="translate(39.54)"/><path d="M1682,427.64H1563.91A40.34,40.34,0,0,0,1523.57,468h0a40.34,40.34,0,0,0,40.34,40.34h108.8V664.61h64V482.37A54.73,54.73,0,0,0,1682,427.64Z" class="cls-7" transform="translate(39.54)"/><rect width="34.45" height="34.45" x="1572.9" y="211.02" class="cls-5" transform="translate(666.67 -1057.54) rotate(45)"/><path d="M549.78,90v.13H340.59a29.63,29.63,0,0,1,44-23.67,44.81,44.81,0,0,1,83.31-5.66,29.62,29.62,0,0,1,45.63.34A29.64,29.64,0,0,1,549.78,90Z" class="cls-52" transform="translate(39.54)"/><rect width="256.28" height="100.93" x="1883.69" y="36.59" class="cls-58" rx="21.41"/><rect width="290.38" height="135.03" x="1857.26" y="11.02" class="cls-59" rx="38.46"/><rect width="256.28" height="100.93" x="1874.31" y="28.07" class="cls-60" rx="21.41"/><path d="M1884.22,99.14a23.61,23.61,0,0,1-9-8.81,26,26,0,0,1,0-25.42,23.75,23.75,0,0,1,9-8.78,26.18,26.18,0,0,1,24.9,0,23.22,23.22,0,0,1,8.92,8.78,26.27,26.27,0,0,1,0,25.42,23.34,23.34,0,0,1-8.91,8.81,26,26,0,0,1-24.87,0Zm21.68-11.38q3.46-3.86,3.46-10.16t-3.46-10.18a11.88,11.88,0,0,0-9.23-3.81,12,12,0,0,0-9.3,3.77q-3.46,3.78-3.46,10.22t3.46,10.19a12,12,0,0,0,9.3,3.81A11.83,11.83,0,0,0,1905.9,87.76Z" class="cls-15" transform="translate(39.54)"/><path d="M1962.59,76.81a14,14,0,0,1-5.9,5.59,20.71,20.71,0,0,1-9.87,2.13h-7.28v17.29h-11.73V53.66h19a21.73,21.73,0,0,1,9.74,2,13.67,13.67,0,0,1,6,5.49,15.92,15.92,0,0,1,2,8A15.45,15.45,0,0,1,1962.59,76.81Zm-11.66-3.19a5.86,5.86,0,0,0,1.65-4.45,5.86,5.86,0,0,0-1.65-4.46,7,7,0,0,0-5-1.58h-6.38V75.2h6.38A7,7,0,0,0,1950.93,73.62Z" class="cls-15" transform="translate(39.54)"/><path d="M1982.35,63.06V72.8h15.71v9.06h-15.71V92.42h17.77v9.4h-29.5V53.66h29.5v9.4Z" class="cls-15" transform="translate(39.54)"/><path d="M2050.81,101.82h-11.73l-19.62-29.71v29.71h-11.73V53.66h11.73l19.62,29.84V53.66h11.73Z" class="cls-15" transform="translate(39.54)"/><circle cx="774.97" cy="375.56" r="13.17" class="cls-16"/><path d="M527.07,745A12.81,12.81,0,0,0,509,745l-9,9.06L490.85,745a12.81,12.81,0,0,0-18.11,18.11l9.05,9.06,18.12,18.11,27.16-27.17A12.81,12.81,0,0,0,527.07,745Z" class="cls-52" transform="translate(39.54)"/><path d="M106,387.42a12.81,12.81,0,0,0-18.11,0l-9.06,9.05-9-9.05a12.81,12.81,0,0,0-18.12,18.11l9.06,9.05L78.85,432.7,106,405.53A12.81,12.81,0,0,0,106,387.42Z" class="cls-52" transform="translate(39.54)"/><path d="M1617.58,199.39c0,7.65,8.83,13.86,19.73,13.86S1657,207,1657,199.39Z" class="cls-43" transform="translate(39.54)"/><path d="M193.24,382.72c0,6.64,7.67,12,17.13,12s17.13-5.39,17.13-12Z" class="cls-43" transform="translate(39.54)"/><rect width="88.1" height="65.84" x="1499.79" y="320.75" class="cls-28"/><polyline points="940.26 945.93 1063.24 702.33 1073.61 627.95" class="cls-13"/><path d="M963.26,625.48a49.43,49.43,0,0,0-49.43,49.43h0a49.44,49.44,0,0,0,35.11,47.32l-92.31,223.7h80.31l145.52-233.87a98.85,98.85,0,0,0,51.1-86.58H963.26Z" class="cls-7" transform="translate(39.54)"/><path d="M901.43,429h20.26a0,0,0,0,1,0,0v73.49a0,0,0,0,1,0,0H871.85a0,0,0,0,1,0,0v-43.9A29.58,29.58,0,0,1,901.43,429Z" class="cls-15"/><path d="M872.09,615.48H788.56v12.76A41.64,41.64,0,0,0,797,653.35v42.51H608.67a33.39,33.39,0,0,0-33.38,33.38h0a33.38,33.38,0,0,0,33.38,33.37H797a66.74,66.74,0,0,0,66.75-66.75V653.35a41.57,41.57,0,0,0,8.39-25.11Z" class="cls-15" transform="translate(39.54)"/><path d="M872.09,615.48H788.56v12.76A41.64,41.64,0,0,0,797,653.35v42.51H608.67a33.39,33.39,0,0,0-33.38,33.38h0a33.38,33.38,0,0,0,33.38,33.37H797a66.74,66.74,0,0,0,66.75-66.75V653.35a41.57,41.57,0,0,0,8.39-25.11Z" class="cls-7" transform="translate(39.54)"/><path d="M809.44,625.48V564.09A10.43,10.43,0,0,0,799,553.65h0a10.44,10.44,0,0,0-10.44,10.44v61.39" class="cls-6" transform="translate(39.54)"/><path d="M830.33,625.48v-72.7a10.45,10.45,0,0,0-10.44-10.44h0a10.45,10.45,0,0,0-10.45,10.44v72.7" class="cls-6" transform="translate(39.54)"/><path d="M851.21,625.48V564.09a10.44,10.44,0,0,0-10.44-10.44h0a10.43,10.43,0,0,0-10.44,10.44v61.39" class="cls-6" transform="translate(39.54)"/><path d="M872.09,625.48V574.4A10.43,10.43,0,0,0,861.65,564h0a10.43,10.43,0,0,0-10.44,10.44v51.08" class="cls-6" transform="translate(39.54)"/><rect width="67.82" height="166.92" x="1711.09" y="191.67" class="cls-18" transform="translate(745.19 -1153.32) rotate(45)"/><path d="M1706.69,358.12h-122a35.22,35.22,0,0,1-35.22-35.22h0a35.22,35.22,0,0,1,35.22-35.22h102Z" class="cls-28" transform="translate(39.54)"/><path d="M1785.22,218.92l39.46-39.46a11.29,11.29,0,0,0,0-16h0a11.29,11.29,0,0,0-16,0l-39.46,39.46" class="cls-18" transform="translate(39.54)"/><path d="M1801.21,234.91l39.46-39.46a11.32,11.32,0,0,0,0-16h0a11.32,11.32,0,0,0-16,0l-39.46,39.46" class="cls-18" transform="translate(39.54)"/><path d="M1817.19,250.89l39.46-39.46a11.3,11.3,0,0,0,0-16h0a11.29,11.29,0,0,0-16,0l-39.46,39.46" class="cls-18" transform="translate(39.54)"/><rect width="85.36" height="38.39" x="629.13" y="1057.1" class="cls-9"/><rect width="85.36" height="38.39" x="714.49" y="1057.1" class="cls-9"/><rect width="85.36" height="38.39" x="799.85" y="1057.1" class="cls-9"/><rect width="85.36" height="38.39" x="885.21" y="1057.1" class="cls-9"/><rect width="85.36" height="38.39" x="970.57" y="1057.1" class="cls-9"/><rect width="85.36" height="38.39" x="1055.93" y="1057.1" class="cls-9"/><rect width="85.36" height="38.39" x="1141.29" y="1057.1" class="cls-9"/><rect width="85.36" height="38.39" x="1226.65" y="1057.1" class="cls-9"/><rect width="85.36" height="38.39" x="1311.5" y="1057.1" class="cls-9"/><rect width="85.36" height="38.39" x="1396.86" y="1057.1" class="cls-9"/><path d="M1428.54,992.37h211.22a0,0,0,0,1,0,0V1071a0,0,0,0,1,0,0H1507.12a78.59,78.59,0,0,1-78.59-78.59v0A0,0,0,0,1,1428.54,992.37Z" class="cls-37" transform="translate(3107.84 2063.33) rotate(180)"/><path d="M1638.28,846,1608.8,618a54.33,54.33,0,0,0-53.88-47.37h-77.59a45.23,45.23,0,0,0-45.22,45.23v15.71h107.81V846Z" class="cls-33" transform="translate(39.54)"/><path d="M1638.28,846,1608.8,618a54.33,54.33,0,0,0-53.88-47.37h-77.59a45.23,45.23,0,0,0-45.22,45.23v15.71h107.81V846Z" class="cls-7" transform="translate(39.54)"/><path d="M1428.54,768.61h174.21a0,0,0,0,1,0,0v180A43.76,43.76,0,0,1,1559,992.37H1428.54a0,0,0,0,1,0,0V768.61A0,0,0,0,1,1428.54,768.61Z" class="cls-15" transform="translate(3070.83 1760.98) rotate(180)"/><g class="cls-61"><circle cx="1634.6" cy="798.09" r="15.56" class="cls-33"/><circle cx="1582.63" cy="798.09" r="15.56" class="cls-33"/><circle cx="1530.66" cy="798.09" r="15.56" class="cls-33"/><circle cx="1478.69" cy="798.09" r="15.56" class="cls-33"/><circle cx="1608.64" cy="848.5" r="15.56" class="cls-33"/><circle cx="1556.67" cy="848.5" r="15.56" class="cls-33"/><circle cx="1504.69" cy="848.5" r="15.56" class="cls-33"/><circle cx="1634.6" cy="898.73" r="15.56" class="cls-33"/><circle cx="1582.63" cy="898.73" r="15.56" class="cls-33"/><circle cx="1530.66" cy="898.73" r="15.56" class="cls-33"/><circle cx="1478.69" cy="898.73" r="15.56" class="cls-33"/><circle cx="1608.64" cy="949.14" r="15.56" class="cls-33"/><circle cx="1556.67" cy="949.14" r="15.56" class="cls-33"/><circle cx="1504.69" cy="949.14" r="15.56" class="cls-33"/></g><path d="M1428.54,768.61h174.21a0,0,0,0,1,0,0v180A43.76,43.76,0,0,1,1559,992.37H1428.54a0,0,0,0,1,0,0V768.61A0,0,0,0,1,1428.54,768.61Z" class="cls-7" transform="translate(3070.83 1760.98) rotate(180)"/><path d="M1469.39,631.57V684.2a26.78,26.78,0,0,0,24.81,26.71V812.75a22.91,22.91,0,0,0,22.91,22.9h0a22.9,22.9,0,0,0,22.9-22.9V631.57Z" class="cls-36" transform="translate(39.54)"/><path d="M1469.39,631.57V684.2a26.78,26.78,0,0,0,24.81,26.71V812.75a22.91,22.91,0,0,0,22.91,22.9h0a22.9,22.9,0,0,0,22.9-22.9V631.57Z" class="cls-7" transform="translate(39.54)"/><path d="M1615.16,768.61h-12.41V918h-149a74.37,74.37,0,0,0,74.37,74.37h88.06a60.54,60.54,0,0,0,60.54-60.54V830.22A61.62,61.62,0,0,0,1615.16,768.61Z" class="cls-36" transform="translate(39.54)"/><path d="M1615.16,768.61h-12.41V918h-149a74.37,74.37,0,0,0,74.37,74.37h88.06a60.54,60.54,0,0,0,60.54-60.54V830.22A61.62,61.62,0,0,0,1615.16,768.61Z" class="cls-7" transform="translate(39.54)"/><path d="M1498.7,907.67h30a0,0,0,0,1,0,0v147.24a15,15,0,0,1-15,15h0a15,15,0,0,1-15-15V907.67a0,0,0,0,1,0,0Z" class="cls-5" transform="translate(3066.97 1977.6) rotate(180)"/><rect width="170.35" height="85.8" x="1428.54" y="1036.05" class="cls-5" rx="17.04" transform="translate(3066.97 2157.9) rotate(180)"/><path d="M1595.61,1041.89l-72.43,49.52a16.78,16.78,0,0,1-18.93,0l-72.44-49.52" class="cls-7" transform="translate(39.54)"/><circle cx="1553.26" cy="1076.3" r="5.34"/><path d="M1324.3,804.31h17.1a87.13,87.13,0,0,1,87.13,87.13v40.68a60.25,60.25,0,0,1-60.25,60.25h-44a0,0,0,0,1,0,0V804.31A0,0,0,0,1,1324.3,804.31Z" class="cls-5" transform="translate(2792.38 1796.68) rotate(180)"/><rect width="68.4" height="68.4" x="1381.1" y="755.18" class="cls-18" rx="34.2" transform="translate(2870.14 1578.77) rotate(-180)"/><path d="M1396.3,838.41h0a16,16,0,0,1,16,16v74.81a0,0,0,0,1,0,0h0a31.92,31.92,0,0,1-31.92-31.92V854.38A16,16,0,0,1,1396.3,838.41Z" class="cls-18" transform="translate(-176.43 1246.19) rotate(-45)"/><path d="M1303.31,911.27h47.39a34.37,34.37,0,0,1,34.37,34.37v4.73a0,0,0,0,1,0,0H1333A34.37,34.37,0,0,1,1298.58,916v0A4.73,4.73,0,0,1,1303.31,911.27Z" class="cls-18" transform="translate(1671.99 2537.82) rotate(-135)"/><path d="M1469.39,688.36h28.06a16.25,16.25,0,0,0,16.26-16.25h0" class="cls-23" transform="translate(39.54)"/><path d="M1504.7,658.07a10.5,10.5,0,0,0-21,0" class="cls-23" transform="translate(39.54)"/><polyline points="1514.92 672.66 1493.94 672.66 1505.11 631.57 1514.92 631.57" class="cls-18"/><path d="M1412.52,787.8a6.3,6.3,0,1,1-12.6,0" class="cls-23" transform="translate(39.54)"/><path d="M1437.53,787.8a6.3,6.3,0,1,1-12.6,0" class="cls-23" transform="translate(39.54)"/><rect width="69.72" height="127.82" x="1256.23" y="979.29" class="cls-5" rx="15.21"/><rect width="50.26" height="24.61" x="1265.6" y="954.68" class="cls-9" rx="7.72"/><path d="M1291.09,912.85h0a11.45,11.45,0,0,1,11.45,11.45v30.38a0,0,0,0,1,0,0h-22.91a0,0,0,0,1,0,0V924.3A11.45,11.45,0,0,1,1291.09,912.85Z" class="cls-6"/><line x1="1323.95" x2="1299.05" y1="1010.15" y2="1010.15" class="cls-43"/><line x1="1323.95" x2="1299.05" y1="1032.18" y2="1032.18" class="cls-43"/><line x1="1323.95" x2="1299.05" y1="1054.22" y2="1054.22" class="cls-43"/><line x1="1323.95" x2="1299.05" y1="1076.26" y2="1076.26" class="cls-43"/><circle cx="214.58" cy="138.95" r="138.95" class="cls-62"/><circle cx="214.58" cy="138.95" r="111.27" class="cls-30"/><rect width="52.65" height="13.03" x="2059.06" y="381.91" class="cls-39"/><rect width="52.65" height="13.03" x="2085.39" y="368.88" class="cls-39"/><rect width="46.27" height="22.43" x="773.82" y="669.35" class="cls-6" rx="11.21" transform="translate(1517.06 -116.39) rotate(90)"/><rect width="46.27" height="21.11" x="867.97" y="679.28" class="cls-6" rx="10.55"/><rect width="46.27" height="21.11" x="867.97" y="658.18" class="cls-6" rx="10.55"/><rect width="46.27" height="21.11" x="867.97" y="700.39" class="cls-6" rx="10.55"/><rect width="46.27" height="21.11" x="867.97" y="721.49" class="cls-6" rx="10.55"/><circle cx="257.69" cy="759.43" r="13.17" class="cls-16"/><circle cx="1355.81" cy="256.04" r="13.17" class="cls-16"/><circle cx="2109.4" cy="733.75" r="67.53" class="cls-20"/><g class="cls-63"><rect width="78.83" height="211.43" x="2030.57" y="619.82" class="cls-22"/><line x1="2109.4" x2="2109.4" y1="801.28" y2="666.22" class="cls-7"/><line x1="2109.4" x2="2176.93" y1="730.99" y2="697.71" class="cls-23"/><line x1="2107.73" x2="2175.26" y1="769.79" y2="736.52" class="cls-23"/><line x1="2109.4" x2="2041.87" y1="730.99" y2="697.71" class="cls-23"/><line x1="2111.07" x2="2043.54" y1="769.79" y2="736.52" class="cls-23"/></g><circle cx="2109.4" cy="733.75" r="67.53" class="cls-7"/><polygon points="506.09 1070.96 568.65 1070.96 568.65 897.93 486.09 897.93 506.09 1070.96" class="cls-6"/><polygon points="568.65 1070.96 631.21 1070.96 651.21 897.93 568.65 897.93 568.65 1070.96" class="cls-6"/><polygon points="434.26 919.62 703.03 919.62 656.13 820.25 481.17 820.25 434.26 919.62" class="cls-9"/><g class="cls-17"><polygon points="490.35 919.78 644.04 924.88 642.5 971.53 489.95 931.78 490.35 919.78"/></g><polygon points="631.21 1069.8 568.65 1069.8 568.65 1119.01 661.02 1119.01 631.21 1091.09 631.21 1069.8" class="cls-38"/><polygon points="506.09 1069.8 568.65 1069.8 568.65 1119.01 476.27 1119.01 506.09 1091.09 506.09 1069.8" class="cls-38"/><rect width="143.11" height="114.09" x="1776.29" y="598.02" class="cls-6"/><rect width="86.02" height="114.09" x="1879.85" y="598.02" class="cls-29" transform="translate(3885.27 1310.12) rotate(180)"/><rect width="75.21" height="40.11" x="1810.24" y="639.73" class="cls-50"/><g class="cls-17"><polygon points="1776.29 591.96 2005.41 591.96 2005.41 641.2 1776.29 604.08 1776.29 591.96"/></g><polygon points="1820.59 498.92 1754.74 598.02 1896.56 598.02 1962.4 498.92 1820.59 498.92" class="cls-1"/><polygon points="1962.4 498.92 1896.56 598.02 2028.25 598.02 1962.4 498.92" class="cls-9"/><polyline points="937.54 508.96 944.68 496.64 937.54 484.32 944.68 471.99 937.54 459.66 944.68 447.33 937.54 435 944.68 422.67" class="cls-64"/><polyline points="919.94 508.96 927.08 496.64 919.94 484.32 927.08 471.99 919.94 459.66 927.08 447.33 919.94 435 927.08 422.67" class="cls-64"/><g class="cls-65"><circle cx="1237.88" cy="427.93" r="36.16" class="cls-23"/><circle cx="1237.88" cy="427.93" r="24.24" class="cls-66"/><rect width="22.23" height="22.23" x="1187.88" y="416.82" class="cls-67" transform="translate(2388.95 -117.3) rotate(135)"/></g><path d="M734.65,462.13v44.5H723.81V480l-10,26.68H705.1l-10-26.75v26.75H684.25v-44.5h12.8l12.49,30.81,12.36-30.81Z" class="cls-31" transform="translate(39.54)"/><path d="M779.66,462.13l-15.41,29.8v14.7H753.41v-14.7L738,462.13H750.3l8.63,18.64,8.55-18.64Z" class="cls-31" transform="translate(39.54)"/><path d="M684.76,554.69q6.21-5.13,9.79-8.43a39.75,39.75,0,0,0,6.05-6.91,12.48,12.48,0,0,0,2.48-7,6.2,6.2,0,0,0-1.21-4.06,5,5,0,0,0-7.38.35,8.3,8.3,0,0,0-1.37,5.1H682.66a18,18,0,0,1,2.32-9,13.5,13.5,0,0,1,5.77-5.33,18.2,18.2,0,0,1,8-1.71q7.54,0,11.38,3.87a13.69,13.69,0,0,1,3.84,10.08,19.78,19.78,0,0,1-4.63,12.58,68.54,68.54,0,0,1-11.79,11.32h17.11v8.81H682.79v-8.05C684.23,555.14,684.88,554.61,684.76,554.69Z" class="cls-31" transform="translate(39.54)"/><path d="M723.1,524q4.21-6.27,13.6-6.27T750.3,524q4.22,6.29,4.21,17.18T750.3,558.5q-4.21,6.27-13.6,6.27t-13.6-6.27q-4.22-6.29-4.21-17.31T723.1,524Zm19.37,7.32q-1.4-3.45-5.77-3.45t-5.77,3.45c-.93,2.31-1.39,5.59-1.39,9.86a42.29,42.29,0,0,0,.5,7.13,9.16,9.16,0,0,0,2.06,4.57,7,7,0,0,0,9.2,0,9.16,9.16,0,0,0,2.06-4.57,42.29,42.29,0,0,0,.5-7.13C743.86,536.92,743.4,533.64,742.47,531.33Z" class="cls-31" transform="translate(39.54)"/><path d="M688,579.62q4.18-3.68,11.35-3.68a18.44,18.44,0,0,1,8.14,1.65,11.65,11.65,0,0,1,6.88,10.9,10.47,10.47,0,0,1-7,10.4v.25a11.39,11.39,0,0,1,5.7,4,11.57,11.57,0,0,1,2.09,7.16,13.27,13.27,0,0,1-1.8,6.94,12.35,12.35,0,0,1-5.26,4.72,18.34,18.34,0,0,1-8.21,1.71q-7.62,0-12.14-3.74T683,608.65H693.5a6.42,6.42,0,0,0,1.59,4.41,5.82,5.82,0,0,0,4.44,1.61,5.06,5.06,0,0,0,3.83-1.42,5.23,5.23,0,0,0,1.36-3.78,5,5,0,0,0-1.93-4.4q-1.93-1.37-6.18-1.36h-2v-8.82h2a10.71,10.71,0,0,0,5.23-1.11,4.13,4.13,0,0,0,2-4,4.83,4.83,0,0,0-1.27-3.55,4.75,4.75,0,0,0-3.49-1.27,4.33,4.33,0,0,0-3.58,1.46,6.53,6.53,0,0,0-1.36,3.62H683.55Q683.81,583.28,688,579.62Z" class="cls-31" transform="translate(39.54)"/><path d="M724.57,582.34q4.21-6.27,13.59-6.27t13.6,6.27q4.22,6.28,4.22,17.18t-4.22,17.31q-4.21,6.27-13.6,6.27t-13.59-6.27q-4.22-6.29-4.22-17.31T724.57,582.34Zm19.36,7.32q-1.39-3.45-5.77-3.45c-2.91,0-4.84,1.15-5.76,3.45a27.35,27.35,0,0,0-1.4,9.86,41.14,41.14,0,0,0,.51,7.13,9.12,9.12,0,0,0,2.06,4.57,6.94,6.94,0,0,0,9.19,0,9.12,9.12,0,0,0,2.06-4.57,41.14,41.14,0,0,0,.51-7.13A27.35,27.35,0,0,0,743.93,589.66Z" class="cls-31" transform="translate(39.54)"/><line x1="720.76" x2="802.62" y1="642.49" y2="642.49" class="cls-13"/><line x1="719.86" x2="823.76" y1="443.67" y2="443.67" class="cls-13"/></g></g></svg>