<svg xmlns="http://www.w3.org/2000/svg" xmlns:xlink="http://www.w3.org/1999/xlink" viewBox="0 0 2169.82 1116.28"><defs><style>.cls-1,.cls-13{fill:#eb1b2e;}.cls-1,.cls-10,.cls-12,.cls-17,.cls-2,.cls-24,.cls-25,.cls-26,.cls-28,.cls-29,.cls-3,.cls-30,.cls-31,.cls-32,.cls-33,.cls-34,.cls-35,.cls-4,.cls-41,.cls-42,.cls-43,.cls-44,.cls-49,.cls-5,.cls-50,.cls-53,.cls-55,.cls-56,.cls-59,.cls-6,.cls-66,.cls-67,.cls-68,.cls-71,.cls-76,.cls-78,.cls-8,.cls-9{stroke:#000;}.cls-1,.cls-10,.cls-12,.cls-15,.cls-17,.cls-2,.cls-24,.cls-25,.cls-26,.cls-28,.cls-29,.cls-3,.cls-30,.cls-31,.cls-32,.cls-33,.cls-34,.cls-35,.cls-39,.cls-4,.cls-41,.cls-42,.cls-43,.cls-44,.cls-46,.cls-47,.cls-48,.cls-49,.cls-5,.cls-50,.cls-51,.cls-53,.cls-55,.cls-56,.cls-57,.cls-58,.cls-59,.cls-6,.cls-61,.cls-62,.cls-66,.cls-67,.cls-68,.cls-69,.cls-7,.cls-71,.cls-75,.cls-76,.cls-77,.cls-78,.cls-8,.cls-9{stroke-linejoin:round;}.cls-1,.cls-10,.cls-12,.cls-17,.cls-2,.cls-24,.cls-25,.cls-26,.cls-28,.cls-29,.cls-3,.cls-30,.cls-31,.cls-34,.cls-35,.cls-39,.cls-4,.cls-43,.cls-44,.cls-5,.cls-51,.cls-55,.cls-56,.cls-6,.cls-69,.cls-71,.cls-8,.cls-9{stroke-width:12px;}.cls-2,.cls-20{fill:#8f1738;}.cls-11,.cls-3,.cls-49,.cls-50,.cls-54,.cls-59,.cls-67{fill:#fff;}.cls-4,.cls-63,.cls-76{fill:#017dbc;}.cls-5,.cls-52{fill:#269b48;}.cls-6,.cls-73{fill:#289b48;}.cls-15,.cls-33,.cls-39,.cls-42,.cls-46,.cls-47,.cls-48,.cls-51,.cls-69,.cls-7,.cls-75,.cls-77,.cls-78,.cls-9{fill:none;}.cls-15,.cls-51,.cls-58,.cls-7,.cls-77{stroke:#fff;}.cls-46,.cls-47,.cls-48,.cls-57,.cls-58,.cls-59,.cls-61,.cls-62,.cls-7,.cls-78{stroke-width:8px;}.cls-37,.cls-58,.cls-8{fill:#02aed9;}.cls-10,.cls-72{fill:#f36d26;}.cls-12{fill:#4d4d4d;}.cls-14{clip-path:url(#clip-path);}.cls-15,.cls-32,.cls-41,.cls-42,.cls-49,.cls-53,.cls-75{stroke-width:6px;}.cls-16{fill:#c31e33;}.cls-17{fill:#ef3f2c;}.cls-18,.cls-19,.cls-26,.cls-53,.cls-57,.cls-62,.cls-68{fill:#fdb715;}.cls-18,.cls-54,.cls-60,.cls-70{opacity:0.3;}.cls-21{clip-path:url(#clip-path-2);}.cls-22{clip-path:url(#clip-path-3);}.cls-23,.cls-24,.cls-61{fill:#02558b;}.cls-25{fill:#ff7bac;}.cls-27{fill:#e11584;}.cls-28{fill:gray;}.cls-29{fill:#b3b3b3;}.cls-30{fill:#666;}.cls-31,.cls-32{fill:#ccc;}.cls-33{stroke-width:4px;}.cls-35{fill:#183669;}.cls-36{clip-path:url(#clip-path-4);}.cls-38{clip-path:url(#clip-path-5);}.cls-39{stroke:#02aed9;}.cls-40,.cls-41,.cls-43{fill:#f99d26;}.cls-44{fill:#1a1a1a;}.cls-45{fill:#48773c;}.cls-46,.cls-61,.cls-69{stroke:#fdb715;}.cls-47{stroke:#269b48;}.cls-48,.cls-57{stroke:#eb1b2e;}.cls-50,.cls-77{stroke-width:9px;}.cls-55,.cls-66{fill:#5dbb46;}.cls-56{fill:#a21942;}.cls-62{stroke:#ff7bac;}.cls-64{clip-path:url(#clip-path-6);}.cls-65{clip-path:url(#clip-path-7);}.cls-66{stroke-width:9.34px;}.cls-67,.cls-68,.cls-76{stroke-width:10px;}.cls-71{fill:#981398;}.cls-74{clip-path:url(#clip-path-8);}.cls-75{stroke:#fcb615;}</style><clipPath id="clip-path"><rect class="cls-1" x="810.39" y="813.56" width="835.68" height="89.44"/></clipPath><clipPath id="clip-path-2"><polygon class="cls-2" points="1876.67 171.93 1778.33 315.85 1975.01 315.85 1876.67 171.93"/></clipPath><clipPath id="clip-path-3"><polygon class="cls-2" points="1734.21 134.15 1611.72 313.43 1856.71 313.43 1734.21 134.15"/></clipPath><clipPath id="clip-path-4"><rect class="cls-3" x="582.44" y="909" width="177.15" height="154.63"/></clipPath><clipPath id="clip-path-5"><rect class="cls-1" x="60.22" y="904.34" width="211.53" height="159.28"/></clipPath><clipPath id="clip-path-6"><rect class="cls-4" x="1692.85" y="313.43" width="368.05" height="129.38"/></clipPath><clipPath id="clip-path-7"><circle class="cls-5" cx="2015.41" cy="1003.03" r="75.2"/></clipPath><clipPath id="clip-path-8"><path class="cls-6" d="M2107.61,497s-57.64-7-88.88,24.23-24.23,88.88-24.23,88.88,57.65,7,88.88-24.23S2107.61,497,2107.61,497Z"/></clipPath></defs><g id="Layer_2" data-name="Layer 2"><g id="sdg8"><line class="cls-7" x1="1338.69" y1="384.39" x2="1338.69" y2="307.33"/><rect class="cls-8" x="60.22" y="63.36" width="500.1" height="284.44"/><rect class="cls-9" x="60.22" y="63.36" width="2000.63" height="1000.26"/><rect class="cls-10" x="1539.87" y="63.36" width="520.98" height="250.28"/><path class="cls-11" d="M1937,147.53a27.26,27.26,0,0,0-54.51,0Z"/><path class="cls-11" d="M2034,147.53a23.1,23.1,0,0,0-46.19,0Z"/><path class="cls-11" d="M2002.92,147.53a43.14,43.14,0,0,0-86.28,0Z"/><rect class="cls-5" x="1692.85" y="611.64" width="368.54" height="451.98"/><path class="cls-12" d="M815.06,903h864.29a0,0,0,0,1,0,0v160.63a0,0,0,0,1,0,0H773.92a0,0,0,0,1,0,0V944.13A41.14,41.14,0,0,1,815.06,903Z"/><path class="cls-9" d="M835.89,884.7v64a36.93,36.93,0,0,0,36.93,36.93H1516a36.93,36.93,0,0,0,36.93-36.93v-64"/><rect class="cls-13" x="810.39" y="813.56" width="835.68" height="89.44"/><g class="cls-14"><line class="cls-15" x1="885.67" y1="813.56" x2="885.67" y2="858.87"/><line class="cls-15" x1="1000.11" y1="813.56" x2="1000.11" y2="858.87"/><line class="cls-15" x1="1114.54" y1="813.56" x2="1114.54" y2="858.87"/><line class="cls-15" x1="1228.98" y1="813.56" x2="1228.98" y2="858.87"/><line class="cls-15" x1="1343.42" y1="813.56" x2="1343.42" y2="858.87"/><line class="cls-15" x1="1457.85" y1="813.56" x2="1457.85" y2="858.87"/><line class="cls-15" x1="1572.29" y1="813.56" x2="1572.29" y2="858.87"/><line class="cls-15" x1="829.78" y1="857.75" x2="829.78" y2="903.06"/><line class="cls-15" x1="942.22" y1="857.75" x2="942.22" y2="903.06"/><line class="cls-15" x1="1054.67" y1="857.75" x2="1054.67" y2="903.06"/><line class="cls-15" x1="1167.11" y1="857.75" x2="1167.11" y2="903.06"/><line class="cls-15" x1="1279.56" y1="857.75" x2="1279.56" y2="903.06"/><line class="cls-15" x1="1392" y1="857.75" x2="1392" y2="903.06"/><line class="cls-15" x1="1504.45" y1="857.75" x2="1504.45" y2="903.06"/><line class="cls-15" x1="1616.89" y1="857.75" x2="1616.89" y2="903.06"/><line class="cls-15" x1="793.56" y1="858.95" x2="1662.89" y2="858.95"/></g><rect class="cls-9" x="810.39" y="813.56" width="835.68" height="89.44"/><path class="cls-16" d="M1953.56,841.54v17.33H1818.13V859h-162a53.41,53.41,0,0,0-53.41,53.41v116.77a34.49,34.49,0,0,0,34.49,34.49h180.88V938.87h152a45.3,45.3,0,0,0,45.31-45.31v-52Z"/><path class="cls-9" d="M1953.56,841.54v17.33H1818.13V859h-162a53.41,53.41,0,0,0-53.41,53.41v116.77a34.49,34.49,0,0,0,34.49,34.49h180.88V938.87h152a45.3,45.3,0,0,0,45.31-45.31v-52Z"/><path class="cls-5" d="M1430.33,313.5h262.85a0,0,0,0,1,0,0V597.8a0,0,0,0,1,0,0H1371.41a0,0,0,0,1,0,0V372.42A58.92,58.92,0,0,1,1430.33,313.5Z"/><rect class="cls-17" x="1371.41" y="380.18" width="155.89" height="226.98"/><circle class="cls-18" cx="1734.21" cy="137.65" r="129.73"/><circle class="cls-19" cx="1734.21" cy="137.65" r="100.14"/><polygon class="cls-20" points="1876.67 171.93 1778.33 315.85 1975.01 315.85 1876.67 171.93"/><g class="cls-21"><rect class="cls-11" x="1842.02" y="153.36" width="69.31" height="69.31" transform="translate(682.61 -1271.94) rotate(45)"/><rect class="cls-11" x="1867.42" y="153.36" width="69.31" height="69.31" transform="translate(690.05 -1289.9) rotate(45)"/><rect class="cls-11" x="1816.62" y="153.36" width="69.31" height="69.31" transform="translate(3293.27 -988.1) rotate(135)"/></g><polygon class="cls-9" points="1876.67 171.93 1778.33 315.85 1975.01 315.85 1876.67 171.93"/><polygon class="cls-20" points="1734.21 134.15 1611.72 313.43 1856.71 313.43 1734.21 134.15"/><g class="cls-22"><rect class="cls-11" x="1691.05" y="111.02" width="86.33" height="86.33" transform="translate(616.97 -1181.11) rotate(45)"/><rect class="cls-11" x="1722.68" y="111.02" width="86.33" height="86.33" transform="translate(626.23 -1203.48) rotate(45)"/><rect class="cls-11" x="1659.41" y="111.02" width="86.33" height="86.33" transform="translate(3015.51 -940.69) rotate(135)"/></g><polygon class="cls-9" points="1734.21 134.15 1611.72 313.43 1856.71 313.43 1734.21 134.15"/><rect class="cls-4" x="810.47" y="563.27" width="195.2" height="221.79"/><path class="cls-23" d="M1373.93,447.87H1352V397.69a13.3,13.3,0,0,0-26.6,0V622.31h73.16v-111l5.19-27.53A30.33,30.33,0,0,0,1373.93,447.87Z"/><path class="cls-9" d="M1373.93,447.87H1352V397.69a13.3,13.3,0,0,0-26.6,0V622.31h73.16v-111l5.19-27.53A30.33,30.33,0,0,0,1373.93,447.87Z"/><path class="cls-24" d="M1340.46,467.55h31a12.06,12.06,0,0,1,12.06,12.06h0a12.06,12.06,0,0,1-12.06,12.06h-31"/><path class="cls-19" d="M1325.39,594.53v41.32H995V813.56h272V714.24h76.51a55.12,55.12,0,0,0,55.12-55.12V594.53Z"/><path class="cls-9" d="M1325.39,594.53v41.32H995V813.56h272V714.24h76.51a55.12,55.12,0,0,0,55.12-55.12V594.53Z"/><rect class="cls-25" x="810.47" y="635.85" width="195.2" height="149.21"/><rect class="cls-25" x="1122.07" y="7.92" width="171.58" height="164.01"/><rect class="cls-26" x="1060.58" y="43.39" width="190.38" height="190.38"/><line class="cls-9" x1="1085.92" y1="92.61" x2="1225.63" y2="92.61"/><line class="cls-9" x1="1085.92" y1="121.93" x2="1225.63" y2="121.93"/><line class="cls-9" x1="1085.92" y1="151.24" x2="1158.23" y2="151.24"/><path class="cls-19" d="M876.09,218V367.12a40.3,40.3,0,0,0,40.3,40.3h0a40.3,40.3,0,0,0,40.3-40.3V313.05A39.74,39.74,0,0,0,995,273.33V218Z"/><path class="cls-9" d="M876.09,218V367.12a40.3,40.3,0,0,0,40.3,40.3h0a40.3,40.3,0,0,0,40.3-40.3V313.05A39.74,39.74,0,0,0,995,273.33V218Z"/><path class="cls-27" d="M1113.89,313.43v53.75H810.47V563.27h195.2V438.46h127.71a52.19,52.19,0,0,0,52.19-52.19V313.43Z"/><path class="cls-9" d="M1113.89,313.43v53.75H810.47V563.27h195.2V438.46h127.71a52.19,52.19,0,0,0,52.19-52.19V313.43Z"/><path class="cls-28" d="M534.11,385.24V509.66a29.61,29.61,0,0,1-29.61,29.61H360.33V501.19H483.52V385.24Z"/><rect class="cls-29" x="430.31" y="494.17" width="29.93" height="52.17"/><rect class="cls-29" x="492.9" y="423.95" width="29.93" height="64.17" transform="translate(51.83 963.9) rotate(-90)"/><polygon class="cls-30" points="351.4 363.96 585.88 300.11 585.88 363.96 458.47 440.46 223.99 440.46 351.4 363.96"/><rect class="cls-24" x="61.58" y="404.35" width="210.18" height="159.14"/><rect class="cls-29" x="61.35" y="563.27" width="248.89" height="62.52"/><rect class="cls-29" x="111.44" y="500.98" width="248.89" height="62.52"/><rect class="cls-29" x="161.35" y="438.68" width="248.89" height="62.52"/><rect class="cls-29" x="211.35" y="376.17" width="248.89" height="62.52"/><rect class="cls-26" x="1527.3" y="518.45" width="183.92" height="93.19" transform="translate(3238.52 1130.09) rotate(180)"/><rect class="cls-26" x="1490.29" y="472.41" width="173.92" height="46.2" transform="translate(3154.5 991.02) rotate(180)"/><rect class="cls-26" x="1453.41" y="426.38" width="173.92" height="46.2" transform="translate(3080.73 898.96) rotate(180)"/><rect class="cls-26" x="1416.46" y="380.18" width="173.92" height="46.2" transform="translate(3006.83 806.57) rotate(180)"/><polygon class="cls-31" points="351.4 300.11 585.88 300.11 458.47 376.61 223.99 376.61 351.4 300.11"/><polygon class="cls-32" points="296.15 356.61 356.95 320.11 513.72 320.11 452.92 356.61 296.15 356.61"/><line class="cls-33" x1="470.96" y1="320.55" x2="411.64" y2="356.17"/><line class="cls-33" x1="436.31" y1="320.11" x2="375.52" y2="356.61"/><line class="cls-33" x1="399.7" y1="320.11" x2="338.91" y2="356.61"/><line class="cls-33" x1="495.73" y1="331.68" x2="338.91" y2="331.68"/><line class="cls-33" x1="474.99" y1="343.57" x2="318.17" y2="343.57"/><path class="cls-34" d="M156.32,65.81h60.37a41.91,41.91,0,0,1,41.91,41.91V178a0,0,0,0,1,0,0H111.86a0,0,0,0,1,0,0V110.28A44.47,44.47,0,0,1,156.32,65.81Z"/><rect class="cls-35" x="248.1" y="585.81" width="250.15" height="165.6"/><rect class="cls-24" x="279.86" y="617.57" width="250.15" height="165.6"/><path class="cls-2" d="M707.72,960.87H862.35a0,0,0,0,1,0,0v14.32a36.55,36.55,0,0,1-36.55,36.55H707.72a0,0,0,0,1,0,0V960.87A0,0,0,0,1,707.72,960.87Z" transform="translate(-201.28 1771.34) rotate(-90)"/><rect class="cls-11" x="582.44" y="909" width="177.15" height="154.63"/><g class="cls-36"><circle class="cls-37" cx="591.14" cy="916.55" r="20.89"/><circle class="cls-37" cx="675.2" cy="916.55" r="20.89"/><circle class="cls-37" cx="759.26" cy="916.55" r="20.89"/><circle class="cls-37" cx="634.76" cy="981.26" r="20.89"/><circle class="cls-37" cx="718.83" cy="981.26" r="20.89"/><circle class="cls-37" cx="802.89" cy="981.26" r="20.89"/><circle class="cls-37" cx="591.14" cy="1050.78" r="20.89"/><circle class="cls-37" cx="675.2" cy="1050.78" r="20.89"/><circle class="cls-37" cx="759.26" cy="1050.78" r="20.89"/></g><rect class="cls-9" x="582.44" y="909" width="177.15" height="154.63"/><polygon class="cls-2" points="698.21 909 670.95 953.22 643.83 909 643.83 840.2 698.21 840.2 698.21 909"/><path class="cls-3" d="M493.57,1018.4h0a40.71,40.71,0,0,1,40.71,40.71v4.51a0,0,0,0,1,0,0H452.87a0,0,0,0,1,0,0v-4.51A40.71,40.71,0,0,1,493.57,1018.4Z"/><path class="cls-1" d="M253.89,720.58v31.31a19.76,19.76,0,0,1-19.76,19.76H137V835.5h-20.9A31.2,31.2,0,0,1,84.9,804.31V754.6a53.78,53.78,0,0,1,53.77-53.78h95.46A19.76,19.76,0,0,1,253.89,720.58Z"/><rect class="cls-13" x="60.22" y="904.34" width="211.53" height="159.28"/><g class="cls-38"><line class="cls-39" x1="54.39" y1="964.9" x2="279.86" y2="964.9"/><line class="cls-39" x1="54.39" y1="1003.03" x2="279.86" y2="1003.03"/></g><rect class="cls-9" x="60.22" y="904.34" width="211.53" height="159.28"/><path class="cls-40" d="M217.18,768.16H136.55V888.72a54.53,54.53,0,0,0,54.53,54.53h0V858.92a43.71,43.71,0,0,0,42.8-43.69V784.86A16.7,16.7,0,0,0,217.18,768.16Z"/><path class="cls-9" d="M217.18,768.16H136.55V888.72a54.53,54.53,0,0,0,54.53,54.53h0V858.92a43.71,43.71,0,0,0,42.8-43.69V784.86A16.7,16.7,0,0,0,217.18,768.16Z"/><path class="cls-41" d="M227.67,792.27l16.48,28.64a4.41,4.41,0,0,1-3.83,6.61h-15"/><line class="cls-42" x1="213.7" y1="792.27" x2="191.08" y2="792.27"/><path class="cls-42" d="M223.15,839.89c-.33.39-11.57.34-21.29.22a14.26,14.26,0,0,1-14.09-14.26h0"/><path class="cls-13" d="M129.24,760.07h37.89a0,0,0,0,1,0,0v3.26A34.63,34.63,0,0,1,132.5,798h-3.26a0,0,0,0,1,0,0V760.07A0,0,0,0,1,129.24,760.07Z"/><path class="cls-9" d="M131.33,798h3.08a32.71,32.71,0,0,0,32.71-32.72v-3.08"/><path class="cls-43" d="M147.86,795.49H136.39A11.46,11.46,0,0,0,124.92,807h0a11.46,11.46,0,0,0,11.47,11.47h11.47"/><rect class="cls-44" x="310.24" y="647.95" width="250.15" height="165.6"/><circle class="cls-13" cx="336.03" cy="672.39" r="7.48"/><circle class="cls-45" cx="393.11" cy="672.39" r="7.48"/><circle class="cls-19" cx="364.57" cy="672.39" r="7.48"/><path class="cls-13" d="M328.55,1009.09v-48a56.8,56.8,0,0,0-56.8-56.79h0v159.28H423.38v-54.53Z"/><path class="cls-9" d="M328.55,1009.09v-48a56.8,56.8,0,0,0-56.8-56.79h0v159.28H423.38v-54.53Z"/><path class="cls-43" d="M493.37,1044.34H460.71A19.28,19.28,0,0,1,480,1063.62H423.38v-54.53h36.89a33.1,33.1,0,0,1,33.1,33.1Z"/><line class="cls-46" x1="328.55" y1="700.82" x2="449.7" y2="700.82"/><line class="cls-46" x1="328.55" y1="716.23" x2="449.7" y2="716.23"/><line class="cls-47" x1="328.55" y1="731.82" x2="366.34" y2="731.82"/><line class="cls-47" x1="328.55" y1="747.4" x2="455.02" y2="747.4"/><line class="cls-48" x1="328.55" y1="764.78" x2="455.02" y2="764.78"/><polygon class="cls-3" points="423.29 859 390.12 878.15 414.19 919.84 398.12 929.12 374.05 887.43 344.15 904.69 332.84 793.72 423.29 859"/><circle class="cls-7" cx="503.88" cy="700.82" r="30.23"/><line class="cls-48" x1="503.88" y1="704.91" x2="503.88" y2="685.04"/><line class="cls-48" x1="503.88" y1="716.61" x2="503.88" y2="710.03"/><path class="cls-2" d="M602,768.16h96.19a0,0,0,0,1,0,0V850a0,0,0,0,1,0,0H632.54A30.52,30.52,0,0,1,602,819.47V768.16A0,0,0,0,1,602,768.16Z"/><path class="cls-26" d="M698.21,760.77h0a61.38,61.38,0,0,1,61.38,61.38V909a0,0,0,0,1,0,0H698.21a0,0,0,0,1,0,0V760.77A0,0,0,0,1,698.21,760.77Z"/><rect class="cls-26" x="590.14" y="721.05" width="120.15" height="52.71" rx="26.35"/><path class="cls-42" d="M666.88,796.36a7.65,7.65,0,0,0-15.3,0"/><path class="cls-42" d="M614.37,796.36a7.65,7.65,0,0,1,15.3,0v17.2h14.16"/><path class="cls-42" d="M629.1,827.52h19.56a14,14,0,0,0,14-14h0"/><path class="cls-20" d="M521.15,909V769.93a8.57,8.57,0,1,0-17.14,0v34.3H472.73a12.39,12.39,0,0,0-12.39,12.39V834a16.76,16.76,0,0,0,9.93,15.3V909a50.88,50.88,0,0,0,50.88,50.87h61.27V909Z"/><path class="cls-9" d="M521.15,909V769.93a8.57,8.57,0,1,0-17.14,0v34.3H472.73a12.39,12.39,0,0,0-12.39,12.39V834a16.76,16.76,0,0,0,9.93,15.3V909a50.88,50.88,0,0,0,50.88,50.87h61.27V909Z"/><path class="cls-5" d="M101.17,238.74H246.31A42.22,42.22,0,0,1,288.53,281V404.35a0,0,0,0,1,0,0h-227a0,0,0,0,1,0,0v-126A39.59,39.59,0,0,1,101.17,238.74Z"/><path class="cls-26" d="M146,145h58a0,0,0,0,1,0,0V270a0,0,0,0,1,0,0H180.49A34.45,34.45,0,0,1,146,235.54V145A0,0,0,0,1,146,145Z"/><path class="cls-26" d="M146,103.94h84a28.55,28.55,0,0,1,28.55,28.55V194.1a13.37,13.37,0,0,1-13.37,13.37H146a0,0,0,0,1,0,0V103.94A0,0,0,0,1,146,103.94Z"/><path class="cls-34" d="M136.39,148.61H146a0,0,0,0,1,0,0v58.86a0,0,0,0,1,0,0h-48a0,0,0,0,1,0,0V186.91A38.3,38.3,0,0,1,136.39,148.61Z"/><path class="cls-26" d="M146,347.8H297.1a50.35,50.35,0,0,1,50.35,50.35v6.2a0,0,0,0,1,0,0H146a0,0,0,0,1,0,0V347.8A0,0,0,0,1,146,347.8Z"/><polyline class="cls-9" points="146.04 347.8 111.86 347.8 111.86 295.93"/><circle class="cls-49" cx="200.9" cy="146.95" r="14.63"/><circle class="cls-49" cx="249.96" cy="146.95" r="14.63"/><line class="cls-9" x1="235.33" y1="146.95" x2="215.53" y2="146.95"/><path class="cls-26" d="M155.84,147H142.4A13.45,13.45,0,0,0,129,160.4h0a13.45,13.45,0,0,0,13.45,13.44h13.44"/><line class="cls-9" x1="186.27" y1="146.95" x2="155.84" y2="146.95"/><path d="M193.75,147a9.45,9.45,0,0,1,3.58-2.35,10.22,10.22,0,0,1,3.57-.65,10,10,0,0,1,3.58.64,9.33,9.33,0,0,1,3.57,2.36,9.33,9.33,0,0,1-3.57,2.36,10,10,0,0,1-3.58.64,10.22,10.22,0,0,1-3.57-.65A9.45,9.45,0,0,1,193.75,147Z"/><path d="M242.81,147a9.37,9.37,0,0,1,3.58-2.35A10.22,10.22,0,0,1,250,144a10.07,10.07,0,0,1,3.58.64,9.33,9.33,0,0,1,3.57,2.36,9.33,9.33,0,0,1-3.57,2.36A10.07,10.07,0,0,1,250,150a10.22,10.22,0,0,1-3.57-.65A9.37,9.37,0,0,1,242.81,147Z"/><path class="cls-42" d="M235.33,160.4v4.48a9,9,0,0,1-9,9h-5.45"/><path class="cls-42" d="M231.55,186.85H213.91a13,13,0,0,1-13-13h0"/><rect class="cls-4" x="350.51" y="136.5" width="235.37" height="163.61"/><polygon class="cls-50" points="479.12 189.16 497.02 207.06 469.98 234.1 486.73 250.85 513.77 223.81 530.46 240.49 561.96 157.66 479.12 189.16"/><circle class="cls-29" cx="460.24" cy="441.07" r="28.56"/><path d="M460.24,454.67a32.58,32.58,0,0,1-1.56-6.8,53.29,53.29,0,0,1,0-13.59,32,32,0,0,1,1.57-6.8,31.42,31.42,0,0,1,1.58,6.8,51.58,51.58,0,0,1,.42,6.79,53.41,53.41,0,0,1-.43,6.8A32,32,0,0,1,460.24,454.67Z"/><path d="M446.64,441.07a32.87,32.87,0,0,1,6.8-1.56,54.61,54.61,0,0,1,13.6,0,32,32,0,0,1,6.8,1.57,31.42,31.42,0,0,1-6.8,1.58,54.61,54.61,0,0,1-13.6,0A32.27,32.27,0,0,1,446.64,441.07Z"/><line class="cls-51" x1="561.08" y1="441.07" x2="498.77" y2="441.07"/><path class="cls-11" d="M522.34,447.07a19.91,19.91,0,0,1-3,2.65c-.51.38-1,.69-1.53,1s-1,.6-1.52.87a27.74,27.74,0,0,1-6.08,2.36,30.16,30.16,0,0,1-12.18.45,41.12,41.12,0,0,1-12.17-3.89,43.49,43.49,0,0,1-6.08-3.75,35.8,35.8,0,0,1-6.09-5.57v-.29a35.8,35.8,0,0,1,6.09-5.57,43.49,43.49,0,0,1,6.08-3.75A41.12,41.12,0,0,1,498,427.72a30,30,0,0,1,12.18.46,27.2,27.2,0,0,1,6.08,2.35c.51.27,1,.58,1.52.87s1,.65,1.53,1a20.38,20.38,0,0,1,3,2.64Z"/><path class="cls-24" d="M630.79,313.7H762.9A46.1,46.1,0,0,1,809,359.8V534.14a0,0,0,0,1,0,0H584.69a0,0,0,0,1,0,0V359.8A46.1,46.1,0,0,1,630.79,313.7Z"/><circle class="cls-34" cx="709.27" cy="154.9" r="99.73"/><path class="cls-20" d="M725,185.41A26.39,26.39,0,0,0,698.64,159H652.78A27.29,27.29,0,0,0,625.5,186.3v63.25a21.19,21.19,0,0,0,21.19,21.19h22v47.84a28.13,28.13,0,0,0,28.13,28.13h0A28.14,28.14,0,0,0,725,318.58V270.74h0Z"/><path class="cls-9" d="M725,185.41A26.39,26.39,0,0,0,698.64,159H652.78A27.29,27.29,0,0,0,625.5,186.3v63.25a21.19,21.19,0,0,0,21.19,21.19h22v47.84a28.13,28.13,0,0,0,28.13,28.13h0A28.14,28.14,0,0,0,725,318.58V270.74h0Z"/><path class="cls-2" d="M718.89,197.15h15.67a19.2,19.2,0,0,1,19.2,19.19h0a19.2,19.2,0,0,1-19.2,19.2H718.89"/><path class="cls-34" d="M687.85,157.68h32.3a0,0,0,0,1,0,0v39.47a0,0,0,0,1,0,0h0a32.3,32.3,0,0,1-32.3-32.3v-7.17A0,0,0,0,1,687.85,157.68Z"/><path class="cls-42" d="M646.72,212.21,643,225.33a8,8,0,0,0,7.71,10.21h10"/><path class="cls-42" d="M663.48,213a8.72,8.72,0,0,1,17.44,0"/><path class="cls-42" d="M642.67,249.9h19.41a16.13,16.13,0,0,0,16.12-16.13h0"/><path class="cls-17" d="M593.63,411.09h1A19.36,19.36,0,0,1,614,430.46V470a0,0,0,0,1,0,0H574.27a0,0,0,0,1,0,0V430.46A19.36,19.36,0,0,1,593.63,411.09Z" transform="translate(153.57 1034.71) rotate(-90)"/><path class="cls-2" d="M622.4,420.66h51a0,0,0,0,1,0,0v51.21a0,0,0,0,1,0,0h-51a16.55,16.55,0,0,1-16.55-16.55v-18.1A16.55,16.55,0,0,1,622.4,420.66Z"/><path class="cls-24" d="M749.91,389.9v30.76H673.43v62.91H777.12A31.88,31.88,0,0,0,809,451.68v-84.5"/><path class="cls-52" d="M922,145h-16.7A96.25,96.25,0,0,0,809,241.2V451.68h0a96.24,96.24,0,0,0,96.25-96.24V218H995A73,73,0,0,0,922,145Z"/><path class="cls-9" d="M922,145h-16.7A96.25,96.25,0,0,0,809,241.2V451.68h0a96.24,96.24,0,0,0,96.25-96.24V218H995A73,73,0,0,0,922,145Z"/><path class="cls-26" d="M1113.89,253.34h88.68a0,0,0,0,1,0,0v32a28.07,28.07,0,0,1-28.07,28.07h-60.61a0,0,0,0,1,0,0V253.34A0,0,0,0,1,1113.89,253.34Z"/><path class="cls-26" d="M1136.06,262.42V199.48A11.08,11.08,0,0,0,1125,188.4h0a11.09,11.09,0,0,0-11.09,11.08v62.94"/><path class="cls-26" d="M1158.23,262.42V199.48a11.08,11.08,0,0,0-11.08-11.08h0a11.09,11.09,0,0,0-11.09,11.08v62.94"/><path class="cls-26" d="M1180.4,262.42V199.48a11.08,11.08,0,0,0-11.08-11.08h0a11.08,11.08,0,0,0-11.09,11.08v62.94"/><path class="cls-26" d="M1202.57,262.42V199.48a11.08,11.08,0,0,0-11.08-11.08h0a11.08,11.08,0,0,0-11.09,11.08v62.94"/><path class="cls-26" d="M988.19,279.72h20.62a5.09,5.09,0,0,0,4.82-6.72L995,218h-9"/><polyline class="cls-53" points="976.22 282.38 937.2 282.38 966.91 298.32"/><path class="cls-42" d="M975.94,248.84a10.36,10.36,0,1,0-20.72,0"/><line class="cls-9" x1="1060.18" y1="438.46" x2="975.94" y2="438.46"/><path class="cls-23" d="M1060.18,462.26v52.32a63.49,63.49,0,0,0,48.39,61.65v60.89l38.58,76.2,38.46-76.2V462.26Z"/><path class="cls-9" d="M1060.18,462.26v52.32a63.49,63.49,0,0,0,48.39,61.65v60.89l38.58,76.2,38.46-76.2V462.26Z"/><path class="cls-3" d="M1225.63,402.82h-106a59.44,59.44,0,0,0-59.44,59.44h125.43v108h0A65.35,65.35,0,0,0,1251,504.92V402.82Z"/><circle class="cls-3" cx="1260.75" cy="375.94" r="49.85"/><path class="cls-24" d="M1179.48,499.64h14.19a14.19,14.19,0,0,1,14.19,14.19h0A14.19,14.19,0,0,1,1193.67,528h-14.19"/><rect class="cls-26" x="1171.59" y="533.52" width="26.6" height="26.6" transform="translate(733.71 -677.68) rotate(45)"/><rect class="cls-25" x="810.47" y="785.06" width="276.88" height="28.5"/><rect class="cls-25" x="810.47" y="785.06" width="195.2" height="28.5"/><circle class="cls-54" cx="908.07" cy="716.23" r="35.62"/><circle class="cls-11" cx="908.07" cy="716.23" r="19.03"/><path class="cls-49" d="M1109.74,483.57h27a17.35,17.35,0,0,1,17.35,17.35v0a17.35,17.35,0,0,1-17.35,17.35h-9.65a17.35,17.35,0,0,1-17.35-17.35V483.57A0,0,0,0,1,1109.74,483.57Z"/><path class="cls-49" d="M1067.07,483.57h9.65a17.35,17.35,0,0,1,17.35,17.35v0a17.35,17.35,0,0,1-17.35,17.35h-27a0,0,0,0,1,0,0V500.91A17.35,17.35,0,0,1,1067.07,483.57Z" transform="translate(2143.78 1001.83) rotate(-180)"/><line class="cls-42" x1="1094.06" y1="483.57" x2="1109.74" y2="483.57"/><line class="cls-42" x1="1094.06" y1="495.98" x2="1109.74" y2="495.98"/><line class="cls-42" x1="1153.73" y1="495.98" x2="1185.57" y2="495.98"/><path class="cls-42" d="M1093.89,503.35v22.56h20.17v17.62h14.63a12,12,0,0,0,12-12h0"/><path class="cls-33" d="M1127,502.81a3.93,3.93,0,0,1,7.85,0"/><path class="cls-33" d="M1068.62,502.81a3.93,3.93,0,0,1,7.86,0"/><path class="cls-8" d="M857.77,7.92a19.9,19.9,0,0,0-19.9,19.9V133.18l50.13-28H989.54a19.91,19.91,0,0,0,19.91-19.9V27.82a19.91,19.91,0,0,0-19.91-19.9Z"/><path class="cls-55" d="M1010.71,474.52a19.9,19.9,0,0,1,19.91,19.91V599.78l-50.13-27.95H878.94a19.9,19.9,0,0,1-19.9-19.9v-57.5a19.9,19.9,0,0,1,19.9-19.91Z"/><polyline class="cls-51" points="871.38 50.24 892.29 70.24 913.2 50.24 934.11 70.24 955.02 50.24 975.94 70.24"/><polyline class="cls-51" points="918.38 525.07 936.06 542.75 974.67 504.14"/><rect class="cls-55" x="881.91" y="930.33" width="110.59" height="110.59" rx="28.02"/><rect class="cls-8" x="1205.3" y="916.82" width="137.61" height="137.61" transform="translate(-323.77 1189.61) rotate(-45)"/><rect class="cls-1" x="1032.06" y="930.33" width="110.59" height="110.59" rx="55.29"/><polygon class="cls-3" points="1508.11 985.63 1405.65 926.47 1405.65 1044.78 1508.11 985.63"/><polygon class="cls-5" points="2033.46 215.07 1977 288.56 2089.91 288.56 2033.46 215.07"/><polygon class="cls-5" points="2033.46 180.25 1991.8 247.53 2075.11 247.53 2033.46 180.25"/><rect class="cls-56" x="2006.58" y="288.56" width="53.76" height="24.36"/><polygon class="cls-57" points="1458.41 985.63 1430.5 969.51 1430.5 1001.74 1458.41 985.63"/><polygon class="cls-58" points="937.2 964.9 912.65 1007.44 961.76 1007.44 937.2 964.9"/><circle class="cls-59" cx="837.87" cy="903.38" r="13.17"/><circle class="cls-59" cx="63.01" cy="1063.62" r="13.17"/><circle class="cls-59" cx="248.1" cy="622.31" r="13.17"/><circle class="cls-59" cx="560.4" cy="63.36" r="13.17"/><circle class="cls-59" cx="810.47" cy="451.68" r="13.17"/><circle class="cls-59" cx="1005.67" cy="636.94" r="13.17"/><path class="cls-28" d="M1452.61,777.38h129a35.72,35.72,0,0,1,35.72,35.72v0a0,0,0,0,1,0,0H1416.88a0,0,0,0,1,0,0v0A35.72,35.72,0,0,1,1452.61,777.38Z"/><rect class="cls-28" x="1477.46" y="714.02" width="98.03" height="63.35"/><rect class="cls-29" x="1498.53" y="714.02" width="98.03" height="63.35"/><rect class="cls-29" x="1398.17" y="556.43" width="263.21" height="160.16" rx="23.14"/><rect class="cls-3" x="1423.21" y="556.43" width="269.97" height="160.16" rx="23.44"/><polygon class="cls-1" points="1563.23 527.33 1539.89 574.84 1586.58 574.84 1563.23 527.33"/><polygon class="cls-1" points="1454.04 636.51 1501.56 659.86 1501.56 613.17 1454.04 636.51"/><polygon class="cls-1" points="1563.23 745.7 1586.58 698.18 1539.89 698.18 1563.23 745.7"/><polygon class="cls-1" points="1672.42 636.51 1624.9 613.17 1624.9 659.86 1672.42 636.51"/><circle class="cls-8" cx="1563.23" cy="636.51" r="67.18"/><path class="cls-11" d="M1584.9,658.53a18.75,18.75,0,0,1-7.4,6.7,26.73,26.73,0,0,1-11.58,2.86v7.13h-5.64V668q-9.35-.79-15.06-5.59t-6.08-13.08h16c.35,3.52,2.06,5.78,5.11,6.78V642.19a87.88,87.88,0,0,1-11-3.43,18.34,18.34,0,0,1-7.17-5.37q-3.09-3.71-3.09-10.13a15.75,15.75,0,0,1,6-12.86q5.94-4.85,15.28-5.46V597.8h5.64v7.14q9.24.7,14.62,5.37t6,13h-16.12q-.53-4.75-4.49-6.17v13.65a115.6,115.6,0,0,1,11.27,3.62,18.18,18.18,0,0,1,7.09,5.23q3.12,3.66,3.13,10A16.82,16.82,0,0,1,1584.9,658.53Zm-28.54-32.28a11.67,11.67,0,0,0,3.92,2.64V616.65a7,7,0,0,0-3.88,1.89,5.52,5.52,0,0,0-1.41,4A5.29,5.29,0,0,0,1556.36,626.25Zm13.74,28a5.87,5.87,0,0,0,1.54-4.14,5.06,5.06,0,0,0-1.45-3.74,11.89,11.89,0,0,0-4.27-2.51v12.5A7,7,0,0,0,1570.1,654.26Z"/><path class="cls-29" d="M1481.34,777.38h129a35.72,35.72,0,0,1,35.72,35.72v0a0,0,0,0,1,0,0H1445.62a0,0,0,0,1,0,0v0A35.72,35.72,0,0,1,1481.34,777.38Z"/><polygon class="cls-29" points="1539.87 183.13 1538.13 283.36 1480.74 283.36 1489.41 183.13 1539.87 183.13"/><polygon class="cls-28" points="1618.99 183.13 1627.66 283.36 1568.53 283.36 1568.53 183.13 1618.99 183.13"/><polygon class="cls-29" points="1645.79 265.53 1459.14 265.53 1450.47 313.64 1650.99 313.64 1645.79 265.53"/><polygon class="cls-28" points="1637.63 155.14 1471.43 155.14 1471.43 203.32 1641.1 203.32 1637.63 155.14"/><polygon class="cls-60" points="1489.41 200.79 1539.87 200.79 1539.87 219.23 1489.41 211.2 1489.41 200.79"/><polygon class="cls-60" points="1618.99 200.79 1618.99 232.91 1568.53 224.88 1568.53 200.79 1618.99 200.79"/><polygon class="cls-31" points="1588.49 45.31 1512.96 53.25 1516.43 116.79 1591.96 116.79 1588.49 45.31"/><polygon class="cls-29" points="1678.88 116.79 1447.21 112.86 1429.51 164.9 1664.32 164.9 1678.88 116.79"/><circle class="cls-61" cx="1274.11" cy="985.63" r="25.61"/><rect class="cls-62" x="1069.81" y="968.09" width="35.08" height="35.08" transform="translate(1015.42 -480.19) rotate(45)"/><rect class="cls-63" x="1692.85" y="313.43" width="368.05" height="129.38"/><g class="cls-64"><path class="cls-15" d="M1693.25,339.89c23,0,23,12,45.9,12s22.95-12,45.91-12,23,12,45.9,12,23-12,45.9-12,23,12,45.91,12,23-12,45.9-12,23,12,45.91,12,23-12,45.91-12"/><path class="cls-15" d="M1693.25,372.12c23,0,23,12,45.9,12s22.95-12,45.91-12,23,12,45.9,12,23-12,45.9-12,23,12,45.91,12,23-12,45.9-12,23,12,45.91,12,23-12,45.91-12"/><path class="cls-15" d="M1693.25,404.35c23,0,23,12,45.9,12s22.95-12,45.91-12,23,12,45.9,12,23-12,45.9-12,23,12,45.91,12,23-12,45.9-12,23,12,45.91,12,23-12,45.91-12"/></g><rect class="cls-9" x="1692.85" y="313.43" width="368.05" height="129.38"/><circle class="cls-52" cx="2015.41" cy="1003.03" r="75.2"/><g class="cls-65"><rect class="cls-66" x="1927.63" y="876.16" width="87.78" height="235.45"/><line class="cls-9" x1="2015.41" y1="1078.23" x2="2015.41" y2="927.83"/><line class="cls-42" x1="2015.41" y1="999.95" x2="2090.61" y2="962.9"/><line class="cls-42" x1="2013.55" y1="1043.17" x2="2088.75" y2="1006.11"/><line class="cls-42" x1="2015.41" y1="999.95" x2="1940.21" y2="962.9"/><line class="cls-42" x1="2017.27" y1="1043.17" x2="1942.07" y2="1006.11"/></g><circle class="cls-9" cx="2015.41" cy="1003.03" r="75.2"/><path class="cls-67" d="M1749.7,312.53c0-7.65-6-14.26-14.57-17.37,3.9-8.31,3.43-17.19-2-22.6s-14.29-5.87-22.59-2c-3.12-8.62-9.73-14.57-17.38-14.57s-14.26,5.95-17.38,14.57c-8.3-3.89-17.18-3.43-22.59,2s-5.88,14.29-2,22.6c-8.62,3.11-14.58,9.72-14.58,17.37s6,14.26,14.58,17.38c-3.9,8.3-3.43,17.18,2,22.59s14.29,5.88,22.59,2c3.12,8.63,9.73,14.58,17.38,14.58s14.26-5.95,17.38-14.58c8.3,3.9,17.18,3.43,22.59-2s5.88-14.29,2-22.59C1743.75,326.79,1749.7,320.18,1749.7,312.53Zm-56.52,5a14.09,14.09,0,0,0-2.16.17,13.63,13.63,0,0,0-1.4-1.64,14.4,14.4,0,0,0-1.64-1.41,14.59,14.59,0,0,0,0-4.31,16.74,16.74,0,0,0,1.64-1.41,15.38,15.38,0,0,0,1.4-1.64,15.47,15.47,0,0,0,2.16.16,15.22,15.22,0,0,0,2.15-.16,14.38,14.38,0,0,0,3.05,3.05,14.59,14.59,0,0,0,0,4.31,14.4,14.4,0,0,0-1.64,1.41,14.69,14.69,0,0,0-1.41,1.64A13.86,13.86,0,0,0,1693.18,317.57Z"/><circle class="cls-68" cx="1693.18" cy="312.49" r="19.28"/><rect class="cls-26" x="560.32" y="583.17" width="250.15" height="105.36"/><path class="cls-69" d="M668.14,502.63h34.51a19.17,19.17,0,0,1,19.17,19.17v12.09a0,0,0,0,1,0,0H649a0,0,0,0,1,0,0V521.8a19.17,19.17,0,0,1,19.17-19.17Z"/><g class="cls-70"><polygon points="560.39 588.53 816.47 588.53 816.47 624.67 560.39 600.53 560.39 588.53"/></g><line class="cls-42" x1="561.72" y1="661.43" x2="809" y2="661.43"/><rect class="cls-26" x="548.36" y="534.14" width="272.67" height="51.67"/><rect class="cls-49" x="734.51" y="559.97" width="25.08" height="51.67" rx="12.54"/><rect class="cls-49" x="609.8" y="559.97" width="25.08" height="51.67" rx="12.54" transform="translate(1244.69 1171.61) rotate(180)"/><rect class="cls-26" x="1692.85" y="442.81" width="300.44" height="168.83"/><path class="cls-17" d="M1692.85,442.81H1736a0,0,0,0,1,0,0v47a21.56,21.56,0,0,1-21.56,21.56h0a21.56,21.56,0,0,1-21.56-21.56v-47A0,0,0,0,1,1692.85,442.81Z"/><path class="cls-3" d="M1736,442.81h43.12a0,0,0,0,1,0,0v47a21.56,21.56,0,0,1-21.56,21.56h0A21.56,21.56,0,0,1,1736,489.79v-47A0,0,0,0,1,1736,442.81Z"/><path class="cls-17" d="M1779.09,442.81h43.12a0,0,0,0,1,0,0v47a21.56,21.56,0,0,1-21.56,21.56h0a21.56,21.56,0,0,1-21.56-21.56v-47A0,0,0,0,1,1779.09,442.81Z"/><path class="cls-17" d="M1865.33,442.81h43.12a0,0,0,0,1,0,0v47a21.56,21.56,0,0,1-21.56,21.56h0a21.56,21.56,0,0,1-21.56-21.56v-47a0,0,0,0,1,0,0Z"/><path class="cls-3" d="M1822.21,442.81h43.12a0,0,0,0,1,0,0v47a21.56,21.56,0,0,1-21.56,21.56h0a21.56,21.56,0,0,1-21.56-21.56v-47A0,0,0,0,1,1822.21,442.81Z"/><rect class="cls-17" x="1908.44" y="442.35" width="152.45" height="169.3"/><rect class="cls-8" x="1727.1" y="532.23" width="59.19" height="79.42"/><rect class="cls-8" x="1786.29" y="532.23" width="90.58" height="42.61"/><circle class="cls-26" cx="350.51" cy="60.42" r="54.42"/><path class="cls-11" d="M366.49,76.66A13.9,13.9,0,0,1,361,81.59a19.6,19.6,0,0,1-8.54,2.11V89h-4.15V83.64a19.4,19.4,0,0,1-11.11-4.13,12.7,12.7,0,0,1-4.48-9.64h11.82a5.33,5.33,0,0,0,3.77,5V64.61a64.32,64.32,0,0,1-8.09-2.53,13.5,13.5,0,0,1-5.29-4,11.35,11.35,0,0,1-2.27-7.47,11.62,11.62,0,0,1,4.38-9.48,19.36,19.36,0,0,1,11.27-4V31.89h4.15v5.26q6.83.51,10.78,4a13.39,13.39,0,0,1,4.42,9.54H355.8a4.93,4.93,0,0,0-3.31-4.54V56.17a83.92,83.92,0,0,1,8.31,2.66A13.52,13.52,0,0,1,366,62.69a11,11,0,0,1,2.31,7.37A12.44,12.44,0,0,1,366.49,76.66Zm-21-23.8a8.78,8.78,0,0,0,2.89,2v-9a5.07,5.07,0,0,0-2.86,1.4,4.07,4.07,0,0,0-1,3A3.92,3.92,0,0,0,345.45,52.86Zm10.13,20.65a4.38,4.38,0,0,0,1.13-3.06,3.69,3.69,0,0,0-1.07-2.75,8.63,8.63,0,0,0-3.15-1.86v9.22A5.2,5.2,0,0,0,355.58,73.51Z"/><circle class="cls-71" cx="809" cy="322.68" r="54.42"/><path class="cls-11" d="M825,338.91a13.92,13.92,0,0,1-5.46,4.94A19.74,19.74,0,0,1,811,346v5.26h-4.15v-5.33a19.4,19.4,0,0,1-11.11-4.12,12.7,12.7,0,0,1-4.48-9.64h11.82a5.34,5.34,0,0,0,3.77,5V326.87a64.11,64.11,0,0,1-8.09-2.54,13.5,13.5,0,0,1-5.29-4,11.3,11.3,0,0,1-2.27-7.46,11.62,11.62,0,0,1,4.38-9.48,19.36,19.36,0,0,1,11.27-4v-5.26H811v5.26q6.82.53,10.78,4a13.43,13.43,0,0,1,4.42,9.55H814.29a5,5,0,0,0-3.31-4.55v10.07a81.32,81.32,0,0,1,8.31,2.66,13.52,13.52,0,0,1,5.23,3.86,11,11,0,0,1,2.31,7.37A12.4,12.4,0,0,1,825,338.91Zm-21-23.8a8.49,8.49,0,0,0,2.89,1.95v-9a5.06,5.06,0,0,0-2.86,1.39,4.09,4.09,0,0,0-1,3A3.88,3.88,0,0,0,803.94,315.11Zm10.13,20.65a4.36,4.36,0,0,0,1.13-3.05,3.73,3.73,0,0,0-1.07-2.76A8.76,8.76,0,0,0,811,328.1v9.22A5.26,5.26,0,0,0,814.07,335.76Z"/><path class="cls-72" d="M1762.41,723.78H1661.15v62.73a38.53,38.53,0,0,0,32,38v61.06A34.43,34.43,0,0,0,1727.61,920h0A34.43,34.43,0,0,0,1762,885.54V825h.37Z"/><path class="cls-9" d="M1762.41,723.78H1661.15v62.73a38.53,38.53,0,0,0,32,38v61.06A34.43,34.43,0,0,0,1727.61,920h0A34.43,34.43,0,0,0,1762,885.54V825h.37Z"/><path class="cls-17" d="M1762,858.87V723.78H1636.92v-8.19a35,35,0,0,1,35-35h88.26a43.17,43.17,0,0,1,43.17,43.17h0l39.55,135.09Z"/><polyline class="cls-9" points="1670.01 965.87 1670.01 1009.09 1818.13 1009.09"/><rect class="cls-3" x="1814.12" y="999.4" width="33.65" height="73.91"/><path class="cls-10" d="M1847.77,1009.09h17.71a54.53,54.53,0,0,1,54.53,54.53v0a0,0,0,0,1,0,0h-72.24a0,0,0,0,1,0,0v-54.53A0,0,0,0,1,1847.77,1009.09Z"/><path class="cls-42" d="M1703.3,750.7a10,10,0,0,0,20,0"/><path class="cls-42" d="M1662.89,750.7a10,10,0,0,0,20,0"/><path class="cls-49" d="M1680.22,790.89c0,7.93,9.65,14.36,21.57,14.36s21.57-6.43,21.57-14.36Z"/><path class="cls-42" d="M1701.38,777.38c0-3-3.82-5.5-8.53-5.5s-8.54,2.46-8.54,5.5"/><circle class="cls-59" cx="1692.52" cy="446.26" r="13.17"/><circle class="cls-59" cx="1551.87" cy="903" r="13.17"/><path class="cls-73" d="M2107.61,497s-57.64-7-88.88,24.23-24.23,88.88-24.23,88.88,57.65,7,88.88-24.23S2107.61,497,2107.61,497Z"/><g class="cls-74"><line class="cls-75" x1="1994.5" y1="610.09" x2="2107.61" y2="496.98"/><line class="cls-75" x1="2019.89" y1="584.07" x2="2018.78" y2="461.56"/><line class="cls-75" x1="2019.89" y1="584.07" x2="2142.41" y2="585.19"/><line class="cls-75" x1="2047.27" y1="556.7" x2="2046.16" y2="434.18"/><line class="cls-75" x1="2047.27" y1="556.7" x2="2169.79" y2="557.81"/></g><path class="cls-9" d="M2107.61,497s-57.64-7-88.88,24.23-24.23,88.88-24.23,88.88,57.65,7,88.88-24.23S2107.61,497,2107.61,497Z"/><rect class="cls-3" x="1830.92" y="602.37" width="275.1" height="162.61" rx="22.47"/><circle class="cls-13" cx="1862.94" cy="629.45" r="7.48"/><circle class="cls-45" cx="1920.01" cy="629.45" r="7.48"/><circle class="cls-19" cx="1891.48" cy="629.45" r="7.48"/><rect class="cls-76" x="1869.95" y="662.56" width="197.03" height="63.11" rx="31.55"/><path class="cls-11" d="M1917.36,695.74a5.17,5.17,0,0,1-.7,6.91,7.38,7.38,0,0,1-4.82,1.41h-9.65V684.55h9.35a7.41,7.41,0,0,1,4.69,1.33,4.47,4.47,0,0,1,1.7,3.73,4.34,4.34,0,0,1-3.29,4.43A4.62,4.62,0,0,1,1917.36,695.74Zm-9.75-3.44h2.74c1.37,0,2.05-.56,2.05-1.69s-.68-1.74-2.05-1.74h-2.74Zm5.2,5.67a1.72,1.72,0,0,0-.54-1.36,2.28,2.28,0,0,0-1.53-.47h-3.13v3.55h3.16C1912.13,699.69,1912.81,699.11,1912.81,698Z"/><path class="cls-11" d="M1926.07,684.55v11.32a3.62,3.62,0,0,0,.73,2.43,2.78,2.78,0,0,0,2.23.86,2.84,2.84,0,0,0,2.25-.87,3.55,3.55,0,0,0,.76-2.42V684.55h5.42v11.32a8.74,8.74,0,0,1-1.13,4.58,7.3,7.3,0,0,1-3.08,2.85,9.85,9.85,0,0,1-4.33,1,9.26,9.26,0,0,1-4.25-1,6.91,6.91,0,0,1-2.93-2.84,9.17,9.17,0,0,1-1.07-4.59V684.55Z"/><path class="cls-11" d="M1958.19,684.55l-6.86,13.31v6.2h-5.45v-6.2L1939,684.55h6.2l3.43,7.53,3.43-7.53Z"/><path class="cls-11" d="M1983.2,704.06h-5.43l-7.22-10.9v10.9h-5.42V684.55h5.42l7.22,11v-11h5.43Z"/><path class="cls-11" d="M1990.61,703a9.52,9.52,0,0,1-3.64-3.57,10.59,10.59,0,0,1,0-10.31,9.5,9.5,0,0,1,3.64-3.56,10.66,10.66,0,0,1,10.09,0,9.42,9.42,0,0,1,3.61,3.56,10.66,10.66,0,0,1,0,10.31,9.43,9.43,0,0,1-3.63,3.57,10.47,10.47,0,0,1-10.07,0Zm8.32-5.1a6.14,6.14,0,0,0,0-7.29,4.7,4.7,0,0,0-6.57,0,5.29,5.29,0,0,0-1.19,3.66,5.24,5.24,0,0,0,1.19,3.64,4.15,4.15,0,0,0,3.29,1.35A4.2,4.2,0,0,0,1998.93,697.86Z"/><path class="cls-11" d="M2035.54,684.55l-4.78,19.51h-6.67l-2.69-12-2.73,12H2012l-4.73-19.51h5.86l2.27,13.34,3.07-13.34h6l3,13.23,2.27-13.23Z"/><path class="cls-72" d="M2009.07,772.39l-31.2-14.57V722.55a9.52,9.52,0,0,0-19,0v62.83a4.82,4.82,0,0,1-7.9,3.71l-8.85-7.34A9.29,9.29,0,1,0,1930.23,796l28.61,23.75h55.37l6.12-23.45A20.69,20.69,0,0,0,2009.07,772.39Z"/><path class="cls-9" d="M2009.07,772.39l-31.2-14.57V722.55a9.52,9.52,0,0,0-19,0v62.83a4.82,4.82,0,0,1-7.9,3.71l-8.85-7.34A9.29,9.29,0,1,0,1930.23,796l28.61,23.75h55.37l6.12-23.45A20.69,20.69,0,0,0,2009.07,772.39Z"/><rect class="cls-3" x="1947.97" y="816.88" width="73.02" height="24.83"/><line class="cls-7" x1="1943.87" y1="500.44" x2="1995.63" y2="500.44"/><line class="cls-7" x1="1965.78" y1="486.91" x2="2017.55" y2="486.91"/><line class="cls-9" x1="1692.85" y1="824.7" x2="1720.78" y2="824.7"/><circle class="cls-59" cx="1331.42" cy="589.92" r="15.08"/><circle class="cls-59" cx="1392.52" cy="589.92" r="15.08"/><circle class="cls-59" cx="1361.57" cy="589.92" r="15.08"/><circle class="cls-10" cx="60.42" cy="645.66" r="54.42"/><path class="cls-11" d="M76.4,661.89a13.83,13.83,0,0,1-5.46,4.93,19.6,19.6,0,0,1-8.54,2.11v5.26H58.25v-5.32a19.47,19.47,0,0,1-11.11-4.12,12.72,12.72,0,0,1-4.48-9.65H54.48a5.32,5.32,0,0,0,3.77,5V649.84a64.32,64.32,0,0,1-8.09-2.53,13.5,13.5,0,0,1-5.29-4,11.35,11.35,0,0,1-2.27-7.47A11.63,11.63,0,0,1,47,626.4a19.36,19.36,0,0,1,11.27-4v-5.26H62.4v5.26q6.83.51,10.78,4a13.39,13.39,0,0,1,4.42,9.54H65.71a4.94,4.94,0,0,0-3.31-4.54V641.4a83.92,83.92,0,0,1,8.31,2.66,13.45,13.45,0,0,1,5.23,3.87,10.94,10.94,0,0,1,2.31,7.37A12.4,12.4,0,0,1,76.4,661.89Zm-21-23.8A8.49,8.49,0,0,0,58.25,640v-9a5.07,5.07,0,0,0-2.86,1.4,4.07,4.07,0,0,0-1,3A3.91,3.91,0,0,0,55.36,638.09Zm10.13,20.65a4.36,4.36,0,0,0,1.13-3,3.7,3.7,0,0,0-1.07-2.76,8.62,8.62,0,0,0-3.15-1.85v9.22A5.26,5.26,0,0,0,65.49,658.74Z"/><line class="cls-77" x1="378.63" y1="203.49" x2="441.86" y2="203.49"/><line class="cls-77" x1="378.63" y1="184.82" x2="441.86" y2="184.82"/><line class="cls-77" x1="378.63" y1="166.16" x2="441.86" y2="166.16"/><line class="cls-77" x1="378.63" y1="222.15" x2="441.86" y2="222.15"/><line class="cls-77" x1="378.63" y1="243.73" x2="406.48" y2="243.73"/><rect class="cls-26" x="350.51" y="270.74" width="235.37" height="29.37"/><path class="cls-19" d="M1403,180.21a64.34,64.34,0,1,0-95,56.59l3.56,30.86h54.14l3.56-30.86A64.32,64.32,0,0,0,1403,180.21Z"/><path class="cls-51" d="M1403,180.21a64.34,64.34,0,1,0-95,56.59l3.56,30.86h54.14l3.56-30.86A64.32,64.32,0,0,0,1403,180.21Z"/><line class="cls-7" x1="1307.43" y1="287.66" x2="1370.03" y2="287.66"/><line class="cls-7" x1="1307.43" y1="304.15" x2="1370.03" y2="304.15"/><path class="cls-7" d="M1338.69,138a42.21,42.21,0,0,0-42.21,42.22"/><path d="M1062.61,680.85v28.26h-6.88v-17l-6.32,17h-5.56l-6.36-17v17h-6.88V680.85h8.13l7.93,19.56,7.85-19.56Z"/><path d="M1091.45,680.85l-9.78,18.92v9.34h-6.89v-9.34L1065,680.85h7.81l5.48,11.83,5.43-11.83Z"/><path d="M1030.93,739.63c2.63-2.17,4.7-4,6.22-5.35a25.87,25.87,0,0,0,3.84-4.39,7.91,7.91,0,0,0,1.57-4.47,4,4,0,0,0-.76-2.58,2.83,2.83,0,0,0-2.3-.92,2.8,2.8,0,0,0-2.39,1.15,5.25,5.25,0,0,0-.87,3.24h-6.64a11.34,11.34,0,0,1,1.47-5.72,8.5,8.5,0,0,1,3.66-3.38,11.5,11.5,0,0,1,5-1.09q4.8,0,7.23,2.46a8.66,8.66,0,0,1,2.44,6.4,12.56,12.56,0,0,1-2.94,8,43.47,43.47,0,0,1-7.49,7.19h10.87v5.59h-20.21v-5.11C1030.59,739.92,1031,739.58,1030.93,739.63Z"/><path d="M1055.52,720.15q2.68-4,8.64-4t8.64,4q2.67,4,2.67,10.91t-2.67,11q-2.68,4-8.64,4t-8.64-4q-2.67-4-2.67-11T1055.52,720.15Zm12.3,4.65a4.14,4.14,0,0,0-7.32,0,17.13,17.13,0,0,0-.89,6.26,26.93,26.93,0,0,0,.32,4.53,5.85,5.85,0,0,0,1.31,2.9,4.43,4.43,0,0,0,5.84,0,5.85,5.85,0,0,0,1.31-2.9,26.93,26.93,0,0,0,.32-4.53A17.35,17.35,0,0,0,1067.82,724.8Z"/><path d="M1081.64,718.42a10.55,10.55,0,0,1,7.21-2.34,11.68,11.68,0,0,1,5.17,1,7.6,7.6,0,0,1,3.27,2.86,7.68,7.68,0,0,1,1.1,4.06,6.62,6.62,0,0,1-4.43,6.6v.17a7.3,7.3,0,0,1,3.63,2.53,7.42,7.42,0,0,1,1.33,4.55,8.43,8.43,0,0,1-1.15,4.41,7.82,7.82,0,0,1-3.34,3A13.42,13.42,0,0,1,1081.5,744q-2.88-2.37-3-7.17h6.69a4,4,0,0,0,1,2.8,3.69,3.69,0,0,0,2.82,1,3.2,3.2,0,0,0,2.44-.91,3.34,3.34,0,0,0,.86-2.39,3.21,3.21,0,0,0-1.22-2.8,6.94,6.94,0,0,0-3.93-.86h-1.29v-5.6h1.29a6.79,6.79,0,0,0,3.32-.71,2.62,2.62,0,0,0,1.27-2.51,3,3,0,0,0-.81-2.26,3,3,0,0,0-2.21-.8,2.74,2.74,0,0,0-2.27.92,4.16,4.16,0,0,0-.87,2.3h-6.72A8.8,8.8,0,0,1,1081.64,718.42Z"/><path d="M1105.13,720.15q2.68-4,8.64-4t8.64,4q2.67,4,2.67,10.91t-2.67,11q-2.69,4-8.64,4t-8.64-4q-2.67-4-2.67-11T1105.13,720.15Zm12.3,4.65a4.14,4.14,0,0,0-7.32,0,17.13,17.13,0,0,0-.89,6.26,26.93,26.93,0,0,0,.32,4.53,5.85,5.85,0,0,0,1.31,2.9,4.43,4.43,0,0,0,5.84,0,5.85,5.85,0,0,0,1.31-2.9,26.93,26.93,0,0,0,.32-4.53A17.35,17.35,0,0,0,1117.43,724.8Z"/><line class="cls-78" x1="1028.11" y1="760.04" x2="1124.84" y2="760.04"/><line class="cls-78" x1="1028.11" y1="668.43" x2="1089.8" y2="668.43"/></g></g></svg>