<svg xmlns="http://www.w3.org/2000/svg" xmlns:xlink="http://www.w3.org/1999/xlink" viewBox="0 0 2135.61 1151.02"><defs><style>.cls-1,.cls-21{fill:#269b48;}.cls-1,.cls-10,.cls-12,.cls-15,.cls-18,.cls-2,.cls-20,.cls-23,.cls-24,.cls-25,.cls-29,.cls-31,.cls-33,.cls-34,.cls-35,.cls-36,.cls-4,.cls-5,.cls-50,.cls-51,.cls-52,.cls-53,.cls-6,.cls-7,.cls-70,.cls-71,.cls-72,.cls-77,.cls-78,.cls-79,.cls-8,.cls-80,.cls-81,.cls-82,.cls-83,.cls-84,.cls-88,.cls-9,.cls-90,.cls-91,.cls-95,.cls-96,.cls-97{stroke:#000;}.cls-1,.cls-10,.cls-12,.cls-15,.cls-16,.cls-18,.cls-19,.cls-2,.cls-20,.cls-23,.cls-24,.cls-25,.cls-27,.cls-29,.cls-31,.cls-32,.cls-33,.cls-34,.cls-35,.cls-36,.cls-37,.cls-4,.cls-41,.cls-44,.cls-48,.cls-5,.cls-50,.cls-51,.cls-52,.cls-53,.cls-54,.cls-55,.cls-6,.cls-64,.cls-65,.cls-66,.cls-68,.cls-69,.cls-7,.cls-70,.cls-71,.cls-72,.cls-73,.cls-74,.cls-77,.cls-78,.cls-79,.cls-8,.cls-80,.cls-81,.cls-82,.cls-83,.cls-84,.cls-86,.cls-87,.cls-88,.cls-89,.cls-9,.cls-90,.cls-91,.cls-92,.cls-94,.cls-95,.cls-96,.cls-97,.cls-99{stroke-linejoin:round;}.cls-1,.cls-10,.cls-12,.cls-15,.cls-16,.cls-18,.cls-2,.cls-20,.cls-25,.cls-29,.cls-31,.cls-33,.cls-34,.cls-35,.cls-4,.cls-5,.cls-53,.cls-6,.cls-7,.cls-8,.cls-80,.cls-81,.cls-89,.cls-9,.cls-90,.cls-92,.cls-94,.cls-96,.cls-97,.cls-99{stroke-width:12px;}.cls-13,.cls-2,.cls-37,.cls-78{fill:#02558b;}.cls-12,.cls-16,.cls-24,.cls-27,.cls-3,.cls-32,.cls-36,.cls-41,.cls-44,.cls-48,.cls-54,.cls-55,.cls-64,.cls-65,.cls-66,.cls-68,.cls-69,.cls-71,.cls-77,.cls-89,.cls-94{fill:none;}.cls-4,.cls-61,.cls-72{fill:#f99d26;}.cls-39,.cls-5{fill:#289b48;}.cls-42,.cls-6{fill:#4d4d4d;}.cls-46,.cls-50,.cls-7,.cls-73{fill:#017dbc;}.cls-56,.cls-8{fill:#8f1738;}.cls-62,.cls-9{fill:#981398;}.cls-10,.cls-23,.cls-30,.cls-83{fill:#5dbb46;}.cls-11,.cls-20{fill:#48773c;}.cls-14,.cls-17,.cls-33,.cls-51,.cls-70,.cls-91{fill:#fdb715;}.cls-15{fill:#ef3f2c;}.cls-16,.cls-17,.cls-55,.cls-64,.cls-68{stroke:#fdb715;}.cls-17{stroke-miterlimit:10;}.cls-18,.cls-19,.cls-86,.cls-88,.cls-99{fill:#02aed9;}.cls-19,.cls-37,.cls-41,.cls-48,.cls-66,.cls-73,.cls-74,.cls-86,.cls-87,.cls-89{stroke:#fff;}.cls-19,.cls-24,.cls-41,.cls-50,.cls-68,.cls-69,.cls-72,.cls-74,.cls-82,.cls-83,.cls-84,.cls-91{stroke-width:6px;}.cls-22{clip-path:url(#clip-path);}.cls-23{stroke-width:9.34px;}.cls-25,.cls-60,.cls-82,.cls-87,.cls-95{fill:#e11584;}.cls-26{clip-path:url(#clip-path-2);}.cls-27{stroke:#f36d26;}.cls-27,.cls-32,.cls-36,.cls-37,.cls-44,.cls-48,.cls-51,.cls-52,.cls-54,.cls-55,.cls-86,.cls-87,.cls-88,.cls-95{stroke-width:8px;}.cls-28,.cls-29{fill:#c22033;}.cls-31{fill:#d19f2a;}.cls-32{stroke:#183669;}.cls-34,.cls-52,.cls-58,.cls-84,.cls-92{fill:#fff;}.cls-35{fill:#b3b3b3;}.cls-38,.cls-74,.cls-81{fill:#f26e24;}.cls-40{clip-path:url(#clip-path-3);}.cls-43{clip-path:url(#clip-path-4);}.cls-44{stroke:#f99d26;}.cls-45,.cls-79,.cls-80{fill:#183669;}.cls-47{clip-path:url(#clip-path-5);}.cls-49{clip-path:url(#clip-path-6);}.cls-53{fill:#dedede;}.cls-54,.cls-65{stroke:#ef3f2c;}.cls-57{clip-path:url(#clip-path-7);}.cls-59{clip-path:url(#clip-path-8);}.cls-63{clip-path:url(#clip-path-9);}.cls-64,.cls-65,.cls-66,.cls-70,.cls-71,.cls-73{stroke-width:4px;}.cls-67{clip-path:url(#clip-path-10);}.cls-69,.cls-99{stroke:#8f1738;}.cls-72{stroke-linecap:round;}.cls-75{clip-path:url(#clip-path-11);}.cls-76,.cls-97{fill:#c31e33;}.cls-77{stroke-width:3px;}.cls-78,.cls-79{stroke-width:10px;}.cls-85{opacity:0.3;}.cls-90{fill:#f2f2f2;}.cls-92{stroke:#e11584;}.cls-93{clip-path:url(#clip-path-12);}.cls-94{stroke:#48773c;}.cls-96{fill:#ef402c;}.cls-98{clip-path:url(#clip-path-13);}</style><clipPath id="clip-path" transform="translate(13.44)"><circle class="cls-1" cx="2035.3" cy="147.65" r="80.87"/></clipPath><clipPath id="clip-path-2" transform="translate(13.44)"><path class="cls-2" d="M1823.83,493.23H1971a92.27,92.27,0,0,1,92.27,92.27V723.36a0,0,0,0,1,0,0H1737.72a0,0,0,0,1,0,0v-144a86.11,86.11,0,0,1,86.11-86.11Z"/></clipPath><clipPath id="clip-path-3" transform="translate(13.44)"><path class="cls-5" d="M1729.14,979.52s-7,57.65,24.23,88.89,88.88,24.23,88.88,24.23,7-57.65-24.23-88.88S1729.14,979.52,1729.14,979.52Z"/></clipPath><clipPath id="clip-path-4" transform="translate(13.44)"><path class="cls-6" d="M931.64,407.57H1288a0,0,0,0,1,0,0v6.13a85.47,85.47,0,0,1-85.47,85.47H931.64a0,0,0,0,1,0,0v-91.6A0,0,0,0,1,931.64,407.57Z"/></clipPath><clipPath id="clip-path-5" transform="translate(13.44)"><rect class="cls-7" x="63.61" y="285.75" width="250.04" height="125.03"/></clipPath><clipPath id="clip-path-6" transform="translate(13.44)"><circle class="cls-1" cx="86.87" cy="458.42" r="80.87"/></clipPath><clipPath id="clip-path-7" transform="translate(13.44)"><polygon class="cls-8" points="243.96 184.45 174.75 285.75 313.18 285.75 243.96 184.45"/></clipPath><clipPath id="clip-path-8" transform="translate(13.44)"><polygon class="cls-8" points="149.37 159.56 63.15 285.75 235.58 285.75 149.37 159.56"/></clipPath><clipPath id="clip-path-9" transform="translate(13.44)"><path class="cls-9" d="M640.66,320.18h85.2a0,0,0,0,1,0,0V386a19.35,19.35,0,0,1-19.35,19.35H660A19.35,19.35,0,0,1,640.66,386V320.18A0,0,0,0,1,640.66,320.18Z"/></clipPath><clipPath id="clip-path-10" transform="translate(13.44)"><rect class="cls-10" x="640.66" y="149.77" width="85.2" height="170.41"/></clipPath><clipPath id="clip-path-11" transform="translate(13.44)"><rect class="cls-3" x="892.05" y="46.45" width="105.64" height="105.64" transform="translate(346.94 -639.05) rotate(45)"/></clipPath><clipPath id="clip-path-12" transform="translate(13.44)"><path class="cls-4" d="M1609,749.63h143.49a0,0,0,0,1,0,0v0a67.74,67.74,0,0,1-67.74,67.74H1609a0,0,0,0,1,0,0V749.63A0,0,0,0,1,1609,749.63Z"/></clipPath><clipPath id="clip-path-13" transform="translate(13.44)"><circle class="cls-1" cx="607.79" cy="911.2" r="80.87"/></clipPath></defs><g id="Layer_2" data-name="Layer 2"><g id="sdg9"><polygon class="cls-11" points="327.09 848.39 327.09 723.36 76.56 723.36 76.56 1098.46 747.09 1098.46 747.09 848.39 327.09 848.39"/><polygon class="cls-12" points="327.09 848.39 327.09 723.36 76.56 723.36 76.56 1098.46 747.09 1098.46 747.09 848.39 327.09 848.39"/><path class="cls-13" d="M404.05,828.88V937.19H269.13V990.4H404.05a53.2,53.2,0,0,0,53.2-53.21V828.88Z" transform="translate(13.44)"/><path class="cls-12" d="M404.05,828.88V937.19H269.13V990.4H404.05a53.2,53.2,0,0,0,53.2-53.21V828.88Z" transform="translate(13.44)"/><circle class="cls-14" cx="160.08" cy="169.19" r="136.27"/><rect class="cls-15" x="1444.42" y="99.26" width="412.81" height="249"/><rect class="cls-1" x="1366.03" y="848.67" width="705.64" height="249.79"/><line class="cls-16" x1="1774.13" y1="197" x2="1774.13" y2="98.2"/><path class="cls-17" d="M1739.3,207.44c0,19.31,9.57,44.59,21.39,44.59s21.39-25.28,21.39-44.59-9.57-28.56-21.39-28.56S1739.3,188.12,1739.3,207.44Z" transform="translate(13.44)"/><rect class="cls-18" x="1821.56" y="98.2" width="255.18" height="270.2"/><path class="cls-19" d="M1833.81,186v.11H2009a24.81,24.81,0,0,0-36.84-19.83,37.54,37.54,0,0,0-69.79-4.75,24.82,24.82,0,0,0-38.22.29A24.82,24.82,0,0,0,1833.81,186Z" transform="translate(13.44)"/><path class="cls-20" d="M1918.54,224.79h158.86a0,0,0,0,1,0,0v351a0,0,0,0,1,0,0H1821.56a0,0,0,0,1,0,0v-254A97,97,0,0,1,1918.54,224.79Z"/><path class="cls-8" d="M2030.24,109.73h47.15a0,0,0,0,1,0,0V316.28a23.57,23.57,0,0,1-23.57,23.57h0a23.57,23.57,0,0,1-23.57-23.57V109.73A0,0,0,0,1,2030.24,109.73Z"/><circle class="cls-21" cx="2048.74" cy="147.65" r="80.87"/><g class="cls-22"><rect class="cls-23" x="1940.82" y="11.65" width="94.4" height="253.19" transform="translate(12.26 18.11) rotate(-0.52)"/><line class="cls-12" x1="2049.48" y1="228.52" x2="2048.01" y2="66.79"/><line class="cls-24" x1="2048.71" y1="144.34" x2="2129.22" y2="103.76"/><line class="cls-24" x1="2047.14" y1="190.83" x2="2127.64" y2="150.25"/><line class="cls-24" x1="2048.71" y1="144.34" x2="1967.49" y2="105.23"/><line class="cls-24" x1="2051.14" y1="190.79" x2="1969.91" y2="151.68"/></g><circle class="cls-12" cx="2048.74" cy="147.65" r="80.87"/><rect class="cls-20" x="765.55" y="1017.82" width="122.18" height="80.63"/><path class="cls-25" d="M1875.33,288.38h43.91a90.18,90.18,0,0,1,90.18,90.18v191a0,0,0,0,1,0,0H1821.56a0,0,0,0,1,0,0V342.16A53.78,53.78,0,0,1,1875.33,288.38Z"/><path class="cls-13" d="M1837.27,493.23h147.2a92.27,92.27,0,0,1,92.27,92.27V723.36a0,0,0,0,1,0,0H1751.16a0,0,0,0,1,0,0v-144a86.11,86.11,0,0,1,86.11-86.11Z"/><g class="cls-26"><circle class="cls-27" cx="1954.42" cy="527.98" r="54.36"/><circle class="cls-27" cx="2029.06" cy="717.42" r="54.51"/><circle class="cls-27" cx="1874.39" cy="637.19" r="44.33"/><circle class="cls-27" cx="2086.62" cy="596" r="44.33"/><circle class="cls-27" cx="1751.16" cy="526.87" r="64.72"/><circle class="cls-27" cx="1734.21" cy="722.01" r="64.72"/></g><path class="cls-12" d="M1837.27,493.23h147.2a92.27,92.27,0,0,1,92.27,92.27V723.36a0,0,0,0,1,0,0H1751.16a0,0,0,0,1,0,0v-144a86.11,86.11,0,0,1,86.11-86.11Z"/><path class="cls-28" d="M1480.4,677.71h-60.51a9.95,9.95,0,0,0,0,19.9h25.28L1463,717.15l-16.76,13.17a9,9,0,0,0-.8,13.49h0a9,9,0,0,0,10.4,1.7l24.56-12.19h113.44V677.71Z" transform="translate(13.44)"/><path class="cls-12" d="M1480.4,677.71h-60.51a9.95,9.95,0,0,0,0,19.9h25.28L1463,717.15l-16.76,13.17a9,9,0,0,0-.8,13.49h0a9,9,0,0,0,10.4,1.7l24.56-12.19h113.44V677.71Z" transform="translate(13.44)"/><path class="cls-28" d="M1945.9,612.11h-174v55.61h113.45L1910,679.91a9,9,0,0,0,9.59-15.19l-16.75-13.17L1920.62,632h25.28a9.95,9.95,0,0,0,0-19.9Z" transform="translate(13.44)"/><path class="cls-12" d="M1945.9,612.11h-174v55.61h113.45L1910,679.91a9,9,0,0,0,9.59-15.19l-16.75-13.17L1920.62,632h25.28a9.95,9.95,0,0,0,0-19.9Z" transform="translate(13.44)"/><rect class="cls-29" x="1721.29" y="848.67" width="100.27" height="57.59"/><rect class="cls-4" x="1656.68" y="752.45" width="64.6" height="111.31"/><path class="cls-28" d="M1577.82,749.63a67.74,67.74,0,0,0-67.74,67.74V867H1577V817.37h32V749.63Z" transform="translate(13.44)"/><path class="cls-12" d="M1577.82,749.63a67.74,67.74,0,0,0-67.74,67.74V867H1577V817.37h32V749.63Z" transform="translate(13.44)"/><path class="cls-30" d="M1808.12,612.11h-184.3A46.81,46.81,0,0,0,1577,658.92v90.71h175.44V667.72h55.67Z" transform="translate(13.44)"/><path class="cls-12" d="M1808.12,612.11h-184.3A46.81,46.81,0,0,0,1577,658.92v90.71h175.44V667.72h55.67Z" transform="translate(13.44)"/><rect class="cls-31" x="1331.27" y="848.39" width="137.9" height="191.19"/><line class="cls-32" x1="1375.73" y1="987.67" x2="1421.82" y2="987.67"/><line class="cls-32" x1="1398.78" y1="973.7" x2="1444.87" y2="973.7"/><polygon class="cls-15" points="1444.42 921.3 1362.41 885.84 1362.41 850.37 1444.42 850.37 1444.42 921.3"/><rect class="cls-33" x="1469.18" y="848.39" width="227.35" height="191.19"/><circle class="cls-16" cx="446.18" cy="302.46" r="138.53"/><circle class="cls-16" cx="446.18" cy="302.46" r="92.67"/><circle class="cls-16" cx="446.18" cy="302.46" r="46.81"/><line class="cls-12" x1="361.17" y1="847.41" x2="420.27" y2="534.84"/><line class="cls-12" x1="467.91" y1="534.84" x2="527.01" y2="847.41"/><line class="cls-12" x1="410.04" y1="597.35" x2="478.14" y2="597.35"/><line class="cls-12" x1="384.81" y1="722.38" x2="503.37" y2="722.38"/><path class="cls-12" d="M359.55,784.9H637a33.09,33.09,0,0,0,33.08-33.09V712" transform="translate(13.44)"/><line class="cls-12" x1="400.87" y1="659.86" x2="491.49" y2="659.86"/><line class="cls-12" x1="369.91" y1="515.25" x2="518.27" y2="515.25"/><line class="cls-12" x1="398.72" y1="453.37" x2="489.46" y2="453.37"/><rect class="cls-34" x="390.67" y="515.25" width="111.03" height="25.94"/><rect class="cls-34" x="421.01" y="421.17" width="50.24" height="32.21"/><line class="cls-35" x1="429.3" y1="516.04" x2="429.3" y2="459.35"/><line class="cls-35" x1="462.97" y1="516.04" x2="462.97" y2="459.35"/><line class="cls-12" x1="446.18" y1="421.17" x2="446.18" y2="315.63"/><line class="cls-36" x1="444.09" y1="847.29" x2="444.09" y2="541.19"/><rect class="cls-34" x="394.9" y="471.25" width="102.56" height="24.15"/><path class="cls-12" d="M643.14,383.86H602.23A45.15,45.15,0,0,0,557.08,429V653.67a45.14,45.14,0,0,0,45.15,45.15H771.71" transform="translate(13.44)"/><rect class="cls-9" x="1143.88" y="187.97" width="38.96" height="80.14"/><rect class="cls-29" x="1093.23" y="127.09" width="89.61" height="60.71"/><rect class="cls-9" x="1357.95" y="117.24" width="97.43" height="196.43"/><rect class="cls-10" x="76.56" y="410.78" width="250.54" height="237.1"/><path class="cls-12" d="M1269.76,461a133.23,133.23,0,0,1,131.1-131.78h1.84a132.91,132.91,0,0,1,132.89,132.92v93.67a38,38,0,0,1-31,37.31v11.58A48.66,48.66,0,0,1,1456,653.34h-51.35a19.29,19.29,0,0,0-19.29,19.28V848.39h172.8" transform="translate(13.44)"/><rect class="cls-8" x="76.57" y="521.62" width="47.49" height="106.3"/><polygon class="cls-14" points="1182.68 117.24 1182.68 268.11 1145.22 268.11 1145.22 187.97 1041.24 187.97 1041.24 407.57 1357.55 407.57 1357.55 117.24 1182.68 117.24"/><polygon class="cls-12" points="1182.68 117.24 1182.68 268.11 1145.22 268.11 1145.22 187.97 1041.24 187.97 1041.24 407.57 1357.55 407.57 1357.55 117.24 1182.68 117.24"/><rect class="cls-37" x="1213.23" y="145.7" width="113.92" height="23.5"/><path class="cls-38" d="M878.41,177.18a79,79,0,1,0,0-158Z" transform="translate(13.44)"/><path class="cls-39" d="M1729.14,979.52s-7,57.65,24.23,88.89,88.88,24.23,88.88,24.23,7-57.65-24.23-88.88S1729.14,979.52,1729.14,979.52Z" transform="translate(13.44)"/><g class="cls-40"><line class="cls-41" x1="1855.69" y1="1092.64" x2="1742.58" y2="979.52"/><line class="cls-41" x1="1829.68" y1="1067.24" x2="1707.16" y2="1068.36"/><line class="cls-41" x1="1829.68" y1="1067.24" x2="1830.79" y2="944.73"/><line class="cls-41" x1="1802.3" y1="1039.86" x2="1679.78" y2="1040.98"/><line class="cls-41" x1="1802.3" y1="1039.86" x2="1803.41" y2="917.35"/></g><path class="cls-12" d="M1729.14,979.52s-7,57.65,24.23,88.89,88.88,24.23,88.88,24.23,7-57.65-24.23-88.88S1729.14,979.52,1729.14,979.52Z" transform="translate(13.44)"/><rect class="cls-37" x="1213.23" y="191.57" width="113.92" height="23.5"/><rect class="cls-37" x="1213.23" y="237.45" width="113.92" height="23.5"/><polygon class="cls-7" points="1360.13 282.5 1297.21 202.06 1422.67 202.06 1485.21 282.5 1485.21 407.57 1360.13 407.57 1360.13 282.5"/><polygon class="cls-18" points="1234.67 282.5 1297.21 202.06 1359.75 282.5 1359.75 407.57 1234.67 407.57 1234.67 282.5"/><path class="cls-42" d="M945.08,407.57H1301.4a0,0,0,0,1,0,0v6.13a85.47,85.47,0,0,1-85.47,85.47H945.08a0,0,0,0,1,0,0v-91.6A0,0,0,0,1,945.08,407.57Z"/><g class="cls-43"><line class="cls-44" x1="943.28" y1="453.37" x2="1302.57" y2="453.37"/></g><path class="cls-12" d="M945.08,407.57H1301.4a0,0,0,0,1,0,0v6.13a85.47,85.47,0,0,1-85.47,85.47H945.08a0,0,0,0,1,0,0v-91.6A0,0,0,0,1,945.08,407.57Z"/><path class="cls-34" d="M1360.36,1115.33h-7.07v-16.87h-69.5V1145h106.26A29.69,29.69,0,0,0,1360.36,1115.33Z" transform="translate(13.44)"/><path class="cls-45" d="M1283.08,963.34h-151.3A64.63,64.63,0,0,0,1196.4,1028h86.68v70.49h69.5v-65.62A69.5,69.5,0,0,0,1283.08,963.34Z" transform="translate(13.44)"/><path class="cls-12" d="M1283.08,963.34h-151.3A64.63,64.63,0,0,0,1196.4,1028h86.68v70.49h69.5v-65.62A69.5,69.5,0,0,0,1283.08,963.34Z" transform="translate(13.44)"/><polygon class="cls-10" points="975.36 893.62 1041.24 893.62 1041.24 724.71 975.36 744.71 975.36 893.62"/><polygon class="cls-7" points="1255.62 925.54 1321.51 925.54 1321.51 735.99 1255.62 755.99 1255.62 925.54"/><path class="cls-20" d="M1137.72,563.74h34.8A37.25,37.25,0,0,1,1209.78,601v96.1a0,0,0,0,1,0,0h-96.1a37.25,37.25,0,0,1-37.25-37.25V625a61.3,61.3,0,0,1,61.3-61.3Z"/><path class="cls-15" d="M1101.57,738.89h85.6a29.59,29.59,0,0,1,29.59,29.59V963.79a0,0,0,0,1,0,0H1071a0,0,0,0,1,0,0V769.47A30.57,30.57,0,0,1,1101.57,738.89Z"/><path class="cls-4" d="M1182.94,1080.05v18.41H973.39V925.54h84.16V1028h73.31A52.08,52.08,0,0,1,1182.94,1080.05Z" transform="translate(13.44)"/><path class="cls-12" d="M829.86,598.33H980.48a25.31,25.31,0,0,1,25.31,25.31V724.71" transform="translate(13.44)"/><rect class="cls-9" x="645.35" y="468.89" width="222.96" height="164.92"/><rect class="cls-46" x="77.05" y="285.75" width="250.04" height="125.03"/><g class="cls-47"><path class="cls-48" d="M61.73,306.86c31.49,0,31.49,12,63,12s31.5-12,63-12,31.5,12,63,12,31.5-12,63-12,31.5,12,63,12" transform="translate(13.44)"/><path class="cls-48" d="M61.73,342.27c31.49,0,31.49,12,63,12s31.5-12,63-12,31.5,12,63,12,31.5-12,63-12,31.5,12,63,12" transform="translate(13.44)"/><path class="cls-48" d="M61.73,377.67c31.49,0,31.49,12,63,12s31.5-12,63-12,31.5,12,63,12,31.5-12,63-12,31.5,12,63,12" transform="translate(13.44)"/></g><rect class="cls-12" x="77.05" y="285.75" width="250.04" height="125.03"/><circle class="cls-21" cx="100.31" cy="458.42" r="80.87"/><g class="cls-49"><rect class="cls-23" x="-7.62" y="322.42" width="94.4" height="253.19" transform="translate(9.35 0.38) rotate(-0.52)"/><line class="cls-12" x1="101.05" y1="539.29" x2="99.57" y2="377.56"/><line class="cls-24" x1="100.28" y1="455.11" x2="180.78" y2="414.53"/><line class="cls-24" x1="98.7" y1="501.6" x2="179.2" y2="461.02"/><line class="cls-24" x1="100.28" y1="455.11" x2="19.05" y2="416"/><line class="cls-24" x1="102.7" y1="501.56" x2="21.47" y2="462.45"/></g><circle class="cls-12" cx="100.31" cy="458.42" r="80.87"/><polygon class="cls-8" points="202.02 598.28 139.1 517.85 264.56 517.85 327.09 598.28 327.09 723.36 202.02 723.36 202.02 598.28"/><path class="cls-7" d="M274.69,937.19H101.8a38.68,38.68,0,0,0-38.68,38.68v122.59H274.69V937.19Z" transform="translate(13.44)"/><path class="cls-7" d="M205.12,746.54h0a56.82,56.82,0,0,1,56.82,56.82v14.57a0,0,0,0,1,0,0H148.3a0,0,0,0,1,0,0V803.36A56.82,56.82,0,0,1,205.12,746.54Z"/><path class="cls-50" d="M205.12,775.87h0a39.07,39.07,0,0,1,39.07,39.07v10a0,0,0,0,1,0,0H166.05a0,0,0,0,1,0,0v-10A39.07,39.07,0,0,1,205.12,775.87Z"/><path class="cls-14" d="M259.78,884.3,248.5,847.1V825.52H154.71V935.28l27.6,44.23,27.6-44.23V916.71h13.68A24.91,24.91,0,0,0,248.5,891.8v-3h8.38A3.18,3.18,0,0,0,259.78,884.3Z" transform="translate(13.44)"/><path class="cls-12" d="M259.78,884.3,248.5,847.1V825.52H154.71V935.28l27.6,44.23,27.6-44.23V916.71h13.68A24.91,24.91,0,0,0,248.5,891.8v-3h8.38A3.18,3.18,0,0,0,259.78,884.3Z" transform="translate(13.44)"/><path class="cls-8" d="M146.64,825.52H209.9a0,0,0,0,1,0,0v31.63a31.63,31.63,0,0,1-31.63,31.63h0a31.63,31.63,0,0,1-31.63-31.63V825.52A0,0,0,0,1,146.64,825.52Z"/><path class="cls-51" d="M202.48,847.1H186.69a12,12,0,0,0-12,12h0a12,12,0,0,0,12,12h15.79" transform="translate(13.44)"/><rect class="cls-7" x="141.29" y="808.85" width="152.32" height="23.54" rx="11.77"/><path class="cls-24" d="M232.52,860.47a6.65,6.65,0,0,0-13.3,0" transform="translate(13.44)"/><path class="cls-24" d="M244.49,898.53h-13.3a12,12,0,0,1-12-12h0" transform="translate(13.44)"/><line class="cls-50" x1="195.75" y1="979.51" x2="195.75" y2="1096.55"/><path class="cls-51" d="M233.79,1033.88h67.66a7.78,7.78,0,0,1,7.78,7.78h0a7.78,7.78,0,0,1-7.78,7.79H233.79" transform="translate(13.44)"/><path class="cls-51" d="M233.79,1049.45h67.66a7.78,7.78,0,0,1,7.78,7.79h0a7.78,7.78,0,0,1-7.78,7.79H233.79" transform="translate(13.44)"/><path class="cls-51" d="M233.79,1065h67.66a7.78,7.78,0,0,1,7.78,7.78h0a7.78,7.78,0,0,1-7.78,7.79H233.79" transform="translate(13.44)"/><path class="cls-51" d="M233.79,1080.6h67.66a7.78,7.78,0,0,1,7.78,7.79h0a7.78,7.78,0,0,1-7.78,7.79H233.79" transform="translate(13.44)"/><polyline class="cls-51" points="271.07 1033.88 213.63 1033.88 213.63 1096.18 271.07 1096.18"/><polyline class="cls-7" points="130.17 1098.46 221.85 1098.46 221.85 1035.89 130.17 1035.89 130.17 990.4"/><circle class="cls-52" cx="79.39" cy="1098.46" r="13.17"/><polygon class="cls-25" points="76.56 598.28 139.1 517.85 201.63 598.28 201.63 723.36 76.56 723.36 76.56 598.28"/><rect class="cls-53" x="115.03" y="655.97" width="45.05" height="67.39"/><line class="cls-54" x1="1051.01" y1="376.23" x2="1089.37" y2="376.23"/><line class="cls-54" x1="1070.19" y1="362.27" x2="1108.54" y2="362.27"/><line class="cls-55" x1="1383.2" y1="156.26" x2="1414.49" y2="156.26"/><line class="cls-55" x1="1398.84" y1="142.3" x2="1430.14" y2="142.3"/><path class="cls-34" d="M863.19,775.88h39.49a0,0,0,0,1,0,0V925.54a0,0,0,0,1,0,0H791.18a0,0,0,0,1,0,0V847.89A72,72,0,0,1,863.19,775.88Z"/><path class="cls-34" d="M851.74,826.68v23.69h67.59v43.89H836.55a28.7,28.7,0,0,1-28.7-28.7V826.68" transform="translate(13.44)"/><path class="cls-8" d="M932.77,850.37h9.32A43.89,43.89,0,0,1,986,894.26v0a0,0,0,0,1,0,0H932.77a0,0,0,0,1,0,0V850.37A0,0,0,0,1,932.77,850.37Z"/><path class="cls-51" d="M400.47,816.43V750.88a7.54,7.54,0,0,1,7.55-7.54h0a7.54,7.54,0,0,1,7.54,7.54v65.55" transform="translate(13.44)"/><path class="cls-51" d="M415.56,816.43V750.88a7.54,7.54,0,0,1,7.55-7.54h0a7.54,7.54,0,0,1,7.54,7.54v65.55" transform="translate(13.44)"/><path class="cls-51" d="M430.65,816.43V750.88a7.54,7.54,0,0,1,7.54-7.54h0a7.54,7.54,0,0,1,7.55,7.54v65.55" transform="translate(13.44)"/><path class="cls-51" d="M445.74,816.43V750.88a7.53,7.53,0,0,1,7.54-7.54h0a7.54,7.54,0,0,1,7.55,7.54v65.55" transform="translate(13.44)"/><path class="cls-51" d="M400.47,793.33v25.46A30.18,30.18,0,0,0,430.65,849h0a30.18,30.18,0,0,0,30.18-30.18V793.33" transform="translate(13.44)"/><path class="cls-14" d="M412.52,809.34,394.08,790.9a8,8,0,0,0-11.28,0h0a8,8,0,0,0,0,11.29l23.73,23.73" transform="translate(13.44)"/><path class="cls-36" d="M436.48,827.55h0a18.21,18.21,0,0,0-18.22-18.21h-5.74L394.08,790.9a8,8,0,0,0-11.28,0h0a8,8,0,0,0,0,11.29l18.43,18.43v4.94" transform="translate(13.44)"/><circle class="cls-52" cx="446.18" cy="302.46" r="13.17"/><polygon class="cls-56" points="257.4 184.45 188.19 285.75 326.62 285.75 257.4 184.45"/><g class="cls-57"><rect class="cls-58" x="219.57" y="171.38" width="48.78" height="48.78" transform="translate(223.33 -115.17) rotate(45)"/><rect class="cls-58" x="237.45" y="171.38" width="48.78" height="48.78" transform="translate(228.56 -127.81) rotate(45)"/><rect class="cls-58" x="201.7" y="171.38" width="48.78" height="48.78" transform="translate(537.83 174.33) rotate(135)"/></g><polygon class="cls-12" points="257.4 184.45 188.19 285.75 326.62 285.75 257.4 184.45"/><polygon class="cls-56" points="162.81 159.56 76.59 285.75 249.03 285.75 162.81 159.56"/><g class="cls-59"><rect class="cls-58" x="118.98" y="143.29" width="60.76" height="60.76" transform="translate(179.99 -54.75) rotate(45)"/><rect class="cls-58" x="141.25" y="143.29" width="60.76" height="60.76" transform="translate(186.51 -70.5) rotate(45)"/><rect class="cls-58" x="96.72" y="143.29" width="60.76" height="60.76" transform="translate(353.21 206.6) rotate(135)"/></g><polygon class="cls-12" points="162.81 159.56 76.59 285.75 249.03 285.75 162.81 159.56"/><path class="cls-60" d="M909.05,925.54H777.74v3.86a43.53,43.53,0,0,0,43.53,43.53h86.09v55h45.22v-58.9A43.53,43.53,0,0,0,909.05,925.54Z" transform="translate(13.44)"/><path class="cls-12" d="M909.05,925.54H777.74v3.86a43.53,43.53,0,0,0,43.53,43.53h86.09v55h45.22v-58.9A43.53,43.53,0,0,0,909.05,925.54Z" transform="translate(13.44)"/><path class="cls-7" d="M920.8,1028H962a35.28,35.28,0,0,1,35.28,35.28v0a0,0,0,0,1,0,0H920.8a0,0,0,0,1,0,0V1028A0,0,0,0,1,920.8,1028Z"/><polygon class="cls-61" points="765.55 972.93 765.55 848.28 732.48 848.28 732.48 1098.46 765.55 1098.46 765.55 1017.82 887.73 1017.82 887.73 1098.46 920.8 1098.46 920.8 972.93 765.55 972.93"/><polygon class="cls-12" points="765.55 972.93 765.55 848.28 732.48 848.28 732.48 1098.46 765.55 1098.46 765.55 1017.82 887.73 1017.82 887.73 1098.46 920.8 1098.46 920.8 972.93 765.55 972.93"/><rect class="cls-35" x="902.68" y="894.87" width="168.32" height="30.67"/><rect class="cls-35" x="1041.24" y="724.71" width="29.75" height="200.84"/><path class="cls-62" d="M654.1,320.18h85.2a0,0,0,0,1,0,0V386A19.35,19.35,0,0,1,720,405.38H673.45A19.35,19.35,0,0,1,654.1,386V320.18A0,0,0,0,1,654.1,320.18Z"/><g class="cls-63"><polyline class="cls-64" points="654.1 335.7 668.3 343.7 682.5 335.7 696.7 343.7 710.89 335.7 725.1 343.7 739.3 335.7"/><line class="cls-65" x1="654.1" y1="383.63" x2="739.3" y2="383.63"/><circle class="cls-66" cx="696.7" cy="362.78" r="8.63"/><circle class="cls-66" cx="728.19" cy="362.78" r="8.63"/><circle class="cls-66" cx="665.21" cy="362.78" r="8.63"/></g><path class="cls-12" d="M654.1,320.18h85.2a0,0,0,0,1,0,0V386A19.35,19.35,0,0,1,720,405.38H673.45A19.35,19.35,0,0,1,654.1,386V320.18A0,0,0,0,1,654.1,320.18Z"/><rect class="cls-30" x="654.1" y="149.77" width="85.2" height="170.41"/><g class="cls-67"><circle class="cls-68" cx="739.3" cy="149.77" r="27.89"/><circle class="cls-68" cx="739.3" cy="320.18" r="27.89"/><circle class="cls-69" cx="654.1" cy="149.77" r="27.89"/><circle class="cls-69" cx="654.1" cy="320.18" r="27.89"/><path class="cls-70" d="M726.82,190.46h10a0,0,0,0,1,0,0v32.28a0,0,0,0,1,0,0h-10a16.14,16.14,0,0,1-16.14-16.14v0A16.14,16.14,0,0,1,726.82,190.46Z"/><circle class="cls-11" cx="723.78" cy="206.45" r="4.19"/><path class="cls-70" d="M659.23,190.46h10a0,0,0,0,1,0,0v32.28a0,0,0,0,1,0,0h-10a16.14,16.14,0,0,1-16.14-16.14v0A16.14,16.14,0,0,1,659.23,190.46Z" transform="translate(1325.81 413.2) rotate(-180)"/><circle class="cls-11" cx="669.63" cy="206.45" r="4.19"/><rect class="cls-70" x="669.74" y="248.81" width="53.92" height="27.43" rx="13.72"/><path class="cls-71" d="M669.36,207v21.68a9.94,9.94,0,0,0,9.94,9.93h8a9.94,9.94,0,0,0,9.94-9.93V207" transform="translate(13.44)"/><line class="cls-72" x1="681.25" y1="262.34" x2="712.16" y2="262.34"/></g><rect class="cls-12" x="654.1" y="149.77" width="85.2" height="170.41"/><path class="cls-7" d="M640.66,58.56h85.2a0,0,0,0,1,0,0v72.86a18.35,18.35,0,0,1-18.35,18.35H658.64a18,18,0,0,1-18-18V58.56a0,0,0,0,1,0,0Z" transform="translate(1379.96 208.33) rotate(180)"/><path class="cls-15" d="M725.86,92.41h84.21a0,0,0,0,1,0,0v33.85a0,0,0,0,1,0,0H759.72a33.85,33.85,0,0,1-33.85-33.85v0A0,0,0,0,1,725.86,92.41Z" transform="translate(1549.37 218.68) rotate(180)"/><rect class="cls-73" x="670.19" y="85.79" width="39.9" height="26.6" rx="13.3" transform="translate(1393.72 198.18) rotate(-180)"/><circle class="cls-58" cx="703.58" cy="99.09" r="4.71"/><rect class="cls-25" x="620.34" y="443.88" width="222.96" height="164.92"/><path class="cls-20" d="M739.3,179.1H896.19a0,0,0,0,1,0,0v.74a35.39,35.39,0,0,1-35.39,35.39H739.3a0,0,0,0,1,0,0V179.1A0,0,0,0,1,739.3,179.1Z"/><path class="cls-20" d="M739.3,215.23h117.5a0,0,0,0,1,0,0V216a35.39,35.39,0,0,1-35.39,35.39H739.3a0,0,0,0,1,0,0V215.23A0,0,0,0,1,739.3,215.23Z"/><path class="cls-20" d="M739.3,251.37h82a0,0,0,0,1,0,0v.74A35.39,35.39,0,0,1,785.9,287.5H739.3a0,0,0,0,1,0,0V251.37A0,0,0,0,1,739.3,251.37Z"/><path class="cls-10" d="M483.82,179.1H605.32a35.39,35.39,0,0,1,35.39,35.39v.74a0,0,0,0,1,0,0H483.82a0,0,0,0,1,0,0V179.1A0,0,0,0,1,483.82,179.1Z" transform="translate(1137.98 394.33) rotate(180)"/><path class="cls-10" d="M523.21,215.23h82.11a35.39,35.39,0,0,1,35.39,35.39v.74a0,0,0,0,1,0,0H523.21a0,0,0,0,1,0,0V215.23A0,0,0,0,1,523.21,215.23Z" transform="translate(1177.36 466.6) rotate(180)"/><path class="cls-10" d="M558.72,251.37h46.59a35.39,35.39,0,0,1,35.39,35.39v.74a0,0,0,0,1,0,0h-82a0,0,0,0,1,0,0V251.37A0,0,0,0,1,558.72,251.37Z" transform="translate(1212.88 538.87) rotate(180)"/><path class="cls-74" d="M500.35,121.75v.16h-258a36.52,36.52,0,0,1,54.22-29.19,55.26,55.26,0,0,1,102.74-7,36.52,36.52,0,0,1,56.27.42,36.89,36.89,0,0,1,8.21-.93A36.52,36.52,0,0,1,500.35,121.75Z" transform="translate(13.44)"/><g class="cls-75"><circle class="cls-16" cx="884.23" cy="97.08" r="86.82"/><circle class="cls-16" cx="884.23" cy="97.08" r="60.61"/><circle class="cls-16" cx="884.23" cy="97.08" r="34.4"/></g><circle class="cls-52" cx="683.54" cy="698.82" r="13.17"/><circle class="cls-52" cx="326.32" cy="847.41" r="13.17"/><path class="cls-76" d="M791.89,493.79A27,27,0,0,0,766,466.86a27.44,27.44,0,0,0,.5-5.16,27,27,0,0,0-47.69-17.24,27,27,0,0,0-44,28.87A27,27,0,0,0,672.12,525a27,27,0,1,0,50.15,13.73,27.23,27.23,0,0,0-.57-5.53,27,27,0,0,0,5.36.53h.06A27,27,0,1,0,777,517.9,27,27,0,0,0,791.89,493.79Z" transform="translate(13.44)"/><path class="cls-36" d="M791.89,493.79A27,27,0,0,0,766,466.86a27.44,27.44,0,0,0,.5-5.16,27,27,0,0,0-47.69-17.24,27,27,0,0,0-44,28.87A27,27,0,0,0,672.12,525a27,27,0,1,0,50.15,13.73,27.23,27.23,0,0,0-.57-5.53,27,27,0,0,0,5.36.53h.06A27,27,0,1,0,777,517.9,27,27,0,0,0,791.89,493.79Z" transform="translate(13.44)"/><path class="cls-52" d="M711.32,555.86h50.32a51.2,51.2,0,0,1,51.2,51.2v1.05a0,0,0,0,1,0,0H660.12a0,0,0,0,1,0,0v-1.05a51.2,51.2,0,0,1,51.2-51.2Z"/><path class="cls-61" d="M732.48,487.3H713.6a19.92,19.92,0,0,0-19.92,19.92V526.1a19.9,19.9,0,0,0,12.07,18.31v11.33A17.29,17.29,0,0,0,723,573h0a17.29,17.29,0,0,0,17.29-17.29V544.41A19.9,19.9,0,0,0,752.4,526.1V507.22A19.92,19.92,0,0,0,732.48,487.3Z" transform="translate(13.44)"/><path class="cls-36" d="M732.48,487.3H713.6a19.92,19.92,0,0,0-19.92,19.92V526.1a19.9,19.9,0,0,0,12.07,18.31v11.33A17.29,17.29,0,0,0,723,573h0a17.29,17.29,0,0,0,17.29-17.29V544.41A19.9,19.9,0,0,0,752.4,526.1V507.22A19.92,19.92,0,0,0,732.48,487.3Z" transform="translate(13.44)"/><path class="cls-71" d="M712.57,524.46a10.47,10.47,0,0,0,20.94,0" transform="translate(13.44)"/><circle class="cls-66" cx="747.52" cy="509.07" r="8.56"/><circle class="cls-66" cx="724.33" cy="509.07" r="8.56"/><line class="cls-66" x1="724.29" y1="500.51" x2="747.52" y2="500.51"/><path class="cls-77" d="M737.11,509.07a3,3,0,1,0-6.06,0" transform="translate(13.44)"/><path class="cls-77" d="M709,509.07a3,3,0,1,1,6.06,0" transform="translate(13.44)"/><path class="cls-15" d="M1113.7,808.42V860l76.68.28A41.7,41.7,0,0,1,1231.92,902v23.53H1057.56V808.42" transform="translate(13.44)"/><path class="cls-33" d="M1245.36,887h29.35a38.49,38.49,0,0,1,38.49,38.49v.08a0,0,0,0,1,0,0h-67.84a0,0,0,0,1,0,0V887A0,0,0,0,1,1245.36,887Z"/><rect class="cls-35" x="1143.1" y="925.54" width="205.66" height="38.25"/><rect class="cls-35" x="1321.5" y="735.99" width="40.91" height="227.8"/><polygon class="cls-56" points="923.81 468.76 914.07 458.32 904.34 468.76 904.34 359.18 923.81 359.18 923.81 468.76"/><path class="cls-78" d="M905,359.18l-79.35-52.44-79.35,52.44,18.3,12.1a110.74,110.74,0,0,0,122.09,0Z" transform="translate(13.44)"/><path class="cls-79" d="M866.62,367.25l-15.17-8a54.51,54.51,0,0,0-51,0l-15.17,8v37h81.36Z" transform="translate(13.44)"/><line class="cls-80" x1="945.27" y1="407.57" x2="945.27" y2="582.78"/><circle class="cls-52" cx="945.27" cy="595.95" r="13.17"/><circle class="cls-52" cx="881.48" cy="98.2" r="13.17"/><path class="cls-13" d="M1214.29,963.34H1063a64.63,64.63,0,0,0,64.62,64.63h86.68v70.49h69.5v-65.62A69.5,69.5,0,0,0,1214.29,963.34Z" transform="translate(13.44)"/><path class="cls-12" d="M1214.29,963.34H1063a64.63,64.63,0,0,0,64.62,64.63h86.68v70.49h69.5v-65.62A69.5,69.5,0,0,0,1214.29,963.34Z" transform="translate(13.44)"/><path class="cls-34" d="M1290.85,1115.33h-7.06v-16.87h-69.5V1145h106.25A29.69,29.69,0,0,0,1290.85,1115.33Z" transform="translate(13.44)"/><path class="cls-81" d="M1349,736V648.85a25.51,25.51,0,0,1,25.51-25.51H1456a18.65,18.65,0,0,0,18.66-18.66V563.74h23a8,8,0,0,0,7.94-8V462.12a102.85,102.85,0,0,0-190.08-54.55" transform="translate(13.44)"/><path class="cls-36" d="M1479.73,588.79h-23a25.51,25.51,0,0,1-25.51-25.51h0" transform="translate(13.44)"/><path class="cls-12" d="M1308.06,736V616.34a38.67,38.67,0,0,1,38.68-38.67h33.4A16.73,16.73,0,0,0,1396.86,561V462a15.64,15.64,0,0,1,15.65-15.65l20.53,0a13.61,13.61,0,0,0,13.63-13.61V421.15" transform="translate(13.44)"/><path class="cls-12" d="M1359.61,411.8v67.12a15.65,15.65,0,0,0,15.65,15.65h21.6" transform="translate(13.44)"/><path class="cls-12" d="M1360.08,538.58h-43.92a50.32,50.32,0,0,0-50.32,50.33v159.9" transform="translate(13.44)"/><circle class="cls-82" cx="1371.13" cy="538.58" r="13.58"/><path class="cls-12" d="M1396.86,524.47H1450a15.65,15.65,0,0,0,15.65-15.65V494.57" transform="translate(13.44)"/><circle class="cls-83" cx="1479.13" cy="489.08" r="13.58"/><circle class="cls-84" cx="1460.12" cy="421.15" r="13.58"/><circle class="cls-50" cx="1373.52" cy="411.8" r="13.58"/><polygon class="cls-15" points="1093.23 127.09 1041.08 187.8 1145.38 187.8 1093.23 127.09"/><g class="cls-85"><polygon points="1182.69 111.24 1357.55 111.24 1357.55 161.03 1182.69 123.24 1182.69 111.24"/></g><rect class="cls-15" x="1166.87" y="79.16" width="191.09" height="38.07"/><rect class="cls-29" x="1357.95" y="79.16" width="115.74" height="38.07"/><path class="cls-14" d="M1208.92,675l-12.58-24v-32h-83v24.68a18.23,18.23,0,0,0-9.52,35.1v65.87a34.11,34.11,0,0,0,34.1,34.11h28.32V716.51h13.09a17.05,17.05,0,0,0,17-17V685.23h6.38A7,7,0,0,0,1208.92,675Z" transform="translate(13.44)"/><path class="cls-12" d="M1208.92,675l-12.58-24v-32h-83v24.68a18.23,18.23,0,0,0-9.52,35.1v65.87a34.11,34.11,0,0,0,34.1,34.11h28.32V716.51h13.09a17.05,17.05,0,0,0,17-17V685.23h6.38A7,7,0,0,0,1208.92,675Z" transform="translate(13.44)"/><rect class="cls-86" x="1078.08" y="208.58" width="30.31" height="63.29"/><rect class="cls-87" x="1104.55" y="299.4" width="107.26" height="36.47"/><path class="cls-12" d="M1287.34,407.57h28.17s10.18-17.42,24.5-26.94" transform="translate(13.44)"/><rect class="cls-88" x="1392.6" y="297.35" width="62.79" height="32.63"/><path class="cls-61" d="M1187.41,433.65a55.48,55.48,0,1,0-81.89,48.79l3.07,26.62h46.69l3.07-26.62A55.44,55.44,0,0,0,1187.41,433.65Z" transform="translate(13.44)"/><path class="cls-89" d="M1187.41,433.65a55.48,55.48,0,1,0-81.89,48.79l3.07,26.62h46.69l3.07-26.62A55.44,55.44,0,0,0,1187.41,433.65Z" transform="translate(13.44)"/><line class="cls-48" x1="1118.42" y1="526.3" x2="1172.4" y2="526.3"/><line class="cls-48" x1="1118.42" y1="540.52" x2="1172.4" y2="540.52"/><path class="cls-48" d="M1131.94,397.25a36.41,36.41,0,0,0-36.41,36.4" transform="translate(13.44)"/><line class="cls-36" x1="1171.2" y1="653.8" x2="1194.48" y2="653.8"/><rect class="cls-1" x="427.22" y="1010.16" width="35.42" height="85.63"/><path class="cls-1" d="M506.48,1051.63h0a0,0,0,0,1,0,0v0a43.85,43.85,0,0,1-43.85,43.85h0a0,0,0,0,1,0,0v0A43.85,43.85,0,0,1,506.48,1051.63Z"/><path class="cls-1" d="M369.93,1051.63h0a43.85,43.85,0,0,1,43.85,43.85v0a0,0,0,0,1,0,0h0a43.85,43.85,0,0,1-43.85-43.85v0A0,0,0,0,1,369.93,1051.63Z" transform="translate(797.15 2147.1) rotate(-180)"/><rect class="cls-15" x="387.17" y="906.57" width="115.52" height="115.52" rx="57.76"/><circle class="cls-14" cx="444.93" cy="964.33" r="22.94"/><circle class="cls-58" cx="444.93" cy="964.33" r="7.37"/><rect class="cls-90" x="107.97" y="602.94" width="59.17" height="26.35"/><path class="cls-36" d="M1158.83,678.13c0,7.85,5.77,14.21,12.9,14.21h23.11" transform="translate(13.44)"/><line class="cls-35" x1="1371.13" y1="453.37" x2="1340.08" y2="453.37"/><circle class="cls-91" cx="1331.59" cy="453.37" r="13.58"/><path class="cls-92" d="M1319.51,306.42a17.16,17.16,0,0,0-24.28,0l-12.15,12.14-12.14-12.14a17.17,17.17,0,0,0-24.29,24.28l12.15,12.15,24.28,24.28,36.43-36.43A17.16,17.16,0,0,0,1319.51,306.42Z" transform="translate(13.44)"/><path class="cls-15" d="M1444.42,848.67H1484a0,0,0,0,1,0,0V921.3a19.78,19.78,0,0,1-19.78,19.78h0a19.78,19.78,0,0,1-19.78-19.78V848.67A0,0,0,0,1,1444.42,848.67Z"/><path class="cls-34" d="M1484,848.67h39.55a0,0,0,0,1,0,0V921.3a19.78,19.78,0,0,1-19.78,19.78h0A19.78,19.78,0,0,1,1484,921.3V848.67a0,0,0,0,1,0,0Z"/><path class="cls-15" d="M1523.52,848.67h39.55a0,0,0,0,1,0,0V921.3a19.78,19.78,0,0,1-19.78,19.78h0a19.78,19.78,0,0,1-19.78-19.78V848.67a0,0,0,0,1,0,0Z"/><path class="cls-34" d="M1563.08,848.67h39.55a0,0,0,0,1,0,0V921.3a19.78,19.78,0,0,1-19.78,19.78h0a19.78,19.78,0,0,1-19.78-19.78V848.67A0,0,0,0,1,1563.08,848.67Z"/><path class="cls-15" d="M1602.63,848.67h39.55a0,0,0,0,1,0,0V921.3a19.78,19.78,0,0,1-19.78,19.78h0a19.78,19.78,0,0,1-19.78-19.78V848.67A0,0,0,0,1,1602.63,848.67Z"/><path class="cls-15" d="M1681.73,848.67h39.55a0,0,0,0,1,0,0V921.3a19.78,19.78,0,0,1-19.78,19.78h0a19.78,19.78,0,0,1-19.78-19.78V848.67a0,0,0,0,1,0,0Z"/><path class="cls-34" d="M1642.18,848.67h39.55a0,0,0,0,1,0,0V921.3A19.78,19.78,0,0,1,1662,941.07h0a19.78,19.78,0,0,1-19.78-19.78V848.67a0,0,0,0,1,0,0Z"/><rect class="cls-7" x="1503.75" y="964.33" width="66.57" height="75.25"/><rect class="cls-7" x="1591.2" y="963.34" width="79.14" height="42.01"/><rect class="cls-33" x="1821.56" y="756.9" width="130.7" height="341.56"/><rect class="cls-29" x="1952.26" y="756.9" width="124.48" height="341.56"/><rect class="cls-25" x="1862.3" y="1000.7" width="44.15" height="97.76"/><rect class="cls-34" x="1862.3" y="932.23" width="44.15" height="44.15"/><rect class="cls-34" x="1862.3" y="863.76" width="44.15" height="44.15"/><rect class="cls-34" x="1862.3" y="795.29" width="44.15" height="44.15"/><rect class="cls-15" x="1807.49" y="723.36" width="144.77" height="33.54"/><rect class="cls-7" x="1952.26" y="723.36" width="132.79" height="33.54"/><path class="cls-28" d="M1589.7,504.35V529.7c-.43,0-.86-.07-1.3-.07h0a14.92,14.92,0,0,0,0,29.84h0a14.76,14.76,0,0,0,5.84-1.19,43,43,0,0,0,38.44,23.77v36.76a32,32,0,0,0,32,32.05h0a32,32,0,0,0,32-32.05V504.35Z" transform="translate(13.44)"/><path class="cls-12" d="M1589.7,504.35V529.7c-.43,0-.86-.07-1.3-.07h0a14.92,14.92,0,0,0,0,29.84h0a14.76,14.76,0,0,0,5.84-1.19,43,43,0,0,0,38.44,23.77v36.76a32,32,0,0,0,32,32.05h0a32,32,0,0,0,32-32.05V504.35Z" transform="translate(13.44)"/><path class="cls-7" d="M1684.51,449.4h-72.25A29.56,29.56,0,0,0,1582.7,479v10.29a15.1,15.1,0,0,0,15.1,15.1h79.71v71.42h15.34A39.79,39.79,0,0,0,1732.64,536V497.54A48.13,48.13,0,0,0,1684.51,449.4Z" transform="translate(13.44)"/><path class="cls-29" d="M1671.1,523.62h13a13,13,0,0,1,13,13h0a13,13,0,0,1-13,12.95h-13" transform="translate(13.44)"/><path class="cls-36" d="M1628.74,561.75h10.62a12.23,12.23,0,0,0,12.22-12.23h0" transform="translate(13.44)"/><path class="cls-61" d="M1622.4,749.63h143.49a0,0,0,0,1,0,0v0a67.74,67.74,0,0,1-67.74,67.74H1622.4a0,0,0,0,1,0,0V749.63A0,0,0,0,1,1622.4,749.63Z"/><g class="cls-93"><line class="cls-94" x1="1622.4" y1="782.24" x2="1765.89" y2="782.24"/></g><path class="cls-12" d="M1622.4,749.63h143.49a0,0,0,0,1,0,0v0a67.74,67.74,0,0,1-67.74,67.74H1622.4a0,0,0,0,1,0,0V749.63A0,0,0,0,1,1622.4,749.63Z"/><rect class="cls-95" x="1687.05" y="668.94" width="46.8" height="46.8"/><path class="cls-4" d="M1923,348.27V451.84a79.2,79.2,0,0,1-79.2,79.2h0V455.75h-3.48a32.19,32.19,0,0,1-32.19-32.19V348.27Z" transform="translate(13.44)"/><path class="cls-36" d="M1892.78,395.48a14.85,14.85,0,1,0-29.69,0" transform="translate(13.44)"/><path class="cls-36" d="M1638.66,537.05a14.85,14.85,0,0,0-29.7,0" transform="translate(13.44)"/><path class="cls-36" d="M1808.12,395.48a14.85,14.85,0,1,1,29.69,0v17.84h18.4" transform="translate(13.44)"/><path class="cls-36" d="M1855.88,434.75h2.34a18.27,18.27,0,0,0,18.27-18.27h0" transform="translate(13.44)"/><line class="cls-4" x1="1857.23" y1="455.75" x2="1902.02" y2="455.75"/><path class="cls-20" d="M1730,33.72h.06a0,0,0,0,1,0,0v.06a50.91,50.91,0,0,1-50.91,50.91h-.06a0,0,0,0,1,0,0v-.06A50.91,50.91,0,0,1,1730,33.72Z" transform="translate(61.06 463.65) rotate(-15.71)"/><path class="cls-20" d="M1702.25,16.43h.06a0,0,0,0,1,0,0v.06A50.91,50.91,0,0,1,1651.4,67.4h-.06a0,0,0,0,1,0,0v-.06A50.91,50.91,0,0,1,1702.25,16.43Z" transform="translate(380.74 1090.07) rotate(-40.11)"/><path class="cls-20" d="M1739.61,65.51h.06a0,0,0,0,1,0,0v.06a50.91,50.91,0,0,1-50.91,50.91h-.06a0,0,0,0,1,0,0v-.06a50.91,50.91,0,0,1,50.91-50.91Z" transform="translate(63.06 -328.45) rotate(11.1)"/><circle class="cls-10" cx="1676.03" cy="82.07" r="41.95"/><circle class="cls-15" cx="1613.2" cy="106.89" r="49.81"/><circle class="cls-66" cx="1613.2" cy="106.89" r="35.22"/><path class="cls-34" d="M1600.08,155.71h102a0,0,0,0,1,0,0v43.89a9.41,9.41,0,0,1-9.41,9.41h-83.22a9.41,9.41,0,0,1-9.41-9.41V155.71A0,0,0,0,1,1600.08,155.71Z"/><path class="cls-34" d="M1550.78,104.71a86.88,86.88,0,1,0,173.76,0Z" transform="translate(13.44)"/><line class="cls-71" x1="1566.67" y1="133.88" x2="1734.48" y2="133.88"/><line class="cls-16" x1="1515.33" y1="226.04" x2="1515.33" y2="318.49"/><path class="cls-68" d="M1524.5,155.46v46.23a22.62,22.62,0,0,1-45.23,0V155.46" transform="translate(13.44)"/><line class="cls-68" x1="1521.98" y1="219.06" x2="1521.98" y2="145.46"/><line class="cls-68" x1="1508.68" y1="219.06" x2="1508.68" y2="145.46"/><path class="cls-17" d="M1524.5,201.69a22.62,22.62,0,0,1-45.23,0Z" transform="translate(13.44)"/><rect class="cls-17" x="1492.71" y="189.88" width="45.23" height="11.81"/><path class="cls-8" d="M1567.12,377.76h179.12a0,0,0,0,1,0,0v25.3a20.39,20.39,0,0,1-20.39,20.39H1587.52a20.39,20.39,0,0,1-20.39-20.39v-25.3A0,0,0,0,1,1567.12,377.76Z"/><path class="cls-8" d="M1627.88,234.95h57.6a62.95,62.95,0,0,1,62.95,62.95v2.18a0,0,0,0,1,0,0h-183.5a0,0,0,0,1,0,0V297.9a62.95,62.95,0,0,1,62.95-62.95Z"/><rect class="cls-96" x="1569.98" y="311.55" width="178.45" height="29.08"/><path class="cls-10" d="M1528.55,300.08a22.94,22.94,0,0,0,45.88,0Z" transform="translate(13.44)"/><path class="cls-10" d="M1574.43,300.08a22.94,22.94,0,1,0,45.87,0Z" transform="translate(13.44)"/><path class="cls-10" d="M1620.3,300.08a22.94,22.94,0,0,0,45.88,0Z" transform="translate(13.44)"/><path class="cls-10" d="M1666.18,300.08a22.94,22.94,0,1,0,45.87,0Z" transform="translate(13.44)"/><path class="cls-10" d="M1712.05,300.08a22.94,22.94,0,0,0,45.88,0Z" transform="translate(13.44)"/><rect class="cls-97" x="1560.43" y="337.18" width="192.5" height="25.32"/><path class="cls-34" d="M1739.43,362.78h0a21,21,0,0,1-21,21H1635a33,33,0,0,1-56.59,5.67v9.45c0,8.4-6.45,15.64-14.85,16a15.61,15.61,0,0,1-16.37-15.59V362.78Z" transform="translate(13.44)"/><line class="cls-71" x1="1631.01" y1="234.95" x2="1631.01" y2="265.58"/><line class="cls-71" x1="1682.35" y1="234.95" x2="1682.35" y2="265.58"/><line class="cls-71" x1="1656.68" y1="234.95" x2="1656.68" y2="265.58"/><rect class="cls-8" x="597.66" y="868.21" width="47.15" height="230.12"/><circle class="cls-21" cx="621.23" cy="911.2" r="80.87"/><g class="cls-98"><rect class="cls-23" x="513.31" y="775.19" width="94.4" height="253.19" transform="translate(5.25 5.14) rotate(-0.52)"/><line class="cls-12" x1="621.97" y1="992.06" x2="620.5" y2="830.33"/><line class="cls-24" x1="621.2" y1="907.88" x2="701.71" y2="867.3"/><line class="cls-24" x1="619.63" y1="954.37" x2="700.13" y2="913.79"/><line class="cls-24" x1="621.2" y1="907.88" x2="539.98" y2="868.77"/><line class="cls-24" x1="623.63" y1="954.34" x2="542.4" y2="915.23"/></g><circle class="cls-12" cx="621.23" cy="911.2" r="80.87"/><rect class="cls-99" x="1996.58" y="932.23" width="44.15" height="44.15"/><rect class="cls-99" x="1996.58" y="1000.7" width="44.15" height="44.15"/><rect class="cls-99" x="1996.58" y="863.76" width="44.15" height="44.15"/><rect class="cls-99" x="1996.58" y="795.29" width="44.15" height="44.15"/><circle class="cls-52" cx="1807.49" cy="724.71" r="13.17"/><circle class="cls-52" cx="1821.65" cy="99.26" r="13.17"/><line class="cls-48" x1="1158.18" y1="300.08" x2="1158.18" y2="335.87"/><path class="cls-2" d="M922,724.75v39.16a29.71,29.71,0,0,1-29.71,29.71H756.77V739.81A74.18,74.18,0,0,1,831,665.62h31.89a59.13,59.13,0,0,1,59.08,56.52Q922,723.43,922,724.75Z" transform="translate(13.44)"/><path class="cls-56" d="M922,741.1v-19H839.38v71.48h52.9a29.71,29.71,0,0,0,29.6-27.26H922a12.63,12.63,0,0,0,0-25.26Z" transform="translate(13.44)"/><path class="cls-12" d="M922,741.1v-19H839.38v71.48h52.9a29.71,29.71,0,0,0,29.6-27.26H922a12.63,12.63,0,0,0,0-25.26Z" transform="translate(13.44)"/><path class="cls-36" d="M907.64,747.24a9.6,9.6,0,1,0-19.19,0" transform="translate(13.44)"/><path class="cls-36" d="M918,778.7H899.76a17,17,0,0,1-17-17h0" transform="translate(13.44)"/><line class="cls-12" x1="1179.65" y1="716.51" x2="1148.43" y2="716.51"/><path class="cls-58" d="M964.74,220.62v39h-9.51V236.24l-8.73,23.41h-7.67l-8.78-23.47v23.47h-9.51v-39h11.23l11,27,10.85-27Z" transform="translate(13.44)"/><path class="cls-58" d="M1004.34,220.62l-13.51,26.13v12.9h-9.51v-12.9l-13.51-26.13H978.6L986.16,237l7.51-16.34Z" transform="translate(13.44)"/><path class="cls-58" d="M937.29,301.79q5.44-4.5,8.59-7.39a36.15,36.15,0,0,0,5.31-6.06,11,11,0,0,0,2.16-6.17,5.45,5.45,0,0,0-1.05-3.56,4.39,4.39,0,0,0-6.48.31,7.25,7.25,0,0,0-1.19,4.47h-9.18a15.77,15.77,0,0,1,2-7.89,11.77,11.77,0,0,1,5.06-4.67,16,16,0,0,1,7-1.5q6.62,0,10,3.39a12,12,0,0,1,3.36,8.84,17.31,17.31,0,0,1-4.06,11,59.77,59.77,0,0,1-10.34,9.93h15v7.72H935.56v-7.06C936.82,302.18,937.4,301.72,937.29,301.79Z" transform="translate(13.44)"/><path class="cls-58" d="M971,274.89q3.69-5.5,11.92-5.51t11.93,5.51q3.69,5.49,3.7,15.06t-3.7,15.18q-3.71,5.5-11.93,5.5T971,305.13q-3.7-5.5-3.7-15.18T971,274.89Zm17,6.42q-1.21-3-5.06-3t-5.06,3a24.09,24.09,0,0,0-1.22,8.64,36,36,0,0,0,.45,6.26,7.92,7.92,0,0,0,1.8,4,6.07,6.07,0,0,0,8.06,0,7.92,7.92,0,0,0,1.81-4,36,36,0,0,0,.45-6.26A23.84,23.84,0,0,0,988,281.31Z" transform="translate(13.44)"/><path class="cls-58" d="M938.83,323.65q3.67-3.22,9.95-3.22a16.28,16.28,0,0,1,7.15,1.44,10.25,10.25,0,0,1,6,9.56,9.33,9.33,0,0,1-1.83,6,9.23,9.23,0,0,1-4.29,3.14v.22a10.05,10.05,0,0,1,5,3.51,10.19,10.19,0,0,1,1.83,6.28,11.57,11.57,0,0,1-1.58,6.09,10.85,10.85,0,0,1-4.62,4.14,16.07,16.07,0,0,1-7.2,1.5q-6.66,0-10.64-3.28t-4.2-9.9h9.23a5.65,5.65,0,0,0,1.39,3.87,5.11,5.11,0,0,0,3.89,1.41,4.38,4.38,0,0,0,3.36-1.25,4.55,4.55,0,0,0,1.2-3.3,4.41,4.41,0,0,0-1.7-3.87c-1.13-.79-2.93-1.19-5.42-1.19h-1.78v-7.73h1.78a9.53,9.53,0,0,0,4.59-1,3.63,3.63,0,0,0,1.75-3.48,4.21,4.21,0,0,0-1.11-3.11,4.14,4.14,0,0,0-3.06-1.11,3.79,3.79,0,0,0-3.14,1.27,5.71,5.71,0,0,0-1.19,3.17h-9.29Q935.17,326.88,938.83,323.65Z" transform="translate(13.44)"/><path class="cls-58" d="M971,326q3.69-5.51,11.93-5.5t11.92,5.5q3.69,5.5,3.7,15.07t-3.7,15.17q-3.69,5.5-11.92,5.51T971,356.28q-3.7-5.49-3.7-15.17T971,326Zm17,6.42c-.81-2-2.5-3-5-3s-4.25,1-5.06,3a23.86,23.86,0,0,0-1.23,8.65,35.88,35.88,0,0,0,.45,6.25,8,8,0,0,0,1.8,4,6.09,6.09,0,0,0,8.07,0,8,8,0,0,0,1.8-4,35.88,35.88,0,0,0,.45-6.25A23.86,23.86,0,0,0,988,332.46Z" transform="translate(13.44)"/><line class="cls-41" x1="945.92" y1="378.79" x2="1017.71" y2="378.79"/><line class="cls-41" x1="929.8" y1="204.42" x2="1020.92" y2="204.42"/></g></g></svg>